<svg enable-background="new 0 0 141.7816 141.8349" viewBox="0 0 141.7816 141.8349" xmlns="http://www.w3.org/2000/svg"><path d="m70.4812 141.8349c19.4339-.2272 35.9637-6.7264 49.6323-19.9061 13.4836-13.0013 20.7849-29.0546 21.592-47.7827.8709-20.2075-5.7383-37.8562-19.754-52.4481-12.9888-13.523-29.0726-20.8172-47.8199-21.6224-20.2072-.868-37.856 5.7437-52.444 19.7633-13.5324 13.0052-20.8253 29.1045-21.6149 47.8744-.8503 20.2106 5.7628 37.8648 19.8131 52.4226 13.8689 14.3698 31.0458 21.4257 50.5954 21.699z" fill="#fff"/><path d="m70.4812 141.8349c-19.5496-.2732-36.7264-7.3292-50.5954-21.699-14.0503-14.5578-20.6634-32.212-19.8131-52.4226.7897-18.7699 8.0826-34.8692 21.6149-47.8744 14.5879-14.0196 32.2368-20.6313 52.444-19.7633 18.7473.8053 34.8311 8.0994 47.82 21.6224 14.0157 14.5919 20.6249 32.2406 19.754 52.4481-.8071 18.7282-8.1085 34.7814-21.592 47.7827-13.6687 13.1797-30.1985 19.6788-49.6324 19.9061zm53.5878-30.6254c.2407-.1396.3416-.3777.437-.6198.2421-.0107.3446-.2059.4626-.3668.3128-.4266.6231-.8556.9176-1.295.8837-1.3183 1.8043-2.6144 2.4968-4.0507.0014-.2268.1973-.3713.245-.5785.2285.0122.2629-.1823.3431-.3251 2.1195-3.7776 3.8828-7.7159 5.2926-11.8107 1.3374-3.8847 2.2736-7.8601 2.7932-11.9422.2586-2.0312.5123-4.0666.5585-6.1045.0661-2.9216.1201-5.8486-.1582-8.7719-.1696-1.782-.3612-3.5578-.6231-5.328-.5542-3.7452-1.5155-7.3825-2.7736-10.9522-1.4818-4.2046-3.3723-8.2124-5.5939-12.0716-2.6542-4.6106-5.9304-8.7487-9.5837-12.5954-1.592-1.6762-3.3349-3.1951-5.0876-4.7035-3.4416-2.9619-7.1988-5.4587-11.1851-7.6081-3.3419-1.8019-6.8117-3.3332-10.4092-4.5594-3.8879-1.3252-7.8591-2.2818-11.9425-2.796-2.0478-.2579-4.0991-.523-6.1547-.5661-2.9219-.0612-5.8487-.1191-8.7719.1603-1.7818.1703-3.5577.3642-5.3276.6252-3.7452.5523-7.3827 1.5155-10.9518 2.7744-4.1878 1.4771-8.1813 3.3582-12.0257 5.5721-4.7308 2.7244-8.9732 6.0871-12.8946 9.8644-1.7761 1.7108-3.3902 3.5736-4.9734 5.4651-2.8362 3.3883-5.2281 7.0697-7.2902 10.9672-1.3429 2.5383-2.5471 5.1437-3.5607 7.8345-.9035 2.3984-1.7089 4.8288-2.3208 7.3173-.7585 3.0844-1.2451 6.2144-1.5628 9.3772-.2137 2.1269-.3335 4.2578-.3233 6.3873.0071 1.4773-.0057 2.9594.1015 4.4427.1034 1.4304.1711 2.8668.3697 4.2846.3236 2.3109.6515 4.6215 1.1805 6.9018.3853 1.6609.8392 3.3011 1.339 4.9259.508 1.6515 1.095 3.2795 1.7406 4.8871.8764 2.1824 1.8344 4.3253 2.9363 6.4004 1.1257 2.12 2.3731 4.1679 3.7016 6.1709 1.4208 2.1422 3.0012 4.1597 4.645 6.1252 1.2598 1.5065 2.5979 2.9533 4.0375 4.2947.5313.4951.9382 1.1433 1.6539 1.4269.4912.5889 1.1012 1.048 1.6812 1.54.3741.3188.7396.6483 1.1237.9545 2.5231 2.012 5.1261 3.9128 7.9124 5.5474 1.0428.6118 2.0564 1.284 3.1939 1.7228.0896.1904.2841.2367.4481.3228 1.5159.7953 3.08 1.4876 4.6478 2.1718 2.5256 1.1021 5.1297 1.9866 7.7744 2.7475 2.3587.6787 4.7486 1.2374 7.174 1.6251.9233.1476 1.8405.3687 2.7867.3325.2524.2076.5645.1637.8567.2032 1.9081.1611 3.8163.3302 5.7313.3762 3.7365.0897 7.4537-.1396 11.1557-.6659 5.3114-.7552 10.4505-2.1432 15.4247-4.1424 1.6023-.644 3.2027-1.2986 4.7094-2.1546.455-.095.8545-.3002 1.203-.6064.5762-.2357 1.1189-.5378 1.6483-.861.2493-.1522.5941-.1934.6964-.5383.3752.1217.5757-.1228.7751-.3698.1836.0036.3219-.1075.4659-.1943 4.189-2.5258 8.0453-5.4878 11.5946-8.8517.1362-.1291.2821-.2501.3137-.4513.3458-.112.5604-.3633.7174-.6757.1772-.0037.2652-.1439.3669-.2523.9884-1.0531 2.0057-2.082 2.9407-3.1808.3149-.3701.8319-.6301.8759-1.2074.3426-.1118.5136-.3738.6119-.6994.6327-.4975 1.1117-1.1137 1.4326-1.8522z" fill="#5f6065"/><path d="m103.975 128.944c-.1029.3453-.4476.3864-.697.5387-.5294.3232-1.0722.6253-1.6483.861-.123-.2056-.2502-.4088-.3684-.6171-1.1383-2.0065-2.2778-4.0124-3.4091-6.0229-.1491-.2649-.3929-.3368-.6057-.2237-.9635.5123-2.0307.5869-3.0705.7395-1.6387.2404-3.2683.5451-4.9433.5242-1.4603-.0182-2.8989-.1966-4.3375-.3862-.4319-.0569-.6047.1085-.7287.4425-.9158 2.4659-1.7916 4.9455-2.5778 7.4566-.1243.397-.2172.8281-.5929 1.2569-.0828-1.6784-.2095-3.2231-.2207-4.7687-.0106-1.4601-.0623-2.9227.0638-4.384.0723-.8383-.2649-1.2249-1.0434-1.2773-2.1401-.1442-4.0684-.9964-6.0057-1.7998-1.3248-.5494-2.6188-1.174-3.9185-1.7825-1.3609-.6371-2.7216-1.2737-4.0896-1.8958-.9771-.4444-1.9067-1.002-2.8277-1.5585-1.5941-.9632-3.2239-1.8831-4.7312-2.9701-1.9794-1.4275-3.8051-3.0451-5.5378-4.7822-2.2342-2.2398-4.234-4.653-5.9591-7.2935-.4895-.7493-1.0101-1.5098-1.168-2.4348-.0576-.3372-.3562-.4803-.6423-.4833-.3396-.0035-.3855.2987-.4358.5854-.1442.8218-.2216 1.657-.4652 2.4594-.0413.1361-.0236.3454-.2259.3568-.147.0083-.2271-.1366-.2923-.2593-.8091-1.5239-1.7224-3.0038-2.165-4.6915-.181-.69-.5569-1.3788-.2151-2.1322.0513-.1131-.0501-.1819-.1384-.243-.3067-.212-.6174-.098-.8025.3288-.2778.6406-.5452 1.2861-.7995 1.9364-.5595 1.4313-1.0121 2.8972-1.4511 4.37-.4859 1.6305-.8239 3.2775-.881 4.9802-.0056.1667.0766.3729-.1026.506-.1547-.0436-.188-.1713-.2503-.2684-.6299-.9817-1.1493-2.029-1.6045-3.0936-.6828-1.597-1.3287-3.2075-1.8356-4.8824-.4744-1.5676-.9029-3.1463-1.3213-4.7266-.4712-1.7799-.6992-3.6093-.8618-5.4434-.1878-2.1182-.1875-4.2348.0991-6.3454.0777-.572.1468-1.1692.435-1.6635.1531-.2625.1911-.4556.0152-.6213-.1871-.1762-.4317-.1987-.6948-.0165-.7088.4909-1.2078 1.1536-1.619 1.889-.6008 1.0745-1.181 2.1605-1.7701 3.2416-.0536.0983-.0606.2716-.22.2299-.1216-.0319-.1512-.1769-.1595-.3001-.0406-.608-.2033-1.1961-.2666-1.8045-.1324-1.2731-.2147-2.5458-.2482-3.8238-.0311-1.1852.1338-2.35.2839-3.5224.1529-1.1948.9861-2.1802.9681-3.4124-.0009-.063.044-.1285.0738-.1898.2165-.4455.4334-.8908.6527-1.3349.1181-.2391.1199-.4639-.1872-.506-.2267-.0311-.4811-.0445-.6953.1029-1.1231.773-2.2833 1.4911-3.1868 2.5501-.3366.3945-.6412.8252-1.0885 1.2777 0-.2329-.0169-.363.0027-.4874.1513-.9621.253-1.9366.4767-2.882.6317-2.6694 1.541-5.2377 2.724-7.7245.7612-1.6002 1.7632-3.0321 2.7154-4.5021.226-.3489.1976-.5233-.0712-.7616-.4891-.4338-1.0459-.7616-1.6035-1.0979-.9947-.5998-1.928-1.3044-3.0177-1.7378-.2986-.1188-.2392-.2206-.0155-.3616.7224-.4555 1.4264-.9417 2.1627-1.373.8222-.4816 1.7106-.8584 2.4996-1.3864.9168-.6134 1.8868-1.0972 2.9002-1.5083.3586-.1455.4969-.3358.2673-.7004-.4306-.6839-.7536-1.4218-1.0474-2.172-.1886-.4815-.4211-.9483-.7709-1.3189-.4849-.5138-.7323-1.1507-1.0543-1.7521-.094-.1756-.1421-.2965.0973-.3945.6499-.2662 1.2626-.6108 1.8922-.9197 1.3492-.662 2.7346-1.2501 3.9307-2.1905.562-.4419.571-.4825.199-1.1145-.5271-.8956-1.0748-1.7809-1.4778-2.7457-.1306-.3125-.0892-.3921.2534-.3521.7799.0911 1.5614.1943 2.3447.222 1.0219.0362 2.0424.0806 3.0708.0088 1.0507-.0733 2.0967-.1674 3.1966-.349-.2639.4385-.6792.6133-.9585.928-.1382.1558-.3017.3211-.1389.538.1564.2084.3581.152.5462.0259.1414-.0948.2953-.1771.4186-.2918 1.0296-.9584 2.216-1.7154 3.3685-2.4991 1.594-1.084 3.447-1.6159 5.2906-2.1388 1.8761-.5321 3.8151-.7134 5.7205-1.0806.1259-.0243.3211.0191.3078-.1743-.0102-.1483-.19-.1179-.3016-.1178-.6798.0008-1.3622-.102-2.0388.0546-.1512.035-.3141.0683-.5794-.0682.8059-.2956 1.4882-.6169 2.206-.7957 2.1337-.5315 4.2468-1.1434 6.4335-1.4659 1.9487-.2874 3.8983-.5395 5.865-.5079 1.9305.031 3.8615.0972 5.7916.2111 1.6912.0998 3.3717.2449 5.0401.5242 1.3951.2336 2.7809.5246 4.1778.7457 1.4522.2298 2.8881.5199 4.3082.9015.7233.1944 1.4462.4235 2.2131.3917.2435-.0101.4871-.074.4874-.3403.0003-.2264-.2461-.2304-.4379-.2528-.4078-.0475-.8157-.1042-1.2021-.2528-.1493-.0574-.2883-.1291-.1875-.3387.4074-.847.4818-1.7751.6426-2.6816.0343-.1936.0815-.2978.3229-.2846.6665.0363 1.3003.2179 1.9348.3928 1.6246.4478 3.0199 1.3454 4.3897 2.2843.4608.3158.8125.2086.9577-.3324.0176-.0657.0152-.1367.0324-.2026.1208-.4638.2434-.5144.6248-.2177.433.3368.8092.7349 1.1347 1.1772 1.4855 2.0191 2.687 4.1868 3.4343 6.5905.0496.1594.2845.3442.0136.4785-.1849.0916-.4286.2809-.621.1126-.8948-.7824-1.8974-1.4555-2.584-2.4556-.6036-.8791-1.1772-1.781-2.2535-2.1763-.2369-.087-.4639-.2306-.661-.3906-.549-.4458-1.1804-.6002-1.868-.5939-.089.0008-.1756.015-.2254.0948-.0779.1247.0224.1797.1042.243.3638.2814.7275.5631 1.0887.8478 1.1748.9262 2.3885 1.8022 3.1314 3.1698.4951.9113 1.1549 1.7339 1.4022 2.7725.058.2435.2639.3647.4837.4932 1.4994.8764 3.0871 1.6209 4.3903 2.7996.4572.4135.9202.834 1.3429 1.3962-.8949-.0054-1.645-.2759-2.4028-.4275-2.0527-.4109-4.1222-.6237-6.2019-.7809-.2861-.0216-.4139-.1155-.49-.3999-.3126-1.1681-1.2826-1.8736-2.5007-1.8563-.1282.0018-.269.0485-.3719-.0698.0015-.117.0913-.1437.1619-.1835 1.1287-.6371 2.3702-.9565 3.6162-1.2474.591-.138.7315-.4041.4214-.9495-.2854-.502-.5798-1.0019-.8178-1.5266-.1642-.3622-.3837-.4817-.7633-.4188-.673.1115-1.3499.1987-2.0252.2961-.0347-.0304-.0694-.0608-.1042-.0912.0056-.3201.2504-.512.3981-.7579.1905-.317.2749-.7319-.0518-.9318-.6386-.3908-1.2189-.8826-1.9225-1.167-.2384-.0964-.442-.0905-.6758.0553-.6858.4279-1.1138 1.0964-1.6462 1.6703-.7218.7779-1.1062 1.9462-2.4797 1.9829-.8307.0222-1.5454.726-2.4487.554-.2341-.0446-.4728-.0848-.7102-.09-1.5113-.0331-2.9528.3663-4.3407.8781-1.6011.5905-3.1661 1.2987-4.5117 2.3921-.3023.2457-.5634.322-.9535.1063-1.6361-.9048-3.4504-1.1448-5.2744-1.3388-1.2851-.1367-2.5588-.0396-3.8334.1198-1.3103.1638-2.5865.4454-3.761 1.0757-.2089.1121-.4053.2639-.4269.5405-.0718.9176-.1541 1.8345-.2145 2.7529-.0335.5094.2655.7577.7647.6636.877-.1653 1.7578-.2812 2.6534-.2234.0973.0063.2243-.0429.2694.0806.0476.1307-.082.1732-.165.2173-.6459.3434-1.1074.8992-1.6311 1.3862-.3928.3653-.6463.7631-.5464 1.316.0788.436.1103.8943.2729 1.2984.276.6856.8732 1.0301 1.2711.6532.7727-.732 1.7516-1.0953 2.7481-1.4081.2206-.0692.2218-.0651.567.0325-1.1435.5272-1.9398 1.3994-2.7821 2.2215-.5245.512-1.1224.9492-1.5789 1.5311-.2192.2795-.338.5301.1456.6916.2633.0879.4195.2854.447.6154.0228.2724-.0501.5009-.1063.7477-.0939.412-.2812.9249-.0464 1.2249.2262.289.5867-.1791.9068-.2538.1315-.0307.2677-.0664.3845-.131.9855-.5454 1.9718-1.0845 2.9941-1.5634 1.997-.9357 4.0463-1.7272 6.1499-2.3826.1085-.0338.267-.1134.3288.0113.089.1796-.1215.2063-.2207.2785-.0674.049-.1527.0765-.2331.1044-2.3425.8143-4.5839 1.8621-6.7788 3.0046-1.5922.8287-3.2439 1.544-4.7761 2.487-.1938.1193-.5174.1788-.467.4719.0502.2917.1748.5745.5541.6587.2413.0536.4607.2186.6817.3475.6939.4048 1.3635.8579 2.0823 1.2114.5518.2713 1.0669.7308 1.7996.4193 2.1462-.9126 4.3974-1.5012 6.6529-2.0697.4012-.1011.8159-.1701 1.1968.0539.3959.2328.7796.4882 1.1563.7512.3056.2134.8571.2463.9179.5601.0626.3233-.4332.5626-.6438.8747-.6983 1.0349-1.3445 2.1042-2.0376 3.1405-1.7003 2.542-3.0352 5.2324-3.5298 8.2759-.2297 1.4129-.6991 2.7919-.6344 4.2494.0072.162.0009.3025-.2572.2387-.1916-.0473-.4603-.0148-.5452.1776-.1153.2614.1609.374.3249.5109.2213.1846.4637.3464.6698.546.714.6916 1.2927 1.4989 1.87 2.3 1.5677 2.1752 3.1663 4.3251 4.8411 6.4203 1.3432 1.6805 2.6535 3.3913 3.6322 5.3249.085.1678.2404.3754.4188.3382.507-.1056.9879.1125 1.4985.039.7356-.1059 1.4342-.3238 2.1357-.5395 1.2886-.3963 2.5807-.7851 3.8534-1.2287 1.6141-.5625 3.1576-1.2971 4.7118-2.0069 1.6634-.7597 3.2878-1.5962 4.9216-2.4136 1.2825-.6417 2.5289-1.3555 3.791-2.0378.2692-.1455.4728-.2163.3707.2385-.0581.259.0582.4815.2886.6053.2524.1357.4882.0896.6957-.1292.1161-.1225.2696-.209.4035-.3151 1.1922-.9456 2.5247-1.6936 3.7096-2.6524.6093-.493 1.2791-.911 1.9218-1.3628.1984-.1395.3579-.1664.3563.15-.008 1.6198-.019 3.2396-.0343 4.8594-.0011.1103.0418.2699-.1039.3128-.1278.0376-.203-.1019-.2947-.1732-.2551-.1982-.4666-.4583-.7915-.5571-.2701-.0822-.5587-.3036-.8168-.0552-.2449.2357-.2037.5848-.1219.8787.1396.5013.1288 1.0152.1748 1.5216.1675 1.8457-.132 3.6475-.617 5.4195-.4067 1.4857-.8704 2.9584-1.9166 4.1462-.9821 1.1151-1.9845 2.2128-2.9977 3.2999-.5247.5629-1.0951 1.083-1.6365 1.6308-.0836.0846-.2736.1766-.1504.327.1045.1276.253.0001.3775-.0412.0476-.0158.0988-.0404.1324-.0761.9083-.9647 2.1349-1.5099 3.1219-2.371.2301-.2007.4161-.4466.6888-.6061.2323-.1359.3711-.1094.4852.1342.1809.3862.3744.7664.5602 1.1504.7604 1.5709 1.0739 3.2661 1.3557 4.966.3066 1.8497.3222 3.7249.1414 5.5757-.0851.8709-.0955 1.4872.5525 2.2004.7698.8473 1.3728 1.8718 1.9122 2.9033.324.6195.662 1.239.9191 2.0453-.4041-.3009-.6911-.5075-.9703-.724-.8251-.6397-1.6389-1.2943-2.4735-1.9213-.496-.3726-.7125-.3026-.986.2626-.0816.1687-.1298.3534-.2056.5253-.2402.5441-.466 1.0959-.7342 1.6262-.5864 1.1594-1.469 2.1016-2.3645 3.0141-.5262.5361-1.0363 1.1375-1.8324 1.3468-.3073.0808-.3142.3693-.2172.64.1495.4176.31.8313.4527 1.2511.6651 1.9551 1.1538 3.9588 1.6341 5.9646zm-65.1658-83.532c1.5297-.5512 2.845-1.4472 4.3562-1.9075.2268-.0691.5162-.1367.5266-.4153.0105-.2785-.2497-.4274-.4712-.561-.4386-.2647-.8844-.5178-1.3184-.7896-.2631-.1647-.5707-.4333-.8311-.2074-.3108.2696.024.5577.1894.7966.1363.1969.118.2976-.1099.3734-.9974.3316-1.8714.9073-2.7816 1.4119-1.4252.79-2.669 1.7801-3.5383 3.1855-.1047.1693-.2567.3457-.0792.5579.1502.1797.3343.1962.557.1413.2139-.0528.4395-.0706.6607-.0768.1807-.005.432-.0886.5243.0874.1105.2105-.1214.3618-.2484.5124-.7189.8521-1.1114 1.8761-1.5108 2.8928-.1581.4025-.0054.573.444.516.3358-.0426.6646-.1424.9959-.2195.6303-.1466.6641-.1135.5157.5138-.457 1.9313-.7725 3.8764-.7537 5.8736.0085.9013.0957 1.8031.042 2.7019-.0567.949.2258 1.8563.2667 2.7906.0039.09.0357.1812.1398.1779.1103-.0035.1408-.0994.1052-.1856-.104-.2523.004-.5078-.0284-.7617-.2512-1.9711-.0201-3.914.3327-5.8526.1906-1.0471.6104-2.0274.8328-3.0672.2345-1.0966.4638-2.2072 1.2108-3.1209.2333-.2854.0471-.5549-.3224-.6526-.5055-.1337-1.0301-.1023-1.6642-.1576.6077-.6623 1.122-1.2297 1.6441-1.7898.4868-.5223.9012-1.1205 1.5289-1.4972.1485-.0891.3441-.152.2877-.3634-.047-.1762-.1541-.3583-.36-.3949-.3939-.0701-.7385-.2421-1.1429-.5124zm18.7174 31.0328c1.1584-.0757 2.1195-.5649 3.1769-.6307.233-.0145.4461-.073.6042-.238.1459-.1522.1663-.3339-.106-.3533-.387-.0276-.7632-.1163-1.1672-.0427-1.5222.2776-3.0224.6674-4.588.7169-1.6764.053-3.2424-.2581-4.74-1.0089-.5486-.275-1.0445-.6532-1.6384-.839-.1852-.058-.4028-.1278-.509.0699-.1174.2185.0603.3891.23.5087 1.2558.8855 2.6498 1.5185 4.1281 1.8588 1.1392.2623 2.3223.3534 3.4206.7886.9107.3608 1.9134.3964 2.7995.8306.1569.0769.3322.0592.4051-.0917.0839-.1736-.1134-.208-.2201-.2812-.5692-.39-1.2129-.6776-1.7957-1.288z" fill="#887a60"/><path d="m25.8066 120.3692c-.7157-.2834-1.1225-.9316-1.6539-1.4268-1.4396-1.3414-2.7777-2.7882-4.0375-4.2947-1.6437-1.9656-3.2241-3.9831-4.645-6.1252-1.3285-2.0029-2.5759-4.0509-3.7016-6.1709-1.1018-2.0751-2.0598-4.218-2.9363-6.4004-.6456-1.6077-1.2326-3.2356-1.7406-4.8871-.4998-1.6248-.9537-3.265-1.339-4.9259-.529-2.2803-.8569-4.5909-1.1805-6.9018-.1985-1.4178-.2663-2.8542-.3697-4.2846-.1072-1.4834-.0945-2.9655-.1015-4.4427-.0102-2.1295.1096-4.2604.3233-6.3873.3177-3.1628.8043-6.2928 1.5628-9.3772.6119-2.4885 1.4173-4.919 2.3208-7.3173 1.0136-2.6907 2.2178-5.2962 3.5607-7.8345 2.0621-3.8975 4.454-7.5788 7.2902-10.9672 1.5832-1.8915 3.1973-3.7543 4.9734-5.4651 3.9214-3.7773 8.1638-7.1399 12.8946-9.8644 3.8444-2.214 7.8379-4.095 12.0257-5.5721 3.5691-1.2589 7.2066-2.2221 10.9518-2.7744 1.7699-.261 3.5458-.4548 5.3276-.6252 2.9231-.2794 5.85-.2215 8.7719-.1603 2.0556.0431 4.1069.3082 6.1547.5661 4.0834.5143 8.0546 1.4709 11.9425 2.796 3.5975 1.2262 7.0673 2.7575 10.4092 4.5594 3.9863 2.1493 7.7435 4.6462 11.1851 7.6081 1.7527 1.5084 3.4956 3.0272 5.0876 4.7035 3.6533 3.8467 6.9295 7.9848 9.5837 12.5954 2.2216 3.8592 4.1121 7.867 5.5939 12.0716 1.2581 3.5697 2.2194 7.207 2.7736 10.9522.2619 1.7701.4535 3.546.6231 5.328.2782 2.9233.2243 5.8503.1582 8.7719-.0461 2.038-.2999 4.0733-.5585 6.1045-.5197 4.0822-1.4558 8.0576-2.7932 11.9422-1.4098 4.0948-3.173 8.0331-5.2926 11.8107-.0802.1429-.1146.3374-.3431.3251-.0394-.032-.074-.0752-.1189-.0943-1.8395-.7819-3.6771-1.5684-5.5213-2.3392-1.2585-.526-2.5075-1.0849-3.7967-1.5232-.8187-.2783-1.5157-.6557-2.1166-1.2783-1.2423-1.2872-2.601-2.4537-3.8269-3.7642-1.0706-1.1444-2.2987-2.1409-3.4474-3.2132-.4175-.3897-.7806-.7968-.5807-1.4659.2548-.8528.3379-1.7425.4082-2.6269.0735-.9241.1034-1.8517.1559-2.8472.3227.2872.6078.5118.7782.8582.093.1891.2482.3483.4907.2885.2405-.0593.3938-.2419.4022-.4804.0343-.9803.3024-1.921.4733-2.8772.3029-1.6953.1757-3.4076.2091-5.1111.0109-.5568.3707-.6394.675-.8248.5378-.3276.9983-.7156 1.2667-1.2947.6466-1.3952 1.2975-2.7886 1.9228-4.1933.1709-.3839.4332-.6058.8231-.6945.6129-.1395 1.1983-.3715 1.824-.4838.3041-.0546.6277-.3082.7615-.6769.3864-1.0645.5583-2.1745.715-3.2885.1198-.8517-.0802-1.5838-.7962-2.1171-.1618-.1205-.1499-.2445-.0735-.399.257-.5202.3491-1.1091.6664-1.6045.6477-.3349.7545-.8581.251-1.2295.0641-.3749.1282-.7499.1923-1.1248.2891.101.3122-.2011.4441-.3172.1744-.1536.4651-.2873.3224-.6217-.1334-.3125-.3816-.4184-.7028-.3966-.1175-.507-.0644-1.0164-.0216-1.5257.0649.1001.1325.1547.2304.0302.2804-.3567.1455-.7255-.3206-.8711-.0549-.0139-.0777-.0462-.0583-.1024-.0195-.0265-.0321-.0559-.0378-.0885-.0756-.1081-.0587-.2218-.02-.3367.308-.1736.4202-.5233.3868-.7851-.037-.29-.3775-.3886-.6939-.3336-.4032-.8091-.6991-1.6336-.3844-2.5518.2771-.8082.5208-1.6238.6146-2.4791.0282-.2575.1454-.5053.3519-.6685.491-.388.8652-.8797 1.2241-1.3774.5974-.8285.8503-1.7757.5867-2.7667-.3824-1.4376-1.7683-2.0797-3.3172-1.6125-.1439.0434-.2669.1284-.4399.0792-1.2068-.3433-2.4536-.4062-3.6946-.467-1.7554-.086-3.4539.2428-5.0037 1.0643-1.0666.5653-1.3187.2398-1.8567-.3938-.851-1.0021-1.661-2.0376-2.7364-2.8183-.2247-.1631-.2947-.3721-.3546-.641-.2299-1.0321-.2626-2.1017-.5956-3.1125-.5789-1.7574-1.351-3.4282-2.2516-5.0428-.8489-1.522-1.8497-2.905-3.3111-3.9146-.6762-.4671-1.2131-.4273-1.6279.2663-.1898.3173-.3364.3643-.6768.1972-1.3026-.6392-2.5753-1.3461-3.942-1.8472-.9152-.3355-1.8446-.6205-2.8332-.6358-.396-.0061-.584.161-.4782.5701.2643 1.022-.1897 1.9079-.5352 2.8123-.1126.2947-.3104.3638-.6479.3002-1.6099-.3032-3.2043-.6775-4.8284-.9206-2.5209-.3774-5.0503-.6286-7.5913-.7967-2.7969-.185-5.5928-.2769-8.3941-.0791-1.6865.119-3.3773.2144-5.0361.5456-1.773.3541-3.5504.715-5.2892 1.2037-1.7691.4973-3.5556.9849-5.1759 1.9083-.3041.1733-.5759.3847-.949.4741-.9792.2344-1.9468.5288-2.9015.8512-1.834.6194-3.539 1.5325-5.2645 2.3946-.3325.1661-.6684.261-1.0289.2718-1.1783.0353-2.3539-.004-3.5292-.1093-1.4444-.1295-2.8897-.292-4.3435-.2102-.7538.0424-.9253.3318-.7156 1.0674.3088 1.0835.6061 2.1699 1.1086 3.186.1676.3388.0914.5832-.2341.8161-1.5505 1.1096-3.2008 2.0228-5.0092 2.6389-.3091.1053-.6851.706-.5308.9535.4189.6721.5163 1.485.9685 2.1345.1122.1612.0957.2804-.0131.4123-.5678.6881-1.0084 1.4618-1.4865 2.21-.6793 1.0631-1.411 2.0979-1.8891 3.2756-.1496.3685-.3928.6163-.7248.8258-.5626.3552-1.1138.7325-1.6415 1.1374-.2604.1998-.6741.3865-.6129.761.0579.3546.5148.3371.7977.4598 1.0937.4745.9471.1826.4592 1.1769-1.0148 2.0681-1.6557 4.2615-2.3349 6.4449-.5232 1.6819-.9083 3.3997-1.3032 5.115-.2948 1.2805-.6809 2.5438-.907 3.8356-.3975 2.271-.8558 4.5322-1.1088 6.8293-.1928 1.7505-.2631 3.5048-.2818 5.2595-.0145 1.3587.1095 2.7186.1603 4.0784.1041 2.7856.461 5.5455.8573 8.3.2775 1.9287.5975 3.8514.9095 5.775.1917 1.1817.285 2.385.696 3.5221.4986 1.3792.8464 2.8001 1.1797 4.2243.0811.3465.304.4862.5735.4177.2451-.0624.4667-.2306.3139-.618-.178-.4511-.0168-.9178.0848-1.4681.0954.1477.1446.1889.1472.2329.0814 1.368.3168 2.7131.5899 4.0532.2115 1.0381.3782 2.0869.6313 3.1146.4272 1.7364.8864 3.466 1.4699 5.159z" fill="#e2b794"/><path d="m120.4073 57.0321c-.0428.5093-.0959 1.0187.0216 1.5257-.0212.4452-.0425.8904-.0637 1.3356-.0641.3749-.1282.7499-.1923 1.1248.0117.4293-.3234.7878-.251 1.2295-.3173.4954-.4094 1.0843-.6664 1.6045-.0763.1545-.0883.2785.0735.399.716.5334.916 1.2655.7962 2.1171-.1567 1.114-.3286 2.224-.715 3.2885-.1338.3687-.4574.6223-.7615.6769-.6257.1123-1.2111.3443-1.824.4838-.3899.0888-.6522.3106-.8231.6945-.6253 1.4047-1.2763 2.7981-1.9228 4.1933-.2684.5792-.7289.9671-1.2667 1.2947-.3043.1854-.6641.268-.675.8248-.0334 1.7035.0938 3.4158-.2091 5.1111-.1709.9562-.439 1.8968-.4733 2.8772-.0083.2384-.1617.421-.4022.4804-.2424.0598-.3976-.0994-.4907-.2885-.1704-.3464-.4555-.571-.7782-.8582-.0526.9955-.0824 1.9231-.1559 2.8472-.0704.8844-.1534 1.774-.4082 2.6269-.1999.6691.1632 1.0762.5807 1.4659 1.1487 1.0723 2.3768 2.0688 3.4474 3.2132 1.2259 1.3104 2.5846 2.477 3.8269 3.7642.6008.6226 1.2978 1 2.1166 1.2783 1.2893.4382 2.5382.9972 3.7967 1.5232 1.8442.7708 3.6818 1.5573 5.5213 2.3392.0449.0191.0794.0623.1189.0943-.0476.2072-.2436.3517-.245.5785-.1658.0361-.3376.1027-.4944-.0097-.493-.3533-1.0715-.5362-1.6222-.7495-2.3248-.9007-4.6419-1.822-7.0161-2.5947-.7031-.2288-1.4403-.3277-2.0344-1.0046-1.0533-1.2002-2.2807-2.2582-3.5015-3.298-1.2612-1.0742-2.5197-2.1472-3.6964-3.3141-.3026-.3001-.623-.5836-.909-.8985-.2792-.3075-.42-.1508-.5234.1281-.0944.2545-.094.5671-.2455.7731-.4969.6759-.2288 1.2211.2103 1.7666 1.1042 1.3718 2.089 2.8252 2.979 4.3444 1.0817 1.8464 1.9406 3.7965 2.7862 5.7595 1.1172 2.5935 2.0329 5.2428 2.6605 7.9974.3489 1.5316.5456 3.0887.8651 4.6241-.1571.3124-.3716.5637-.7174.6756-.291-1.7348-.5777-3.4714-1.0414-5.1704-.6473-2.3717-1.3731-4.7188-2.2692-7.0109-.8427-2.1556-1.9149-4.1949-3.0669-6.1981-.8903-1.5482-2.0137-2.9179-3.1543-4.2778-.0835-.0995-.1472-.3122-.3536-.155-.2744.209-.377.7872-.2195 1.1182.2709.5694.582 1.1272.7823 1.7214 1.1506 3.4121 1.8172 6.8938 1.4402 10.5196-.03.2881-.0661.5982.1329.8898.9755 1.4294 1.6513 3.0159 2.3839 4.5746.4064.8648.735 1.7642 1.1732 2.6102.1544.298.2644.5323.0059.7644-.2683.2409-.5954.158-.841-.0419-1.1663-.9495-2.5933-1.5272-3.6777-2.5901-.1158-.1135-.2296-.1805-.3105.0165-.1395.3396-.4103.5867-.6005.8901-1.1365 1.8122-2.3548 3.5566-4.113 4.8385-.2552.186-.3174.3586-.2325.6845.5472 2.0999 1.062 4.2082 1.5874 6.3138-.1993.247-.3998.4915-.7748.3696-.4801-2.006-.9687-4.0097-1.6331-5.965-.1426-.4199-.3032-.8336-.4527-1.2511-.0969-.2707-.0901-.5592.2172-.64.7961-.2093 1.3062-.8107 1.8324-1.3468.8956-.9124 1.7781-1.8546 2.3645-3.0141.2682-.5302.494-1.082.7342-1.6262.0759-.1719.124-.3566.2056-.5253.2735-.5652.4899-.6353.986-.2626.8346.627 1.6484 1.2816 2.4735 1.9213.2793.2165.5663.4231.9703.724-.2571-.8064-.5952-1.4259-.9191-2.0453-.5394-1.0315-1.1424-2.056-1.9122-2.9033-.648-.7133-.6376-1.3296-.5525-2.2004.1809-1.8508.1653-3.7259-.1414-5.5757-.2818-1.6999-.5953-3.3951-1.3557-4.966-.1858-.3839-.3793-.7642-.5602-1.1504-.1141-.2436-.2529-.27-.4852-.1342-.2727.1595-.4587.4054-.6888.6061-.987.861-2.2137 1.4063-3.1219 2.371-.0336.0357-.0848.0603-.1324.0761-.1245.0413-.273.1688-.3775.0412-.1231-.1504.0668-.2424.1504-.327.5413-.5478 1.1118-1.0678 1.6365-1.6308 1.0131-1.0871 2.0155-2.1848 2.9977-3.2999 1.0462-1.1878 1.51-2.6605 1.9166-4.1462.4851-1.772.7846-3.5739.617-5.4195-.046-.5064-.0351-1.0203-.1748-1.5216-.0819-.2939-.123-.643.1219-.8787.2581-.2484.5467-.027.8168.0552.3249.0989.5364.3589.7915.5571.0917.0713.1669.2108.2947.1732.1457-.0428.1029-.2025.1039-.3128.0153-1.6198.0262-3.2396.0343-4.8594.0016-.3164-.1579-.2895-.3563-.15-.6426.4517-1.3125.8698-1.9218 1.3628-1.1849.9588-2.5174 1.7068-3.7096 2.6524-.1339.1062-.2874.1927-.4035.3151-.2076.2189-.4433.2649-.6957.1292-.2304-.1238-.3468-.3463-.2886-.6053.1021-.4548-.1015-.3841-.3707-.2385-1.2621.6823-2.5085 1.3962-3.791 2.0378-1.6338.8174-3.2582 1.654-4.9216 2.4136-1.5542.7098-3.0977 1.4443-4.7118 2.0069-1.2727.4435-2.5648.8324-3.8534 1.2287-.7015.2157-1.4001.4337-2.1357.5395-.5106.0735-.9915-.1446-1.4985-.039-.1784.0372-.3338-.1704-.4188-.3382-.9787-1.9336-2.289-3.6444-3.6322-5.3249-1.6748-2.0953-3.2734-4.2451-4.8411-6.4203-.5774-.8011-1.156-1.6084-1.87-2.3-.2061-.1997-.4486-.3614-.6698-.546-.164-.1368-.4402-.2495-.3249-.5109.0849-.1924.3535-.2249.5452-.1776.2581.0638.2644-.0767.2572-.2387-.0647-1.4576.4048-2.8366.6344-4.2494.4947-3.0435 1.8296-5.734 3.5298-8.2759.6931-1.0363 1.3393-2.1056 2.0376-3.1405.2106-.3121.7065-.5514.6438-.8747-.0608-.3138-.6123-.3467-.9179-.5601-.3767-.2631-.7604-.5184-1.1563-.7512-.3809-.224-.7955-.155-1.1968-.0539-2.2554.5684-4.5066 1.1571-6.6529 2.0697-.7327.3115-1.2478-.148-1.7996-.4193-.7188-.3534-1.3884-.8066-2.0823-1.2114-.2211-.129-.4405-.294-.6817-.3475-.3794-.0842-.504-.367-.5541-.6587-.0504-.293.2732-.3526.467-.4719 1.5322-.943 3.184-1.6583 4.7761-2.487 2.1949-1.1425 4.4362-2.1903 6.7788-3.0046.0804-.028.1657-.0554.2331-.1044.0992-.0722.3097-.0989.2207-.2785-.0618-.1247-.2203-.0451-.3288-.0113-2.1036.6554-4.1529 1.447-6.1499 2.3826-1.0223.479-2.0087 1.0181-2.9941 1.5634-.1168.0646-.253.1003-.3845.131-.3201.0747-.6806.5427-.9068.2538-.2348-.3-.0475-.8128.0464-1.2249.0562-.2467.129-.4753.1063-.7477-.0276-.33-.1838-.5275-.447-.6154-.4836-.1615-.3649-.4122-.1456-.6916.4565-.5819 1.0544-1.0191 1.5789-1.5311.8423-.8221 1.6386-1.6942 2.7821-2.2215-.3452-.0976-.3465-.1017-.567-.0325-.9965.3127-1.9753.6761-2.7481 1.4081-.3979.3769-.9951.0325-1.2711-.6532-.1627-.4041-.1941-.8624-.2729-1.2984-.1-.5528.1535-.9507.5464-1.316.5237-.487.9852-1.0428 1.6311-1.3862.083-.0441.2127-.0866.165-.2173-.045-.1235-.1721-.0743-.2694-.0806-.8957-.0578-1.7764.0581-2.6534.2234-.4992.0941-.7982-.1542-.7647-.6636.0603-.9184.1427-1.8353.2145-2.7529.0216-.2766.2179-.4284.4269-.5405 1.1745-.6303 2.4507-.9119 3.761-1.0757 1.2745-.1594 2.5483-.2564 3.8334-.1198 1.824.194 3.6383.4341 5.2744 1.3388.3901.2157.6512.1394.9535-.1063 1.3456-1.0935 2.9106-1.8017 4.5117-2.3921 1.3879-.5118 2.8294-.9113 4.3407-.8781.2374.0052.476.0454.7102.09.9033.172 1.6179-.5318 2.4487-.554 1.3734-.0368 1.7579-1.205 2.4797-1.9829.5325-.5739.9604-1.2424 1.6462-1.6703.2337-.1458.4373-.1517.6758-.0553.7036.2845 1.2839.7762 1.9225 1.167.3267.1999.2423.6148.0518.9318-.1477.2459-.3925.4377-.3976.7579-.0084.0418-.0172.0836-.0261.1254.0433-.0114.0865-.0229.1298-.0343.6753-.0974 1.3523-.1846 2.0252-.2961.3797-.0629.5991.0567.7633.4188.2379.5247.5324 1.0246.8178 1.5266.3101.5454.1696.8115-.4214.9495-1.2461.2909-2.4875.6103-3.6162 1.2474-.0706.0398-.1603.0665-.1619.1835.103.1183.2438.0716.3719.0698 1.2181-.0172 2.1882.6882 2.5007 1.8563.0761.2843.2039.3782.49.3999 2.0797.1572 4.1492.3699 6.2019.7809.7577.1517 1.5079.4221 2.4028.4275-.4228-.5623-.8858-.9827-1.3429-1.3962-1.3032-1.1787-2.8908-1.9232-4.3903-2.7996-.2199-.1285-.4258-.2497-.4837-.4932-.2473-1.0386-.9071-1.8612-1.4022-2.7725-.7429-1.3676-1.9566-2.2436-3.1314-3.1698-.3612-.2848-.7249-.5664-1.0887-.8478-.0819-.0633-.1821-.1183-.1042-.243.0498-.0797.1364-.094.2254-.0948.6876-.0063 1.3191.1481 1.868.5939.1971.16.4241.3036.661.3906 1.0763.3953 1.6499 1.2972 2.2535 2.1763.6867 1.0001 1.6893 1.6731 2.584 2.4556.1924.1683.4361-.021.621-.1126.271-.1342.036-.3191-.0136-.4785-.7473-2.4038-1.9489-4.5714-3.4343-6.5905-.3255-.4424-.7016-.8404-1.1347-1.1772-.3814-.2967-.5041-.2461-.6248.2177-.0172.0659-.0148.1369-.0324.2026-.1452.541-.4969.6482-.9577.3324-1.3699-.9389-2.7652-1.8365-4.3897-2.2843-.6345-.1749-1.2683-.3565-1.9348-.3928-.2414-.0131-.2886.091-.3229.2846-.1608.9064-.2352 1.8346-.6426 2.6816-.1008.2096.0382.2813.1875.3387.3864.1486.7943.2052 1.2021.2528.1917.0223.4382.0263.4379.2528-.0004.2663-.244.3302-.4874.3403-.7669.0318-1.4898-.1974-2.2131-.3917-1.4201-.3816-2.8561-.6717-4.3082-.9015-1.3969-.2211-2.7827-.5121-4.1778-.7457-1.6684-.2793-3.349-.4244-5.0401-.5242-1.9301-.1139-3.8611-.1801-5.7916-.2111-1.9667-.0315-3.9163.2205-5.865.5079-2.1867.3225-4.2997.9345-6.4335 1.4659-.7178.1788-1.4001.5001-2.206.7957.2653.1365.4283.1032.5794.0682.6766-.1566 1.359-.0538 2.0388-.0546.1116-.0001.2915-.0306.3016.1178.0132.1934-.1819.15-.3078.1743-1.9054.3672-3.8444.5486-5.7205 1.0806-1.8436.5228-3.6966 1.0548-5.2906 2.1388-1.1525.7837-2.3389 1.5407-3.3685 2.4991-.1233.1148-.2772.1971-.4186.2918-.1881.1261-.3898.1826-.5462-.0259-.1627-.2169.0007-.3822.1389-.538.2792-.3147.6946-.4895.9585-.928-1.0999.1816-2.1458.2757-3.1966.349-1.0284.0718-2.0489.0274-3.0708-.0088-.7834-.0277-1.5649-.131-2.3447-.222-.3426-.04-.3839.0396-.2534.3521.403.9648.9507 1.8501 1.4778 2.7457.372.632.363.6726-.199 1.1145-1.1961.9404-2.5815 1.5285-3.9307 2.1905-.6296.3089-1.2423.6535-1.8922.9197-.2393.098-.1913.2189-.0973.3945.3221.6014.5694 1.2383 1.0543 1.7521.3497.3706.5823.8374.7709 1.3189.2938.7502.6168 1.4881 1.0474 2.172.2295.3646.0913.5549-.2673.7004-1.0135.4112-1.9834.8949-2.9002 1.5083-.789.5279-1.6774.9047-2.4996 1.3864-.7363.4313-1.4403.9176-2.1627 1.373-.2236.141-.2831.2428.0155.3616 1.0897.4334 2.0231 1.138 3.0177 1.7378.5576.3362 1.1144.6641 1.6035 1.0979.2688.2383.2972.4127.0712.7616-.9522 1.4701-1.9541 2.902-2.7154 4.5021-1.183 2.4868-2.0923 5.0551-2.724 7.7245-.2237.9454-.3254 1.9199-.4767 2.882-.0196.1244-.0027.2546-.0027.4874.4473-.4525.7519-.8831 1.0885-1.2777.9034-1.059 2.0636-1.7771 3.1868-2.5501.2142-.1474.4686-.1339.6953-.1029.3071.0421.3053.2669.1872.506-.2194.4441-.4362.8894-.6527 1.3349-.0298.0613-.0747.1268-.0738.1898.018 1.2322-.8152 2.2175-.9681 3.4124-.1501 1.1725-.315 2.3373-.2839 3.5224.0335 1.278.1158 2.5507.2482 3.8238.0633.6084.226 1.1966.2666 1.8045.0082.1232.0378.2682.1595.3001.1594.0417.1665-.1316.22-.2299.5891-1.081 1.1693-2.167 1.7701-3.2416.4112-.7354.9101-1.3981 1.619-1.889.2631-.1822.5077-.1598.6948.0165.1759.1657.1379.3588-.0152.6213-.2882.4943-.3574 1.0915-.435 1.6635-.2866 2.1106-.2869 4.2272-.0991 6.3454.1626 1.8341.3906 3.6635.8618 5.4434.4184 1.5802.8469 3.159 1.3213 4.7266.5069 1.6749 1.1527 3.2854 1.8356 4.8824.4552 1.0646.9747 2.1119 1.6045 3.0936.0623.0971.0955.2248.2503.2684.1791-.1331.097-.3393.1026-.506.0572-1.7028.3951-3.3498.881-4.9802.4389-1.4728.8916-2.9387 1.4511-4.37.2542-.6503.5216-1.2958.7995-1.9364.1851-.4268.4958-.5408.8025-.3288.0883.0611.1897.1299.1384.243-.3418.7534.0341 1.4422.2151 2.1322.4426 1.6877 1.356 3.1676 2.165 4.6915.0652.1228.1452.2677.2923.2593.2023-.0115.1845-.2207.2259-.3568.2437-.8024.321-1.6376.4652-2.4594.0503-.2867.0963-.5889.4358-.5854.2861.003.5848.1461.6423.4833.1579.9251.6785 1.6856 1.168 2.4348 1.7251 2.6405 3.725 5.0537 5.9591 7.2935 1.7327 1.7371 3.5584 3.3547 5.5378 4.7822 1.5074 1.0871 3.1371 2.007 4.7312 2.9701.921.5565 1.8507 1.1141 2.8277 1.5585 1.368.6222 2.7287 1.2587 4.0896 1.8958 1.2996.6084 2.5937 1.2331 3.9185 1.7825 1.9373.8034 3.8656 1.6556 6.0057 1.7998.7785.0525 1.1157.4391 1.0434 1.2773-.1261 1.4614-.0744 2.924-.0638 4.384.0112 1.5455.1379 3.0903.2207 4.7687.3758-.4288.4686-.8598.5929-1.2569.7862-2.511 1.662-4.9906 2.5778-7.4566.124-.334.2968-.4995.7287-.4425 1.4387.1896 2.8773.368 4.3375.3862 1.675.0209 3.3047-.2838 4.9433-.5242 1.0397-.1526 2.107-.2271 3.0705-.7395.2127-.1131.4566-.0413.6057.2237 1.1312 2.0105 2.2708 4.0164 3.4091 6.0229.1182.2083.2454.4116.3684.6171-.3486.3062-.7481.5113-1.2031.6064-.3879-.6414-.7623-1.2913-1.1665-1.9222-.7448-1.1626-1.4647-2.3368-2.0562-3.5885-.1707-.3613-.3826-.666-.9428-.4963-.6804.2062-1.4061.2699-2.1153.3732-1.8615.2712-3.7347.3121-5.6136.3132-1.0612.0006-2.1186-.0501-3.1778-.0774-.2081-.0054-.4523-.0714-.5464.2391-.4019 1.3262-.9323 2.6037-1.4429 3.8909-.5452 1.3742-.9893 2.7892-1.4543 4.1942-.2674.808-.5419 1.6208-.7044 2.4527-.0647.331-.172.4983-.4413.472-.2669-.0261-.5627-.1099-.5558-.5219.0259-1.5468-.1063-3.0902-.1679-4.634-.0888-2.2273-.1421-4.4547-.1274-6.6816.004-.6123-.2094-.7841-.729-.9062-2.386-.5606-4.6839-1.3971-6.9665-2.2788-2.3947-.9249-4.7398-1.9674-7.0437-3.0931-2.2868-1.1173-4.5721-2.2476-6.6837-3.6897-2.3532-1.6071-4.5317-3.413-6.5038-5.4772-2.22-2.3236-4.2485-4.7795-5.7234-7.6567-.2667-.5203-.5802-1.0168-.872-1.5242-.2163.4486-.3312.8709-.4065 1.3001-.0908.5179-.1473 1.0417-.2202 1.5628-.04.2857-.253.4773-.4758.5584-.219.0797-.3224-.1854-.4445-.3499-.7143-.9622-1.3352-1.9837-1.9167-3.0286-.5588-1.0042-1.0919-2.0229-1.6525-3.0654-.5726.7279-.8384 1.5538-1.1349 2.364-.0272.0742-.0344.171-.0121.2458.2236.7508.4508 1.5006.6856 2.248.949 3.021 2.5448 5.7483 3.9313 8.5674 1.5475 3.1465 3.4464 6.0964 5.3003 9.0681 1.4388 2.3063 2.797 4.6619 4.3621 6.891 1.7596 2.5061 3.5515 4.975 5.6803 7.1938.4373.4558.6262.3295.9884.0767 1.4391-1.0042 2.8742-2.0143 4.5445-2.6229.3087-.1125.619-.0674.7981.1061.1801.1745.1306.4856-.0561.7366-.3684.4953-.618 1.0538-.8208 1.6378-.4246 1.2228-.9782 2.4052-1.1366 3.7094-.2923-.0394-.6043.0044-.8567-.2032.015-.2208-.0099-.4534.0515-.6604.3342-1.1262.6937-2.2449 1.0332-3.3696.046-.1524.2032-.2864.103-.4972-.0637.0205-.1305.0288-.1829.0607-1.1667.7101-2.2364 1.56-3.3567 2.3372-.427.2963-.8519.3272-1.2382-.018-1.3271-1.1857-2.5771-2.4502-3.6908-3.8382-1.9593-2.4418-3.7457-5.0097-5.4612-7.6273-1.0286-1.5695-2.0575-3.139-3.0863-4.7084-.0094-.2003-.138-.3429-.2357-.5031-.7556-1.2386-1.5852-2.4356-2.2282-3.7382-.6492-1.3151-1.2173-2.6703-1.8674-3.9849-1.0227-2.068-1.8924-4.2033-2.8276-6.3096-.3568-.8036-.6502-1.6353-.9724-2.4541-.4947 2.0127-.8005 4.0248-.7307 6.0795.0101.2981-.0687.5447-.3717.6631-.2901.1134-.4436-.0957-.598-.2741-.1223-.1414-.239-.2927-.3303-.4552-1.0714-1.9076-1.9959-3.8831-2.8032-5.9179-.3663-.9233-.633-1.8748-.9466-2.8126-.4148-1.2402-.8218-2.4841-1.1869-3.7396-.2946-1.0131-.5409-2.0414-.7742-3.0708-.2327-1.0271-.456-2.0587-.6162-3.0987-.0738-.479-.0719-.9757-.1254-1.4635-.1336-1.2179-.3601-2.4252-.3602-3.6591 0-.4265.1372-.8498.0628-1.3759-.5748.7089-1.1135 1.3152-1.5157 2.0332-.2999.5355-.4019 1.2162-1.074 1.4958-.2915.1213-.4611.1367-.558-.2379-.3706-1.4325-.6943-2.8593-.7855-4.3544-.0839-1.3765-.2291-2.7467-.1258-4.1252.0812-1.0827.0867-2.1695.3423-3.2415.1826-.7657.2708-1.5556.5835-2.4203-.9271.572-1.5481 1.288-2.2057 1.966-.4281.4414-.6628 1.0437-1.1743 1.4083-.4774.3402-.8127.1679-.9601-.3924-.2124-.8076-.0109-1.5989.0802-2.3785.1712-1.4648.5062-2.906.8439-4.3453.4295-1.831 1.0816-3.5796 1.901-5.258.6948-1.4231 1.5159-2.7847 2.289-4.1692.0816-.1461.0937-.2422.0296-.414-.3305-.8853-1.0856-1.4149-1.6845-2.0739-.1715-.1887-.2777-.0359-.3281.1211-.1827.5696-.5205 1.0677-.6981 1.6468-.2338.7622-.5873 1.487-.8719 2.2345-.3512.9226-.7732 1.8136-1.0678 2.7638-.4238 1.3671-.7431 2.7617-1.1857 4.1242-.7117 2.1909-1.2493 4.4266-1.5007 6.7265-.1996 1.8263-.5141 3.6418-.6631 5.4715-.1492 1.8322-.1744 3.6755-.2216 5.5147-.0578 2.2557.1268 4.5022.2956 6.7497.0763 1.0159.2505 2.0167.3792 3.024.1939 1.5178.4013 3.0349.764 4.526.2108.8665.4016 1.7385.5741 2.6135.1812.9192.5219 1.7941.6972 2.719.0951.5013.2189 1.0378.4834 1.6253.0618-.181.095-.2401.1009-.3018.0355-.3698.2543-.6447.5909-.673.3588-.0301.4717.2964.5608.6163.16.5743.1713 1.1697.2452 1.7505.222 1.7436.6573 3.441 1.0366 5.1484.3603 1.6219.8287 3.2208 1.281 4.8209.3409 1.2063.6699 2.4175 1.1181 3.5917.0836.219.3314.4333.1032.705-.58-.492-1.19-.9511-1.6812-1.54-.5835-1.6931-1.0427-3.4226-1.4704-5.1591-.2531-1.0277-.4197-2.0765-.6313-3.1146-.2731-1.3401-.5084-2.6852-.5899-4.0532-.0026-.044-.0518-.0852-.1472-.2329-.1016.5503-.2627 1.017-.0848 1.4681.1528.3874-.0688.5556-.3139.618-.2695.0686-.4924-.0711-.5735-.4177-.3333-1.4241-.6811-2.845-1.1797-4.2243-.411-1.137-.5043-2.3403-.696-3.5221-.312-1.9236-.632-3.8463-.9095-5.775-.3963-2.7545-.7532-5.5144-.8573-8.3-.0508-1.3598-.1748-2.7196-.1603-4.0784.0187-1.7547.089-3.5091.2818-5.2595.253-2.2971.7113-4.5583 1.1088-6.8293.2261-1.2918.6122-2.5551.907-3.8356.3949-1.7153.78-3.4331 1.3032-5.115.6792-2.1835 1.32-4.3769 2.3349-6.4449.4879-.9943.6345-.7024-.4592-1.1769-.2829-.1227-.7398-.1052-.7977-.4598-.0612-.3745.3525-.5612.6129-.761.5277-.4049 1.0788-.7823 1.6415-1.1374.332-.2096.5752-.4574.7248-.8258.4781-1.1777 1.2099-2.2125 1.8891-3.2756.478-.7481.9186-1.5219 1.4865-2.21.1088-.1319.1253-.2511.0131-.4123-.4522-.6495-.5496-1.4624-.9685-2.1345-.1543-.2475.2217-.8482.5308-.9535 1.8084-.6161 3.4587-1.5293 5.0092-2.6389.3255-.2329.4017-.4773.2341-.8161-.5025-1.0161-.7997-2.1025-1.1086-3.186-.2097-.7356-.0382-1.025.7156-1.0674 1.4539-.0819 2.8991.0807 4.3435.2102 1.1753.1054 2.3509.1446 3.5292.1093.3605-.0108.6964-.1057 1.0289-.2718 1.7255-.862 3.4305-1.7751 5.2645-2.3946.9547-.3224 1.9223-.6169 2.9015-.8512.3731-.0893.6449-.3007.949-.4741 1.6203-.9234 3.4068-1.411 5.1759-1.9083 1.7387-.4888 3.5162-.8497 5.2892-1.2037 1.6589-.3313 3.3497-.4266 5.0361-.5456 2.8013-.1977 5.5972-.1058 8.3941.0791 2.5409.168 5.0704.4193 7.5913.7967 1.6242.2431 3.2186.6174 4.8284.9206.3376.0636.5353-.0054.6479-.3002.3456-.9044.7995-1.7903.5352-2.8123-.1058-.4091.0821-.5762.4782-.5701.9887.0153 1.9181.3003 2.8332.6358 1.3668.5011 2.6394 1.208 3.942 1.8472.3404.167.4871.12.6768-.1972.4149-.6936.9517-.7334 1.6279-.2663 1.4614 1.0095 2.4623 2.3925 3.3111 3.9146.9005 1.6147 1.6726 3.2855 2.2516 5.0428.333 1.0108.3658 2.0804.5956 3.1125.0599.2689.1299.4779.3546.641 1.0754.7806 1.8853 1.8161 2.7364 2.8183.538.6336.7901.9591 1.8567.3938 1.5498-.8215 3.2483-1.1503 5.0037-1.0643 1.241.0608 2.4878.1237 3.6946.467.173.0492.2961-.0358.4399-.0792 1.5489-.4671 2.9347.1749 3.3172 1.6125.2636.991.0107 1.9382-.5867 2.7667-.3589.4977-.7331.9894-1.2241 1.3774-.2065.1632-.3237.4111-.3519.6685-.0938.8553-.3375 1.6709-.6146 2.4791-.3148.9181-.0189 1.7426.3844 2.5518.1024.3729.2047.7458.307 1.1187-.0387.1149-.0556.2285.0199.3366.0126.0295.0252.059.0378.0885-.0194.0562.0034.0885.0584.1024 0 .2843.1454.5522.09.8417zm-49.4262-5.9143c1.0254-.1835 1.9341-.7592 2.9776-.8857.135-.0164.2182-.137.1554-.2681-.1791-.3739-.2412-.7879-.6035-1.0921-1.271-1.0673-2.7074-.8777-4.0205-.3398-1.3051.5347-2.5191 1.3357-3.3968 2.5288-.4056.5514-.3917 1.637.0807 2.1228.1211.1246.2468.2073.4016.1028.7898-.5327 1.6438-.943 2.5438-1.2952-.4881-.5493-.5608-.7657-.4293-1.2107.2315-.7836 1.2299-1.2395 1.9882-.9077.5062.2215.6241.6967.285 1.1485-.2103-.017-.3138-.1399-.3997-.3293-.0951-.2097-.3003-.1644-.4911-.1309-.2022.0355-.2628.1723-.2092.3287.0814.2377-.145.3269-.2181.4617.532.2882.9206-.0378 1.3359-.2338zm47.3414 2.8507c.0294-.1481-.0207-.2869-.123-.3749-.3638-.3132-.2856-.5593-.0425-.9566.7334-1.1988 1.0736-2.519 1.0164-3.9447-.0237-.5902-.3197-1.2232.1745-1.7793.1761-.1981.3237-.3663.5949-.1783.2276.1578.4064.3177.1688.6223-.1242.1591-.1247.3656-.0267.5524.1807-.0304.2154-.1569.2805-.2519.4296-.6273.639-1.3067.7033-2.0795.0809-.9716-.5277-1.7571-1.4954-1.6224-.6264.0872-1.1903.0253-1.8095-.0949-1.5984-.3102-3.185-.4321-4.839.0004-2.2096.5777-4.1363 1.5771-5.7398 3.1535-1.4042 1.3805-3.0226 2.1849-4.9802 2.2696-1.2041.0521-2.4117.0161-3.3759-.8709-.2687-.2472-.32-.0208-.3808.1358-.2407.6193-.6037 1.1912-.7252 1.8567-.1033.0459-.0908.2521-.2564.2011-.1479-.0455-.131-.1891-.1257-.3033.0063-.1348.036-.269.0615-.4024.1612-.8431.5195-1.625.7571-2.444.0642-.2213.1464-.3961.3896-.4024.2365-.0061.4531.0898.517.3368.079.3052.3069.4322.552.564 1.8715 1.0062 3.6931.6885 5.3859-.3634 1.0065-.6254 1.8671-1.4858 2.8383-2.2772-1.1715-.4564-2.328-.7956-3.4909-1.0833-1.793-.4435-3.6304-.6363-5.4636-.8673-1.8948-.2387-3.7854-.2578-5.6821-.2378-.5979.0063-1.2539.3383-1.5764-.4928-.015-.0386-.0839-.0553-.1263-.0842-.7943-.5426-1.4444-1.2373-2.0734-1.9558-.1752-.2001-.2183-.4094-.0234-.5874.2103-.1921.4123-.0032.5279.1399.263.3255.633.5215.9126.8229.1946.2098.3728.2644.6424.0316.9458-.817 2.0048-1.4494 3.15-1.9692 1.0303-.4676 2.0535-.9354 3.1507-1.2165.3947-.1011.4219-.2354.1578-.5327-.2371-.267-.4263-.5772-.6302-.8727-.0661-.0958-.0915-.232-.2593-.1729-.7713.2715-1.5922.405-2.3123.8165-.1861.1063-.3758.1823-.5823.1559-.2945-.0377-.4511-.2367-.3195-.508.2288-.4716.3373-.9923.627-1.4393.1563-.2412.3771-.534.3469-.7758-.029-.2325-.4614-.1905-.6754-.3534-.3385-.2576-.6207-.2784-.9414.0828-.3375.3802-.7899.6582-1.1286 1.0375-.3849.4311-.9712.7941-1.0679 1.3503-.1196.6874-.5761.6633-1.0122.7267-.7132.1038-1.4036.2816-2.0822.5141-.1663.057-.3423.1398-.2317.3667.1087.2228.2425.4612-.0132.6382-.2321.1607-.4556-.0175-.6641-.1345-.4784-.2686-.9591-.5881-1.5224-.5619-1.094.051-2.1661.2703-3.2117.5989-1.392.4374-2.6996 1.0761-3.9576 1.7996-.6695.385-1.3564.7725-1.8756 1.3894-.2605.3095-.5977.2651-.8934-.0298-.8553-.8529-1.9534-1.2749-3.078-1.5584-1.7737-.4471-3.5866-.4496-5.3996-.2089-1.1041.1466-2.1914.3588-3.2286.7762-.1998.0804-.434.1563-.4622.4278-.0582.5606-.1129 1.1216-.1618 1.6831-.0266.3063.0726.4338.4199.3554.3632-.082.7433-.1064 1.1173-.1198 1.0995-.0392 2.1773.1475 3.2599.3109.3546.0535.5702.1926.5865.5065.0178.3426-.3044.4422-.5725.4755-1.2661.1572-2.2824.7582-3.1357 1.6821-.158.1711-.216.3325-.1585.5538.0809.3113.1522.6252.2196.9397.0592.276.1291.3651.4388.1906 2.3563-1.3274 4.9081-1.871 7.5924-1.7184.913.0519 1.7719.3497 2.5359.9597.9572.7643 1.1821 1.7899 1.3006 2.8909.0576.5352-.1493.933-.6806 1.1271-.2403.0878-.4707.2055-.7147.2796-1.6247.493-3.1419 1.2482-4.6812 1.9432-1.1958.5399-2.3543 1.1637-3.5204 1.7675-.9413.4874-1.8698.9994-2.8024 1.5033-.1404.0758-.3848.1472-.0993.3389.8917.5989 1.7519 1.2477 2.7155 1.7341.1604.081.2934.0665.4744-.0088 1.8766-.7807 3.7744-1.5042 5.7671-1.9406.6997-.1532 1.4347-.2082 2.0934-.4633.4624-.1791.7773-.1043 1.1335.128.5008.3266 1.0013.6535 1.5013.9813.4077.2673.8016.505 1.2024-.0321.1319-.1768.3591-.2124.5486-.0458.2059.1811.0313.3317-.0569.4925-.5298.9661-1.3532 1.7089-1.9687 2.6176-.9112 1.3454-1.8594 2.6642-2.5806 4.1236-1.5833 3.2043-2.7842 6.5325-3.0838 10.1251-.0733.8788.0772 1.7217.7263 2.4315.5971.653 1.1122 1.3806 1.6683 2.0714 1.2024 1.4939 2.273 3.0851 3.4188 4.6208 1.4793 1.9826 3.1188 3.8518 4.3131 6.0365.1694.3098.4261.3398.6858.2892 1.9978-.3898 3.9476-.9729 5.8403-1.7029 2.5142-.9697 5.0269-1.9532 7.4016-3.2513 2.6971-1.4744 5.5349-2.6932 8.0739-4.455.3006-.2086.6517-.0945.7891.2344.247.591.2483.5926.7549.1556.1165-.1005.2073-.2339.3315-.3217 1.702-1.2045 3.4177-2.3897 5.1073-3.6111.6353-.4592 1.3866-.812 1.8499-1.4491.6114-.8407 1.0048-1.8181 1.435-2.766.1036-.2284.1002-.3222-.2094-.3302-.7346-.019-1.3708.2454-1.9663.6213-.29.183-.5574.267-.7492-.0504-.1805-.2986.11-.4632.3096-.6056 1.8449-1.3154 3.672-2.6665 5.9987-3.0346.2499-.0395.4867-.1348.59-.4295.1632-.4653.3777-.9113.4599-1.4051.1087-.6535.302-1.2942.1489-1.9724-.1378-.6104-.3139-.7565-.9194-.7265-1.4549.0721-2.7989.5401-4.1225 1.1052-3.0477 1.3013-5.9664 2.8869-9.0829 4.0411-2.2227.8232-4.488 1.415-6.8274 1.7837-1.5428.2432-3.0889.3364-4.6431.386-.5217.0166-1.043.054-1.5647.0584-.855.0072-1.6853-.1673-2.5227-.3273-1.4669-.2802-2.8336-.7676-3.9006-1.8386-.3279-.3292-.5213-.2557-.8196-.0728-1.023.627-1.8402 1.4019-1.9949 2.6771-.0137.1132-.0691.2421-.193.2874-.1122.041-.2162-.0296-.252-.1252-.1063-.2846-.2604-.574-.1962-.8839.1942-.9375.645-1.6978 1.48-2.2336 1.167-.7488 2.3689-1.4224 3.6518-1.9503.9791-.4029 1.9487-.8382 3.0273-.9003.2079-.012.4848-.16.5378.2441.0476.3631-.1778.4538-.4407.506-1.3011.2581-2.5166.7428-3.6981 1.3359-.3991.2004-.3058.3438-.0212.5251 1.2417.791 2.5915 1.3098 4.0334 1.5967.1753.0349.3347-.0017.502-.0499.6499-.1872.8285-.7366 1.0049-1.2875.145-.4526.388-.7387.9123-.8131.6445-.0915 1.2908-.1505 1.9371-.1946.8622-.0588 1.8241.3194 2.0685 1.4008.1732.7664.2684.7677 1.0776.6451.8793-.1332 1.72-.3985 2.5578-.6869 1.9042-.6555 3.8204-1.2769 5.7191-1.9478 1.0147-.3585 2.0039-.7894 3.0036-1.1902 1.394-.559 2.7819-1.1336 4.1818-1.6772 1.3891-.5395 2.7188-1.2808 4.2682-1.3014.2467-.0033.3976-.1525.5063-.3731.2649-.5374.4739-1.096.6327-1.6709.3094-1.1203.5303-2.2509.5384-3.4257.011-1.5906-.155-3.1279-.9994-4.5229-.0001-.1129-.0667-.18-.1597-.2288zm-25.3769 17.6279c.9558-.0793 1.8541-.1545 2.7525-.2275.0999-.0081.2052.0165.2642-.1026.1366-.2757-.2947-1.3306-.5876-1.4307-1.0755-.3676-2.2853.136-2.7495 1.1445-.2168.4709-.1289.6142.3204.6163zm-65.3385-20.7459c.4743-.0975.7016-.322.9682-.4663.7284-.3943 1.439-.8213 2.1571-1.2347.1323-.0761.1613-.18.0599-.2932-.2917-.3257-.4178-.7431-.6289-1.1131-.1065-.1867-.209-.2475-.3873-.0552-.8506.9175-1.3927 2.0374-2.169 3.1625zm65.1619-8.75c.5918.0228.5918.0228 1.0657-.2888.3404-.2238 1.1021-.2336 1.2254.0499.1631.3751.4311.3658.7288.362.1203-.0016.2921.1117.3546-.0789.0598-.1826-.0341-.32-.1888-.4319-.3837-.2774-.8268-.3844-1.2803-.4488-.7677-.109-1.3799.1659-1.9054.8365zm-21.6448 4.996c.7525.0773 1.402.2493 2.0047.5696.2751.1462.4369-.0014.5204-.2248.1059-.2836-.1453-.2957-.3217-.3309-.705-.1405-1.4123-.2201-2.2034-.0139zm35.6004-3.5388-.0184.0287.0335.0019zm-37.8422 3.918-.0223.0293.0373.0044zm-.1686.1184c-.0111-.0106-.0218-.029-.0335-.0298-.0118-.0008-.0248.016-.0373.025.0112.0107.0218.029.0336.0298s.0247-.016.0372-.025z" fill="#0c0c0c"/><path d="m63.4055 137.5368c.1584-1.3042.712-2.4866 1.1366-3.7094.2028-.584.4524-1.1425.8208-1.6378.1867-.2511.2362-.5622.0561-.7366-.1791-.1735-.4894-.2186-.7981-.1061-1.6703.6086-3.1054 1.6187-4.5445 2.6229-.3622.2527-.5511.3791-.9884-.0767-2.1288-2.2188-3.9207-4.6877-5.6803-7.1938-1.5651-2.229-2.9233-4.5846-4.3621-6.891-1.8538-2.9717-3.7528-5.9216-5.3003-9.0681-1.3865-2.8192-2.9823-5.5465-3.9313-8.5674-.2348-.7474-.462-1.4972-.6856-2.248-.0223-.0748-.0151-.1715.0121-.2458.2965-.8102.5623-1.6361 1.1349-2.364.5607 1.0425 1.0937 2.0611 1.6525 3.0654.5815 1.0449 1.2024 2.0664 1.9167 3.0286.1221.1644.2255.4296.4445.3499.2227-.081.4357-.2727.4758-.5584.073-.521.1294-1.0449.2202-1.5628.0753-.4292.1902-.8515.4065-1.3001.2919.5075.6053 1.0039.872 1.5242 1.4749 2.8772 3.5035 5.3331 5.7234 7.6567 1.9721 2.0642 4.1506 3.8701 6.5038 5.4772 2.1116 1.4421 4.3969 2.5724 6.6837 3.6897 2.3039 1.1257 4.649 2.1682 7.0437 3.0931 2.2826.8816 4.5805 1.7181 6.9665 2.2788.5196.1221.7331.2939.729.9062-.0147 2.2269.0386 4.4543.1274 6.6816.0616 1.5439.1938 3.0872.1679 4.634-.0069.412.2889.4958.5558.5219.2693.0263.3766-.141.4413-.472.1626-.8319.437-1.6447.7044-2.4527.465-1.4049.9091-2.82 1.4543-4.1942.5107-1.2872 1.041-2.5647 1.4429-3.8909.0941-.3105.3384-.2444.5464-.2391 1.0592.0274 2.1165.078 3.1778.0774 1.8788-.0011 3.7521-.042 5.6136-.3132.7093-.1033 1.4349-.167 2.1153-.3732.5601-.1698.7721.135.9428.4963.5914 1.2516 1.3113 2.4259 2.0562 3.5885.4042.6309.7786 1.2809 1.1665 1.9222-1.5067.856-3.1071 1.5107-4.7094 2.1546-4.9742 1.9992-10.1134 3.3872-15.4247 4.1424-3.702.5264-7.4193.7556-11.1557.6659-1.9146-.046-3.8229-.2151-5.731-.3762z" fill="#e5dfb8"/><path d="m27.4877 121.9093c.2282-.2717-.0196-.486-.1032-.705-.4482-1.1742-.7772-2.3854-1.1181-3.5917-.4523-1.6001-.9206-3.199-1.281-4.8209-.3793-1.7074-.8146-3.4048-1.0366-5.1484-.0739-.5808-.0852-1.1762-.2452-1.7505-.0891-.3199-.202-.6464-.5608-.6163-.3366.0282-.5554.3031-.5909.673-.0059.0617-.0391.1208-.1009.3018-.2645-.5875-.3884-1.124-.4834-1.6253-.1754-.9249-.516-1.7999-.6972-2.719-.1725-.8749-.3634-1.747-.5741-2.6135-.3627-1.4911-.5701-3.0082-.764-4.526-.1287-1.0073-.3029-2.0081-.3792-3.024-.1687-2.2474-.3534-4.494-.2956-6.7497.0471-1.8393.0723-3.6825.2216-5.5147.149-1.8296.4635-3.6451.6631-5.4715.2513-2.2999.789-4.5356 1.5007-6.7265.4426-1.3625.7619-2.7572 1.1857-4.1242.2946-.9502.7166-1.8412 1.0678-2.7638.2846-.7475.6381-1.4723.8719-2.2345.1776-.5791.5154-1.0772.6981-1.6468.0504-.1571.1566-.3098.3281-.1211.5989.659 1.354 1.1886 1.6845 2.0739.0641.1718.052.2679-.0296.414-.7731 1.3844-1.5943 2.746-2.289 4.1692-.8194 1.6784-1.4715 3.427-1.901 5.258-.3377 1.4393-.6727 2.8806-.8439 4.3453-.0911.7796-.2926 1.5708-.0802 2.3785.1474.5603.4827.7326.9601.3924.5116-.3646.7462-.9669 1.1743-1.4083.6577-.678 1.2786-1.394 2.2057-1.966-.3127.8647-.4009 1.6545-.5835 2.4203-.2556 1.072-.2611 2.1588-.3423 3.2415-.1033 1.3785.0419 2.7487.1258 4.1252.0912 1.4951.4149 2.9219.7855 4.3544.0969.3745.2665.3592.558.2379.6722-.2796.7741-.9604 1.074-1.4958.4021-.718.9409-1.3243 1.5157-2.0332.0744.5261-.0628.9495-.0628 1.3759.0001 1.234.2266 2.4412.3602 3.6591.0535.4878.0516.9845.1254 1.4635.1602 1.04.3834 2.0716.6162 3.0987.2332 1.0294.4796 2.0577.7742 3.0708.3651 1.2555.7721 2.4994 1.1869 3.7396.3137.9378.5803 1.8893.9466 2.8126.8073 2.0349 1.7318 4.0104 2.8032 5.9179.0913.1625.208.3138.3303.4552.1543.1784.3079.3875.598.2741.303-.1184.3818-.365.3717-.6631-.0699-2.0547.236-4.0668.7307-6.0795.3223.8189.6156 1.6506.9724 2.4541.9353 2.1063 1.8049 4.2416 2.8276 6.3096.6501 1.3146 1.2182 2.6698 1.8674 3.9849.6431 1.3026 1.4726 2.4996 2.2282 3.7382.0977.1602.2263.3027.2357.5031-.0674.1704-.2125.2593-.358.3522-1.4643.9348-2.5118 2.291-3.6299 3.5785-.7959.9165-1.0894 2.0796-1.5902 3.1397-.6137 1.2991-1.1133 2.6432-1.4246 4.051-1.1374-.4388-2.1511-1.111-3.1939-1.7228-2.7863-1.6346-5.3892-3.5354-7.9124-5.5474-.3841-.3064-.7497-.6359-1.1238-.9546z" fill="#504633"/><path d="m104.7495 128.5746c-.5254-2.1056-1.0402-4.2139-1.5874-6.3138-.0849-.3259-.0227-.4984.2325-.6845 1.7582-1.2819 2.9765-3.0263 4.113-4.8385.1902-.3033.461-.5505.6005-.8901.0809-.197.1947-.1301.3105-.0165 1.0844 1.063 2.5114 1.6407 3.6777 2.5901.2456.1999.5727.2828.841.0419.2585-.2322.1485-.4665-.0059-.7644-.4382-.846-.7668-1.7454-1.1732-2.6102-.7326-1.5587-1.4084-3.1451-2.3839-4.5746-.199-.2916-.1629-.6017-.1329-.8898.377-3.6258-.2897-7.1076-1.4402-10.5196-.2004-.5943-.5114-1.152-.7823-1.7214-.1575-.331-.0548-.9092.2195-1.1182.2064-.1572.2701.0555.3536.155 1.1406 1.3598 2.264 2.7296 3.1543 4.2778 1.152 2.0033 2.2242 4.0425 3.0669 6.1981.8961 2.2921 1.6218 4.6392 2.2692 7.0109.4637 1.6989.7504 3.4355 1.0414 5.1704-.0316.2012-.1775.3223-.3137.4513-3.5493 3.3639-7.4056 6.3259-11.5946 8.8517-.1441.0869-.2823.1979-.466.1944z" fill="#e5deb9"/><path d="m39.7177 130.134c.3113-1.4078.8109-2.7519 1.4246-4.051.5008-1.0602.7943-2.2233 1.5902-3.1397 1.1182-1.2875 2.1656-2.6437 3.6299-3.5785.1455-.0929.2906-.1818.358-.3522 1.0288 1.5694 2.0576 3.1388 3.0863 4.7084 1.7155 2.6176 3.5019 5.1854 5.4612 7.6273 1.1137 1.388 2.3636 2.6525 3.6908 3.8382.3863.3452.8112.3143 1.2382.018 1.1203-.7772 2.19-1.6271 3.3567-2.3372.0524-.0319.1192-.0402.1829-.0607.1002.2109-.057.3448-.103.4972-.3394 1.1247-.6989 2.2434-1.0332 3.3696-.0614.207-.0365.4396-.0515.6604-.9463.0362-1.8634-.1849-2.7867-.3325-2.4254-.3877-4.8153-.9464-7.174-1.6251-2.6446-.761-5.2488-1.6454-7.7744-2.7475-1.5679-.6842-3.132-1.3765-4.6478-2.1718-.1641-.0862-.3586-.1325-.4482-.3229z" fill="#887a60"/><path d="m117.8411 118.4015c-.3195-1.5354-.5162-3.0925-.8651-4.6241-.6276-2.7546-1.5433-5.4039-2.6605-7.9974-.8456-1.9629-1.7045-3.9131-2.7862-5.7595-.89-1.5192-1.8748-2.9726-2.979-4.3444-.4391-.5455-.7072-1.0907-.2103-1.7666.1515-.206.1512-.5187.2455-.7731.1034-.2789.2442-.4356.5234-.1281.286.315.6064.5985.909.8985 1.1767 1.1668 2.4352 2.2399 3.6964 3.3141 1.2208 1.0398 2.4482 2.0977 3.5015 3.298.5941.677 1.3313.7758 2.0344 1.0046 2.3742.7726 4.6913 1.694 7.0161 2.5947.5506.2133 1.1292.3962 1.6222.7495.1568.1124.3286.0459.4944.0097-.6925 1.4362-1.6131 2.7323-2.4967 4.0506-.2945.4393-.6049.8683-.9176 1.295-.1179.1609-.2205.3561-.4626.3668-.033-.1215-.0122-.2965-.2045-.2845-.1369.0085-.1842.1371-.1954.2563-.0203.2152-.0255.4319-.037.648-.3208.7385-.7998 1.3547-1.4324 1.8521-.4091-.5437-.8399-1.0687-1.1372-1.6923-.3594-.754-.7575-1.4898-1.1462-2.2296-.1007-.1917-.271-.3636-.4915-.2564-.2169.1054-.2656.3418-.1897.5784.0258.0803.0824.1501.1138.2292.5758 1.4506 1.4387 2.7431 2.2389 4.0702-.044.5773-.561.8373-.8759 1.2074-.935 1.0988-1.9523 2.1276-2.9407 3.1808-.1019.1082-.1898.2484-.3671.2521z" fill="#887a60"/><path d="m122.0246 113.761c-.8002-1.327-1.6632-2.6195-2.2389-4.0702-.0314-.079-.088-.1489-.1138-.2292-.0759-.2366-.0272-.4729.1897-.5784.2205-.1072.3908.0647.4915.2564.3887.7398.7868 1.4756 1.1462 2.2296.2973.6236.7281 1.1486 1.1372 1.6923-.0982.3257-.2693.5877-.6119.6995z" fill="#0c0c0c"/><path d="m124.069 111.2095c.0115-.2161.0167-.4328.037-.648.0113-.1191.0585-.2477.1954-.2563.1922-.012.1715.163.2045.2845-.0953.2421-.1962.4803-.4369.6198z" fill="#121111"/><path d="m38.8092 45.412c.4044.2703.7491.4423 1.1428.5122.2059.0365.313.2187.36.3949.0564.2114-.1392.2743-.2877.3634-.6277.3767-1.0421.975-1.5289 1.4972-.5221.5601-1.0364 1.1274-1.6441 1.7898.6341.0553 1.1587.0239 1.6642.1576.3695.0977.5557.3672.3224.6526-.747.9138-.9764 2.0243-1.2108 3.1209-.2223 1.0398-.6422 2.0201-.8328 3.0672-.3528 1.9386-.584 3.8816-.3327 5.8526.0324.2539-.0757.5094.0284.7617.0356.0862.0051.1821-.1052.1856-.1041.0033-.1358-.0879-.1398-.1779-.0409-.9342-.3234-1.8415-.2667-2.7906.0537-.8988-.0336-1.8007-.042-2.7019-.0187-1.9972.2968-3.9423.7537-5.8736.1484-.6273.1146-.6604-.5157-.5138-.3313.0771-.66.1769-.9959.2195-.4494.057-.6021-.1135-.444-.516.3994-1.0167.7919-2.0406 1.5108-2.8928.127-.1506.3589-.3019.2484-.5124-.0924-.176-.3436-.0925-.5243-.0874-.2212.0062-.4468.024-.6607.0768-.2227.0549-.4067.0384-.557-.1413-.1774-.2123-.0255-.3886.0792-.5579.8693-1.4054 2.1132-2.3955 3.5383-3.1855.9102-.5046 1.7842-1.0803 2.7816-1.4119.2279-.0758.2462-.1766.1099-.3734-.1655-.2389-.5003-.527-.1894-.7966.2604-.2258.5681.0427.8311.2074.4341.2718.8798.5249 1.3184.7896.2214.1337.4816.2826.4712.561-.0105.2785-.2998.3462-.5266.4153-1.5111.4605-2.8264 1.3565-4.3561 1.9077z" fill="#0b0b0b"/><path d="m57.5266 76.4448c.5829.6104 1.2265.898 1.7957 1.2882.1067.0732.304.1076.2201.2812-.0729.1509-.2482.1686-.4051.0917-.8861-.4342-1.8889-.4698-2.7995-.8306-1.0983-.4352-2.2815-.5263-3.4206-.7886-1.4783-.3404-2.8723-.9733-4.1281-1.8588-.1697-.1196-.3474-.2903-.23-.5087.1063-.1977.3238-.1279.509-.0699.5939.1858 1.0898.564 1.6384.839 1.4976.7507 3.0636 1.0619 4.74 1.0089 1.5657-.0495 3.0658-.4393 4.588-.7169.4039-.0737.7801.015 1.1672.0427.2722.0194.2518.2011.106.3533-.1581.165-.3712.2234-.6042.238-1.0574.0656-2.0185.5547-3.1769.6305z" fill="#0c0c0c"/><path d="m120.3651 59.8933c.0212-.4452.0425-.8904.0637-1.3356.3212-.0218.5694.0841.7028.3966.1427.3344-.148.4682-.3224.6217-.1318.1162-.155.4183-.4441.3173z" fill="#e6dfb8"/><path d="m120.2009 55.6636c-.1023-.3729-.2047-.7458-.307-1.1187.3163-.055.6568.0435.6938.3336.0333.2618-.0788.6115-.3868.7851z" fill="#e5deb9"/><path d="m119.9218 62.2476c-.0725-.4417.2627-.8002.251-1.2295.5035.3715.3967.8946-.251 1.2295z" fill="#e5deb9"/><path d="m120.4073 57.0321c.0555-.2895-.09-.5574-.0902-.8409.4661.1456.601.5144.3206.8711-.0979.1244-.1655.0698-.2304-.0302z" fill="#e6dfb8"/><path d="m120.2587 56.0887c-.0126-.0295-.0253-.0591-.0378-.0885.0056.0326.0182.0621.0378.0885z" fill="#e5deb9"/><path d="m118.4819 54.1979c.8443 1.395 1.0103 2.9323.9993 4.5229-.0081 1.1747-.229 2.3054-.5384 3.4257-.1588.5749-.3678 1.1335-.6327 1.6709-.1087.2206-.2596.3699-.5063.3731-1.5494.0205-2.8791.7619-4.2682 1.3014-1.3999.5436-2.7878 1.1182-4.1818 1.6772-.9997.4009-1.9889.8317-3.0036 1.1902-1.8988.6708-3.8149 1.2922-5.7191 1.9478-.8378.2884-1.6784.5537-2.5578.6869-.8092.1226-.9044.1213-1.0776-.6451-.2444-1.0814-1.2062-1.4596-2.0685-1.4008-.6463.0441-1.2926.1031-1.9371.1946-.5243.0744-.7673.3605-.9123.8131-.1765.5509-.355 1.1004-1.0049 1.2875-.1673.0482-.3267.0848-.502.0499-1.4419-.287-2.7917-.8058-4.0334-1.5967-.2846-.1813-.3779-.3248.0212-.5251 1.1815-.5931 2.3969-1.0778 3.6981-1.3359.263-.0522.4883-.1429.4407-.506-.053-.404-.3299-.2561-.5378-.2441-1.0786.0621-2.0482.4974-3.0273.9003-1.2829.528-2.4848 1.2016-3.6518 1.9503-.835.5358-1.2858 1.2961-1.48 2.2336-.0642.3099.0899.5993.1962.8839.0357.0957.1397.1663.252.1252.1239-.0453.1793-.1742.193-.2874.1547-1.2753.9718-2.0501 1.9949-2.6771.2983-.1829.4917-.2564.8196.0728 1.0669 1.0711 2.4336 1.5584 3.9006 1.8386.8374.16 1.6677.3345 2.5227.3273.5217-.0044 1.043-.0418 1.5647-.0584 1.5543-.0496 3.1004-.1428 4.6431-.386 2.3394-.3688 4.6048-.9606 6.8274-1.7837 3.1165-1.1543 6.0352-2.7398 9.0829-4.0411 1.3235-.5651 2.6675-1.0331 4.1225-1.1052.6056-.03.7816.1161.9194.7265.1531.6782-.0402 1.3189-.1489 1.9724-.0822.4937-.2967.9397-.4599 1.4051-.1033.2946-.3401.3899-.59.4295-2.3268.3681-4.1539 1.7192-5.9987 3.0346-.1997.1424-.4901.307-.3096.6056.1919.3175.4592.2335.7492.0504.5955-.3758 1.2318-.6402 1.9663-.6213.3096.008.313.1018.2094.3302-.4302.9479-.8236 1.9253-1.435 2.766-.4633.637-1.2146.9898-1.8499 1.4491-1.6896 1.2214-3.4054 2.4067-5.1073 3.6111-.1241.0878-.215.2212-.3315.3217-.5065.4369-.5079.4354-.7549-.1556-.1374-.3288-.4885-.443-.7891-.2344-2.539 1.7618-5.3768 2.9806-8.0739 4.455-2.3746 1.2981-4.8874 2.2816-7.4016 3.2513-1.8927.73-3.8425 1.3131-5.8403 1.7029-.2597.0507-.5164.0207-.6858-.2892-1.1943-2.1847-2.8338-4.0539-4.3131-6.0365-1.1458-1.5357-2.2164-3.1269-3.4188-4.6208-.5561-.6908-1.0712-1.4184-1.6683-2.0714-.649-.7098-.7996-1.5527-.7263-2.4315.2997-3.5926 1.5005-6.9209 3.0838-10.1251.7211-1.4595 1.6693-2.7782 2.5806-4.1236.6155-.9087 1.4389-1.6515 1.9687-2.6176.0882-.1608.2628-.3114.0569-.4925-.1895-.1667-.4166-.131-.5486.0458-.4009.5371-.7947.2994-1.2024.0321-.5-.3278-1.0005-.6548-1.5013-.9813-.3562-.2323-.6711-.3071-1.1335-.128-.6587.2552-1.3938.3101-2.0934.4633-1.9927.4363-3.8905 1.1599-5.7671 1.9406-.181.0753-.314.0898-.4744.0088-.9636-.4864-1.8238-1.1352-2.7155-1.7341-.2855-.1917-.041-.2631.0993-.3389.9327-.5039 1.8612-1.0159 2.8024-1.5033 1.1661-.6038 2.3246-1.2276 3.5204-1.7675 1.5393-.6949 3.0565-1.4502 4.6812-1.9432.244-.074.4744-.1918.7147-.2796.5313-.1941.7382-.5919.6806-1.1271-.1185-1.101-.3434-2.1266-1.3006-2.8909-.764-.61-1.6229-.9078-2.5359-.9597-2.6843-.1527-5.2361.391-7.5924 1.7184-.3097.1745-.3796.0855-.4388-.1906-.0674-.3145-.1387-.6285-.2196-.9397-.0575-.2213.0004-.3827.1585-.5538.8533-.9239 1.8696-1.5249 3.1357-1.6821.2681-.0333.5903-.1329.5725-.4755-.0163-.314-.2319-.453-.5865-.5065-1.0826-.1634-2.1604-.3501-3.2599-.3109-.374.0133-.7541.0377-1.1173.1198-.3473.0784-.4466-.0491-.4199-.3554.0488-.5615.1036-1.1225.1618-1.6831.0282-.2715.2624-.3474.4622-.4278 1.0372-.4174 2.1245-.6296 3.2286-.7762 1.813-.2407 3.6259-.2381 5.3996.2089 1.1246.2834 2.2227.7055 3.078 1.5584.2957.2949.6329.3393.8934.0298.5192-.6169 1.2061-1.0044 1.8756-1.3894 1.258-.7235 2.5655-1.3622 3.9576-1.7996 1.0455-.3285 2.1176-.5479 3.2117-.5989.5634-.0263 1.044.2933 1.5224.5619.2084.117.432.2952.6641.1345.2557-.177.1219-.4153.0132-.6382-.1106-.2268.0654-.3097.2317-.3667.6786-.2325 1.3689-.4103 2.0822-.5141.4361-.0635.8927-.0394 1.0122-.7267.0968-.5562.683-.9192 1.0679-1.3503.3387-.3793.7911-.6573 1.1286-1.0375.3207-.3613.6029-.3405.9414-.0828.214.1629.6464.121.6754.3534.0302.2418-.1906.5346-.3469.7758-.2897.447-.3982.9677-.627 1.4393-.1316.2713.025.4703.3195.508.2065.0265.3962-.0495.5823-.1559.7201-.4115 1.541-.545 2.3123-.8165.1678-.0591.1932.0771.2593.1729.2039.2955.3931.6057.6302.8727.2641.2974.237.4316-.1578.5327-1.0972.2811-2.1204.7489-3.1507 1.2165-1.1452.5198-2.2042 1.1522-3.15 1.9692-.2696.2329-.4478.1783-.6424-.0316-.2796-.3014-.6495-.4974-.9126-.8229-.1156-.1431-.3176-.332-.5279-.1399-.1949.178-.1518.3873.0234.5874.629.7185 1.2791 1.4132 2.0734 1.9558.0424.029.1114.0457.1263.0842.3226.831.9786.4991 1.5764.4928 1.8966-.02 3.7873-.0009 5.6821.2378 1.8332.2309 3.6706.4238 5.4636.8673 1.1629.2877 2.3194.6269 3.4909 1.0833-.9712.7914-1.8318 1.6518-2.8383 2.2772-1.6928 1.0519-3.5143 1.3696-5.3859.3634-.2451-.1318-.473-.2588-.552-.564-.0639-.247-.2805-.3428-.517-.3368-.2432.0062-.3253.1811-.3896.4024-.2377.819-.5959 1.6009-.7571 2.444-.0255.1333-.0553.2676-.0615.4024-.0053.1142-.0221.2578.1257.3033.1656.051.153-.1552.2564-.2011.289.3298.1321.8214.418 1.1524-.0213.3415.0659.6602.1516.9903.2852 1.098 1.2216 2.0061 2.3874 2.0384.2746.0076.3526.1821.4418.4116.5211 1.3405 1.2393 2.4823 2.7447 2.9366.6949.2097 1.3993.3035 2.1051.4111.8611.1313 1.7274.2354 2.6037.1544 1.5941-.1473 3.1524-.1133 4.5417.8533.5587.3887 1.0012.8074.9186 1.5794-.0525.4908-.0406.9869-.1664 1.4718-.0417.1609-.0418.3728.1667.4303.1714.0473.2092-.1237.26-.2534.1492-.3814.3066-.7585.3473-1.1731.1007-1.0255.0483-2.0253-.4671-2.9527.0142-.0221.0146-.0444.0012-.067.0049-.1524.0538-.3199.0076-.4547-.262-.7631.1288-1.33.521-1.913.2725-.4052.6062-.7047 1.0569-.9074.1639-.0737.4051-.0951.4856-.32.0842-.0208.1684-.0416.2526-.0624.0516-.0362.1031-.0724.1547-.1086.0994-.1017.2227-.1219.357-.1048.5238.0468 1.008-.0857 1.4697-.321zm-33.5667 11.3721c-.3672-.0735-.764.0513-1.1306.215-1.1783.5259-2.0785 1.3859-2.8336 2.4195-.1819.2489-.4123.6868-.2936.7605.2897.1801.5745-.1201.8129-.3293 1.1563-1.0143 2.4859-1.7396 3.8972-2.3229.2303-.0952.5037-.1627.4682-.4422-.0341-.2692-.2993-.3483-.5607-.3391-.1023.0037-.2043.0213-.3598.0385z" fill="#e6dfb8"/><path d="m98.1408 51.558c-.2859-.331-.1291-.8225-.418-1.1524.1215-.6655.4845-1.2374.7252-1.8567.0608-.1565.1121-.3829.3808-.1358.9642.887 2.1718.923 3.3759.8709 1.9576-.0847 3.576-.8891 4.9802-2.2696 1.6035-1.5764 3.5303-2.5758 5.7398-3.1535 1.654-.4324 3.2406-.3106 4.839-.0004.6192.1202 1.1831.182 1.8095.0949.9677-.1347 1.5763.6508 1.4954 1.6224-.0643.7728-.2737 1.4521-.7033 2.0795-.0651.0951-.0999.2215-.2805.2519-.0979-.1868-.0974-.3933.0267-.5524.2376-.3046.0588-.4646-.1688-.6223-.2712-.188-.4188-.0198-.5949.1783-.4942.5561-.1982 1.1892-.1745 1.7793.0573 1.4257-.283 2.7459-1.0164 3.9447-.243.3973-.3213.6434.0425.9566.1023.088.1524.2268.123.375-.39.2945-.9509.1815-1.31.5497-.1343-.0172-.2576.003-.357.1048-.0516.0362-.1031.0724-.1547.1086-.0842.0208-.1684.0416-.2525.0623-.7741.0914-1.452.4384-2.1242.8002-.1021-.2899-.3712-.2481-.5943-.3022-.8582-.208-1.7626-.2346-2.5713-.6358-.4354-.216-.7837-.4722-.8647-1.0385-.1021-.7138-.403-1.3722-.9877-1.8462-1.2216-.9901-2.5523-1.5351-4.1415-.9743-.4487.1583-.7824.4881-1.1265.7876-.6518.5675-1.2191 1.2395-2.0169 1.6212-.5306.2538-1.0525.29-1.618.019-.7346-.3521-.9466-1.0271-1.1994-1.694-.0786-.2073-.1237-.4577-.4042-.464-.3141-.0071-.3595.276-.4587.4912z" fill="#646b72"/><path d="m70.9631 51.0215c.3391-.4518.2212-.927-.285-1.1485-.7582-.3318-1.7567.1241-1.9882.9077-.1315.445-.0588.6613.4293 1.2107-.9.3522-1.754.7625-2.5438 1.2952-.1548.1044-.2804.0218-.4016-.1028-.4724-.4859-.4863-1.5715-.0807-2.1228.8777-1.1931 2.0918-1.9941 3.3968-2.5288 1.3131-.5379 2.7494-.7275 4.0205.3398.3623.3042.4244.7181.6035 1.0921.0628.1311-.0205.2517-.1554.2681-1.0435.1265-1.9522.7022-2.9775.8857-.0058-.0322-.0119-.0643-.0179-.0964z" fill="#ddb391"/><path d="m92.9456 71.5964c-.4493-.0021-.5372-.1454-.3204-.6163.4643-1.0085 1.6741-1.5121 2.7495-1.1445.2929.1001.7241 1.155.5876 1.4307-.059.1191-.1643.0944-.2642.1026-.8984.0729-1.7967.1482-2.7525.2275z" fill="#f3f2f3"/><path d="m27.6071 50.8505c.7764-1.1251 1.3185-2.2449 2.1689-3.1624.1783-.1924.2808-.1315.3873.0552.2111.37.3372.7874.6289 1.1131.1014.1132.0724.217-.0599.2932-.718.4134-1.4287.8404-2.1571 1.2347-.2665.1442-.4939.3687-.9681.4662z" fill="#504633"/><path d="m92.769 42.1005c.5255-.6705 1.1377-.9455 1.9053-.8364.4534.0644.8966.1713 1.2803.4488.1547.1119.2486.2493.1888.4319-.0624.1906-.2343.0773-.3546.0789-.2977.0039-.5657.0131-.7288-.362-.1233-.2835-.885-.2738-1.2254-.0499-.4738.3115-.4738.3115-1.0656.2887z" fill="#ddb391"/><path d="m71.1242 47.0965c.7912-.2063 1.4985-.1267 2.2034.0139.1764.0352.4276.0473.3217.3309-.0835.2234-.2453.3711-.5204.2248-.6027-.3203-1.2522-.4922-2.0047-.5696z" fill="#887a60"/><path d="m70.9631 51.0215c.006.0321.012.0642.018.0963-.4153.196-.8039.522-1.3361.2339.0731-.1348.2995-.224.2181-.4617-.0536-.1564.007-.2932.2092-.3287.1908-.0335.396-.0788.4911.1309.0859.1894.1894.3122.3997.3293z" fill="#f3f2f3"/><path d="m117.0125 54.5183c.3591-.3682.92-.2552 1.31-.5497.093.0487.1595.1159.1594.2293-.4617.2353-.9459.3678-1.4694.3204z" fill="#e5deb9"/><g fill="#887a60"><path d="m95.3089 35.964c-.0433.0114-.0865.0229-.1298.0343.0089-.0418.0177-.0836.0261-.1254.0342.0303.069.0607.1037.0911z"/><path d="m106.7246 43.5577.0151.0305-.0335-.0019z"/><path d="m68.8824 47.4757.015.0336-.0373-.0043z"/><path d="m68.7138 47.5941c-.0125.0091-.0254.0259-.0372.0251s-.0225-.0191-.0336-.0298c.0125-.0091.0255-.0258.0373-.025.0117.0007.0224.019.0335.0297z"/></g><path d="m98.1408 51.558c.0992-.2152.1446-.4983.4588-.4912.2805.0064.3257.2568.4042.464.2527.6669.4648 1.342 1.1994 1.694.5655.271 1.0874.2348 1.618-.019.7978-.3817 1.3651-1.0537 2.0169-1.6212.3441-.2996.6778-.6293 1.1265-.7876 1.5892-.5607 2.9199-.0157 4.1415.9743.5848.4739.8856 1.1324.9877 1.8462.081.5663.4293.8225.8647 1.0385.8087.4012 1.7131.4278 2.5713.6358.2231.0541.4922.0123.5943.3022-.0639.0508-.1278.1016-.1917.1524-.4079-.2412-.7439.1489-1.1344.126-1.301-.0765-2.5231-.4026-3.6363-1.092-.122-.0755-.2366-.1534-.3769-.121-.3788.0876-.7473-.0176-1.1189-.0461-1.2003-.0918-2.3302-.3945-3.2174-1.2618-.2744-.2683-.4272-.2854-.695-.0096-.2714.2794-.6033.5016-.9165.7386-.5952.4504-.6125.5445-.2326 1.1878.9094 1.54 2.447 1.8717 4.0329 2.0472 1.1069.1224 2.2174-.1116 3.3299-.1062 1.0168.0049 1.9796.2035 2.8045.816.4321.3208.8332.6191 1.4044.4308.5154.9274.5677 1.9272.4671 2.9527-.0407.4145-.1981.7917-.3473 1.1731-.0508.1297-.0885.3006-.26.2534-.2085-.0575-.2085-.2694-.1667-.4303.1258-.4849.1139-.981.1664-1.4718.0826-.772-.3599-1.1907-.9186-1.5794-1.3894-.9666-2.9476-1.0006-4.5417-.8533-.8763.081-1.7427-.0231-2.6037-.1544-.7058-.1076-1.4102-.2014-2.1051-.4111-1.5054-.4543-2.2237-1.5961-2.7447-2.9366-.0892-.2295-.1673-.404-.4418-.4116-1.1658-.0322-2.1023-.9404-2.3874-2.0384-.086-.3302-.1731-.6489-.1518-.9904zm10.1641 2.3652c.7202.0124.7681-.0847.4814-.7406-.1803-.4125-.464-.661-.8801-.7907-.7777-.2423-1.4738.0067-2.1519.3545-.1484.0761-.3545.1495-.356.3329-.0017.201.2331.2295.3768.2975.7991.3783 1.6515.5263 2.5298.5464z" fill="#0c0c0c"/><path d="m114.1761 58.4562c-.5712.1883-.9724-.11-1.4044-.4308-.8249-.6125-1.7877-.8111-2.8045-.816-1.1125-.0054-2.223.2287-3.3299.1062-1.5859-.1754-3.1235-.5071-4.0329-2.0472-.3799-.6433-.3626-.7374.2326-1.1878.3132-.237.6451-.4592.9165-.7386.2679-.2758.4206-.2587.695.0096.8872.8673 2.0172 1.17 3.2174 1.2618.3716.0284.7402.1336 1.1189.0461.1403-.0325.2549.0454.3769.121 1.1131.6894 2.3352 1.0155 3.6363 1.092.3905.023.7265-.3672 1.1343-.126-.0849.2409-.2325.472-.212.7334.0439.5614.1176 1.1204.1725 1.681.0179.1833.1412.2128.2845.2282.0134.0227.013.045-.0012.0671z" fill="#646b72"/><path d="m84.9152 65.57c.1555-.0172.2574-.0348.3599-.0384.2614-.0092.5266.0699.5607.3391.0354.2796-.2379.347-.4682.4422-1.4113.5833-2.741 1.3086-3.8972 2.3229-.2384.2091-.5232.5093-.8129.3293-.1187-.0737.1117-.5116.2936-.7605.7552-1.0336 1.6554-1.8937 2.8336-2.4195.3666-.1638.7633-.2886 1.1305-.2151z" fill="#121111"/><path d="m114.1773 58.3892c-.1433-.0154-.2666-.0449-.2845-.2282-.0549-.5606-.1286-1.1196-.1725-1.681-.0204-.2614.1272-.4925.212-.7334.064-.0508.1279-.1017.1918-.1524.6723-.3618 1.3501-.7088 2.1242-.8002-.0806.2251-.3218.2464-.4857.3201-.4507.2027-.7843.5023-1.0569.9074-.3922.583-.7829 1.1499-.521 1.913.0464.1348-.0025.3023-.0074.4547z" fill="#e5deb9"/><path d="m116.5008 54.7316c.0516-.0362.1031-.0723.1547-.1086-.0515.0362-.1031.0724-.1547.1086z" fill="#e5deb9"/><path d="m108.3048 53.9238c-.8782-.0208-1.7306-.1687-2.5298-.547-.1438-.068-.3786-.0965-.3768-.2975.0016-.1834.2076-.2568.356-.3329.6781-.3478 1.3743-.5968 2.1519-.3545.4161.1297.6999.3781.8801.7907.2868.6559.2389.753-.4814.7412z" fill="#887a60"/></svg>