<svg enable-background="new 0 0 141.8348 141.7805" viewBox="0 0 141.8348 141.7805" xmlns="http://www.w3.org/2000/svg"><path d="m141.8348 71.3417c-.2213-19.4751-6.7292-36.0179-19.9274-49.696-13.0066-13.4796-29.0636-20.7711-47.7917-21.571-20.208-.8631-37.8541 5.7533-52.4395 19.7755-13.5164 12.9944-20.8046 29.0792-21.6021 47.8284-.8596 20.2094 5.761 37.8525 19.7852 52.4358 12.9967 13.5148 29.084 20.7978 47.8323 21.5923 20.209.8564 37.8676-5.7502 52.4289-19.7972 14.3726-13.8649 21.4381-31.0383 21.7143-50.5678z" fill="#fff"/><path d="m141.8348 71.3417c-.2763 19.5296-7.3418 36.7029-21.7143 50.5679-14.5613 14.0471-32.22 20.6536-52.4289 19.7972-18.7483-.7945-34.8356-8.0776-47.8323-21.5923-14.0242-14.5833-20.6448-32.2265-19.7852-52.4359.7975-18.7493 8.0857-34.8341 21.6021-47.8285 14.5854-14.0221 32.2315-20.6385 52.4395-19.7754 18.7281.7999 34.7851 8.0913 47.7918 21.571 13.1981 13.6781 19.706 30.2208 19.9273 49.696zm-137.5962 6.1406c.0358.1789.0384.3812.2889.4082.1267.0136.2324.0202.0198.108-.1673.0691-.0703.2365-.1008.3574.0047.2565-.0119.5155.0175.7692.3409 2.9426.8584 5.8541 1.588 8.7256 1.4419 5.6747 3.595 11.0659 6.4839 16.1603 2.0843 3.6756 4.4972 7.1233 7.2511 10.3275 2.529 2.9426 5.2911 5.6521 8.3031 8.0998 1.0734.8723 2.1323 1.7692 3.3241 2.4854.0289.1322.1098.1817.2408.1513.0827.1608.2364.2428.3763.3407 2.4034 1.6813 4.9051 3.2013 7.5211 4.5274 1.2045.6106 2.3885 1.2694 3.6639 1.7319.1758.1501.374.2316.6095.1991.0107.3186.286.3768.4957.4443 1.6197.5213 3.1639 1.2406 4.7852 1.7662 1.868.6056 3.7265 1.2396 5.6336 1.7068 2.5338.6207 5.0999 1.0604 7.6931 1.3745 1.7775.2153 3.5594.4198 5.3413.4557 3.6381.0731 7.2799.1016 10.9051-.3755 1.5696-.2066 3.1439-.3825 4.701-.6652 3.2471-.5895 6.4189-1.4617 9.5249-2.5828 2.0577-.7427 4.0936-1.5389 6.0655-2.4827 2.145-1.0267 4.2522-2.1263 6.3059-3.3339 4.4344-2.6077 8.4168-5.7969 12.1292-9.3325 2.0702-1.9716 3.9442-4.1291 5.7502-6.3462 2.6027-3.1952 4.8158-6.6447 6.7395-10.2811 1.4882-2.813 2.7946-5.7106 3.892-8.7008.7657-2.0861 1.4519-4.2002 1.9823-6.3548.5658-2.2986.9814-4.6294 1.2933-6.9824.269-2.0289.4989-4.0637.5531-6.1007.0633-2.375.0848-4.7553-.0526-7.1363-.1131-1.959-.291-3.9091-.5541-5.8485-.3299-2.4317-.7872-4.8451-1.4321-7.2165-1.0331-3.7986-2.3743-7.4886-4.0516-11.0484-1.0134-2.1508-2.1266-4.2516-3.3329-6.3063-2.6225-4.4666-5.8433-8.465-9.3962-12.2088-1.3667-1.4402-2.8549-2.7549-4.3505-4.0614-1.909-1.6676-3.9001-3.2275-5.9992-4.6451-3.5247-2.3803-7.2532-4.3924-11.1506-6.0947-3.2929-1.4384-6.6736-2.6281-10.1568-3.5047-2.5291-.6365-5.0981-1.0681-7.6911-1.3853-1.7773-.2174-3.5599-.428-5.3406-.4627-2.9215-.0569-5.8476-.1204-8.7702.1598-1.7803.1707-3.5547.3646-5.3233.6255-3.7431.5523-7.3802 1.507-10.9465 2.7696-4.3669 1.546-8.523 3.5213-12.5176 5.8629-4.5433 2.6633-8.6145 5.9299-12.3965 9.5693-1.9858 1.9109-3.7896 3.9926-5.5306 6.1294-2.603 3.1948-4.8156 6.6448-6.7389 10.2815-1.4878 2.8132-2.802 5.7078-3.8894 8.7016-.7815 2.1516-1.4704 4.3318-2.0245 6.5542-.5118 2.0527-.8953 4.1311-1.1809 6.2243-.0623.4569-.3381.9528-.0235 1.431-.012.1437-.0055.2931-.1246.4037-.3375 1.9337-.4704 3.8844-.4837 5.8449-.0022.1421-.0045.2842-.0067.4263-.0944.2014-.1107.4046-.0136.6102-.0815 1.5094-.0968 3.0187.0026 4.528-.0888.2046-.1083.4059.0285.5998-.0828.5274.0709 1.042.0853 1.5641-.0651.068-.0701.1314.0142.1881-.0213.2116-.0361.4227.046.6266-.0255.0725-.0507.1449-.0759.2172z" fill="#5f6065"/><path d="m4.7661 62.4735c-.3146-.4782-.0388-.9742.0235-1.4311.2856-2.0931.6691-4.1716 1.1809-6.2243.5541-2.2224 1.243-4.4026 2.0245-6.5542 1.0874-2.9938 2.4015-5.8884 3.8894-8.7016 1.9233-3.6367 4.1359-7.0867 6.7389-10.2815 1.741-2.1369 3.5448-4.2185 5.5306-6.1294 3.782-3.6393 7.8532-6.906 12.3965-9.5693 3.9946-2.3416 8.1507-4.3168 12.5176-5.8629 3.5663-1.2626 7.2035-2.2173 10.9465-2.7696 1.7685-.261 3.5429-.4548 5.3233-.6255 2.9226-.2802 5.8486-.2167 8.7702-.1598 1.7807.0347 3.5633.2453 5.3406.4627 2.593.3172 5.162.7488 7.6911 1.3853 3.4832.8766 6.8639 2.0663 10.1568 3.5047 3.8973 1.7024 7.6259 3.7144 11.1506 6.0947 2.0991 1.4176 4.0902 2.9775 5.9992 4.6451 1.4956 1.3065 2.9838 2.6212 4.3505 4.0614 3.5528 3.7438 6.7737 7.7421 9.3962 12.2088 1.2064 2.0547 2.3196 4.1556 3.3329 6.3063 1.6773 3.5598 3.0186 7.2498 4.0516 11.0484.6449 2.3715 1.1022 4.7848 1.4321 7.2165.2631 1.9394.441 3.8894.5541 5.8485.1374 2.381.1159 4.7613.0526 7.1363-.0543 2.037-.2842 4.0718-.5531 6.1007-.3119 2.353-.7275 4.6838-1.2933 6.9824-.5303 2.1546-1.2166 4.2687-1.9823 6.3548-1.0975 2.9902-2.4038 5.8877-3.892 8.7008-1.9238 3.6364-4.1368 7.086-6.7395 10.2811-1.806 2.2171-3.68 4.3745-5.7502 6.3462-3.7124 3.5356-7.6948 6.7249-12.1292 9.3325-2.0536 1.2077-4.1609 2.3072-6.3059 3.3339-1.9719.9438-4.0077 1.74-6.0655 2.4827-3.1059 1.1211-6.2778 1.9933-9.5249 2.5828-1.5571.2827-3.1314.4586-4.701.6652-3.6252.4771-7.267.4487-10.9051.3755-1.7819-.0358-3.5638-.2404-5.3413-.4557-2.5932-.3141-5.1593-.7538-7.6931-1.3745-1.9072-.4672-3.7656-1.1012-5.6336-1.7068-1.6213-.5257-3.1655-1.245-4.7852-1.7662-.2097-.0675-.485-.1257-.4957-.4443.9947-1.0772 1.7863-2.2856 2.4094-3.6144.4026-.8587.6206-1.7719.9032-2.6673.1875-.5942.4813-1.0683 1.1916-1.1816.8475-.1351 1.3147-.6624 1.3639-1.5427.0102-.1828.0932-.3619.146-.5418.0669-.2277.1508-.3253.4375-.2201.5945.2181 1.2188.3614 1.8607.2776 1.3054-.1704 2.6061-.3725 3.8651-.7743 2.9751-.9495 5.8244-2.1941 8.5528-3.7092.7579-.4209 1.5769-.5113 2.3299-.2561 1.5198.515 3.0758.8224 4.6536.9976.7161.0795 1.2051.348 1.6255.8943.1912.2484.2433.5152.3154.7931.1566.604.3117 1.1956 1.0708 1.3396.7189.1363 1.4026.4161 2.1426.4899.7188.0717 1.09-.1927 1.0686-.9214-.0256-.8726-.1186-1.7378-.3662-2.5836-.1682-.5745-.2882-1.1683-.2147-1.7707.1797-1.4736.3072-2.9586.677-4.4001.4894-1.9081.4253-3.8137.1751-5.7471-.1239-.9572-.2134-1.9386-.045-2.9145.0627-.3635.2306-.5628.5983-.6556.5452-.1375 1.1088-.1546 1.6509-.3244.9473-.2967 1.8966-.5108 2.9204-.292.8652.1849 1.7607.271 2.6467.3079 2.2596.094 4.5114.0429 6.7632-.27 1.929-.2681 3.8697-.4553 5.7896-.794 2.1777-.3842 4.2794-1.0533 6.3851-1.7078.9301-.2891 1.8794-.535 2.721-1.0429.6693-.4039 1.4036-.7445 1.8352-1.4454.4661-.757.0513-1.5174-.8309-1.5482-.2049-.0072-.4133-.0087-.6157.0192-2.6761.3688-5.3501.7564-8.0629.7154-.5118-.0077-1.028.062-1.6441-.0599.7787-.7343 1.5343-1.2888 2.2809-1.8526.1003-.0757.2572-.0861.3909-.1064 3.3418-.5068 6.5115-1.569 9.5434-3.0349.9151-.4425 1.8573-.8978 2.5281-1.7214.3982-.4889.4744-.9413.1722-1.3689-.2842-.4022-.7097-.427-1.1561-.3021-1.564.4373-3.1255.8838-4.6943 1.3031-.6403.1712-1.2847.3644-2.0498.3679.1435-.2133.2279-.338.3116-.4632 1.0658-1.5934 2.1068-3.2029 3.0118-4.8944 1.0969-2.0501 1.72-4.2773 2.3805-6.4891.6289-2.1062.9458-4.2679 1.0609-6.4555.1892-3.5952-.1642-7.1819-.2335-10.7735-.0349-1.8116-.163-3.6223-.282-5.4313-.1146-1.741-.2713-3.4791-.4111-5.2184-.024-.2979-.1104-.577-.0428-.8975.1319-.6249.4747-1.1273.7973-1.6497.5652-.915 1.1641-1.8157 1.2998-2.9224.104-.8484.2342-1.6945.3049-2.5456.0303-.3653.1697-.6166.4642-.7911.5885-.3486 1.1632-.7314 1.7824-1.0152 1.005-.4605 1.8441-1.1091 2.5241-1.9707.8502-1.0773 1.4192-2.2481 1.3072-3.6789-.1175-1.5016-.9983-2.5267-2.3316-2.6022-.9301-.0527-1.8503.0645-2.7218.3948-.358.1357-.5968.0884-.8759-.1462-.3925-.3299-.813-.6279-1.2344-.9211-.1945-.1354-.2565-.2085-.1327-.4776.3656-.7945.4476-1.644.2076-2.4962-.1864-.6621-.6173-1.0766-1.3143-1.2188-.518-.1057-1.0238-.0588-1.527.0425-.7515.1512-1.5374.2335-2.1523.7577-.9162.7811-1.1377 1.8614-1.0662 2.9694.0517.8015-.191 1.3924-.7408 1.9138-.1243.1179-.2457.2392-.3632.3638-1.5408 1.6346-3.2685 3.1309-3.9803 5.3805-.0215.0679-.1257.1096-.1914.1636-.7871.6467-1.4529 1.3979-1.988 2.2675-.9688 1.5745-1.7264 3.1993-1.2969 5.1259.0353.1585-.0801.242-.1489.3584-.2834.4796-.4412.98-.0378 1.4734.1181.1444.052.2408.0037.3691-.5138 1.3658-.9105 2.7598-.9885 4.2274-.0696 1.3099-.0731 2.6085.806 3.7105.1428.179.0299.3203-.0173.4764-.2421.801-.3613 1.6206-.0763 2.4213.1779.4998.17.9602.0376 1.4513-.1023.3794-.1882.7648-.2533 1.1522-.0707.4208-.0199.8588.2907 1.1516.3433.3236.444.7001.3838 1.1106-.1319.9007-.3475 1.7862-.9335 2.5179-.3297.4116-.4807.8905-.6678 1.3688-.2544.6502-.6289 1.2422-1.3831 1.4235-.6373.1533-1.2805.324-1.7847.7451-.3964.331-.7072.2328-1.1082.0556-.8186-.3617-1.6633-.6351-2.582-.3837-.1807.0494-.3827.0706-.534-.0849-.39-.4009-1.0743-.5107-1.18-1.1977-.0108-.0703-.0956-.1522-.1665-.1866-.3863-.1873-.4933-.5344-.5655-.915-.0248-.1309-.0791-.2686-.1579-.375-.6726-.9081-1.373-1.7924-2.1585-2.6092-.7215-.7502-1.7364-1.123-2.3689-2.0215-.4516-.6415-1.1731-1.0907-1.7635-1.6373-1.8269-1.6914-3.9406-2.6853-6.4684-2.6883-.147-.0002-.3136.0357-.3507-.1948-.0462-.2865-.2538-.4802-.4447-.6757-1.9395-1.9865-4.0298-3.8119-6.0897-5.6685-1.9145-1.7255-4.2102-2.6102-6.7476-2.951-2.5123-.3374-5.0296-.435-7.5585-.2977-.1852.01-.3575.0234-.5388-.0929-1.1449-.7349-2.4077-1.1124-3.759-1.2464-.5531-.0549-1.1247.0113-1.6573-.2416-.7878-.3741-1.5967-.357-2.389-.0147-1.0198.4406-2.0416.8798-3.0414 1.3632-4.1309 1.9971-8.1323 4.2273-12.0536 6.6117-1.0655.6479-1.6235 1.5103-1.9131 2.6433-.0254.0995-.0619.1961-.087.2957-.0618.2458-.2077.3403-.4686.3845-.7238.1227-1.4349.3208-2.1591.4405-1.1282.1866-2.114.774-3.359.7329-3.349-.1106-6.6443.4035-9.8265 1.5162-.5798.2027-1.1561.5312-1.7471.5639-1.713.0949-3.33.5603-4.9468 1.0618z" fill="#b8946f"/><path d="m43.2161 131.675c-1.2754-.4625-2.4593-1.1212-3.6639-1.7319-2.6159-1.326-5.1177-2.8461-7.5211-4.5274-.1399-.0979-.2936-.1799-.3763-.3407.0508-.3754.1044-.7508-.0664-1.1256-.0581.3248-.1163.6496-.1744.9743-1.1918-.7162-2.2507-1.6131-3.3241-2.4854-3.012-2.4477-5.774-5.1572-8.3031-8.0998-2.7539-3.2042-5.1668-6.6519-7.2511-10.3275-2.8887-5.0944-5.0418-10.4856-6.4837-16.1603-.7296-2.8715-1.2471-5.783-1.588-8.7256-.0294-.2537-.0127-.5127-.0175-.7692.736-.3838 1.341-.9229 1.8264-1.5898.3218-.4422.668-.8595 1.0584-1.2413.4941-.4194.9883-.8387 1.4824-1.2581-.0267-.0322-.0535-.0644-.0802-.0966-.5603.3413-1.0749.7428-1.5207 1.2349-.6184.5172-1.1674 1.126-1.9258 1.4584-.1573-.0073-.3183-.0204-.3217.2091l.0044-.0034c-.1591-.0081-.3169-.0144-.3071.2168l.0049-.0046c-.1176-.0054-.2352-.0108-.3528-.0162-.0826-.2039-.0678-.415-.0466-.6265.0858-.0695.0741-.1316-.0141-.1881-.0144-.5221-.1681-1.0367-.0854-1.5641.1041-.2053.1307-.407-.0284-.5999-.0994-1.5093-.0841-3.0186-.0026-4.528.1556-.2001.1466-.4038.0136-.6102.0022-.1421.0045-.2842.0067-.4262.1055-.6465.1179-1.3045.2025-1.9497.1051-.8017-.1147-1.6849.496-2.3838.8739-.3413 1.7516-.6734 2.621-1.0258 1.3946-.5653 2.7599-1.2042 4.1884-1.684 2.6091-.8764 5.2937-1.3807 8.0338-1.6007.6348-.051 1.2712-.0793 1.927.0308-.8885 1.4755-1.5679 3.9516-1.3303 4.8089.1511-.1142.198-.2856.2112-.4467.0554-.6716.301-1.2939.4708-1.9362.3398-1.2854 1.1044-2.2905 2.3048-2.7758.9846-.3981 2.0889-.5009 3.1411-.73.3396-.0739.4221.0646.3293.3882-.2971 1.0363-.5747 2.0782-.8702 3.115-.0704.247-.1049.5211-.4136.7875.1598-1.0966.5132-2.0331.8208-3.0272-.3781.068-.4295.3308-.5232.5332-.9642 2.0827-1.0437 4.2994-.9293 6.5328.0193.3773-.0769.5601-.3677.7395-1.1381.702-2.32 1.3222-3.5182 1.9124-.7514.3702-.7381.3619-.8641-.4575-.0621-.404.0856-.8389-.193-1.3356-.2437.6362-.248 1.2087-.1876 1.7414.0589.5194-.167.6621-.5626.8532-1.0189.4924-2.1458.7085-3.1376 1.2661-.1831.103-.2955.1999-.3239.4113-.178 1.324-.4771 2.6237-.821 3.9127-.4981 1.8667-.9403 3.7468-1.4944 5.6007-.5314 1.7779-1.3086 3.4557-1.9297 5.1952-.1051.2943-.0814.5107.1213.7436 1.8066 2.0755 3.1888 4.4442 4.6642 6.7495 1.7249 2.695 3.2953 5.4748 4.6844 8.3573.7891 1.6375 1.5101 3.2971 1.7714 5.1181.0337.2345.1207.4474.344.6035 1.0483.733 2.6736.7151 3.6614-.0931.3871-.3167.6739-.7153.6589-1.2716-.025-.9249-.1701-1.837-.2537-2.7555-.0485-.5332-.257-1.0777.0496-1.602.0566.0626.1162.1228.1693.1882.9624 1.186 1.7417 2.5364 3.0583 3.4039.1705.1123.3634.1968.5161.3288.5851.5057 1.1584.4677 1.6422-.1422.3581-.4515.587-.9679.606-1.5476.0125-.3825.179-.3665.3977-.1865.3368.2772.7155.4563 1.1212.6031.6944.2513 1.4391.2905 2.1362.5116 1.7507.5553 3.4936.275 5.1209-.3069 2.5173-.9001 4.7064-2.39 6.4768-4.4328.5956-.6872.9973-1.5077 1.4852-2.2679.2613-.4071.1185-.7451-.2877-.9511.0084-.222-.1613-.2552-.3174-.3381-.5359-.2844-1.0579-.5951-1.6149-.9126.2445-.1861.4671-.1391.6814-.1269.2277.0129.491.0398.5702-.2197.0809-.2646-.1999-.3269-.3671-.4161-1.1638-.6208-2.2857-1.3049-3.3308-2.1132-1.0149-.785-2.0279-1.5665-2.7934-2.6213-.1632-.2249-.2123-.3961-.0063-.5708.2445-.2073.1398-.3286-.0274-.5286-.8893-1.0636-1.699-2.1892-2.4518-3.3518-1.0144-1.5668-1.6483-3.3138-2.1185-5.0973-.3573-1.3555-.9575-2.6358-1.1841-4.0259-.0113-.0691-.0436-.1275-.135-.1299-.1227.056-.0833.1636-.0688.2612.3248 2.1911.9944 4.2976 1.6717 6.392.7117 2.2006 1.9033 4.1625 3.4008 5.9296.1632.1926.245.3575.0737.5834-.1495.1971-.1118.4581-.2.6929-.0525-.035-.101-.0549-.1325-.0901-1.5114-1.6862-2.853-3.4971-4.0207-5.4383-1.018-1.6923-1.7685-3.5048-2.4123-5.3625-.5421-1.5639-1.0996-3.1301-1.062-4.8241.4391-.4347.9172-.7146 1.5867-.6397.5603.0627.6955-.141.5761-.7047-.0704-.3323-.2008-.6508-.188-1.0004.0504-1.3815-.0445-2.7622.0867-4.1474.1622-1.712.3902-3.4102.7585-5.0869.0856-.3898.0362-.6574-.2618-.8947.0466-.1826.3426-.1777.3208-.4388-.2642-.0638-.4038.1481-.576.258-1.0858.6934-2.158 1.4252-3.5556 1.1166-.2593-.0573-.3748.1297-.5106.2721-1.3115 1.3751-2.5883 2.7849-3.9338 4.1257-2.2316 2.2238-4.4659 4.4505-7.3353 5.8903-.8556.4293-.8593.4966-1.5918-.129-.7613-.6502-1.5158-1.3195-2.1049-2.2117.4699-.1562.8965-.2762 1.3066-.4379 1.9921-.7857 3.9165-1.691 5.7451-2.8302 2.3303-1.4519 4.523-3.0668 6.5634-4.8977.4708-.4225.9617-.8227 1.4476-1.2281.2146-.179.4576-.2317.7476-.2565 1.9337-.165 2.7193-.4874 3.3456-2.0795-.0559.0193-.1186.0208-.1383.0507-.7543 1.1446-1.9703 1.2711-3.1616 1.3744-.4271.037-.7439.1592-1.0506.4241-.6018.5199-1.2735.9535-1.866 1.5953-.0629-.4317-.0591-.7767-.2152-1.0859-.0999-.1978-.0769-.5908-.3538-.524-.254.0613-.05.3955-.0266.5963.0584.501.1383 1.0625-.2136 1.4187-.838.8485-1.8183 1.5373-2.858 2.2357-.1007-.5896-.2314-1.1184-.1721-1.6624.2854-2.6216 1.0573-5.1184 2.0017-7.5642.2716-.7033.457-1.4808 1.176-1.9313 1.0157-.6364 1.9999-1.3251 3.0335-1.9303 2.1435-1.255 4.4071-2.2795 6.6307-3.3805 2.1031-1.0413 4.2775-1.9114 6.467-2.7483.379-.1449.7786-.1982 1.0692.0512.2518.2161.4826.1999.7492.1928.2738-.0073.5476-.0246.8213-.0225 1.3416.0106 2.5916.259 3.4855 1.39.1111.1405.2375.17.4046.1493 1.3629-.1687 2.7331-.1566 4.1031-.1681 1.9049-.0161 3.794.1198 5.6618.51 2.188.4571 3.9655 1.6818 5.584 3.1222 1.569 1.3964 3.0273 2.9172 4.438 4.478.2293.2537.4316.5344.678.7696.4024.3841.2431.6751-.0727 1.0172-1.5346 1.6623-3.0106 3.3688-4.085 5.3847-.4668.8757-.9274 1.7491-1.2313 2.6985.0731-.0333.1168-.0821.1472-.1381 1.3293-2.4405 2.8179-4.7639 4.686-6.844 1.0363-1.1539 2.1606-1.5614 3.6489-1.043 1.5182.5288 2.9297 1.2458 4.2064 2.212.8772.6639 1.7007 1.3975 2.4909 2.2176-1.3078.8115-2.5298 1.6182-3.6257 2.6163-1.124 1.0237-1.5958 2.4752-2.5215 3.6213l-.0268.0359c-.383.3745-.5948.851-.8685 1.2907.0388.0252.0777.0504.1165.0755.2876-.4143.5753-.8286.8629-1.2429.0283-.0067.044-.0246.0471-.0536.3747-.18.5283-.5716.8063-.842 1.68-1.6342 3.4386-3.1752 5.3841-4.4925.2754-.1865.5028-.1898.7888.0005 1.2621.8392 2.2268 1.9515 3.0462 3.2093.1907.2928.1708.4477-.1193.6915-1.5647 1.3151-2.9286 2.8156-4.0169 4.5548-.1997.1952-.3748.4059-.4996.7462.3803-.1189.4944-.3828.6316-.6237 1.162-1.5543 2.4334-3.0015 3.9842-4.1897.3403-.2607.6006-.1822.8634.0433.2903.249.2422.5083.0008.7944-.6463.7658-1.0639 1.6625-1.4013 2.5973-.0974.2697-.3068.5167-.241.8538.0643-.0283.1087-.0332.1214-.0558.0746-.1339.1392-.2732.2121-.4082.4923-.9121.8534-1.9134 1.7348-2.5617.2299-.1691.4512-.3013.7325-.0622.2741.233.1325.4718.0343.6935-.4662 1.0519-.7792 2.1544-1.0971 3.2553-.032.1108-.1382.2531.0508.3912.1926-.2331.2268-.5255.323-.7862.337-.9131.6111-1.8514 1.1354-2.6863.1337-.2129.2694-.388.5502-.3968.7374-.0231 1.4698-.0252 2.1829.2149.259.0872.5138.2076.5458.4813.0529.4521.4528.7604.4558 1.2222.0004.0626.0411.1565.121.13.0695-.023.1605-.0964.1703-.1587.0175-.1112-.0235-.2306-.0323-.3472-.0618-.8159-.0077-.8916.7155-1.2788.5444-.2915 1.0953-.5615 1.6788-.7677.2651-.0937.3648-.0578.4705.2372.2597.725.5792 1.4313 1.2083 1.9333.0898.0717.1834.1906.3016.053.0883-.1028.0055-.192-.0623-.2681-.3467-.3885-.5473-.8617-.7831-1.3167-.2606-.5028-.2892-1.001-.0675-1.5786.1368.1793.2433.3095.3396.4468.3814.5435.9122.9232 1.4383 1.3057.1001.0728.2523.2135.3599.0926.1349-.1515-.0751-.2219-.1581-.3114-.232-.2503-.4774-.4886-.7036-.7438-.8566-.9663-.8119-.921-.2914-1.9306.6585-1.2774 1.2072-2.6014 1.2076-4.1333.5956.2435 1.1094.5183 1.6723.6573.5534.1367 1.1092.2567 1.7007.1627-.0795-.2693-.2613-.228-.4031-.2444-.4285-.0496-.8519-.1392-1.2372-.323-2.2562-1.0768-2.4704-.9234-2.0797-3.6006.0452-.3096.0699-.5904-.0003-.9027-.18-.8005-.3327-1.6069-.1205-2.4349.0774-.302.1696-.4357.5192-.3485.3614.0902.744.1174 1.1186.1281.8918.0256 1.6488-.347 2.4384-.799-.2801-.1958-.4468-.0405-.6065.0187-.9469.3507-1.8892.3768-2.8697.1147-.4449-.1189-.6696-.3555-.8012-.7551-.7727-2.3465-.4584-4.6191.457-6.8531.0997-.2433.2741-.3146.5251-.3143.861.0012 1.7025.1468 2.542.3143.4899.0977.9802.1848 1.5627.1257-.1143-.1064-.1543-.174-.2098-.191-1.3108-.3994-2.6302-.7804-4.0143-.7661-.4081.0042-.4009-.2034-.3903-.4632.0095-.2335.2202-.2863.3882-.3599.5548-.2434 1.1359-.3598 1.7429-.386.6373-.0275 1.273-.0924 1.9191-.1416-.0596-.2514-.2244-.244-.3458-.2663-1.0455-.1921-2.0857-.1246-3.1018.1605-.357.1002-.4488-.0439-.4582-.3193-.0111-.3238.0104-.6504.041-.9736.198-2.0944 1.2557-3.7702 2.6141-5.289.2433-.272.5092-.5519.947-.5436 1.0685.0204 2.0385.2401 2.7154 1.1694.1296.1779.303.3255.4652.4774.1189.1114.2527.1997.3788.0004.3935-.118.2538-.325.0792-.5223-.2592-.2929-.5287-.5768-.7938-.8645-.3959-1.1484-1.3042-1.505-2.4928-1.5146.2347-.3287.4072-.5996.6084-.8472 1.1438-1.407 2.3554-2.751 3.6513-4.0223.4873-.4781.7249-1.098.604-1.82-.1528-.9132.0122-1.7714.5222-2.5549.1129-.1733.2252-.3335.4336-.4167 1.03-.4108 2.0755-.5009 3.16-.2355.383.0937.607.3042.7042.6598.2143.7843.1158 1.4932-.392 2.176-1.1513 1.5481-1.3113 3.4477.1586 4.9369 1.435 1.4538 2.163 1.5508 3.6512.1158.0123-.0118.0262-.022.0394-.0329.5114-.0706 1.221-.7835 1.2069-1.2126-.0124-.3796-.4636-.6741-1.145-.7416-.1183-.0117-.2434-.0264-.3569-.0013-.4227.0934-.8174.0666-1.1686-.2145.0791-.3446.3443-.5105.6435-.5979.5244-.1531 1.0533-.3211 1.5921-.3879.9181-.1138 1.8118.0012 2.3712.8557.6029.9209.4662 2.4692-.2015 3.3441-1.0415 1.3647-2.3125 2.4706-3.7681 3.3644-.4207.2583-.8782.4484-1.3923.1497-.295-.1714-.635-.1154-.9519-.0223-.2279.0669-.3546.2088-.2297.4629-.0551.5907.0655 1.1713.0094 1.7758-.1856 2.0021-.8732 3.795-1.8626 5.528-.5826 1.0204-1.151 2.1293-.5672 3.3875.0406.0875.0288.2014.0326.3034.0414 1.1098.0156 2.219.0831 3.3312.1135 1.8726.22 3.7472.304 5.6206.1247 2.7801.3947 5.5587.3119 8.3434-.0349 1.1739-.0714 2.3515-.1603 3.527-.1314 1.7364-.3118 3.4611-.6992 5.1585-.6257 2.7411-1.774 5.276-3.1483 7.7096-.5025.8899-.9615 1.8158-1.6213 2.6093-1.1721 1.4095-2.4803 2.6916-3.7763 3.9838-.945.9423-1.9769 1.7825-3.0799 2.5372-.3065.2097-.5725.2633-.8637.0098.7372-.6751 1.48-1.3454 2.0119-2.2036-.2063.0246-.303.1692-.4302.2797-.631.5482-1.1415 1.2335-1.8803 1.6589-.2242-.3169-.4861-.0841-.6786.0034-.8105.3681-1.6331.4836-2.4662.1493-1.235-.4955-1.7699-.8133-1.7038-1.8522 1.2246-.8064 2.5259-1.509 3.6592-2.6624-.2444.0542-.3631.0679-.4717.1085-.0943.0352-.18.0967-.2648.1535-1.7501 1.1713-3.5622 2.2046-5.5425 2.9686-2.2242.8581-4.4193 1.1163-6.6896.2705-.3302-.123-.5997-.2447-.7278-.6304-.2283-.6875-.6694-1.2539-1.1788-1.7647-.1325-.1329-.2744-.2583-.3941-.4019-.3854-.4621-1.4209-.4503-1.8206.0392.416.1257.8639-.1154 1.2695.212.864.6977 1.3167 1.6442 1.7321 2.6256.0846.1999-.0751.2437-.1993.2772-1.2716.3425-2.1143 1.2952-3.0265 2.1395-.8561.7923-1.35 1.7815-1.4516 2.9541-1.58-.2368-2.8923-1.0813-4.2064-1.8973-.9095-.5647-1.5102-1.4762-2.2235-2.2484-.8278-.8962-1.6032-1.8611-2.2341-2.913-.5059-.8435-1.099-1.5933-1.8496-2.2228.1319-.1693.1968-.3379-.1192-.2904-.1765.0266-.359.1257-.501.2394-.1734.1388-.314.1337-.5124.0588-1.395-.5267-2.3121-1.5098-2.8253-2.895-.0588-.1588-.0615-.4511-.3166-.3675-.2231.0732-.1265.3184-.0708.4967.3048.9745.8941 1.7536 1.6499 2.4241.5645.5009 1.3035.7408 1.8529 1.2609-.3786.3821-.1096.7499.0247 1.1207-.6247-.0092-1.1591-.382-1.7782-.4301-1.5326-.1189-2.9177-.6896-4.2374-1.4391-.8346-.474-1.5891-1.0427-2.1344-1.8949.1606-.04.2746-.0692.3891-.0968.3676-.0887.6504-.2539.5787-.6988-.071-.4408-.4153-.4548-.749-.4331-.5995.0389-1.0978.3879-1.6641.557.6404.3647 1.2586-.1695 1.892.0013-.3141.1839-.6639.229-1.0091.2713-1.1214.1372-2.2531.1866-3.3669.39-.1333.0244-.3192.0447-.3124.203.0079.1851.198.132.3247.1301.2036-.003.41.0033.6102-.027.8791-.1332 1.7636-.2087 2.6506-.2523.1308-.0064.3157-.1268.3993.095.2967.7872.9712 1.301 1.5533 1.7976 1.3519 1.1532 2.9057 1.998 4.7457 2.1292.1579.0113.3022.046.4351.1341.923.6116 1.9186 1.1155 2.772 1.828.199.1662.6452.2219.526.5795-.1304.3915-.5592.3017-.8911.3203-.1019.0057-.205-.0092-.3074-.0162-.9765-.0669-1.9585.0504-2.9974-.1784.1767.3733.3788.5229.6759.6232.6453.2178 1.2981.298 1.9701.2353.3458-.0322.576.0866.7555.3952.3758.646.4464 1.3466.2831 2.036-.5617 2.3723.1901 4.3011 1.8877 5.9472 1.4128 1.3699 2.8805 2.6813 4.1867 4.163 1.2161 1.3794 2.1086 2.8082 2.1343 4.771.0232 1.7659.2319 3.5527.7835 5.264.0839.2604.1404.5339.3859.705.0044.3407.0129.6814.0123 1.0221-.0009.5097-.1856.6126-.6571.4027-.183-.0814-.2312-.2389-.3075-.3853-.3857-.7399-.6917-1.5149-1.0137-2.2835-.1858-.4434-.4268-.8683-1.0219-.8315-.0609-.0509-.1219-.1018-.1828-.1527-.1853-.4558-.5292-.2774-.8156-.1745-1.1541.4148-2.3297.3559-3.5227.2498-.6315-.0562-1.2197-.2902-1.8457-.3419-.3438-.4463-.4472-.9884-.6064-1.5092-.0706-.2309.0667-.6436-.237-.6542-.2918-.0102-.0921.4423-.2652.6281-.2516-.0287-.3561.1804-.4934.3202-.5526.5624-1.1202 1.1286-1.8008 1.5124-2.7609 1.5567-5.5823 2.9919-8.7691 3.4638-1.6625.2462-3.3323.3297-4.959-.2632-.3186-.1161-.6133-.3102-.9693-.3103-1.3852-1.3972-2.4178-3.0276-3.1555-4.8628-.0004.7747.0333 1.5128.2514 2.2315.5611 1.8498 1.4501 3.5369 2.5045 5.1462.2244.3425.1339 1.3066-.12 1.5944-.3642.4129-.9005.4225-1.2884.0212-.1426-.1475-.2965-.2872-.42-.4497-1.8289-2.408-3.3716-4.9885-4.62-7.7421-.729-1.6079-1.3357-3.2567-1.5843-5.0199-.0541-.3837-.0022-.7973-.2754-1.2936-.0852 2.3349.621 4.3279 1.4064 6.3169.7884 1.9964 1.8072 3.8707 2.9417 5.7346-.2262.0065-.317-.0711-.3902-.1671-1.1909-1.5616-2.3793-3.1233-3.2057-4.9243-.3498-.7623-.7141-1.5171-.9937-2.309-.0332-.094-.0479-.2376-.1731-.208-.1719.0406-.1001.1811-.0612.293.0168.0485.0323.0975.0493.1459.9147 2.6006 2.2261 4.9901 3.8558 7.2074.2106.2865.4508.5644.8797.532.1641-.0124.2695.1222.3475.2651.3596.6589.6621 1.3594 1.0977 1.9639.6601.9162.5117 1.8678.2973 2.8444-.3953 1.7986-1.2938 3.3342-2.4925 4.7094zm19.6105-25.2564c-.2974-.1274-.5959-.2525-.8919-.3831-.1672-.0738-.3321-.0508-.3886.1159-.0696.2058.156.1678.2592.2302.8526.5159 1.8044.9206 2.1626 1.9821.0423.1253.1115.3056.3217.248.0687-.089.0155-.1613-.0139-.2412-.4954-1.3502-1.1806-2.6099-1.8888-3.8535-.328-.576-.7354-1.1159-1.2737-1.5322-.1307-.1011-.2579-.1844-.4006-.0241-.147.1652.0051.2429.1043.3258.9848.8226 1.5759 1.9208 2.1354 3.0415-.0418.0302-.0838.0604-.1257.0906zm-5.0017-21.9408c-.4122-.2066-.8093.0582-1.2031.0413-.8632-.0372-1.7256-.0103-2.5204.2968-.8595.332-1.6729.6097-2.5828.2124-.1788-.0781-.4208-.0112-.707-.0112.4307.3143.9312.3315 1.326.5704.4011.2427.7814.2673 1.1618-.0281-.0437.6096.4515.3935.764.5347-.0212-.192-.2179-.4098.1482-.4013.3345.0078.6535-.087 1.0085-.0436.8257.101 1.6431.2871 2.4862.2643.7144-.0193 1.4322.0504 2.1283.21.4394.1007.7499.0077 1.0386-.326 1.0636-1.2295 1.9518-2.5855 2.8156-3.9543.1585-.2512.2975-.6191.189-.9773.1845-.3896.369-.7792.5763-1.2169-.6141.2082-.9796.6001-1.2848 1.0539-.3053.454-.5657.9402-.8926 1.3773-.9254 1.2374-1.8325 2.5185-3.6286 2.4978-.068-.0031-.1361-.0063-.2041-.0094-.1968-.0944-.4068-.1006-.6191-.0908zm5.4693-5.367c.0726-.0723.1388-.1525.2188-.2154.3625-.2853.742-.5509 1.0852-.8573.0952-.085.2938-.2553.1013-.4347-.1597-.1488-.2802.0121-.3982.099-.3437.253-.6816.5139-1.0268.7648-1.1205.814-2.2134 1.6758-3.6382 1.9206-1.2117.2082-2.4227.4928-3.2846-.7928-.1355-.2022-.4008-.1975-.4689.1443-.4858-.1755-.6008.2035-.6079.5045-.0258 1.0908.2259 1.83 1.3696 2.2593.8412.3157 1.7173.378 2.6187.228 1.0993-.1829 2.0803-.5678 2.7525-1.4921.4367-.6004.8166-1.2372 1.4604-1.6541.1206-.0781.3064-.2004.265-.3501-.0595-.2147-.3002-.0586-.4469-.124zm-8.4415-5.0287c.0743-.0352.1926-.0519.2162-.1083.2653-.6326.7974-.6034 1.4345-.6181-.1768.2437-.3057.3976-.4086.5673-.481.7937-.8908 1.6072-.6277 2.5827-.6073-.1119-1.0948.1987-1.5907.4637-.1088.0581-.2729.1495-.2146.3077.0581.1575.2418.1187.3631.0954.2506-.0481.4931-.1371.7405-.2036.1874-.0504.3679-.1837.6048-.0496-1.0922.7083-2.1011 1.4871-2.9976 2.4678.2171.0611.301-.0454.3991-.1021.7744-.4482 1.4494-1.0323 2.1505-1.5808.5762-.4509 1.124-.5138 1.8259-.1497.9111.4726 1.9727.7238 2.9017.1375.9809-.6191 1.7709-1.4906 2.2438-2.5927.3526-.1515.5223-.406.4491-.7973.4346-.1727.9345-.1715 1.2903-.556.3228-.3488.6779-.6648.9143-1.2659-.4779.2627-.8421.4176-1.1543.6442-.5966.4331-1.142.3297-1.6896-.0694-.5084-.3705-1.017-.7406-1.5255-1.1108.536-.3767 1.1398-.648 1.6413-1.0806.2804-.2419.5778-.4799.9361-.5949.5641-.181.8622-.5104.7234-1.1306.6737-.6642.6317-1.4241.3043-2.2268-.287-.7036-.6715-1.3493-1.1585-1.9301-.1884-.2247-.3761-.4747-.7648-.5442.0794.47.3183.8036.5159 1.1533.3959.7005.8234 1.3875.9846 2.1915.1202.5995-.0389.8755-.5885 1.1109-1.8416.7887-3.6798 1.5757-5.6513 2.0107-1.1448.2526-2.0006.9435-2.5315 2.0055-.1079.2159-.1979.4407-.3224.7204-.4123-1.0912-.4301-2.1472-.3193-3.2066.2704-2.5855 1.6991-4.4951 3.6142-6.1141.1389-.1174.3584-.1866.3552-.5101-1.2428.7178-2.122 1.741-3.0514 2.719.0884-.5925.5177-1.0169.705-1.55-.1698-.0667-.2265.038-.2808.114-1.022 1.4308-1.8663 2.9593-2.2534 4.6831-.194.864-.5372 1.8196.3735 2.5552.0281.0227.0069.1.0196.1491.0945.3635.1803.7299.2907 1.0885.2247.7301.5356.8155 1.1329.3248zm52.6392-21.4116c-.2881.0944-.2614.2298-.2588.3413.0143.615-.0143 1.2363.0637 1.8436.3224 2.5106.6686 5.0145.5368 7.5604-.0999 1.9296-.0695 3.8756-.4884 5.7678-.368 1.6624-.7169 3.3456-1.5449 4.8685-.0477.0877-.1455.1925-.0435.2722.1467.1146.2083-.0473.2654-.1382.2362-.3759.5247-.7227.6717-1.1499.4962-1.4421.9235-2.9122 1.1336-4.4172.4312-3.0881.4429-6.1983.2453-9.3075-.0868-1.3655-.5293-2.6835-.5779-4.0553-.0183-.5152-.003-1.0316-.003-1.5857zm-3.8606 26.647c-2.3532 4.4398-5.7719 7.927-9.9308 10.887 2.023-.1701 9.429-8.2966 9.9308-10.887zm4.9178-32.5502c-.3298.3888-.369.8871-.5098 1.3431-.2868.9286-.5712 1.86-.6483 2.8372-.0075.0952-.0601.2285.0653.2692.1538.05.1995-.0958.2405-.2027.0361-.0942.0528-.1975.067-.2983.097-.6918.2525-1.3709.421-2.0483.155-.6231.3574-1.2368.3643-1.9002z" fill="#c1c6bd"/><path d="m65.3558 114.9222c.1731-.1858-.0266-.6382.2652-.6281.3038.0106.1664.4233.237.6542.1593.5208.2626 1.0629.6064 1.5092.0576.3674.3364.5682.6307.6783 1.4205.5319 2.8485.9978 4.4147.7047.7978-.1493 1.1541-.164 1.1387-1.1165.0609.0509.1219.1018.1828.1527.4345.6112.6856 1.2942.8194 2.0291.1079.5926.3066 1.1586.5769 1.6976.1009.2013.222.4052.4467.4745.4239.1308.8526.2518 1.2864.3436 1.3072.2767 1.303.2562 1.1476-1.0922-.1156-1.0034-.4676-1.9669-.4641-2.9886.0042-1.203.2171-2.3817.387-3.5658.1845-1.2864.6276-2.5321.6538-3.841.031-1.5452-.3069-3.0579-.4568-4.5866-.0773-.7883-.5826-1.1641-1.0556-1.6383.0143.6901.069 1.361.1564 2.0277.2674 2.0391.0568 4.0688-.1389 6.0939-.219 2.2663-.8852 4.5141-.204 6.8063.0456.1535.0026.2706-.167.3155-.2454-.1711-.302-.4446-.3859-.705-.5516-1.7113-.7603-3.4982-.7835-5.264-.0257-1.9627-.9182-3.3915-2.1343-4.771-1.3062-1.4816-2.7739-2.7931-4.1867-4.163-1.6975-1.646-2.4494-3.5748-1.8877-5.9472.1632-.6894.0926-1.39-.2831-2.036-.1795-.3086-.4097-.4274-.7555-.3952-.672.0626-1.3249-.0175-1.9701-.2353-.2971-.1003-.4991-.2499-.6759-.6232 1.039.2288 2.021.1115 2.9974.1784.1024.007.2056.0219.3074.0162.332-.0187.7607.0711.8911-.3203.1192-.3577-.327-.4133-.526-.5795-.8534-.7125-1.849-1.2164-2.772-1.828-.1328-.088-.2772-.1228-.4351-.1341-1.84-.1312-3.3938-.976-4.7457-2.1292-.5821-.4965-1.2566-1.0103-1.5533-1.7976-.0835-.2217-.2685-.1014-.3993-.095-.887.0436-1.7715.1191-2.6506.2523-.2002.0303-.4066.024-.6102.027-.1267.0019-.3167.055-.3247-.1301-.0068-.1583.179-.1786.3124-.203 1.1138-.2034 2.2454-.2528 3.3669-.39.3452-.0422.695-.0874 1.0091-.2713-.6334-.1708-1.2516.3634-1.892-.0013.5663-.1691 1.0646-.5181 1.6641-.557.3337-.0217.678-.0076.749.4331.0717.4449-.2112.6101-.5787.6988-.1145.0276-.2285.0568-.3891.0968.5453.8523 1.2998 1.4209 2.1344 1.8949 1.3196.7495 2.7047 1.3203 4.2374 1.4391.6191.048 1.1535.4208 1.7782.4301.1836.0886.3675.1768.5508.266.072.0351.1295.0935.2086-.0124.1678-.2247.1779-.2218.3663-.0216.7778.8269 1.4038 1.752 1.9435 2.7557.7456 1.3867 1.5928 2.7137 2.8038 3.7639 1.1612 1.007 2.2708 2.083 3.6727 2.7672.7357.359 1.5204.5226 2.3399.4597.5704-.0437.9401-.4323.8723-.8687-.0174-.1122-.0567-.201-.1647-.2328-.0723-.0213-.0918.0385-.1311.1024-.2483.4039-.4181.3913-.6346-.0422-.2681-.537-.5101-1.0836-.4961-1.7037.1016-1.1725.5956-2.1617 1.4516-2.9541.9122-.8443 1.7549-1.797 3.0265-2.1395.1242-.0335.2839-.0772.1993-.2772-.4154-.9815-.8681-1.928-1.7321-2.6256-.4055-.3275-.8534-.0864-1.2695-.212.3997-.4895 1.4352-.5013 1.8206-.0392.1198.1436.2616.269.3941.4019.5094.5108.9505 1.0772 1.1788 1.7647.1281.3857.3976.5074.7278.6304 2.2703.8458 4.4654.5876 6.6896-.2705 1.9804-.764 3.7925-1.7973 5.5425-2.9686.0848-.0568.1705-.1183.2648-.1535.1087-.0405.2273-.0542.4717-.1085-1.1333 1.1534-2.4346 1.856-3.6592 2.6624-.0814.02-.1673.0294-.2435.0616-1.7591.7442-3.4811 1.6019-5.4333 1.7491-.0832.0063-.2168-.0198-.2435.1516.3607.4382.8754.6201 1.4034.7475 1.849.4462 3.7425.6245 5.6195.901.2381.0351.4795.0271.709-.0638 1.1176-.4426 2.1765-.9821 3.0369-1.8476.7389-.4254 1.2493-1.1107 1.8803-1.6589.1272-.1105.2239-.2551.4302-.2797-.532.8582-1.2747 1.5285-2.0119 2.2036-.4929.3688-.9827.7421-1.4806 1.104-.1683.1223-.2924.2875-.2355.4717.0618.2004.2551.2804.4836.3112.9748.1313 1.9101.1612 2.5778-.75.0097-.0132.0275-.0202.0407-.0311 1.3652-1.1151 2.7816-2.1712 4.035-3.4167 1.64-1.6297 2.9098-3.5345 4.0938-5.5081 1.3615-2.2696 2.459-4.6513 3.3373-7.1493 1.2139-3.4527 1.7248-7.0098 1.6648-10.6465-.0474-2.874-.1723-5.7485-.3409-8.6182-.1866-3.1761-.6178-6.3379-.5481-9.5289.0112-.5113-.0464-.9919-.4969-1.3346.3233-.1744.3324-.1732.3583-.368.1279-.9608.5052-1.8035 1.1491-2.5327.5876-.6655.8727-1.458.929-2.3398.0577-.905.1185-1.8099.1864-2.7141.0613-.8154.0664-.815-.716-.774-.1249-.2541.0018-.396.2297-.4629.3169-.0931.6569-.1491.9519.0223.5141.2987.9716.1086 1.3923-.1497 1.4556-.8938 2.7266-1.9998 3.7681-3.3644.6677-.8749.8044-2.4232.2015-3.3441-.5594-.8545-1.4531-.9695-2.3712-.8557-.5388.0668-1.0677.2348-1.5921.3879-.2992.0874-.5644.2533-.6435.5979-.1387.1204-.0583.4891-.3669.3924-.2717-.0851-.179-.3994-.1084-.5343.2172-.4148-.0297-.5924-.3056-.7857-.1682-.1179-.3345-.2386-.5-.3603-.1806-.1328-.3605-.2912-.5999-.1432-.2286.1413-.2157.385-.1871.6019.1284.9743.3398 1.9233.935 2.7402.0694.0953.167.1931.1833.3.0822.5406.4632.5288.8339.4265.5334-.1472.9826-.4751 1.4329-.7887.2321-.1616.4607-.3318.7959-.4016-.195.3168-.5338.4183-.6498.7228-.0132.0109-.0271.0211-.0394.0329-1.4883 1.435-2.2163 1.338-3.6512-.1158-1.4699-1.4892-1.3098-3.3888-.1586-4.9369.5078-.6828.6063-1.3917.392-2.176-.0972-.3557-.3212-.5661-.7042-.6598-1.0845-.2654-2.13-.1753-3.16.2355-.2084.0831-.3208.2433-.4336.4167-.5101.7834-.6751 1.6416-.5222 2.5549.1208.722-.1167 1.342-.604 1.82-1.2959 1.2713-2.5075 2.6152-3.6513 4.0223-.2013.2476-.3737.5185-.6084.8472 1.1886.0095 2.0969.3662 2.4928 1.5146-.0857.0046-.1715.0091-.2573.0138-.7201-.9442-1.4759-1.2299-2.4912-.8948.8932.1206 1.7386.3585 2.4424.9452.3402.4409.6804.8817 1.0206 1.3226-.1261.1993-.2599.1109-.3788-.0004-.1622-.1519-.3356-.2995-.4652-.4774-.6769-.9294-1.6469-1.1491-2.7154-1.1694-.4379-.0083-.7037.2716-.947.5436-1.3584 1.5189-2.4161 3.1946-2.6141 5.289-.0305.3232-.0521.6498-.041.9736.0094.2754.1012.4195.4582.3193 1.0162-.2851 2.0563-.3526 3.1018-.1605.1214.0223.2862.0149.3458.2663-.6461.0493-1.2818.1141-1.9191.1416-.6069.0262-1.1881.1426-1.7429.386-.168.0737-.3787.1265-.3882.3599-.0106.2598-.0179.4675.3903.4632 1.3841-.0143 2.7035.3667 4.0143.7661.0555.0169.0955.0845.2098.191-.5825.059-1.0729-.028-1.5627-.1257-.8395-.1675-1.681-.3132-2.542-.3143-.251-.0003-.4254.071-.5251.3143-.9154 2.2339-1.2297 4.5065-.457 6.8531.1316.3996.3563.6362.8012.7551.9805.2621 1.9228.236 2.8697-.1147.1597-.0591.3264-.2145.6065-.0187-.7895.452-1.5466.8246-2.4384.799-.3746-.0108-.7572-.0379-1.1186-.1281-.3496-.0872-.4418.0465-.5192.3485-.2123.828-.0596 1.6344.1205 2.4349.0702.3123.0455.5931.0003.9027-.3908 2.6771-.1765 2.5238 2.0797 3.6006.3852.1839.8086.2735 1.2372.323.1418.0164.3236-.0249.4031.2444-.5915.0939-1.1473-.026-1.7007-.1627-.5629-.1391-1.0768-.4138-1.6723-.6573-.0003 1.5319-.5491 2.8559-1.2076 4.1333-.5204 1.0095-.5652.9642.2914 1.9306.2263.2552.4717.4935.7036.7438.083.0895.293.1599.1581.3114-.1076.1208-.2598-.0198-.3599-.0926-.5261-.3825-1.0569-.7622-1.4383-1.3057-.0964-.1373-.2028-.2675-.3396-.4468-.2217.5777-.193 1.0759.0675 1.5786.2358.4549.4365.9282.7831 1.3167.0679.0761.1507.1652.0623.2681-.1182.1376-.2118.0187-.3016-.053-.6291-.502-.9486-1.2083-1.2083-1.9333-.1057-.295-.2054-.3309-.4705-.2372-.5835.2063-1.1344.4763-1.6788.7677-.7232.3872-.7773.463-.7155 1.2788.0088.1166.0498.2359.0323.3472-.0098.0624-.1008.1357-.1703.1587-.0799.0265-.1206-.0674-.121-.13-.003-.4619-.4029-.7701-.4558-1.2222-.032-.2737-.2868-.394-.5458-.4813-.7131-.2401-1.4454-.2379-2.1829-.2149-.2808.0088-.4166.1839-.5502.3968-.5243.8349-.7984 1.7732-1.1354 2.6863-.0962.2607-.1304.553-.323.7862-.189-.1381-.0827-.2804-.0508-.3912.3179-1.1009.6309-2.2034 1.0971-3.2553.0983-.2217.2399-.4605-.0343-.6935-.2812-.239-.5026-.1068-.7325.0622-.8814.6483-1.2425 1.6496-1.7348 2.5617-.0728.1349-.1374.2743-.2121.4082-.0126.0226-.057.0275-.1214.0558-.0657-.3371.1437-.584.241-.8538.3374-.9348.755-1.8314 1.4013-2.5973.2414-.2861.2896-.5453-.0008-.7944-.2628-.2255-.5232-.304-.8634-.0433-1.5508 1.1882-2.8222 2.6354-3.9842 4.1897-.044-.0408-.088-.0816-.132-.1225 1.0883-1.7392 2.4522-3.2397 4.0169-4.5548.2901-.2438.31-.3987.1193-.6915-.8194-1.2578-1.7842-2.3701-3.0462-3.2093-.286-.1902-.5134-.1869-.7888-.0005-1.9455 1.3173-3.7041 2.8583-5.3841 4.4925-.278.2704-.4316.662-.8063.8419-.0438-.0353-.0875-.0705-.1312-.1058.9258-1.1461 1.3976-2.5976 2.5216-3.6212 1.0959-.9981 2.3179-1.8048 3.6257-2.6163-.7902-.8201-1.6136-1.5538-2.4909-2.2176-1.2767-.9662-2.6882-1.6832-4.2064-2.212-1.4883-.5184-2.6126-.1109-3.6489 1.043-1.8681 2.0801-3.3567 4.4035-4.686 6.844-.0305.056-.0741.1048-.1472.1381.3039-.9495.7646-1.8228 1.2313-2.6985 1.0744-2.0158 2.5504-3.7224 4.085-5.3847.3158-.3421.4751-.6331.0727-1.0172-.2464-.2351-.4486-.5159-.678-.7696-1.4107-1.5608-2.869-3.0816-4.438-4.478-1.6185-1.4404-3.396-2.6651-5.584-3.1222-1.8678-.3903-3.7569-.5261-5.6618-.51-1.3699.0116-2.7401-.0006-4.1031.1681-.1671.0207-.2935-.0088-.4046-.1493-.8939-1.131-2.1439-1.3794-3.4855-1.39-.2737-.0022-.5475.0152-.8213.0225-.2666.0071-.4974.0233-.7492-.1928-.2906-.2494-.6903-.1961-1.0692-.0512-2.1896.837-4.3639 1.707-6.467 2.7483-2.2237 1.101-4.4873 2.1255-6.6307 3.3805-1.0335.6052-2.0178 1.2939-3.0335 1.9303-.719.4505-.9044 1.228-1.176 1.9313-.9444 2.4457-1.7163 4.9426-2.0017 7.5642-.0592.544.0715 1.0728.1721 1.6624 1.0397-.6984 2.02-1.3872 2.858-2.2357.3519-.3563.272-.9177.2136-1.4187-.0234-.2008-.2275-.535.0266-.5963.2769-.0668.2539.3262.3538.524.1561.3092.1524.6542.2152 1.0859.5925-.6417 1.2642-1.0754 1.866-1.5953.3067-.2649.6235-.3871 1.0506-.4241 1.1913-.1033 2.4074-.2298 3.1616-1.3744.0197-.0299.0824-.0314.1383-.0507-.6263 1.592-1.4119 1.9145-3.3456 2.0795-.29.0248-.533.0775-.7476.2565-.4859.4054-.9768.8057-1.4476 1.2281-2.0404 1.8309-4.233 3.4458-6.5634 4.8977-1.8286 1.1393-3.753 2.0445-5.7451 2.8302-.4101.1617-.8367.2818-1.3066.4379.5891.8922 1.3437 1.5615 2.1049 2.2117.7325.6256.7362.5584 1.5918.129 2.8694-1.4398 5.1037-3.6666 7.3353-5.8903 1.3456-1.3408 2.6223-2.7506 3.9338-4.1257.1358-.1424.2513-.3293.5106-.2721 1.3976.3086 2.4698-.4232 3.5556-1.1166.1722-.11.3118-.3219.576-.258.0218.2611-.2742.2562-.3208.4388-.5171.5299-1.1446.9048-1.7608 1.3047-.4981.3233-1.0146.4217-1.5642.3203-.3075-.0567-.5012.0469-.6697.2494-.9847 1.1832-2.0418 2.3026-3.0516 3.4623-1.8575 2.1332-3.7937 4.1801-5.9686 5.9941-.3829.3194-.7846.6089-1.2287.8338-.2128.1077-.4966.26-.678.1007-.48-.4214-.8616-.1411-1.2383.1123-.2795.188-.4654.1252-.7095-.063-.6141-.4733-1.12-1.057-1.6826-1.5822-.3057-.366-.6066-.7361-.9196-1.0957-.1166-.134-.1552-.4096-.3783-.3637-.2401.0494-.1436.32-.1579.4808-.2995 3.3742-1.448 6.5295-2.4908 9.7114-.4476 1.3659-1.0859 2.6559-1.6341 3.9817-.1452.3511-.1473.6109.1413.9122.5905.6165 1.1901 1.2385 1.6837 1.931 1.359 1.9063 2.6049 3.8881 3.8166 5.8925 1.5132 2.5032 2.9673 5.0305 4.0203 7.7728.5075 1.3217 1.1995 2.5735 1.5075 3.9706.2221 1.0076.2859 1.0724 1.3253 1.1761.1872.0187.3765.0318.5642.0268.8522-.0228 1.3955-.4615 1.4756-1.1819.0175-1.1667-.1685-2.3168-.2767-3.4735-.0826-.8828.141-1.6417.8597-2.2449.8442-.7085 1.7451-1.2441 2.9605-1.232-.6886-.9404-1.2393-1.8642-1.9349-2.6848-.5105-.6021-.8436-1.3088-1.2083-1.9977.0652-.0351.1304-.0702.1956-.1052.0596.0597.1263.1139.1777.1801 1.0029 1.2909 1.8981 2.6669 3.0192 3.8644 1.0736 1.1468 2.0563 2.3874 3.3132 3.3488.5657.4327 1.1244.923 1.8573 1.0464 2.6367.4441 5.1942.2961 7.5398-1.1524 1.5089-.9318 2.953-1.9489 3.834-3.5565.2765-.5045.4433-1.0743 1.0023-1.4098-1.291-.7913-2.4214-1.7101-3.5595-2.6157-2.5115-1.9983-4.6256-4.3689-6.4788-6.9811-.9134-1.2875-1.7087-2.6433-2.4107-4.056-.0947-.1905-.1615-.4088-.4639-.4015-1.1138.0271-2.1764-.219-3.1746-.7032-.6744-.3271-1.327-.7004-1.9793-1.0709-.1136-.0645-.3132-.1877-.1897-.3565.1164-.1591.2317.0408.3406.093.7766.3723 1.5449.765 2.5138.9975-.568-.9868-1.103-1.8527-1.3403-2.8803.2929.0271.3217.235.3847.3996.266.695.7089 1.2869 1.1196 1.8938.2495.3686.5809.69 1.0163.8361.306.1027.6992.2927.8764-.1623.106-.2721.1558-.5863.0239-.9006-.4176-.995-.6699-2.0389-.8665-3.097-.1846-.9936-.3347-1.9913-.3519-3.0047-.0013-.0793-.0535-.1922.0654-.2017.0539-.0043.1164.1001.175.1552-.0376 1.694.5199 3.2602 1.062 4.8241.6439 1.8577 1.3943 3.6702 2.4123 5.3625 1.1677 1.9412 2.5094 3.7521 4.0207 5.4383.0315.0351.08.0551.1325.0901.0882-.2348.0506-.4958.2-.6929.1713-.2259.0895-.3908-.0737-.5834-1.4975-1.7671-2.6891-3.729-3.4008-5.9296-.6774-2.0945-1.3469-4.2009-1.6717-6.392-.0145-.0976-.0539-.2052.0688-.2612.0914.0023.1238.0607.135.1299.2266 1.3901.8267 2.6704 1.1841 4.0259.4702 1.7835 1.1041 3.5306 2.1185 5.0973.7527 1.1627 1.5625 2.2883 2.4518 3.3518.1672.2.272.3212.0274.5286-.2061.1747-.157.3459.0063.5708.7655 1.0548 1.7785 1.8363 2.7934 2.6213 1.0451.8083 2.167 1.4925 3.3308 2.1132.1672.0892.448.1515.3671.4161-.0793.2594-.3425.2326-.5702.2197-.2143-.0121-.4369-.0591-.6814.1269.557.3176 1.079.6282 1.6149.9126.1561.0828.3257.1161.3174.3381-.1436.0983-.2993.1488-.4754.1691-.6816.0789-1.1367.4236-1.4501 1.0628-.3611.7362-.8634 1.3991-1.4499 1.9816-2.2794 2.2639-5.0524 3.4321-8.2401 3.5439-1.8268.064-3.6453-.0689-5.0411-1.5296-.2484-.2599-.4785-.1508-.5497.2146-.0652.3347-.0622.6772-.1588 1.011-.1288.4456-.4619.7024-.8403.833-.3636.1255-.4957-.2834-.693-.5023-.7107-.7884-1.4099-1.5872-2.1278-2.369-.639-.6959-.9275-.6394-1.3687.2385-.0227.0452-.0319.0972-.0474.146-.3066.5244-.0981 1.0689-.0496 1.602.0835.9185.2287 1.8305.2537 2.7555.015.5562-.2718.9548-.6589 1.2716-.9878.8082-2.613.8261-3.6614.0931-.2232-.1561-.3103-.369-.344-.6035-.2613-1.821-.9823-3.4807-1.7714-5.1181-1.3891-2.8825-2.9595-5.6623-4.6844-8.3573-1.4755-2.3053-2.8577-4.674-4.6642-6.7495-.2028-.2329-.2264-.4493-.1213-.7436.6211-1.7395 1.3983-3.4173 1.9297-5.1952.5541-1.8539.9963-3.734 1.4944-5.6007.3439-1.289.6431-2.5886.821-3.9127.0284-.2114.1407-.3083.3239-.4113.9918-.5576 2.1187-.7738 3.1376-1.2661.3956-.1912.6215-.3338.5626-.8532-.0604-.5327-.0561-1.1052.1876-1.7414.2787.4967.1309.9316.193 1.3356.126.8194.1127.8277.8641.4575 1.1982-.5902 2.3801-1.2104 3.5182-1.9124.2907-.1794.387-.3622.3677-.7395-.1144-2.2333-.035-4.4501.9293-6.5328.0937-.2025.1452-.4652.5232-.5332-.3076.9942-.661 1.9307-.8208 3.0272.3087-.2664.3432-.5405.4136-.7875.2955-1.0368.5731-2.0787.8702-3.115.0928-.3236.0103-.4621-.3293-.3882-1.0522.229-2.1566.3319-3.1411.73-1.2004.4853-1.965 1.4904-2.3048 2.7758-.1698.6423-.4154 1.2646-.4708 1.9362-.0133.1611-.0601.3325-.2112.4467-.2377-.8573.4418-3.3334 1.3303-4.8089-.6558-.1102-1.2922-.0818-1.927-.0308-2.7401.22-5.4247.7243-8.0338 1.6007-1.4285.4798-2.7938 1.1187-4.1884 1.684-.8694.3524-1.7471.6846-2.621 1.0259-.119-.0235-.3015.1349-.3483-.0597-.0409-.1702-.0506-.394.1592-.4967.2293-.1123.4717-.1975.7081-.2954.6214-.2575 1.2425-.5154 1.8638-.7732-.779-.0129-1.5004.1664-2.22.3526-.2204.057-.4207.1083-.3776-.239.1191-.1106.1127-.26.1246-.4037 1.6168-.5015 3.2338-.9668 4.9471-1.0615.591-.0326 1.1673-.3611 1.7471-.5639 3.1822-1.1127 6.4775-1.6269 9.8265-1.5162 1.2451.0411 2.2308-.5463 3.359-.7329.7242-.1198 1.4353-.3178 2.1591-.4405.2609-.0442.4067-.1387.4686-.3845.0251-.0996.0615-.1962.087-.2957.2897-1.1331.8476-1.9954 1.9131-2.6433 3.9213-2.3844 7.9227-4.6146 12.0536-6.6117.9999-.4834 2.0216-.9226 3.0414-1.3632.7923-.3423 1.6012-.3594 2.389.0147.5326.2529 1.1041.1867 1.6573.2416 1.3513.134 2.6141.5115 3.759 1.2464.1813.1164.3536.103.5388.0929 2.5289-.1373 5.0462-.0397 7.5585.2977 2.5374.3408 4.8331 1.2255 6.7476 2.951 2.0599 1.8566 4.1503 3.682 6.0897 5.6685.1909.1955.3986.3892.4447.6757.0371.2305.2037.1947.3507.1948 2.5277.003 4.6415.997 6.4684 2.6883.5904.5466 1.3119.9958 1.7635 1.6373.6325.8985 1.6474 1.2713 2.3689 2.0215.7855.8167 1.4859 1.7011 2.1585 2.6092.0788.1064.1331.2441.1579.375.0721.3807.1792.7277.5655.915.0709.0344.1557.1163.1665.1866.1058.687.7901.7968 1.18 1.1977.1513.1555.3532.1344.534.0849.9188-.2514 1.7635.0221 2.582.3837.4009.1771.7118.2754 1.1082-.0556.5042-.421 1.1474-.5918 1.7847-.7451.7541-.1814 1.1287-.7733 1.3831-1.4235.1872-.4784.3381-.9572.6678-1.3688.5861-.7316.8016-1.6172.9335-2.5179.0601-.4105-.0406-.787-.3838-1.1106-.3106-.2928-.3614-.7308-.2907-1.1516.0651-.3874.151-.7728.2533-1.1522.1324-.4911.1403-.9515-.0376-1.4513-.2851-.8007-.1658-1.6203.0763-2.4213.0472-.1561.1601-.2974.0173-.4764-.8791-1.102-.8756-2.4005-.806-3.7105.0779-1.4675.4746-2.8616.9885-4.2274.0483-.1283.1144-.2247-.0037-.3691-.4034-.4934-.2456-.9938.0378-1.4734.0688-.1163.1842-.1999.1489-.3584-.4295-1.9266.3281-3.5514 1.2969-5.1259.5351-.8697 1.2009-1.6208 1.988-2.2675.0657-.0539.1699-.0956.1914-.1636.7118-2.2496 2.4395-3.7459 3.9803-5.3805.1175-.1247.2389-.246.3632-.3638.5498-.5214.7925-1.1123.7408-1.9138-.0715-1.1081.15-2.1883 1.0662-2.9694.6148-.5242 1.4007-.6065 2.1523-.7577.5032-.1013 1.009-.1481 1.527-.0425.6969.1422 1.1278.5567 1.3143 1.2188.24.8522.158 1.7017-.2076 2.4962-.1238.2691-.0619.3423.1327.4776.4214.2932.8419.5913 1.2344.9211.2792.2346.5179.2819.8759.1462.8715-.3303 1.7917-.4474 2.7218-.3948 1.3334.0755 2.2141 1.1006 2.3316 2.6022.112 1.4308-.457 2.6016-1.3072 3.6789-.68.8616-1.5192 1.5102-2.5241 1.9707-.6193.2838-1.1939.6665-1.7824 1.0152-.2945.1745-.4339.4258-.4642.7911-.0707.8511-.2009 1.6972-.3049 2.5456-.1357 1.1068-.7346 2.0075-1.2998 2.9224-.3226.5223-.6654 1.0247-.7973 1.6497-.0676.3205.0188.5996.0428.8975.1398 1.7393.2965 3.4775.4111 5.2184.1191 1.8089.2471 3.6196.282 5.4313.0693 3.5916.4227 7.1782.2335 10.7735-.1151 2.1876-.432 4.3493-1.0609 6.4555-.6604 2.2118-1.2836 4.439-2.3805 6.4891-.905 1.6914-1.946 3.3009-3.0118 4.8944-.0837.1252-.1681.2499-.3116.4632.7651-.0034 1.4095-.1967 2.0498-.3679 1.5688-.4193 3.1304-.8658 4.6943-1.3031.4465-.1248.8719-.1 1.1561.3021.3022.4275.2259.88-.1722 1.3689-.6707.8236-1.6129 1.2789-2.5281 1.7214-3.0319 1.4659-6.2016 2.5281-9.5434 3.0349-.1338.0203-.2907.0307-.3909.1064-.7466.5639-1.5022 1.1184-2.2809 1.8526.616.1219 1.1323.0522 1.6441.0599 2.7128.041 5.3867-.3466 8.0629-.7154.2024-.0279.4107-.0263.6157-.0192.8822.0308 1.2971.7912.8309 1.5482-.4316.7009-1.1659 1.0415-1.8352 1.4454-.8416.5079-1.7909.7538-2.721 1.0429-2.1057.6545-4.2074 1.3236-6.3851 1.7078-1.9199.3387-3.8606.5259-5.7896.794-2.2517.3129-4.5036.364-6.7632.27-.886-.0369-1.7815-.1229-2.6467-.3079-1.0238-.2188-1.973-.0047-2.9204.292-.5421.1698-1.1057.1869-1.6509.3244-.3677.0927-.5356.2921-.5983.6556-.1684.9759-.0788 1.9572.045 2.9145.2502 1.9333.3143 3.839-.1751 5.7471-.3697 1.4414-.4973 2.9265-.677 4.4001-.0735.6024.0465 1.1962.2147 1.7707.2476.8458.3406 1.711.3662 2.5836.0214.7287-.3498.9932-1.0686.9214-.74-.0739-1.4237-.3536-2.1426-.4899-.7592-.144-.9142-.7356-1.0708-1.3396-.0721-.2779-.1242-.5446-.3154-.7931-.4204-.5463-.9094-.8148-1.6255-.8943-1.5778-.1752-3.1338-.4825-4.6536-.9976-.753-.2552-1.572-.1648-2.3299.2561-2.7285 1.5151-5.5777 2.7598-8.5528 3.7092-1.259.4018-2.5598.6039-3.8651.7743-.6419.0838-1.2662-.0594-1.8607-.2776-.2868-.1052-.3707-.0077-.4375.2201-.0528.1798-.1357.359-.146.5418-.0492.8802-.5163 1.4075-1.3639 1.5427-.7103.1133-1.0041.5874-1.1916 1.1816-.2826.8954-.5005 1.8086-.9032 2.6673-.6231 1.3288-1.4147 2.5372-2.4094 3.6144-.2355.0325-.4337-.049-.6095-.1991 1.1987-1.3752 2.0972-2.9107 2.492-4.7096.2143-.9766.3628-1.9282-.2973-2.8444-.4355-.6045-.7381-1.305-1.0977-1.9639-.078-.143-.1834-.2776-.3475-.2651-.4289.0325-.6692-.2455-.8797-.532-1.6297-2.2172-2.941-4.6067-3.8558-7.2074-.017-.0484-.0325-.0974-.0493-.1459-.0389-.1119-.1107-.2524.0612-.293.1252-.0296.1399.114.1731.208.2797.7919.644 1.5467.9937 2.309.8264 1.801 2.0148 3.3627 3.2057 4.9243.0732.096.164.1736.3902.1671-1.1345-1.8639-2.1534-3.7382-2.9417-5.7346-.7855-1.989-1.4916-3.9819-1.4064-6.3169.2732.4964.2213.91.2754 1.2936.2486 1.7632.8553 3.4119 1.5843 5.0199 1.2484 2.7535 2.7911 5.334 4.62 7.7421.1234.1625.2774.3022.42.4497.3879.4013.9242.3917 1.2884-.0212.2539-.2878.3444-1.2519.12-1.5944-1.0544-1.6093-1.9434-3.2964-2.5045-5.1462-.218-.7187-.2518-1.4568-.2514-2.2315.7377 1.8352 1.7703 3.4656 3.1555 4.8628.1792.2035.3513.4138.5388.6093 1.0795 1.1257 2.2949 1.8478 3.9571 1.5271 1.5299-.2952 3.0445-.6208 4.4919-1.2122 2.2776-.9305 4.5784-1.816 6.5594-3.3284.4765-.3638.9136-.7729 1.2255-1.2957.1893-.3153.3139-.6459.2198-1.0227zm22.7437-12.7299c.3759 0 .7537.0254 1.1273-.0039 3.9446-.3095 7.8655-.8081 11.7194-1.714 2.2979-.5402 4.5594-1.2298 6.668-2.331.3795-.1982.7317-.4397 1.0225-.7642.1754-.1958.2694-.4042.147-.6522-.1226-.2483-.3615-.1474-.551-.1357-1.6087.0991-3.1873.4182-4.7716.686-3.083.5211-6.1695.5135-9.2521.0626-1.8601-.272-3.7035-.6563-5.5585-.9662-2.4145-.4034-4.8168-.8523-7.1092-1.7448-.2346-.0913-.4086-.0033-.575.0856-.9704.5186-1.9062 1.1053-2.6059 1.9658-.6855.843-1.0979 1.811-.9329 2.9397.0229.1565.0182.3201.2356.4076.6015.2421 1.1723.5668 1.7828.7795 2.7996.9755 5.6612 1.6038 8.6536 1.3852zm-13.9665 6.1169c.3095-1.6689.1974-3.1741-.4664-4.6277-.3974-.8703-.7681-1.7535-1.1239-2.6416-.0941-.2349-.2166-.4098-.4134-.5614-1.6177-1.2457-2.9633-2.7343-4.0002-4.4982-.0762-.1296-.091-.3717-.3421-.2932-.1247.039-.3035.051-.3339.2031-.0386.1932-.0793.4032.1353.5554.2705.1918.4114.4983.616.7489.0833.102.2084.2166.0532.3489-.1545.1317-.2518.0028-.3321-.1081-.25-.3451-.3993-.2458-.5729.0843-.5665 1.0775-.4312 2.2373-.281 3.3446.1265.9324.733 1.72 1.3538 2.4383 1.0471 1.2117 2.3528 2.1387 3.5487 3.1863.6888.6032 1.3995 1.1815 2.1589 1.8204zm31.5689-15.8375c-1.4087.6384-2.863.9595-4.1918 1.5881.2056.0249.3916.0001.5744-.0393 2.5319-.5457 4.9684-1.3897 7.3361-2.4239 1.014-.4429 2.0244-.9322 2.823-1.7346.2319-.233.5752-.5352.3608-.8773-.2086-.3329-.5993-.0922-.8968-.0114-1.696.4604-3.3574 1.0902-5.0951 1.34-1.0768.1548-1.4586.9308-1.9998 1.6185-.1277.1622-.0416.3383.0391.4814.1009.179.2405-.0075.3628.0008.1919.0131.3811-.1579.6873.0577zm-98.2195-29.8436c-.0187-.0173-.035-.0448-.0522-.0453-.0262-.0008-.053.0169-.0795.0268.0153.017.0304.0476.046.0479.0272.0005.0548-.0177.0857-.0294z" fill="#0e0e0e"/><path d="m5.2869 76.8634c.7584-.3324 1.3074-.9412 1.9258-1.4584.0395.0399.079.0798.1186.1198-.3904.3817-.7366.7991-1.0584 1.2413-.4854.667-1.0903 1.206-1.8264 1.5898.0305-.1209-.0665-.2883.1008-.3574.2126-.0878.1068-.0943-.0198-.108-.2505-.0269-.2531-.2293-.2889-.4082.1936.0411.3145-.0729.4288-.201l-.005.0045c.1317-.0308.2239-.1174.3071-.2168l-.0044.0034c.1307-.0337.2385-.1025.3218-.209z" fill="#1d1d1d"/><path d="m4.6415 62.8771c-.0431.3473.1572.296.3776.239.7196-.1862 1.441-.3655 2.22-.3526-.6212.2578-1.2424.5157-1.8638.7732-.2363.0979-.4788.1832-.7081.2954-.2098.1027-.2001.3265-.1592.4967.0468.1946.2293.0362.3483.0597-.6107.699-.3909 1.5821-.496 2.3838-.0846.6452-.0971 1.3032-.2025 1.9497.0133-1.9605.1462-3.9112.4837-5.8449z" fill="#c2c4bc"/><path d="m31.4141 124.9238c.0581-.3248.1163-.6496.1744-.9743.1708.3748.1172.7503.0664 1.1256-.1311.0303-.2119-.0191-.2408-.1513z" fill="#1d1d1d"/><g fill="#c2c4bc"><path d="m4.1511 69.1483c.1331.2065.1421.4102-.0136.6102-.0971-.2056-.0807-.4088.0136-.6102z"/><path d="m4.1402 74.2866c.1591.1929.1325.3946.0284.5999-.1367-.194-.1172-.3953-.0284-.5999z"/><path d="m4.6674 77.2813c-.1143.1281-.2352.2421-.4288.201.0252-.0723.0503-.1447.0758-.2171.1178.0053.2354.0107.353.0161z"/><path d="m4.2539 76.4506c.0883.0564.1.1186.0141.1881-.0841-.0568-.0792-.1202-.0141-.1881z"/></g><path d="m17.7431 74.199c.5626.5252 1.0685 1.1089 1.6826 1.5822.2442.1882.43.2509.7095.063.3768-.2534.7584-.5337 1.2383-.1123.1814.1592.4652.007.678-.1007.4442-.2249.8459-.5145 1.2287-.8338 2.1748-1.8141 4.111-3.8609 5.9686-5.9941 1.0098-1.1597 2.0669-2.2792 3.0516-3.4623.1685-.2025.3622-.3061.6697-.2494.5496.1013 1.0661.0029 1.5642-.3203.6162-.3999 1.2437-.7747 1.7608-1.3047.298.2373.3474.5049.2618.8947-.3683 1.6768-.5963 3.3749-.7585 5.0869-.1312 1.3852-.0363 2.7659-.0867 4.1474-.0128.3496.1176.6682.188 1.0004.1194.5637-.0158.7674-.5761.7047-.6695-.0749-1.1476.205-1.5867.6397-.0586-.0551-.1212-.1595-.175-.1552-.1189.0095-.0667.1224-.0654.2017.0171 1.0134.1673 2.0111.3519 3.0047.1966 1.0582.4489 2.102.8665 3.097.1319.3143.0821.6285-.0239.9006-.1772.455-.5704.265-.8764.1623-.4354-.1461-.7668-.4675-1.0163-.8361-.4108-.6069-.8537-1.1987-1.1196-1.8938-.063-.1646-.0918-.3724-.3847-.3996.2373 1.0276.7723 1.8934 1.3403 2.8803-.9688-.2326-1.7372-.6253-2.5138-.9975-.1089-.0522-.2242-.2521-.3406-.093-.1235.1688.076.292.1897.3565.6523.3704 1.3049.7437 1.9793 1.0709.9981.4841 2.0608.7302 3.1746.7032.3024-.0073.3692.211.4639.4015.702 1.4126 1.4973 2.7684 2.4107 4.056 1.8532 2.6123 3.9674 4.9828 6.4788 6.9811 1.1382.9056 2.2685 1.8244 3.5595 2.6157-.559.3355-.7259.9053-1.0023 1.4098-.881 1.6075-2.325 2.6247-3.834 3.5565-2.3456 1.4484-4.9031 1.5965-7.5398 1.1524-.733-.1235-1.2916-.6138-1.8573-1.0464-1.2569-.9614-2.2396-2.202-3.3132-3.3488-1.121-1.1975-2.0163-2.5734-3.0192-3.8644-.0514-.0661-.1181-.1203-.1777-.1801-.4176-.6312-.8353-1.2624-1.2529-1.8937-.0368.0249-.0736.0498-.1104.0747.2921.6976.773 1.286 1.1678 1.9242.3647.6889.6978 1.3956 1.2083 1.9977.6957.8206 1.2463 1.7444 1.9349 2.6848-1.2154-.0121-2.1163.5235-2.9605 1.232-.7186.6031-.9423 1.362-.8597 2.2449.1082 1.1567.2942 2.3069.2767 3.4735-.3163-.027-.3986-.2377-.4685-.5147-.3257-1.2903-.6498-2.5823-1.3293-3.7497-.188-.3231-.3741-.6457-.526-.994-.5467-1.2534-1.0134-2.583-1.868-3.6424-1.4274-1.7696-2.5701-3.7316-3.9553-5.5279-1.1634-1.5087-2.0855-3.1958-3.3524-4.6386-.6067-.691-.8992-1.5325-.7653-2.4723.1179-.8268.3013-1.6331.603-2.4224.4512-1.1805.7875-2.405 1.2367-3.5863.6988-1.8378 1.3184-3.6898 1.4711-5.6665zm11.79 7.5115c.049.0884.1213.2002.2201.1228.1454-.1138.0127-.1916-.0809-.259-.2724-.2453-.4617-.5935-.8631-.6877.253.2681.3867.634.7239.8239z" fill="#e4cebe"/><path d="m111.9505 40.9273c.7824-.0411.7773-.0415.716.774-.068.9043-.1287 1.8091-.1864 2.7141-.0562.8818-.3414 1.6743-.929 2.3398-.6439.7292-1.0212 1.572-1.1491 2.5327-.0259.1948-.0349.1936-.3583.368.4505.3427.5081.8233.4969 1.3346-.0697 3.191.3615 6.3528.5481 9.5289.1686 2.8697.2935 5.7442.3409 8.6182.06 3.6368-.4509 7.1938-1.6648 10.6465-.8782 2.498-1.9757 4.8797-3.3373 7.1493-1.184 1.9736-2.4538 3.8784-4.0938 5.5081-1.2534 1.2455-2.6698 2.3016-4.035 3.4167-.0133.0108-.0311.0179-.0407.0311-.6678.9112-1.603.8813-2.5778.75-.2285-.0308-.4218-.1109-.4836-.3112-.0568-.1842.0672-.3494.2355-.4717.4979-.3619.9877-.7352 1.4806-1.104.2912.2535.5572.1999.8637-.0098 1.103-.7547 2.1349-1.5949 3.0799-2.5372 1.296-1.2922 2.6042-2.5743 3.7763-3.9838.6598-.7935 1.1188-1.7194 1.6213-2.6093 1.3742-2.4336 2.5226-4.9685 3.1483-7.7096.3875-1.6974.5678-3.4221.6992-5.1585.089-1.1755.1254-2.3531.1603-3.527.0827-2.7847-.1872-5.5633-.3119-8.3434-.0841-1.8734-.1905-3.748-.304-5.6206-.0674-1.1123-.0417-2.2214-.0831-3.3312-.0038-.102.008-.2159-.0326-.3034-.5837-1.2582-.0153-2.367.5672-3.3875.9893-1.733 1.677-3.5259 1.8626-5.528.0561-.6045-.0645-1.1851-.0094-1.7758z" fill="#979b92"/><path d="m60.1778 72.144c.5085.3703 1.0171.7404 1.5255 1.1108.5476.3991 1.093.5025 1.6896.0694.3121-.2266.6764-.3815 1.1543-.6442-.2364.601-.5915.9171-.9143 1.2659-.3559.3845-.8558.3833-1.2902.5559-.3089.0941-.6244.1714-.9256.2861-.5152.1961-1.2098.0697-1.4488.7859-.0117.0352-.1232.0372-.1882.0546-.0863-.5094-.2131-.5554-.6933-.2409.2002.1895.4712.1521.701.2333-.0124.4684-.3909.5309-.7136.5734-.2884.038-.5261-.1868-.5085-.4655.0454-.7171-.3656-.3891-.6619-.3195-.2772.0651-.2762.3285-.3291.5328-.1469.5669.0616 1.0818.4214 1.4703.2825.305.7.0916 1.0612-.0185.694-.2116 1.2113-.6783 1.7453-1.1347.3684-.3149.5914-.7956 1.0908-.9599-.4729 1.1022-1.2629 1.9736-2.2438 2.5928-.929.5864-1.9906.3351-2.9017-.1375-.7019-.3641-1.2496-.3011-1.8259.1497-.701.5485-1.3761 1.1326-2.1505 1.5808-.0981.0568-.1819.1632-.3991.1021.8966-.9807 1.9054-1.7596 2.9976-2.4678-.2369-.1341-.4174-.0007-.6048.0496-.2474.0665-.4899.1555-.7405.2036-.1212.0233-.305.0621-.3631-.0954-.0584-.1582.1058-.2496.2146-.3077.496-.265.9834-.5756 1.5907-.4637.381-.0231.6774.1719.9839.4689-.2773-1.8735.8176-3.5881 2.4019-3.8905.133-.0254.3393.058.3879-.1564.0488-.2156-.0288-.4497-.1835-.5607-.5054-.3624-1.0645-.6936-1.7102-.5504-1.2463.2764-2.0883 1.0419-2.4944 2.2655-.5973.4907-.9082.4053-1.1331-.325-.1105-.3587-.1962-.725-.2907-1.0885-.0127-.049.0084-.1264-.0196-.1491-.9107-.7355-.5675-1.6911-.3735-2.5552.3871-1.7238 1.2314-3.2523 2.2534-4.6831.0543-.076.111-.1807.2808-.114-.1873.5331-.6165.9575-.705 1.55.9294-.978 1.8086-2.0012 3.0514-2.719.0032.3235-.2163.3926-.3552.5101-1.9151 1.619-3.3438 3.5286-3.6142 6.1141-.1108 1.0594-.093 2.1155.3193 3.2066.1245-.2797.2145-.5045.3224-.7204.5309-1.062 1.3867-1.7529 2.5315-2.0055 1.9715-.435 3.8097-1.222 5.6513-2.0107.5495-.2353.7087-.5113.5885-1.1109-.1612-.804-.5887-1.4911-.9846-2.1915-.1976-.3496-.4365-.6833-.5159-1.1533.3888.0695.5764.3195.7648.5442.4871.5808.8715 1.2265 1.1585 1.9301.3275.8028.3694 1.5627-.3043 2.2268-1.4489.8575-2.9425 1.6188-4.6525 2.0945.5087.2678.9304.4898 1.352.7117zm-2.6579 2.4503c-.0986.0177-.1258.0895-.1327.1768-.041.0328-.0822.0655-.0209.1166.0207-.025.0415-.05.0622-.0751.0858-.0506.1051-.1282.0896-.22.0167-.0157.0333-.0315.05-.0472-.011.002-.0268.0002-.0319.0067-.0088.0113-.0112.0278-.0163.0422zm3.8353-.6385c-.8314-.7168-2.4045-.3543-3.0808.6015 1.0705.0254 2.0727-.2372 3.0808-.6015zm-4.2778 1.4258c-.0876.1267-.2568.2467-.1221.4692.1896-.1082.1682-.2764.1221-.4692zm.2089-.2454c.0172-.0703.0106-.1156-.0527-.1118-.0261.0016-.0689.0316-.0714.0526-.0046.0388.015.0804.0245.1209.0372-.0231.0744-.0462.0996-.0617zm-2.5408-8.1251c-.0354-.0279-.0648-.0621-.075-.0571-.0372.0182-.0679.0494-.101.0758.0229.0169.0506.0517.0676.047.0373-.0102.0691-.0403.1084-.0657zm.0628-.22c-.0215.0119-.0439.0243-.0662.0366.0114.0114.0254.034.0338.0322.0242-.0054.0462-.0207.069-.0322-.0114-.0114-.0228-.0228-.0366-.0366z" fill="#101110"/><path d="m27.1398 103.048c.0155-.0488.0247-.1008.0474-.146.4412-.8779.7297-.9344 1.3687-.2385.7179.7818 1.4171 1.5806 2.1278 2.369.1974.2189.3294.6278.693.5023.3784-.1306.7115-.3874.8403-.833.0965-.3339.0936-.6763.1588-1.011.0712-.3654.3013-.4745.5497-.2146 1.3958 1.4608 3.2143 1.5937 5.0411 1.5296 3.1877-.1118 5.9607-1.2799 8.2401-3.5439.5865-.5825 1.0888-1.2454 1.4499-1.9816.3135-.6391.7685-.9838 1.4501-1.0628.1761-.0204.3318-.0709.4754-.1691.4062.206.549.544.2877.9511-.4879.7602-.8896 1.5807-1.4852 2.2679-1.7704 2.0429-3.9596 3.5327-6.4768 4.4328-1.6274.5819-3.3702.8622-5.1209.3069-.6971-.2211-1.4419-.2603-2.1362-.5116-.4057-.1469-.7844-.326-1.1212-.6031-.2187-.18-.3852-.196-.3977.1865-.019.5797-.2479 1.0961-.606 1.5476-.4838.6099-1.0571.648-1.6422.1422-.1527-.132-.3456-.2164-.5161-.3288-1.3166-.8674-2.0959-2.2179-3.0583-3.4039-.0533-.0653-.1129-.1254-.1694-.188z" fill="#979c92"/><path d="m76.6587 99.0768c-.014.62.2279 1.1666.4961 1.7037.2165.4335.3863.4462.6346.0422.0393-.0639.0588-.1237.1311-.1024.108.0318.1473.1206.1647.2328.0678.4364-.3019.825-.8723.8687-.8195.0628-1.6041-.1007-2.3399-.4597-1.4019-.6841-2.5115-1.7601-3.6727-2.7672-1.211-1.0502-2.0582-2.3772-2.8038-3.7639-.5396-1.0037-1.1657-1.9289-1.9435-2.7557-.1884-.2002-.1984-.2032-.3663.0216-.0791.1059-.1366.0475-.2086.0124-.1833-.0893-.3672-.1774-.5508-.266-.1342-.3708-.4033-.7386-.0247-1.1207.279.0773.4045-.0367.4179-.3182.0137-.287.1365-.5082.4246-.6089.7506.6295 1.3437 1.3792 1.8496 2.2228.6309 1.0519 1.4064 2.0168 2.2341 2.913.7132.7722 1.314 1.6837 2.2235 2.2484 1.3142.8158 2.6264 1.6603 4.2064 1.8971z" fill="#979b92"/><path d="m75.8193 118.9525c.1695-.0449.2126-.1619.167-.3155-.6812-2.2922-.0151-4.54.204-6.8063.1957-2.0251.4063-4.0548.1389-6.0939-.0874-.6667-.1421-1.3376-.1564-2.0277.473.4741.9783.8499 1.0556 1.6383.1499 1.5287.4878 3.0414.4568 4.5866-.0262 1.3088-.4693 2.5546-.6538 3.841-.1699 1.1841-.3828 2.3628-.387 3.5658-.0035 1.0218.3485 1.9853.4641 2.9886.1554 1.3484.1596 1.369-1.1476 1.0922-.4338-.0918-.8625-.2128-1.2864-.3436-.2247-.0694-.3458-.2732-.4467-.4745-.2703-.539-.469-1.105-.5769-1.6976-.1338-.7349-.3849-1.4179-.8194-2.0291.5952-.0368.8362.3881 1.0219.8315.322.7686.628 1.5436 1.0137 2.2835.0763.1464.1245.3039.3075.3853.4716.2099.6562.107.6571-.4027.0004-.3405-.008-.6812-.0124-1.0219z" fill="#969a90"/><path d="m65.3558 114.9222c.094.3767-.0305.7073-.2189 1.023-.312.5228-.749.9319-1.2255 1.2957-1.9811 1.5124-4.2818 2.3978-6.5594 3.3284-1.4475.5914-2.9621.917-4.4919 1.2122-1.6621.3207-2.8776-.4013-3.9571-1.5271-.1875-.1955-.3596-.4058-.5388-.6093.356.0001.6507.1942.9693.3103 1.6267.5928 3.2965.5094 4.959.2632 3.1867-.472 6.0082-1.9071 8.7691-3.4638.6806-.3838 1.2482-.95 1.8008-1.5124.1373-.1397.2418-.3489.4934-.3202z" fill="#979c92"/><path d="m96.614 94.4873c-.8604.8655-1.9193 1.405-3.0369 1.8476-.2295.0909-.4709.0988-.709.0638-1.8771-.2765-3.7705-.4548-5.6195-.901-.5281-.1274-1.0428-.3093-1.4034-.7475.0267-.1714.1602-.1453.2435-.1516 1.9522-.1472 3.6742-1.0049 5.4333-1.7491.0762-.0322.1621-.0416.2435-.0616-.0661 1.0389.4688 1.3567 1.7038 1.8522.8331.3342 1.6557.2188 2.4662-.1493.1925-.0876.4544-.3205.6785-.0035z" fill="#979b92"/><path d="m115.3507 35.9286c.116-.3045.4547-.406.6498-.7228-.3352.0698-.5638.24-.7959.4016-.4503.3136-.8995.6415-1.4329.7887-.3708.1023-.7517.1141-.8339-.4265-.0163-.107-.1139-.2048-.1833-.3-.5952-.8168-.8066-1.7658-.935-2.7402-.0286-.2169-.0415-.4607.1871-.6019.2394-.1479.4192.0104.5999.1432.1655.1217.3318.2424.5.3603.2759.1932.5228.3709.3056.7857-.0706.1348-.1633.4491.1084.5343.3085.0967.2281-.272.3669-.3924.3512.2812.7458.3079 1.1686.2145.1135-.0251.2386-.0104.3569.0013.6813.0675 1.1325.362 1.145.7416.0138.4291-.6958 1.142-1.2072 1.2126z" fill="#969a90"/><path d="m63.2942 79.1108c.1468.0654.3874-.0908.4469.124.0414.1497-.1444.272-.265.3501-.6438.4169-1.0238 1.0537-1.4604 1.6541-.6722.9243-1.6532 1.3092-2.7525 1.4921-.9014.1499-1.7775.0877-2.6187-.228-1.1437-.4293-1.3954-1.1685-1.3696-2.2593.0071-.301.1221-.6801.6079-.5045.2497.4671.6039.8189 1.1071 1.008.1068.0401.2022.0612.2405.2177.0962.393.4262.5718.7802.645 1.5189.3141 2.8648-.0101 3.9708-1.145.4387-.4503.8752-.9027 1.3128-1.3542z" fill="#979c92"/><path d="m63.8779 80.8659c.1085.3581-.0304.7261-.189.9773-.8638 1.3688-1.752 2.7248-2.8156 3.9543-.2887.3337-.5992.4267-1.0386.326-.6961-.1596-1.4139-.2293-2.1283-.21-.843.0228-1.6605-.1633-2.4862-.2643-.355-.0434-.674.0513-1.0085.0436-.3661-.0085-.1694.2092-.1482.4013-.3125-.1412-.8076.0749-.764-.5347.8887-.4674 1.7771-.912 2.7621-.2209.1072.0752.2518.0977.38.1418.1473.0506.3171.0287.3202-.1341.0131-.6855.6342-.4608.9618-.6701.6886.2144 1.4023.3306 2.1076.2056 1.0047-.1779 1.7025-.8645 2.3772-1.5815.6854-.7282 1.0542-1.6639 1.6695-2.4343z" fill="#979b92"/><path d="m107.4919 52.6705c0 .5541-.0153 1.0705.003 1.5857.0487 1.3718.4912 2.6898.5779 4.0553.1976 3.1092.1859 6.2194-.2453 9.3075-.2101 1.5049-.6374 2.975-1.1336 4.4172-.147.4272-.4354.774-.6717 1.1499-.0571.0909-.1188.2529-.2654.1382-.1021-.0798-.0042-.1845.0435-.2722.828-1.5229 1.1769-3.2061 1.5449-4.8685.4189-1.8923.3886-3.8383.4884-5.7678.1318-2.5458-.2144-5.0498-.5368-7.5604-.078-.6073-.0494-1.2286-.0637-1.8436-.0026-.1115-.0293-.2469.2588-.3413z" fill="#1d1d1d"/><path d="m54.8527 74.0821c.406-1.2236 1.248-1.9891 2.4944-2.2655.6457-.1432 1.2048.1881 1.7102.5504.1548.111.2324.3451.1835.5607-.0485.2144-.2549.131-.3879.1564-1.5843.3024-2.6792 2.017-2.4019 3.8905-.3065-.2969-.6029-.492-.9839-.4689-.2631-.9755.1467-1.789.6277-2.5827.1029-.1697.2318-.3236.4086-.5673-.6371.0148-1.1692-.0145-1.4345.6181-.0236.0564-.1419.0731-.2162.1083z" fill="#969a90"/><path d="m63.2942 79.1108c-.4376.4514-.8741.9039-1.3129 1.3541-1.106 1.1349-2.4518 1.4591-3.9708 1.145-.3539-.0732-.684-.252-.7802-.645-.0383-.1565-.1337-.1776-.2405-.2177-.5033-.1891-.8574-.5409-1.1071-1.008.0681-.3418.3334-.3465.4689-.1443.8619 1.2855 2.0729 1.0009 3.2846.7928 1.4248-.2448 2.5176-1.1066 3.6382-1.9206.3453-.2508.6832-.5117 1.0268-.7648.118-.0869.2385-.2478.3982-.099.1925.1794-.0061.3497-.1013.4347-.3433.3064-.7228.5721-1.0852.8573-.0799.063-.1462.1433-.2187.2155zm-2.4494 1.3895c-.3842.1009-.6913.1752-.9942.2637-.1522.0444-.2204.1687-.1783.3195.046.1648.1907.1122.2998.0911.3648-.0706.6477-.2571.8727-.6743zm-1.8822.4523c-.1016.012-.2251.0106-.2253.1514-.0003.2081.1802.1691.3033.1883.1118.0175.2057-.0134.1769-.1653-.0275-.1454-.1091-.2053-.2549-.1744z" fill="#101110"/><path d="m59.78 75.6286c.065-.0174.1764-.0194.1882-.0546.2391-.7162.9336-.5898 1.4488-.7859.3013-.1147.6167-.192.9256-.2861.073.3914-.0967.6459-.4493.7974-.4993.1642-.7223.6449-1.0908.9598-.534.4564-1.0513.9231-1.7453 1.1347-.3612.1101-.7787.3235-1.0612.0185-.3599-.3885-.5684-.9034-.4214-1.4703.0529-.2043.0519-.4677.3291-.5328.2963-.0696.7073-.3976.6619.3195-.0176.2787.22.5035.5085.4655.3227-.0425.7012-.105.7136-.5734z" fill="#b8946f"/><path d="m72.6485 116.7242c.0154.9525-.3409.9672-1.1387 1.1165-1.5661.2931-2.9942-.1728-4.4147-.7047-.2942-.1102-.5731-.311-.6307-.6783.626.0517 1.2142.2857 1.8457.3419 1.193.1061 2.3686.165 3.5227-.2498.2865-.1031.6304-.2815.8157.1744z" fill="#979c92"/><path d="m63.8779 80.8659c-.6153.7705-.9841 1.7061-1.6694 2.4344-.6747.717-1.3725 1.4035-2.3772 1.5815-.7053.1249-1.419.0088-2.1076-.2056.0337-.0661.0675-.1322.1013-.1983.2123-.0099.4223-.0037.6193.0907.063.1122.1306.1243.2041.0094 1.796.0207 2.7031-1.2604 3.6286-2.4978.3269-.4371.5872-.9233.8926-1.3773.3052-.4538.6707-.8457 1.2848-1.0539-.2075.4377-.392.8273-.5765 1.2169z" fill="#101110"/><path d="m103.6313 79.3175c-.5017 2.5904-7.9078 10.7169-9.9308 10.887 4.1588-2.96 7.5776-6.4473 9.9308-10.887z" fill="#1d1d1d"/><path d="m62.9524 106.328c-.5594-1.1207-1.1506-2.2189-2.1354-3.0415-.0992-.0829-.2513-.1606-.1043-.3258.1427-.1604.2699-.077.4006.0241.5383.4164.9457.9562 1.2737 1.5322.7082 1.2436 1.3934 2.5033 1.8888 3.8535.0293.0799.0825.1522.0139.2412-.2103.0575-.2795-.1228-.3217-.248-.3583-1.0615-1.3101-1.4662-2.1626-1.9821-.1032-.0624-.3289-.0244-.2592-.2302.0565-.1668.2213-.1897.3886-.1159.2961.1306.5945.2557.8919.3831.0437.0497.0923.1113.1557.0403.0171-.0194-.0186-.0859-.03-.1309z" fill="#171717"/><path d="m57.8249 84.4778c-.0337.0661-.0675.1322-.1013.1983-.3277.2093-.9487-.0154-.9618.6701-.0031.1628-.1729.1847-.3202.1341-.1282-.0441-.2729-.0666-.38-.1418-.985-.6911-1.8734-.2466-2.7621.2209-.3805.2954-.7607.2709-1.1618.0281-.3948-.2389-.8953-.2561-1.326-.5704.2861 0 .5282-.0668.707.0112.9098.3973 1.7233.1196 2.5828-.2124.7949-.3071 1.6572-.334 2.5204-.2968.3937.017.7907-.2479 1.203-.0413z" fill="#171717"/><path d="m60.1778 72.144c-.4216-.222-.8432-.4439-1.3518-.7116 1.71-.4757 3.2036-1.237 4.6525-2.0945.1388.6202-.1593.9496-.7234 1.1306-.3583.115-.6556.3529-.9361.5949-.5014.4327-1.1053.704-1.6412 1.0806z" fill="#969a90"/><path d="m66.1451 89.7954c-.2881.1007-.4109.322-.4246.6089-.0134.2815-.1389.3955-.4179.3182-.5494-.5201-1.2884-.76-1.8529-1.2609-.7558-.6705-1.3451-1.4496-1.6499-2.4241-.0558-.1783-.1523-.4235.0708-.4967.255-.0836.2577.2087.3166.3675.5132 1.3852 1.4303 2.3683 2.8253 2.895.1984.0749.3391.0799.5124-.0588.142-.1137.3245-.2128.501-.2394.316-.0477.251.121.1192.2903z" fill="#101110"/><path d="m108.5491 46.7673c-.0069.6633-.2093 1.2771-.3643 1.9002-.1685.6774-.324 1.3565-.421 2.0483-.0141.1008-.0308.2041-.067.2983-.041.1069-.0867.2527-.2405.2027-.1255-.0407-.0728-.1741-.0653-.2692.077-.9772.3614-1.9086.6483-2.8372.1409-.456.18-.9543.5098-1.3431z" fill="#1d1d1d"/><path d="m105.417 40.8708c-.3402-.4409-.6804-.8817-1.0206-1.3226.0156-.0175.0319-.0343.0488-.0505.0857-.0046.1715-.0091.2572-.0137.2651.2877.5346.5716.7938.8645.1746.1973.3143.4043-.0792.5223z" fill="#969a90"/><path d="m7.3313 75.5248c-.0395-.0399-.0791-.0798-.1186-.1198.4458-.4921.9604-.8936 1.5207-1.2349.0267.0322.0535.0644.0802.0966-.494.4193-.9882.8387-1.4823 1.2581z" fill="#5f6065"/><path d="m76.1384 69.8625c-.2876.4143-.5753.8286-.8629 1.2429-.0388-.0252-.0777-.0504-.1165-.0755.2737-.4397.4855-.9163.8685-1.2907.037.041.074.0821.1109.1233z" fill="#1d1d1d"/><path d="m82.0748 72.9305c.044.0408.088.0816.132.1225-.1372.2409-.2513.5048-.6316.6237.1248-.3403.2999-.5511.4996-.7462z" fill="#5f6065"/><path d="m5.2869 76.8634c-.0833.1065-.1911.1753-.3217.209.0034-.2294.1645-.2163.3217-.209z" fill="#c2c4bc"/><path d="m4.9696 77.0691c-.0833.0993-.1755.186-.3071.2168-.0098-.2312.148-.225.3071-.2168z" fill="#c2c4bc"/><path d="m58.6483 84.578c-.0735.1148-.1411.1027-.2041-.0094.068.0031.1361.0062.2041.0094z" fill="#171717"/><path d="m76.1384 69.8625c-.037-.0411-.0739-.0823-.1108-.1234l.0268-.0359c.0436.0352.0873.0704.1311.1057-.003.0289-.0187.0468-.0471.0536z" fill="#0e0e0e"/><path d="m88.0995 102.1923c-2.9924.2186-5.854-.4097-8.6536-1.3852-.6106-.2127-1.1813-.5374-1.7828-.7795-.2173-.0875-.2127-.2511-.2356-.4076-.1649-1.1286.2475-2.0967.9329-2.9397.6997-.8605 1.6355-1.4471 2.6059-1.9658.1664-.0889.3404-.1769.575-.0856 2.2924.8925 4.6947 1.3414 7.1092 1.7448 1.8549.3099 3.6984.6941 5.5585.9662 3.0825.4508 6.1691.4585 9.2521-.0626 1.5843-.2678 3.1629-.5869 4.7716-.686.1895-.0117.4285-.1126.551.1357.1224.248.0284.4564-.147.6522-.2907.3245-.643.566-1.0225.7642-2.1085 1.1012-4.37 1.7908-6.668 2.331-3.8539.9059-7.7748 1.4045-11.7194 1.714-.3736.0293-.7515.0039-1.1273.0039z" fill="#edeee6"/><path d="m17.7431 74.199c-.1527 1.9767-.7723 3.8287-1.471 5.6664-.4492 1.1814-.7855 2.4058-1.2367 3.5863-.3017.7893-.4851 1.5956-.603 2.4224-.134.9398.1586 1.7813.7653 2.4723 1.2668 1.4428 2.189 3.1299 3.3524 4.6386 1.3852 1.7963 2.5278 3.7583 3.9553 5.5279.8546 1.0594 1.3213 2.3889 1.868 3.6424.1519.3483.338.671.526.994.6794 1.1673 1.0036 2.4594 1.3293 3.7497.0699.2769.1522.4877.4685.5147-.0801.7204-.6234 1.1591-1.4756 1.1819-.1877.005-.377-.0081-.5642-.0268-1.0394-.1037-1.1032-.1685-1.3253-1.1761-.308-1.397-1-2.6488-1.5075-3.9706-1.053-2.7423-2.5071-5.2697-4.0203-7.7728-1.2117-2.0045-2.4576-3.9862-3.8166-5.8925-.4937-.6925-1.0932-1.3145-1.6837-1.931-.2886-.3014-.2865-.5611-.1413-.9122.5481-1.3258 1.1864-2.6158 1.6341-3.9817 1.0427-3.1819 2.1913-6.3373 2.4908-9.7114.0143-.1608-.0822-.4314.1579-.4808.2231-.0459.2617.2297.3783.3637.3127.3596.6136.7297.9193 1.0956z" fill="#c2c4bc"/><path d="m74.133 108.3092c-.7594-.6389-1.47-1.2172-2.1588-1.8206-1.196-1.0475-2.5016-1.9745-3.5487-3.1863-.6208-.7183-1.2273-1.5059-1.3538-2.4383-.1502-1.1073-.2855-2.2671.281-3.3446.1736-.3301.3229-.4295.5729-.0843.0804.111.1776.2398.3321.1081.1552-.1323.0301-.2468-.0532-.3489-.2046-.2506-.3455-.557-.616-.7489-.2147-.1522-.1739-.3622-.1353-.5554.0304-.152.2092-.164.3339-.2031.251-.0786.2659.1635.3421.2932 1.0369 1.7639 2.3826 3.2525 4.0002 4.4982.1969.1516.3193.3265.4134.5614.3558.8881.7264 1.7713 1.1239 2.6416.6637 1.4538.7758 2.9591.4663 4.6279zm-3.1819-7.2631c-.5359-.8992-.9746-1.7531-1.552-2.5202-.1062-.1411-.224-.3688-.4443-.1939-.2069.1643.0144.3092.0968.4334.577.8694 1.1524 1.7395 1.5897 2.6905.3717.8083.6834 1.6401.9485 2.4895.0448.1435.0637.3077.2903.2776.235-.0312.2565-.1803.2441-.3678-.0671-1.0157-.2711-1.9945-.751-2.9045-.1874-.3554-.3119-.288-.4221.0954z" fill="#cf857b"/><path d="m105.7019 92.4717c-.3062-.2156-.4954-.0445-.6873-.0577-.1223-.0084-.2619.1781-.3628-.0008-.0807-.1431-.1667-.3191-.0391-.4814.5412-.6877.923-1.4638 1.9998-1.6185 1.7377-.2498 3.399-.8795 5.0951-1.34.2975-.0808.6882-.3215.8968.0114.2144.3421-.1289.6443-.3608.8773-.7986.8024-1.809 1.2917-2.823 1.7346-2.3677 1.0342-4.8043 1.8782-7.3361 2.4239-.1828.0394-.3688.0642-.5744.0393 1.3288-.6286 2.7831-.9498 4.1918-1.5881z" fill="#eae9e3"/><path d="m104.3964 39.5482c-.7038-.5867-1.5492-.8246-2.4424-.9452 1.0153-.3351 1.7711-.0494 2.4912.8948-.0169.0161-.0332.0329-.0488.0504z" fill="#969a90"/><path d="m27.0972 95.7808c-.3947-.6382-.8757-1.2266-1.1678-1.9242.0368-.0249.0736-.0498.1104-.0747.4176.6312.8353 1.2624 1.2529 1.8937-.0651.0351-.1303.0702-.1955.1052z" fill="#1d1d1d"/><path d="m7.4824 62.6281c-.0309.0116-.0585.0298-.0857.0293-.0156-.0003-.0307-.0309-.046-.0479.0265-.0099.0533-.0276.0795-.0268.0171.0007.0334.0281.0522.0454z" fill="#c2c4bc"/><path d="m29.5331 81.7105c-.3371-.1898-.4708-.5558-.7239-.8239.4014.0942.5907.4425.8631.6877-.0464.0454-.0928.0908-.1392.1362z" fill="#1d1d1d"/><path d="m29.5331 81.7105.1392-.1362c.0937.0674.2263.1453.0809.259-.0988.0773-.1711-.0344-.2201-.1228z" fill="#0e0e0e"/><path d="m61.3552 73.9558c-1.0081.3643-2.0102.627-3.0808.6015.6762-.9559 2.2493-1.3183 3.0808-.6015z" fill="#c2c4bc"/><path d="m59.7877 75.6209c-.2298-.0812-.5009-.0438-.701-.2333.4802-.3145.607-.2685.6933.2409z" fill="#c1c6bd"/><path d="m57.0774 75.3816c.0461.1928.0675.361-.1221.4692-.1347-.2225.0345-.3426.1221-.4692z" fill="#5f6065"/><path d="m57.2863 75.1362c-.0252.0156-.0624.0386-.0996.0617-.0095-.0404-.0291-.0821-.0245-.1209.0025-.021.0453-.051.0714-.0526.0633-.0039.0699.0415.0527.1118z" fill="#5f6065"/><path d="m54.7455 67.0111c-.0393.0254-.0712.0555-.1085.0657-.017.0046-.0447-.0301-.0676-.047.0332-.0263.0639-.0576.101-.0758.0103-.005.0397.0293.0751.0571z" fill="#c1c6bd"/><path d="m57.3867 74.7705c.0075-.0867.0346-.1585.1333-.1762l-.0017-.0017c.0155.0918-.0038.1695-.0896.2201-.0138-.0144-.0278-.0284-.042-.0422z" fill="#5f6065"/><path d="m57.5199 74.5943c.0051-.0144.0074-.0309.0164-.0422.0051-.0066.0209-.0048.0319-.0067-.0167.0157-.0333.0315-.05.0472z" fill="#5f6065"/><path d="m54.8083 66.7911c.0138.0138.0252.0252.0366.0366-.0229.0114-.0448.0268-.069.0322-.0085.0019-.0224-.0207-.0338-.0322.0223-.0123.0447-.0247.0662-.0366z" fill="#c1c6bd"/><path d="m57.4287 74.8126c-.0207.025-.0415.05-.0622.0751-.0613-.0511-.0201-.0838.0206-.1169.0138.0135.0278.0275.0416.0418z" fill="#5f6065"/><path d="m60.8448 80.5003c-.225.4172-.5079.6038-.8727.6743-.1091.0211-.2538.0737-.2998-.0911-.0421-.1509.0261-.2751.1783-.3195.3029-.0885.61-.1629.9942-.2637z" fill="#969a90"/><path d="m58.9622 80.9531c.1462-.0314.2278.0285.2554.1739.0288.1519-.0652.1828-.1769.1653-.1231-.0192-.3036.0198-.3033-.1883.0001-.1408.1236-.1394.2248-.1509z" fill="#969a90"/><path d="m62.9524 106.328c.0114.0449.0471.1115.0299.1308-.0634.071-.112.0094-.1557-.0403.0419-.0301.0839-.0603.1258-.0905z" fill="#c1c6bd"/><path d="m70.9511 101.0461c.1102-.3834.2347-.4508.4221-.0954.4799.91.6839 1.8888.751 2.9045.0124.1875-.0091.3367-.2441.3678-.2266.03-.2455-.1341-.2903-.2776-.2651-.8493-.5769-1.6812-.9485-2.4895-.4373-.951-1.0127-1.8212-1.5897-2.6905-.0824-.1242-.3037-.2691-.0968-.4334.2203-.1749.338.0528.4443.1939.5774.7671 1.016 1.621 1.552 2.5202z" fill="#101110"/></svg>