<svg enable-background="new 0 0 141.8317 141.7802" viewBox="0 0 141.8317 141.7802" xmlns="http://www.w3.org/2000/svg"><path d="m0 70.2162c.1896 19.5131 6.6114 35.9769 19.6372 49.6242 13.0375 13.6596 29.1934 21.0572 48.0787 21.8649 20.2272.865 37.8854-5.764 52.4761-19.8107 13.4938-12.9907 20.769-29.0628 21.5656-47.7922.8595-20.2094-5.7608-37.8526-19.7849-52.436-12.9966-13.5149-29.0835-20.7984-47.8323-21.5927-20.2091-.8562-37.8671 5.7514-52.4289 19.7972-14.3591 13.8502-21.4244 31.0064-21.7115 50.3453z" fill="#fff"/><path d="m0 70.2162c.2871-19.3389 7.3524-36.4951 21.7115-50.3453 14.5618-14.0458 32.2198-20.6534 52.4289-19.7972 18.7487.7943 34.8357 8.0779 47.8323 21.5928 14.0241 14.5834 20.6444 32.2266 19.7849 52.436-.7966 18.7295-8.0718 34.8015-21.5656 47.7922-14.5907 14.0467-32.2489 20.6757-52.4761 19.8107-18.8854-.8076-35.0413-8.2053-48.0787-21.8649-13.0258-13.6474-19.4476-30.1112-19.6372-49.6243zm125.0349-39.233.0046.0065c-.0264-.0438.0662-.1919-.0995-.1136-.5761-1.0756-1.3299-2.0218-2.1343-2.9313-.9034-1.2032-1.9137-2.3178-2.9426-3.4091-2.1952-2.3283-4.5158-4.5297-7.0275-6.5172-3.1136-2.4637-6.4082-4.6615-9.916-6.5251-3.8451-2.0428-7.8486-3.713-12.032-4.9334-.6345-.1851-1.2534-.4577-1.9316-.4737-.4387-.2707-.9386-.3212-1.4311-.3983-.1098-.1463-.2705-.1807-.4385-.2162-1.9665-.4153-3.9349-.8056-5.9345-1.0492-1.8194-.2217-3.6354-.4559-5.4691-.4879-1.3708-.0239-2.7424.0006-4.1136-.0063-1.3154-.0066-2.6319-.0219-3.9419.1112-1.5021.1525-3.0001.3453-4.5017.5038-1.5935.1683-3.1788.3907-4.755.6774-3.2831.5971-6.4855 1.4911-9.6228 2.6242-2.0714.7482-4.1131 1.5695-6.0993 2.5211-2.8094 1.3459-5.5361 2.8386-8.1594 4.5269-3.1195 2.0078-6.004 4.3097-8.7391 6.8041-1.226 1.118-2.4118 2.2764-3.5375 3.5027-1.4477 1.5771-2.8561 3.1847-4.1716 4.8705-3.215 4.1202-5.8233 8.6053-7.9964 13.3539-1.6238 3.5482-2.9293 7.2075-3.9144 10.979-.6127 2.3455-1.0219 4.7314-1.3521 7.136-.2787 2.0292-.5154 4.0661-.5615 6.1036-.0663 2.9211-.1155 5.8472.1562 8.7708.2052 2.2078.4666 4.4028.8285 6.5895.7004 4.2311 1.9614 8.2999 3.5227 12.281 1.0617 2.7071 2.325 5.3221 3.7251 7.8705 1.2862 2.3411 2.672 4.621 4.2585 6.7722 2.5442 3.4498 5.3136 6.6992 8.4715 9.6134 1.2457 1.1495 2.509 2.276 3.8144 3.3539 3.1643 2.6129 6.5897 4.8446 10.1983 6.7859 3.5398 1.9043 7.2177 3.5078 11.0358 4.7755 2.9043.9643 5.8582 1.7458 8.8807 2.2361 1.5799.2563 3.1699.4581 4.7608.6355 1.147.1279 2.2945.2568 3.4473.345 1.0345.0792 2.0617.2302 3.1029.1529.4337.0053.8674.0107 1.3014.016 5.6731.1012 11.2577-.5574 16.756-1.9547.5336-.1411 1.0673-.2822 1.6009-.4233.0509.0048.1054.0239.1522.0124 1.4069-.3464 2.7685-.8358 4.1299-1.3237.2325-.0833.5016-.1176.6668-.3414.4071-.0993.8119-.2042 1.1377-.4916.721-.1716 1.4091-.4241 2.0368-.8258.0863-.033.1727-.0661.259-.0991.0492-.0349.0984-.0698.1477-.1047l-.0055.0008c1.2697-.3198 2.3547-1.0355 3.4962-1.6302.3055-.0581.5621-.2125.799-.4058.3673-.1846.7441-.3526 1.1003-.5564 2.7607-1.58 5.4233-3.3091 7.9424-5.2544 1.7308-1.3366 3.4013-2.7464 4.9862-4.252 2.2214-2.1102 4.3201-4.3399 6.2182-6.7468.5769-.7316 1.2515-1.4043 1.6337-2.2791.4186-.205.5718-.6205.7841-.989.0654-.0779.1371-.1515.1953-.2345 2.9246-4.1688 5.3307-8.6199 7.2419-13.3384 2.2817-5.6334 3.7775-11.4688 4.5102-17.5036.2438-2.0077.3401-4.0249.4922-6.0387-.0009-.2084-.0019-.4169-.0028-.6253-.0379-1.5045.029-3.0075-.0714-4.5153-.0974-1.4632-.1825-2.9257-.3257-4.3862-.2264-2.3081-.5902-4.5958-1.0728-6.8597-1.0686-5.0122-2.6563-9.8616-4.8226-14.5085-1.6289-3.4942-3.5099-6.8523-5.727-10.0126-.2588-.3688-.4282-.8221-.8542-1.0607l.0181-.0015c-.0362-.0359-.0724-.0719-.1085-.108z" fill="#5f6065"/><path d="m70.4193 137.8242c-1.0413.0779-2.0684-.0731-3.1029-.1523-1.1528-.0882-2.3003-.2171-3.4473-.345-1.5909-.1774-3.1809-.3792-4.7608-.6355-3.0225-.4902-5.9764-1.2718-8.8807-2.2361-3.8181-1.2676-7.496-2.8712-11.0358-4.7755-3.6086-1.9413-7.034-4.173-10.1983-6.7859-1.3054-1.0779-2.5687-2.2044-3.8144-3.3539-3.158-2.9141-5.9274-6.1636-8.4715-9.6134-1.5865-2.1512-2.9723-4.4311-4.2585-6.7722-1.4001-2.5484-2.6635-5.1634-3.7251-7.8705-1.5613-3.9811-2.8223-8.0499-3.5227-12.281-.362-2.1868-.6233-4.3817-.8285-6.5895-.2718-2.9234-.2226-5.8495-.1564-8.7706.0462-2.0375.2828-4.0744.5615-6.1036.3303-2.4047.7395-4.7905 1.3521-7.136.9851-3.7715 2.2906-7.4308 3.9144-10.979 2.1732-4.7485 4.7814-9.2336 7.9964-13.3539 1.3155-1.6859 2.7239-3.2935 4.1716-4.8705 1.1257-1.2263 2.3115-2.3847 3.5375-3.5027 2.7351-2.4943 5.6196-4.7963 8.7391-6.8041 2.6232-1.6883 5.35-3.181 8.1594-4.5269 1.9862-.9516 4.0279-1.7729 6.0993-2.5211 3.1374-1.1332 6.3397-2.0271 9.6228-2.6242 1.5762-.2867 3.1615-.5091 4.755-.6774 1.5016-.1585 2.9996-.3513 4.5017-.5038 1.31-.133 2.6265-.1177 3.9419-.1112 1.3712.0068 2.7428-.0177 4.1136.0063 1.8337.032 3.6497.2663 5.4691.4879 1.9996.2436 3.9679.634 5.9345 1.0492.168.0355.3287.0699.4385.2163-.4839.4301-.9789.8367-1.6094 1.0484-1.0167.3414-2.0186.7291-3.0421 1.0482-2.6658.8313-5.2239 1.9686-7.9025 2.7614-1.1909.3525-2.3589.8037-3.6405.7274-.3521-.021-.7154.084-.9482.39-.5996.7883-1.306 1.4719-2.0253 2.1477-1.113 1.0458-2.0883 2.24-3.3796 3.0928-.3274.2162-.3134.6465.0508.7628.4326.1381.2269.2661.0541.4202-.4954.442-1.0107.8627-1.4928 1.3186-1.2383 1.1706-2.4891 2.3282-3.6554 3.5739-.5698.6086-1.1918 1.1682-1.7909 1.7492-.4617.4478-.3708.8703.225 1.0668.1364.045.3127.0047.4135.1862-2.1214 1.7645-3.6161 4.0316-5.061 6.4725-.3739-1.1559-.9665-2.0506-1.546-2.9553-1.4356-2.2413-2.9919-4.3699-5.3735-5.7141-1.6483-.9303-3.3347-1.7871-5.1391-2.3825-.8718-.2877-1.7705-.4699-2.6663-.6681-.8186-.1811-1.4243-.017-1.881.6528-.3271.4797-.6588.9591-.9448 1.4633-.8082 1.4247-1.2811 2.9868-1.8307 4.5192-.7092 1.9775-1.2851 3.9837-1.596 6.0657-.4298 2.8783-.7205 5.7619-.4874 8.6764.2754 3.4438 1.2705 6.6283 3.4606 9.3556.3557.443.5062.7891.3123 1.3569-.953 2.7907-.5192 5.5203.4677 8.207.0696.1894.0774.27-.0847.4116-.7063.6174-1.3812 1.2662-1.9862 1.989-1.2097 1.445-2.2646 2.9935-3.2115 4.621-.5605.9633-.9071 2.0031-1.2207 3.0632-.2132.7208-.1665 1.4965-.488 2.1904-.0863.1864-.2079.3688-.0005.5556.2063.1858.3944.1063.6056-.0085.4831-.2627.9413-.6007 1.5543-.6112-.0149.0935-.0124.1635-.0373.2218-.8018 1.8699-1.3684 3.8042-1.6702 5.8203-.3083 2.0594-.6109 4.1144-.3768 6.2068.026.2321.0815.4082.2968.482.221.0758.3404-.1077.4593-.2485.0761-.0901.1204-.2072.1967-.297.467-.5492.8743-1.1682 1.6518-1.4696-.0285.2456-.0462.4307-.0721.6146-.152 1.08-.2463 2.1615-.1192 3.2521.0869.7454.1989 1.4899.2407 2.2382.0641 1.1459.46 2.2276.5978 3.3574.029.2377.1553.4294.4066.4637.2175.0297.3512-.0977.4979-.2753.2607-.3157.5544-.621.966-.8357.0328.2952.0459.5306.0868.7611.219 1.2328.3734 2.4759.7252 3.6861.1845.6345.1524.6864.7777.4739.9123-.31 1.8632-.3896 2.8056-.4338 1.6915-.0792 3.3829.0007 5.0639.2432.2321.0335.3606.1168.2.304-.5906.6882-.8966 1.5176-1.2613 2.3256-.1093.2423-.1859.4398-.0694.6556.1397.2589.3932.1942.6313.1495 1.3755-.2586 2.7574-.4696 4.1503-.6172.4152-.044.6203.0501.8449.4309.8133 1.3791 1.7927 2.6482 2.7896 3.8989.2359.296.4941.6034.868.7691.3143.1392.6094.0195.5996-.3249-.0121-.4286.2153-.7431.374-1.0956.0965-.2143.1981-.2283.3706-.0533.9228.9363 1.855 1.8633 2.7844 2.7932.1587.1588.3.3291.3774.5442.2655.7372.5256 1.4764.7983 2.2109.5379 1.4489 1.0691 2.8993 1.6929 4.3159.8448 1.9185 1.7901 3.7903 2.8437 5.5941.9363 1.6031 1.7126 3.2493 2.1755 5.041.51 1.974 1.2985 3.8477 2.1158 5.7016.7004 1.589 1.5559 3.11 2.3536 4.6555.5242 1.0153 1.0187 2.0468 1.6183 3.0217z" fill="#e0c345"/><path d="m125.1253 31.0928c.4259.2386.5954.6919.8542 1.0607 2.217 3.1603 4.098 6.5184 5.727 10.0126 2.1663 4.6469 3.7541 9.4963 4.8226 14.5085.4826 2.2638.8465 4.5515 1.0728 6.8597.1432 1.4604.2283 2.923.3257 4.3862.1004 1.5078.0336 3.0109.0715 4.5154-.2178-.0137-.3865.1072-.5742.1915-1.1929.5351-2.1866 1.3862-3.293 2.0576-.7892.4789-1.5327 1.0238-2.2626 1.5869-1.4459 1.1153-2.752 2.4047-4.2669 3.434-.4341.2949-.8311.6531-1.4034.6906-.6306.0414-.7706-.0416-.867-.6641-.2668-1.7239-.4574-3.4567-.6054-5.1946-.0213-.2496.0683-.6858-.2262-.6718-.3062.0145-.0715.4045-.0691.6165.0379 3.3546.5312 6.6782.6851 10.0276.1429 3.1101.3179 6.2057-.5736 9.2438-.2551.8692-.3807 1.7797-.795 2.6499-.1878-.3969-.1236-.7621-.1508-1.1164-.0081-.1055-.0252-.2207-.159-.2165-.0987.0031-.1302.0991-.1333.1889-.0315.9227-.1083 1.8468-.0807 2.7677.0428 1.4326.3336 2.8426.4287 4.2766.1971 2.9728.6416 5.9208 1.1258 8.8607-.3825.8751-1.0571 1.5478-1.634 2.2794-1.8981 2.4069-3.9968 4.6366-6.2182 6.7468-1.5849 1.5055-3.2553 2.9153-4.9862 4.252-2.5191 1.9454-5.1817 3.6745-7.9424 5.2544-.3562.2039-.733.3718-1.1002.5564-1.6078-.628-3.7777.3058-4.5898 1.7465-.0775.1376-.2888.2838-.1066.4925-.6277.4016-1.3159.6542-2.0366.8257.0387-.0951.0684-.1951.1171-.2846 1.1186-2.0561 2.3663-4.0355 3.6119-6.0148.8451-1.3428 1.75-2.6483 2.6394-3.9628 1.1143-1.647 2.0335-3.4008 2.8127-5.2243.4224-.9884.7433-2.0202 1.112-3.0317.0477-.1309.1195-.3017-.0334-.36-.1984-.0757-.1689.137-.2186.2529-.6185 1.4426-1.216 2.8952-1.9521 4.2837-.2958.5579-.6126 1.1048-.9296 1.6511-.1177.2029-.2911.3575-.5486.2808-.2874-.0857-.1785-.3348-.1651-.521.0146-.2028.0568-.4093.1226-.602.7392-2.1629 1.5068-4.3149 2.4167-6.4142.6026-1.3903 1.2449-2.7682 1.5313-4.2734.1142-.6.1948-1.212.3751-1.7924.2851-.9182.4237-1.8615.5778-2.8024.0962-.5875.1331-1.1854.1803-1.7799.0103-.1299-.0443-.4419-.1383-.3391-.3996.4367-.6439-.0424-.9194-.1195-1.0772-.3019-2.1563-.5868-3.214-.9776-2.3239-.8586-4.2402-2.2173-5.7451-4.1755-.2007-.2612-.4485-.4878-.5798-.8294 1.2723-.1814 2.4904-.0995 3.7025.1665.8159.1791 1.6343.3474 2.4536.5105.2166.0431.4664.0852.5998-.1528.1241-.2214.0033-.4207-.1237-.6163-.4035-.6217-.805-1.2441-1.3232-1.7915.0698-.0424.0963-.0725.1231-.0728 2.324-.0228 4.6464-.023 6.8853.7396.3119.1062.4979-.0507.6426-.2765.1408-.2197.1757-.4758.1695-.738-.021-.8861-.0746-1.7698-.2132-2.669.0908.0187.1478.0153.1855.0406.7788.5217 1.1212.3742 1.1751-.5907.0587-1.0504.021-2.1057.0491-3.1583.0224-.8373.0806-1.6736.1246-2.5457.268.3871.5627.6839.7077 1.0703.0854.2275.2334.3246.4678.3116.2364-.0131.3831-.15.4487-.3612.0602-.1939.1057-.3958.1274-.5975.1645-1.5323.119-3.0738.1513-4.6099.0457-2.1733.0204-4.3488-.0347-6.5244-.0645-2.5459-.101-5.0855-.3974-7.6228-.1749-1.4969-.6555-2.796-1.6196-3.936-.2752-.3254-.6093-.5972-.8426-.9621-.0756-.1183-.1642-.2112-.1332-.3633.2032-.9974.3722-1.9952.4374-3.0177.0764-1.1977.1757-2.3858-.1099-3.5673-.114-.4716-.0496-.9033.2078-1.3214.4285-.696.837-1.3967 1.154-2.1617.5029-1.2141.9866-2.4311 1.353-3.693.5409-1.8627.9471-3.7515 1.2194-5.6753.3173-2.2418.43-4.4711.0579-6.7178-.1318-.7961-.4835-1.6318.3832-2.3278.5249-.4215.4752-.4909.9451.0288 1.0695 1.1829 1.8837 2.5541 2.8243 3.8316 1.0733 1.4576 2.1002 2.9524 2.8794 4.5977.0768.1622.1905.2283.3684.2048.1849-.0244.2684-.1448.2947-.3077.0325-.2008.0662-.3988.0403-.6094-.0584-.4747-.1253-.9531-.1221-1.4296.0066-.9936.0564-1.9869.0906-3.0427.5544.3374.9285.7343 1.289 1.142.7816.884 1.463 1.8482 2.1959 2.7699.9172 1.1535 1.5859 2.4233 2.117 3.7785.0894.228.163.4316.4327.3704.2592-.0588.3288-.3077.2758-.5266-.1689-.6974-.2348-1.4127-.4235-2.1082-.4013-1.4795-.8013-2.9618-1.122-4.4601-.3454-1.6137-.9495-3.1281-1.5621-4.6477-.2094-.5192-.5426-.9871-.6444-1.5496z" fill="#92785e"/><path d="m125.1253 31.0928c.1018.5625.4349 1.0304.6442 1.5494.6126 1.5196 1.2167 3.034 1.5621 4.6477.3207 1.4982.7206 2.9806 1.122 4.4601.1886.6955.2546 1.4108.4235 2.1082.053.2189-.0166.4678-.2758.5266-.2697.0612-.3434-.1424-.4327-.3704-.5311-1.3552-1.1998-2.625-2.117-3.7785-.7329-.9217-1.4142-1.8859-2.1959-2.7699-.3605-.4077-.7346-.8046-1.289-1.142-.0341 1.0559-.0839 2.0491-.0906 3.0427-.0032.4765.0637.9549.1221 1.4296.0259.2105-.0078.4086-.0403.6094-.0264.1629-.1098.2833-.2947.3077-.178.0235-.2916-.0426-.3684-.2048-.7793-1.6453-1.8062-3.1401-2.8794-4.5977-.9406-1.2775-1.7549-2.6487-2.8243-3.8316-.4699-.5197-.4202-.4503-.9451-.0288-.8667.6961-.5151 1.5317-.3832 2.3278.3721 2.2467.2594 4.476-.0579 6.7178-.2723 1.9238-.6785 3.8126-1.2194 5.6753-.3664 1.2619-.8501 2.4789-1.353 3.693-.3169.765-.7255 1.4657-1.154 2.1617-.2574.4181-.3218.8498-.2078 1.3214.2856 1.1815.1863 2.3696.1099 3.5673-.0652 1.0225-.2342 2.0203-.4374 3.0177-.031.1522.0575.2451.1332.3633.2333.3649.5674.6367.8426.9621.9641 1.14 1.4447 2.4391 1.6196 3.936.2964 2.5373.3329 5.0769.3974 7.6228.0551 2.1756.0804 4.3511.0347 6.5244-.0323 1.5361.0132 3.0776-.1513 4.6099-.0216.2017-.0672.4036-.1274.5975-.0655.2112-.2123.3481-.4487.3612-.2344.013-.3824-.0841-.4678-.3116-.145-.3865-.4397-.6832-.7077-1.0703-.0441.8721-.1023 1.7084-.1246 2.5457-.0281 1.0526.0096 2.1079-.0491 3.1583-.0539.9649-.3963 1.1124-1.1751.5907-.0377-.0253-.0947-.0218-.1855-.0406.1385.8992.1922 1.783.2132 2.669.0062.2622-.0287.5182-.1695.738-.1447.2258-.3307.3828-.6426.2765-2.2389-.7626-4.5612-.7624-6.8853-.7396-.0268.0003-.0532.0304-.1231.0728.5183.5474.9197 1.1698 1.3232 1.7915.1269.1956.2478.3949.1237.6163-.1334.2381-.3833.1959-.5998.1528-.8193-.163-1.6376-.3314-2.4536-.5105-1.2121-.266-2.4302-.3479-3.7025-.1665.1313.3417.3791.5682.5798.8294 1.5049 1.9582 3.4212 3.3169 5.7451 4.1755 1.0577.3908 2.1368.6757 3.214.9776.2754.0772.5198.5563.9194.1195.094-.1028.1487.2093.1383.3391-.0472.5945-.0841 1.1924-.1803 1.7799-.1541.9408-.2926 1.8842-.5778 2.8024-.1802.5804-.2609 1.1924-.3751 1.7924-.2864 1.5051-.9287 2.8831-1.5313 4.2734-.9099 2.0993-1.6775 4.2512-2.4167 6.4142-.0658.1927-.108.3992-.1226.602-.0134.1862-.1222.4353.1651.521.2575.0768.4308-.0778.5486-.2808.317-.5463.6339-1.0932.9296-1.6511.7361-1.3885 1.3336-2.8411 1.9521-4.2837.0497-.1159.0202-.3286.2186-.2529.1529.0583.0811.2291.0334.36-.3687 1.0115-.6896 2.0432-1.112 3.0317-.7792 1.8235-1.6984 3.5773-2.8127 5.2243-.8894 1.3146-1.7943 2.62-2.6394 3.9628-1.2456 1.9792-2.4933 3.9587-3.6119 6.0148-.0487.0896-.0784.1895-.1171.2846-.3261.2874-.7308.3923-1.1379.4918.0158-.0645.0269-.1308.0482-.1937.3335-.9869.9124-1.8593 1.32-2.8132.131-.3066.0643-.385-.2067-.498-1.5862-.6612-3.1598-1.3515-4.6722-2.1722-.6787-.3683-1.3569-.7376-2.1057-1.1448.0526.6286.2365 1.153.4143 1.6805.0984.2921.1999.639.0078.8822-.1999.2532-.506-.0016-.7662-.0258-.0297-.0027-.0615.0165-.1366.0385.4015 1.9598.8555 3.9143 1.1483 5.8989-.5337.1411-1.0673.2822-1.6011.4234-.2438-.7309-.5784-1.4191-1.0142-2.0528-.2446-.3557-.567-.6674-.9753-.8027-.5961-.1974-1.0136-.5815-1.4196-1.0367-1.3477-1.5111-2.721-2.9995-4.0923-4.4895-.1668-.1812-.2622-.4209-.5361-.5204-1.0673-.3877-2.1248-.8024-3.1862-1.2067-.0327-.0332-.0677-.0713-.1052-.0111-.0055.0089.0313.0441.0485.0672.0429.2148.0808.4307.1304.6439.0293.1257.1516.2789-.0413.3471-.1814.0641-.2426-.0823-.3199-.2363-.4269-.8512-.8189-1.7222-1.4027-2.4872-.142-.1861-.2985-.2829-.519-.2555-1.2775.1587-2.5523.0754-3.8331.0235-1.9061-.0772-3.3909-.8143-4.4665-2.4198-1.8002-2.6871-3.2947-5.5339-4.5275-8.5176-.2377-.5752-.5834-1.0279-1.017-1.4409-.359-.3419-.7228-.6786-1.081-1.0213-.5873-.562-1.1718-1.127-1.7575-1.6907.0856.6536.1765 1.2887.4247 1.8548 1.0413 2.3755 2.1852 4.7022 3.4187 6.9856 1.2744 2.3591 2.4034 4.7865 3.4138 7.273.6295 1.5492 1.1123 3.1498 1.8131 4.6763 1.2983 2.8284 2.7301 5.5819 4.2889 8.2724-.4337-.0053-.8674-.0107-1.3011-.0163-.5996-.9752-1.094-2.0068-1.6181-3.022-.7977-1.5455-1.6532-3.0665-2.3536-4.6555-.8172-1.8539-1.6058-3.7277-2.1158-5.7016-.4629-1.7916-1.2392-3.4378-2.1755-5.041-1.0535-1.8038-1.9989-3.6756-2.8437-5.5941-.6238-1.4166-1.155-2.8671-1.6929-4.3159-.2727-.7345-.5328-1.4737-.7983-2.2109-.0775-.2151-.2187-.3854-.3774-.5442-.9294-.9299-1.8616-1.8568-2.7844-2.7932-.1724-.175-.274-.161-.3706.0533-.1587.3525-.3862.6671-.374 1.0956.0098.3444-.2854.4642-.5996.3249-.3739-.1657-.6321-.4731-.868-.7691-.9969-1.2507-1.9763-2.5198-2.7896-3.8989-.2246-.3808-.4296-.4749-.8449-.4309-1.3929.1475-2.7748.3585-4.1503.6172-.238.0448-.4916.1094-.6313-.1495-.1165-.2158-.04-.4133.0694-.6556.3647-.8081.6706-1.6374 1.2613-2.3256.1606-.1872.0322-.2705-.2-.304-1.681-.2425-3.3724-.3224-5.0639-.2432-.9424.0441-1.8933.1238-2.8056.4338-.6254.2125-.5933.1607-.7777-.4739-.3518-1.2102-.5062-2.4533-.7252-3.6861-.0409-.2304-.054-.4659-.0868-.7611-.4116.2147-.7053.52-.966.8357-.1467.1776-.2803.305-.4979.2753-.2513-.0343-.3776-.226-.4066-.4637-.1377-1.1298-.5336-2.2115-.5978-3.3574-.0419-.7482-.1538-1.4927-.2407-2.2382-.1272-1.0906-.0329-2.1721.1192-3.2521.0259-.184.0435-.3691.0721-.6146-.7775.3015-1.1848.9204-1.6518 1.4696-.0764.0898-.1206.2069-.1967.297-.119.1408-.2383.3243-.4593.2485-.2153-.0738-.2708-.25-.2968-.482-.2341-2.0924.0685-4.1474.3768-6.2068.3018-2.0161.8684-3.9504 1.6702-5.8203.025-.0583.0224-.1283.0373-.2218-.613.0106-1.0711.3485-1.5543.6112-.2111.1148-.3993.1943-.6056.0085-.2074-.1868-.0858-.3692.0005-.5556.3214-.694.2748-1.4696.488-2.1904.3135-1.0601.6602-2.0999 1.2207-3.0632.9469-1.6275 2.0018-3.1759 3.2115-4.621.6051-.7228 1.2799-1.3716 1.9862-1.989.162-.1416.1543-.2222.0847-.4116-.9869-2.6867-1.4207-5.4163-.4677-8.207.1939-.5679.0435-.9139-.3123-1.3569-2.1901-2.7274-3.1852-5.9118-3.4606-9.3556-.2331-2.9145.0576-5.7981.4874-8.6764.3109-2.0821.8868-4.0883 1.596-6.0657.5496-1.5324 1.0225-3.0944 1.8307-4.5192.286-.5043.6178-.9836.9448-1.4633.4566-.6698 1.0623-.8339 1.881-.6528.8959.1982 1.7945.3804 2.6663.6681 1.8044.5954 3.4908 1.4522 5.1391 2.3825 2.3816 1.3442 3.9379 3.4728 5.3735 5.7141.5795.9048 1.1721 1.7994 1.546 2.9553 1.4449-2.4409 2.9395-4.708 5.061-6.4725-.1008-.1815-.2771-.1412-.4135-.1862-.5959-.1965-.6867-.619-.225-1.0668.5991-.581 1.2211-1.1407 1.7909-1.7492 1.1663-1.2457 2.417-2.4033 3.6554-3.5739.4822-.4558.9974-.8765 1.4928-1.3186.1728-.1541.3785-.2821-.0541-.4202-.3642-.1163-.3783-.5465-.0508-.7628 1.2913-.8528 2.2667-2.0471 3.3796-3.0928.7193-.6758 1.4256-1.3594 2.0253-2.1477.2328-.3061.5961-.411.9482-.39 1.2816.0763 2.4496-.3749 3.6405-.7274 2.6786-.7928 5.2367-1.9301 7.9025-2.7614 1.0234-.3191 2.0253-.7067 3.0421-1.0482.6304-.2117 1.1255-.6183 1.6094-1.0484.4926.077.9925.1276 1.431.3982-.3069.2458-.6084.4984-.9212.7362-2.2557 1.7151-4.4515 3.5238-7.1367 4.5691-.6838.2662-1.3507.5836-2.0688.7459-.1864.0421-.4938.151-.5679-.1584-.0695-.2896.2095-.3457.4177-.4217.6899-.2518 1.3914-.4763 2.0665-.7629 1.0071-.4276 1.8939-1.0386 2.662-1.8943-.4561-.0612-.7794.1632-1.127.2788-1.8772.6241-3.8285.9827-5.7057 1.6087-1.3422.4476-2.6782.9094-4.0676 1.217-.8007.1773-1.695.2662-2.2258 1.0718-.1379.2093-.3467.3735-.5306.5504-1.1552 1.1109-2.31 2.2221-3.4718 3.3259-.177.1681-.1723.2834-.015.4663.3895.4529.3591.5774-.0687.9617-2.1985 1.9747-4.5661 3.769-6.4738 6.0548-.1746.2092-.5182.416-.5081.6094.0167.3184.4694.1003.6715.2845.0466.0425.1299.0418.1904.0725.347.1759.4062.4975.0934.7334-.6424.4845-1.1654 1.0952-1.7647 1.619-1.5531 1.3576-2.6191 3.0922-3.7859 4.7481-.1888.268-.463.616-.3041.99.155.3648.2446.7456.3771 1.1144.6442 1.7934 1.3546 3.5643 1.6802 5.4595.0773.4496.1457.9066.259 1.3528.0822.3236.1991.4301.525.2229.7641-.4858 1.5479-.9404 2.3217-1.4111 3.1811-1.9349 6.5196-3.509 10.1519-4.3993.5787-.1418 1.1726-.285 1.7629-.3008.7866-.021 1.5445.2507 2.2696.53 1.076.4144 2.1036.6808 3.2569.1939.5211-.22 1.1513-.4596 1.7411-.2818 1.0445.3149 2.0735.6903 3.0882 1.0926 2.1278.8436 4.2508 1.7006 6.3554 2.5999.4923.2104.6142.0547.7269-.3637.4486-1.6668 1.0581-3.2845 1.6918-4.8824 1.2202-3.0769 2.83-5.9401 4.9767-8.4923 1.0244-1.218 2.0529-2.4235 3.2485-3.4749 1.9273-1.6948 4.0881-3.0326 6.4165-4.0976.6179-.2826 1.2763-.48 1.9239-.6931.484-.1593.941.0486 1.1542.426.4477.7925.9737 1.5332 1.3909 2.3511 1.1662 2.2863 2.1721 4.6369 3.0436 7.0446.6115 1.6897 1.3334 3.3491 1.6166 5.1443.0146.0926.0657.222.1363.2542.1371.0626.2074-.0879.2759-.1749.1893-.2407.373-.4825.5256-.7541.2131-.3795.5986-.3595.8324.0052.0553.0862.1086.1762.1777.2507 1.6575 1.7894 2.8378 3.926 4.2719 5.878.4773.6498.8863 1.3498 1.4091 2.1538-.1594-1.368.1232-2.5675.0498-3.7778-.016-.2638-.1675-.643.1565-.7999.3576-.1731.6832.0923.9982.2535.0585.0299.0986.0943.1502.1393 1.1157.9726 1.9589 2.174 2.83 3.3537.5313.7195 1.104 1.4084 1.5636 2.2419.1447-.2335.0768-.3875.043-.5177-.4833-1.8645-.8037-3.7746-1.4536-5.5911-.4364-1.2198-.8745-2.443-1.4808-3.5999-.6895-1.3159-1.3178-2.6638-1.9726-3.9978.8044.9094 1.5581 1.8557 2.1343 2.9313.0332.0379.0663.0757.0995.1135l-.0046-.0064c.0075.0649.0247.12.1086.1081zm-87.605-5.7701-.0056.0091c.3249-.4367.4224-1.0319.9336-1.3386.2107-.1677.4468-.2553.7158-.1939 1.3189.3008 2.5994.7057 3.7656 1.4141 1.1382.6914 2.2222 1.461 3.2714 2.2797.9948.7763 1.9809 1.5708 2.7683 2.5634 1.4311 1.8039 2.469 3.8295 3.3473 5.954.6369 1.5407 1.0528 3.1311 1.3104 4.7645.2499 1.5849.2632 3.1737.1371 4.7847-.0585.7466-.3818.8402-.9118.9705-.8772.2156-1.7453.4661-2.5093.9791-1.1331.7608-2.0495 1.7447-2.9024 2.7966-.0939.1158-.1078.2201-.1176.365-.0273.4018-.3973.3978-.6567.4068-.2555.0089-.2491-.2512-.1805-.4328.1217-.3222-.0544-.34-.295-.3448-.5998-.0118-1.1859.0525-1.7683.2087-.2513.0674-.3543.1973-.4469.4247-.7911 1.9415-1.5444 3.8966-2.6561 5.6947-1.2789 2.0687-2.2713 4.3239-4.3372 5.8296-.5404.3939-.988.9855-1.4511 1.5106-1.4169 1.6068-2.6062 3.3815-3.7266 5.1987-.651 1.0559-1.2985 2.1367-1.3127 3.4465-.0098.0241-.0196.0481-.0293.0722.0224-.0113.0448-.0227.0673-.034.0774-.0323.1612-.0544.2311-.0985.8182-.5156 1.7496-.7669 2.6339-1.1274.1902-.0775.3503-.0206.4876.161.1082.1431.1802.2995.054.4092-.4358.3788-.5572.9306-.8122 1.4055-.9331 1.7382-1.5656 3.5881-2.0253 5.5042-.2551 1.0637-.4172 2.1431-.5415 3.2233-.0857.7443-.2406 1.503-.1051 2.3229.5537-.4706 1.087-.865 1.6592-1.2014.2488-.1463.5408-.2627.8118-.1199.2721.1434.1453.4432.1039.6556-.2675 1.3705-.1526 2.7532-.1634 4.1318-.0101 1.2892.3208 2.5351.4827 3.8025.0587.4591.2185.3346.4721.1622.6571-.4467 1.1067-.9714 1.3925-1.7809.8155-2.31 1.841-4.5375 3.0278-6.6905.7102-1.2884 1.4528-2.5476 2.3728-3.6958.3125-.39.6803-.8449 1.2063-.7684.9758.1419 1.9651.1791 2.9316.4006 1.261.289 2.5208.5943 3.8162.7006.4042.0331.5221.2171.3258.5739-.3692.6711-.7743 1.3224-1.144 1.9933-.405.735-.8109 1.4877-.7567 2.358.0685 1.1014-.065 2.1732-.3287 3.2359-.2504 1.0088-.5036 2.0169-.7563 3.0251-.0555.2216-.1346.4788.1914.5285.5187.0791 1.0433.1301 1.5673.1623 1.1017.0679 2.2121.021 3.2955.3015.7514.1946.9098.0622.9558-.7177.1051-1.7794.6892-3.4322 1.3572-5.0611.4104-1.0007 1.0685-1.867 1.5452-2.8331.4001-.8108 1.0578-1.1307 1.9806-1.06 1.7182.1316 3.424.3376 5.1161.6759 1.6195.3237 3.261.5551 4.7455 1.3456.1808.0963.3041-.0082.4135-.1003 1.0076-.8474 2.2677-1.3257 3.2389-2.2297.2447-.2277.6217-.0963.6974.2051.041.1634.0225.341.0392.5113.1754 1.7867.4956 3.5434 1.0195 5.2648.1069.3513.2883.5124.6085.576 1.2924.257 2.5659.6184 3.8916.6907 1.723.0941 3.4474.0664 5.17.0232 1.1586-.0291 2.2927-.2658 3.4038-.6063.2536-.0777.3495-.1883.2464-.4417-.4496-1.1049-.5449-2.2878-.7175-3.4481-.1326-.8913-.3791-1.7715-.3448-2.686.0058-.1544-.0362-.359.1437-.3902.1892-.0329.1536.1849.1834.3059.3663 1.4889.6898 2.9897 1.1057 4.4645.3154 1.1187.7472 2.2045 1.1273 3.305.1669.3796.1266.8466.4067 1.1674.6759.7739 1.1993 1.6537 1.7926 2.4848.7888 1.1049 1.1133 2.3519.8782 3.6697-.2127 1.1919-.6847 2.2767-2.1388 2.4274-.1906.0198-.1326.1154-.1306.2387.0072.4441.0534.9011-.0307 1.3306-.227 1.1586-.7798 2.1571-1.6459 2.9714-.6131.5764-1.3546.9456-2.0947 1.3251-.4389.2251-.8794.4893-.9178 1.0745-.0829 1.2606 1.0109 2.6558 2.2333 2.9972.9177.2563 1.8014.1606 2.6768-.0636 1.1365-.2911 2.1732-.814 3.1248-1.5642-.1119-.0903-.1724-.1515-.2439-.1944-.2002-.12-.4469-.1962-.4132-.5074.0344-.3181.2882-.3254.5189-.3912.6755-.1927 1.2903-.5131 1.8622-.9204.0855-.0609.1667-.1007.1795-.2227.0732-.7001.1527-1.3995.2415-2.2033-.4888.3987-.8853.74-1.3482.9884-.4832.2593-.9634.3354-1.4441.0124-.3122-.2098-.2924-.5496.0551-.6928.4647-.1915.8569-.4976 1.2648-.772.8328-.5602 1.4594-1.238 1.1863-2.3787-.0947-.3953-.2014-.4757-.4986-.1777-.5247.526-1.1994.7642-1.8904.9595-.2312.0653-.5074.0294-.6272-.1798-.1262-.2204.1026-.3768.2687-.4829.6825-.436 1.1906-1.0344 1.5041-1.7623.3854-.8948.6689-1.803.1541-2.7861-.4281-.8176-.9209-1.5922-1.3999-2.3764-.6845-1.1205-1.1343-2.3665-1.8702-3.4581-.0616-.4555-.1266-.9105-.183-1.3666-.0222-.1798.007-.3765.2026-.4236.2561-.0617.2228.1695.2735.3265.1127.3487.1573.7316.4321 1.0161.0426-.0314.0822-.0448.0895-.0682.3941-1.2563.414-2.5715.5564-3.8632.0381-.3451.1384-.4814.3855-.6125.8909-.4729 1.7855-.9391 2.6719-1.4204 1.3807-.7497 2.7476-1.5252 4.2059-2.1218.3568-.146.6816-.1525.9083.1879.5374.8066 1.2075 1.4727 2.0037 2.0221.2023.1395.2914.3306.2165.6196-.0918.3542-.2632.6701-.4048.995-.4234.9713-.4414 2.0308-.7239 3.0288-.1212.4282-.005.4836.3708.3544 1.4203-.4882 2.8758-.8559 4.322-1.2557.171-.0473.3484-.1172.39-.3553.2734-1.5648.721-3.0888 1.1818-4.6035.2176-.7154.0895-1.3302-.1195-1.9899-.4597-1.4512-1.261-2.7606-1.7175-4.2133-.1563-.4972-.0394-.7848.4811-.8549.9639-.1297 1.9339-.1764 2.9069-.2063.4998-.0153.7245.1958.9384.6061.7076 1.3574 1.4568 2.6931 2.1874 4.0386.5861 1.0793 1.2565 2.1122 1.7688 3.2325.1159.2535.2756.487.4329.7605.1502-.2044.0902-.3768.0929-.5364.0231-1.3869-.2014-2.7688-.115-4.1553.1217-1.9545.4007-3.9002.4025-5.8609.0022-2.4521.1364-4.9024-.5687-7.3213-.5541-1.9008-1.6547-3.4165-2.9886-4.7635-1.0073-1.0172-2.0063-2.0349-2.9318-3.1254-.9638-1.1355-1.7667-2.3928-2.6705-3.5697-.9095-1.1843-1.8585-2.3324-2.6438-3.6082-.2394-.3889-.5714-.7209-.8993-1.1262-.1263.5476.0851.9343.295 1.3265.1123.2099.1423.4364-.0915.5921-.2248.1497-.3889-.0203-.5429-.1507-.0745-.0632-.1217-.1606-.1751-.2464-.6014-.964-1.1339-1.98-1.8168-2.8822-1.29-1.7041-2.9654-2.9571-4.92-3.8282-.5278-.2353-.7421-.587-.7054-1.162.0649-1.0159.1622-2.021.3945-3.0213.2887-1.2432.4147-2.5239.699-3.7683.6789-2.9717 2.0333-5.6612 3.711-8.1718 1.785-2.6711 4.0085-4.9647 6.5544-6.9277.9442-.728 1.9425-1.3897 2.9455-2.036.5555-.358 1.1442-.3673 1.4685.3717.2251.5131.4726 1.0165.6966 1.5301.8672 1.9889 1.6294 4.014 2.2 6.1118.8568 3.1502 1.2581 6.3561 1.2606 9.6156.0002.3048-.0888.6123-.0686.914.0963 1.4355-.1264 2.8471-.2961 4.262-.1323 1.1031-.458 2.1697-.6618 3.2594-.3176 1.6982-1.1478 3.2032-1.7886 4.7785-.1264.3109-.4259.4917-.7614.1622-.1385-.4633.2566-.7188.43-1.0505.9669-1.8485 1.5059-3.8371 1.9108-5.8623.4866-2.4344.5973-4.9081.4816-7.3791-.0773-1.6496-.2102-3.2986-.6463-4.9187-.7272-2.7013-1.4202-5.4108-2.5665-7.9724-.3949-.8823-.76-1.7858-1.3146-2.5919-.195-.2834-.3956-.3502-.6819-.1449-1.0653.7638-2.2733 1.3646-3.1755 2.3121-1.7055 1.7909-3.5668 3.4512-4.9248 5.5533-1.0765 1.6663-2.1165 3.3458-2.7995 5.2283-.7562 2.0845-1.1864 4.2437-1.5264 6.4196-.162 1.0365-.2954 2.094-.2099 3.1528.0279.3454.116.7097.4557.9001 1.8355 1.0286 3.5075 2.2375 4.6362 4.0725.2112.3433.4587.6682.8392.9521-.0454-.5755-.0437-1.0921-.019-1.6103.0692-1.4498.1178-2.9006.1758-4.351.0071-.1774-.0012-.3175-.2075-.4125-.4623-.2129-.8885-.4986-1.3708-.6762-.3623-.1334-.3835-.4207-.1309-.6345.7097-.6005 1.1291-1.4443 1.7997-2.0732.2062-.1934.1636-.3864-.0349-.5672-.3034-.2764-.6074-.5524-.9016-.8385-.2361-.2296-.316-.4826-.0591-.759.4052-.436.7857-.8978 1.217-1.3061.5233-.4955.7504-1.0774.6943-1.7871-.0267-.3388.0298-.6818-.0766-1.0176-.0619-.1956-.0066-.4034.1741-.4929.9722-.4816 1.5841-1.326 2.2038-2.16.622-.8372 1.1392-1.7413 1.6409-2.6542.0615-.1119.1029-.298.2798-.2251.1418.0585.0653.2037.033.3169-.0327.1145-.0423.2388-.0917.345-.5486 1.1792-1.1609 2.3211-1.9768 3.343-.094.1177-.2526.2922-.2205.3843.1743.4998-.0106.9831-.018 1.4712-.0268 1.7596-.0662 3.5211.1083 5.2734.103 1.0336.1457 2.0721.3243 3.1035.1207.697.2759 1.4029-.2338 2.1389-.8625 1.2455-1.2422 2.7244-1.5002 4.2093-.092.5294-.22 1.1642.0531 1.6162.6556 1.085 1.4578 2.0801 2.1661 3.1348.9581 1.4268 2.1689 2.6572 3.1143 4.097.421.6411.8705 1.304 1.5675 1.7148.372.5601.9077.9667 1.3658 1.4457.1804.1886.2577-.0069.3155-.1524.4251-1.0692.6905-2.1867.6014-3.3285-.0907-1.1636-.2151-2.3307-.4428-3.482-.0689-.3484-.017-.6685.2153-1.0079.2857-.4176.709-.6862.9906-1.0834.7993-1.1273 1.2542-2.4156 1.6575-3.7215.5243-1.6979.9371-3.4195 1.2087-5.1802.1994-1.2925.2898-2.5832.1978-3.8803-.1654-2.3319-.5013-4.6425-1.0064-6.9261-.3898-1.7627-.834-3.5107-1.5469-5.1769-.3088-.7215-.6459-1.4311-.9465-2.156-.8017-1.9331-1.5569-3.8864-2.8286-5.584-.372-.4966-.5066-.5539-1.0973-.357-2.0441.6815-3.8687 1.7673-5.627 2.987-1.4297.9918-2.6091 2.2525-3.8048 3.4944-1.8679 1.9401-3.2882 4.2046-4.4765 6.594-1.1511 2.3146-1.9267 4.7884-2.4962 7.3104-.2739 1.213-.639 2.4104-.7676 3.656-.0311.3008-.2831.4579-.5375.4279-.3336-.0394-.2666-.3096-.2073-.5609.0582-.2465.025-.5193.1068-.7545.1175-.3376.0173-.4828-.2951-.6289-1.1112-.5197-2.1973-1.0933-3.3105-1.6086-1.766-.8174-3.4802-1.7652-5.3884-2.2393-.761-.1891-1.5289-.33-2.3215-.3154-.6298.0116-.9393.4427-1.3037.8566-.2527.2871.0248.4696.0269.6997.0014.1565.0265.3339-.136.4119-.1959.094-.3293-.0828-.4219-.2006-.2834-.3603-.5434-.74-.7965-1.1227-.0901-.1362-.1683-.2502-.3492-.2561-.3708-.0122-.6943-.191-1.0155-.3408-1.0202-.4759-2.1125-.5181-3.1937-.4875-.9206.0261-1.7803.386-2.6499.7065-1.6347.6026-3.2692 1.211-4.7914 2.0501-1.4899.8212-3.0543 1.5009-4.4883 2.4335-.6871.4468-1.3763.8771-1.9674 1.4437-.1574.1509-.2605.2882-.5136.208-.2548-.0807-.3453-.2235-.3631-.482-.0965-1.3976-.2484-2.7858-.7064-4.1235-.913-2.666-1.7048-5.3773-3.1083-7.8516-1.9557-3.4477-4.5134-6.2463-8.2459-7.8188-1.3405-.5647-2.6794-1.1247-4.143-1.2836-.4309-.0468-.8297-.1207-1.2477.2123-1.1572.9221-1.7492 2.2116-2.3925 3.4703-.6789 1.3284-1.0309 2.7718-1.4064 4.2046-.2247.8576-.4531 1.7143-.6693 2.574-.4005 1.5925-.5695 3.2225-.714 4.8508-.1955 2.2025-.185 4.4046.2922 6.5805.4175 1.9038.9872 3.7547 2.0114 5.4319.4327.7086.7945 1.4707 1.4829 1.9993.3438.264.3766.6408.2566 1.0527-.3959 1.3589-.4524 2.7533-.3629 4.1531.0756 1.1828.1939 2.3624.6602 3.4752.1855.4427.2841.4727.622.1135.574-.6104 1.0113-1.3257 1.5124-1.992.4617-.6948.9898-1.3551 1.3718-2.0912.9027-1.7396 1.7214-3.5221 2.4254-5.3535.2731-.7103.7547-1.3718.5498-2.2048-.0238-.097-.002-.2044-.0086-.3065-.1097-1.6914-.4988-3.3337-.8865-4.9753-.0413-.1747-.0763-.3334-.0059-.4956.6086-1.4028 1.208-2.8103 1.9287-4.1609.2236-.419.3165-.8618.3013-1.329-.0197-.6085-.0595-1.2165-.0753-1.825-.0083-.3193-.136-.5398-.4046-.7183-.6786-.4511-1.2325-1.0284-1.6183-1.7508-.4096-.7669-.7976-1.5453-1.209-2.3112-.0608-.1133-.0788-.2093.0165-.2614.1485-.0811.2116.0815.2641.1665.3398.5497.6601 1.1113.9979 1.6622.7051 1.1499 1.556 2.1532 2.9716 2.3819.5138.083.6014.3052.6045.74.0065.9046.0377 1.8063.4201 2.6596.103.23.2351.4856.1056.7798-.3564.8095-.6922 1.6282-1.0366 2.443-.3922.928-.2576 1.1807.7493 1.3931.1333.0281.2753.0202.4056.0566.1964.0549.4009.1082.575.209.304.176.2865.487.0154.7051-.4236.3408-.8535.6742-1.1717 1.1329-.1231.1775-.1575.3125-.0801.5059.4753 1.1884.6604 2.4276.6319 3.7027-.0188.2124-.0362.4247.0367.6426.1928-.081.2254-.2477.3211-.3611.8707-1.0328 1.814-1.9836 3.0699-2.5429.4318-.1923.9063-.2865 1.3527-.4493.1334-.0486.3809-.0066.3458-.2809.0781-.1162.1211-.2415.1229-.3843.0177-1.397.2491-2.7867.1095-4.1902-.1083-1.0888-.2568-2.1638-.5433-3.2254-.3303-1.2237-.8357-2.376-1.3007-3.5469-.7217-1.8174-1.7919-3.4044-3.1539-4.7975-.9725-.9948-2.1003-1.8036-3.2109-2.6321-1.4526-1.0836-3.0345-1.9019-4.7891-2.3768-.2294-.0621-.3878-.0474-.5011.1969-.1792.3862-.4035.7517-.5787 1.1395-1.2453 2.7566-2.0111 5.6528-2.576 8.6177-.5552 2.9136-.9783 5.8371-.8517 8.8071.0826 1.9389.8267 3.6315 2.1581 5.0708.4121.4454.7795.9457 1.0708 1.4916.1198.2245.1057.3849-.1234.5095-.2679-.0305-.4003-.2302-.5492-.4216-.4292-.5514-.8475-1.1136-1.3094-1.6368-.6096-.6906-.9663-1.5197-1.3412-2.3365-.6973-1.5194-.6031-3.1648-.6964-4.7763-.0774-1.3364.1299-2.6552.2935-3.9768.3194-2.5795.8574-5.112 1.5579-7.6137.2565-.9161.6318-1.7971.7999-2.7386.251-.5233.4896-1.0506.5208-1.6437zm28.8959 76.5173c-.1085.7928-.0595 1.5034.3345 2.1314.5512.8787 1.3118 1.5525 2.2185 2.0581.2115.118.5278.1543.4508.5098-.0727.3357-.408.2371-.6237.3349-.0549.0249-.1345-.0102-.2022-.0063-.1099.0063-.255-.0772-.3186.0621-.0591.1295.0628.2227.1381.3097.233.2691.4667.5384.7137.7946 1.0957 1.1365 2.4389 1.8785 3.9308 2.3277 1.1204.3373 2.2907.4235 3.4616.4463.7002.0136 1.4241.0175 2.0611-.2411 1.2324-.5001 1.746-1.5833 1.8709-2.8285.0556-.554.023-1.1981-.6604-1.4679-.6719-.2653-1.3454-.5307-2.0314-.7556-1.0059-.3298-1.9952-.6909-2.8255-1.3693-1.1668-.9532-2.0988-2.097-2.7379-3.4709-.0743-.1598-.1243-.3414-.3597-.3903-1.3129-.2728-1.9448-1.307-2.0908-2.5041-.149-1.2214.3013-2.3543.6111-3.496.3292-1.2131.7056-2.4021.585-3.6872-.0629-.6697-.0405-1.347-.0724-2.0201-.0791-1.6689-.2975-3.3228-.5461-4.9735-.0475-.3153-.142-.2409-.3501-.1063-.969.6268-1.7259 1.551-2.8736 1.9441-.3515.1204-.596.1446-.898-.0041-.1826-.0899-.3577-.1884-.5522-.2622-1.3472-.511-2.7471-.8074-4.1642-1.0155-1.5688-.2303-3.1391-.4932-4.7359-.3823-.3686.0256-.8058-.0348-1.0597.2737-.4845.5886-.9877 1.1862-1.3382 1.8559-.9384 1.7931-1.5715 3.6878-1.6476 5.7405-.0447 1.2055-.4971 1.6105-1.5641 1.4477-1.4975-.2284-3.0027-.3597-4.5161-.4075-.611-.0193-1.2222-.038-1.8325-.0719-.1832-.0102-.3254-.1186-.3483-.3193-.019-.1665.0139-.318.2229-.3324.1791-.0124.1385-.1596.1803-.2615.6838-1.668.9933-3.4303 1.2985-5.1922.0961-.5547.0963-1.1141.0197-1.6797-.0755-.5575-.1065-1.1377.2079-1.6444.4341-.6996.6843-1.4751.995-2.2273.1436-.3477.137-.5281-.2847-.5942-1.5144-.2375-3.0079-.6237-4.5483-.6703-.4504-.0136-.8417.0657-1.1769.5233-.7052.9626-1.3625 1.9573-2.0318 2.942-.8044 1.1835-1.4368 2.4674-2.0442 3.7673-.3837.821-.6746 1.6721-1.0134 2.5063-.4263 1.0497-.8031 2.1082-.6231 3.2961.1883 1.2426.3117 2.4934.7032 3.6969.0646.1986.1968.1498.3267.1339 1.3742-.1675 2.7515-.2406 4.1356-.1572 1.4793.0891 2.9679.0676 4.427.3871.1599.035.4022-.0268.4372.1821.0417.2488-.0115.516-.2094.7104-.6244.6133-.9488 1.3931-1.2905 2.275 3.8551-.5451 7.6412-1.1728 11.4662-.8296-.0208-.6892-.4215-1.0873-.8243-1.4833-.1987-.1953-.1815-.4116-.0093-.5891.1091-.1124.3486-.2637.4435-.1052.1974.3301.5653.4279.793.6945.7453.873 1.7213 1.4887 2.5344 2.287.4085.4011 1.0036.6731.8067 1.4146-.0159.06.0153.1353.0333.2012.7163 2.6281 1.4757 5.2417 2.3276 7.8314.8814 2.6794 1.9704 5.2576 3.3276 7.7263.6466 1.1762 1.3555 2.3144 2.0693 3.4508.7453 1.1864 1.7369 1.9917 3.1587 2.1658 1.8533.2269 3.6975.3179 5.5787.1666 1.9312-.1553 3.7643-.567 5.5489-1.2677.4906-.1926.9885-.4194 1.1099-1.0221.0932-.4628.1631-.9303.2465-1.3951.3918-2.1826.4201-4.4048.7196-6.5977.0777-.5689.0561-1.1483.2043-1.7121.0768-.2924-.133-.3884-.3877-.4089-.5458-.0438-1.0865.3706-1.2024.9209-.1243.5898-.1879 1.1821-.1308 1.7867.1103 1.1665.3489 2.3133.1359 3.5116-.1862 1.0476-.7514 1.7731-1.5122 2.4195-.1177.1-.23.1196-.3767.0758-.8819-.2636-1.7921-.2544-2.6999-.2736-2.5852-.0548-5.0998.5995-7.6637.7672-.3831.025-.7011-.0187-1.0238-.2068-1.566-.9131-2.3288-2.3992-2.7314-4.0602-.1821-.7512-.4203-1.4576-.6978-2.1716-.5784-1.4882-.8866-3.0393-1.0976-4.6296-.2803-2.1118-.454-4.2217-.4796-6.3495-.0101-.838-.0762-1.6772-.1566-2.5119-.2833-2.9402-1.3638-5.627-2.6007-8.2745-.7505-1.6063-.8334-3.28-.156-4.9775-.2951-.0133-.6003.0666-.8538.2809-.2406.2033-.5264.2891-.7176.0406-.2278-.2962.0595-.4857.2888-.637 1.5208-1.0028 3.0623-.4187 4.1735.8287.0934.1049.2345.2302.1024.4033-.1511.1981-.3191.0668-.4562-.0058-.4528-.2399-.9047-.4843-1.3385-.7563-.3956-.248-.5947-.0922-.7046.2902-.1794.6245-.2347 1.2855-.1136 1.9013.2401 1.2201.6961 2.3707 1.3435 3.4511 1.1353 1.8948 2.6289 3.5035 4.0291 5.1882.087.1047.1841.2605.3185.1686.237-.1623.444-.1016.5875.0715.1655.1997-.0944.3679-.1394.5572-.0328.138-.1957.2398-.2575.3772-.191.4241-.3818.8138-.1125 1.3265.5082.9675 1.1498 1.8031 1.9972 2.4885.152.1229.482.1461.3535.4645-.1292.3201-.4291.3031-.7022.2693-.2014-.0249-.406-.0762-.5932-.1541-.6384-.2662-1.1321-.7422-1.7171-1.2261zm22.2934 26.541c-.2115-.8407-.3581-1.5551-.5808-2.245-.0912-.2824-.2044-.5235.0527-.7336.2369-.1935.507-.0415.7151.0681.4063.2141.7752.4979 1.17.7356 1.5382.9262 3.2996 1.3735 4.8591 2.2558.1199.0678.2266.0752.375-.0081 1.0426-.5853 1.9794-1.2999 2.7992-2.1719.2113-.2248.1965-.3548-.1128-.3872-.2996-.0314-.5486-.1492-.6057-.4434-.0615-.3167.2438-.408.4549-.5389.5486-.3402 1.0228-.7524 1.3518-1.3497-.3369-.0437-.5885.124-.8606.1981-.1938.0528-.3602.0868-.4709-.1408-.095-.1953-.0908-.3901.0745-.5141.7626-.5722 1.2808-1.3549 1.8387-2.102 1.0674-1.4295 2.2082-2.8076 2.9615-4.451.9921-2.1644 2.1749-4.2425 2.9071-6.5235.6729-2.096 1.1341-4.2442 1.6088-6.3897.0792-.3582-.0508-.526-.4065-.6415-1.3251-.43-2.7088-.667-3.9779-1.2879-.9963-.4875-2.0071-.9336-2.9079-1.5972-1.3601-1.002-2.4669-2.2471-3.5018-3.565-.1179-.1501-.2189-.286-.4495-.2779-.942.0332-1.8768.1191-2.7995.3174-.1605.0345-.311.0742-.2482.2958.0973.3434.1967.6862.2895 1.0307.2081.7728.5059 1.5355.5988 2.3222.1835 1.5541.1856 3.1212.0649 4.6868-.0833 1.0803-.2723 2.0911-1.2883 2.7292-.1021.0641-.1582.2215-.207.3468-.1758.4513-.5262.7411-.8988 1.0168-.8185.6056-1.756.9467-2.7072 1.2778-1.1841.4123-2.3899.7591-3.6395.7297-.5596-.0131-.6679.2447-.705.6135-.1482 1.4741-.3921 2.9368-.485 4.4179-.0939 1.4976-.1522 3.0009-.4006 4.4839-.1023.6109-.3162 1.1363-.9381 1.4906-.465.2649-.9749.4166-1.5155.6903 2.4902 1.9476 4.8073 3.9989 7.5855 5.6614zm16.0301-51.5281c.6011 1.0726.9207 2.189 1.2498 3.2945.2061.6922.5137 1.3774.2406 2.1674-.3777 1.0926-.6061 2.2325-.8812 3.3571-.1868.7636-.3013 1.5388-.4754 2.3033-.118.5179-.3917.7944-.9371.8017-.4137.0055-.8028.1526-1.1906.2785-1.3111.4255-2.6178.8644-3.9272 1.2949-.245.0805-.491.0116-.6668-.1397-.1582-.1362-.1074-.3502-.0478-.5586.4024-1.408.6012-2.8689 1.1063-4.2512.1228-.336.1106-.626-.227-.8819-.2778-.2106-.4714-.5284-.7252-.7753-.9158-.8911-.9197-.888-2.1245-.4071-.1586.0633-.315.1326-.4692.206-1.525.7255-2.9496 1.6335-4.4139 2.4676-.2557.1457-.7349.2279-.6754.7536.1062.9387-.1745 1.8544-.2345 2.7863-.0702 1.0902-.1191 2.0926.5381 3.0548.4637.6789.7851 1.4549 1.1753 2.1975.2372-.1491.3107-.3847.4192-.5914.1032-.1966.2661-.2883.4583-.2068.2102.0891.1403.28.0724.4425-.1248.2988-.2235.6138-.3874.8897-.1809.3043-.0046.3561.2046.3064.4259-.1013.8524-.0291 1.2775-.0633 1.2561-.1011 2.519-.1116 3.7762-.1452 1.5819-.0423 3.1642.1764 4.7683.4306-.1113-.264-.2368-.4596-.3911-.6474-.2953-.3596-.6629-.6381-1.0006-.9502-.147-.1359-.2218-.2972-.1605-.5069.0634-.2166.255-.2342.4105-.2296 1.0175.0297 2.0347-.0422 3.0538.053 1.4242.1331 2.8647.1088 4.2633.4716.2966.077.4046-.0377.3871-.3356-.0591-1.0056-.1371-2.01-.3789-2.9898-.0674-.2731-.0761-.5013.1231-.6939.2207-.2135.4771-.133.7062-.009.3089.1671.6049.3583.9568.5694.0335-.2943.0692-.5236.0844-.7542.1404-2.1183.0004-4.2298-.1681-6.3399-.0298-.3726-.0895-.7442-.2574-1.0901-.8876-1.8294-1.9467-3.5648-2.9174-5.3487-.0822-.1511-.1632-.2465-.3529-.2071-.7288.1512-1.4578-.0471-2.2617-.0035zm-28.5111 23.7176c-.5264-.8618-1.2482-1.4277-2.2222-1.6627-.3609-.0871-.5806.0251-.5869.4118-.0039.2442-.0864.4454-.2721.5817-.2577.1893-.1976.3898-.0816.6196.5298 1.049 1.2065 1.995 2.1117 2.7429.8221.6793 1.7511 1.1938 2.829 1.3536.8092.12 1.6224.1895 2.442.2382 1.1792.0701 2.3027-.1378 3.4124-.4522.4283-.1214.8239-.3672 1.184-.6778 1.1299-.9746 1.6107-2.2721 1.9716-3.6565.1062-.4074-.0642-.6563-.3147-.871-.1691-.1449-.3781-.2737-.4748-.4583-.2914-.5559-.7727-.4995-1.2739-.4938-.5925.0067-.9468.3791-1.358.7211-.2803.2331-.3917.3687-.1433.6893.2021.2608.348.479.6697.1491.1478-.1516.3194-.0591.4672.0383.1125.0741.1413.1737.1083.3108-.1146.4753-.9528.8462-1.3389.5546-.4094-.3092-.7335-.6865-.9003-1.2075-.2928-.9142.0786-1.6539.5725-2.3425.8615-1.2011 2.3694-1.1475 3.1027-.2201.2015.2549.2477.5578.3595.841.2117.5363.7868.9662 1.2145.9048.9721-.1396 1.7447-1.4332 1.491-2.4855-.3833-1.59-1.1715-2.9311-2.4383-3.9769-.2368-.1955-.3767-.4194-.4028-.7338-.0443-.5329-.2257-1.0263-.4749-1.5003-.0834-.1587-.1748-.2316-.309-.1219-.6942.5674-1.553.4912-2.3465.5386-1.7191.1027-3.4455.0526-5.1618-.0986-.4298-.0379-.8442.0428-1.2678.002-1.0981-.1058-2.2024-.3013-3.2992-.0615-.4347.095-.9677.0748-1.1975.6244-.6464 1.5463-1.1041 3.1472-1.4535 4.7844-.149.6981-.1911 1.4037-.081 2.0915.1038.6482.4773 1.1984 1.0144 1.6076.2367.1803.5327.2091.7798.1041.2429-.1031.1278-.3913.1376-.6009.0317-.6792.3355-1.1657.9674-1.443 1.5525-.6812 3.5929.7488 3.6542 2.5458.0176.5155-.1323.9221-.5936 1.1494-.4376.2156-.893.1872-1.3221-.0678-.1381-.0821-.2704-.1601-.1712-.3601.0792-.1595.1875-.1651.339-.1106.2096.075.4258.0792.6574-.0013zm-11.151.4258c-.1176.7151.014 1.5942.1805 2.4726.2605 1.3747.5167 2.7553.9593 4.0812.5234 1.5676 1.5276 2.8409 2.6931 3.9936 1.0671 1.0553 1.75 2.3117 2.0067 3.8042.2097 1.2192 1.3749 1.7424 2.4272 1.142.4403-.2512.843-.5667 1.3598-.6919.8319-.2016 1.6522-.0364 2.4768.003.3573.0171.7262.1119.9897-.2327.2686-.3512.4502-.7389.6183-1.1556.2731-.6769.1241-1.3931.3333-2.0682.115-.3713-.1561-.7521-.4107-.6843-1.1169.2972-2.2384.1838-3.3566.0368-1.817-.2389-3.6032-.657-5.1437-1.6734-1.9298-1.2733-3.3642-2.992-4.0629-5.2452-.4983-1.607-.7008-3.2375-.3788-4.9132.0632-.3289.0986-.6825-.0102-1.0187-.0577-.1784-.1328-.4252-.3252-.4157-.1798.0088-.246.2351-.2889.4356-.1385.6479-.0496 1.2988-.0677 2.1299zm-15.6585-.7923c.7299 1.5834 1.854 2.7915 2.8209 4.2013.2099-.5672.3954-1.0227.5449-1.4897.0878-.2744.2232-.4364.5225-.474.2934-.0369.3203.2282.419.3659.9617 1.3405 2.2262 2.3912 3.3736 3.5525.6319.6395 1.4146 1.1041 2.0609 1.737.5076.4971 1.0988.909 1.6434 1.3511.0979-.0975.0746-.1649.0499-.2277-.4567-1.1589-.835-2.345-1.1967-3.5354-.3905-1.2851-.763-2.5762-1.1097-3.8736-.1247-.4666-1.0027-1.4331-1.4825-1.5119-2.517-.4142-5.0406-.28-7.6462-.0955zm20.8603 18.7568c.2552-.0259.5127-.0378.7653-.08 1.5523-.259 3.0932-.5992 4.668-.6996 1.4847-.0946 2.9762-.227 4.4134.3335.1165.0454.2861.0724.3384-.0228.2262-.4124.6696-.6483.8037-1.1525.2356-.886.184-1.7579.0731-2.6453-.0358-.2864.05-.6661-.3027-.7295-.3663-.0659-.4623.3321-.6021.5943-.0462.0866-.0378.2005-.0663.2985-.2187.7529-.4465 1.5038-.8475 2.1845-.1535.2605-.3651.4452-.7095.4097-2.4334-.2507-4.8115.1252-7.183.618-.6475.1345-1.3027.2928-1.9823.1562-.3841-.0773-.5451-.2556-.5366-.6625.0171-.8212.0011-1.6443-.1052-2.4613-.0416-.3197-.1542-.6205-.4997-.7083-.3622-.092-.6232.1236-.8337.3879-.1284.1613-.2096.3517-.2386.5609-.0611.4401-.1328.8789-.1852 1.3201-.0474.3996.2679.8321.6887.9333.1091.0262.1594.0413.2134.155.4248.8944 1.1742 1.2319 2.1284 1.2099zm13.4711-9.1497c-.2154-.3057-.5773-.4579-.7948-.7704-.5356-.7698-.5747-1.6563-.6679-2.5355-.0313-.2954.1871-.6581-.0937-.8737-.2757-.2117-.6211.0822-.9445.0179-.2313-.046-.2821.0562-.2385.2904.2579 1.3873.192 2.7381-.5941 4.0611 1.1535-.2244 2.237-.0907 3.3335-.1898zm28.694-25.1836c.0106-.0105.0318-.0233.03-.0311-.0059-.0268-.0198-.0518-.0307-.0775-.0103.0108-.0307.0237-.029.032.0056.0266.0193.0515.0297.0766zm-51.5097 24.8659c-.0111-.0105-.0226-.0294-.0334-.029-.0109.0003-.0211.0198-.0317.0309.0166.0103.0331.0206.0497.0309.0051-.011.0103-.0219.0154-.0328zm22.605-100.7006-.0189.028.032.0032z" fill="#0b0b0b"/><path d="m122.8057 27.9448c.6549 1.334 1.2831 2.682 1.9726 3.9978.6062 1.1569 1.0444 2.3801 1.4808 3.5999.6499 1.8165.9703 3.7267 1.4536 5.5911.0337.1302.1017.2842-.043.5177-.4596-.8335-1.0322-1.5224-1.5636-2.2419-.8712-1.1797-1.7143-2.3811-2.83-3.3537-.0516-.045-.0917-.1093-.1502-.1393-.3149-.1613-.6406-.4266-.9982-.2535-.3241.1569-.1725.5361-.1565.7999.0734 1.2103-.2092 2.4098-.0498 3.7778-.5228-.804-.9318-1.504-1.4091-2.1538-1.434-1.952-2.6144-4.0886-4.2719-5.878-.069-.0745-.1224-.1645-.1777-.2507-.2338-.3648-.6193-.3847-.8324-.0052-.1526.2716-.3363.5135-.5256.7541-.0684.087-.1387.2375-.2759.1749-.0706-.0322-.1217-.1616-.1363-.2542-.2832-1.7952-1.0051-3.4546-1.6166-5.1443-.8714-2.4077-1.8774-4.7583-3.0436-7.0446-.4172-.8179-.9432-1.5586-1.3909-2.3511-.2132-.3774-.6702-.5853-1.1542-.426-.6475.2131-1.306.4105-1.9239.6931-2.3284 1.0649-4.4892 2.4028-6.4165 4.0976-1.1957 1.0514-2.2241 2.2569-3.2485 3.4749-2.1467 2.5522-3.7564 5.4154-4.9767 8.4923-.6337 1.5978-1.2432 3.2156-1.6918 4.8824-.1126.4184-.2346.5741-.7269.3637-2.1046-.8993-4.2277-1.7563-6.3554-2.5999-1.0148-.4023-2.0438-.7776-3.0882-1.0926-.5898-.1778-1.22.0618-1.7411.2818-1.1533.4869-2.1809.2205-3.2569-.1939-.725-.2792-1.483-.551-2.2696-.53-.5903.0158-1.1842.159-1.7629.3008-3.6323.8903-6.9708 2.4644-10.1519 4.3993-.7738.4707-1.5577.9252-2.3217 1.4111-.3259.2072-.4428.1008-.525-.2229-.1133-.4461-.1818-.9031-.259-1.3528-.3257-1.8952-1.036-3.6661-1.6802-5.4595-.1325-.3689-.2221-.7496-.3771-1.1144-.1589-.374.1153-.722.3041-.99 1.1668-1.6559 2.2328-3.3905 3.7859-4.7481.5992-.5238 1.1222-1.1346 1.7647-1.619.3127-.2358.2536-.5575-.0934-.7334-.0606-.0307-.1438-.03-.1904-.0725-.2021-.1842-.6547.0339-.6715-.2845-.0102-.1934.3335-.4002.5081-.6094 1.9078-2.2858 4.2753-4.0801 6.4738-6.0548.4278-.3843.4582-.5088.0687-.9617-.1573-.183-.162-.2982.015-.4663 1.1619-1.1038 2.3167-2.2151 3.4718-3.3259.184-.1769.3927-.3412.5306-.5504.5307-.8056 1.4251-.8945 2.2258-1.0718 1.3894-.3076 2.7253-.7694 4.0676-1.217 1.8772-.626 3.8285-.9846 5.7057-1.6087.3476-.1156.671-.34 1.127-.2788-.7682.8557-1.6549 1.4667-2.662 1.8943-.6751.2866-1.3767.5111-2.0665.7629-.2082.076-.4872.132-.4177.4217.0742.3093.3815.2005.5679.1584.7181-.1624 1.385-.4798 2.0688-.7459 2.6852-1.0453 4.881-2.8539 7.1367-4.5691.3128-.2378.6144-.4904.9212-.7362.6782.0161 1.2972.2886 1.9317.4737 4.1833 1.2203 8.1869 2.8906 12.032 4.9334 3.5077 1.8636 6.8024 4.0613 9.916 6.5251 2.5117 1.9875 4.8323 4.1889 7.0275 6.5172 1.0289 1.0912 2.0393 2.2058 2.9427 3.4089zm-49.8052-3.6423c.0745-.1491.1006-.2317.1503-.2963.7394-.9617 1.4459-1.9511 2.3032-2.8156.7421-.7483 1.4291-1.5586 2.3374-2.1243.1235-.0769.1457-.1797.0972-.3085-.0641-.1699-.1601-.2982-.3596-.3219-.1785-.0212-.3684.0509-.5475-.057.8234-1.3397 2.0912-2.2836 3.1261-3.5501-.1632.0228-.2229.0134-.2574.0385-1.3643.9933-2.4797 2.2542-3.6723 3.4315-.2363.2333-.1834.4539.1672.5485.1702.0459.339.0973.6618.1904-.2667.2116-.4528.3365-.6123.4893-1.0117.9697-1.9875 1.9704-2.8777 3.0584-.5941.7261-1.1106 1.5203-1.8057 2.1614-.1314.1212-.1317.2017-.0258.3403.1745.2285.3458.2049.5775.0855.7969-.4107 1.6631-.557 2.577-.6083-.4358.4129-.7687.912-1.2114 1.2956-1.0265.8894-1.899 1.9135-2.7281 2.9796-.1569.2017-.2962.4183-.4296.6366-.064.1047-.0866.2432.0238.3297.1168.0915.2299.0144.3146-.0768.1862-.2008.3781-.3981.5461-.6137 1.2782-1.6409 2.7546-3.0893 4.3249-4.4445.1723-.1487.4135-.2412.3084-.5055-.102-.2567-.3402-.376-.6224-.3669-.3108.01-.6023.1116-.896.2031-.4535.1411-.9014.3141-1.4697.301z" fill="#7a4931"/><path d="m138.0019 73.0611c-.1521 2.0138-.2484 4.031-.4922 6.0387-.7327 6.0348-2.2285 11.8702-4.5102 17.5036-1.9111 4.7185-4.3172 9.1696-7.2419 13.3384-.0582.083-.1299.1565-.1953.2345-.1457-.6118-.3313-1.2174-.4285-1.8368-.1849-1.178-.3275-2.3629-.4729-3.5468-.26-2.1173-.436-4.2419-.3148-6.3756.0573-1.0085.473-1.954.6497-2.9446.4012-2.2497 1.1617-4.4244 1.0735-6.775-.097-2.5862-.1019-5.1721-.5467-7.7766.597.0476 1.201.0729 1.734-.2604 1.1598-.7253 2.183-1.6299 3.2265-2.5049.7802-.6542 1.5453-1.3224 2.3542-1.9454 1.0343-.7967 2.214-1.3571 3.2549-2.1422.568-.4287 1.1869-.8362 1.9097-1.0069z" fill="#ebe6cd"/><path d="m77.2531 125.7771c1.0611.4047 2.1186.8194 3.1859 1.2071.2739.0995.3693.3391.5361.5204 1.3712 1.49 2.7446 2.9783 4.0923 4.4895.406.4553.8236.8393 1.4196 1.0367.4083.1353.7307.447.9753.8027.4358.6337.7704 1.3219 1.0142 2.0528-5.4982 1.3972-11.0827 2.0558-16.756 1.9546-1.559-2.6905-2.9908-5.444-4.2891-8.2724-.7007-1.5266-1.1835-3.1272-1.8131-4.6763-1.0104-2.4865-2.1395-4.9139-3.4138-7.273-1.2335-2.2834-2.3774-4.6101-3.4187-6.9856-.2482-.5661-.3391-1.2012-.4247-1.8548.5857.5637 1.1702 1.1287 1.7575 1.6907.3582.3427.7221.6795 1.081 1.0213.4336.413.7794.8657 1.017 1.4409 1.2328 2.9837 2.7274 5.8305 4.5275 8.5176 1.0756 1.6055 2.5603 2.3427 4.4665 2.4198 1.2808.0519 2.5556.1352 3.8331-.0235.2205-.0274.377.0695.519.2555.5838.765.9758 1.6361 1.4027 2.4872.0773.154.1385.3004.3199.2363.1929-.0682.0705-.2214.0413-.3471-.0496-.2132-.0876-.4291-.1304-.6439.0193-.0184.0383-.0373.0569-.0565z" fill="#92775f"/><path d="m138.0019 73.0611c-.7228.1707-1.3417.5782-1.9098 1.0067-1.041.7851-2.2207 1.3455-3.2549 2.1422-.8088.6231-1.574 1.2912-2.3542 1.9454-1.0435.875-2.0667 1.7796-3.2265 2.5049-.533.3333-1.137.308-1.734.2604.4448 2.6045.4497 5.1905.5467 7.7766.0882 2.3506-.6723 4.5252-1.0735 6.775-.1766.9906-.5924 1.9361-.6497 2.9446-.1212 2.1336.0549 4.2583.3148 6.3756.1454 1.1839.2879 2.3688.4729 3.5468.0972.6194.2828 1.225.4285 1.8368-.2124.3685-.3655.784-.7839.9888-.4841-2.9401-.9285-5.8881-1.1257-8.8609-.0951-1.434-.3859-2.844-.4287-4.2766-.0275-.921.0493-1.8451.0807-2.7677.0031-.0898.0346-.1858.1333-.1889.1339-.0042.151.111.159.2165.0271.3543-.037.7195.1508 1.1164.4143-.8701.5399-1.7807.795-2.6499.8915-3.0381.7165-6.1337.5736-9.2438-.1539-3.3494-.6472-6.673-.6851-10.0276-.0024-.2121-.2371-.602.0691-.6165.2945-.014.2049.4222.2262.6718.148 1.7379.3386 3.4707.6054 5.1946.0963.6225.2363.7054.867.6641.5722-.0375.9693-.3957 1.4034-.6906 1.5149-1.0293 2.821-2.3187 4.2669-3.434.7299-.563 1.4735-1.108 2.2626-1.5869 1.1064-.6714 2.1001-1.5225 3.293-2.0576.1877-.0842.3564-.2052.5742-.1915.001.2084.0019.4169.0029.6253z" fill="#0d0d0d"/><path d="m90.0776 135.4629c-.2928-1.9846-.7468-3.9391-1.1483-5.8989.0751-.022.1069-.0412.1366-.0385.2602.0242.5664.279.7662.0258.192-.2433.0906-.5902-.0078-.8822-.1778-.5275-.3616-1.0519-.4143-1.6805.7489.4072 1.427.7765 2.1057 1.1448 1.5124.8207 3.086 1.511 4.6722 2.1722.2709.1129.3377.1914.2067.498-.4075.9539-.9864 1.8263-1.32 2.8132-.0212.0629-.0323.1292-.0482.1937-.1652.2236-.4343.2579-.6668.3412-1.3614.4879-2.723.9773-4.1299 1.3237-.0467.0114-.1011-.0077-.1521-.0125z" fill="#e0c345"/><path d="m98.2011 132.4928c-.1822-.2087.0291-.355.1066-.4925.8121-1.4407 2.982-2.3745 4.5898-1.7465-.237.1933-.4936.3477-.799.4058-1.4718-.1137-2.6041.5006-3.4962 1.6302l.0055-.0008c-.0492.0349-.0984.0698-.1476.1048-.0864.033-.1727.066-.2591.099z" fill="#0d0d0d"/><path d="m98.6022 132.2898c.8921-1.1296 2.0245-1.7439 3.4962-1.6302-1.1415.5947-2.2265 1.3104-3.4962 1.6302z" fill="#92775f"/><path d="m125.0395 30.9897c-.0332-.0378-.0663-.0757-.0995-.1135.1657-.0784.0731.0697.0995.1135z" fill="#92785e"/><path d="m98.4601 132.3938c.0492-.0349.0984-.0698.1476-.1048-.0491.0349-.0983.0698-.1476.1048z" fill="#92775f"/><path d="m125.1434 31.0914c-.0839.0119-.1011-.0432-.1086-.1081.0362.036.0724.072.1086.1081z" fill="#92785e"/><path d="m39.4476 58.0239c-.5011.6664-.9384 1.3817-1.5124 1.992-.3378.3592-.4365.3292-.622-.1135-.4662-1.1128-.5845-2.2924-.6602-3.4752-.0895-1.3998-.033-2.7942.3629-4.1531.12-.4119.0872-.7887-.2566-1.0527-.6885-.5286-1.0502-1.2907-1.4829-1.9993-1.0243-1.6772-1.5939-3.5281-2.0114-5.4319-.4772-2.1759-.4877-4.378-.2922-6.5805.1445-1.6283.3136-3.2583.714-4.8508.2162-.8597.4446-1.7164.6693-2.574.3755-1.4329.7276-2.8763 1.4064-4.2046.6433-1.2588 1.2353-2.5482 2.3925-3.4703.4179-.333.8167-.2591 1.2477-.2123 1.4636.1589 2.8025.7189 4.143 1.2836 3.7325 1.5724 6.2902 4.371 8.2459 7.8188 1.4035 2.4743 2.1953 5.1856 3.1083 7.8516.4581 1.3376.61 2.7259.7064 4.1235.0178.2585.1084.4012.3631.482.2532.0802.3563-.0571.5136-.208.5911-.5666 1.2803-.9969 1.9674-1.4437 1.4341-.9326 2.9985-1.6122 4.4883-2.4335 1.5222-.839 3.1567-1.4475 4.7914-2.0501.8696-.3206 1.7293-.6804 2.6499-.7065 1.0812-.0307 2.1735.0116 3.1937.4875.3212.1498.6446.3286 1.0155.3408.1809.006.2591.12.3492.2561.2532.3827.5131.7623.7965 1.1227.0926.1178.2261.2946.4219.2006.1625-.078.1374-.2554.136-.4119-.0021-.2301-.2796-.4126-.0269-.6997.3644-.4139.6739-.845 1.3037-.8566.7925-.0146 1.5605.1263 2.3215.3154 1.9082.4741 3.6223 1.4219 5.3884 2.2393 1.1132.5152 2.1993 1.0889 3.3105 1.6086.3124.1461.4126.2912.2951.6289-.0819.2352-.0486.508-.1068.7545-.0593.2513-.1263.5215.2073.5609.2543.03.5064-.127.5375-.4279.1286-1.2456.4937-2.443.7676-3.656.5695-2.522 1.3451-4.9958 2.4962-7.3104 1.1882-2.3894 2.6086-4.654 4.4765-6.594 1.1957-1.2419 2.375-2.5026 3.8048-3.4944 1.7583-1.2197 3.5829-2.3055 5.627-2.987.5908-.1969.7253-.1396 1.0973.357 1.2717 1.6976 2.0269 3.6509 2.8286 5.584.3006.7248.6377 1.4344.9465 2.156.713 1.6662 1.1571 3.4141 1.5469 5.1769.505 2.2837.8409 4.5943 1.0064 6.9261.092 1.2971.0016 2.5879-.1978 3.8803-.2716 1.7608-.6844 3.4824-1.2087 5.1802-.4033 1.306-.8582 2.5942-1.6575 3.7215-.2816.3971-.7048.6658-.9906 1.0834-.2322.3394-.2842.6595-.2153 1.0079.2277 1.1512.3521 2.3184.4428 3.482.089 1.1418-.1764 2.2593-.6014 3.3285-.0578.1455-.1351.3411-.3155.1524-.458-.4791-.9938-.8857-1.3661-1.4455-.1193-.6035-.1933-1.1966-.0513-1.8203.2729-1.1989.3642-2.4056.2481-3.6496-.0856-.9169-.2069-1.8797.1847-2.7841.3355.3295.635.1486.7614-.1622.6408-1.5753 1.471-3.0803 1.7886-4.7785.2038-1.0897.5295-2.1563.6618-3.2594.1697-1.4149.3924-2.8265.2961-4.262-.0202-.3017.0688-.6092.0686-.914-.0026-3.2595-.4039-6.4654-1.2606-9.6156-.5706-2.0979-1.3329-4.1229-2.2-6.1118-.224-.5136-.4715-1.017-.6966-1.5301-.3242-.739-.913-.7296-1.4685-.3717-1.003.6463-2.0013 1.308-2.9455 2.036-2.5458 1.963-4.7694 4.2566-6.5544 6.9277-1.6778 2.5106-3.0321 5.2001-3.711 8.1718-.2843 1.2444-.4104 2.5252-.699 3.7683-.2322 1.0003-.3296 2.0053-.3945 3.0213-.0367.575.1776.9267.7054 1.162 1.9545.8711 3.63 2.1241 4.92 3.8282.6829.9022 1.2154 1.9182 1.8168 2.8822.0535.0857.1006.1832.1751.2464.154.1305.3181.3004.5429.1507.2338-.1557.2039-.3823.0915-.5921-.2099-.3922-.4212-.7789-.295-1.3265.3278.4053.6599.7372.8993 1.1262.7852 1.2758 1.7343 2.4239 2.6438 3.6082.9039 1.1769 1.7067 2.4342 2.6705 3.5697.9255 1.0904 1.9245 2.1082 2.9318 3.1254 1.3339 1.347 2.4345 2.8627 2.9886 4.7635.7051 2.4189.5709 4.8691.5687 7.3213-.0018 1.9607-.2807 3.9064-.4025 5.8609-.0864 1.3865.1382 2.7683.115 4.1553-.0027.1596.0573.332-.0929.5364-.1573-.2736-.317-.507-.4329-.7605-.5123-1.1203-1.1827-2.1532-1.7688-3.2325-.7306-1.3455-1.4798-2.6812-2.1874-4.0386-.2139-.4103-.4386-.6214-.9384-.6061-.973.0299-1.943.0766-2.9069.2063-.5205.0701-.6374.3577-.4811.8549.4565 1.4526 1.2578 2.7621 1.7175 4.2133.209.6597.3371 1.2746.1195 1.9899-.4608 1.5147-.9084 3.0387-1.1818 4.6035-.0416.2381-.2189.308-.39.3553-1.4462.3998-2.9017.7676-4.322 1.2557-.3757.1291-.492.0738-.3708-.3544.2824-.9981.3005-2.0575.7239-3.0288.1416-.3249.313-.6408.4048-.995.0749-.289-.0142-.48-.2165-.6196-.7963-.5494-1.4664-1.2154-2.0037-2.0221-.2267-.3404-.5516-.3338-.9083-.1879-1.4583.5966-2.8252 1.3721-4.2059 2.1218-.8864.4813-1.7809.9475-2.6719 1.4204-.2471.1311-.3475.2674-.3855.6125-.1424 1.2917-.1623 2.6069-.5564 3.8632-.0074.0234-.0469.0368-.0895.0682-.2748-.2845-.3194-.6674-.4321-1.0161-.0507-.157-.0174-.3883-.2735-.3265-.1956.0471-.2248.2439-.2026.4236.0563.4561.1214.9111.1829 1.3665-.2974.011-.5707-.093-.8111-.2409-.265-.163-.5204-.3063-.8421-.2719-.38-1.1005-.8119-2.1863-1.1273-3.305-.4158-1.4748-.7393-2.9756-1.1057-4.4645-.0298-.121.0057-.3388-.1834-.3059-.1799.0313-.1379.2358-.1437.3902-.0344.9145.2121 1.7947.3448 2.686.1727 1.1603.268 2.3432.7175 3.4481.1031.2535.0072.364-.2464.4417-1.1111.3405-2.2452.5772-3.4038.6063-1.7226.0433-3.447.0709-5.17-.0232-1.3257-.0724-2.5992-.4338-3.8916-.6907-.3202-.0637-.5016-.2247-.6085-.576-.5239-1.7214-.8441-3.4781-1.0195-5.2648-.0167-.1703.0018-.3479-.0392-.5113-.0756-.3014-.4527-.4328-.6974-.2051-.9712.9041-2.2313 1.3823-3.2389 2.2297-.1094.092-.2327.1965-.4135.1003-1.4845-.7905-3.126-1.0219-4.7455-1.3456-1.6921-.3383-3.3979-.5442-5.1161-.6759-.9228-.0707-1.5805.2493-1.9806 1.06-.4767.966-1.1348 1.8324-1.5452 2.8331-.668 1.6289-1.252 3.2817-1.3572 5.0611-.0461.78-.2044.9123-.9558.7177-1.0834-.2806-2.1938-.2337-3.2955-.3015-.524-.0323-1.0486-.0832-1.5673-.1623-.326-.0497-.247-.3069-.1914-.5285.2527-1.0082.5059-2.0163.7563-3.0251.2637-1.0627.3972-2.1346.3287-3.2359-.0541-.8703.3518-1.623.7567-2.358.3696-.6709.7747-1.3222 1.144-1.9933.1963-.3567.0784-.5407-.3258-.5739-1.2954-.1062-2.5552-.4116-3.8162-.7006-.9665-.2215-1.9559-.2587-2.9316-.4006-.526-.0765-.8939.3785-1.2063.7684-.92 1.1482-1.6626 2.4074-2.3728 3.6958-1.1868 2.153-2.2122 4.3805-3.0278 6.6905-.2858.8095-.7354 1.3342-1.3925 1.7809-.2536.1724-.4135.2969-.4721-.1622-.1619-1.2674-.4928-2.5133-.4827-3.8025.0108-1.3785-.1041-2.7612.1634-4.1318.0415-.2125.1683-.5122-.1039-.6556-.271-.1429-.563-.0264-.8118.1199-.5722.3364-1.1055.7308-1.6592 1.2014-.1354-.82.0194-1.5786.1051-2.3229.1244-1.0801.2864-2.1596.5415-3.2233.4597-1.9162 1.0922-3.7661 2.0253-5.5042.2549-.4749.3763-1.0267.8122-1.4055.1262-.1097.0542-.2662-.054-.4092-.1373-.1816-.2974-.2386-.4876-.161-.8843.3605-1.8157.6118-2.6339 1.1274-.0699.0441-.1537.0662-.2311.0985-.0125-.0133-.0253-.0263-.0386-.0388.0148-1.3091.6623-2.39 1.3133-3.4458 1.1205-1.8172 2.3097-3.5919 3.7266-5.1987.4631-.5251.9107-1.1167 1.4511-1.5106 2.0659-1.5057 3.0584-3.761 4.3372-5.8296 1.1116-1.7981 1.865-3.7532 2.6561-5.6947.0926-.2274.1957-.3574.4469-.4247.5824-.1561 1.1685-.2205 1.7683-.2087.2407.0048.4167.0226.295.3448-.0686.1817-.075.4418.1805.4328.2594-.0091.6295-.0051.6567-.4068.0098-.1449.0237-.2492.1176-.365.8529-1.0519 1.7693-2.0358 2.9024-2.7966.7639-.513 1.6321-.7635 2.5093-.9791.53-.1303.8533-.2239.9118-.9705.1261-1.6109.1128-3.1998-.1371-4.7847-.2576-1.6335-.6734-3.2238-1.3104-4.7645-.8783-2.1245-1.9162-4.1501-3.3473-5.954-.7875-.9926-1.7736-1.7871-2.7683-2.5634-1.0491-.8187-2.1332-1.5884-3.2714-2.2797-1.1662-.7084-2.4466-1.1132-3.7656-1.4141-.269-.0614-.5051.0262-.7159.1939-.2124-.2917.0616-.4179.2002-.5911.0778-.0972.1535-.2107.012-.3017-.0965-.0621-.2161-.0116-.2636.0842-.3448.6945-.804 1.3431-.8821 2.1473l.0056-.0091c-.353.491-.4373 1.0672-.5213 1.6435-.1681.9414-.5434 1.8225-.7999 2.7386-.7005 2.5017-1.2385 5.0342-1.5579 7.6137-.1637 1.3216-.3709 2.6404-.2935 3.9768.0933 1.6115-.0009 3.257.6964 4.7763.3749.8168.7316 1.6459 1.3412 2.3365.4619.5232.8802 1.0854 1.3094 1.6368.149.1914.2813.3911.5493.4215-.0524 1.5124-.3452 3.0143-.1251 4.5396.1647 1.1387.4637 2.1967 1.3289 3.0171zm47.6634 18.7239c.0298.0388.0596.0776.0894.1165-.0062.1593-.1574.3269.0213.4759.5886.4911 1.1362 1.0573 1.9865 1.0615 1.335.0066 2.5074-.5082 3.6095-1.1835 1.443-.8842 2.9318-1.7406 3.5544-3.4733.0164-.0455.0533-.1076.092-.1176.5819-.1497.3891-.6071.364-.9687-.0223-.3209-.1209-.6368-.1893-.9541-.2123-.9846-.3441-2.0175-.8304-2.8938-.6213-1.1196-1.5307-2.0103-2.7689-2.4911-.1583-.0614-.3095-.1436-.4583-.2265-2.0421-1.1386-4.2378-1.7161-6.569-1.7818-.6555-.0185-.8036.1766-.8826.8469-.108.9166-.0329 1.8418-.1693 2.7577-.0384.2578.0685.558.2962.7319.2347.1793.3451-.1137.5166-.1891.234-.103.482-.1346.5361.2256.0278.1852.0568.3727.0571.5592.0025 1.4717-.231 2.9306-.2317 4.4041-.0003.6103-.0887 1.2268-.4747 1.7512-.2735.3716-.3876.8408-.7138 1.1839-.054.0567-.1139.1671-.0934.2256.1227.3513.3454.6218.7.7691.3036.1261.5948.1709.8524-.0973.2348-.2446.4705-.4882.7059-.7323zm-21.2724.9023c.1495.0052.2991.0104.4486.0155.2511.013.4412.1749.6569.2727.3062.1389.5588.2602.8507-.1006.3101-.3834.292-.711.0245-1.0566-.177-.2287-.4014-.4208-.6061-.6278-.3565-.3604-.6292-.7678-.6891-1.2844-.0923-.7958-.2275-1.5854-.2154-2.3937.0133-.8893.0106-1.7827-.063-2.6679-.0353-.4246.0105-.5749.47-.5778.7778-.0049 1.126-.3934 1.3967-1.1051.449-1.1802.0573-2.261-.2933-3.3405-.3164-.9741-.429-.9652-1.4217-.6942-2.6823.7323-5.2231 1.8418-7.7645 2.9356-.9842.4236-2.0259.9261-2.4538 2.0489-.2403.6305-.5881 1.196-.9107 1.7766-.3378.6081-.4847 1.2698-.6817 1.9241-.2854.9479.0602 1.6563.7757 2.2011.6527.4969 1.1107 1.0968 1.4908 1.8253.6621 1.2693 1.6879 1.978 3.2214 1.9071 1.6781-.0776 3.3335-.2615 4.972-.6211.308-.0677.5855-.1871.792-.4372zm12.8444-21.8568c.0578-.2778-.1404-.3442-.3168-.4151-.4053-.163-.6537-.4529-.8237-.8577-.3663-.8719-.5816-1.7774-.7113-2.7094-.0186-.1334.0167-.3658-.2107-.3362-.1827.0238-.1148.2226-.1094.3475.0247.5762-.0194 1.1709.1574 1.7198.4278 1.3283.4526 2.667.3662 4.0488-.0946 1.5121-.1748 3.0539.2851 4.531.2358.7571.2625 1.454.0197 2.214-.2181.6827-.3956 1.3821-.6991 2.0297-.3188.6801-.5755 1.4301-1.4589 1.649-.269.0666-.68.2099-.5954.5901.0808.3632.497.2797.786.315 1.0618.1294 2.1468.0711 3.183.4126.2175.0717.3767-.0485.4005-.2752.0427-.407.0701-.816.0902-1.2248.0518-1.0529.0474-2.1122.3882-3.129.1074-.3203.0176-.5639-.2138-.8177-.6678-.7324-1.0325-1.6215-1.2988-2.5701-.3541-1.2615-.0178-2.4679.2311-3.6788.1288-.6271.1862-1.2823.5305-1.8435zm-1.4789 31.8538c.5113.3938.9906.382 1.4337.4043.915.0459 1.8346.0253 2.7233-.2534.1411-.0443.3275-.0946.2614-.3038-.0603-.1909-.2394-.1697-.3906-.1352-1.2852.2935-2.5891.3504-4.0278.2881z" fill="#7a4931"/><path d="m66.4162 101.84c.5851.484 1.0787.96 1.7173 1.2256.1872.0779.3918.1291.5932.1541.2732.0338.5731.0508.7022-.2693.1285-.3184-.2015-.3416-.3535-.4645-.8474-.6854-1.489-1.521-1.9972-2.4885-.2693-.5127-.0785-.9023.1125-1.3265.0618-.1373.2247-.2392.2575-.3772.045-.1893.3049-.3575.1394-.5572-.1435-.1731-.3505-.2337-.5875-.0715-.1343.092-.2315-.0639-.3185-.1686-1.4002-1.6847-2.8938-3.2934-4.0291-5.1882-.6473-1.0804-1.1034-2.231-1.3435-3.4511-.1212-.6157-.0659-1.2768.1136-1.9013.1099-.3824.309-.5382.7046-.2902.4339.272.8857.5164 1.3385.7563.1371.0726.3051.2038.4562.0058.1321-.1731-.009-.2985-.1024-.4033-1.1112-1.2474-2.6527-1.8314-4.1735-.8287-.2294.1512-.5166.3408-.2888.637.1911.2485.477.1627.7176-.0406.2536-.2143.5587-.2941.8538-.2809-.6773 1.6975-.5944 3.3712.156 4.9775 1.2369 2.6475 2.3174 5.3343 2.6007 8.2745.0804.8348.1465 1.674.1566 2.5119.0257 2.1278.1994 4.2377.4796 6.3495.211 1.5903.5192 3.1414 1.0976 4.6296.2775.714.5157 1.4204.6978 2.1716.4026 1.661 1.1654 3.1471 2.7314 4.0602.3227.1881.6407.2319 1.0238.2068 2.5639-.1677 5.0784-.822 7.6637-.7672.9078.0193 1.818.01 2.6999.2736.1467.0439.259.0242.3767-.0758.7608-.6464 1.3259-1.3719 1.5122-2.4195.213-1.1983-.0256-2.3451-.1359-3.5116-.0571-.6046.0065-1.1969.1308-1.7867.116-.5504.6566-.9648 1.2024-.9209.2546.0204.4645.1165.3877.4089-.1481.5638-.1266 1.1432-.2043 1.7121-.2995 2.1929-.3278 4.4151-.7196 6.5977-.0834.4648-.1533.9323-.2465 1.3951-.1214.6026-.6194.8295-1.1099 1.0221-1.7846.7007-3.6177 1.1124-5.5489 1.2677-1.8811.1513-3.7253.0603-5.5787-.1666-1.4218-.1741-2.4135-.9794-3.1587-2.1658-.7138-1.1364-1.4227-2.2746-2.0693-3.4508-1.3572-2.4687-2.4462-5.0469-3.3276-7.7263-.8519-2.5896-1.6113-5.2032-2.3276-7.8314-.018-.0659-.0492-.1412-.0333-.2012.1969-.7415-.3982-1.0136-.8067-1.4146-.8131-.7983-1.7891-1.414-2.5344-2.287-.2277-.2667-.5956-.3644-.793-.6945-.0948-.1586-.3344-.0072-.4435.1052-.1722.1775-.1894.3939.0093.5891.4028.3959.8035.7941.8243 1.4833-3.825-.3432-7.611.2846-11.4662.8296.3417-.8819.6661-1.6616 1.2905-2.275.1979-.1944.2511-.4615.2094-.7104-.035-.2089-.2773-.1471-.4372-.1821-1.459-.3195-2.9477-.2979-4.427-.3871-1.3842-.0834-2.7614-.0102-4.1356.1572-.1298.0158-.2621.0646-.3267-.1339-.3915-1.2034-.5149-2.4542-.7032-3.6969-.18-1.1879.1968-2.2463.6231-3.2961.3388-.8342.6297-1.6852 1.0134-2.5063.6075-1.2999 1.2399-2.5838 2.0442-3.7673.6693-.9847 1.3265-1.9794 2.0318-2.942.3352-.4576.7265-.5369 1.1769-.5233 1.5403.0466 3.0339.4328 4.5483.6703.4217.0662.4283.2466.2847.5942-.3107.7523-.5609 1.5277-.995 2.2273-.3144.5068-.2834 1.0869-.2079 1.6444.0766.5657.0764 1.125-.0197 1.6797-.3052 1.7619-.6147 3.5242-1.2985 5.1922-.0418.1019-.0011.2491-.1803.2615-.209.0144-.2419.1659-.2229.3324.0229.2007.1651.3091.3483.3193.6103.0339 1.2215.0526 1.8325.0719 1.5134.0478 3.0186.1791 4.5161.4075 1.0669.1628 1.5194-.2422 1.5641-1.4477.0761-2.0528.7092-3.9474 1.6476-5.7405.3505-.6697.8537-1.2673 1.3382-1.8559.2539-.3084.691-.2481 1.0597-.2737 1.5969-.1109 3.1671.152 4.7359.3823 1.4171.2081 2.817.5045 4.1642 1.0155.1945.0738.3697.1723.5522.2622.302.1486.5465.1245.898.0041 1.1477-.3931 1.9046-1.3173 2.8736-1.9441.2081-.1346.3026-.209.3501.1063.2486 1.6507.467 3.3046.5461 4.9735.0319.6731.0095 1.3504.0724 2.0201.1207 1.2851-.2558 2.4741-.585 3.6872-.3098 1.1417-.7601 2.2746-.6111 3.496.146 1.1971.778 2.2313 2.0908 2.5041.2354.0489.2854.2305.3597.3903.6391 1.374 1.5711 2.5177 2.7379 3.4709.8303.6783 1.8196 1.0394 2.8255 1.3693.6861.2249 1.3595.4903 2.0314.7556.6835.2699.716.9139.6604 1.4679-.1249 1.2452-.6386 2.3284-1.8709 2.8285-.6371.2585-1.361.2547-2.0611.2411-1.171-.0228-2.3413-.109-3.4616-.4463-1.4919-.4492-2.8351-1.1911-3.9308-2.3277-.247-.2562-.4807-.5254-.7137-.7946-.0753-.087-.1972-.1802-.1381-.3097.0636-.1392.2087-.0557.3186-.0621.0676-.0039.1472.0312.2022.0063.2157-.0978.551.0008.6237-.3349.077-.3555-.2393-.3918-.4508-.5098-.9068-.5056-1.6673-1.1794-2.2185-2.0581-.3942-.6276-.4432-1.3382-.3347-2.1309z" fill="#ebe5cc"/><path d="m88.7096 128.381c-2.7782-1.6624-5.0952-3.7138-7.5857-5.6615.5407-.2737 1.0505-.4254 1.5155-.6903.6219-.3543.8358-.8796.9381-1.4906.2484-1.483.3066-2.9863.4006-4.4839.0929-1.4811.3369-2.9438.485-4.4179.0371-.3688.1454-.6267.705-.6135 1.2497.0294 2.4555-.3174 3.6395-.7297.9512-.3312 1.8887-.6722 2.7072-1.2778.3727-.2757.7231-.5656.8988-1.0168.0488-.1253.1049-.2827.207-.3468 1.016-.6382 1.2051-1.649 1.2883-2.7292.1207-1.5656.1187-3.1327-.0649-4.6868-.0929-.7867-.3908-1.5494-.5988-2.3222-.0928-.3446-.1922-.6874-.2895-1.0307-.0628-.2216.0877-.2613.2482-.2958.9228-.1983 1.8575-.2841 2.7995-.3174.2306-.0081.3316.1278.4495.2779 1.035 1.3179 2.1417 2.563 3.5018 3.565.9008.6636 1.9116 1.1097 2.9079 1.5972 1.2691.621 2.6528.8579 3.9779 1.2879.3557.1154.4857.2833.4065.6415-.4746 2.1454-.9359 4.2937-1.6088 6.3897-.7323 2.281-1.9151 4.3592-2.9071 6.5235-.7533 1.6434-1.8941 3.0215-2.9615 4.451-.5578.747-1.0761 1.5298-1.8387 2.102-.1653.124-.1695.3188-.0745.5141.1107.2276.2771.1936.4709.1408.272-.0741.5237-.2418.8606-.1981-.329.5973-.8032 1.0096-1.3518 1.3497-.2112.1309-.5164.2222-.4549.5389.0571.2942.3061.4121.6057.4434.3093.0324.3241.1624.1128.3872-.8198.872-1.7566 1.5866-2.7992 2.1719-.1484.0833-.2551.0759-.375.0081-1.5594-.8823-3.3209-1.3296-4.8591-2.2558-.3948-.2377-.7636-.5215-1.17-.7356-.2081-.1096-.4782-.2617-.7151-.0681-.2572.2101-.1439.4512-.0527.7336.2229.69.3695 1.4044.581 2.2451z" fill="#ebe6cd"/><path d="m108.3924 51.0292c-.3916.9044-.2703 1.8672-.1847 2.7841.1161 1.244.0247 2.4507-.2481 3.6496-.142.6237-.068 1.2168.0513 1.8203-.6967-.4111-1.1461-1.0739-1.5672-1.715-.9454-1.4397-2.1563-2.6702-3.1143-4.097-.7083-1.0547-1.5105-2.0499-2.1661-3.1348-.2731-.452-.1451-1.0869-.0531-1.6162.2579-1.4849.6376-2.9638 1.5002-4.2093.5097-.7359.3544-1.4418.2338-2.1389-.1786-1.0313-.2213-2.0698-.3243-3.1035-.1746-1.7522-.1351-3.5138-.1083-5.2734.0074-.4881.1923-.9714.018-1.4712-.0321-.0921.1265-.2665.2205-.3843.8159-1.0219 1.4282-2.1638 1.9768-3.343.0494-.1062.059-.2304.0917-.345.0323-.1132.1089-.2585-.033-.3169-.1768-.0729-.2183.1132-.2798.2251-.5017.9128-1.0189 1.817-1.6409 2.6542-.6198.834-1.2317 1.6784-2.2038 2.16-.1807.0895-.2361.2973-.1741.4929.1063.3358.0499.6788.0766 1.0176.056.7098-.1711 1.2916-.6943 1.7871-.4312.4084-.8117.8701-1.217 1.3061-.2569.2764-.177.5295.0591.759.2942.2861.5982.5621.9016.8385.1985.1809.2411.3738.0349.5672-.6706.629-1.09 1.4727-1.7997 2.0732-.2526.2138-.2314.5011.1309.6345.4823.1776.9085.4633 1.3708.6762.2062.095.2146.2351.2075.4125-.058 1.4504-.1066 2.9012-.1758 4.351-.0247.5181-.0264 1.0347.019 1.6103-.3805-.284-.628-.6088-.8392-.9521-1.1287-1.8349-2.8006-3.0439-4.6362-4.0725-.3398-.1904-.4278-.5547-.4557-.9001-.0855-1.0588.0479-2.1162.2099-3.1528.34-2.1759.7702-4.3351 1.5264-6.4196.683-1.8825 1.723-3.562 2.7995-5.2283 1.358-2.1021 3.2194-3.7624 4.9248-5.5533.9023-.9474 2.1102-1.5483 3.1755-2.3121.2863-.2053.487-.1385.6819.1449.5545.8061.9197 1.7095 1.3146 2.5919 1.1463 2.5616 1.8394 5.2711 2.5665 7.9724.4361 1.6201.569 3.2691.6463 4.9187.1158 2.471.0051 4.9447-.4816 7.3791-.4048 2.0251-.9438 4.0137-1.9108 5.8623-.1735.3318-.5686.5873-.4301 1.0506z" fill="#92775f"/><path d="m39.4476 58.0239c-.8653-.8204-1.1643-1.8784-1.3287-3.0178-.2201-1.5253.0727-3.0272.1251-4.5396.2291-.1245.2431-.2849.1233-.5094-.2913-.5459-.6588-1.0461-1.0708-1.4916-1.3314-1.4392-2.0755-3.1319-2.1581-5.0708-.1265-2.97.2966-5.8936.8517-8.8071.5649-2.9649 1.3307-5.8611 2.576-8.6177.1752-.3878.3995-.7533.5787-1.1395.1133-.2443.2717-.259.5011-.1969 1.7546.475 3.3365 1.2932 4.7891 2.3768 1.1107.8286 2.2384 1.6374 3.2109 2.6321 1.3619 1.3931 2.4321 2.9801 3.1539 4.7975.465 1.1709.9704 2.3232 1.3007 3.5469.2865 1.0616.435 2.1366.5433 3.2254.1396 1.4035-.0918 2.7932-.1095 4.1902-.0018.1428-.0447.2681-.1228.3843-2.1274.2798-3.8958 1.1749-5.1262 2.9917.0286-1.2751-.1566-2.5143-.6319-3.7027-.0773-.1934-.043-.3283.0801-.5059.3182-.4587.7481-.792 1.1717-1.1329.271-.2181.2885-.5291-.0154-.7051-.174-.1007-.3786-.154-.575-.209-.1302-.0364-.2722-.0285-.4056-.0566-1.0068-.2124-1.1414-.4651-.7493-1.3931.3444-.8149.6801-1.6335 1.0366-2.443.1295-.2942-.0025-.5498-.1056-.7798-.3824-.8533-.4137-1.755-.4201-2.6596-.0031-.4349-.0907-.657-.6045-.74-1.4156-.2287-2.2665-1.232-2.9716-2.3819-.3378-.5509-.6581-1.1125-.9979-1.6622-.0526-.0851-.1157-.2476-.2641-.1665-.0953.0521-.0774.1481-.0165.2614.4114.7659.7995 1.5443 1.209 2.3112.3858.7224.9398 1.2997 1.6183 1.7508.2685.1785.3962.3991.4046.7183.0158.6086.0556 1.2165.0753 1.825.0151.4672-.0777.91-.3013 1.329-.7206 1.3506-1.3201 2.758-1.9287 4.1609-.0704.1622-.0353.3209.0059.4956.3877 1.6416.7768 3.284.8865 4.9753.0066.1021-.0152.2096.0086.3065.2048.8329-.2768 1.4944-.5498 2.2048-.704 1.8315-1.5227 3.614-2.4254 5.3535-.3818.7365-.9099 1.3968-1.3716 2.0915z" fill="#92775f"/><path d="m104.7397 76.8529c.8039-.0436 1.5329.1547 2.2617.0034.1896-.0394.2706.0559.3529.2071.9706 1.7838 2.0298 3.5193 2.9174 5.3487.1678.3459.2276.7175.2574 1.0901.1685 2.11.3085 4.2216.1681 6.3399-.0153.2306-.0509.4599-.0844.7542-.352-.2111-.6479-.4022-.9568-.5694-.2291-.124-.4855-.2045-.7062.009-.1991.1927-.1905.4208-.1231.6939.2418.9798.3198 1.9842.3789 2.9898.0175.2979-.0905.4125-.3871.3356-1.3986-.3628-2.8391-.3385-4.2633-.4716-1.0191-.0952-2.0363-.0233-3.0538-.053-.1555-.0045-.3471.013-.4105.2296-.0614.2096.0134.371.1605.5069.3377.3122.7053.5906 1.0006.9502.1542.1878.2797.3835.3911.6474-1.6042-.2542-3.1865-.4729-4.7683-.4306-1.2571.0336-2.52.0441-3.7762.1452-.4251.0342-.8516-.038-1.2775.0633-.2092.0498-.3854-.002-.2046-.3064.164-.2759.2626-.5909.3874-.8897.0679-.1625.1378-.3534-.0724-.4425-.1922-.0815-.3551.0101-.4583.2068-.1085.2068-.182.4423-.4192.5914-.3902-.7426-.7116-1.5186-1.1753-2.1975-.6572-.9622-.6082-1.9647-.5381-3.0548.06-.9319.3407-1.8476.2345-2.7863-.0595-.5257.4197-.6079.6754-.7536 1.4643-.8341 2.8889-1.7421 4.4139-2.4676.1542-.0734.3106-.1427.4692-.206 1.2047-.481 1.2086-.4841 2.1245.4071.2537.2469.4474.5646.7252.7753.3375.2559.3497.5459.227.8819-.5051 1.3823-.7039 2.8432-1.1063 4.2512-.0596.2084-.1104.4225.0478.5586.1758.1513.4218.2203.6668.1397 1.3095-.4305 2.6162-.8694 3.9272-1.2949.3878-.1259.777-.273 1.1906-.2785.5454-.0072.8191-.2838.9371-.8017.1741-.7645.2886-1.5397.4754-2.3033.2751-1.1246.5035-2.2645.8812-3.3571.2731-.79-.0345-1.4752-.2406-2.1674-.3292-1.1053-.6487-2.2217-1.2498-3.2944z" fill="#ebe5cc"/><path d="m76.2286 100.5705c-.2316.0805-.4478.0763-.6576.0009-.1515-.0545-.2598-.0489-.339.1106-.0992.2.0331.278.1712.3601.4291.255.8845.2834 1.3221.0678.4613-.2273.6112-.6339.5936-1.1494-.0612-1.797-2.1017-3.227-3.6542-2.5458-.6319.2773-.9357.7638-.9674 1.443-.0098.2097.1053.4978-.1376.6009-.2471.1049-.5431.0762-.7798-.1041-.5371-.4092-.9106-.9595-1.0144-1.6076-.1102-.6878-.068-1.3934.081-2.0915.3494-1.6372.8071-3.2381 1.4535-4.7844.2298-.5496.7628-.5294 1.1975-.6244 1.0968-.2398 2.2011-.0442 3.2992.0615.4236.0408.838-.0399 1.2678-.002 1.7163.1512 3.4427.2013 5.1618.0986.7935-.0474 1.6523.0289 2.3465-.5386.1342-.1097.2256-.0368.309.1219.2492.474.4307.9673.4749 1.5003.0261.3145.166.5384.4028.7338 1.2668 1.0458 2.055 2.3869 2.4383 3.9769.2537 1.0523-.5189 2.3459-1.491 2.4855-.4277.0614-1.0028-.3685-1.2145-.9048-.1118-.2832-.1579-.5861-.3595-.841-.7333-.9274-2.2412-.981-3.1027.2201-.4939.6885-.8653 1.4283-.5725 2.3425.1669.521.4909.8983.9003 1.2075.3861.2916 1.2243-.0793 1.3389-.5546.0331-.1371.0042-.2367-.1083-.3108-.1479-.0973-.3194-.1898-.4672-.0383-.3217.3299-.4677.1117-.6697-.1491-.2484-.3206-.137-.4562.1433-.6893.4112-.342.7655-.7144 1.358-.7211.5011-.0057.9825-.062 1.2739.4938.0967.1846.3057.3134.4748.4583.2505.2147.4209.4636.3147.871-.361 1.3845-.8418 2.6819-1.9716 3.6565-.3601.3106-.7556.5565-1.184.6778-1.1097.3144-2.2332.5223-3.4124.4522-.8197-.0488-1.6329-.1183-2.442-.2382-1.0779-.1598-2.0068-.6743-2.829-1.3536-.9052-.7479-1.5819-1.6939-2.1117-2.7429-.116-.2297-.1761-.4303.0816-.6196.1857-.1364.2682-.3375.2721-.5817.0062-.3867.226-.4988.5869-.4118.9742.2354 1.696.8013 2.2224 1.6631zm5.3464-5.4035c.4493-.0288 1.0289.0306 1.6058-.1009.8593-.1958 1.6458-.5584 2.423-.9548.1933-.0986.3154-.2419.2344-.4465-.0991-.2503-.2831-.0919-.4257-.0308-.2189.0937-.4296.2063-.6448.3086-.7284.3463-1.5034.6013-2.2914.6777-1.4968.1451-2.988-.0732-4.4598-.3425-1.5326-.2804-3.0367-.3494-4.5131.2571-.2558.1051-.6445.2227-.5565.4872.1012.3044.4665.128.7144.0301 1.1607-.4585 2.3514-.5004 3.5743-.3204 1.3965.2056 2.7893.4669 4.3394.4352z" fill="#3e4754"/><path d="m86.8872 90.021c.3217-.0344.5771.1089.8421.2719.2403.1479.5137.2519.8111.2409.736 1.0917 1.1858 2.3376 1.8702 3.4581.479.7841.9719 1.5588 1.3999 2.3764.5148.9831.2313 1.8913-.1541 2.7861-.3135.728-.8215 1.3263-1.5041 1.7623-.1661.1061-.3949.2626-.2687.4829.1198.2092.396.2451.6272.1798.6911-.1953 1.3657-.4335 1.8904-.9595.2972-.2979.404-.2176.4986.1777.2732 1.1407-.3535 1.8185-1.1863 2.3787-.4079.2744-.8001.5805-1.2648.772-.3475.1432-.3673.483-.0551.6928.4807.323.961.247 1.4441-.0124.4629-.2485.8594-.5897 1.3482-.9884-.0889.8038-.1683 1.5032-.2415 2.2033-.0127.1219-.094.1618-.1795.2227-.5718.4073-1.1866.7277-1.8622.9204-.2307.0658-.4845.0731-.5189.3912-.0337.3113.213.3875.4132.5074.0715.0429.132.1041.2439.1944-.9516.7502-1.9883 1.2731-3.1248 1.5642-.8754.2242-1.759.3199-2.6768.0636-1.2224-.3414-2.3162-1.7366-2.2333-2.9972.0385-.5852.479-.8495.9178-1.0745.74-.3795 1.4816-.7487 2.0947-1.3251.8661-.8143 1.4189-1.8128 1.6459-2.9714.0841-.4295.0379-.8865.0307-1.3306-.002-.1233-.06-.2189.1306-.2387 1.4541-.1507 1.9262-1.2355 2.1388-2.4274.2351-1.3178-.0894-2.5649-.8782-3.6697-.5933-.831-1.1167-1.7108-1.7926-2.4848-.2799-.3205-.2396-.7876-.4065-1.1671z" fill="#e9e3cb"/><path d="m65.0776 100.9963c.0181-.831-.0708-1.482.0678-2.13.0429-.2005.109-.4268.2889-.4356.1924-.0095.2675.2373.3252.4157.1088.3362.0734.6897.0102 1.0187-.3219 1.6758-.1195 3.3063.3788 4.9132.6986 2.2532 2.1331 3.9719 4.0629 5.2452 1.5405 1.0164 3.3267 1.4345 5.1437 1.6734 1.1182.147 2.2397.2603 3.3566-.0368.2546-.0677.5258.3131.4107.6843-.2092.6752-.0601 1.3913-.3333 2.0682-.1682.4167-.3497.8045-.6183 1.1556-.2636.3446-.6324.2498-.9897.2327-.8246-.0395-1.6449-.2046-2.4768-.003-.5168.1252-.9195.4407-1.3598.6919-1.0523.6004-2.2174.0772-2.4272-1.142-.2568-1.4924-.9397-2.7489-2.0067-3.8042-1.1655-1.1527-2.1698-2.4259-2.6931-3.9936-.4427-1.326-.6988-2.7065-.9593-4.0812-.1666-.8783-.2983-1.7575-.1806-2.4725z" fill="#d8a0a0"/><path d="m49.4191 100.204c2.6056-.1845 5.1292-.3186 7.6462.0952.4799.0789 1.3578 1.0453 1.4825 1.5119.3467 1.2974.7192 2.5886 1.1097 3.8736.3617 1.1904.74 2.3765 1.1967 3.5354.0247.0628.048.1302-.0499.2277-.5446-.4421-1.1358-.8539-1.6434-1.3511-.6463-.6329-1.429-1.0974-2.0609-1.737-1.1474-1.1613-2.4119-2.212-3.3736-3.5525-.0987-.1376-.1256-.4028-.419-.3659-.2992.0376-.4346.1996-.5225.474-.1495.467-.335.9226-.5449 1.4897-.9669-1.4095-2.091-2.6176-2.8209-4.201z" fill="#e9e3cb"/><path d="m70.2794 118.9608c-.9542.022-1.7036-.3155-2.1287-1.2098-.054-.1137-.1044-.1287-.2134-.155-.4209-.1013-.7362-.5337-.6887-.9333.0524-.4411.1241-.88.1852-1.3201.029-.2092.1102-.3997.2386-.5609.2106-.2643.4715-.4799.8337-.3879.3455.0878.4581.3886.4997.7083.1063.817.1223 1.64.1052 2.4613-.0085.4069.1525.5852.5366.6625.6796.1367 1.3348-.0216 1.9823-.1562 2.3715-.4928 4.7497-.8688 7.183-.618.3445.0355.5561-.1492.7095-.4097.401-.6807.6288-1.4316.8475-2.1845.0285-.098.0202-.2119.0663-.2985.1398-.2622.2358-.6602.6021-.5943.3527.0634.2669.4432.3027.7295.111.8875.1625 1.7593-.0731 2.6453-.1341.5042-.5774.7401-.8037 1.1525-.0522.0952-.2219.0682-.3384.0228-1.4371-.5605-2.9287-.4281-4.4134-.3335-1.5748.1003-3.1157.4406-4.668.6996-.2522.0421-.5098.054-.765.0799z" fill="#f7f5f6"/><path d="m83.7505 109.8111c-1.0965.0992-2.1799-.0346-3.3334.1898.7861-1.323.852-2.6738.5941-4.0611-.0436-.2343.0072-.3365.2385-.2904.3234.0643.6689-.2296.9445-.0179.2807.2156.0623.5783.0937.8737.0932.8792.1323 1.7657.6679 2.5355.2173.3125.5792.4646.7947.7704z" fill="#3e4754"/><path d="m47.2854 48.7784c1.2304-1.8168 2.9988-2.7119 5.1262-2.9917.035.2743-.2124.2323-.3458.2809-.4464.1628-.9209.257-1.3527.4493-1.2559.5593-2.1992 1.5101-3.0699 2.5429-.0956.1135-.1283.2802-.3211.3611-.0729-.2178-.0556-.43-.0367-.6425z" fill="#7a4931"/><path d="m37.5148 25.3319c.0781-.8041.5374-1.4527.8821-2.1473.0475-.0958.1671-.1462.2636-.0842.1415.091.0659.2045-.012.3017-.1386.1732-.4126.2993-.2002.5911-.5111.3068-.6086.902-.9335 1.3387z" fill="#92775f"/><path d="m36.999 26.9662c.084-.5763.1683-1.1525.5213-1.6435-.0312.5931-.2698 1.1204-.5213 1.6435z" fill="#92775f"/><path d="m112.4446 84.6277c-.0105-.0253-.0242-.0502-.0297-.0768-.0017-.0083.0187-.0212.029-.032.0109.0257.0248.0507.0307.0775.0017.0078-.0194.0206-.03.0313z" fill="#7a4931"/><path d="m77.1961 125.8336c-.0172-.0231-.054-.0583-.0485-.0672.0375-.0603.0725-.0221.1052.0111-.0183.0188-.0373.0377-.0567.0561z" fill="#92775f"/><path d="m60.9348 109.4934c-.0051.0109-.0102.0219-.0153.0328-.0166-.0103-.0331-.0206-.0497-.0309.0105-.0111.0208-.0306.0317-.0309.0107-.0004.0221.0185.0333.029z" fill="#e9e3cb"/><path d="m30.5298 72.6518c-.0224.0113-.0448.0227-.0673.034.0098-.0241.0196-.0481.029-.0725.013.0122.0259.0251.0383.0385z" fill="#7a4931"/><path d="m83.5398 8.7928.0131.0312-.032-.0032z" fill="#7a4931"/><path d="m73.0005 24.3025c.5683.013 1.0162-.1599 1.4699-.3012.2936-.0915.5851-.1931.896-.2031.2821-.0091.5204.1102.6224.3669.105.2643-.1361.3567-.3084.5055-1.5702 1.3551-3.0467 2.8036-4.3249 4.4445-.168.2156-.3599.4129-.5461.6137-.0846.0913-.1977.1684-.3146.0768-.1104-.0865-.0878-.2249-.0238-.3297.1334-.2183.2727-.4349.4296-.6366.8291-1.0662 1.7016-2.0902 2.7281-2.9796.4427-.3836.7756-.8826 1.2114-1.2956-.9139.0514-1.78.1977-2.577.6083-.2318.1194-.4031.143-.5775-.0855-.1058-.1386-.1056-.2191.0258-.3403.695-.641 1.2115-1.4353 1.8057-2.1614.8902-1.088 1.866-2.0886 2.8777-3.0584.1594-.1528.3455-.2778.6123-.4893-.3227-.0931-.4915-.1445-.6618-.1904-.3506-.0946-.4035-.3152-.1672-.5485 1.1926-1.1773 2.3081-2.4382 3.6723-3.4315.0345-.0251.0941-.0157.2574-.0385-1.0349 1.2666-2.3027 2.2104-3.1261 3.5501.1791.1079.369.0358.5475.057.1995.0237.2955.152.3596.3219.0486.1288.0263.2316-.0972.3085-.9083.5657-1.5953 1.3759-2.3374 2.1243-.8573.8645-1.5638 1.8539-2.3032 2.8156-.0499.0648-.0761.1475-.1505.2965z" fill="#0b0b0b"/><path d="m65.8386 77.6501c-.2064.2501-.484.3695-.7921.4371-1.6384.3596-3.2939.5435-4.972.6211-1.5335.0709-2.5592-.6378-3.2214-1.9071-.38-.7285-.838-1.3283-1.4908-1.8253-.7156-.5448-1.0611-1.2532-.7757-2.2011.197-.6543.3439-1.3159.6817-1.9241.3225-.5806.6704-1.1462.9107-1.7766.4279-1.1227 1.4696-1.6253 2.4538-2.0489 2.5415-1.0938 5.0823-2.2033 7.7645-2.9356.9927-.271 1.1053-.2799 1.4217.6942.3506 1.0795.7423 2.1602.2933 3.3405-.2707.7117-.6189 1.1002-1.3967 1.1051-.4594.0029-.5052.1532-.47.5778.0736.8851.0763 1.7785.063 2.6679-.0121.8083.1232 1.598.2154 2.3937.0599.5166.3326.924.6891 1.2844.2047.207.4291.3991.6061.6278.2676.3457.2856.6733-.0245 1.0566-.2919.3608-.5445.2395-.8507.1006-.2157-.0979-.4058-.2598-.657-.2727-.0371-.0561-.061-.1361-.1132-.1648-.9424-.5182-1.8601-1.1839-3.0103-.5192-.1149.0664-.26.085-.3938.1133-2.0608.4356-4.0333.5067-5.5359-1.3503-.0305-.0377-.0841-.0568-.127-.0845-.0425-.0282-.0893-.0609-.1201.0069-.0062.0135.0335.0479.052.0726.853 1.8409 1.1981 2.1324 3.0346 2.1621.5445.0088 1.0918-.0323 1.6348-.0829 1.07-.0997 2.1375-.2254 3.2068-.3331.3202-.0319.6493-.0774.9237.1645zm-7.544-4.6982c-.02.0125-.04.025-.06.0376.011-.0004.0271.0035.0318-.0021.0097-.0118.0134-.0285.0195-.0433.0391-.0294.0782-.0588.1174-.0882.7296-.5066 1.4401-1.0459 2.2634-1.3986 1.2465-.5339 2.5114-.9986 3.9038-.9061.1694.0113.3968.0872.4668-.0934.1255-.3237.0469-.6823-.0285-1.0055-.0406-.174-.3006-.0755-.4639-.0692-2.012.0777-3.6546 1.0301-5.1945 2.2124-.4205.3229-.7854.7062-.9957 1.2096-.0201.049-.0401.0979-.0601.1468zm-2.0818 1.909c.4485-1.5087 1.31-2.673 2.5275-3.6165 1.0568-.8189 2.0826-1.6755 3.3002-2.25 1.0314-.4867 2.106-.8489 3.2666-.707.6096.0745 1.1902.0059 1.7807-.1073.2401-.046.2875-.1642.2871-.3855-.0018-.9269-.0635-1.8448-.2688-2.7529-.0832-.3683-.2397-.4064-.5761-.2911-.9213.3159-1.8354.6518-2.7537.9738-2.0577.7215-4.0062 1.671-5.9444 2.6522-.2406.1218-.4238.2848-.5533.5137-.7079 1.2508-1.4185 2.5013-1.9455 3.8425-.3497.8901-.2722 1.1473.4579 1.7826.1274.1109.2612.2143.4218.3455zm4.7767 1.0884c1.2734-.0065 3.0467-.422 4.1352-.9234.2666-.1228.187-.2693.1549-.4485-.1692-.9426-.39-1.8812-.3932-2.8426-.0013-.394-.1058-.4885-.494-.4578-2.3922.1893-4.3976 1.2016-6.1238 2.824-.3722.3498-.3798.6175-.0391 1.0037.2655.301.5879.5204.9814.6267.5827.1575 1.1765.2203 1.7786.2179z" fill="#0d0d0d"/><path d="m87.111 76.7478c-.2354.244-.4711.4877-.7059.7322-.2576.2682-.5488.2234-.8524.0973-.3546-.1472-.5773-.4178-.7-.7691-.0204-.0585.0395-.1689.0934-.2256.3262-.3431.4403-.8123.7138-1.1839.386-.5244.4744-1.141.4747-1.7512.0007-1.4734.2342-2.9324.2317-4.4041-.0003-.1865-.0293-.374-.0571-.5592-.054-.3602-.302-.3285-.5361-.2256-.1715.0755-.2819.3684-.5166.1891-.2277-.1739-.3346-.4741-.2962-.7319.1364-.9159.0613-1.8411.1693-2.7577.079-.6703.2271-.8654.8826-.8469 2.3312.0657 4.5269.6431 6.569 1.7818.1487.0829.3.1651.4583.2265 1.2383.4808 2.1477 1.3715 2.7689 2.4911.4863.8763.618 1.9092.8304 2.8938.0684.3173.167.6332.1893.9541.0251.3617.2179.819-.364.9687-.0387.01-.0756.0721-.092.1176-.6226 1.7328-2.1114 2.5891-3.5544 3.4733-1.1021.6753-2.2745 1.1901-3.6095 1.1835-.8503-.0042-1.3979-.5704-1.9865-1.0615-.1787-.1491-.0275-.3166-.0214-.476.0976.0148.1976.0207.2925.0458.6137.1623 1.1702.4741 1.86.4185 2.5167-.203 4.4519-1.4119 6.023-3.3141.1677-.203.1459-.3528-.0061-.5332-1.239 1.1823-2.8131 1.5943-4.4154 1.8824-.7672.1379-1.5722.1189-2.31-.2557-.1006-.0511-.2184-.1565-.2946.0203-.2776.6445-.8721 1.0447-1.2387 1.6197zm7.2805-4.8753c.0649.1966.1995.3181.3988.37l.0657.0414c-.0133-.0224-.0266-.0448-.0399-.0672-.0563-.2327-.234-.3693-.4045-.5116-.0229-.0203-.0488-.0356-.0777-.0458-1.0182-1.831-3.7889-3.061-5.4758-2.3242 2.0486.3157 3.7596 1.2908 5.4096 2.4012.0412.0455.0825.0908.1238.1362zm1.6108 1.4609c.2168-.2278.1436-.3789.0964-.5181-.3636-1.0713-.625-2.1686-.8311-3.2792-.0636-.3428-.2695-.5838-.5038-.8125-1.9077-1.8616-4.3196-2.7118-6.8201-3.3658-.5418-.1417-1.1169-.1482-1.685-.1182-.2017.0106-.3085.0396-.3168.2787-.0183.5293-.0574 1.0588-.112 1.5857-.0338.3263.0694.4493.4097.46.8031.0253 1.6069.0692 2.407.1432 1.9216.1777 3.6641.8484 5.1333 2.0993 1.0732.9136 1.9643 1.9912 2.2224 3.5269zm-8.586-1.5246c0 .0102-.0259.137.0046.2483.1235.4514-.2686 1.0312.273 1.3625.437.2673.9396.4092 1.4579.4589.1362.0131.2731.0225.4098.0244 1.4168.0196 2.8007-.1383 4.0985-.7617.1537-.0738.3178-.1257.4728-.1972.1468-.0677.3813.1348.4467-.093.0627-.2182-.1401-.3704-.2816-.5143-.1193-.1212-.2473-.2439-.3937-.3269-1.2637-.7167-2.5159-1.4592-3.871-1.9957-.7047-.279-1.4395-.2669-2.1711-.0916-.3927.0941-.6256.2883-.5345.7539.0655.3334.0566.6812.0886 1.1324zm7.6633.7442c-.0156-.0321-.0289-.0596-.0423-.0871-.0221.0132-.0442.0263-.0662.0395.0087.0142.0146.0372.0265.0408.0247.0076.0526.005.082.0068z" fill="#0d0d0d"/><path d="m78.683 55.7933c-.3443.5612-.4017 1.2164-.5306 1.8435-.2489 1.211-.5852 2.4173-.2311 3.6788.2663.9486.631 1.8377 1.2988 2.5701.2314.2538.3212.4974.2138.8177-.3408 1.0167-.3364 2.0761-.3882 3.129-.0201.4088-.0475.8178-.0902 1.2248-.0238.2267-.1831.3469-.4005.2752-1.0362-.3415-2.1211-.2832-3.183-.4126-.289-.0352-.7052.0482-.786-.315-.0846-.3802.3264-.5234.5954-.5901.8835-.2189 1.1402-.9689 1.4589-1.649.3035-.6476.4809-1.347.6991-2.0297.2429-.7601.2161-1.4569-.0197-2.214-.46-1.4771-.3797-3.0189-.2851-4.531.0864-1.3818.0616-2.7206-.3662-4.0488-.1768-.5489-.1328-1.1436-.1574-1.7198-.0053-.1249-.0732-.3237.1094-.3475.2274-.0296.1922.2028.2107.3362.1297.932.345 1.8374.7113 2.7094.1701.4048.4184.6948.8237.8577.1765.071.3747.1373.3169.4151z" fill="#0b0b0b"/><path d="m87.111 76.7478c.3666-.575.9612-.9752 1.2388-1.6196.0762-.1768.194-.0714.2946-.0203.7378.3746 1.5428.3936 2.31.2557 1.6023-.2881 3.1764-.7001 4.4154-1.8824.1519.1804.1737.3302.0061.5332-1.5711 1.9022-3.5064 3.1111-6.023 3.3141-.6898.0556-1.2463-.2561-1.86-.4185-.0949-.0251-.1949-.031-.2925-.0458-.0298-.0387-.0596-.0776-.0894-.1164z" fill="#e9e3cb"/><path d="m65.8386 77.6501c-.2743-.2419-.6035-.1964-.9235-.1642-1.0693.1077-2.1368.2334-3.2068.3331-.543.0506-1.0903.0917-1.6348.0829-1.8365-.0296-2.1816-.3212-3.0346-2.1621.0227-.0266.0454-.0531.0681-.0797.0428.0278.0964.0469.1269.0846 1.5026 1.857 3.4751 1.7859 5.5359 1.3503.1338-.0283.2789-.0469.3938-.1133 1.1502-.6647 2.0679.001 3.0103.5192.0521.0287.0761.1087.1132.1648-.1495-.0052-.299-.0104-.4485-.0156z" fill="#e9e3cb"/><path d="m77.2041 87.6471c1.4386.0623 2.7426.0054 4.0278-.2881.1512-.0345.3303-.0558.3906.1352.0661.2092-.1203.2596-.2614.3038-.8887.2787-1.8083.2993-2.7233.2534-.4431-.0223-.9224-.0106-1.4337-.4043z" fill="#0d0d0d"/><path d="m81.575 95.167c-1.5501.0317-2.9429-.2296-4.3395-.4352-1.2229-.18-2.4135-.138-3.5743.3204-.2479.0979-.6132.2743-.7144-.0301-.0879-.2645.3007-.3821.5565-.4872 1.4764-.6065 2.9805-.5375 4.5131-.2571 1.4718.2693 2.963.4877 4.4598.3425.788-.0764 1.563-.3314 2.2914-.6777.2152-.1023.4259-.2149.6448-.3086.1426-.061.3266-.2195.4257.0308.081.2046-.0411.3479-.2344.4465-.7772.3964-1.5637.759-2.423.9548-.5768.1314-1.1564.0721-1.6057.1009z" fill="#0b0b0b"/><path d="m56.2128 74.8609c-.1606-.1312-.2945-.2346-.4219-.3454-.7301-.6353-.8076-.8926-.4579-1.7826.527-1.3412 1.2376-2.5917 1.9455-3.8425.1295-.2289.3127-.3919.5533-.5137 1.9382-.9812 3.8868-1.9307 5.9444-2.6522.9183-.322 1.8324-.658 2.7537-.9738.3364-.1153.4929-.0772.5761.2911.2053.9081.267 1.826.2688 2.7529.0004.2212-.047.3394-.2871.3855-.5904.1133-1.1711.1819-1.7807.1073-1.1607-.1419-2.2352.2204-3.2666.707-1.2177.5745-2.2434 1.4311-3.3002 2.25-1.2174.9434-2.0789 2.1077-2.5274 3.6164z" fill="#e9e3cb"/><path d="m60.9894 75.9495c-.602.0023-1.1959-.0605-1.7786-.2179-.3935-.1063-.7159-.3257-.9814-.6267-.3407-.3862-.3331-.6539.0391-1.0037 1.7261-1.6224 3.7316-2.6347 6.1238-2.824.3882-.0307.4927.0638.494.4578.0033.9614.224 1.9.3932 2.8426.0322.1792.1118.3256-.1549.4485-1.0885.5012-2.8618.9167-4.1352.9234zm1.49-1.9503c.0761-.2553.0759-.4887-.186-.6468-.0234-.2768-.2034-.2984-.4352-.3061-.3823-.0126-.5709.2735-.8053.4794-.3751.3295-.431.7715-.1784 1.1511.2488.3738.6249.4305 1.1959.2133.4423-.1683.6299-.4298.409-.8909z" fill="#ddbf45"/><path d="m58.3537 72.8045c.2111-.5027.576-.886.9965-1.2089 1.54-1.1824 3.1826-2.1347 5.1945-2.2124.1633-.0063.4232-.1048.4639.0692.0754.3232.1541.6819.0285 1.0055-.07.1806-.2974.1047-.4668.0934-1.3923-.0926-2.6573.3721-3.9038.9061-.8233.3527-1.5339.892-2.2634 1.3986-.0162-.0174-.0327-.0346-.0494-.0515z" fill="#92775f"/><path d="m57.0389 75.7398c-.0185-.0247-.0582-.0591-.052-.0726.0309-.0678.0776-.0351.1201-.0069-.0227.0264-.0454.0529-.0681.0795z" fill="#e9e3cb"/><path d="m58.2858 72.9441c-.0061.0147-.0098.0315-.0195.0433-.0046.0056-.0208.0017-.0318.0021.02-.0125.04-.025.06-.0376z" fill="#92775f"/><path d="m58.4032 72.856c-.0391.0294-.0782.0588-.1174.0882l.0088.0078c.02-.0489.04-.0978.0596-.1471.0162.0165.0327.0337.049.0511z" fill="#92775f"/><path d="m96.0023 73.3334c-.2582-1.5357-1.1493-2.6133-2.2224-3.527-1.4692-1.2509-3.2118-1.9216-5.1333-2.0993-.8-.074-1.6039-.1179-2.407-.1432-.3403-.0107-.4434-.1337-.4097-.46.0545-.5269.0936-1.0564.112-1.5857.0083-.2391.1151-.268.3168-.2787.5681-.0299 1.1432-.0235 1.685.1182 2.5005.654 4.9124 1.5042 6.8201 3.3658.2343.2287.4402.4697.5038.8125.2061 1.1106.4675 2.2079.8311 3.2792.0473.1393.1205.2903-.0964.5182z" fill="#e9e3cb"/><path d="m87.4163 71.8088c-.032-.4512-.0231-.799-.0884-1.1322-.0911-.4656.1417-.6598.5345-.7539.7316-.1753 1.4664-.1874 2.1711.0916 1.355.5364 2.6073 1.2789 3.871 1.9957.1463.083.2744.2057.3937.3269.1415.1439.3443.2961.2816.5143-.0654.2278-.2999.0253-.4467.093-.155.0715-.3191.1234-.4728.1972-1.2979.6234-2.6817.7812-4.0985.7617-.1367-.0019-.2737-.0114-.4098-.0244-.5184-.0498-1.0209-.1916-1.4579-.4589-.5416-.3313-.1495-.9112-.273-1.3625-.0307-.1116-.0048-.2383-.0048-.2485zm3.0358-.317c-.3306-.3129-.9894-.4405-1.3062-.2221-.3465.2389-.558.5697-.424 1.0081.1186.3882.3028.7436.7961.7339.5503-.0107 1.0637-.3973 1.1687-.8669.1462-.2983.2236-.5719-.2346-.653z" fill="#ddbf45"/><path d="m94.2675 71.7365c-1.6498-1.1106-3.3609-2.0857-5.4095-2.4014 1.687-.7368 4.4576.4933 5.4755 2.3245-.0219.0262-.0438.0517-.066.0769z" fill="#92775f"/><g fill="#3e4754"><path d="m94.4115 71.7052c.1705.1423.3483.279.4045.5116l-.0261.0261c-.199-.0522-.3336-.1738-.3985-.3705.0067-.0558.0134-.1115.0201-.1672z"/><path d="m95.0796 72.553c-.0293-.0018-.0572.0008-.082-.0068-.0119-.0037-.0179-.0266-.0265-.0408.0221-.0131.0442-.0263.0662-.0395.0133.0275.0267.055.0423.0871z"/><path d="m94.8161 72.2168c.0133.0224.0266.0448.0399.0672-.0219-.0138-.0438-.0276-.0658-.0412z"/></g><path d="m94.4115 71.7052c-.0067.0557-.0134.1115-.0201.1673-.0413-.0453-.0826-.0907-.1239-.136.0222-.0252.0441-.0507.0659-.0768.0293.0099.0552.0252.0781.0455z" fill="#92775f"/><path d="m62.4794 73.9992c.2209.4611.0333.7226-.4089.8908-.571.2172-.9472.1606-1.1959-.2133-.2526-.3796-.1968-.8215.1784-1.1511.2344-.2059.423-.492.8053-.4794.2318.0077.4118.0293.4352.3061-.194.0907-.5377.0464-.5023.3615.0303.2695.3517.1797.5422.253.0459.0179.0971.022.146.0324z" fill="#0d0d0d"/><path d="m62.4794 73.9992c-.0488-.0104-.1001-.0146-.1461-.0323-.1905-.0733-.5119.0165-.5422-.253-.0355-.3151.3083-.2709.5023-.3615.2618.1581.2621.3915.186.6468z" fill="#f7f5f6"/><path d="m90.6868 72.1448c-.1051.4696-.6185.8561-1.1687.8669-.4933.0096-.6775-.3458-.7961-.7339-.134-.4384.0774-.7692.424-1.0081.3167-.2184.9755-.0908 1.3059.2223-.2804.4506-.2423.5564.2349.6528z" fill="#0d0d0d"/><path d="m90.6868 72.1448c-.4772-.0965-.5154-.2022-.235-.6529.4585.081.3811.3546.235.6529z" fill="#ebe6cd"/></svg>