<svg enable-background="new 0 0 141.782 141.8351" viewBox="0 0 141.782 141.8351" xmlns="http://www.w3.org/2000/svg"><path d="m70.4849 141.8351c19.4243-.2261 35.9548-6.7233 49.6247-19.902 13.4847-13.0001 20.7872-29.0526 21.596-47.7802.8727-20.2072-5.7345-37.8569-19.7492-52.4501-12.9878-13.524-29.0708-20.82-47.8178-21.6269-20.207-.8698-37.8568 5.74-52.4461 19.7586-13.5334 13.004-20.8282 29.1027-21.6195 47.8726-.8521 20.2105 5.7597 37.8656 19.8087 52.4246 13.8677 14.371 31.044 21.4286 50.6032 21.7034z" fill="#fff"/><path d="m70.4849 141.8351c-19.5592-.2748-36.7355-7.3324-50.6032-21.7034-14.049-14.559-20.6608-32.2141-19.8087-52.4246.7913-18.7699 8.0861-34.8685 21.6196-47.8726 14.5892-14.0186 32.2391-20.6284 52.446-19.7586 18.7469.8069 34.8299 8.103 47.8177 21.6268 14.0147 14.5932 20.6219 32.2429 19.7492 52.4501-.8087 18.7276-8.1113 34.7801-21.596 47.7802-13.6698 13.1787-30.2003 19.676-49.6246 19.9021zm-26.7722-10.0742c.0682.4501.4909.4211.7771.5396.869.3596 1.6965.8304 2.6306 1.0228.9744.2025 1.8778.6176 2.8072.9513 2.0915.751 4.2475 1.2717 6.394 1.8245 1.2668.3263 2.5509.584 3.8554.7209.1306.159.3123.1854.5025.2087.6068.0745 1.2146.1449 1.8181.2414 1.6465.2633 3.3062.3819 4.9683.479.1904.0111.3753-.0015.5436-.1038.2549.149.5328.2068.825.2055 2.3907-.0103 4.7789.0063 7.1689-.1839 2.0368-.1621 4.0568-.4062 6.0708-.7339 3.0301-.493 6.0027-1.2175 8.9316-2.1363 3.9416-1.2365 7.718-2.8613 11.3741-4.774.4203-.2198.8172-.4844 1.2248-.728.4788-.0993.8064-.5229 1.2942-.6029.3569-.19.7378-.3456 1.0667-.5757 1.7787-1.2444 3.6379-2.3734 5.3368-3.7327.5527-.4422 1.1978-.7846 1.6916-1.2812.8342-.8388 1.7857-1.5387 2.655-2.3345.9241-.8459 1.7933-1.7481 2.7132-2.5973.936-.864 1.7661-1.8454 2.6158-2.7992.6412-.7198 1.2616-1.4605 1.8531-2.2216.919-1.1826 1.8211-2.3769 2.6792-3.6078.7115-1.0206 1.3825-2.0674 2.0471-3.1142.8554-1.3475 1.5983-2.7675 2.3675-4.1684.3414-.6217.6984-1.2489.9773-1.8893.862-1.9795 1.7925-3.9301 2.5473-5.9577.9056-2.4325 1.7237-4.8911 2.3486-7.4094.6869-2.7685 1.1467-5.577 1.459-8.4146.168-1.5263.3386-3.0568.3653-4.5844.0637-3.6395.0986-7.2818-.3761-10.9083-.2101-1.6054-.4112-3.2108-.6943-4.805-.5836-3.2865-1.4957-6.4837-2.6251-9.6211-.7278-2.0221-1.5255-4.0173-2.4572-5.9538-1.0152-2.1101-2.0938-4.1869-3.2884-6.2051-2.0476-3.4593-4.4225-6.6778-7.0793-9.6847-1.4263-1.6142-2.8932-3.192-4.4968-4.6451-1.6115-1.4601-3.2383-2.8981-4.9527-4.2336-4.4233-3.4455-9.2569-6.1977-14.3857-8.4424-3.3345-1.4594-6.7645-2.6487-10.2966-3.5282-2.4689-.6148-4.9734-1.0337-7.5011-1.3473-1.7783-.2206-3.5622-.4307-5.3443-.4658-3.3315-.0655-6.6672-.1159-9.9942.2647-1.8971.217-3.7956.4214-5.6728.7611-5.4375.9838-10.6333 2.7407-15.6329 5.0713-2.1369.9961-4.2148 2.1119-6.2529 3.308-4.545 2.6673-8.624 5.9301-12.4147 9.5654-2.0026 1.9205-3.8188 4.0175-5.5647 6.1732-2.5717 3.1753-4.7728 6.5968-6.6797 10.2052-1.3485 2.5517-2.5645 5.1669-3.584 7.8716-.9155 2.4286-1.7275 4.8895-2.3502 7.4086-.6804 2.7526-1.1451 5.5432-1.4486 8.3645-.1825 1.6967-.3603 3.3947-.3818 5.0978-.0439 3.4863-.0668 6.973.386 10.4454.2071 1.5887.4011 3.1786.6852 4.7551.5888 3.2666 1.4814 6.4507 2.6091 9.5723.7362 2.0379 1.5317 4.0512 2.4683 6.0041 1.0126 2.1115 2.099 4.1835 3.286 6.2066 2.6227 4.4701 5.8317 8.4844 9.3923 12.226 1.7468 1.8356 3.6606 3.4965 5.6067 5.1214 3.604 3.009 7.5304 5.5218 11.6701 7.7172.6516.3456 1.3455.6067 1.9577 1.0386.1459.103.4002.3797.6752.1285.2836.0754.5018.3366.8278.2909z" fill="#5f6065"/><path d="m42.8849 131.4701c-.2751.2513-.5293-.0255-.6752-.1285-.6122-.432-1.3061-.6931-1.9577-1.0386-4.1397-2.1954-8.0661-4.7082-11.6701-7.7172-1.9461-1.6249-3.8599-3.2858-5.6067-5.1214-3.5606-3.7416-6.7696-7.7559-9.3923-12.226-1.187-2.0231-2.2734-4.0952-3.286-6.2066-.9366-1.9529-1.7321-3.9661-2.4683-6.0041-1.1277-3.1216-2.0203-6.3058-2.6091-9.5723-.2841-1.5764-.4781-3.1663-.6852-4.7551-.4527-3.4724-.4298-6.9591-.386-10.4454.0214-1.7031.1992-3.4011.3818-5.0978.3035-2.8213.7682-5.6119 1.4486-8.3645.6227-2.5191 1.4347-4.98 2.3502-7.4086 1.0195-2.7047 2.2355-5.3199 3.584-7.8716 1.9069-3.6084 4.108-7.0298 6.6797-10.2052 1.7459-2.1557 3.5621-4.2527 5.5647-6.1732 3.7907-3.6353 7.8697-6.8981 12.4147-9.5654 2.0381-1.1961 4.116-2.3119 6.2529-3.308 4.9996-2.3306 10.1953-4.0875 15.6329-5.0713 1.8772-.3396 3.7757-.5441 5.6728-.7611 3.3271-.3806 6.6627-.3302 9.9942-.2647 1.7821.035 3.566.2452 5.3443.4658 2.5277.3136 5.0321.7325 7.5011 1.3473 3.5322.8796 6.9621 2.0689 10.2966 3.5282 5.1288 2.2447 9.9624 4.9969 14.3857 8.4424 1.7144 1.3354 3.3412 2.7734 4.9527 4.2336 1.6036 1.453 3.0706 3.0309 4.4968 4.6451 2.6568 3.0069 5.0317 6.2254 7.0793 9.6847 1.1946 2.0182 2.2732 4.095 3.2884 6.2051.9317 1.9365 1.7294 3.9317 2.4572 5.9538 1.1293 3.1374 2.0415 6.3346 2.6251 9.6211.2831 1.5943.4841 3.1996.6943 4.805.4747 3.6265.4398 7.2688.3761 10.9083-.0267 1.5276-.1973 3.0581-.3653 4.5844-.3123 2.8375-.772 5.646-1.459 8.4146-.6248 2.5183-1.443 4.9769-2.3486 7.4094-.7548 2.0276-1.6853 3.9782-2.5473 5.9577-.2789.6404-.6359 1.2676-.9773 1.8893-.7692 1.4009-1.5121 2.8209-2.3675 4.1684-.6645 1.0468-1.3356 2.0935-2.0471 3.1142-.8581 1.2309-1.7602 2.4252-2.6792 3.6078-.5915.7611-1.2119 1.5018-1.8531 2.2216-.8497.9538-1.6798 1.9352-2.6158 2.7992-.9199.8491-1.7891 1.7514-2.7132 2.5973-.8693.7958-1.8208 1.4957-2.655 2.3345-.4938.4965-1.139.839-1.6916 1.2812-1.6989 1.3594-3.5581 2.4883-5.3368 3.7327-.3288.2301-.7098.3857-1.0666.5757.0035-.0635.007-.127.0105-.1906-.0024-.1103-.0047-.2206-.0071-.3308.0271-.2363.1181-.4872.0684-.7061-.1097-.4825.1294-.9861-.1939-1.4659-.4076-.6048-.971-1.0552-1.4281-1.608-.5911-.715-1.3477-1.2523-2.0968-1.7876-.3182-.2274-.4461-.4918-.3439-.8661.14-.5131.1735-1.042.2327-1.5669.1376-1.2191.2848-2.4374.4001-3.6587.0738-.7815.1054-1.5675.1426-2.352.0612-1.2899.3314-2.5571.3855-3.8499.0503-1.2015.1752-2.4005.291-3.5983.1573-1.6266.3405-3.2507.5068-4.8765.1842-1.8013.3114-3.6103.559-5.4027.1797-1.3006.2834-2.6046.3628-3.9099.1131-1.8583.1961-3.7184.2482-5.5811.087-3.1095.0594-6.2168.0208-9.3254-.0076-.6134-.0491-1.2478.0888-1.834.0905-.3846.1205-.6804-.159-1.0274.276.0296.4791.0406.6782.0744 2.5854.4393 5.1757.8398 7.7962 1.0058 1.5968.1012 3.1963.1688 4.7899.3058.9281.0798 1.8051-.182 2.7079-.2571.4387-.0365.884.006 1.3263.0134.1135.0019.2327.016.2619-.209-2.0732-.0014-4.1099-.3346-6.1661-.3502-1.9464-.0148-3.8804-.1449-5.8097-.4137-1.8049-.2514-3.6008-.5463-5.3905-.887-.2982-.0568-.3842-.2583-.2642-.4107.3235-.4107.1545-.8147.0747-1.2205-.179-.9105-.0141-1.8411-.1662-2.7478-.0853-.5086.056-.5714.5198-.4596 2.5513.615 5.1358 1.0672 7.7224 1.5021 1.6122.2711 3.2371.4666 4.8485.7418 2.7292.466 5.4783.7537 8.2424.725 2.0134-.0209 4.0202-.3339 6.0418-.2641.1881.0065.3438-.0407.4815-.2588-.2097-.0139-.3613-.0436-.5091-.0308-1.3423.1165-2.6731-.1933-4.0289-.0308-1.2819.1536-2.5869.1114-3.8868.0411-1.3661-.0739-2.7236-.2044-4.0798-.3691-1.5525-.1885-3.0853-.4662-4.6123-.818-1.3334-.3072-2.7082-.4276-4.0606-.6665-2.1198-.3744-4.2362-.7491-6.3027-1.3608-.1589-.047-.4127.0319-.4349-.3012-.1231-1.8468-.2478-3.6927-.2848-5.5444-.0083-.4164.1115-.5201.5148-.5444 2.186-.1316 4.3801.0166 6.5633-.2394 2.565-.3008 5.1421-.4467 7.6778-1.0328 2.2571-.5217 4.5102-1.025 6.7056-1.7778 1.3855-.4751 2.8517-.6774 4.2363-1.1659.1854-.0654.4339-.0793.5186-.3591-1.6108.2134-3.0991.8209-4.6786 1.0769-.9749.158-1.9206.5859-2.8899.8587-3.9317 1.1068-7.9747 1.4532-12.0247 1.7229-1.9987.1331-4.0043.1499-6.0086.1155-.7121-.0122-.7117-.0117-.7203-.6941-.0011-.0852.0056-.1744-.0165-.2549-.2805-1.0241-.2529-2.0917-.4417-3.1276-.2565-1.4079-.3399-2.8407-.6472-4.2417-.3338-1.522-.6144-3.0558-.9543-4.5764-.2894-1.2946-.7336-2.5452-1.2022-3.7847-.4775-1.2628-1.17-2.4183-1.813-3.5997-.5889-1.0821-.5546-1.0836.3181-1.9668.2293-.232.5016-.424.6097-.7958.4508-1.5505.2986-3.1083.1623-4.6751-.0967-1.1117-.6026-2.1421-.6481-3.2498-.0352-.8569-.5023-1.4639-.9861-2.0617-1.1831-1.462-2.5312-2.7542-4.082-3.8329-1.12-.7791-2.291-1.3791-3.6981-1.3892-1.6524-.0119-3.1835.5187-4.7061 1.0584-.6585.2334-1.0941.6981-1.1211 1.4871-.0366 1.0704-.1641 2.1327-.4133 3.1826-.2451 1.0325-.6018 2.0124-1.1155 2.9383-.2151.3877-.425.595-.9542.3824-.7669-.3081-1.579-.5737-2.3947-.6764-1.9285-.2427-3.8611-.5036-5.8121-.4918-1.2126.0073-2.4069.1411-3.5636.5534-.3006.1071-.5326.373-.9471.2653-2.8701-.7456-5.7969-.9875-8.7551-.8847-.8604.0299-1.7072.1236-2.4381.6514-.0792.0572-.1848.1015-.2809.1076-.8676.0549-1.7361.0851-2.6041.1445-1.8311.1252-3.6846.0444-5.4477.6925-.2269.0834-.3221-.0567-.3894-.2195-.3553-.8602-.7427-1.7129-1.048-2.5865-.4644-1.329-.741-2.7228-1.1834-4.0606-.3613-1.0925-.6617-2.2081-1.1269-3.2672-.1373-.3127-.2978-.3521-.5965-.256-1.5153.4876-2.9264 1.2028-4.3115 1.9699-1.3451.7449-2.5584 1.6674-3.749 2.6483-1.0883.8966-1.6268 2.0099-1.7797 3.3153-.2261 1.9297-.0393 3.8499.5802 5.6991.1892.5647.482 1.0559 1.2674 1.1427.6001.0664 1.2152.3215 1.8228.5059-.0922.2273-.2834.2187-.4139.2416-.609.1069-1.0584.4442-1.4546.8928-.2126.2407-.4618.4488-.6899.6762-1.0976 1.0942-2.1915 2.1922-3.2918 3.2838-.2992.2968-.3307.5843-.1034.9531.195.3164.3066.6832.4687 1.0212.1392.2902.0356.3549-.2509.3355-.7686-.0522-1.5109.2334-2.2806.1917-.127-.0069-.2772.0332-.2707.1708.006.1283.1618.1546.2836.1612.5283.0287 1.0566.0645 1.5853.0782.2919.0076.7141-.0182.8059.1755.1195.2523-.1761.5568-.3592.7919-1.6304 2.0938-3.6248 3.8264-5.6363 5.5276-.4516.382-.5185.6997-.4059 1.1627.305 1.2542.7167 2.4848.7692 3.7916.0202.5031.1833 1.0497-.1147 1.4808-.3091.4471-.2791.9328-.3596 1.4075-.1304.7692.0789 1.4033.7078 1.9322.3958.3328.6889.7937.8922 1.3066-.0783.0108-.1152.0277-.1423.0177-.2959-.1085-.4927-.3591-.7479-.5265-.4729-.3102-.8141-.1816-.9132.2894-.1722.8182.1867 1.6174.049 2.4315-.0186.1102.1138.1933.2004.2801.5028.5035 1.1364.874 1.5256 1.4929-.0279.0448-.0558.0897-.0837.1345-.2333-.1072-.4578-.2253-.6482-.4048-.2378-.2242-.4953-.2814-.7821-.0705-.2822.2077-.4324.4212-.332.8193.4109 1.6296.7869 3.2682 1.167 4.9054.0579.2494.2113.397.3856.5713.4974.4972 1.2355.7897 1.254 1.6919.0307 1.4964.1845 2.9905.2063 4.4867.0077.5297-.141 1.0669-.0705 1.6096.0311.2393-.0889.404-.2374.5885-.6612.822-1.2983 1.6634-1.9415 2.4998-.1289.1676-.2406.3452-.1607.5798.1995-.0377.255-.1792.3378-.2787.5862-.704 1.1407-1.4342 1.8143-2.0631.1715-.1601.2798-.2736.4973-.066 2.1741 2.0749 4.8285 3.2594 7.6543 4.1346 1.9662.609 3.9246 1.2418 5.9314 1.7099.2448.0571.4711.14.2551.5113-.3044.5232-.5332 1.0903-.7941 1.6388-.0634.1332-.1967.2875.0245.383.1726.0745.2249-.0729.281-.2079.2944-.7096.8056-1.2937 1.1505-1.9733.1121-.2209.2623-.3063.4873-.2523 1.1143.2674 2.2534.3163 3.3893.3911.2016.0133.2907.1154.2522.2959-.0791.3713-.0106.748-.0861 1.1239-.1185.5899-.0369 1.1951-.0307 1.7936.001.1.0353.2703.1917.2467.1217-.0184.1667-.1367.1627-.2762-.0273-.9547.1634-1.8844.3329-2.8166.0802-.4414.4134-.2412.6552-.2623.28-.0245.4065.099.3818.395-.027.3239.0227.6455.1066.9602.0237.089.0825.1691.1694.1657.0921-.0036.1306-.0948.1433-.1861.0416-.2974.1124-.594.1186-.8921.0055-.2645.0753-.3418.3534-.3441 1.5387-.0126 3.0775.0128 4.6159-.0934 1.3406-.0926 2.6587-.3362 3.986-.5156.2175-.0294.4686-.1431.5977-.4189.6678-1.4269 1.3473-2.8486 2.0414-4.2629.5157-1.0507 1.0463-2.0985 1.5227-3.163.5436-1.2147 1.1359-2.396 1.783-3.5548.1239-.2218.3277-.1422.4977-.1545.1753-.0128.1344.1275.1339.2546-.0096 2.3052.0157 4.6106-.0915 6.9148-.0611 1.3136-.3104 2.6076-.4062 3.9139-.1922 2.6183-.5606 5.2117-1.0046 7.794-.4638 2.6972-1.1081 5.3537-1.9472 7.9635-.6839 2.127-1.6314 4.1312-2.6774 6.0963-1.1895 2.2346-2.7545 4.2003-4.3532 6.1453-.7963.9687-1.7103 1.8349-2.4114 2.8893-.3935.5918-.8863 1.1306-1.4941 1.5288-1.2452.8158-2.161 1.9674-3.1105 3.0758-.775.9047-1.4707 1.8772-2.2027 2.8187-1.4424 1.8568-2.7598 3.7967-3.8938 5.8586zm-36.0351-69.3409c1.0089.5017 2.1519.647 3.2505.8968 1.9584.4452 3.9576.3964 5.9611.2933 2.3223-.1195 4.5873-.596 6.876-.9279.7031-.102 1.4382-.2313 2.1156.0084.54.1911.6425-.1259.7247-.455.1041-.4165-.3029-.3733-.5291-.4457-1.1277-.3608-2.2388-.1819-3.3543.1045-.8868.2277-1.7471.5741-2.6694.6494-1.8026.1473-3.6089.1449-5.4158.122-1.7981-.0228-3.5693-.2366-5.3293-.6153-.5659-.1218-1.1226-.2881-1.6988-.4556.0206.2427.1473.3342.25.4498.2708.3048-.2142.1434-.1812.3753zm18.5891 5.3166c.3475.0243.5596-.194.5946-.4865.0352-.2933-.2141-.3786-.4906-.3758-.7832.0078-1.5698.0653-2.3276.2276-1.6173.3465-3.0812 1.0994-4.4521 1.9948-1.7525 1.1447-3.4974 2.2661-5.5411 2.8539-1.5963.4591-3.1547 1.0264-4.8396 1.1373-.8061.0531-1.5985.3074-2.3985.4638-.166.0325-.2548.1223-.2162.2784.0405.1638.1916.1099.3017.0895.2844-.0525.5674-.1134.8493-.1782 1.0093-.232 2.0473-.1845 3.0652-.3193.5854-.0775 1.1601-.2446 1.7352-.389 1.352-.3393 2.7387-.6201 3.9826-1.2473 1.8251-.9202 3.5795-1.98 5.3738-2.9625 1.3551-.7418 2.7732-1.2619 4.3633-1.0867zm-1.5097-3.7359c-.4912.046-.9089.1015-1.3272.1896-1.7077.3596-3.2856 1.0762-4.9021 1.6978-1.9183.7376-3.8691 1.39-5.8862 1.8233-2.0964.4503-4.2298.6269-6.3509.8953-.1038.0131-.2794-.0599-.2729.1283.0067.1956.1525.2236.3338.208 1.2428-.1072 2.4874-.1934 3.7296-.3074 1.5106-.1386 3.0001-.4286 4.4765-.7573 1.4034-.3124 2.8233-.5761 4.1508-1.188 1.3577-.6259 2.7419-1.1932 4.2079-1.5386 1.0596-.2496 2.1279-.3138 3.2025-.2149.2844.0262.5409.0904.6104-.2376.0687-.3246-.2088-.4557-.467-.5-.5203-.0894-1.0473-.1402-1.5052-.1985z" fill="#e2e8a9"/><path d="m60.177 136.8201c-1.3044-.1369-2.5886-.3946-3.8554-.7209-2.1464-.5529-4.3025-1.0735-6.394-1.8245-.9294-.3338-1.8328-.7488-2.8071-.9513-.0833-.1385-.0327-.2646.0478-.3784.6476-.9165 1.2234-1.8804 1.8924-2.7843 1.3885-1.8762 2.8402-3.6982 4.4362-5.4023.1442-.1539.251-.38.5133-.3855.3326.4321.4403.9734.7231 1.4399.6307 1.0402 1.3104 2.0288 2.2125 2.8519.1716.1566.4154.4414.5844.2726.2336-.2334-.1359-.39-.2782-.5466-1.0404-1.1448-1.9931-2.3478-2.3391-3.8977-.129-.5777-.1293-1.1841-.1877-1.7775-.0439-.446-.2855-.5976-.7201-.4509-.1409-.6912.0949-1.3145.3889-1.9095.3245-.6566 1.0694-.8338 1.6832-.4486.1734.1088.346.2305.5361.2981.2975.1057.6014.1432.8508-.1365.2051-.23.4455-.432.6294-.677 1.32-1.7596 2.8608-3.3462 4.035-5.2218.6438-1.0283 1.359-2.0199 1.8727-3.1168.6733-1.4376 1.4979-2.8022 2.0474-4.2998.4408-1.2012.9032-2.3928 1.2549-3.6261.4308-1.511.702-3.0572 1.0563-4.5847.2731-1.1775.4608-2.3751.6738-3.5661.2822-1.5781.4997-3.1662.6721-4.7595.1375-1.271.2369-2.546.3573-3.8189.0379-.4005-.1192-.4554-.4382-.269-1.0097.5901-2.0016 1.1987-2.5587 2.2942-.0602.1183-.1011.2634-.2707.279-.059-.205-.0167-.4067.0165-.6097.2513-1.5345.8857-2.9255 1.6745-4.2403.3492-.5821.7233-1.146 1.3767-1.5276 1.5204-.888 3.1105-1.6402 4.652-2.485.5923-.3246 1.1112-.8012 1.7937-.9587.0197.0203.0397.0403.0601.06-.2893.3256-.679.5156-1.0413.732-1.3258.7919-2.6662 1.5592-4.0023 2.3338-.1475.0855-.3478.1532-.2696.3681.0882.2425.2792.2206.5101.1647.6828-.1655 1.1894-.6432 1.7826-.9645 1.2311-.6669 2.4151-1.4138 3.5622-2.2183.1152-.0808.2592-.2095.3839.0113.0986.1747.0421.2856-.1204.3773-.1633.0921-.3188.1979-.4788.2959-.7121.4362-1.4225.8752-2.1382 1.3054-.1933.1162-.3699.2604-.2451.485.1282.2306.3658.2192.585.0931.1036-.0596.1998-.1317.3009-.1958.8088-.5129 1.618-1.0253 2.3917-1.5155.5262.6259.4054 1.3364.39 2.0142-.0274 1.2062-.3215 2.3848-.3338 3.6031-.0136 1.3441-.3356 2.6711-.5079 4.0075-.3423 2.6553-.7886 5.2971-1.1852 7.9456-.0274.1831-.0017.3746.0039.5621.0026.087.0216.181.1217.1987.0936.0165.1666-.0506.2035-.1283.0579-.1218.1187-.2486.1413-.3797.1012-.5876.1886-1.1775.2825-1.7664.2171-1.3619.4379-2.7231.6517-4.0855.1525-.9717.296-1.9448.4435-2.9173.1422.5531-.0736 1.0782-.066 1.6141.0089.6309-.3736 1.2743.0487 1.8935-.0477.3379-.0781.6792-.1456 1.0131-.6857 3.3877-1.6079 6.7138-2.6428 10.009-.4511 1.4363-.9615 2.8539-1.4143 4.2897-.7354 2.3316-1.4074 4.6837-2.2932 6.9656-.9971 2.5688-2.1624 5.0659-3.2358 7.6021-.0598.1412-.2533.3255-.0403.4488.2198.1273.4513.017.5669-.2034.5988-1.1418 1.442-2.1209 2.1225-3.2065 1.7203-2.7439 3.1703-5.6357 4.6381-8.5187 1.8286-3.5918 2.9646-7.4314 4.0768-11.2776.8496-2.938 1.4686-5.9333 2.044-8.9359.4118-2.1489.6265-4.3219.737-6.506.0469-.926-.0494-1.8464-.11-2.7673-.0482-.7315-.1497-1.4594-.2249-2.1893-.0408-.3965-.1638-.521-.5735-.2948-.4441.2452-.8416.6036-1.375.67.003-1.1098.3087-2.1759.4777-3.2617.0189-.1217.1393-.2124.2631-.0636.3442.4138.5947.1554.8264-.1219 1.0945-1.3099 2.3505-2.4534 3.618-3.5905.6551-.5877 1.2868-1.2144 1.7296-1.9997.1805-.3202.3975-.5571.8569-.3524.7235.3223 1.4855.557 2.2182.8602 1.9489.8067 3.9708 1.3489 6.0338 1.7731 1.319.2712 2.6257.6032 3.9431.8881 1.0021.2167 2.0351.2276 3.0203.5297.2702.0828.4599.1891.3649.4884-.1134.3569-.0611.7154-.0616 1.0717-.0056 4.4152.0187 8.8301-.3019 13.2391-.0979 1.3466-.0723 2.7017-.1328 4.0516-.0428.9547-.1181 1.9089-.2096 2.8604-.1502 1.5619-.3329 3.1207-.4873 4.6823-.1009 1.0199-.1671 2.0432-.2651 3.0634-.1125 1.1708-.2523 2.3389-.3631 3.5098-.1076 1.1383-.2185 2.2773-.2823 3.4185-.0732 1.3099-.3839 2.593-.3618 3.9164.015.8956-.116 1.7936-.179 2.6907-.0895 1.2757-.3885 2.5258-.4604 3.8049-.0126.2244-.0798.4623-.3846.593-.2624.1125-.4915.4359-.095.6749 1.0506.6334 1.9235 1.4769 2.8138 2.3007.7256.6714 1.3949 1.3792 1.1931 2.4989-.1132.6278-.0763 1.2628-.0834 1.8956-.4077.2439-.8046.5084-1.2249.7283-3.6561 1.9127-7.4325 3.5375-11.3741 4.774-2.929.9188-5.9015 1.6433-8.9316 2.1363-2.014.3277-4.034.5718-6.0708.7339-2.39.1902-4.7782.1736-7.1689.1839-.2921.0013-.57-.0565-.825-.2055.5173-.5686 1.0244-1.147 1.5539-1.7039 1.4274-1.5014 2.9667-2.8934 4.3445-4.4436.7027-.7906 1.3609-1.6156 2.1594-2.326 1.4019-1.247 3.0682-2.1056 4.5658-3.2117 1.001-.7393 2.2165-1.1343 3.3097-1.7341.1121-.0615.3212-.0945.2693-.2535-.0648-.1989-.25-.0896-.3919-.0509-1.6665.4545-3.3042.9957-4.926 1.5905-.7497.2749-1.452.6845-2.2552.8102.0597-.0579.1097-.1357.1808-.1704.7052-.3455 1.4157-.6804 2.1204-1.0269.1728-.0849.3855-.1335.4667-.3403-.1075-.1257-.1975-.057-.2937-.0325-1.2509.3184-2.3854.9296-3.5581 1.4381-1.0158.4405-1.9876.9822-2.9811 1.4748-.0885.0439-.2563.1052-.2802.0746-.2887-.3693-.5683-.0731-.8198.0211-1.0492.3927-2.0702.8515-3.0757 1.3481-1.7607.8696-3.4278 1.8829-4.9704 3.1011-.6088.4808-.6021 1.1664-.6631 1.8358-.8622.9244-1.7248 1.8491-2.5874 2.7739z" fill="#594b60"/><path d="m77.7839 92.7743c-.4223-.6192-.0398-1.2626-.0487-1.8935-.0076-.5359.2082-1.061.066-1.6141-.1475.9725-.291 1.9456-.4435 2.9173-.2138 1.3624-.4346 2.7237-.6517 4.0855-.0939.5889-.1812 1.1788-.2825 1.7664-.0226.1311-.0834.2579-.1413.3797-.0369.0777-.1099.1448-.2035.1283-.1001-.0177-.1191-.1117-.1217-.1987-.0056-.1875-.0313-.3789-.0039-.5621.3966-2.6484.8429-5.2903 1.1852-7.9456.1723-1.3364.4943-2.6635.5079-4.0075.0123-1.2183.3065-2.397.3338-3.6031.0154-.6778.1362-1.3883-.39-2.0142-.7737.4901-1.5829 1.0025-2.3917 1.5155-.1011.0641-.1973.1363-.3009.1958-.2192.126-.4568.1375-.585-.0931-.1248-.2246.0518-.3688.2451-.485.7157-.4302 1.4261-.8692 2.1382-1.3054.16-.098.3155-.2038.4788-.2959.1625-.0917.219-.2026.1204-.3773-.1247-.2209-.2688-.0921-.3839-.0113-1.1471.8046-2.3311 1.5514-3.5622 2.2183-.5932.3213-1.0998.799-1.7826.9645-.2309.056-.4219.0778-.5101-.1647-.0782-.2149.122-.2826.2696-.3681 1.336-.7747 2.6765-1.5419 4.0023-2.3338.3623-.2164.752-.4065 1.0411-.7322.0198-.0255.0618-.0654.0561-.0739-.0425-.0647-.0805-.0227-.116.0142-.6825.1575-1.2014.6341-1.7937.9587-1.5416.8448-3.1316 1.597-4.652 2.485-.6534.3816-1.0275.9455-1.3767 1.5276-.7888 1.3149-1.4232 2.7058-1.6745 4.2403-.0332.203-.0755.4047-.0166.6096-.2515.5429-.1821 1.1343-.266 1.7028-.2937 1.9912-.6328 3.9757-.9337 5.9659-.3272 2.1647-.9279 4.2649-1.5506 6.3529-.4821 1.6166-1.1358 3.178-1.9021 4.6928-.8781 1.7357-1.8043 3.4312-2.9342 5.0235-.82 1.1557-1.7432 2.222-2.6093 3.3368-.7614.98-1.6733 1.8283-2.4069 2.8393-.3829.5277-.82 1.1193-1.6076 1.1729-.2225.0151-.3458.2421-.4272.4142-.3901.825-1.0376 1.4662-1.6001 2.1493-1.7547 2.1313-3.6384 4.1523-5.0897 6.5269-.5864.9594-1.14 1.94-1.7555 2.882-.326.0456-.5443-.2155-.8278-.2908 1.134-2.0619 2.4514-4.0018 3.8946-5.8582.732-.9416 1.4278-1.914 2.2027-2.8187.9495-1.1084 1.8652-2.26 3.1105-3.0758.6078-.3982 1.1006-.937 1.4941-1.5288.7011-1.0544 1.6152-1.9206 2.4114-2.8893 1.5987-1.945 3.1637-3.9107 4.3532-6.1453 1.046-1.965 1.9935-3.9693 2.6774-6.0963.8391-2.6097 1.4834-5.2662 1.9472-7.9635.444-2.5822.8124-5.1757 1.0046-7.794.0959-1.3063.3452-2.6003.4062-3.9139.1071-2.3042.0819-4.6096.0915-6.9148.0005-.1271.0414-.2674-.1339-.2546-.1699.0124-.3738-.0673-.4977.1545-.6471 1.1588-1.2394 2.3401-1.783 3.5548-.4764 1.0645-1.007 2.1123-1.5227 3.163-.6941 1.4143-1.3736 2.836-2.0414 4.2629-.129.2757-.3802.3894-.5977.4189-1.3273.1795-2.6454.423-3.986.5156-1.5384.1062-3.0772.0808-4.6159.0934-.2781.0023-.3479.0796-.3534.3441-.0062.298-.077.5947-.1186.8921-.0128.0912-.0512.1825-.1433.1861-.0869.0034-.1456-.0767-.1694-.1657-.0839-.3147-.1336-.6363-.1066-.9602.0247-.2961-.1019-.4195-.3818-.395-.2418.0211-.575-.1791-.6552.2623-.1694.9322-.3602 1.862-.3329 2.8166.004.1395-.041.2579-.1627.2762-.1564.0236-.1907-.1467-.1917-.2467-.0061-.5985-.0878-1.2037.0307-1.7936.0755-.3759.007-.7526.0861-1.1239.0385-.1805-.0506-.2826-.2522-.2959-1.136-.0748-2.2751-.1236-3.3893-.3911-.2251-.054-.3752.0315-.4873.2523-.3449.6796-.8561 1.2637-1.1505 1.9733-.056.135-.1083.2824-.281.2079-.2212-.0955-.0878-.2497-.0245-.383.2609-.5485.4897-1.1156.7941-1.6388.216-.3712-.0103-.4542-.2551-.5113-2.0069-.4681-3.9652-1.1009-5.9314-1.7099-2.8258-.8752-5.4802-2.0597-7.6543-4.1346-.2175-.2076-.3259-.0941-.4973.066-.6736.6289-1.2281 1.3591-1.8143 2.0631-.0828.0995-.1383.241-.3378.2787-.0799-.2346.0318-.4122.1607-.5798.6432-.8364 1.2803-1.6778 1.9415-2.4998.1484-.1845.2684-.3492.2374-.5885-.0705-.5427.0782-1.0799.0705-1.6096-.0218-1.4962-.1755-2.9903-.2063-4.4867-.0185-.9022-.7567-1.1947-1.254-1.6919-.1743-.1742-.3277-.3219-.3856-.5713-.3801-1.6373-.7561-3.2758-1.167-4.9054-.1004-.3981.0498-.6116.332-.8193.2868-.211.5443-.1537.7821.0705.1904.1795.4149.2975.6482.4047.0133.0335.0376.0533.0728.0594.0545.0518.1164.128.1853.0404.0443-.0563-.0206-.1054-.071-.1396-.0345-.0315-.0689-.0631-.1034-.0947-.3892-.6189-1.0228-.9893-1.5256-1.4929-.0867-.0868-.2191-.1699-.2004-.2801.1377-.8142-.2212-1.6133-.049-2.4315.0991-.471.4403-.5996.9132-.2894.2551.1674.452.418.7479.5265.0271.0099.064-.007.1423-.0177-.2034-.5128-.4965-.9737-.8922-1.3066-.6289-.5289-.8383-1.163-.7078-1.9322.0805-.4747.0505-.9603.3596-1.4075.298-.4311.1349-.9777.1147-1.4808-.0525-1.3068-.4642-2.5375-.7692-3.7916-.1126-.463-.0457-.7807.4059-1.1627 2.0115-1.7012 4.0059-3.4338 5.6363-5.5276.1831-.2351.4787-.5396.3592-.7919-.0917-.1937-.5139-.1679-.8059-.1755-.5288-.0137-1.057-.0495-1.5853-.0782-.1218-.0066-.2776-.0329-.2836-.1612-.0065-.1376.1437-.1777.2707-.1708.7697.0416 1.512-.2439 2.2806-.1917.2865.0194.3901-.0453.2509-.3355-.1621-.338-.2737-.7048-.4687-1.0212-.2273-.3688-.1958-.6562.1034-.9531 1.1002-1.0916 2.1941-2.1896 3.2918-3.2838.2281-.2274.4774-.4354.6899-.6762.3962-.4486.8455-.7859 1.4546-.8928.1305-.0229.3217-.0143.4139-.2416-.6076-.1844-1.2226-.4395-1.8228-.5059-.7854-.0869-1.0782-.5781-1.2674-1.1427-.6195-1.8492-.8063-3.7694-.5802-5.6991.1529-1.3053.6915-2.4187 1.7797-3.3153 1.1906-.9809 2.4039-1.9034 3.749-2.6483 1.3851-.767 2.7963-1.4823 4.3115-1.9699.2987-.0961.4592-.0567.5965.256.4652 1.0591.7656 2.1747 1.1269 3.2672.4424 1.3378.719 2.7316 1.1834 4.0606.3053.8736.6927 1.7264 1.048 2.5865.0672.1628.1624.3029.3894.2195 1.7631-.6482 3.6166-.5674 5.4477-.6925.868-.0593 1.7365-.0896 2.6041-.1445.0961-.0061.2017-.0505.2809-.1076.7309-.5278 1.5777-.6215 2.4381-.6514 2.9583-.1028 5.8851.1391 8.7551.8847.4145.1077.6466-.1582.9471-.2653 1.1568-.4122 2.351-.5461 3.5636-.5534 1.951-.0118 3.8836.2491 5.8121.4918.8156.1027 1.6278.3683 2.3947.6764.5291.2126.7391.0053.9542-.3824.5137-.9258.8704-1.9058 1.1155-2.9383.2492-1.0499.3767-2.1121.4133-3.1826.027-.789.4626-1.2537 1.1211-1.4871 1.5226-.5397 3.0537-1.0703 4.7061-1.0584 1.4071.0101 2.5781.6101 3.6981 1.3892 1.5508 1.0788 2.8989 2.371 4.082 3.8329.4838.5978.9509 1.2048.9861 2.0617.0454 1.1077.5514 2.1381.6481 3.2498.1362 1.5669.2884 3.1246-.1623 4.6751-.1081.3718-.3804.5638-.6097.7958-.8727.8831-.9071.8846-.3181 1.9668.6429 1.1814 1.3355 2.3368 1.813 3.5997.4687 1.2395.9128 2.4901 1.2022 3.7847.3399 1.5206.6205 3.0544.9543 4.5764.3073 1.401.3907 2.8339.6472 4.2417.1887 1.0359.1611 2.1034.4417 3.1276.022.0805.0154.1697.0165.2549.0086.6824.0082.6819.7203.6941 2.0043.0345 4.0099.0177 6.0086-.1155 4.0499-.2697 8.093-.6161 12.0247-1.7229.9692-.2729 1.9149-.7007 2.8899-.8587 1.5795-.256 3.0678-.8636 4.6786-1.0769-.0846.2799-.3331.2937-.5186.3591-1.3846.4884-2.8508.6908-4.2363 1.1659-2.1954.7528-4.4485 1.2561-6.7056 1.7778-2.5357.5861-5.1128.732-7.6778 1.0328-2.1833.2561-4.3774.1079-6.5633.2394-.4034.0243-.5232.1281-.5148.5444.0371 1.8517.1617 3.6976.2848 5.5444.0222.3331.276.2542.4349.3012 2.0665.6117 4.1829.9864 6.3027 1.3608 1.3523.2389 2.7271.3593 4.0606.6665 1.527.3518 3.0598.6295 4.6123.818 1.3562.1647 2.7137.2952 4.0798.3691 1.2999.0704 2.6049.1126 3.8868-.0411 1.3558-.1625 2.6865.1473 4.0289.0308.1479-.0128.2994.0169.5091.0308-.1377.218-.2934.2653-.4815.2588-2.0216-.0698-4.0284.2433-6.0418.2641-2.7641.0286-5.5132-.259-8.2424-.725-1.6114-.2752-3.2364-.4707-4.8485-.7418-2.5866-.4349-5.1711-.8871-7.7224-1.5021-.4638-.1118-.6052-.049-.5198.4596.1521.9066-.0129 1.8372.1662 2.7478.0798.4058.2487.8098-.0747 1.2205-.12.1523-.0341.3539.2642.4107 1.7898.3407 3.5856.6356 5.3905.887 1.9293.2687 3.8633.3988 5.8097.4137 2.0562.0157 4.0929.3488 6.1661.3502-.0292.225-.1484.2109-.2619.209-.4423-.0074-.8876-.0499-1.3263-.0134-.9027.0751-1.7797.3369-2.7079.2571-1.5936-.137-3.1931-.2046-4.7899-.3058-2.6205-.166-5.2108-.5665-7.7962-1.0058-.1992-.0338-.4022-.0448-.6782-.0744.2795.3469.2495.6427.159 1.0274-.1379.5862-.0965 1.2206-.0888 1.834.0387 3.1086.0662 6.2159-.0208 9.3254-.0521 1.8626-.135 3.7228-.2482 5.5811-.0795 1.3052-.1831 2.6092-.3628 3.9099-.2477 1.7924-.3749 3.6014-.559 5.4027-.1662 1.6258-.3494 3.2499-.5068 4.8765-.1159 1.1978-.2408 2.3969-.291 3.5983-.0541 1.2929-.3242 2.56-.3855 3.8499-.0372.7846-.0688 1.5705-.1426 2.352-.1154 1.2213-.2625 2.4396-.4001 3.6587-.0592.5248-.0927 1.0538-.2327 1.5669-.1022.3744.0257.6388.3439.8661.7491.5353 1.5057 1.0726 2.0968 1.7876.4571.5528 1.0205 1.0032 1.4281 1.608.3233.4798.0842.9834.1939 1.4659.0498.2189-.0412.4697-.0684.7061-.1055.1126-.0668.2221.0071.3308-.0035.0635-.007.1271-.0105.1906-.4878.0799-.8155.5035-1.2942.6027.0071-.6329-.0298-1.2679.0834-1.8957.2018-1.1197-.4675-1.8274-1.1931-2.4989-.8903-.8238-1.7632-1.6673-2.8138-2.3007-.3964-.239-.1674-.5623.095-.6749.3049-.1307.372-.3686.3846-.593.072-1.2791.3709-2.5292.4604-3.8049.0629-.8971.1939-1.795.179-2.6907-.0221-1.3234.2886-2.6065.3618-3.9164.0638-1.1413.1747-2.2802.2823-3.4185.1107-1.1709.2506-2.339.3631-3.5098.098-1.0202.1642-2.0435.2651-3.0634.1544-1.5615.3371-3.1203.4873-4.6823.0915-.9515.1668-1.9056.2096-2.8604.0605-1.3499.0349-2.705.1328-4.0516.3206-4.4089.2963-8.8239.3019-13.2391.0005-.3563-.0518-.7148.0616-1.0717.0951-.2993-.0947-.4055-.3649-.4884-.9852-.3021-2.0182-.3129-3.0203-.5297-1.3174-.2849-2.6241-.6169-3.9431-.8881-2.063-.4242-4.0849-.9664-6.0338-1.7731-.7327-.3033-1.4947-.5379-2.2182-.8602-.4595-.2047-.6764.0322-.8569.3524-.4428.7853-1.0745 1.4121-1.7296 1.9997-1.2675 1.1371-2.5234 2.2807-3.618 3.5905-.2317.2773-.4823.5357-.8264.1219-.1238-.1488-.2441-.0581-.2631.0636-.1689 1.0857-.4747 2.1519-.478 3.2615-.0988.2912-.1107.5956-.1543.8968-.3152 2.1738-.4729 4.3676-.85 6.5339-.2184 1.2546-.3136 2.5337-.5899 3.7738-.1269.5659-.025 1.2413-.5363 1.6969zm-9.9909-9.3446c-.1158.0991-.2816.1691-.2439.3963.253-.041.2502-.2146.2652-.3762.2531-.0452.178-.2543.2059-.412.3687-.2094.3812-.6427.5962-.9487 1.9513-.9496 3.9023-1.8997 5.854-2.8485.6275-.305 1.2575-.6048 1.8844-.911.1062-.0519.2369-.118.1417-.2686-.0725-.1147-.1781-.0549-.2712-.0072-.0915.0468-.1861.0877-.2765.1365-1.9095 1.031-3.8692 1.9394-5.9303 2.6397-.5858.199-1.1908.5378-1.4832 1.1819-.3426.2505-.4525.6232-.5315 1.0121-.1758.0805-.2046.2372-.2108.4057zm-25.8091-36.1051c.8848-.2013 1.6187-.7369 2.5813-1.114-.5171-.0628-.9201-.1246-1.1057-.4901-.1748-.3444-.4202-.386-.7494-.3489-.1847.0208-.3751-.011-.563-.0165-.6822-.02-1.3614-.0353-2.0313.1539-.3359.0948-.3591.2389-.2001.5167.2398.4188.6762.5608 1.0475.7964.1285.2279.6239.4051.1.7232-.0815-.0244-.1615-.0584-.2448-.0717-1.0115-.161-1.8021-.5858-2.0406-1.6844-.0281-.1293-.122-.1981-.2583-.2062-.4909-.0292-.9816-.0809-1.4727-.0855-.7914-.0074-1.5831.1575-2.3749-.0082-.3-.0628-.4902.0365-.5513.3624-.0274.1458-.1149.2803-.1751.42-.2725.3716-.5287.7567-.8204 1.1126-1.3045 1.5913-2.7681 3.0296-4.3676 4.3172-.6174.497-1.104.9469-.75 1.8015.3233 1.0294.3487 2.1307.7358 3.1884.6196-.446 1.098-.9621 1.5198-1.5352.3427-.3774.6854-.7548 1.0281-1.1323.2142-.0241.4412-.2334.6216.0966.1031.1886.1863.0019.2604-.0728 1.0059-1.0137 1.9225-2.0973 2.6934-3.3055.2321-.3637.5118-.7088.9746-.8577.5337-.1717 1.0482-.4033 1.5702-.6111.7196-.2865.8533-.814.3652-1.4351-.1169-.1487-.2151-.3055-.2584-.4941-.0483-.2106-.1861-.4649.0787-.5889.2493-.1167.4236.1123.5317.2962.2686.4572.6411.7874 1.104 1.0293.1671.0873.2328.3999.4914.2706.4361-.218.9475-.2574 1.3394-.5748.3173-.1291.667-.1926.9205-.452zm5.5729-2.2335c-.2116.0605-.334.2128-.4169.4056-.7882.7967-1.7317 1.3311-2.7628 1.766-2.2022.9289-4.362 1.955-6.597 2.8118-.821.3147-1.723.5725-2.2031 1.463-.1905.3534-.4758.6654-.759.9562-.2239.2299-.08.2725.1044.3364.8414.2913 1.6962.5367 2.5768.6718 2.1116.3239 4.2329.4955 6.371.5852 1.6202.068 3.2418.1301 4.8615.1405.9658.0062 1.947.1071 2.9075-.1208.1527.0111.3052.0265.4581.0325 1.8319.0714 3.659-.1265 5.4902-.0969.4048.2535.4382.5245.1457.927-.5189.7138-1.2489 1.1512-1.9622 1.6091-1.1053.7095-2.2349 1.3809-3.3488 2.0771-.7102.4439-1.403.9169-2.1793 1.2439-.265.1116-.5307.1683-.7494-.0902-.1777-.21-.1826-.4286-.0184-.6563.3621-.502.4028-1.1518.7595-1.6588.174-.2474.0345-.2952-.2046-.3354-.3937-.0661-.7864-.0471-1.1782-.0413-1.2892.0193-2.547.0036-3.6483.9534-.6238.538-1.506.7774-2.2744 1.146-.2647.127-.5336.2414-.6448.5471-.5007 1.3757-.9564 2.7614-1.2467 4.2032-.1916.9516-.376 1.9081-.5965 2.8494-.1601.6834-.3079 1.3515-.3441 2.0505-.0131.2529.0699.4161.2753.5578 1.759 1.2138 3.4493 2.5126 4.9266 4.0671.9668 1.0173 1.8047 2.1441 2.6508 3.258.2618.3447.5.4658.8974.5215 1.2799.1794 2.5678.0084 3.8454.1251 2.3243.2123 4.4547-.2596 6.4513-1.5233 1.2435-.7871 2.4441-1.6218 3.6039-2.5192.7358-.5694 1.4732-1.1444 2.1023-1.8896-.094-.0215-.1432-.049-.1844-.0399-1.8696.4121-3.7598.686-5.6663.8519-1.1925.1038-2.2671-.1548-3.1617-1.0022-.2063-.1954-.4478-.3914-.3239-.6871.1384-.3303.4979-.2176.7338-.1727.823.1566 1.6121.0418 2.4301-.0837 2.8791-.4419 5.5493-1.4483 8.1015-2.814.2506-.1341.48-.2912.5704-.5621.2364-.7089.292-1.4524.1728-2.1774-.164-.9979-.203-.9885-1.1331-.5945-1.2257.5192-2.4602 1.0181-3.6787 1.5535-1.6374.7195-3.3194 1.2491-5.116 1.3783-.5048.0363-.9061-.155-1.2609-.4601-.2301-.1979-.3235-.4898-.2292-.7932.0919-.2955.3195-.4172.6294-.4299.283-.0116.5739-.0269.8449-.1009 1.6941-.4626 3.3922-.9173 4.9425-1.7816 1.0879-.6065 2.2101-1.1525 3.1834-1.9514.3316-.2722.2695-.4194.0337-.7368-.672-.9047-1.5502-1.6386-2.1336-2.6117-.0935-.156-.2027-.1748-.3832-.1548-.4664.0517-.8898.2351-1.3294.3699-1.9759.6061-3.8521 1.4077-5.3796 2.85-.2843.2684-.6171.255-.9297.291-.2994.0345-.3679-.2156-.2283-.4593.1095-.1911.2858-.3312.4612-.4724.4214-.3396.854-.674 1.2272-1.0631.9999-1.043 1.9617-2.1226 2.9609-3.1663.2167-.2264.2378-.3094.0061-.5558-.6712-.7139-1.3487-1.4188-2.0803-2.071.1228-.4667.3441-.5822.7683-.4315.3756.1334.5712.4889.8859.6866.9185.5771 1.5261 1.424 2.1105 2.3064.2415.3646.1461.5947-.1941.7307-.5799.2318-1.0049.6998-1.5599.9649-.1296.0619-.2232.1835-.198.395.8385-.3246 1.6409-.6109 2.4725-.8068 1.9926-.4695 2.0142-.4915 3.3807 1.0269.6769.7522 1.4836 1.4338 1.7277 2.4994.0519.2264.0645.3834-.0754.6088-.323.5203-.8066.8299-1.305 1.111-1.3499.7614-2.682 1.567-4.1385 2.1144-1.449.5446-2.88 1.1831-4.4806 1.1481-.0955-.0021-.2143-.0131-.238.1412.1903.0961.3977.0721.5942.0608.8569-.0492 1.6844-.2674 2.5025-.5033 2.3484-.6772 4.5196-1.8368 6.8635-2.5353.7392-.2203 1.1907-.0608 1.3251.7175.1837 1.0636.2366 2.1381.0431 3.2121-.0345.1913-.0966.3703-.2273.5079-.5565.5864-1.1576 1.089-1.9521 1.3618-.8376.2877-1.6868.5395-2.5208.8322-1.5855.5563-3.218.9027-4.856 1.245-.3596.0751-.7568.0007-1.0869.2385.8039.0555 1.5969.0389 2.3969-.0254 1.7719-.1425 3.5192-.4267 5.2569-.7839.2389-.0491.5475-.1364.67.0548.1467.2289.1221.5629-.0156.8321-.0761.1488-.1912.2858-.314.4012-.5221.4911-.9483 1.0728-1.5064 1.5328-.656.5407-1.2206 1.21-1.9249 1.6706-1.1842.7746-2.3183 1.6346-3.5892 2.2739-1.1679.5874-2.3523 1.1126-3.7089 1.0045-.5246-.0418-1.0584-.0143-1.5729.0195-1.8119.1192-3.6159.0402-5.423-.0442-.3018-.0141-.5721-.1139-.6893-.3694-.2126-.4631-.558-.8045-.8933-1.1652-1.1491-1.2361-2.1604-2.6002-3.4473-3.7085-.1684-.1451-.3246-.3076-.5744-.2942-1.3839.0747-2.7704-.0322-4.1334-.1901-1.2338-.143-2.2724.0076-3.1696.8845-.4484.4383-1.1432.5439-1.5018 1.1056-.3973.1318-.7376.3737-1.1013.5703-.1157.0174-.2398.0137-.3457.0558-.5526.2197-1.0779.2692-1.5808-.2926.0219.3771.0381.6561.0543.9352.0413.4719.1346.9462.1116 1.415-.0337.688.375 1.3605.0575 2.0516-.0581.0625-.1229.1438-.0251.2009.0579.0338.0977-.0582.1197-.1191.2174-.0421.46-.2617.6358.0485.1523.2687-.0484.4432-.2112.6228-.2065.2279-.4021.4657-.6079.6944-.1668.1853-.0032.279.1064.3714.1634.1377.1789-.0339.2441-.1258.1654-.2334.2207-.5451.5002-.6981.1451-.0794.2869-.1229.4267-.0004.1504.1318.0991.2722.0079.4121-.1119.1717-.22.3459-.3337.5164-.1695.2542-.1833.4105.1555.5794 1.2519.6242 2.4941 1.2734 3.7192 1.9442 1.5322.839 3.1414 1.4734 4.7711 2.0572 1.0725.3842 2.2004.6175 3.3098.8925.2923.0725.626.1169.907.0442.1698-.0439.1691-.3783.2426-.5835.0917-.2558.3309-.3215.5476-.2742.2879.0628.1555.307.096.4626-.149.3891-.0385.5843.3794.6054.2039.0103.4084.0195.6111.0428.6642.0765 1.3692-.1131 1.9819.3038.4007.2726.5509.212.5552-.2641.0033-.3614.1398-.5772.4999-.5543.4294.0273.2285.3478.2356.5799.0058.1886-.146.4668.24.499.2972.0247.453-.0386.4235-.3796-.0159-.1829.0965-.3359.2967-.361.1534-.0192.3537-.0068.3623.1867.0179.4031.2972.3483.5457.3538.2909.0065.5823-.0079.8731-.0006 2.1416.054 4.2651-.1638 6.3859-.4215.2941-.0357.5174-.1384.6902-.4404.9334-1.6315 1.5578-3.4068 2.4096-5.0773.9468-1.8569 1.7927-3.7653 2.6814-5.6518.2827-.6001.6497-1.0373 1.4126-.798.1019.032.2314-.024.3481-.0392.9625.0416 1.9058-.1412 2.855-.2497 1.0691-.1223 2.145-.2887 3.2146-.2243 1.0577.0637 2.122.1197 3.1738.1214 1.7182.0028 3.4145.1802 5.109.3877.4082.05.6325-.0488.893-.2947.5929-.5597 1.2112-1.0924 1.8036-1.6526 1.0136-.9584 2.1039-1.8421 2.9638-2.9764-.0725-.0423-.1263-.0834-.1868-.1077-2.257-.9065-4.5782-1.5639-6.9887-1.9334-2.0641-.3164-4.1265-.5434-6.2187-.5074-1.0273.0177-2.0333.2626-3.0647.2185-.3259-.0139-.531-.1329-.6203-.4225-.0737-.2391.445-.9438.7155-.9814.5739-.0798 1.149-.184 1.726-.2028 1.6259-.0531 3.2565-.1132 4.8754.0923 1.7438.2214 3.4886.4749 5.152 1.0714 1.6069.5763 3.1959 1.2029 4.7863 1.8242.3462.1352.5497.0894.7659-.2373.7098-1.0726 1.3433-2.185 1.9171-3.3355.1469-.2944.06-.376-.2016-.4431-1.2056-.3087-2.4229-.58-3.6117-.944-1.8581-.569-3.7409-.941-5.6884-.9429-1.0913-.0011-2.18.0516-3.2614.2085-1.2821.186-2.5726.3109-3.8467.5562-.8536.1643-1.6809.443-2.5468.5542-.5949.0763-.9413-.2551-.8345-.8249.0788-.4208.4423-.3836.7223-.4488 1.6086-.3743 3.2404-.6318 4.8601-.9501 1.6129-.3169 3.2493-.3986 4.8636-.2702 1.9983.159 3.9559.657 5.8939 1.1853 1.2683.3457 2.533.7051 3.795 1.0733.2749.0802.4488.0543.5783-.2271.4-.869.7946-1.7393 1.1203-2.6402.0849-.2349.0794-.3426-.2064-.3648-.8347-.0646-1.6702-.1297-2.5012-.2297-1.188-.143-2.3884-.1937-3.5687-.3474-2.0203-.2632-4.046-.3616-6.0739-.4515-1.2038-.0534-2.4102.0318-3.6153.0887-1.2225.0577-2.39.3631-3.5502.7051-.7337.2162-1.4123.5728-2.0924.9216-.2948.1512-.6672.1481-.8017-.1632-.1232-.285-.3039-.7045.1651-.9367.9489-.4697 1.9039-.9325 2.9228-1.2275.9704-.2809 1.9754-.3583 2.9819-.4313 2.0996-.1524 4.1985-.1077 6.296-.0051 1.4973.0732 2.9819.2695 4.466.5044 1.8163.2875 3.6574.4164 5.4788.6765.4541.0649.5375-.0971.5812-.4388.1703-1.3329.4146-2.6458.3566-4.0147-.0885-2.0894-.3399-4.1486-.7207-6.1981-.1438-.774-.0923-1.5597-.1585-2.3383-.0289-.3399.214-.5231.4908-.5613.2728-.0377.1801.2621.2554.4139.2079.4189.077.864.1339 1.2931.1549 1.1667.4513 2.2902.8346 3.4083.4487 1.3087.5757 2.6929.5591 4.0803-.0062.5228-.0581 1.045-.0623 1.5677-.0068.8437-.1718 1.663-.3798 2.4717-.1188.4617.1001.5451.4712.5631.935.0454 1.8653.1235 2.7888.2983.4823.0913.9816.1067 1.4743.126.6446.0252 1.2889.0286 1.9336.0819.8688.0718 1.7414.0981 2.6128.136.1765.0077.3284-.0013.2932-.2811-.1128-.8971-.1825-1.7996-.2887-2.6977-.2866-2.4236-.6034-4.8461-1.1971-7.2152-.5535-2.2087-1.4019-4.3251-2.2868-6.4178-.4393-1.039-.8883-2.1084-1.9573-2.7379-.6352-.3741-.8115-.4005-1.4261.0165-.845.5733-1.7707.9816-2.8016 1.0011-.4529.0086-.9145-.0873-1.3777-.0875-.2584-.0001-.4374.0599-.6113.2752-.4076.5047-.8318 1.0011-1.2965 1.4523-.2572.2497-.167.3358.0582.4937.1178.0826.386.1356.2563.3642-.1853.3264-.5645.1665-.8471.2609-.1927.0643-.4298-.065-.4757-.2942-.1056-.5274-.4738-.9039-.7211-1.349-.3045-.548-.6565-1.071-.7804-1.7045-.0726-.3713-.0309-.7529.3271-.8675.3585-.1148.7752-.2529 1.1554-.137 1.0362.3161 2.1234.3243 3.1657.5592 1.3078.2947 2.4222-.1205 3.5005-.7466.6944-.4033 1.3174-.9148 1.944-1.419 1.1499-.9254 1.9561-2.0063 1.7645-3.5875-.1066-.8794-.1633-1.767-.3153-2.6382-.2346-1.3441-.3013-2.6875-1.0535-3.9581-.9465-1.5988-2.1137-2.889-3.5742-4.0056-1.3466-1.0295-2.8078-1.498-4.4753-1.4133-1.1628.0591-2.2549.3741-3.2619.9518-.3095.1775-.5584.4442-.6541.8226-.3303 1.3065-.4518 2.6506-.7327 3.9679-.2535 1.1891-.7356 2.2269-1.5437 3.122-.2586.2864-.5878.3615-.9362.2211-1.2903-.5203-2.6215-.8311-4.008-.9931-1.9344-.2261-3.8433-.185-5.7559.1724-1.1884.2221-2.3736.4477-3.5319.799-.345.1046-.5807-.0004-.6032-.3869-.0137-.2351-.1192-.2994-.3412-.3518-1.4803-.3495-2.9655-.5537-4.4985-.549-1.2665.0038-2.5237.013-3.7644.2585-.7117.1408-1.3857.329-2.1406.3787-1.6438.1081-3.3032.0996-4.9439.4114-2.0253.3848-4.086.5889-5.9898 1.4575-.2961.1351-.5643.1151-.7043-.171-.1577-.3221.0724-.5073.3555-.6159.5246-.2014 1.0483-.4058 1.5782-.5925.3121-.11.4434-.2294.2459-.5828-.6542-1.1703-1.0165-2.4455-1.3722-3.7348-.4621-1.675-.9651-3.3369-1.3134-5.0419-.1239-.6067-.194-.6335-.7615-.3457-.4395.2229-.8392.5227-1.2706.7631-.8501.4735-1.7329.8924-2.5601 1.4021-1.0437.643-2.0634 1.3292-3.0589 2.0449-.6433.4624-1.1561 1.0046-1.1625 1.9278-.0047.6802-.0168 1.3587.0066 2.0407.044 1.2829.1898 2.5502.431 3.81.0704.3679.2667.5465.6152.6537.848.2609 1.6903.5422 2.5245.8443.2191.0793.3837.0515.5844-.0254.9724-.3727 1.9482-.7373 2.9285-1.0887.1645-.059.4099-.1249.5071.0754.0977.2012-.1131.3796-.2537.4496-.5034.2506-.9548.5864-1.4844.802-.5869.2389-1.2416.3643-1.7214.8325-1.3982.2226-2.5573.9304-3.5495 1.8845-1.0525 1.0121-2.0175 2.1147-3.0445 3.1542-.1877.1899-.1824.3169-.0933.5225.1343.3097.3895.5799.3829.9357-.0076.4094.2054.501.5517.4569.1367.0027.2738.0125.4101.0067.5266-.0224 1.0915.1791 1.3839-.5777.1741-.4506.6872-.733.9738-1.1665.2514-.3802.6211-.5731 1.1335-.5267.4523.0409.9172.0094 1.3796-.0373.9827-.0992 1.9729-.0897 2.9557-.24.4911-.0751.633.1472.4772.5356-1.6217.4851-3.3165.5874-4.9686.9188-.6587.1321-1.0343.3729-1.2783.9381.232 0 .4597.0341.6738-.0053 1.9654-.3615 3.9492-.536 5.9429-.6321.6886-.0332.6807.0859.6375-.7384.0855-.6035.1711-1.2071.2565-1.8103.4401-.1369.3851.4335.6931.4852-.0013.5079.2538.9107.528 1.3084.1085.1573.2448.251.4325.2044.9453-.2347 1.9027-.0404 2.8529-.0621.4241-.0097.9556-.091 1.2975.1897.5319.4366 1.0946.2777 1.6476.2396 1.1215-.0773 2.2335-.2794 3.3626-.2678.169.0017.4277-.0273.4383.1579.0125.2193-.2734.2325-.4328.234-.8303.0078-1.6124.2778-2.4185.4127-1.4061.2354-2.8157.3197-4.2316.1257-.6487-.0889-1.0595.2204-1.3758.7316zm42.8998 20.5292c-.0259-.0109-.0518-.0218-.0777-.0327.0122.0246.0244.0492.0365.0738.0399.2943-.0065.5705-.1089.8534-.4173 1.153-1.1415 2.0927-2.0028 2.9393-.1909.1877-.3243.3012.0624.4327 2.0812.7078 4.1605 1.421 6.2937 1.9593 1.8696.4718 3.7404.9398 5.6181 1.3775.8941.2084 1.8055.3427 2.7092.5094.1227.0227.3653.0835.2556-.1298-.2703-.5258-.1153-1.0816-.1932-1.6175-.1155-.7943-.1524-1.6138.0093-2.402.1018-.4965-.0797-.6495-.4917-.7393-3.1365-.6835-6.2108-1.5977-9.2895-2.4972-.9315-.2722-1.832-.6735-2.821-.7269zm-60.2015-9.4112c-.3622.4668-.7176.939-1.0878 1.3993-.9948 1.2371-1.0932 2.9756-.2151 4.2764.2655.3933.5962.7426.8621 1.1356.1676.2478.4046.5705.1649.8425-.2317.2629-.6014.1682-.9117.044-.3006-.1204-.5936-.2596-.8928-.3836-.1265-.0524-.3629-.0825-.297.0957.1933.5223.0546 1.1215.5316 1.5929.6628.6549 1.5295 1.1635 1.7521 2.1931.1136.5257-.0033.7332-.5436.7626-.5298.0287-.9795-.2617-1.5028-.3785 0 .1247-.0126.2267.0019.3247.1944 1.3174.6845 2.5647.9193 3.8725.0397.2212.1899.3514.3453.4881.5411.4761 1.0877.963 1.4483 1.5865.2397.4145.5154.3906.893.3306.6005-.0954 1.0544-.4666 1.5502-.7579 1.5059-.8849 2.951-1.8594 4.2408-3.043.3048-.2797.6957-.5246.7621-.9928.0683-.4817.107-.9649.2351-1.44.3179-1.179.3003-2.4053.4649-3.607.3124-2.2796.4502-4.5594-.3247-6.795-.0731-.211-.1587-.291-.3602-.3492-.8245-.2384-1.6792-.3033-2.5172-.4623-.111-.0211-.2765-.0305-.3398.0323-.1145.1134.0145.2516.0622.3747.0874.2252.342.4314.1074.6965-.2421.2735-.5611.2368-.858.1368-.6648-.2238-1.1827-.6633-1.6389-1.1833-.4981-.5677-1.0307-1.1065-1.4131-1.8426-.1267.2867-.2988.4274-.2954.6519.0167 1.0942-.3171 2.2192.3103 3.2597.1212.2009.2014.4356.2542.6653.0331.1442.3372.3304.009.4551-.2424.0921-.4549-.0579-.5406-.2775-.4625-1.1854-1.1284-2.3128-1.176-3.7041zm72.3292 7.7776c0-.6207-.0046-1.1172.0023-1.6135.0027-.1953-.0335-.3278-.266-.3472-.6961-.0583-1.3901-.1612-2.0871-.1854-.888-.0309-1.7759-.0836-2.662-.1294-1.8226-.0941-3.6403-.2841-5.4598-.4377-.0849-.0072-.1705-.0445-.2245.0516-.0515.0917-.0019.1682.0601.2281.2699.2611.1931.5648.09.8554-.1426.4018-.3317.7874-.467 1.1914-.1404.4189-.2485.8398-.8244.8062-.0919-.0054-.1689.0695-.1774.1574-.0148.1517.1188.1305.2128.1512.3495.0772.698.1588 1.0481.2327 1.3863.2927 2.7028.8245 4.0695 1.1836.9214.2421 1.8478.4655 2.7657.7201 1.216.3374 2.4311.68 3.6355 1.0558.4604.1437.4951-.0262.4913-.4175-.0119-1.2135-.3311-2.4075-.2071-3.5028zm-62.6157.4683c.1091-.3677.2364-.6848.2951-1.0141.2451-1.3738.7192-2.6841 1.0876-4.0236.083-.3018.1954-.5714.5136-.7208 1.0995-.5162 2.1289-1.1587 3.1709-1.7791.5384-.3206 1.0646-.765 1.6787-.8297 1.677-.1767 3.363-.3579 5.0542-.1465.592.074.6931.2422.439.77-.1616.3358-.2978.6929-.5915.9533-.0815.0722-.1665.1776-.0626.3424 1.6625-.958 3.3464-1.871 4.9619-3.1432-2.1807-.0698-4.2092.0791-6.2389.1-2.5981.0267-5.1908-.0874-7.7861-.12-1.0946-.0138-2.1702-.2278-3.2588-.3038-.7677-.0536-1.5242-.1628-2.2819-.3094-.8912-.1724-1.7434-.4802-2.6285-.6682-.2555-.0543-.4094-.0277-.5716.1786-1.1892 1.5125-1.4984 1.0337.1463 2.6471.0472.0463.0868.1057.1675.0719-.0195-.8804.5902-1.3013 1.4554-1.0114 1.02.3417 2.0315.7173 3.0693.9931.4164.1106.5867.3146.7331.6699.3221.782.4315 1.6175.5914 2.4313.2131 1.0844.2852 2.1936.0625 3.3039-.1018.5074-.1241 1.0334-.0066 1.6083zm48.9241-20.9622c.2878-.2805.6962-.4271.9161-.8079-.3971-.0565-.629.1431-.9161.8079zm-12.3322 35.2554c.0348.0143.0879.0548.1114.0418.0522-.0288.0895-.0846.1329-.1293-.0389-.0199-.0798-.059-.1164-.0553-.066.0067-.121.0472-.1279.1428zm12.1602-35.0623c-.0063-.011-.0105-.0284-.0194-.0313-.0116-.0039-.027.0038-.0408.0065.0086.0157.0173.0314.0259.0472.0115-.0075.0229-.0149.0343-.0224z" fill="#0c0c0c"/><path d="m43.7127 131.7609c.6155-.942 1.1691-1.9226 1.7555-2.882 1.4513-2.3746 3.335-4.3957 5.0897-6.5269.5624-.6831 1.21-1.3243 1.6001-2.1493.0814-.1721.2047-.3991.4272-.4142.7876-.0537 1.2247-.6452 1.6076-1.1729.7336-1.011 1.6455-1.8593 2.4069-2.8393.8661-1.1148 1.7892-2.1811 2.6093-3.3368 1.1299-1.5923 2.0561-3.2878 2.9342-5.0235.7663-1.5147 1.42-3.0761 1.9021-4.6928.6226-2.088 1.2234-4.1882 1.5506-6.3529.3008-1.9902.64-3.9747.9337-5.9659.0839-.5686.0145-1.1599.266-1.7028.1697-.0156.2107-.1606.2708-.2789.5571-1.0955 1.5491-1.7041 2.5587-2.2942.319-.1865.4761-.1315.4382.269-.1204 1.2729-.2198 2.5479-.3573 3.8189-.1724 1.5933-.3898 3.1814-.6721 4.7595-.213 1.191-.4007 2.3886-.6738 3.5661-.3543 1.5275-.6254 3.0737-1.0563 4.5847-.3517 1.2333-.8141 2.4249-1.2549 3.6261-.5496 1.4976-1.3742 2.8622-2.0474 4.2998-.5137 1.0969-1.2289 2.0884-1.8727 3.1168-1.1742 1.8755-2.7151 3.4622-4.035 5.2218-.1838.2451-.4243.447-.6294.677-.2494.2797-.5534.2422-.8508.1365-.1901-.0676-.3628-.1893-.5361-.2981-.6138-.3852-1.3587-.208-1.6832.4486-.294.595-.5299 1.2183-.3893 1.9094-.2676.652-.3963 1.3031.001 1.9562.0229.0377.004.1009.0046.1522-.2624.0055-.3691.2315-.5133.3855-1.596 1.7041-3.0477 3.5262-4.4362 5.4023-.669.9039-1.2448 1.8677-1.8924 2.7843-.0804.1139-.1311.2399-.0478.3784-.9342-.1925-1.7617-.6632-2.6307-1.0228-.2866-.1186-.7093-.0897-.7775-.5398z" fill="#958f83"/><path d="m60.177 136.8201c.8626-.9248 1.7252-1.8495 2.5878-2.7743.3653.1469.6613-.0549.9221-.2392 1.5322-1.0826 3.1194-2.0785 4.7006-3.0867 2.6381-1.6821 5.444-3.0391 8.2515-4.3977.8032-.1257 1.5055-.5354 2.2552-.8102 1.6218-.5947 3.2596-1.136 4.926-1.5905.1418-.0387.327-.148.3919.0509.0518.159-.1572.192-.2693.2535-1.0932.5998-2.3087.9948-3.3097 1.7341-1.4976 1.1061-3.1639 1.9647-4.5658 3.2117-.7986.7103-1.4567 1.5354-2.1594 2.326-1.3778 1.5502-2.9171 2.9423-4.3445 4.4436-.5295.557-1.0366 1.1353-1.5539 1.7039-.1683.1023-.3532.115-.5436.1038-1.6621-.0971-3.3218-.2157-4.9683-.479-.6035-.0965-1.2113-.1669-1.8181-.2414-.1902-.0232-.3719-.0496-.5025-.2085z" fill="#958f83"/><path d="m6.8498 62.1292c-.033-.2318.452-.0705.1812-.3753-.1027-.1156-.2293-.2071-.25-.4498.5761.1675 1.1328.3338 1.6988.4556 1.76.3787 3.5312.5925 5.3293.6153 1.8069.0229 3.6132.0253 5.4158-.122.9223-.0754 1.7827-.4217 2.6694-.6494 1.1154-.2864 2.2266-.4652 3.3543-.1045.2262.0724.6331.0292.5291.4457-.0822.3291-.1847.6461-.7247.455-.6774-.2397-1.4125-.1104-2.1156-.0084-2.2887.3319-4.5538.8083-6.876.9279-2.0035.1031-4.0027.1519-5.9611-.2933-1.0986-.2498-2.2416-.3951-3.2505-.8968z" fill="#0c0d0d"/><path d="m25.4389 67.4458c-1.5901-.1752-3.0082.3448-4.3631 1.0868-1.7943.9825-3.5486 2.0423-5.3738 2.9625-1.244.6271-2.6306.9079-3.9826 1.2473-.5751.1443-1.1498.3114-1.7352.389-1.0178.1348-2.0558.0873-3.0652.3193-.2819.0648-.5649.1256-.8493.1782-.1101.0203-.2612.0742-.3017-.0895-.0386-.1561.0502-.2459.2162-.2784.7999-.1564 1.5924-.4107 2.3985-.4638 1.6849-.1109 3.2433-.6782 4.8396-1.1373 2.0437-.5877 3.7886-1.7092 5.5411-2.8539 1.3708-.8954 2.8347-1.6484 4.4521-1.9948.7578-.1623 1.5444-.2198 2.3276-.2276.2765-.0027.5258.0826.4906.3758-.0352.2924-.2473.5107-.5948.4864z" fill="#0c0d0d"/><path d="m23.9292 63.7099c.4579.0582.9849.1091 1.5052.1983.2582.0443.5357.1754.467.5-.0694.328-.326.2638-.6104.2376-1.0747-.0989-2.143-.0347-3.2025.2149-1.4661.3454-2.8502.9128-4.2079 1.5386-1.3275.612-2.7474.8756-4.1508 1.188-1.4764.3287-2.9659.6187-4.4765.7573-1.2421.114-2.4868.2002-3.7296.3074-.1813.0156-.3271-.0124-.3338-.208-.0065-.188.1691-.115.2729-.1282 2.1212-.2684 4.2545-.445 6.3509-.8953 2.0171-.4333 3.9679-1.0856 5.8862-1.8233 1.6164-.6216 3.1944-1.3381 4.9021-1.6978.4183-.088.836-.1435 1.3272-.1895z" fill="#0c0d0d"/><path d="m104.9095 128.5014c-.074-.1087-.1127-.2182-.0071-.3308.0023.1103.0047.2206.0071.3308z" fill="#5f6065"/><path d="m77.7839 92.7743c.5113-.4557.4094-1.131.5354-1.6967.2763-1.2401.3716-2.5192.5899-3.7738.377-2.1663.5348-4.3601.85-6.5339.0437-.3012.0556-.6056.1543-.8968.5337-.0663.9312-.4247 1.3753-.6699.4097-.2262.5327-.1017.5735.2948.0751.7298.1767 1.4577.2249 2.1893.0607.9209.1569 1.8414.11 2.7673-.1106 2.1841-.3252 4.3571-.737 6.506-.5754 3.0026-1.1945 5.9979-2.044 8.9359-1.1122 3.8462-2.2482 7.6858-4.0768 11.2776-1.4678 2.883-2.9178 5.7748-4.6381 8.5187-.6806 1.0856-1.5237 2.0646-2.1225 3.2065-.1155.2203-.3471.3306-.5669.2034-.213-.1233-.0195-.3076.0403-.4488 1.0735-2.5362 2.2387-5.0334 3.2358-7.6021.8858-2.282 1.5578-4.634 2.2932-6.9656.4529-1.4358.9632-2.8534 1.4143-4.2897 1.0349-3.2952 1.9571-6.6213 2.6428-10.009.0675-.3339.0979-.6753.1456-1.0132z" fill="#958f83"/><path d="m76.6391 126.3222c-2.8075 1.3586-5.6134 2.7155-8.2515 4.3977-1.5812 1.0082-3.1685 2.0041-4.7006 3.0867-.2609.1843-.5569.3862-.9221.2392.061-.6694.0543-1.3551.6631-1.8358 1.5426-1.2182 3.2097-2.2315 4.9704-3.1011 1.0055-.4967 2.0265-.9554 3.0757-1.3481.2515-.0942.5311-.3904.8198-.0211.0239.0305.1918-.0308.2802-.0746.9934-.4926 1.9653-1.0343 2.9811-1.4748 1.1727-.5085 2.3073-1.1197 3.5581-1.4381.0963-.0245.1862-.0932.2937.0325-.0812.2068-.294.2553-.4667.3403-.7047.3465-1.4152.6814-2.1204 1.0269-.071.0346-.121.1124-.1808.1703zm-10.6659 5.0706c.1422-.0005.2531-.0675.3735-.1404 1.1347-.6867 2.2778-1.3594 3.4115-2.0476.2716-.1649.5755-.2986.8046-.5863-.2558-.047-.4164.0732-.5701.1623-.9834.5702-1.967 1.141-2.9336 1.7389-.3953.2445-.852.42-1.1208.8384-.0118.0228-.0236.0457-.0354.0685.0234-.0112.0468-.0225.0703-.0338zm4.6221-2.7908c.4463-.1138.7301-.2497.9628-.4845-.3334.0398-.6305.1499-.9628.4845zm1.4812-.8043c-.0108.0081-.0216.0162-.0324.0243.0095.0097.0184.0262.0286.027.0101.0008.0215-.0143.0322-.0224-.0097-.0094-.0195-.0187-.0284-.0289zm-.1801.1323c-.0094-.0094-.0181-.0254-.0283-.0264-.0102-.0009-.0217.0132-.0326.0207.0094.0094.0182.0253.0284.0262.0101.001.0216-.0131.0325-.0205z" fill="#0c0d0d"/><path d="m54.0103 124.3729c-.0006-.0513.0184-.1145-.0046-.1522-.3973-.6531-.2686-1.3043-.001-1.9562.435-.1465.6766.005.7205.451.0584.5934.0587 1.1998.1877 1.7775.346 1.55 1.2987 2.753 2.3391 3.8977.1423.1566.5118.3132.2782.5466-.169.1688-.4128-.116-.5844-.2726-.9021-.8231-1.5818-1.8118-2.2125-2.8519-.2827-.4665-.3904-1.0078-.723-1.4399z" fill="#0c0c0c"/><path d="m57.5876 54.0424c-1.8312-.0297-3.6583.1683-5.4902.0969-.1529-.006-.3054-.0214-.458-.0324.0381-.1294.0563-.269.1169-.3868.7878-1.5305 1.2816-3.1626 1.6076-4.8416.0855-.4405.2339-.9175.0631-1.4612-.2567.2092-.339.4477-.4254.6804-.2499.6729-.445 1.3717-.7549 2.0154-.486 1.0095-.8385 2.086-2.1637 2.464-2.4501.6988-4.9238.9177-7.4442.7098-.6236-.0514-1.2591-.149-1.8259-.4642-.8341-.4638-.92-1.4549-.1641-2.0237.2441-.1837.5158-.3419.7952-.4658 1.7249-.7648 3.3844-1.649 4.9036-2.7701.7114-.525 1.4133-1.0876 1.5562-2.0698.0463-.3182-.062-.4098-.3422-.404.3163-.5112.7271-.8205 1.3758-.7316 1.4159.194 2.8255.1097 4.2316-.1257.8061-.135 1.5882-.4049 2.4185-.4127.1595-.0015.4454-.0146.4328-.234-.0106-.1853-.2693-.1562-.4383-.1579-1.1292-.0116-2.2411.1905-3.3626.2678-.5529.0381-1.1156.197-1.6476-.2396-.3419-.2806-.8734-.1993-1.2975-.1897-.9502.0217-1.9076-.1726-2.8529.0621-.1876.0466-.324-.0471-.4325-.2044-.2742-.3977-.5294-.8006-.528-1.3085.1081-.0511.2938.0158.2845-.2091-.0691-1.6757.8987-2.5545 2.3295-3.1549 1.2836-.5387 2.5923-.9509 3.9642-1.1681.2126-.0336.4031-.0615.4283-.3401.0838-.9264.3257-1.8091.759-2.6362.0466-.0889.1082-.1902.0179-.2813-.0823-.083-.1936-.059-.2894-.0224-.2698.1031-.523.2539-.8194.279-.1697.0095-.3339.0101-.474.1455-.4902.4736-1.0257.9072-1.322 1.5456-.097.209-.2213.3904-.4602.4478-.9993.2402-1.9686.5805-2.8817 1.0401-.7565.3808-1.5533.7117-2.2144 1.2572-.4358.3596-.3862.4999.1697.6796-.2496.6259-.4048 1.2609-.185 1.9318-.0855.6035-.1711 1.2071-.2565 1.8106-.3143-.2052-.6049-.4603-1.0074-.4811.1559-.3885.0139-.6107-.4772-.5356-.9827.1503-1.973.1407-2.9557.24-.4624.0467-.9273.0782-1.3796.0373-.5124-.0463-.8821.1465-1.1335.5267-.2866.4335-.7997.716-.9738 1.1665-.2924.7568-.8573.5553-1.3839.5777-.1364.0058-.2734-.004-.4101-.0067-.0163-.1-.0152-.2068-.0514-.299-.3538-.9014-.1685-1.4909.6524-1.9954.8235-.5061 1.7454-.7791 2.6463-1.1036 1.4552-.5242 2.9919-.6791 4.4888-1.0139.1652-.0369.4011-.0274.4328-.2069.0433-.2451-.2366-.2516-.3886-.3268-.9008-.4456-1.6264-1.0613-2.0275-2.0082.4798-.4682 1.1345-.5936 1.7214-.8325.5296-.2156.9811-.5515 1.4844-.802.1406-.07.3514-.2484.2537-.4496-.0973-.2003-.3426-.1344-.5071-.0754-.9803.3513-1.956.7159-2.9285 1.0887-.2007.0769-.3653.1047-.5844.0254-.8341-.302-1.6765-.5834-2.5245-.8443-.3485-.1072-.5448-.2858-.6152-.6537-.2412-1.2598-.387-2.5271-.431-3.81-.0234-.682-.0113-1.3605-.0066-2.0407.0064-.9232.5192-1.4653 1.1625-1.9278.9955-.7156 2.0152-1.4018 3.0589-2.0449.8272-.5097 1.71-.9285 2.5601-1.4021.4315-.2403.8312-.5402 1.2706-.7631.5675-.2878.6376-.261.7615.3457.3483 1.705.8514 3.3669 1.3134 5.0419.3556 1.2892.718 2.5645 1.3722 3.7348.1975.3534.0662.4728-.2459.5828-.5299.1867-1.0536.3911-1.5782.5925-.2831.1087-.5132.2938-.3555.6159.1401.2861.4082.3061.7043.171 1.9038-.8686 3.9645-1.0726 5.9898-1.4575 1.6407-.3118 3.3001-.3033 4.9439-.4114.7549-.0497 1.4289-.2379 2.1406-.3787 1.2407-.2455 2.4979-.2547 3.7644-.2585 1.533-.0046 3.0182.1996 4.4985.549.222.0524.3275.1167.3412.3518.0225.3865.2582.4915.6032.3869 1.1583-.3513 2.3435-.5769 3.5319-.799 1.9126-.3575 3.8215-.3985 5.7559-.1724 1.3865.162 2.7177.4728 4.008.9931.3484.1405.6776.0653.9362-.2211.8081-.8951 1.2902-1.9328 1.5437-3.122.2808-1.3173.4024-2.6614.7327-3.9679.0957-.3784.3447-.6451.6541-.8226 1.0071-.5777 2.0992-.8927 3.2619-.9518 1.6675-.0847 3.1287.3838 4.4753 1.4133 1.4605 1.1166 2.6277 2.4068 3.5742 4.0056.7522 1.2706.8189 2.614 1.0535 3.9581.152.8712.2088 1.7588.3153 2.6382.1917 1.5812-.6145 2.6621-1.7645 3.5875-.6265.5042-1.2496 1.0158-1.944 1.419-1.0782.6262-2.1926 1.0413-3.5005.7466-1.0424-.2349-2.1295-.2431-3.1657-.5592-.3802-.116-.7968.0222-1.1554.137-.358.1146-.3997.4962-.3271.8675.1239.6336.4759 1.1566.7804 1.7045.2473.4451.6155.8216.7211 1.349.0459.2292.283.3585.4757.2942.2826-.0944.6619.0656.8471-.2609.1298-.2286-.1385-.2816-.2563-.3642-.2252-.1579-.3154-.244-.0582-.4937.4647-.4512.889-.9476 1.2965-1.4523.1739-.2153.3529-.2753.6113-.2752.4632.0002.9248.0961 1.3777.0875 1.031-.0195 1.9567-.4278 2.8016-1.0011.6145-.417.7909-.3906 1.4261-.0165 1.069.6296 1.5179 1.699 1.9573 2.7379.8849 2.0928 1.7333 4.2092 2.2868 6.4178.5937 2.3691.9106 4.7915 1.1971 7.2152.1062.8981.1759 1.8006.2887 2.6977.0352.2798-.1167.2888-.2932.2811-.8713-.0379-1.744-.0642-2.6128-.136-.6447-.0533-1.289-.0566-1.9336-.0819-.4928-.0193-.992-.0347-1.4743-.126-.9235-.1748-1.8538-.2529-2.7888-.2983-.3711-.018-.59-.1014-.4712-.5631.208-.8087.373-1.628.3798-2.4717.0042-.5227.056-1.045.0623-1.5677.0166-1.3874-.1103-2.7717-.5591-4.0803-.3833-1.118-.6797-2.2416-.8346-3.4083-.0569-.4291.0739-.8743-.1339-1.2931-.0753-.1518.0174-.4516-.2554-.4139-.2768.0383-.5196.2214-.4908.5613.0662.7786.0147 1.5643.1585 2.3383.3808 2.0495.6322 4.1087.7207 6.1981.058 1.3689-.1863 2.6819-.3566 4.0147-.0437.3417-.1272.5037-.5812.4388-1.8214-.2602-3.6624-.389-5.4788-.6765-1.4841-.2349-2.9687-.4312-4.466-.5044-2.0975-.1026-4.1964-.1473-6.296.0051-1.0065.0731-2.0115.1504-2.9819.4313-1.0189.295-1.974.7577-2.9228 1.2275-.4689.2322-.2883.6516-.1651.9367.1346.3113.507.3144.8017.1632.6801-.3488 1.3588-.7054 2.0924-.9216 1.1603-.342 2.3278-.6474 3.5502-.7051 1.2051-.0569 2.4115-.1421 3.6153-.0887 2.0279.09 4.0537.1883 6.0739.4515 1.1804.1538 2.3808.2044 3.5687.3474.831.1 1.6665.1651 2.5012.2297.2858.0221.2913.1298.2064.3648-.3257.9009-.7203 1.7712-1.1203 2.6402-.1296.2815-.3035.3073-.5783.2271-1.262-.3682-2.5267-.7276-3.795-1.0733-1.938-.5282-3.8956-1.0263-5.8939-1.1853-1.6143-.1284-3.2507-.0467-4.8636.2702-1.6196.3183-3.2515.5758-4.8601.9501-.28.0651-.6435.028-.7223.4488-.1067.5698.2396.9013.8345.8249.8659-.1112 1.6932-.3899 2.5468-.5542 1.2741-.2453 2.5646-.3702 3.8467-.5562 1.0814-.1569 2.1701-.2096 3.2614-.2085 1.9475.0019 3.8302.3739 5.6884.9429 1.1888.3641 2.4061.6353 3.6117.944.2616.067.3485.1486.2016.4431-.5738 1.1505-1.2074 2.2629-1.9171 3.3355-.2162.3267-.4197.3726-.7659.2373-1.5903-.6213-3.1794-1.248-4.7863-1.8242-1.6634-.5965-3.4082-.85-5.152-1.0714-1.6189-.2055-3.2495-.1454-4.8754-.0923-.577.0188-1.1521.123-1.726.2028-.2705.0376-.7893.7423-.7155.9814.0893.2896.2944.4086.6203.4225 1.0314.0441 2.0375-.2008 3.0647-.2185 2.0922-.036 4.1546.191 6.2187.5074 2.4105.3695 4.7317 1.027 6.9887 1.9334.0605.0243.1144.0654.1868.1077-.86 1.1343-1.9502 2.0179-2.9638 2.9764-.5924.5601-1.2107 1.0929-1.8036 1.6526-.2605.2459-.4848.3447-.893.2947-1.6945-.2076-3.3908-.3849-5.109-.3877-1.0518-.0018-2.1161-.0577-3.1738-.1214-1.0696-.0644-2.1454.102-3.2146.2243-.9492.1086-1.8925.2913-2.855.2497-.3437-.9814-1.1735-1.2896-2.0746-.785-1.6273.9113-3.1598 1.9652-4.6251 3.1136-.8804.69-1.674 1.5286-2.9495 1.3106-.0152-.0026-.0325.0119-.0492.0128-.9344.05-1.852.3692-2.7951.2279-1.1476-.172-2.2772.0128-3.4141.0923-.8278.0579-1.6556.3151-2.4818.1495-.8875-.1778-1.6203-.7542-2.4474-1.0981-.0328-.0137-.0402-.0885-.0595-.1349.083.0134.1681.0194.2487.0416.1517.0418.3408.0958.4283-.0394.1048-.1619-.0456-.3398-.1508-.4498-.1495-.1563-.3517-.2652-.5394-.3815-.935-.579-1.9832-.9718-2.8499-1.6539-.3959-.3116-.7912-.4613-1.2783-.5332-1.7637-.2603-3.5382-.4669-5.2689-.9185-.3472-.0906-.7601.1567-.87.5284-.5163.0985-1.0354.1695-1.563.1534.3586-.5617 1.0534-.6673 1.5018-1.1056.8972-.8769 1.9358-1.0275 3.1696-.8845 1.363.158 2.7496.2649 4.1334.1901.2498-.0135.406.1491.5744.2942 1.2869 1.1083 2.2982 2.4724 3.4473 3.7085.3354.3608.6807.7021.8933 1.1652.1173.2555.3876.3553.6893.3694 1.8071.0845 3.6111.1634 5.423.0442.5145-.0338 1.0483-.0613 1.5729-.0195 1.3565.108 2.5409-.4171 3.7089-1.0045 1.271-.6392 2.405-1.4993 3.5892-2.2739.7042-.4606 1.2689-1.1299 1.9249-1.6706.5581-.46.9843-1.0417 1.5064-1.5328.1228-.1155.2379-.2524.314-.4012.1377-.2692.1623-.6032.0156-.8321-.1225-.1911-.4312-.1038-.67-.0548-1.7378.3572-3.4851.6413-5.2569.7839-.8.0644-1.593.0809-2.3969.0254.3301-.2378.7274-.1634 1.0869-.2385 1.638-.3423 3.2705-.6887 4.856-1.245.834-.2926 1.6832-.5445 2.5208-.8322.7944-.2728 1.3956-.7754 1.9521-1.3618.1306-.1377.1928-.3166.2273-.5079.1935-1.0739.1406-2.1485-.0431-3.2121-.1344-.7783-.5859-.9378-1.3251-.7175-2.3439.6986-4.5151 1.8581-6.8635 2.5353-.8181.2359-1.6456.4541-2.5025.5033-.1965.0113-.404.0353-.5942-.0608.0237-.1543.1426-.1433.238-.1412 1.6006.035 3.0316-.6035 4.4806-1.1481 1.4565-.5474 2.7886-1.353 4.1385-2.1144.4984-.2811.982-.5907 1.305-1.111.1399-.2254.1273-.3823.0754-.6088-.2441-1.0656-1.0507-1.7472-1.7277-2.4994-1.3665-1.5184-1.3881-1.4964-3.3807-1.0269-.8316.1959-1.634.4822-2.4725.8068-.0252-.2115.0684-.333.198-.395.5549-.2652.98-.7332 1.5599-.9649.3401-.136.4355-.3661.1941-.7307-.5844-.8824-1.192-1.7294-2.1105-2.3064-.3147-.1977-.5102-.5532-.8859-.6866-.4241-.1507-.6455-.0352-.7683.4315-.1636-.0009-.2628.0966-.3415.2254zm13.3026-14.9266c-.0365-.0363-.073-.0726-.1095-.1088l.0038.0058c-.0234-.0802-.0326-.1684-.0723-.2395-.5993-1.0756-.5136-2.2128-.3343-3.3686.0677-.4362.4913-.692.5093-1.1374l-.005.0041c.1454.0049.3067-.0392.2616-.2004-.045-.1608-.1789-.0711-.2694.0091-.1389-.0721-.2825-.1402-.4397-.0699-1.0732.4795-2.0338 1.0989-2.6487 2.1451-.0756.1287-.0811.3225-.2564.3638-.4837.1139-.3978.4962-.3094.7812.128.4129.2423.8398.4926 1.2125.2286.3403.1377.4866-.2747.506-.6401.0302-1.3628-.5138-1.4949-1.1496-.0642-.3088-.278-.4617-.5372-.4489-.3402.0168-.3131.3387-.2719.5601.1361.731.6111 1.1926 1.2683 1.4969.924.4279 1.9068.3064 2.8768.3359 1.0467.0318 2.0844.1453 3.0428.6178.208.1025.4592.1495.5429-.0467.0712-.1668-.2055-.2614-.3544-.3606-.0425-.0283-.0989-.0391-.1353-.0726-.3677-.3383-.9123-.3457-1.278-.6862-.0324-.1051-.1113-.1463-.2136-.1553zm-13.2587 4.8422c.2757.2247.5401.1313.663-.2706.1343-.4392.2526-.886.3366-1.3372.1412-.7586.6031-1.2297 1.2669-1.563 1.0697-.5371 2.1914-.9486 3.2999-1.3917.4592-.1836.7677-.4322.8234-.9868.0783-.781.2795-1.531.7864-2.1801.5465-.6997 1.0521-1.4284 1.7875-1.955.1058-.0758.2831-.1477.2083-.3873-.2121.0659-.4275.109-.6476.0818-.22.0035-.4249-.0018-.6171.1712-.379.3412-.8017.6334-1.1851.97-.8436.7408-1.7305 1.4535-2.0219 2.6215-.0524.2099-.2446.1565-.3772.1987-.7447.2366-1.4917.4656-2.208.7817-.9048.3992-1.8052.8088-2.7143 1.1979-.947.4054-1.0784.7042-.6353 1.6393.2861.604.5382 1.213.6089 1.8855.0385.3676.258.5394.6256.5241zm29.6682-10.7957c-.2625-.1782-.2574-.4564-.2607-.7247-.0134-1.0888-.0512-2.1791.1047-3.262.1614-1.1213.22-2.2724.9539-3.2291.0832-.1085.2614-.2679.0556-.4409.3685-.2286.7725-.337 1.2009-.3937.4381-.0579.886-.0858 1.2985-.2693.0925-.0412.1955-.0965.17-.2234-.0203-.1009-.1165-.1162-.2026-.1189-1.0304-.0324-2.0603-.0206-3.0182.4228-1.0389.481-1.4955 1.3703-1.6892 2.4571-.2013 1.1295-.2138 2.2751-.3475 3.4063-.2635 2.2299-.1761 4.4609-.1644 6.691.0069 1.301 1.1135 2.1775 2.403 2.1497.9846-.0212 1.8531-.3363 2.7086-.7597.1777-.0879.2419-.2045.228-.4068-.0242-.3524-.257-.4231-.5399-.5083-.6101-.1838-.6203-.2478-.247-.6845.1293-.1513.3164-.3124.1753-.53-.1591-.2455-.357-.4737-.7117-.3878-.1587.0385-.3119.158-.5309.0105.6329-.6688.5621-1.574.7968-2.3814.0787-.2707.0757-.6931-.3067-.6909-.5647.0033-.3779-.2616-.3183-.5576.0469-.2327.0558-.4912-.2086-.6315-.2426-.1287-.4927-.0071-.593.1618-.2381.4013-.6792.5598-.9566.9013zm-14.1312 11.8232c-.1404-.4042-.4374-.7663-.3325-1.2365.1597.0943.3348.17.4754.2872.211.1758.4357.3462.6733.1182.2234-.2143-.0478-.3953-.1266-.5859-.0114-.0276-.0016-.0639-.0016-.1343.1687 0 .339.0196.5024-.0054.1685-.0259.4534.1213.4801-.1184.0231-.2072-.2867-.1803-.4489-.2553-.0583-.0269-.1349-.0127-.2028-.0205-1.1886-.1353-2.3776-.2516-3.5773-.2176-1.0881.0308-2.1688-.1534-3.2678-.0143-1.0306.1305-2.0917.2568-3.1202.0784-.8247-.143-1.628-.0757-2.4423-.0606-.1718.0032-.3083.0517-.3332.244-.0226.1744.0573.3054.2178.3665.1255.0477.2613.0874.3941.0926.3129.0123.3571.1307.1926.3819-.1693.2586-.3899.5468-.2882.8485.0981.2909-.0423.3973-.1969.5584-.4828.5029-.9543 1.0167-1.4334 1.5231-.262.2769-.4105.5357.0606.7538.0582.027.1034.0883.1468.1403.4244.5098.6437.559 1.2209.2563.1659-.087.3243-.1889.4817-.2909.3201-.2074.5159-.2108.777.1722 1.009 1.4803 2.4303 2.3313 4.2295 2.4518 1.1233.0752 2.1554-.1958 3.1579-.7899 1.2303-.7291 2.0236-1.7349 2.4272-3.0621.1296-.4263.313-.621.7443-.5636.5435.0723 1.0886.1021 1.6368.093 1.1023-.0183 2.2047-.0338 3.3071-.0444.1153-.0011.2167-.0171.2393-.134.023-.1192-.075-.1829-.1748-.2196-.3675-.1351-.7313-.2729-1.1281-.3173-1.4262-.1596-2.867-.0991-4.2902-.2956zm9.4453 8.3801c.0069-2.0099-1.2697-3.9816-3.1558-4.937-2.0096-1.0179-3.8879-.7077-5.4696.8984-.6852.6958-1.3554 1.4086-2.0719 2.0709-.8201.7581-1.727 1.3908-2.8157 1.7325-.7897.2479-1.5828.4038-2.4155.388-.5342-.0101-.7021.3056-.4483.7579.6194 1.1038 1.2473 2.203 1.8568 3.3122.1872.3407.3845.538.8039.3539.2474-.1086.5242-.1519.7893-.2185 3.9226-.9853 7.8757-1.8318 11.8558-2.5461.5563-.0998.8028-.399.9519-.861.1052-.3263.1498-.6674.1191-.9512zm-15.2586-1.2666c.3891-.0395.7968-.0807 1.2045-.1223.1186-.0121.2642-.0097.2551-.1773-.0072-.1314-.138-.1303-.238-.1415-.3222-.0362-.6442-.0761-.9673-.1025-1.474-.1205-2.868-.3772-3.5648-1.9381-.0681-.1526-.2121-.3516-.4437-.2506-.2536.1106-.264.3382-.1923.5701.1778.5743.5228 1.0324.9966 1.3958.8694.6665 1.9056.6822 2.9499.7664z" fill="#594b60"/><path d="m57.5876 54.0424c.0786-.1288.1779-.2263.3421-.2253.7316.6522 1.4091 1.3571 2.0803 2.071.2317.2464.2106.3294-.0061.5558-.9992 1.0437-1.961 2.1233-2.9609 3.1663-.3731.3892-.8058.7235-1.2272 1.0631-.1753.1413-.3517.2813-.4612.4724-.1396.2437-.0711.4937.2283.4593.3126-.036.6454-.0225.9297-.291 1.5275-1.4424 3.4037-2.244 5.3796-2.85.4396-.1348.863-.3183 1.3294-.3699.1805-.02.2897-.0012.3832.1548.5834.9731 1.4615 1.707 2.1336 2.6117.2358.3174.2979.4646-.0337.7368-.9733.7989-2.0955 1.3449-3.1834 1.9514-1.5502.8643-3.2484 1.319-4.9425 1.7816-.271.074-.5619.0892-.8449.1009-.31.0127-.5376.1344-.6294.4299-.0943.3034-.0009.5953.2292.7932.3548.3051.7561.4964 1.2609.4601 1.7967-.1292 3.4787-.6588 5.116-1.3783 1.2185-.5354 2.453-1.0343 3.6787-1.5535.9301-.394.9691-.4035 1.1331.5945.1192.725.0636 1.4685-.1728 2.1774-.0903.2709-.3198.428-.5704.5621-2.5523 1.3657-5.2224 2.3721-8.1015 2.814-.818.1255-1.6071.2403-2.4301.0837-.2359-.0449-.5954-.1576-.7338.1727-.1239.2958.1176.4917.3239.6871.8946.8473 1.9692 1.106 3.1617 1.0022 1.9065-.1659 3.7967-.4398 5.6663-.8519.0412-.0091.0905.0184.1844.0399-.6291.7452-1.3665 1.3203-2.1023 1.8896-1.1598.8974-2.3604 1.7321-3.6039 2.5192-1.9966 1.2638-4.127 1.7356-6.4513 1.5233-1.2776-.1167-2.5655.0543-3.8454-.1251-.3973-.0557-.6356-.1768-.8974-.5215-.8461-1.114-1.684-2.2407-2.6508-3.258-1.4773-1.5546-3.1676-2.8533-4.9266-4.0671-.2054-.1417-.2884-.3049-.2753-.5578.0361-.699.184-1.3671.3441-2.0505.2204-.9413.4049-1.8978.5965-2.8494.2903-1.4418.746-2.8275 1.2467-4.2032.1113-.3057.3801-.4201.6448-.5471.7684-.3686 1.6506-.6081 2.2744-1.146 1.1013-.9498 2.3591-.9341 3.6483-.9534.3918-.0059.7846-.0248 1.1782.0413.2392.0401.3787.088.2046.3354-.3567.5071-.3975 1.1568-.7595 1.6588-.1642.2276-.1592.4462.0184.6563.2187.2585.4843.2018.7494.0902.7763-.327 1.4691-.8 2.1793-1.2439 1.1139-.6962 2.2435-1.3677 3.3488-2.0771.7133-.4579 1.4434-.8953 1.9622-1.6091.2926-.4024.2591-.6734-.1457-.9269z" fill="#8e8295"/><path d="m33.631 74.6479c.5276.0161 1.0466-.0548 1.563-.1534.5363.5129 1.3113.3612 1.9261.6629-.0529.1582-.1671.1421-.2634.1343-.4432-.0359-.8851-.0967-1.3288-.113-.2342-.0086-.5451.0405-.6004.2824-.0727.3186.2515.3582.4804.4004 1.5895.2932 3.1942.2946 4.7981.1934.3361-.0212.6372.0066.952.1008 1.4938.4468 2.8516 1.228 4.3163 1.745.0193.0464.0266.1212.0595.1349.827.3439 1.5599.9203 2.4474 1.0981.8262.1656 1.654-.0916 2.4818-.1495 1.1369-.0795 2.2665-.2642 3.4141-.0923.9431.1413 1.8607-.1779 2.7951-.2279.0167-.0009.034-.0154.0492-.0128 1.2756.218 2.0691-.6205 2.9495-1.3106 1.4652-1.1483 2.9977-2.2023 4.6251-3.1136.9011-.5046 1.7309-.1964 2.0746.785-.1167.0153-.2461.0712-.3481.0392-.763-.2393-1.1299.1978-1.4126.798-.8887 1.8865-1.7346 3.7949-2.6814 5.6518-.8517 1.6705-1.4762 3.4458-2.4096 5.0773-.1728.302-.3961.4046-.6902.4404-2.1207.2577-4.2443.4755-6.3859.4215-.2908-.0073-.5822.007-.8731.0006-.2485-.0055-.5277.0493-.5457-.3538-.0086-.1934-.2089-.2059-.3623-.1867-.2001.0251-.3125.1781-.2967.361.0295.3409-.1263.4043-.4235.3796-.386-.0322-.2342-.3104-.24-.499-.0071-.2321.1938-.5526-.2356-.5799-.3601-.0229-.4966.1929-.4999.5543-.0043.4761-.1545.5367-.5552.2641-.6127-.4169-1.3176-.2273-1.9819-.3038-.2027-.0233-.4071-.0325-.6111-.0428-.4179-.0211-.5283-.2163-.3794-.6054.0596-.1556.1919-.3998-.096-.4626-.2166-.0472-.4559.0184-.5476.2742-.0736.2052-.0728.5396-.2426.5835-.281.0727-.6147.0283-.907-.0442-1.1095-.275-2.2373-.5083-3.3098-.8925-1.6296-.5838-3.2388-1.2182-4.7711-2.0572-1.2251-.6708-2.4674-1.32-3.7192-1.9442-.3388-.1689-.3251-.3252-.1555-.5794.1137-.1705.2218-.3447.3337-.5164.0912-.1399.1424-.2803-.0079-.4121-.1398-.1225-.2817-.079-.4267.0004-.2795.153-.3349.4647-.5002.6981-.0652.092-.0806.2636-.2441.1258-.1097-.0924-.2732-.1861-.1064-.3714.2057-.2286.4013-.4664.6079-.6944.1628-.1796.3635-.3541.2112-.6228-.1759-.3102-.4184-.0906-.6358-.0485-.0317-.0274-.0635-.0547-.0952-.082.3182-.6908-.0905-1.3633-.0568-2.0512.0229-.4687-.0703-.9431-.1116-1.4149.3049.0047.6098.0051.9144.0148.5107.0164.8401-.2048.9577-.7133.3637-.1965.7039-.4384 1.1012-.5702z" fill="#8e8295"/><path d="m30.2551 56.2091c.0476 1.3912.7136 2.5186 1.176 3.7042.0856.2195.2981.3696.5406.2775.3282-.1247.0242-.3109-.009-.4551-.0528-.2297-.1331-.4644-.2542-.6653-.6274-1.0405-.2937-2.1655-.3103-3.2597-.0034-.2245.1686-.3652.2954-.6519.3824.7361.915 1.2749 1.4131 1.8426.4562.52.9741.9595 1.6389 1.1833.2969.1.6159.1367.858-.1368.2346-.265-.02-.4712-.1074-.6965-.0477-.1231-.1767-.2613-.0622-.3747.0634-.0628.2288-.0534.3398-.0323.838.159 1.6927.2239 2.5172.4623.2015.0583.2871.1383.3602.3492.7749 2.2356.6371 4.5153.3247 6.795-.1647 1.2017-.1471 2.428-.4649 3.607-.1281.4751-.1668.9583-.2351 1.44-.0664.4682-.4573.7131-.7621.9928-1.2898 1.1836-2.7348 2.1581-4.2408 3.043-.4958.2914-.9497.6625-1.5502.7579-.3776.06-.6533.0839-.893-.3306-.3606-.6235-.9072-1.1104-1.4483-1.5865-.1554-.1367-.3056-.2669-.3453-.4881-.2347-1.3078-.7249-2.5552-.9193-3.8725-.0145-.098-.0019-.2-.0019-.3247.5233.1167.973.4072 1.5028.3785.5403-.0293.6573-.2369.5436-.7626-.2226-1.0296-1.0893-1.5382-1.7521-2.1931-.477-.4714-.3384-1.0706-.5316-1.5929-.0659-.1782.1704-.1482.297-.0957.2992.124.5922.2632.8928.3836.3103.1243.68.2189.9117-.044.2397-.272.0028-.5947-.1649-.8425-.2659-.393-.5966-.7423-.8621-1.1356-.8781-1.3009-.7797-3.0393.2151-4.2764.3701-.4604.7256-.9326 1.0878-1.3994z" fill="#8e8295"/><path d="m90.4571 65.6197c.9884.054 1.8889.4553 2.8204.7275 3.0787.8996 6.153 1.8137 9.2895 2.4972.412.0898.5935.2427.4917.7393-.1617.7882-.1249 1.6077-.0093 2.402.0779.5359-.0771 1.0917.1932 1.6175.1097.2133-.1329.1525-.2556.1298-.9037-.1667-1.8151-.301-2.7092-.5094-1.8777-.4377-3.7485-.9057-5.6181-1.3775-2.1332-.5383-4.2125-1.2515-6.2937-1.9593-.3867-.1315-.2533-.245-.0624-.4327.8613-.8466 1.5855-1.7863 2.0028-2.9393.1024-.283.1488-.5591.1089-.8534.0144-.0135.0283-.0274.0418-.0417z" fill="#584a60"/><path d="m102.5843 63.9867c-.124 1.0953.1952 2.2894.2071 3.5028.0038.3914-.0309.5612-.4913.4175-1.2044-.3759-2.4195-.7185-3.6355-1.0558-.9178-.2546-1.8443-.478-2.7657-.7201-1.3667-.3591-2.6833-.8909-4.0695-1.1836-.3501-.0739-.6987-.1556-1.0481-.2327-.0939-.0208-.2275.0005-.2128-.1512.0086-.088.0856-.1628.1774-.1574.576.0336.6841-.3874.8244-.8062.1353-.4039.3245-.7896.467-1.1914.1031-.2905.1798-.5943-.09-.8554-.0619-.0599-.1116-.1364-.0601-.2281.0541-.0962.1397-.0588.2245-.0516 1.8195.1535 3.6372.3436 5.4598.4377.886.0457 1.774.0985 2.662.1294.6969.0242 1.3909.1271 2.0871.1854.2325.0195.2687.1519.266.3472-.007.4963-.0023.9928-.0023 1.6135z" fill="#584a60"/><path d="m39.9686 64.455c-.1175-.5749-.0952-1.1009.0066-1.6083.2227-1.1104.1506-2.2195-.0625-3.3039-.16-.8138-.2693-1.6493-.5914-2.4313-.1464-.3553-.3167-.5593-.7331-.6699-1.0378-.2758-2.0493-.6514-3.0693-.9931-.8652-.2899-1.4749.131-1.4554 1.0114-.0807.0338-.1203-.0257-.1675-.0719-1.6447-1.6134-1.3355-1.1346-.1463-2.6471.1622-.2063.3162-.2328.5716-.1786.8851.1881 1.7373.4958 2.6285.6682.7578.1466 1.5142.2558 2.2819.3094 1.0885.076 2.1641.29 3.2588.3038 2.5953.0326 5.188.1468 7.7861.12 2.0297-.0209 4.0582-.1698 6.2389-.1-1.6155 1.2722-3.2994 2.1852-4.9619 3.1432-.1038-.1648-.0188-.2702.0626-.3424.2936-.2604.4298-.6175.5915-.9533.254-.5278.153-.696-.439-.77-1.6912-.2114-3.3772-.0302-5.0542.1465-.6141.0647-1.1403.5092-1.6787.8297-1.042.6204-2.0714 1.2629-3.1709 1.7791-.3182.1494-.4306.419-.5136.7208-.3683 1.3395-.8425 2.6498-1.0876 4.0236-.0587.3294-.186.6464-.2951 1.0141z" fill="#e9c9be"/><path d="m47.5616 45.0893c.2803-.0058.3885.0858.3422.404-.1429.9822-.8448 1.5448-1.5562 2.0698-1.5191 1.121-3.1787 2.0053-4.9036 2.7701-.2794.1239-.5511.2821-.7952.4658-.7559.5689-.67 1.56.1641 2.0237.5668.3152 1.2023.4127 1.8259.4642 2.5204.2079 4.994-.011 7.4442-.7098 1.3252-.378 1.6777-1.4544 2.1637-2.464.3099-.6437.505-1.3425.7549-2.0154.0864-.2327.1686-.4712.4254-.6804.1708.5437.0225 1.0207-.0631 1.4612-.326 1.679-.8198 3.3111-1.6076 4.8416-.0606.1178-.0789.2574-.1169.3868-.9606.2277-1.9418.1269-2.9076.1207-1.6197-.0104-3.2413-.0725-4.8615-.1405-2.1382-.0897-4.2595-.2613-6.371-.5852-.8805-.1351-1.7354-.3805-2.5768-.6718-.1844-.0639-.3283-.1065-.1044-.3364.2832-.2908.5684-.6027.759-.9562.4801-.8905 1.3821-1.1483 2.2031-1.463 2.2351-.8567 4.3948-1.8829 6.597-2.8118 1.0311-.4349 1.9745-.9693 2.7627-1.7661.2773.007.4154-.1291.4169-.4056z" fill="#948e82"/><path d="m33.9455 46.2716c.0602-.1396.1478-.2742.1751-.42.0612-.3258.2513-.4251.5513-.3624.7918.1656 1.5835.0007 2.3749.0082.4911.0046.9817.0563 1.4727.0855.1363.0081.2302.0769.2583.2062.2385 1.0986 1.0291 1.5233 2.0406 1.6844.0833.0133.1633.0473.2448.0717v.232c-.3919.3171-.9033.3565-1.3394.5745-.2586.1293-.3243-.1833-.4914-.2706-.4629-.2419-.8354-.5721-1.104-1.0293-.108-.1839-.2824-.4129-.5317-.2962-.2649.124-.1271.3783-.0787.5889.0433.1886.1415.3454.2584.4941.4882.621.3545 1.1486-.3652 1.4351-.522.2078-1.0365.4394-1.5702.6111-.4627.1488-.7425.494-.9746.8577-.771 1.2082-1.6875 2.2919-2.6934 3.3055-.0741.0746-.1573.2614-.2604.0728-.1804-.33-.4074-.1207-.6216-.0966-.0021-.4785-.0105-.9571-.0049-1.4355.016-1.3655.4805-2.5319 1.5342-3.4364.3232-.2775.6505-.5524.9519-.8526.6173-.6147.6651-1.2723.1733-2.0281z" fill="#584a60"/><path d="m40.5429 37.7111c.4011.947 1.1267 1.5627 2.0275 2.0082.152.0752.432.0817.3886.3268-.0317.1795-.2677.17-.4328.2069-1.4969.3348-3.0336.4896-4.4888 1.0139-.9009.3246-1.8229.5976-2.6463 1.1036-.8209.5045-1.0062 1.094-.6524 1.9954.0362.0922.0351.199.0514.299-.3462.0441-.5592-.0475-.5517-.4569.0066-.3558-.2486-.626-.3829-.9357-.0891-.2056-.0944-.3325.0933-.5225 1.0271-1.0395 1.992-2.1422 3.0445-3.1542.9924-.9541 2.1514-1.6618 3.5496-1.8845z" fill="#948e82"/><path d="m33.9455 46.2716c.4918.7559.4439 1.4134-.1731 2.0279-.3014.3002-.6287.5751-.9519.8526-1.0536.9045-1.5182 2.0709-1.5342 3.4364-.0056.4784.0029.957.0049 1.4355-.3427.3774-.6854.7548-1.0281 1.1323-.1806-.6483-.1424-1.3339-.3838-1.9783-.2385-.6368-.7911-.7922-1.2907-.3422-.2257.2033-.2414.576-.5811.6672-.354-.8546.1325-1.3045.75-1.8015 1.5995-1.2876 3.0631-2.7259 4.3676-4.3172.2917-.356.5479-.7411.8204-1.1127z" fill="#948e82"/><path d="m52.1354 34.282c.2964-.025.5496-.1758.8194-.279.0959-.0366.2071-.0606.2894.0224.0904.0911.0287.1924-.0179.2813-.4333.827-.6752 1.7097-.759 2.6362-.0252.2786-.2158.3065-.4283.3401-1.3719.2172-2.6806.6294-3.9642 1.1681-1.4308.6005-2.3986 1.4792-2.3295 3.1549.0093.2249-.1764.158-.2845.2091-.3081-.0517-.2531-.6221-.6932-.4853-.2198-.6711-.0646-1.306.185-1.9319 1.0802-.7617 2.2646-1.3271 3.4673-1.8627.9402-.4187 1.9848-.4572 2.933-.8395.1203-.0485.2971-.0104.3277-.1891.0201-.1173-.0838-.2038-.1767-.2219-.4277-.0834-.2091-.2921-.1336-.5143.1822-.5363.6738-.9093.7651-1.4884z" fill="#948e82"/><path d="m43.5039 42.6592c.4025.0208.6931.2758 1.0074.4811.0431.8243.051.7052-.6376.7384-1.9937.0961-3.9775.2706-5.9429.6321-.2142.0394-.4418.0053-.6738.0053.244-.5652.6196-.806 1.2783-.9381 1.6521-.3314 3.3469-.4338 4.9686-.9188z" fill="#897f90"/><path d="m28.0076 53.503c.3397-.0913.3554-.4639.5811-.6672.4996-.45 1.0522-.2946 1.2907.3422.2413.6444.2032 1.33.3838 1.9783-.4218.5731-.9003 1.0891-1.5198 1.5352-.3872-1.0578-.4125-2.1592-.7358-3.1885z" fill="#594b60"/><path d="m40.9633 46.822c-.3713-.2356-.8077-.3776-1.0475-.7964-.159-.2777-.1358-.4218.2001-.5167.6699-.1891 1.349-.1739 2.0313-.1539.1879.0055.3783.0373.563.0165.3292-.0371.5746.0046.7494.3489.1855.3655.5886.4274 1.1057.4901-.9626.3771-1.6965.9127-2.5813 1.114-.3358-.1766-.6093-.4796-1.0207-.5025z" fill="#dee3a6"/><path d="m68.5331 82.0123c.2945-.6445.8995-.9833 1.4853-1.1823 2.0611-.7003 4.0209-1.6088 5.9303-2.6397.0904-.0488.185-.0897.2765-.1365.0932-.0476.1987-.1075.2712.0072.0952.1506-.0355.2167-.1417.2686-.6269.3062-1.2569.6059-1.8844.911-1.9517.9488-3.9027 1.8989-5.854 2.8485-.0277-.0256-.0555-.0512-.0832-.0768z" fill="#584a60"/><path d="m32.5297 75.2182c-.1176.5085-.447.7296-.9577.7133-.3046-.0098-.6096-.0102-.9144-.0148-.0163-.2791-.0325-.5582-.0544-.9352.5029.5619 1.0282.5123 1.5808.2926.1059-.0422.23-.0385.3457-.0559z" fill="#584a60"/><path d="m40.9633 46.822c.4114.0229.6849.326 1.0207.5026-.2535.2594-.6033.323-.9207.4525 0-.0772 0-.1546 0-.2319.5239-.3182.0285-.4953-.1-.7232z" fill="#959183"/><path d="m88.8927 43.4928c.287-.6648.5189-.8644.9161-.8079-.2198.3807-.6282.5274-.9161.8079z" fill="#584a60"/><path d="m68.6163 82.0891c-.215.306-.2275.7393-.5962.9486l-.0165-.0136c.079-.389.1889-.7617.5305-1.012.0267.0258.0545.0514.0822.077z" fill="#0c0d0d"/><path d="m47.5568 45.0911c-.0015.2765-.1396.4126-.4169.4056.0829-.1928.2053-.345.4169-.4056z" fill="#594b60"/><path d="m67.8143 83.4498c-.015.1616-.0123.3352-.2653.3762-.0377-.2272.1281-.2971.2439-.3963z" fill="#0c0d0d"/><path d="m67.793 83.4297c.0062-.1684.035-.3251.2107-.4056l.0165.0136c-.0279.1577.0472.3669-.2058.4121z" fill="#0c0d0d"/><path d="m76.5605 78.7482c.0069-.0957.0619-.1361.1279-.1428.0366-.0037.0775.0355.1164.0553-.0434.0448-.0807.1005-.1329.1293-.0235.0131-.0767-.0275-.1114-.0418z" fill="#594b60"/><path d="m30.9212 79.4648c-.022.0609-.0618.1529-.1197.1191-.0978-.0571-.0331-.1384.0247-.201.0315.0272.0632.0546.095.0819z" fill="#8e8295"/><path d="m88.7207 43.686c-.0114.0074-.0229.0149-.0343.0223-.0087-.0157-.0173-.0314-.0259-.0472.0138-.0027.0292-.0103.0408-.0065.009.003.0131.0204.0194.0314z" fill="#584a60"/><path d="m28.8669 66.9321c.0504.0342.1153.0834.071.1397-.0689.0876-.1308.0113-.1853-.0404.0381-.0331.0762-.0662.1143-.0993z" fill="#e2e8a9"/><path d="m28.7635 66.8375c.0345.0316.0689.0631.1034.0947-.0381.0331-.0761.0661-.1143.0992-.0353-.0061-.0596-.026-.0729-.0594.028-.0448.0559-.0897.0838-.1345z" fill="#e2e8a9"/><path d="m76.309 78.8802c.0355-.0369.0735-.0789.116-.0142.0056.0086-.0364.0484-.0561.0739-.0201-.0194-.0401-.0394-.0599-.0597z" fill="#594b60"/><path d="m90.4154 65.6614c-.0122-.0246-.0244-.0492-.0365-.0738.0259.0109.0518.0218.078.0324-.0133.014-.0272.0279-.0415.0414z" fill="#584a60"/><g fill="#594b60"><path d="m65.938 131.3579c.2692-.4181.7258-.5937 1.1211-.8382.9666-.5979 1.9502-1.1686 2.9336-1.7389.1537-.0891.3143-.2093.5701-.1623-.2291.2877-.5331.4214-.8046.5863-1.1337.6882-2.2769 1.3609-3.4115 2.0476-.1204.0729-.2313.1398-.3735.1404z"/><path d="m70.5953 128.602c.3323-.3346.6294-.4447.9628-.4845-.2327.2348-.5165.3707-.9628.4845z"/><path d="m72.0761 127.7981c.0093.0098.0191.0191.0289.0284-.0108.0081-.0221.0232-.0322.0225-.0102-.0008-.0191-.0173-.0286-.027.0107-.0081.0215-.0162.0319-.0239z"/><path d="m71.8964 127.9299c-.0109.0075-.0224.0215-.0326.0206s-.019-.0169-.0284-.0263c.0109-.0075.0225-.0216.0326-.0207.0103.0011.019.0171.0284.0264z"/><path d="m65.9732 131.3928c-.0234.0113-.0469.0225-.0703.0338.0118-.0228.0236-.0456.0353-.0686z"/></g><path d="m82.6138 53.3656c.0307.2838-.0138.625-.1191.9513-.1491.462-.3956.7612-.9519.861-3.9801.7143-7.9332 1.5608-11.8558 2.5461-.2651.0666-.5419.1099-.7893.2185-.4194.1841-.6167-.0132-.8039-.3539-.6095-1.1092-1.2374-2.2084-1.8568-3.3122-.2538-.4523-.0858-.768.4483-.7579.8327.0158 1.6258-.1402 2.4155-.388 1.0887-.3417 1.9955-.9744 2.8157-1.7325.7165-.6623 1.3867-1.3751 2.0719-2.0709 1.5817-1.606 3.46-1.9163 5.4696-.8984 1.8861.9553 3.1626 2.927 3.1558 4.9369z" fill="#959183"/><path d="m73.1685 44.9855c1.4231.1964 2.864.136 4.2901.2957.3968.0444.7606.1822 1.1281.3173.0998.0367.1978.1004.1748.2196-.0225.117-.124.1329-.2393.134-1.1024.0106-2.2048.0261-3.3071.0444-.5482.0091-1.0933-.0206-1.6368-.093-.4313-.0574-.6146.1373-.7443.5636-.4036 1.3272-1.1969 2.333-2.4272 3.0621-1.0025.5941-2.0346.8651-3.1579.7899-1.7992-.1204-3.2205-.9715-4.2295-2.4518-.2611-.383-.4568-.3796-.777-.1722-.1574.102-.3159.2039-.4817.2909-.5771.3027-.7965.2535-1.2209-.2563-.0433-.052-.0885-.1133-.1468-.1403-.4711-.2181-.3226-.4769-.0606-.7538.4791-.5065.9506-1.0202 1.4334-1.5231.1547-.1611.295-.2676.1969-.5584-.1017-.3016.1189-.5899.2882-.8485.1645-.2512.1203-.3697-.1926-.3819-.1327-.0052-.2686-.0449-.3941-.0926-.1605-.061-.2403-.1921-.2178-.3665.0249-.1923.1614-.2408.3332-.244.8143-.015 1.6176-.0823 2.4423.0606 1.0285.1783 2.0896.052 3.1202-.0784 1.099-.1391 2.1796.0451 3.2678.0143 1.1997-.0339 2.3887.0823 3.5773.2176.0679.0077.1445-.0065.2028.0205.1623.0749.472.0481.4489.2553-.0267.2398-.3116.0926-.4801.1184-.1634.0251-.3337.0054-.5024.0054 0 .0704-.0098.1067.0016.1343.0788.1906.35.3716.1266.5859-.2376.228-.4623.0576-.6733-.1182-.1406-.1172-.3157-.1929-.4754-.2872-.1744-.1489-.3628-.2315-.6057-.2249-.8193.0224-1.639.0292-2.4586.0337-1.6922.0093-3.3805.086-5.0687.2097-.8731.064-1.4383.4379-1.7281 1.3104-.0132.0014-.0275.0002-.0391.0051-.0069.0029-.0095.0157-.0141.024.0157-.012.0314-.0241.0471-.0361.2391-.0019.4877.0385.7159-.0125 1.8593-.4151 3.7386-.117 5.6047-.1281 1.2894-.0077 2.5863.0191 3.8792.0551zm-2.0805 1.3792c-.0368.0351-.078.0667-.1098.1059-.454.5597-1.0383.8019-1.7302.5865-.5942-.185-1.2885-.2992-1.3876-1.1238-.0164-.1361-.1381-.1254-.242-.115-1.3578.1362-2.7172.252-4.0818.2901-.2215.0062-.2939.069-.1602.2695.3302.4955.5892 1.0636 1.0053 1.4716 1.1029 1.0818 2.3929 1.7539 4.0121 1.3777 1.1963-.2779 2.3519-.6342 2.9834-1.8356.3735-.3471.4953-.8271.675-1.2767.0586-.1466.0161-.2414-.1443-.2324-.352.0198-.8114-.1268-.8199.4822zm-.1539-.4546c-.3942-.0369-.7144-.1036-1.0535-.0638-.2344.0275-.433.1074-.4096.3379.0256.2521.288.1627.4567.1729.384.0232.6477-.2351 1.0064-.447zm-9.0883.6319c-.0349.219.0715.2826.2284.2659.1458-.0155.3715-.0473.3248-.2217-.0495-.1846.0404-.5331-.2362-.5303-.2024.0019-.2376.3248-.317.4861z" fill="#0c0d0d"/><path d="m87.2997 33.1623c.2774-.3415.7185-.5.957-.9014.1003-.1688.3504-.2905.593-.1618.2644.1403.2555.3988.2086.6315-.0596.2959-.2464.5608.3183.5576.3824-.0022.3854.4202.3067.6909-.2348.8074-.1639 1.7126-.7968 2.3814.219.1476.3722.028.5309-.0105.3547-.086.5526.1423.7117.3878.1411.2176-.046.3787-.1753.53-.3732.4367-.3631.5007.247.6845.2829.0852.5157.156.5399.5083.0139.2023-.0503.3189-.228.4068-.8555.4233-1.724.7384-2.7086.7597-1.2896.0278-2.3962-.8487-2.403-2.1497-.0117-2.2301-.0992-4.4611.1644-6.691.1337-1.1312.1462-2.2768.3475-3.4063.1937-1.0867.6503-1.9761 1.6892-2.4571.9579-.4435 1.9878-.4553 3.0182-.4228.0861.0027.1823.0181.2026.1189.0255.1269-.0775.1822-.17.2234-.4125.1835-.8604.2114-1.2985.2693-.4283.0566-.8324.165-1.2008.3937-.7828.3057-1.2739.8305-1.439 1.6912-.1665.8678-.3804 1.7243-.4513 2.61-.05.6254-.1936 1.2456-.2123 1.8706-.0246.8189.0602 1.6407.0482 2.4605-.0173 1.1764-.1156 2.3526.0513 3.5259.1072.7537.6971 1.1 1.3479.7579.6634-.3487 1.2779-.7751 1.8784-1.3646-.6241.0689-1.1519-.0682-1.6835.0623-.3051.0749-.4536-.161-.3025-.3966.5294-.8258.6725-1.7734.9086-2.6905.0787-.3058.2325-.6248.1191-.9651-.3996.0871-.7196.5825-1.1189.0952z" fill="#0c0c0c"/><path d="m87.2997 33.1623c.3993.4873.7193-.0082 1.1184-.095.1135.3403-.0404.6593-.1191.9651-.2361.9171-.3792 1.8647-.9086 2.6905-.1511.2356-.0025.4715.3025.3966.5316-.1305 1.0595.0065 1.6835-.0623-.6005.5895-1.215 1.0158-1.8784 1.3646-.6508.3421-1.2407-.0041-1.3479-.7579-.1669-1.1733-.0686-2.3495-.0513-3.5259.012-.8198-.0728-1.6416-.0482-2.4605.0187-.625.1623-1.2452.2123-1.8706.0708-.8857.2848-1.7422.4513-2.61.1651-.8607.6561-1.3855 1.439-1.6912.2058.173.0276.3324-.0556.4408-.734.9567-.7925 2.1078-.9539 3.2291-.1559 1.083-.1181 2.1732-.1047 3.262.0033.2683-.0017.5465.2607.7247z" fill="#897f90"/><path d="m45.4744 77.9007c-1.4648-.517-2.8225-1.2982-4.3163-1.745-.3148-.0941-.6159-.122-.952-.1008-1.6039.1012-3.2087.0998-4.7981-.1934-.2289-.0422-.5531-.0819-.4804-.4004.0552-.242.3661-.291.6004-.2824.4437.0162.8856.0771 1.3288.113.0963.0078.2105.0238.2634-.1343-.6148-.3017-1.3898-.15-1.9261-.6629.1098-.3717.5227-.619.8699-.5284 1.7307.4517 3.5052.6582 5.2689.9185.4871.0719.8824.2216 1.2783.5332.8667.6821 1.915 1.0749 2.8499 1.6539.1877.1162.3899.2252.5394.3815.1052.11.2556.2879.1508.4498-.0875.1352-.2766.0811-.4283.0394-.0805-.0222-.1656-.0283-.2486-.0417z" fill="#0c0c0c"/><path d="m57.6315 43.958c-.3676.0152-.5872-.1566-.6258-.524-.0707-.6725-.3228-1.2815-.6089-1.8855-.443-.9352-.3117-1.234.6353-1.6393.9091-.3891 1.8095-.7987 2.7143-1.1979.7163-.3161 1.4633-.5451 2.208-.7817.1326-.0421.3248.0112.3772-.1987.2914-1.168 1.1784-1.8807 2.0219-2.6215.3834-.3367.8062-.6288 1.1851-.97.1922-.1731.3971-.1677.6171-.1712.0396.2164-.0762.3418-.2362.469-.4144.3294-.8316.6587-1.2161 1.0215-.6276.5922-1.1176 1.3088-1.4354 2.0955-.1882.4659-.1151 1.0417-.8824.8799-.0472-.01-.1135.0681-.1703.1062-1.3965.9376-3.0093 1.4362-4.492 2.2-.178.0917-.2491.1743-.2114.3318.1305.5452.066 1.1085.2219 1.6627.1038.368.2188.8423-.1023 1.2232z" fill="#0c0d0d"/><path d="m73.1685 44.9855c-1.2929-.036-2.5899-.0628-3.8791-.0551-1.866.0111-3.7454-.287-5.6047.1281-.2282.051-.4768.0105-.7159.0125l.0061.007c.2898-.8725.8549-1.2464 1.7281-1.3104 1.6882-.1237 3.3765-.2004 5.0687-.2097.8196-.0045 1.6394-.0114 2.4586-.0337.2429-.0066.4313.076.6057.2249-.1048.4701.1921.8322.3325 1.2364z" fill="#897f90"/><path d="m71.097 39.2647c.3656.3405.9103.348 1.278.6862.0365.0335.0928.0443.1353.0726.1489.0992.4256.1938.3544.3606-.0837.1962-.3349.1492-.5429.0467-.9584-.4725-1.996-.586-3.0428-.6178-.97-.0295-1.9528.092-2.8768-.3359-.6573-.3044-1.1322-.7659-1.2683-1.4969-.0412-.2214-.0683-.5433.2719-.5601.2592-.0128.473.1401.5372.4489.1321.6358.8548 1.1798 1.4949 1.1496.4125-.0194.5033-.1657.2747-.506-.2503-.3727-.3647-.7996-.4926-1.2125-.0883-.285-.1742-.6673.3094-.7812.1753-.0413.1807-.2351.2564-.3638.615-1.0462 1.5755-1.6657 2.6487-2.1451.1572-.0702.3008-.0022.4397.0699.0026.0638.0052.1276.0077.1913l.005-.0041c-1.0132.4685-1.7711 1.2299-2.2654 2.2021-.4462.8776-.4683 1.3431.4348 1.7416.4809.2122.9325.4914 1.394.7465.109.0603.2096.1143.334.0553l-.0038-.0058c-.0115.0846.0391.1067.1095.1088l-.0068-.0063c.0714.0519.1426.1037.2138.1554z" fill="#0c0c0c"/><path d="m57.6315 43.958c.321-.381.2061-.8552.1025-1.2234-.1559-.5541-.0914-1.1175-.2219-1.6627-.0377-.1575.0334-.2401.2114-.3318 1.4827-.7638 3.0955-1.2624 4.492-2.2.0567-.0381.1231-.1161.1703-.1062.7673.1617.6942-.414.8824-.8799.3178-.7867.8077-1.5033 1.4354-2.0955.3845-.3628.8017-.6921 1.2161-1.0215.16-.1272.2759-.2525.2362-.469.2201.0273.4356-.0158.6476-.0818.0748.2396-.1025.3115-.2083.3873-.7354.5267-1.241 1.2553-1.7875 1.955-.5069.649-.7081 1.3991-.7864 2.1801-.0556.5546-.3641.8032-.8234.9868-1.1085.4431-2.2301.8546-3.2999 1.3917-.6638.3333-1.1258.8044-1.2669 1.563-.084.4512-.2023.898-.3366 1.3372-.1229.4021-.3873.4954-.663.2707z" fill="#948e82"/><path d="m52.1354 34.282c-.0913.5791-.5829.9521-.765 1.4884-.0755.2222-.2941.431.1336.5143.0929.0181.1968.1045.1767.2219-.0306.1787-.2074.1405-.3277.1891-.9482.3823-1.9928.4208-2.933.8395-1.2027.5356-2.3871 1.101-3.4673 1.8627-.5559-.1797-.6055-.3201-.1697-.6796.6612-.5455 1.4579-.8763 2.2144-1.2572.9131-.4597 1.8824-.8 2.8817-1.0401.2388-.0574.3632-.2388.4602-.4478.2964-.6385.8318-1.072 1.322-1.5456.1402-.1355.3044-.1361.4741-.1456z" fill="#0c0d0d"/><path d="m70.7844 39.0127c-.1244.0591-.225.005-.334-.0553-.4614-.2551-.9131-.5343-1.394-.7465-.9031-.3985-.881-.864-.4348-1.7416.4943-.9723 1.2522-1.7336 2.2654-2.2021-.018.4454-.4416.7012-.5093 1.1374-.1793 1.1557-.265 2.293.3343 3.3686.0398.0711.049.1592.0724.2395z" fill="#948e82"/><path d="m67.3552 52.099c-1.0443-.0842-2.0805-.0999-2.9498-.7665-.4738-.3634-.8188-.8215-.9966-1.3958-.0718-.2318-.0614-.4594.1923-.5701.2316-.101.3755.098.4437.2506.6968 1.5609 2.0908 1.8176 3.5648 1.9381.3231.0264.6451.0663.9673.1025.0999.0112.2308.0101.238.1415.0091.1676-.1365.1652-.2551.1773-.4078.0418-.8156.083-1.2046.1224z" fill="#0c0c0c"/><path d="m70.8822 34.2712c-.0026-.0638-.0051-.1276-.0077-.1913.0904-.0801.2243-.1699.2693-.0091.045.1612-.1162.2053-.2616.2004z" fill="#948e82"/><path d="m71.097 39.2647c-.0712-.0517-.1424-.1035-.2137-.1553.1024.009.1813.0502.2137.1553z" fill="#948e82"/><path d="m70.8902 39.1158c-.0704-.0021-.121-.0242-.1095-.1088.0365.0362.073.0725.1095.1088z" fill="#948e82"/><path d="m71.3771 47.3916c-.6315 1.2014-1.7871 1.5577-2.9834 1.8356-1.6192.3762-2.9092-.2959-4.0121-1.3777-.416-.408-.6751-.9762-1.0053-1.4716-.1336-.2005-.0613-.2634.1602-.2695 1.3646-.0381 2.724-.1539 4.0818-.2901.1039-.0104.2257-.0211.242.115.0991.8246.7934.9389 1.3876 1.1238.6919.2154 1.2763-.0268 1.7302-.5865.0318-.0392.073-.0708.1098-.1059.0965.3423.1929.6846.2892 1.0269z" fill="#dee3a6"/><path d="m71.3771 47.3916c-.0964-.3423-.1927-.6846-.2891-1.0269.0085-.6089.4679-.4624.8198-.4822.1604-.009.2029.0858.1443.2324-.1797.4496-.3015.9296-.675 1.2767z" fill="#959183"/><path d="m70.9341 45.9101c-.3588.2119-.6224.4702-1.0064.447-.1687-.0102-.4311.0792-.4567-.1729-.0234-.2305.1752-.3104.4096-.3379.3392-.0398.6594.0269 1.0535.0638z" fill="#e9c9be"/><path d="m61.8458 46.542c.0793-.1613.1145-.4842.3171-.4862.2766-.0027.1867.3457.2362.5303.0467.1743-.1791.2062-.3248.2217-.157.0167-.2634-.0469-.2285-.2658z" fill="#584a60"/><path d="m62.9689 45.071c-.0157.012-.0314.0241-.0471.0361.0046-.0083.0072-.0211.0141-.024.0116-.005.0259-.0038.0391-.0051z" fill="#897f90"/></svg>