<svg enable-background="new 0 0 141.8347 141.7638" viewBox="0 0 141.8347 141.7638" xmlns="http://www.w3.org/2000/svg"><path d="m141.8347 71.3877c-.217-19.5074-6.7222-36.0492-19.9145-49.7288-13.0013-13.4815-29.0554-20.7772-47.7803-21.583-20.2046-.8696-37.853 5.7382-52.4419 19.7538-13.5329 13.0011-20.8296 29.0971-21.6241 47.8643-.8555 20.2076 5.7173 37.8969 19.8016 52.4168 15.1894 15.6592 33.9764 22.8089 55.7622 21.5015 17.2421-1.0347 32.2004-7.735 44.5602-19.7632 14.2834-13.9004 21.3574-31.0091 21.6368-50.4614z" fill="#fff"/><path d="m141.8347 71.3877c-.2794 19.4523-7.3535 36.5611-21.6369 50.4614-12.3597 12.0282-27.3181 18.7285-44.5602 19.7632-21.7858 1.3074-40.5727-5.8423-55.7622-21.5015-14.0842-14.5199-20.657-32.2092-19.8015-52.4168.7945-18.7672 8.0912-34.8632 21.6241-47.8643 14.5889-14.0156 32.2373-20.6234 52.4419-19.7538 18.7249.8059 34.779 8.1016 47.7803 21.583 13.1923 13.6795 19.6976 30.2214 19.9145 49.7288zm-69.2936 66.3589c.7882-.1468 1.6036.0044 2.3851-.2169 1.2659.0193 2.5158-.1612 3.7706-.2907 1.5773-.1628 3.1466-.382 4.7059-.6635 3.2154-.5804 6.3523-1.4563 9.43-2.5508 2.074-.7375 4.1222-1.5426 6.1063-2.4932 2.1426-1.0266 4.2467-2.1274 6.2993-3.3332 4.4838-2.634 8.5012-5.8642 12.2649-9.4274 1.1316-1.0713 2.1655-2.2377 3.2067-3.3972 2.2918-2.5525 4.3894-5.2484 6.2444-8.1373 2.1947-3.4179 4.0704-6.9997 5.6514-10.7383 1.3246-3.1322 2.4139-6.3455 3.2295-9.6465.6676-2.7018 1.1093-5.4441 1.417-8.2122.1734-1.5602.345-3.1245.372-4.6868.0625-3.6224.0952-7.2474-.377-10.8567-.2078-1.5883-.402-3.1777-.6832-4.7543-.5889-3.3022-1.5006-6.5181-2.6373-9.6713-.7523-2.0869-1.5862-4.141-2.5471-6.1414-1.3339-2.7769-2.8148-5.4697-4.4785-8.067-1.9923-3.1102-4.2888-5.9778-6.7634-8.7068-1.1374-1.2543-2.3197-2.4655-3.5746-3.6114-1.5934-1.455-3.2141-2.8739-4.9149-4.1989-4.4239-3.4464-9.2597-6.1963-14.3882-8.4429-3.3349-1.4609-6.7684-2.6422-10.3001-3.5252-2.4679-.617-4.9717-1.038-7.4998-1.345-1.9314-.2345-3.8657-.4453-5.8056-.4778-3.5371-.0594-7.0763-.0839-10.5985.3853-1.5875.2115-3.1771.4012-4.7534.688-3.2663.5943-6.4505 1.4873-9.5726 2.611-2.1036.7571-4.1743 1.593-6.1904 2.5601-2.7777 1.3324-5.471 2.8123-8.0677 4.4769-3.1094 1.9932-5.9806 4.2856-8.709 6.7612-1.2538 1.1377-2.4662 2.319-3.6117 3.5743-1.4545 1.5939-2.8758 3.2128-4.2 4.9142-3.1991 4.1104-5.7963 8.5812-7.9618 13.3136-1.6231 3.5471-2.9298 7.2047-3.9122 10.9756-.745 2.8595-1.2249 5.7691-1.5418 8.7089-.1884 1.7476-.3658 3.4963-.3886 5.2514-.0448 3.4525-.054 6.9046.3896 10.3426.2028 1.5718.3933 3.145.6765 4.7037.5932 3.2651 1.4805 6.4506 2.6077 9.573.7826 2.1678 1.6252 4.31 2.6434 6.3766 1.1636 2.3616 2.3375 4.72 3.5868 7.0368.5807 1.0769 1.1121 2.1992 1.9204 3.1437l.8049 1.2087c1.1081 1.7233 2.3182 3.3712 3.6227 4.9517 1.707 2.0681 3.4931 4.056 5.4618 5.8863 1.9532 1.8159 3.9963 3.5147 6.1554 5.0733.8951.6461 1.7754 1.3236 2.7735 1.8163.2961.2803.5934.5585 1.0219.6207.1039.0859.1992.1859.313.2555 2.0829 1.2726 4.247 2.3926 6.4782 3.3783.491.2169.9492.5495 1.5169.5732.2609.2382.5258.4646.9191.3099.0514.2645.3005.2536.4767.3219 3.3955 1.3176 6.8847 2.3106 10.4648 2.9784 1.1546.2154 2.3059.4659 3.4866.5074.2371.1973.5157.089.7774.1056.7144.1838 1.4503.1918 2.1784.2512 2.9843.2432 5.9708.2349 8.9583.0519.2187-.0134.3637-.0599.3592-.3082.1499.5105.5307.1552.8011.2137z" fill="#606166"/><path d="m15.9713 109.5506c-.8085-.9442-1.3399-2.0665-1.9206-3.1434-1.2493-2.3167-2.4231-4.6752-3.5868-7.0368-1.0182-2.0666-1.8608-4.2088-2.6434-6.3766-1.1273-3.1223-2.0145-6.3079-2.6077-9.573-.2832-1.5587-.4737-3.1319-.6765-4.7037-.4436-3.438-.4344-6.8901-.3896-10.3426.0228-1.7552.2002-3.5038.3886-5.2514.3169-2.9398.7968-5.8494 1.5418-8.7089.9824-3.7709 2.2891-7.4286 3.9122-10.9756 2.1655-4.7324 4.7626-9.2032 7.9618-13.3136 1.3243-1.7015 2.7456-3.3203 4.2-4.9142 1.1455-1.2553 2.3579-2.4366 3.6117-3.5743 2.7284-2.4757 5.5996-4.768 8.709-6.7612 2.5968-1.6646 5.29-3.1445 8.0677-4.4769 2.0162-.9671 4.0869-1.803 6.1904-2.5601 3.1221-1.1237 6.3063-2.0168 9.5726-2.611 1.5763-.2868 3.1659-.4765 4.7534-.688 3.5221-.4692 7.0614-.4447 10.5982-.3854 1.94.0325 3.8743.2433 5.8056.4778 2.5281.307 5.0319.7279 7.4998 1.345 3.5317.883 6.9652 2.0643 10.3001 3.5252 5.1285 2.2466 9.9643 4.9965 14.3882 8.4429 1.7008 1.325 3.3215 2.744 4.9149 4.1989 1.2549 1.1458 2.4373 2.3571 3.5746 3.6114 2.4746 2.729 4.7711 5.5966 6.7634 8.7068 1.6637 2.5973 3.1446 5.2901 4.4785 8.067.9609 2.0004 1.7947 4.0545 2.5471 6.1414 1.1367 3.1531 2.0484 6.3691 2.6373 9.6713.2812 1.5766.4754 3.1661.6832 4.7543.4722 3.6093.4395 7.2343.377 10.8567-.027 1.5624-.1986 3.1266-.372 4.6868-.3076 2.7682-.7494 5.5104-1.417 8.2122-.8156 3.301-1.9048 6.5143-3.2295 9.6465-1.581 3.7385-3.4568 7.3203-5.6514 10.7383-1.855 2.8889-3.9526 5.5849-6.2444 8.1373-1.0412 1.1596-2.0751 2.3259-3.2067 3.3972-3.7636 3.5632-7.781 6.7933-12.2649 9.4274-2.0526 1.2058-4.1567 2.3066-6.2993 3.3332-1.984.9506-4.0322 1.7557-6.1063 2.4932-3.0777 1.0945-6.2146 1.9704-9.43 2.5508-1.5593.2815-3.1285.5007-4.7059.6635-1.2547.1295-2.5047.31-3.7707.2908.3733-.0685.7467-.1371 1.1201-.2057.8839-.0721.9358-.1522.6265-.9553-.0487-.1265-.0942-.2551-.1294-.3859-.4321-1.6084-.8612-3.2177-1.2926-4.8263-.661-2.4643-1.525-4.866-2.2626-7.3069-.3078-1.0186-.5819-2.04-.5278-3.0965.0738-1.4429.2371-2.882.3909-4.3196.1127-1.0534.4013-2.0634.8283-3.038.1744-.398.3442-.3196.5875-.0981.3794.3455.6719.7592.9698 1.1728.7436 1.0322 1.6337 1.9617 2.1205 3.1713.1819.4518.3037.9329.6299 1.3294.3181.3867.6134.4055.8674-.0062.5262-.8529 1.0652-1.698 1.5795-2.5579.1486-.2484.2421-.2781.5003-.1105 1.0628.6903 1.8509 1.6831 2.8091 2.485.3318.2777.5214.8038.9699.8391 1.1208.0881 2.2123.4113 3.3554.3408.8826-.0544 1.7713-.0405 2.6529-.1273 1.6236-.1598 3.2364-.3728 4.7703-.9851.2189-.0874.327-.2119.4261-.3946.5025-.9268 1.008-1.8521 1.5164-2.7756.1255-.2281.257-.383.5914-.3466.8311.0905 1.8142-.5285 2.2179-1.2725.1641-.3025.2895-.6482.6391-.8296.7698-.3994 1.4723-.9066 2.1606-1.4294 1.1859-.9008 2.288-1.9062 3.1571-3.1135 1.0934-1.5188 1.798-3.227 2.1368-5.078.0425-.232.1652-.4276.3418-.6099.6874-.7095 1.1886-1.5386 1.452-2.4963.1052-.3825.124-.6933-.3984-.8701-.4918-.1664-.8909-.546-1.2505-.9454-.9329-1.036-1.7733-2.1495-2.7735-3.1317-1.2444-1.2221-2.5408-2.384-3.8748-3.5013-1.134-.9498-2.4203-1.6955-3.6448-2.5236-.2783-.1883-.681-.3031-.7528-.7098-.1176-.6662-.2245-1.3274-.1948-2.0179.0323-.7508.1323-1.5441-.288-2.2349-.5134-.8438-.9472-1.7492-1.7238-2.4064-.1313-.1112-.0237-.2006.0251-.3073.2308-.5039.4109-1.0518.2455-1.5829-.3581-1.1501-.1578-2.26.1445-3.3615.2098-.7646-.0128-1.328-.5756-1.8399-.8576-.7802-1.5199-1.745-1.823-2.8377-.4948-1.7833-.6033-3.6274-.3107-5.4729.0474-.2992.0615-.5276-.2231-.7462-.3264-.2507-.3656-.5258-.0023-.8701.7781-.7374 1.5395-1.4959 2.103-2.4288.5026-.8321.8018-1.7586 1.2585-2.6077.9192-1.7091 1.2545-3.5946 1.642-5.4532.4732-2.2694.2956-4.5897.3124-6.8895.0083-1.1376-.1332-2.2746-.2727-3.4085-.17-1.3817-.298-2.7703-.389-4.1595-.0814-1.242-.1941-2.4972.1843-3.7169.3668-1.1826.358-2.3456-.119-3.4935-.1692-.4071-.3481-.8207-.747-1.0623-.8854-.5362-2.2124-.7116-3.108.034-.4859.4046-.943.8493-1.3759 1.3108-.6297.6713-1.1552 1.4576-1.8508 2.0463-1.479 1.2515-3.0328 2.4154-4.5674 3.6004-2.1042 1.6249-4.0996 3.3626-5.8871 5.3412-1.3542 1.4989-2.5402 3.1238-3.6729 4.7831-.7595 1.1126-1.4389 2.3014-1.983 3.5318-.3515.7947-.7933 1.13-1.6279 1.1569-.9821.0317-1.9746.4001-2.9002-.2717-.2386-.1732-.5597-.2541-.8555-.3236-1.9971-.4694-4.0051-.617-6.0263-.1475-.2787.0647-.4816.0878-.585-.2928-.568-2.0908-1.1695-4.1726-1.7519-6.2595-.515-1.8453-1.0669-3.679-1.6898-5.4909-.6021-1.7513-1.1778-3.5124-1.8172-5.2501-.7624-2.072-1.2597-4.2411-2.2538-6.2268-.296-.5912-.3711-1.2704-.764-1.8177-.1275-.1776-.2461-.4817-.4559-.4306-.3731.0909-.7048-.0568-1.0566-.0587-.4159-.0022-.7323.1216-.9502.4757-.2925.4752-.551.9749-.8781 1.4247-1.3506 1.8567-2.553 3.8145-3.9829 5.6201-1.518 1.9168-2.7723 4.0246-4.1009 6.0776-1.2418 1.9189-2.1093 4.0148-2.8574 6.144-.7194 2.0476-1.0915 4.2032-1.4963 6.3413-.2854 1.5076-.6069 3.0087-.6141 4.5475-.0086 1.8246-.1232 3.6637.4265 5.443.0682.2208-.0731.2841-.157.3719-.8012.8389-1.5956 1.6859-2.4286 2.4926-2.4351 2.3582-4.2977 5.1339-5.9456 8.0696-.2191.3903-.3477.8139-.4244 1.2524-.092.5252.0207.6716.5712.6995.4615.0234.9245.0141 1.3868.0221.2028.0035.3629.0586.2192.3017-.2198.3719-.3029.7955-.4719 1.1858-1.1083 2.5591-2.3741 5.0416-3.6699 7.5089-1.5975 3.0417-3.3781 5.9743-5.2353 8.8642-.9631 1.4986-1.9252 3.0052-2.6265 4.6559-.3919.9225-.7146 1.8745-1.1934 2.7607-.0858.1588-.3399.3382-.136.5373.1913.1869.4545.3371.742.266.4125-.102.8306-.1892 1.2215-.373.2224-.1046.5308-.3518.6922-.1505.164.2046-.165.4417-.3051.6329-1.6603 2.2669-3.1621 4.6261-4.2676 7.2207z" fill="#e1c245"/><path d="m59.4668 137.4324c-1.1807-.0415-2.332-.292-3.4866-.5074-3.5801-.6678-7.0693-1.6608-10.4648-2.9784-.1762-.0684-.4253-.0574-.4767-.3219.0762-.3309.1379-.666.2312-.9921.4425-1.5464.9107-3.0856 1.3372-4.6362.5047-1.8349.9749-3.6792 1.4633-5.5186.0786-.2961.1922-.5837.2589-.8821.3994-1.7858.7897-3.5738 1.3471-5.3194.2042-.6394.2652-1.3183.9399-1.753.5611-.3615.9766-.9421 1.518-1.3424 2.0141-1.489 4.2134-2.6611 6.4959-3.6813.5128-.2292 1.0353-.4466 1.5894-.5402.3115-.0526.5006-.0979.4878-.488-.0157-.4789-.3254-.4569-.6236-.4255-2.1688.2284-4.2997.6327-6.3799 1.3106-1.136.3702-2.2936.7224-3.3346 1.2787-1.2324.6586-2.5529 1.2016-3.6069 2.1693-.1707.1567-.349.2015-.5088-.0399-.5534-.8359-1.16-1.6437-1.5396-2.5783-.3604-.8874-.4976-.9047-1.3362-.4007-.7829.4705-1.421 1.1348-2.0903 1.751-.2147.1976-.2758.545-.5834.6475-1.6014-2.8084-2.6856-5.8265-3.6955-8.8568-.8157-2.4475-1.0154-5.0392-1.2417-7.6058-.0477-.5413.071-1.0111.4205-1.4768.4349-.5795.9129-1.1264 1.2904-1.7588.7974-1.3358 1.8988-2.4368 2.9819-3.54.3485-.355.703-.7493 1.2255-.8762 1.6806-.4083 3.3866-.5888 5.1158-.6257 1.2024-.0257 2.4036-.1426 3.6047-.0011.331.039.6616.0746.9623.2683 1.8018 1.1604 3.688 2.167 5.6353 3.0613.1817.0834.3544.2013.5052.3329.147.1283.2493.395.4809.2591.2155-.1265.1842-.3748.1634-.6245-.0789-.9486-.1692-1.9085.0808-2.8424.3576-1.336.6052-1.3859 1.7267-1.0064 1.3921.471 2.821.7722 4.288.8829 1.0864.082 2.1729.1632 3.2595.2419.9237.067 1.8488.1167 2.7711.1985.8601.0763 1.7137-.0661 2.5718-.0388.8205.0261 1.6368-.029 2.5293-.1484-.2772-.2269-.4546-.4548-.762-.471-.9285-.0489-1.8083-.2927-2.6806-.6048-1.2433-.4448-2.4186-1.0338-3.6055-1.6021-.8913-.4268-1.7138-.964-2.4093-1.653-.4189-.415-.8951-.8133-1.1016-1.4179-.1159-.3394.0634-.5628.2447-.7635.1835-.2031.4534-.3549.739-.2019.779.4173 1.5758.7662 2.4497.9503.7623.1606 1.5145.2593 2.2987.2146.397-.0226.7762-.3159 1.1862-.0958 1.1083.5949 2.1777 1.2456 2.995 2.2283.1738.209.3933.2786.6196.2358.2191-.0414.3058-.2341.2939-.4738-.0065-.1294.0502-.2645.0904-.3933.202-.646.1184-.9525-.4026-1.3881-.2879-.2408-.5979-.4561-.8767-.7066-.2839-.2552-.6438-.5233-.7028-.8852-.1274-.7822-.1509-1.5827-.1942-2.3769-.0676-1.2389-.0876-2.4821-.4745-3.6797-.0498-.1542-.151-.3183.137-.3948.1279-.034.3521-.1628.2213-.3803-.1161-.1931-.2305-.4378-.5501-.3222-.1758.0636-.3653.0889-.542.1503-1.7835.6204-3.5653 1.2458-5.3487 1.8667-.265.0922-.5371.2689-.7942-.0272-.2401-.2764-.2809-.655-.1514-.9157.571-1.1492 1.3099-2.208 2.353-2.9638.9758-.707 2.0502-1.2779 3.0816-1.908.5054-.3087.8198-.2568 1.1124.2456.5733.9843 1.2828 1.844 2.1956 2.5295.4546.3414.9896.6103 1.3539 1.029.4884.5613 1.0689.9937 1.659 1.4077.3962.278.5361.5763.4883 1.0254-.1842 1.7303-.1476 3.4702-.1947 5.2056-.0297 1.0959.1265 2.2013.797 3.1046 1.2474 1.6804 2.424 3.4094 3.6338 5.1155.4034.5688.8346 1.1183 1.2647 1.6675.1819.2323.3848.2553.5592-.0246.8194.5293 1.2846 1.3168 1.6243 2.2025.164.4276.2597.8997.5991 1.2339.6558.6457 1.1711 1.4225 1.8882 2.0096-.8115 1.1903-.7683 2.2866.1736 3.1326.4109.369.7942.7831 1.3014 1.0386.1023.0515.2113.1479.1667.2874-.0931.2913-.0396.6073-.2293.8898-.285.4243-.233.8372.1027 1.2565.8481 1.0595 1.4116 2.2755 1.7867 3.5716.1454.5023.4673.7695.9146.9273.2871.1013.5894.1645.8888.2253.6379.1295 1.3022.1583 1.9118.5018-.6539 1.0037-1.0423 2.1109-1.5606 3.1549-.2406.4847-.5346.8925-1.0484 1.1933-.6028.3529-1.2369.6375-1.845.9745-2.4274 1.3453-4.9674 1.6554-7.6184.7255-1.75-.6138-3.4126-1.4144-5.027-2.3237-1.8526-1.0434-3.5891-2.245-5.1256-3.7197-.3282-.315-.6528-.6283-.8392-1.0824-.6569-1.6003-.7748-3.2664-.6911-4.9633.0278-.5626.0868-1.1237.1415-1.8119.1674.2032.2443.2896.3136.3817.9937 1.3208 2.1103 2.5234 3.4898 3.4463.7161.4791 1.4315.9953 2.3472 1.0552.2497.0164.5167.1524.6498-.1953.1227-.3204.0661-.5892-.1998-.8229-.5491-.4825-1.0976-.9665-1.6303-1.4669-1.1039-1.0368-2.0851-2.1523-2.3901-3.7111-.0949-.4851-.1124-.9867.136-1.3822.4477-.7129 1.1021-1.2375 1.9022-1.5364.1784-.0667.4024-.1463.5534.1543.3395.6759.8396 1.2431 1.3806 1.763.6229.5985 1.2444 1.2028 1.9476 1.7105.2252.1626.4812.3115.7251.0438.2405-.264-.0322-.4234-.1635-.6021-.3613-.4921-.7488-.9666-1.0851-1.475-.4424-.6687-.4071-1.4921-.6541-2.2283-.1262-.3761.0995-.6421.4789-.7683.3788-.126.7554-.3879 1.0884.0921.3467.4999.7273.9772 1.0575 1.4874.1347.208.286.2164.4743.1795.2142-.042.3299-.1861.3072-.404-.0175-.1681.0082-.3329-.0369-.5066-.1532-.5903-.3683-1.1685-.3593-1.7955.0029-.2012-.066-.3951-.3561-.3968-.2909-.0016-.331.1806-.3557.3925-.0069.0591.0512.1303-.0933.1871-.1969-.1777-.4729-.2423-.7622-.2283-.9915.0478-1.7998.5182-2.5484 1.1214-.352-.0545-.5135.2233-.7243.4152-.215-.0004-.4007-.116-.6454-.0539-.911.2309-1.6782.6959-2.3918 1.29-1.1937.9939-1.2487 2.36-.6126 3.4849.474.8381.8846 1.7152 1.6135 2.3814.059.0539.2665.1089.093.2631-.0987.0878-.1896.0416-.273-.0297-.0649-.0555-.1288-.1125-.19-.172-.9957-.9673-2.036-1.8926-2.6406-3.1911-.1427-.3066-.4937-.4173-.8384-.3808-.236.0249-.3502.271-.3472.4334.0062.3446-.1363.6487-.1711.9786-.1741 1.6503-.1498 3.2998.0389 5.034-.6138-.4658-1.1169-.9139-1.5354-1.4546-.0539-.0696-.0904-.1314-.0842-.2284.029-.4594-.3331-.6292-.6523-.6237-1.1358.0194-2.1609-.4284-3.2216-.7045-1.0149-.2642-1.9729-.7114-2.9232-1.1634-.7785-.3702-1.5498-.7661-2.4597-.7341-.3936.0139-.7072.0996-.8506.4835-.1673.4478-.2353.8921.1813 1.271.3843.3495.875.3456 1.3383.4306 1.4498.266 2.9591-.0723 4.3906.474.5444.2078 1.1063.3958 1.7031.4933.4813.0787 1.0585.2411 1.1622.9081.0175.1125.1475.2311.0703.3337-.1004.1335-.2528.0268-.3783.0006-.9805-.2045-1.9526-.4618-2.941-.6124-2.0853-.3175-4.1918-.4238-6.2982-.4638-.5079-.0097-.7307-.2272-.818-.6502-.3953-1.9169-.2166-3.7157 1.1369-5.2566.1338-.1524.353-.3215.2015-.5177-.1433-.1856-.3792-.0514-.5632.0414-.8794.4434-1.2524 1.2965-1.532 2.1322-.4408 1.3171-.4454 2.6995-.3088 4.0824.0454.4592.258.8264.4506 1.218.3188.6485.7865.1731 1.1911.1739.0171 0 .0343-.0009.0513-.0028 2.4496-.2838 4.8796-.0472 7.2916.3503 1.881.3099 3.6854.9406 5.499 1.5174.1433.0456.2514.1287.3119.3011.1058.3019.2249.6042.4357.859.1186.1433.0717.189-.0994.3109-.6388.4549-1.3085.9029-1.8322 1.4762-1.5831 1.7332-2.7847 3.7315-3.7038 5.8831-1.1293 2.6438-1.7188 5.4369-2.1278 8.273-.1447 1.0031-.2157 2.0128-.2948 3.0318-.1768-.0358-.2177-.1413-.2563-.2561-.2266-.673-.7601-1.1872-.9672-1.8773-.0413-.1377-.1496-.4078-.4321-.3169-.1488.0479-.396-.0127-.3921.2312.0063.4005-.2005.7422-.2515 1.1302-.16 1.2178-.5042 2.395-.8948 3.5575-.2642.7863-.6828 1.5522-.7782 2.3573-.2059 1.7391-.2483 3.4973-.3576 5.2474z" fill="#f0ece5"/><path d="m78.095 95.2731c.7486-.6032 1.5569-1.0736 2.5484-1.1214.2893-.0139.5654.0506.7622.2283.1445-.0568.0864-.128.0933-.1871.0247-.2118.0647-.3941.3557-.3925.2901.0016.359.1956.3561.3968-.009.6269.206 1.2051.3593 1.7955.0451.1737.0194.3385.0369.5066.0227.2179-.093.362-.3072.404-.1883.0369-.3397.0285-.4743-.1795-.3303-.5102-.7108-.9874-1.0575-1.4874-.3329-.48-.7096-.2181-1.0884-.0921-.3794.1262-.6051.3922-.4789.7683.247.7363.2117 1.5597.6541 2.2283.3364.5084.7238.9829 1.0851 1.475.1313.1787.404.3382.1635.6021-.2439.2677-.4999.1188-.7251-.0438-.7032-.5077-1.3247-1.112-1.9476-1.7105-.541-.5199-1.0411-1.0871-1.3806-1.763-.151-.3007-.375-.221-.5534-.1543-.8001.2989-1.4545.8235-1.9022 1.5364-.2484.3955-.2309.897-.136 1.3822.305 1.5588 1.2862 2.6743 2.3901 3.7111.5328.5004 1.0812.9844 1.6303 1.4669.2659.2337.3225.5025.1998.8229-.1331.3477-.4002.2116-.6498.1953-.9157-.06-1.6311-.5761-2.3472-1.0552-1.3795-.9229-2.4961-2.1255-3.4898-3.4463-.0693-.0921-.1462-.1786-.3136-.3817-.0548.6882-.1138 1.2493-.1415 1.8119-.0837 1.6968.0342 3.363.6911 4.9633.1864.4541.511.7674.8392 1.0824 1.5365 1.4747 3.273 2.6763 5.1256 3.7197 1.6144.9092 3.277 1.7098 5.027 2.3237 2.651.9299 5.191.6197 7.6184-.7255.6081-.337 1.2422-.6216 1.845-.9745.5139-.3008.8078-.7086 1.0484-1.1933.5183-1.044.9067-2.1512 1.5606-3.1549-.6096-.3435-1.2739-.3723-1.9118-.5018-.2994-.0608-.6016-.124-.8888-.2253-.4473-.1578-.7692-.4249-.9146-.9273-.3751-1.2962-.9386-2.5121-1.7867-3.5716-.3357-.4193-.3878-.8322-.1027-1.2565.1897-.2824.1362-.5984.2293-.8898.0446-.1396-.0644-.2359-.1667-.2874-.5073-.2555-.8906-.6696-1.3014-1.0386-.9419-.8459-.9851-1.9422-.1737-3.1325.3025-.0304.5498.1461.8249.217 1.1729.3023 2.3504.5031 3.575.3152.9312-.1429 1.85-.3058 2.7327-.6541-.6565-.7282-1.4755-1.2813-1.9318-2.1739.2168-.0871.2929.0506.3883.1371.7817.709 1.5603 1.4123 2.5791 1.7923.2987.1114.6174.1794.8955.308.9465.4379 1.9319.7453 2.9263 1.0448 1.5788.4756 3.1552.4355 4.7364.0568.6321-.1514.6275-.1706.8492.4923-.1176.3663-.4375.5016-.7531.5097-1.0322.0263-2.0335.3338-3.0988.1423-1.4806-.2661-2.9159-.6494-4.3277-1.1538-.416-.1486-.7947-.3348-1.3155-.1666-.8863.2862-1.8202.5063-2.7466.5685-1.4439.097-2.8952-.0216-4.3109-.3633-.3637-.0878-.4044.0425-.414.3367-.0356 1.0895.796 2.0973 1.9913 2.4051 1.3505.3477 2.708.2607 4.0639.0575.5092-.0763.6242-.0102.6387.4831.0282.9574-.2049 1.8573-.5611 2.7381-.3211.7939-.9404.9465-1.719.6451-.5868-.2272-.7702-.9064-.4433-1.5732.1078-.2198.1787-.4404.2287-.6747.0245-.1149.0175-.2248-.1204-.2225-.5233.0086-1.0554-.0185-1.5657.0722-.2566.0456-.0823.4377-.2101.6406-.0362.0575-.0471.1356-.0924.182-.3035.3112-.192.6051.0062.9185.5747.9089 1.1412 1.8238 1.6229 2.7864.0902.1802.2183.2477.3903.2809.8076.1561 1.558.4909 2.3353.7419.737.238 1.4616.6084 2.2715.2481.1139-.0507.2705-.0044.4073-.0045 1.0775-.0003 2.1416-.0531 3.1492-.5149.9955-.4563 1.9098-1.0589 2.8813-1.5581.2154-.1107.3833-.342.5329-.5471.2887-.3959.4964-.8453.8046-1.2326.0832-.1046.2504-.3116.0311-.4407-.2272-.1338-.3291.0575-.4154.239-.19.3991-.3796.7986-.5826 1.1911-.233.4504-.9556.7583-1.3405.5839-.5013-.2271-.6318-.6467-.4003-1.3027.3073-.8708.9138-1.5273 1.6269-2.0582.7438-.5538 1.5531-.3317 1.9216.5147.176.404.3897.3.5808.1482.5202-.4131 1.0162-.8634 1.2942-1.489.138-.3105.4224-.5728.4277-.9175.0065-.4291-.4835-.4619-.7113-.7231-.4979-.5707-1.0702-1.0765-1.6121-1.6089-.0963-.1605-.1713-.3395-.2923-.4786-1.0188-1.1711-2.0339-2.3423-3.2261-3.3516-1.3812-1.1693-2.8158-2.2682-4.3884-3.1548-1.4256-.8036-2.4962-1.9376-3.2854-3.316-1.1485-2.0062-2.3422-3.9652-3.999-5.6036-.2048-.2025-.3848-.4359-.5459-.6755-.3097-.4607-.2337-.6679.3234-.7575.2681-.0431.3677-.299.3002-.3569-.3512-.3012-.0641-.5961-.039-.882.1169-1.3321.2943-2.6575.2892-4.0014-.0013-.3344.0031-.5395-.3064-.7217-.2254-.1327-.2766-.4213-.1422-.6402.1584-.258.3898-.0996.5867.0001.5127.2595 1.036.1429 1.5924.0834-.5273-.8543-.9332-1.7153-1.1975-2.6332-.439-1.5248-.6367-3.0678-.2306-4.6377.0794-.3069.0222-.5634-.1316-.8653-.4007-.7861-.4696-1.2974.3236-1.6543.2253-.1014.4202-.2932.5976-.4744 1.4097-1.4401 2.3671-3.1645 2.9894-5.0573.6121-1.8618 1.0127-3.7912 1.1504-5.7433.1412-2.0015.3587-4.0014.2979-6.0186-.0477-1.5836-.1942-3.1542-.3543-4.7274-.1524-1.4983-.3493-2.9964-.3129-4.5067.0147-.6081.0057-1.2447.1806-1.8153.3536-1.1538.2731-2.2414-.2537-3.2979-.3839-.7699-1.3384-1.0327-2.0639-.584-.9837.6085-1.8531 1.3777-2.45 2.358-.5296.8696-1.3204 1.4224-2.0833 1.9903-1.4899 1.1092-2.9613 2.2395-4.3903 3.4243-1.0427.8645-2.0461 1.7747-3.0139 2.7242-1.1075 1.0865-2.1918 2.2023-3.1677 3.4013-1.2453 1.53-2.386 3.1491-3.2865 4.9167-.3158.6199-.6624 1.2295-.8649 1.901-.0843.2794-.0571.5016.2895.6179.4889.1641.9896.2184 1.4945.288.4087.0563.8744.0428 1.2403.5607-2.0629.0001-4.0364-.1938-6.0433.3172.465.4815.8345.9197 1.3333 1.2306.8247.5141 1.6408 1.0422 2.4567 1.5702.1045.0676.2962.1272.2022.2992-.0813.149-.2434.0889-.3632.0179-.3405-.2019-.735-.2542-1.094-.418-.8618-.3934-1.5902-.9971-2.4139-1.4464-.8795-.4799-1.6885-1.0882-2.6548-1.41-.8883-.2958-1.7861-.4959-2.7206-.6219-1.301-.1754-2.594-.2114-3.8976-.1605-.2641.0103-.311.1133-.2345.3614.1153.3739.2059.7578.2738 1.1433.0477.2706-.0669.4953-.3591.5502-.2942.0553-.468-.0966-.4673-.3932.0006-.253-.1049-.4614-.2014-.681-.2904-.6609-.5588-1.3329-.7208-2.0368-.3973-1.7258-.9893-3.3955-1.4473-5.1038-.3923-1.4632-.8545-2.9076-1.242-4.372-.6554-2.477-1.5435-4.878-2.3184-7.3158-.4077-1.2824-.8358-2.5589-1.3061-3.8153-.481-1.2847-.8011-2.6533-1.6868-3.7653-.3477-.4366-.7282-.4556-1.0665-.005-.3872.5158-.7775 1.0293-1.1651 1.5448-1.0766 1.4319-2.1813 2.8438-3.219 4.3033-.78 1.097-1.4873 2.2469-2.2028 3.3885-1.2948 2.0658-2.6747 4.0829-3.6587 6.3294-.3423.7814-.7793 1.5284-1.0503 2.3325-.5097 1.5124-.9538 3.0452-1.3142 4.6062-.5121 2.2183-.7656 4.4611-.8587 6.7257-.0631 1.5363-.0101 3.0738.1926 4.6006.1329 1.0008.2653 2.0107 1.0905 2.7384.1328.1171.1897.2764.1262.4161-.2503.5503-.1556 1.1679-.3679 1.7284-.1057.279-.2094.5969-.1131.9035.2246.7144.2685 1.4697.5322 2.1778.1449.3892.0565.7372-.3609.9975-.7625.4754-1.0329 1.3187-1.4611 2.0462.3551-.1019.6876-.1845 1.0076-.2774.3986-.1157.7703-.3716 1.2224-.3108.184.0247.2684.1185.3388.263.0792.1624-.0159.2543-.1277.3459-1.1681.9569-1.9092 2.2463-2.6443 3.5194-1.1378 1.9704-1.9375 4.0998-2.7416 6.2229-.2517.6645-.4848 1.3315-.5683 2.1124.657-.3304 1.2459-.6273 1.8356-.9225.1553-.0777.3184-.1584.4771-.0181.1593.1409.098.3069.0337.4719-.1849.4749-.3748.9481-.547 1.4276-.4171 1.1613-.6753 2.3671-.7802 3.5881-.0671.7813-.2319 1.5731-.1057 2.4322.1098-.1009.1732-.1522.2287-.2111 1.155-1.2272 2.2256-2.5335 3.4765-3.6713.4163-.3786.8415-.7687 1.1601-1.2251.1768-.2533.3318-.415.6196-.4403.7798-.0685 1.5604-.1275 2.3408-.189 1.5144-.1194 3.0318-.0972 4.5486-.0905.8435.0037 1.6813.1089 2.5327.0263.4758-.0461.9872.1001 1.3264.5235.3944.4924.9296.7895 1.4605 1.0994.9886.577 2.0585.9862 3.0732 1.5085.1409.0726.2825.1859.4226.0779.139-.1072.0662-.2848.0417-.4341-.091-.5546-.1404-1.1099-.0683-1.6719.1207-.9409.5865-1.5101 1.4843-1.738.712-.1807 1.4094-.0473 2.077.2178.9431.3743 1.9293.5652 2.9268.6804 1.2998.15 2.5889.3776 3.8948.4876 1.0609.0894 2.1173.1669 3.3021.1124-2.1161-.8258-4.018-1.7717-5.7648-3.0523-1.2178-.8928-1.8042-2.1855-1.0251-3.2368.0668-.0901.2246-.2435.0947-.3505-.1726-.142-.4212-.1881-.6345-.107-.4911.1867-.9643.0758-1.4526-.0017-.3295-.0523-.6327-.1636-.5381-.5108.0835-.3064.4404-.2591.713-.191.8492.2122 1.6625-.1408 2.0227-.9381.377-.8347.6702-1.7132 1.382-2.3471.1017-.0906.18-.1819.0691-.2961-.2993-.3081-.2014-.7308-.3317-1.0862-.2342-.6386-.0322-1.204.2881-1.7518.271-.4636.6602-.8248 1.0496-1.1792 1.6994-1.5467 3.6659-2.7139 5.6099-3.9109.4465-.2749.6866-.2003.8161.2552.2666.9374.7259 1.7425 1.3936 2.4659 1.6675 1.8068 3.6181 2.9319 6.1597 2.7921.2983-.0164.5685-.0988.8437-.1952.1466-.0513.3124-.0556.4294.0767.1369.1548-.0502.2359-.094.3515-.1416.3743-.4764.5698-.7992.672-.952.3015-1.2586.9761-1.3818 1.9-.2459 1.8433-.3865 3.6707-.0271 5.5181.4378 2.2504 1.5841 4.1504 2.8659 5.9879.7387 1.0589 1.5656 2.0596 2.0821 3.2598-.1744.2799-.3773.2569-.5592.0246-.4301-.5493-.8614-1.0987-1.2647-1.6675-1.2098-1.7061-2.3864-3.4351-3.6338-5.1155-.6705-.9033-.8268-2.0087-.797-3.1046.0471-1.7355.0105-3.4753.1947-5.2056.0478-.4491-.092-.7474-.4883-1.0254-.59-.414-1.1706-.8464-1.659-1.4077-.3643-.4186-.8993-.6876-1.3539-1.029-.9128-.6855-1.6223-1.5452-2.1956-2.5295-.2926-.5024-.6071-.5543-1.1124-.2456-1.0314.6301-2.1058 1.2011-3.0816 1.908-1.0431.7557-1.782 1.8145-2.353 2.9638-.1295.2607-.0887.6392.1514.9157.2571.2961.5293.1194.7942.0272 1.7834-.6209 3.5652-1.2463 5.3487-1.8667.1767-.0615.3662-.0867.542-.1503.3195-.1156.434.1291.5501.3222.1308.2175-.0934.3464-.2213.3803-.2881.0765-.1869.2406-.137.3948.3869 1.1976.4069 2.4409.4745 3.6797.0433.7942.0668 1.5947.1942 2.3769.059.3619.4188.63.7028.8852.2788.2505.5888.4659.8767.7066.521.4356.6046.7421.4026 1.3881-.0403.1287-.0969.2639-.0904.3933.012.2397-.0748.4323-.2939.4738-.2263.0428-.4458-.0268-.6196-.2358-.8172-.9827-1.8867-1.6334-2.995-2.2283-.41-.2201-.7892.0732-1.1862.0958-.7843.0447-1.5364-.054-2.2987-.2146-.874-.1841-1.6708-.5329-2.4497-.9503-.2855-.153-.5555-.0012-.739.2019-.1813.2007-.3606.4241-.2447.7635.2065.6047.6826 1.0029 1.1016 1.4179.6954.689 1.5179 1.2262 2.4093 1.653 1.1869.5683 2.3622 1.1573 3.6055 1.6021.8723.3121 1.7521.5559 2.6806.6048.3074.0162.4848.2441.762.471-.8925.1194-1.7088.1745-2.5293.1484-.858-.0273-1.7117.1151-2.5718.0388-.9223-.0818-1.8474-.1316-2.7711-.1985-1.0866-.0788-2.1731-.1599-3.2595-.2419-1.467-.1108-2.8958-.4119-4.288-.8829-1.1215-.3795-1.3691-.3295-1.7267 1.0064-.25.9339-.1597 1.8939-.0808 2.8424.0208.2497.0521.498-.1634.6245-.2316.1359-.334-.1308-.4809-.2591-.1509-.1317-.3235-.2495-.5052-.3329-1.9473-.8943-3.8335-1.9008-5.6353-3.0613-.3007-.1936-.6313-.2293-.9623-.2683-1.2011-.1415-2.4023-.0246-3.6047.0011-1.7292.0369-3.4352.2175-5.1158.6257-.5225.1269-.877.5212-1.2255.8762-1.0831 1.1032-2.1844 2.2043-2.9819 3.54-.3775.6324-.8555 1.1793-1.2904 1.7588-.3495.4657-.4683.9355-.4205 1.4768.2263 2.5667.4261 5.1583 1.2417 7.6058 1.0099 3.0304 2.0941 6.0484 3.6955 8.8568.3076-.1025.3688-.4499.5834-.6475.6693-.6162 1.3074-1.2804 2.0903-1.751.8386-.504.9758-.4868 1.3362.4007.3795.9346.9862 1.7424 1.5396 2.5783.1598.2414.3382.1966.5088.0399 1.054-.9677 2.3746-1.5107 3.6069-2.1693 1.0409-.5563 2.1985-.9085 3.3346-1.2787 2.0802-.6779 4.2111-1.0822 6.3799-1.3106.2982-.0314.6079-.0534.6236.4255.0128.3901-.1763.4354-.4878.488-.5541.0936-1.0766.311-1.5894.5402-2.2825 1.0202-4.4818 2.1922-6.4959 3.6813-.5415.4003-.9569.9809-1.518 1.3424-.6747.4347-.7358 1.1137-.9399 1.753-.5574 1.7456-.9476 3.5336-1.3471 5.3194-.0667.2984-.1803.586-.2589.8821-.4884 1.8394-.9586 3.6837-1.4633 5.5186-.4266 1.5507-.8947 3.0899-1.3372 4.6362-.0933.326-.155.6611-.2312.9921-.3933.1547-.6582-.0716-.9191-.3099.2702-1.0867.4934-2.1877.8208-3.2568.5731-1.8716 1.155-3.7403 1.6466-5.6348.8045-3.1001 1.8433-6.1362 2.5243-9.2699.0402-.1849.1044-.4026.2934-.4572.3329-.096.4705-.3828.6746-.6004.7321-.7803 1.5205-1.4899 2.3966-2.1098.8741-.6185 1.8197-1.1379 2.6139-1.868.0148-.0359.0297-.0716.0446-.1074-.0424.0052-.0849.0104-.1273.0156-.3294.0899-.6621.169-.9875.2716-1.846.5823-3.6038 1.3723-5.2499 2.3834-.7147.439-1.4943.8375-2.0205 1.5139-.2444.3142-.4186.2825-.6547.1001-.1582-.1221-.3032-.2613-.43-.4302-.5936-.7906-1.1215-1.6353-1.8509-2.3172-.1135-.1061-.1854-.3015-.4136-.1381-.7777.557-1.5757 1.0829-2.1392 1.8879-.4394.6278-1.0632.592-1.4151-.0809-.6547-1.252-1.318-2.5011-1.9216-3.778-1.0412-2.2027-1.5977-4.566-2.1967-6.9124-.0751-.2944-.109-.7712-.3094-.8083-.3315-.0613-.4793.3718-.63.646-.5845 1.0639-1.0312 2.1824-1.3003 3.3713-.2902 1.2818-.596 2.5614-.6656 3.8787-.1293 2.4475-.0904 4.8921.0803 7.3391.1941 2.7812.6428 5.5118 1.4862 8.1679.4268 1.3441.9457 2.659 1.423 3.9871-.4285-.0622-.7259-.3404-1.022-.6206-.4813-1.3816-.8398-2.8094-1.361-4.1698-.7362-1.9214-.9587-3.9302-1.2193-5.9277-.1658-1.2711-.2321-2.5668-.214-3.8637.0266-1.8979.11-3.7907.2121-5.6853.1038-1.9262.4885-3.7707 1.2437-5.5485.4512-1.0621.7192-2.2138 1.6077-3.04.1082-.1006.0952-.1864.068-.3149-.1169-.5505-.1794-1.111-.2666-1.6657-.2491-1.5855-.3931-3.1813-.4598-4.7788-.0519-1.2428-.1231-2.4965.0707-3.739.1642-1.0525.3307-2.1047.5032-3.2017-.2087.1326-.3752.2514-.5536.3485-.2583.1406-.5471.2775-.8203.1013-.2782-.1795-.1249-.4544-.0642-.7007.0364-.1478.0142-.312.0611-.4547.3605-1.0984.7271-2.1949 1.1011-3.2888.1873-.5478.4227-1.0805.5869-1.6346.5376-1.8146 1.4069-3.4875 2.1938-5.1953.1327-.288.4566-.4682.5116-.8136.0462-.0375.1166-.1011.0551-.1374-.0747-.0441-.0712.059-.0906.1074-.3163-.0046-.5317.1718-.7451.3813-.1692.1661-.4042.2166-.6187.099-.2529-.1387-.1587-.3899-.1192-.5987.028-.148.1081-.287.1705-.4275.5442-1.2246.9684-2.5121 1.8584-3.5559.1513-.1774.191-.3611.1585-.6059-.061-.4605-.1533-.9215-.3326-1.3343-.1753-.4037-.0725-.6718.0851-1.0438.394-.9305 1.2864-1.8571.1872-2.9164-.1907-.1838-.2372-.2473-.4478-.0588-1.5986 1.4312-3.1868 2.8626-4.4737 4.6056-1.1367 1.5395-2.2518 3.0845-3.0816 4.816-.0774.1614-.2884.3304-.1684.4984.0897.1255.3141.0371.4846.01.3834-.0609.7724-.0401 1.1581-.1439.4226-.1138.5108.0549.4423.4802-.1452.9013-.5155 1.7081-.9362 2.5012-.5683 1.0715-.9338 2.2266-1.3788 3.349-.7358 1.8557-1.5907 3.6575-2.4251 5.4704-.8021 1.7426-1.7169 3.409-2.7457 5.0197-.3936.6162-.8309 1.2038-1.2429 1.8069-.6901 1.0102-1.3059 2.0708-1.9671 3.101-.8022 1.2497-1.5873 2.5068-2.079 3.9204-.0492.1415-.1611.3117-.0052.4183.118.0806.2513-.0573.3683-.1235.9925-.5616 2.0714-.9568 3.0293-1.5874.2843-.1871.7069-.1603.8971.0071.2237.1969-.2151.3954-.2686.6385-.0135.0614-.0735.114-.1165.1672-1.4169 1.7502-2.7131 3.5823-3.8888 5.5061-1.0859 1.7768-2.1527 3.559-2.9776 5.4754-.2683-.4029-.5366-.8058-.8048-1.2088 1.1055-2.5947 2.6073-4.9539 4.268-7.221.1401-.1912.4691-.4283.3051-.6329-.1614-.2013-.4698.0459-.6922.1505-.3909.1839-.809.2711-1.2215.373-.2876.0711-.5507-.0791-.742-.266-.2039-.1991.0502-.3785.136-.5373.4788-.8862.8015-1.8383 1.1934-2.7607.7013-1.6507 1.6634-3.1573 2.6265-4.6559 1.8572-2.8899 3.6378-5.8225 5.2353-8.8642 1.2958-2.4673 2.5616-4.9498 3.6699-7.5089.169-.3903.2521-.8139.4719-1.1858.1437-.2432-.0164-.2982-.2192-.3017-.4623-.0079-.9254.0013-1.3868-.0221-.5505-.0279-.6632-.1743-.5712-.6995.0768-.4385.2054-.8621.4244-1.2524 1.6479-2.9357 3.5105-5.7114 5.9456-8.0696.8331-.8067 1.6274-1.6537 2.4286-2.4926.0839-.0878.2252-.1511.157-.3719-.5497-1.7794-.4351-3.6184-.4265-5.443.0073-1.5388.3287-3.0399.6141-4.5475.4048-2.1381.7769-4.2937 1.4963-6.3413.7481-2.1293 1.6157-4.2252 2.8574-6.144 1.3285-2.0529 2.5829-4.1608 4.1009-6.0776 1.4299-1.8056 2.6323-3.7634 3.9829-5.6201.3272-.4498.5857-.9494.8781-1.4247.2179-.3541.5344-.478.9502-.4757.3518.0019.6835.1495 1.0566.0587.2098-.0511.3284.253.4559.4306.3928.5473.468 1.2265.764 1.8177.9941 1.9857 1.4913 4.1548 2.2538 6.2268.6394 1.7376 1.2151 3.4987 1.8172 5.2501.623 1.8119 1.1748 3.6456 1.6898 5.4909.5825 2.087 1.1839 4.1687 1.7519 6.2595.1034.3806.3063.3575.585.2928 2.0212-.4695 4.0292-.3218 6.0263.1475.2958.0695.6169.1505.8555.3236.9256.6718 1.9181.3033 2.9002.2717.8347-.0269 1.2764-.3622 1.6279-1.1569.5442-1.2304 1.2235-2.4192 1.983-3.5318 1.1327-1.6593 2.3187-3.2841 3.6729-4.7831 1.7875-1.9786 3.7829-3.7163 5.8871-5.3412 1.5346-1.185 3.0884-2.3488 4.5674-3.6004.6956-.5887 1.2211-1.3749 1.8508-2.0463.4329-.4615.89-.9062 1.3759-1.3108.8955-.7456 2.2226-.5702 3.108-.034.3989.2416.5779.6552.747 1.0623.477 1.1478.4858 2.3109.119 3.4935-.3784 1.2198-.2657 2.4749-.1843 3.7169.0911 1.3892.219 2.7778.389 4.1595.1395 1.134.2811 2.271.2727 3.4085-.0168 2.2997.1608 4.62-.3124 6.8895-.3875 1.8586-.7228 3.7441-1.642 5.4532-.4567.8492-.7559 1.7757-1.2585 2.6077-.5635.9329-1.3249 1.6914-2.103 2.4288-.3633.3443-.3241.6194.0023.8701.2846.2186.2705.4469.2231.7462-.2926 1.8455-.184 3.6896.3107 5.4729.3032 1.0927.9654 2.0575 1.823 2.8377.5628.5119.7854 1.0753.5756 1.8399-.3023 1.1015-.5026 2.2114-.1445 3.3615.1654.5311-.0147 1.0789-.2455 1.5829-.0489.1067-.1565.1961-.0251.3073.7766.6573 1.2104 1.5626 1.7238 2.4064.4203.6908.3203 1.484.288 2.2349-.0297.6904.0772 1.3517.1948 2.0179.0718.4067.4744.5216.7528.7098 1.2245.8282 2.5107 1.5739 3.6448 2.5236 1.334 1.1173 2.6304 2.2791 3.8748 3.5013 1.0002.9823 1.8406 2.0957 2.7735 3.1317.3597.3994.7587.779 1.2505.9454.5225.1768.5036.4876.3984.8701-.2634.9577-.7646 1.7868-1.452 2.4963-.1766.1823-.2993.3778-.3418.6099-.3388 1.851-1.0435 3.5592-2.1368 5.078-.8691 1.2073-1.9712 2.2127-3.1571 3.1135-.6882.5228-1.3908 1.03-2.1606 1.4294-.3497.1814-.475.5271-.6391.8296-.4037.7441-1.3868 1.3631-2.2179 1.2725-.3344-.0364-.4658.1185-.5914.3466-.5084.9236-1.0139 1.8488-1.5164 2.7756-.0991.1827-.2072.3072-.4261.3946-1.5339.6123-3.1467.8253-4.7703.9851-.8816.0868-1.7703.0729-2.6529.1273-1.143.0705-2.2346-.2528-3.3554-.3408-.4486-.0353-.6381-.5614-.9699-.8391-.9582-.8019-1.7463-1.7947-2.8091-2.485-.2582-.1677-.3518-.138-.5003.1105-.5143.86-1.0534 1.7051-1.5795 2.5579-.254.4117-.5493.3929-.8674.0062-.3262-.3965-.4481-.8776-.6299-1.3294-.4869-1.2095-1.3769-2.139-2.1205-3.1713-.2979-.4136-.5904-.8273-.9698-1.1728-.2433-.2215-.4131-.2999-.5875.0981-.4271.9746-.7157 1.9845-.8283 3.038-.1538 1.4376-.317 2.8768-.3909 4.3196-.054 1.0565.22 2.0779.5278 3.0965.7376 2.441 1.6016 4.8427 2.2626 7.3069.4314 1.6086.8605 3.2178 1.2926 4.8263.0351.1308.0806.2594.1294.3859.3093.8031.2573.8832-.6265.9553-.1442-.6458-.2525-1.3021-.4387-1.9355-.8379-2.8502-1.6916-5.6957-2.5541-8.5385-.2199-.7247-.3382-1.4826-.7187-2.2982-.0421.9222-.0949 1.7144-.1112 2.5074-.0374 1.8242.2778 3.6384.1873 5.4622-.0401.809-.0751 1.6257-.0485 2.4254.0309.93.1255 1.8655.1788 2.7997-.2704-.0585-.6511.2968-.801-.2136-.0141-.0281-.0148-.0565-.0018-.0851.0978-.1092.1012-.2168-.0053-.3226.0305-.4215-.0459-.8394-.0723-1.2566-.1681-2.6534-.1338-5.3102-.15-7.9651-.0114-1.8514-.1706-3.6993-.0382-5.5561.1144-1.6049.091-3.2165.3575-4.8143.3084-1.8492.6569-3.6771 1.5338-5.3628.1069-.2055.2039-.3355.4329-.3689.2539-.0371.3826.1301.4875.3022.0801.1314.1443.2692.262.3735.9115.808 1.6279 1.7813 2.3143 2.7751.5096.7378.9782 1.5039 1.4928 2.3004.4414-.8366.8519-1.6329 1.2812-2.419.1576-.2885.0671-.4395-.1782-.6237-1.7052-1.2807-3.3934-2.584-5.0988-3.8643-.3621-.2718-.6938-.7787-1.0997-.7479-.399.0303-.7897.4302-1.1459.7156-.9271.7429-1.9998 1.336-2.7687 2.2371-1.3239 1.5514-2.2332 3.3723-2.9827 5.2617-.8531 2.1507-1.2084 4.4221-1.5365 6.6968-.1329.9212-.2561 1.8423-.1136 2.7751.0716.4684-.2697.8957-.1263 1.3862.0412.141-.1941.3022-.3429.3273-.2529.0427-.4385-.1223-.5789-.3362-.3608-.5496-.783-1.0478-1.2669-1.5313-.4005 1.0175-.7763 1.9957-1.1698 2.9667-.5494 1.3558-.7647 2.7772-.8341 4.2243-.0466.9725-.3277 1.9334-.1473 2.9169-.2617-.0166-.5403.0917-.7774-.1056.1093-1.7502.1517-3.5083.3577-5.2471.0954-.8051.514-1.571.7782-2.3573.3906-1.1625.7349-2.3398.8948-3.5575.051-.3881.2578-.7298.2515-1.1302-.0038-.2439.2433-.1833.3921-.2312.2825-.0909.3908.1792.4321.3169.2071.6901.7406 1.2044.9672 1.8773.0387.1148.0795.2203.2563.2561.0792-1.019.1501-2.0287.2948-3.0318.409-2.8362.9985-5.6292 2.1278-8.273.9191-2.1515 2.1207-4.1499 3.7038-5.8831.5237-.5733 1.1934-1.0213 1.8322-1.4762.1711-.1219.218-.1675.0994-.3109-.2108-.2547-.3299-.5571-.4357-.859-.0604-.1725-.1686-.2555-.3119-.3011-1.8136-.5769-3.618-1.2075-5.499-1.5174-2.4121-.3975-4.842-.6341-7.2916-.3503-.017.002-.0342.0029-.0513.0028-.4046-.0008-.8722.4746-1.1911-.1739-.1925-.3916-.4052-.7589-.4506-1.218-.1366-1.3828-.132-2.7653.3088-4.0824.2797-.8357.6527-1.6888 1.532-2.1322.184-.0928.4199-.227.5632-.0414.1515.1962-.0676.3653-.2015.5177-1.3535 1.5409-1.5322 3.3398-1.1369 5.2566.0872.423.31.6405.818.6502 2.1064.0401 4.2129.1463 6.2982.4638.9885.1505 1.9606.4079 2.941.6124.1255.0262.2779.1328.3783-.0006.0772-.1026-.0528-.2211-.0703-.3337-.1037-.667-.6809-.8294-1.1622-.9081-.5968-.0975-1.1587-.2856-1.7031-.4933-1.4315-.5463-2.9408-.208-4.3906-.474-.4633-.085-.954-.081-1.3383-.4306-.4166-.3789-.3486-.8233-.1813-1.271.1434-.3839.4571-.4697.8506-.4835.9099-.032 1.6812.3639 2.4597.7341.9503.4519 1.9084.8991 2.9232 1.1634 1.0606.2761 2.0857.724 3.2216.7045.3192-.0055.6813.1643.6523.6237-.0061.097.0303.1588.0842.2284.4184.5407.9216.9888 1.5354 1.4546-.1887-1.7342-.213-3.3837-.0389-5.034.0348-.3299.1773-.634.1711-.9786-.0029-.1624.1113-.4084.3472-.4334.3447-.0364.6957.0743.8384.3808.6046 1.2985 1.6449 2.2238 2.6406 3.1911.0612.0595.1251.1165.19.172.0835.0713.1743.1174.273.0297.1734-.1542-.0341-.2092-.093-.2631-.7289-.6661-1.1395-1.5432-1.6135-2.3814-.6361-1.1249-.5811-2.491.6126-3.4849.7136-.5941 1.4807-1.0591 2.3918-1.29.2448-.062.4305.0536.6455.0539.326.3341.4763.7754.7145 1.163.0593.0965.1491.2079.2893.1511.1793-.0727.0428-.1964.0317-.3001-.0527-.4882-.356-.9211-.3112-1.4298zm2.9041 19.442c.0477.2445.2841.1677.4085.2816 1.0524.9629 2.1318 1.8974 3.1584 2.8867.3887.3746.7902.6114 1.3185.6741.5208.0618 1.0356.1845 1.5573.2254 2.1395.168 4.2525-.0455 6.3153-.6122.5671-.1558 1.1355-.3642 1.5697-.9221.533-.6847.8387-1.5078 1.4329-2.1395.1326-.141.0152-.2385-.045-.3583-.313-.6227-.8877-1.027-1.2964-1.5693-.208-.2761-.3452-.1142-.4431.0926-.1661.3507-.4327.571-.7697.7623-1.2304.6986-2.5036 1.303-3.8086 1.8467-1.2596.5248-2.5512.6512-3.8926.4077-1.4943-.2712-2.9336-.7242-4.3658-1.2175-.3709-.1278-.7058-.4158-1.1394-.3582zm26.0585-10.7658c-.6285.3044-.8018.8299-1.1148 1.2369-.3447.4484-.4389 1.0905-.9984 1.367-.8336.4119-1.6719.8107-2.4907 1.2555-1.2256.6659-2.5652 1.0478-3.9131 1.3902-.2263.0575-.4659.0933-.5674.3654-.2264.6069-.5601 1.1637-.8328 1.7484-.1574.3374-.4599.7527-.2493 1.0818.3732.5832.759 1.1771 1.272 1.6607.1042.0983.2322.2379.3953.0809.3624-.349.8417-.5877 1.0567-1.0749.0839-.19.2304-.3229.3959-.3718.8234-.2434 1.4254-.8435 2.1226-1.2871.4284-.2726.8966-.5385 1.2149-.9181 1.0678-1.2736 2.0579-2.6139 2.7999-4.1084.3656-.7364.6707-1.5099.9092-2.4265zm-36.733-22.4372c.1023 0 .2056-.0093.3067.0015.5416.0578.925-.1092 1.1628-.6482.3209-.7272.5228-1.4743.5406-2.2641.0317-1.4096-.6142-2.4428-1.8284-2.9662-.1325-.0571-.2659-.0328-.3964.0212-1.2206.5056-2.4798.9118-3.6761 1.4831-.9742.4652-1.2406 1.4448-.5354 2.2822 1.1525 1.3685 2.7111 1.9057 4.4262 2.0905zm22.2978-6.0731c-.0684 1.1714-.5065 2.3045-.3527 3.5319.2913-.2602.4245-.6939.872-.7315.4008-.0337.6913.3078 1.108.3287.1102-.5761.0404-1.1827.3067-1.7315.0938-.1933.1042-.426.163-.6378.0445-.1602.031-.2222-.1683-.2658-.6417-.1406-1.2742-.323-1.9287-.494zm2.0273 5.9919c-.0005-.3157-.3007-.5179-.3271-.8383-.0305-.3697-.2415-.6712-.4807-.9381-.573-.6394-.7405-.5703-1.2308.1116-.3312.4605-.1056 1.1614-.7151 1.4687-.0815.0411.0014.1468.0681.2071.4943.4473.8739.9888 1.2548 1.5296.0796.1129.1524.3378.3349.1362.4167-.4602.6241-1.0693 1.0557-1.5227.0306-.032.0265-.0972.0402-.1541zm1.5622 6.2211c.0801-.6649.0201-1.24-.0771-1.7844-.1381-.7727-.5582-1.4533-.9753-2.1175-.1409-.2244-.1895-.6343-.4087-.6462-.2433-.0132-.2679.4321-.4654.6016-.3692.3171-.2971.5935-.0403.9426.3968.5393.8182 1.0749 1.0781 1.6938.1963.4674.4718.8567.8887 1.3101z" fill="#120c14"/><path d="m16.7761 110.7596c.8249-1.9165 1.8917-3.6986 2.9776-5.4754 1.1757-1.9238 2.4719-3.7559 3.8888-5.5061.043-.0531.103-.1058.1165-.1672.0535-.2431.4923-.4416.2686-.6385-.1902-.1674-.6128-.1943-.8971-.0071-.9579.6306-2.0368 1.0258-3.0293 1.5874-.117.0662-.2503.2041-.3683.1235-.1559-.1065-.044-.2767.0052-.4183.4917-1.4136 1.2769-2.6707 2.079-3.9204.6613-1.0302 1.277-2.0909 1.9671-3.101.412-.6031.8493-1.1907 1.2429-1.8069 1.0288-1.6107 1.9437-3.2771 2.7457-5.0197.8344-1.8129 1.6894-3.6147 2.4251-5.4704.4451-1.1225.8105-2.2775 1.3788-3.349.4207-.7931.791-1.5999.9362-2.5012.0685-.4253-.0197-.594-.4423-.4802-.3857.1038-.7747.083-1.1581.1439-.1705.0271-.3949.1155-.4846-.01-.12-.168.091-.337.1684-.4984.8299-1.7314 1.945-3.2764 3.0816-4.816 1.2869-1.743 2.8751-3.1744 4.4737-4.6056.2106-.1885.2571-.125.4478.0588 1.0992 1.0593.2067 1.9859-.1872 2.9164-.1575.3721-.2604.6401-.0851 1.0438.1793.4128.2715.8738.3326 1.3343.0325.2449-.0072.4285-.1585.6059-.89 1.0438-1.3143 2.3313-1.8584 3.5559-.0624.1405-.1425.2795-.1705.4275-.0395.2087-.1337.4599.1192.5987.2145.1177.4495.0672.6187-.099.2133-.2095.4288-.3859.7451-.3813l.0356.03c-.0552.3452-.3791.5255-.5118.8135-.7868 1.7078-1.6561 3.3807-2.1938 5.1953-.1642.5542-.3996 1.0868-.5869 1.6346-.374 1.0939-.7406 2.1904-1.1011 3.2888-.0469.1428-.0247.307-.0611.4547-.0606.2463-.2139.5212.0642.7007.2731.1763.562.0393.8203-.1013.1784-.0971.3448-.2159.5536-.3485-.1725 1.097-.339 2.1491-.5032 3.2017-.1939 1.2426-.1227 2.4963-.0707 3.739.0668 1.5975.2107 3.1934.4598 4.7788.0872.5548.1497 1.1152.2666 1.6657.0273.1284.0402.2143-.068.3149-.8886.8262-1.1566 1.9779-1.6077 3.04-.7552 1.7778-1.1399 3.6223-1.2437 5.5485-.1021 1.8946-.1855 3.7874-.2121 5.6853-.0182 1.297.0482 2.5926.214 3.8637.2606 1.9976.4831 4.0063 1.2193 5.9277.5213 1.3604.8798 2.7881 1.361 4.1698-.9981-.4927-1.8784-1.1703-2.7735-1.8164-2.1592-1.5586-4.2022-3.2574-6.1554-5.0733-1.9687-1.8303-3.7548-3.8182-5.4618-5.8863-1.3046-1.5801-2.5147-3.228-3.6228-4.9513z" fill="#7a4932"/><path d="m35.8115 129.1078c-.4773-1.3281-.9962-2.643-1.423-3.9871-.8434-2.6561-1.2921-5.3867-1.4862-8.1679-.1707-2.447-.2096-4.8916-.0803-7.3391.0696-1.3173.3754-2.5969.6656-3.8787.2692-1.1888.7158-2.3074 1.3003-3.3713.1507-.2742.2985-.7073.63-.646.2004.0371.2343.5139.3094.8083.599 2.3465 1.1554 4.7098 2.1967 6.9124.6036 1.2769 1.2669 2.526 1.9216 3.778.3519.6729.9757.7087 1.4151.0809.5635-.805 1.3615-1.3309 2.1392-1.8879.2282-.1634.3001.032.4136.1381.7294.6819 1.2574 1.5267 1.8509 2.3172.1268.1689.2718.308.43.4302.2362.1823.4104.214.6547-.1001.5262-.6764 1.3058-1.0749 2.0205-1.5139 1.6462-1.011 3.4039-1.8011 5.2499-2.3834.3254-.1026.6581-.1817.9875-.2716.0276.0306.0552.0613.0829.0919-.7943.73-1.74 1.2494-2.6141 1.8679-.876.6199-1.6645 1.3295-2.3966 2.1098-.2041.2176-.3417.5044-.6746.6004-.189.0545-.2532.2723-.2934.4572-.681 3.1337-1.7198 6.1698-2.5243 9.2699-.4916 1.8945-1.0735 3.7633-1.6466 5.6348-.3274 1.0691-.5506 2.1702-.8208 3.2568-.5678-.0238-1.026-.3564-1.5169-.5732-2.2312-.9857-4.3953-2.1057-6.4782-3.3783-.1137-.0693-.209-.1694-.3129-.2553z" fill="#977c70"/><path d="m60.2441 137.5381c-.1803-.9835.1007-1.9445.1473-2.9169.0693-1.4471.2847-2.8685.8341-4.2243.3935-.971.7693-1.9492 1.1698-2.9667.4839.4835.9062.9818 1.2669 1.5313.1404.2139.326.3789.5789.3362.1488-.0251.3841-.1863.3429-.3273-.1434-.4906.1978-.9178.1263-1.3862-.1425-.9327-.0193-1.8539.1136-2.7751.3281-2.2747.6833-4.5462 1.5365-6.6968.7495-1.8894 1.6588-3.7103 2.9827-5.2617.7689-.9011 1.8416-1.4942 2.7687-2.2371.3561-.2854.7468-.6853 1.1459-.7156.406-.0308.7376.4761 1.0997.7479 1.7054 1.2803 3.3936 2.5836 5.0988 3.8643.2453.1842.3357.3352.1782.6237-.4293.7861-.8399 1.5824-1.2812 2.419-.5146-.7965-.9833-1.5626-1.4928-2.3004-.6864-.9938-1.4027-1.9671-2.3143-2.7751-.1176-.1043-.1819-.2421-.262-.3735-.1049-.1721-.2336-.3393-.4875-.3022-.229.0334-.326.1634-.4329.3689-.877 1.6857-1.2254 3.5136-1.5338 5.3628-.2665 1.5978-.243 3.2094-.3575 4.8143-.1324 1.8569.0268 3.7047.0382 5.5561.0163 2.6549-.0181 5.3117.15 7.9651.0264.4172.1029.8351.0723 1.2566.0018.1075.0035.2151.0053.3226-.0129.0287-.0123.057.0018.0851.0045.2483-.1405.2948-.3592.3082-2.9875.183-5.974.1913-8.9583-.0519-.7281-.0595-1.4639-.0675-2.1784-.2513z" fill="#f0ece5"/><path d="m72.5411 137.7466c-.0533-.9341-.1479-1.8697-.1788-2.7997-.0266-.7998.0084-1.6164.0485-2.4254.0904-1.8239-.2248-3.6381-.1873-5.4622.0163-.793.0691-1.5852.1112-2.5074.3805.8155.4988 1.5735.7187 2.2982.8626 2.8428 1.7163 5.6884 2.5541 8.5385.1862.6334.2945 1.2897.4387 1.9355-.3734.0686-.7468.1372-1.1201.2057-.7814.2213-1.5968.07-2.385.2168z" fill="#977c70"/><path d="m106.0505 98.3355c-.2217-.6629-.2171-.6436-.8492-.4923-1.5812.3786-3.1576.4188-4.7364-.0568-.9944-.2996-1.9798-.6069-2.9263-1.0448-.2781-.1287-.5968-.1966-.8955-.308-1.0188-.38-1.7974-1.0833-2.5791-1.7923-.0954-.0865-.1715-.2242-.3883-.1371.4563.8926 1.2753 1.4456 1.9318 2.1739-.8826.3483-1.8014.5113-2.7327.6541-1.2246.1879-2.4022-.0129-3.575-.3152-.2751-.0709-.5224-.2474-.8249-.217-.717-.5872-1.2323-1.364-1.8881-2.0097-.3394-.3342-.4351-.8064-.5991-1.2339-.3398-.8857-.8049-1.6732-1.6243-2.2025-.5165-1.2002-1.3434-2.2008-2.0821-3.2598-1.2818-1.8375-2.4282-3.7375-2.8659-5.9879-.3594-1.8474-.2189-3.6748.0271-5.5181.1233-.9239.4299-1.5985 1.3818-1.9.3227-.1022.6576-.2977.7992-.672.0437-.1156.2309-.1967.094-.3515-.117-.1323-.2829-.128-.4294-.0767-.2752.0964-.5454.1787-.8437.1952-2.5416.1399-4.4921-.9852-6.1597-2.7921-.6676-.7234-1.127-1.5285-1.3936-2.4659-.1295-.4555-.3697-.5301-.8161-.2552-1.9441 1.197-3.9106 2.3642-5.6099 3.9109-.3894.3544-.7785.7156-1.0496 1.1792-.3202.5477-.5223 1.1132-.2881 1.7518.1304.3554.0324.7782.3317 1.0862.1109.1142.0327.2055-.0691.2961-.7117.6339-1.0049 1.5124-1.382 2.3471-.3601.7973-1.1734 1.1503-2.0227.9381-.2726-.0681-.6295-.1154-.713.191-.0946.3472.2086.4585.5381.5108.4883.0775.9615.1884 1.4526.0017.2132-.0811.4619-.035.6345.107.1299.1069-.0279.2603-.0947.3505-.7791 1.0512-.1927 2.3439 1.0251 3.2368 1.7468 1.2806 3.6487 2.2265 5.7648 3.0523-1.1848.0545-2.2412-.023-3.3021-.1124-1.306-.11-2.595-.3376-3.8948-.4876-.9974-.1151-1.9837-.306-2.9268-.6804-.6676-.265-1.3651-.3984-2.077-.2178-.8978.2278-1.3636.7971-1.4843 1.738-.0721.562-.0227 1.1173.0683 1.6719.0245.1493.0973.327-.0417.4341-.1401.108-.2816-.0053-.4226-.0779-1.0146-.5223-2.0845-.9315-3.0732-1.5085-.5309-.3098-1.0661-.607-1.4605-1.0994-.3392-.4234-.8506-.5697-1.3264-.5235-.8514.0826-1.6891-.0226-2.5327-.0263-1.5168-.0066-3.0342-.0289-4.5486.0905-.7804.0616-1.561.1206-2.3408.189-.2878.0253-.4428.187-.6196.4403-.3185.4564-.7438.8465-1.1601 1.2251-1.2509 1.1378-2.3215 2.4441-3.4765 3.6713-.0554.0589-.1189.1103-.2287.2111-.1263-.8591.0385-1.6509.1057-2.4322.1049-1.2209.3631-2.4267.7802-3.5881.1722-.4795.3621-.9527.547-1.4276.0642-.1649.1256-.331-.0337-.4719-.1587-.1403-.3217-.0597-.4771.0181-.5897.2951-1.1786.5921-1.8356.9225.0835-.781.3166-1.448.5683-2.1124.8041-2.1231 1.6038-4.2524 2.7416-6.2229.7352-1.2732 1.4762-2.5625 2.6443-3.5194.1118-.0916.2069-.1836.1277-.3459-.0704-.1444-.1548-.2383-.3388-.263-.4522-.0607-.8238.1951-1.2224.3108-.32.0929-.6525.1754-1.0076.2774.4281-.7275.6986-1.5708 1.4611-2.0462.4174-.2602.5058-.6082.3609-.9975-.2637-.7082-.3076-1.4634-.5322-2.1778-.0963-.3065.0074-.6245.1131-.9035.2123-.5605.1176-1.1781.3679-1.7284.0635-.1397.0066-.299-.1262-.4161-.8252-.7277-.9576-1.7376-1.0905-2.7384-.2027-1.5268-.2558-3.0643-.1926-4.6006.093-2.2646.3465-4.5074.8587-6.7257.3604-1.561.8044-3.0938 1.3142-4.6062.271-.8041.708-1.5511 1.0503-2.3325.9841-2.2465 2.364-4.2635 3.6587-6.3294.7155-1.1415 1.4228-2.2914 2.2028-3.3885 1.0378-1.4595 2.1425-2.8714 3.219-4.3033.3876-.5155.7778-1.029 1.1651-1.5448.3383-.4506.7188-.4316 1.0665.005.8857 1.112 1.2058 2.4806 1.6868 3.7653.4703 1.2564.8985 2.5329 1.3061 3.8153.7749 2.4378 1.6631 4.8388 2.3184 7.3158.3874 1.4643.8497 2.9088 1.242 4.372.458 1.7084 1.05 3.378 1.4473 5.1038.162.7039.4304 1.3759.7208 2.0368.0965.2196.202.428.2014.681-.0007.2966.1731.4485.4673.3932.2922-.0549.4068-.2796.3591-.5502-.0679-.3855-.1584-.7694-.2738-1.1433-.0765-.2481-.0296-.3511.2345-.3614 1.3037-.0509 2.5966-.0149 3.8976.1605.9345.126 1.8323.3261 2.7206.6219.9662.3217 1.7752.9301 2.6548 1.41.8237.4494 1.5521 1.0531 2.4139 1.4464.359.1638.7535.2162 1.094.418.1198.0711.2819.1311.3632-.0179.0939-.172-.0977-.2316-.2022-.2992-.8159-.528-1.632-1.0561-2.4567-1.5702-.4987-.3109-.8683-.7491-1.3333-1.2306 2.0069-.5109 3.9804-.3171 6.0433-.3172-.3659-.5178-.8316-.5043-1.2403-.5607-.5049-.0696-1.0056-.124-1.4945-.288-.3466-.1163-.3738-.3385-.2895-.6179.2026-.6716.5491-1.2812.8649-1.901.9005-1.7675 2.0413-3.3866 3.2865-4.9167.9759-1.199 2.0602-2.3148 3.1677-3.4013.9678-.9495 1.9712-1.8597 3.0139-2.7242 1.429-1.1848 2.9004-2.3151 4.3903-3.4243.7629-.5679 1.5537-1.1207 2.0833-1.9903.597-.9803 1.4663-1.7496 2.45-2.358.7254-.4487 1.68-.186 2.0639.584.5268 1.0565.6073 2.1441.2537 3.2979-.1748.5706-.1659 1.2071-.1806 1.8153-.0364 1.5104.1604 3.0085.3129 4.5067.1601 1.5732.3066 3.1437.3543 4.7274.0608 2.0172-.1567 4.0171-.2979 6.0186-.1377 1.9521-.5383 3.8815-1.1504 5.7433-.6223 1.8928-1.5796 3.6172-2.9894 5.0573-.1774.1812-.3723.373-.5976.4744-.7932.3569-.7242.8682-.3236 1.6543.1539.3019.211.5584.1316.8653-.4061 1.57-.2085 3.113.2306 4.6377.2643.9179.6702 1.7789 1.1975 2.6332-.5563.0595-1.0797.1761-1.5924-.0834-.1969-.0997-.4283-.2581-.5867-.0001-.1344.2189-.0832.5075.1422.6402.3095.1822.3051.3873.3064.7217.0051 1.3439-.1723 2.6693-.2892 4.0014-.0251.2859-.3121.5809.039.882.0675.0579-.0321.3138-.3002.3569-.5572.0896-.6332.2968-.3234.7575.1611.2396.3411.473.5459.6755 1.6567 1.6384 2.8505 3.5974 3.999 5.6036.7891 1.3784 1.8598 2.5123 3.2854 3.316 1.5726.8865 3.0072 1.9855 4.3884 3.1548 1.1922 1.0093 2.2073 2.1804 3.2261 3.3516.121.139.196.3181.292.4788-.1553.0394-.3103.0785-.4654.1176zm-46.2478-43.0314c.6121.0239.7621-.2443.5829-.8245-.152-.4921-.4582-.9039-.6101-1.3955-.4722-1.5284-.9406-3.0567-1.3854-4.5939-.4374-1.5115-.9259-3.0136-1.3365-4.5329-.5688-2.1051-1.2043-4.1904-1.7799-6.293-.283-1.0338-.5693-2.0669-.8681-3.0963-.4227-1.4564-.8585-2.909-1.2879-4.3635-.0637-.2157-.1158-.4732-.3783-.4941-.2522-.0201-.4231.1428-.544.385-.2029.4064-.4965.7632-.7591 1.1295-1.1458 1.5983-2.4814 3.0509-3.5133 4.7425-.6689 1.0964-1.27 2.2214-1.8073 3.3801-.892 1.9232-1.544 3.9351-2.0306 5.9968-.2186.9264-.438 1.8626-.5295 2.8068-.1689 1.741-.3822 3.4811-.3554 5.238.0189 1.2376-.0579 2.4801.1332 3.7085.2929 1.8824.6144 3.7736 1.38 5.5231.353.8067.5839 1.4493-.127 2.1244-.0796.0756-.1893.1785-.0015.2789.2861.1529.5717.2589.781-.0943.8412-1.4199 2.1206-2.4614 3.2822-3.5669 1.2423-1.1824 2.549-2.347 4.068-3.2074.1251-.0709.1678-.1597.1553-.2907-.0118-.123-.0889-.1527-.2025-.1824-.4069-.1063-.6935-.4237-1.0471-.6255-.1503-.0858-.1999-.1773-.0422-.3086.4548-.3787.9622-.3813 1.4262-.0069.0924.0746.1873.1594.2959.1979.2798.0993.5437.2726.8665.0536 1.7017-1.1549 3.6759-1.3984 5.6345-1.6887zm24.5469 1.0246c-.5906.8261-.5716.789.1244 1.1458 1.1946.6124 2.2299 1.4552 3.1475 2.4276.9274.9829 1.6326 2.1315 2.298 3.3018.2778.4886.8312.5775 1.1997.1239.3849-.4737.7543-.9759 1.0345-1.5156.6106-1.1759 1.1413-2.3875 1.5238-3.6654.3479-1.1622.6045-2.3475.8139-3.5327.3396-1.9223.6061-3.8586.8165-5.8042.1728-1.5982.158-3.1968.2376-4.7935.0888-1.7817.0637-3.5707.0398-5.3559-.0157-1.1723.044-2.3458-.1732-3.5192-.0897-.4846-.2496-1.0891.2331-1.5453.1-.0944.1222-.2528-.0043-.3693-.1493-.1376-.3392-.1261-.4695-.0116-.2157.1894-.3802.4363-.5911.6322-1.2512 1.1624-2.268 2.5313-3.3169 3.862-1.4145 1.7946-2.7428 3.6586-4.0727 5.5181-1.8776 2.6254-3.2904 5.4974-4.4146 8.5167-.4354 1.1694-.7688 2.3622-.9008 3.6076-.0365.3439.0821.4766.434.5339.6706.1092 1.3303.2848 2.0403.4431zm3.3968 23.3499c-.1107-.5786-.2045-1.1985-.128-1.8476.13-1.1036.7493-2.0708.8303-3.1809.015-.2057.168-.4978-.1586-.5466-.298-.0445-.6836-.313-.9053.1391-.1339.273-.2968.5632-.3174.8548-.0856 1.2107-.5539 2.4035-.0757 3.646.2331.6057.2797 1.2826.4168 1.926.0334.157.1184.3179.3041.2558.1882-.0629.2165-.2193.1356-.4162-.101-.2455-.2111-.5003-.1018-.8304z" fill="#7a4932"/><path d="m78.095 95.2731c-.0448.5087.2585.9416.3111 1.4292.0112.1036.1476.2273-.0317.3001-.1402.0569-.23-.0546-.2893-.1511-.2382-.3876-.3885-.8289-.7145-1.163.2109-.1919.3724-.4697.7244-.4152z" fill="#606166"/><path d="m106.0505 98.3355c.1551-.0391.3101-.0782.4654-.1175.5422.5322 1.1145 1.038 1.6124 1.6087.2278.2611.7178.294.7113.7231-.0053.3447-.2897.607-.4277.9175-.2781.6256-.7741 1.0759-1.2942 1.489-.1912.1518-.4049.2558-.5808-.1482-.3686-.8464-1.1778-1.0685-1.9216-.5147-.7131.5309-1.3196 1.1874-1.6269 2.0582-.2315.656-.101 1.0756.4003 1.3027.385.1744 1.1076-.1335 1.3405-.5839.203-.3925.3927-.792.5826-1.1911.0864-.1814.1882-.3728.4154-.239.2193.1291.0521.3361-.0311.4407-.3081.3874-.5158.8367-.8046 1.2326-.1496.2051-.3174.4363-.5329.5471-.9715.4992-1.8858 1.1018-2.8813 1.5581-1.0076.4619-2.0717.5146-3.1492.5149-.1368 0-.2934-.0462-.4073.0045-.8099.3602-1.5345-.0101-2.2715-.2481-.7773-.251-1.5277-.5857-2.3353-.7419-.1719-.0332-.3001-.1008-.3903-.2809-.4817-.9626-1.0482-1.8774-1.6229-2.7864-.1982-.3135-.3097-.6073-.0062-.9185.0453-.0464.0562-.1245.0924-.182.1278-.2029-.0465-.5949.2101-.6406.5103-.0907 1.0424-.0636 1.5657-.0722.1379-.0023.1449.1076.1204.2225-.05.2343-.1209.4548-.2287.6747-.3269.6667-.1435 1.346.4433 1.5732.7786.3014 1.3979.1488 1.719-.6451.3562-.8808.5892-1.7807.5611-2.7381-.0145-.4934-.1294-.5594-.6387-.4831-1.3558.2032-2.7133.2902-4.0639-.0575-1.1953-.3078-2.0268-1.3156-1.9913-2.4051.0096-.2942.0503-.4245.414-.3367 1.4156.3417 2.8669.4603 4.3109.3633.9264-.0623 1.8603-.2823 2.7466-.5685.5208-.1682.8996.018 1.3155.1666 1.4118.5043 2.8472.8877 4.3277 1.1538 1.0653.1914 2.0666-.1161 3.0988-.1423.3156-.0082.6354-.1435.753-.5098z" fill="#606166"/><path d="m80.9991 114.7151c.4337-.0576.7685.2304 1.1394.3582 1.4322.4933 2.8716.9463 4.3658 1.2175 1.3414.2435 2.633.1171 3.8926-.4077 1.305-.5437 2.5782-1.1481 3.8086-1.8467.337-.1914.6036-.4116.7697-.7623.0979-.2068.2351-.3687.4431-.0926.4087.5423.9834.9466 1.2964 1.5693.0602.1198.1777.2173.045.3583-.5942.6318-.9 1.4548-1.4329 2.1395-.4343.5579-1.0027.7663-1.5697.9221-2.0628.5667-4.1758.7802-6.3153.6122-.5217-.041-1.0365-.1637-1.5573-.2254-.5283-.0627-.9298-.2996-1.3185-.6741-1.0267-.9893-2.106-1.9238-3.1584-2.8867-.1244-.1139-.3609-.0371-.4085-.2816z" fill="#eee9e2"/><path d="m107.0576 103.9493c-.2385.9166-.5437 1.6901-.9093 2.4266-.7419 1.4945-1.732 2.8348-2.7999 4.1084-.3183.3796-.7865.6455-1.2149.9181-.6972.4436-1.2992 1.0437-2.1226 1.2871-.1654.0489-.312.1818-.3959.3718-.215.4872-.6943.7259-1.0567 1.0749-.163.157-.291.0173-.3953-.0809-.513-.4836-.8988-1.0775-1.272-1.6607-.2106-.3291.092-.7444.2493-1.0818.2727-.5846.6064-1.1414.8328-1.7484.1015-.2721.3411-.3079.5674-.3654 1.3479-.3424 2.6875-.7243 3.9131-1.3902.8188-.4449 1.657-.8436 2.4907-1.2555.5595-.2765.6537-.9186.9984-1.367.3131-.4071.4864-.9326 1.1149-1.237z" fill="#eee9e2"/><path d="m70.3246 81.5121c-1.7152-.1847-3.2737-.7219-4.4262-2.0903-.7052-.8374-.4388-1.8169.5354-2.2822 1.1963-.5713 2.4555-.9776 3.6761-1.4831.1305-.054.2638-.0784.3964-.0212 1.2143.5233 1.8602 1.5566 1.8284 2.9662-.0178.7898-.2197 1.537-.5406 2.2641-.2378.5389-.6212.7059-1.1628.6482-.1011-.011-.2044-.0017-.3067-.0017zm-.0563-2.1933c.5738.0119.9769-.4293 1.0084-1.104.0266-.5693-.575-1.0358-1.3845-1.0737-.3702-.0173-.7143.4545-.7383 1.0124-.0247.5718.5312 1.1531 1.1144 1.1653z" fill="#e0c247"/><path d="m92.6224 75.439c.6545.171 1.287.3534 1.9287.4939.1993.0436.2128.1056.1683.2658-.0588.2118-.0692.4445-.163.6378-.2663.5488-.1965 1.1554-.3067 1.7315-.4167-.0208-.7072-.3623-1.108-.3287-.4475.0376-.5808.4714-.872.7315-.1537-1.2273.2844-2.3604.3527-3.5318z" fill="#eee9e2"/><path d="m94.6497 81.4309c-.0137.0568-.0096.122-.0402.1542-.4316.4535-.639 1.0626-1.0557 1.5227-.1825.2016-.2553-.0233-.3349-.1362-.3809-.5408-.7604-1.0823-1.2548-1.5296-.0667-.0603-.1496-.1661-.0681-.2071.6096-.3073.384-1.0082.7151-1.4687.4903-.6819.6578-.751 1.2308-.1116.2392.2669.4502.5684.4807.9381.0265.3204.3266.5225.3271.8382zm-1.8395-.3677c-.016.3452.2731.7209.5568.7238.2871.0029.603-.5098.623-1.0573.0108-.2958-.0379-.6026-.4215-.627-.3276-.0209-.738.5227-.7583.9605z" fill="#dbbf4b"/><path d="m96.2119 87.652c-.417-.4534-.6924-.8427-.8886-1.31-.2599-.619-.6813-1.1545-1.0781-1.6938-.2568-.3491-.3289-.6255.0403-.9426.1974-.1695.2221-.6148.4654-.6016.2192.0119.2678.4218.4087.6462.4171.6642.8372 1.3448.9753 2.1175.0971.5442.1571 1.1194.077 1.7843z" fill="#cbc9c6"/><path d="m71.7382 137.4479c-.0018-.1075-.0035-.2151-.0053-.3226.1065.1058.1031.2134.0053.3226z" fill="#606166"/><path d="m37.9553 74.8841c.0193-.0485.0158-.1515.0906-.1074.0614.0362-.009.0999-.0551.1374z" fill="#7a4932"/><path d="m55.0071 110.0262c.0424-.0052.0849-.0104.1273-.0156-.0149.0357-.0298.0715-.0446.1074-.0275-.0306-.0551-.0612-.0827-.0918z" fill="#977c70"/><path d="m59.8027 55.3041c-1.9586.2904-3.9328.5339-5.6346 1.6885-.3228.219-.5867.0457-.8665-.0536-.1085-.0385-.2035-.1233-.2959-.1979-.464-.3744-.9714-.3719-1.4262.0069-.1577.1313-.1081.2228.0422.3086.3536.2019.6402.5192 1.0471.6255.1137.0297.1907.0594.2025.1824.0126.1309-.0301.2198-.1553.2907-1.519.8605-2.8257 2.0251-4.068 3.2074-1.1617 1.1056-2.441 2.1471-3.2822 3.5669-.2093.3532-.4949.2472-.781.0943-.1878-.1004-.0781-.2033.0015-.2789.7108-.675.48-1.3177.127-2.1244-.7656-1.7495-1.0871-3.6407-1.38-5.5231-.1911-1.2284-.1143-2.4709-.1332-3.7085-.0268-1.7568.1865-3.497.3554-5.238.0916-.9441.3109-1.8804.5295-2.8068.4865-2.0617 1.1386-4.0736 2.0306-5.9968.5374-1.1586 1.1385-2.2836 1.8073-3.3801 1.032-1.6916 2.3676-3.1443 3.5133-4.7425.2626-.3663.5561-.7231.7591-1.1295.121-.2422.2918-.4051.544-.385.2625.0209.3146.2784.3783.4941.4294 1.4545.8652 2.9071 1.2879 4.3635.2987 1.0294.5851 2.0624.8681 3.0963.5756 2.1026 1.2111 4.188 1.7799 6.293.4105 1.5193.8991 3.0213 1.3365 4.5329.4448 1.5372.9132 3.0655 1.3854 4.5939.1519.4916.4581.9034.6101 1.3955.1793.5803.0293.8486-.5828.8247zm-7.8898-23.4544c-.1679.0576-.2436.2192-.3478.3484-.5124.6354-.986 1.2947-1.4282 1.985-1.1261 1.758-2.2317 3.5251-3.0507 5.451-.8454 1.9882-1.4763 4.0475-1.8948 6.1669-.3768 1.9081-.6932 3.8291-.7932 5.7734-.1203 2.34.0856 4.6525.7415 6.9142.3213 1.1081.6285 2.2198 1.0342 3.3019.065.1734.1119.3309.2759.1486.2329-.2589.5369-.4127.7973-.6284 1.1643-.9647 2.3077-1.9588 3.623-2.7247.3282-.1911.704-.3119.9906-.6045-.6845-.541-1.4803-.8192-2.2254-1.1802-.323-.1565-.3418-.3226-.1945-.5294.7823-1.0981 1.0784-2.4126 1.6364-3.6095.0697-.1495.1574-.3153.0233-.4826-.2108-.263-.3234-.5924-.6112-.8076-.3182-.238-.3832-.5753-.3907-.9811-.0449-2.4108.1725-4.7948.5363-7.1771.2294-1.5024.5065-2.9816 1.0087-4.4176.0933-.2668.2428-.4389.5031-.3585.305.0942.1761.3634.104.5576-.136.3664-.2785.7283-.3676 1.111-.507 2.1758-.6739 4.3686-.4668 6.6007.1536 1.655.7954 3.0891 1.7595 4.4005.1909.2596.2721.4769.1617.7822-.3908 1.0811-.4485 2.2273-.6384 3.3478-.0918.5417.3966.6555.6718.9236.1568.1527.3276.1192.5092.0043 1.3351-.8452 2.7559-1.5128 4.2581-2.0007.3186-.1035.4257-.2369.4181-.6019-.0311-1.4858-.4878-2.8873-.8686-4.2898-.7264-2.6755-1.5381-5.3299-2.3901-7.9686-1.0279-3.1838-2.0643-6.3674-3.3847-9.4549z" fill="#100913"/><path d="m84.3496 56.3287c-.71-.1583-1.3697-.3339-2.0403-.4431-.3518-.0573-.4704-.19-.434-.5339.1321-1.2454.4654-2.4382.9008-3.6076 1.1242-3.0193 2.537-5.8913 4.4146-8.5167 1.3299-1.8595 2.6582-3.7235 4.0727-5.5181 1.0489-1.3307 2.0657-2.6996 3.3169-3.862.2109-.1959.3754-.4427.5911-.6322.1303-.1144.3202-.1259.4695.0116.1265.1165.1043.2749.0043.3693-.4827.4561-.3228 1.0607-.2331 1.5453.2172 1.1734.1575 2.3469.1732 3.5192.024 1.7852.0491 3.5742-.0398 5.3559-.0796 1.5967-.0648 3.1953-.2376 4.7935-.2104 1.9457-.4769 3.8819-.8165 5.8042-.2094 1.1852-.466 2.3705-.8139 3.5327-.3825 1.2779-.9132 2.4895-1.5238 3.6654-.2802.5396-.6496 1.0419-1.0345 1.5156-.3686.4536-.9219.3647-1.1997-.1239-.6654-1.1703-1.3706-2.3188-2.298-3.3018-.9176-.9725-1.9529-1.8153-3.1475-2.4276-.696-.3569-.715-.3197-.1244-1.1458zm4.7275-3.2263c.4407-.1484.7921-.2538 1.1594-.3057.2365-.0334.4958-.1462.6634.089.1808.2537-.1229.373-.2193.5492-.0242.0443-.056.0851-.0758.1312-.7714 1.7971-1.2895 3.6669-1.623 5.5918-.0452.2613.0118.4604.1637.6625.3059.407.6216.8092.894 1.2382.386.6078.4443.6229.9338.0597.0668-.0769.1287-.1587.1873-.2421.6403-.9125 1.024-1.9433 1.4275-2.9736 1.0184-2.6005 1.584-5.2985 1.891-8.064.2535-2.284.31-4.5763.3845-6.87.0663-2.0395-.133-4.0756-.0249-6.1146.0212-.4004-.0442-.8068-.088-1.2084-.0156-.143-.024-.3368-.1859-.386-.1616-.0491-.2936.1052-.3825.211-.1839.2186-.309.4859-.4884.7091-1.1078 1.3779-2.2359 2.7396-3.3346 4.1247-1.5129 1.9072-3.0079 3.8287-4.1097 6.0178-1.0362 2.0587-1.7737 4.2305-2.4412 6.4293-.2039.6716-.3194 1.3563-.3697 2.0561-.0163.2262.0466.3692.2555.4268.4267.1176.8539.2386 1.2879.3223.2066.0398.4128.0237.4907.2754.0715.231-.0288.4043-.1963.5378-.2098.1672-.1334.2596.0542.3681.6758.3906 1.3584.7709 1.9788 1.279.369-1.3078.6886-2.5919 1.2471-3.7978.0461-.0996.1806-.2041.0783-.3216-.1076-.1235-.2584-.0571-.3822-.0082-.3546.14-.6821.1284-.9828-.142.2483-.3374.5055-.67.642-1.0742.2169-.6424.4084-1.2948.6569-1.9247.9221-2.3376 1.859-4.6695 2.8048-6.9976.0772-.1901.1394-.4125.3385-.5431.0984-.0646.1897-.191.3043-.0908.0592.0518.0844.196.0606.2805-.1867.6647-.4001 1.3192-.6533 1.9644-.7934 2.0217-1.4638 4.0858-2.0129 6.1877-.1266.4843-.2118.9795-.3337 1.5528z" fill="#120c14"/><path d="m87.7464 79.6786c-.1093.3301.0008.5848.1018.8305.0809.1969.0526.3533-.1356.4162-.1858.062-.2707-.0989-.3041-.2558-.1371-.6434-.1837-1.3203-.4168-1.926-.4782-1.2426-.0099-2.4353.0757-3.646.0206-.2916.1836-.5818.3174-.8548.2216-.4521.6073-.1836.9053-.1391.3267.0488.1737.3409.1586.5466-.081 1.1101-.7003 2.0774-.8303 3.1809-.0765.649.0173 1.2689.128 1.8475z" fill="#100913"/><path d="m70.2683 79.3188c-.5832-.0121-1.139-.5934-1.1144-1.1654.024-.5579.3681-1.0297.7383-1.0124.8095.0379 1.4111.5044 1.3845 1.0737-.0316.6747-.4346 1.116-1.0084 1.1041zm.248-.8472c.1448-.3258.0853-.5569-.1075-.7469-.0716-.0706-.1783-.1826-.3033-.0678-.1283.1179-.0746.1993.0266.3294.1213.156.3502.202.3842.4853z" fill="#1a1619"/><path d="m92.8102 81.0632c.0203-.4379.4307-.9814.7584-.9606.3836.0244.4323.3313.4215.627-.0201.5475-.3359 1.0602-.623 1.0573-.2838-.0028-.5729-.3785-.5569-.7237z" fill="#1a1619"/><path d="m51.9129 31.8497c1.3204 3.0875 2.3567 6.2711 3.3847 9.4549.8519 2.6387 1.6636 5.2932 2.3901 7.9686.3808 1.4025.8375 2.8039.8686 4.2898.0076.365-.0995.4984-.4181.6019-1.5022.4879-2.923 1.1555-4.2581 2.0007-.1816.1149-.3524.1484-.5092-.0043-.2753-.2681-.7637-.3819-.6718-.9236.1899-1.1205.2476-2.2667.6384-3.3478.1103-.3053.0292-.5226-.1617-.7822-.9641-1.3114-1.6059-2.7455-1.7595-4.4005-.2071-2.2321-.0402-4.4249.4668-6.6007.0892-.3827.2316-.7447.3676-1.111.0721-.1943.2011-.4635-.104-.5576-.2603-.0804-.4098.0917-.5031.3585-.5021 1.436-.7792 2.9152-1.0087 4.4176-.3638 2.3823-.5813 4.7663-.5363 7.1771.0076.4058.0725.7431.3907.9811.2878.2153.4003.5446.6112.8076.1341.1673.0465.333-.0233.4826-.558 1.1969-.8541 2.5114-1.6364 3.6095-.1473.2068-.1285.3728.1945.5294.7451.361 1.5408.6392 2.2254 1.1802-.2866.2926-.6624.4133-.9906.6045-1.3153.766-2.4587 1.76-3.623 2.7247-.2603.2157-.5643.3695-.7973.6284-.164.1823-.2109.0248-.2759-.1486-.4057-1.0821-.7129-2.1938-1.0342-3.3019-.6559-2.2616-.8618-4.5742-.7415-6.9142.1-1.9443.4164-3.8653.7932-5.7734.4185-2.1194 1.0494-4.1787 1.8948-6.1669.8189-1.9259 1.9246-3.693 3.0507-5.451.4422-.6903.9158-1.3496 1.4282-1.985.1043-.1292.18-.2908.3478-.3484z" fill="#d0cecb"/><path d="m89.0771 53.1024c.1219-.5734.2071-1.0685.3336-1.5528.5491-2.1019 1.2195-4.166 2.0129-6.1877.2532-.6452.4666-1.2997.6533-1.9644.0237-.0844-.0015-.2287-.0606-.2805-.1146-.1002-.2059.0262-.3043.0908-.1991.1307-.2613.3531-.3385.5431-.9458 2.3281-1.8827 4.66-2.8048 6.9976-.2485.6299-.44 1.2823-.6569 1.9247-.1365.4042-.3937.7368-.642 1.0742.3007.2703.6282.282.9828.142.1238-.0489.2747-.1153.3822.0082.1023.1175-.0322.222-.0783.3216-.5584 1.2059-.8781 2.49-1.2471 3.7978-.6204-.5081-1.303-.8884-1.9788-1.279-.1876-.1085-.264-.2009-.0542-.3681.1675-.1335.2679-.3068.1963-.5378-.0779-.2517-.2841-.2356-.4907-.2754-.434-.0837-.8612-.2047-1.2879-.3223-.2089-.0576-.2717-.2006-.2555-.4268.0503-.6998.1659-1.3845.3697-2.0561.6675-2.1988 1.405-4.3706 2.4412-6.4293 1.1018-2.189 2.5968-4.1106 4.1097-6.0178 1.0987-1.385 2.2268-2.7468 3.3346-4.1247.1794-.2231.3045-.4904.4884-.7091.0889-.1058.2209-.26.3825-.211.1619.0492.1703.243.1859.386.0438.4016.1092.8081.088 1.2084-.1082 2.039.0911 4.0751.0249 6.1146-.0745 2.2937-.1311 4.586-.3845 6.87-.3069 2.7655-.8726 5.4635-1.891 8.064-.4035 1.0303-.7872 2.0611-1.4275 2.9736-.0586.0834-.1204.1652-.1873.2421-.4895.5632-.5478.5481-.9338-.0597-.2725-.429-.5881-.8312-.894-1.2382-.1519-.2021-.2089-.4012-.1637-.6625.3334-1.925.8516-3.7948 1.623-5.5918.0198-.0461.0515-.0869.0758-.1312.0963-.1762.4001-.2955.2193-.5492-.1676-.2352-.4269-.1224-.6634-.089-.3672.0519-.7186.1573-1.1593.3057z" fill="#d0cdca"/><path d="m70.5163 78.4716c-.034-.2834-.2629-.3294-.3842-.4854-.1012-.1301-.1549-.2114-.0266-.3294.125-.1149.2317-.0028.3033.0678.1929.1901.2523.4212.1075.747z" fill="#d0cecb"/></svg>