<svg enable-background="new 0 0 141.8341 141.7799" viewBox="0 0 141.8341 141.7799" xmlns="http://www.w3.org/2000/svg"><path d="m141.8341 71.2634c-.226-19.3991-6.728-35.928-19.9074-49.597-13.0016-13.4846-29.0566-20.7837-47.7842-21.5904-20.207-.8704-37.8572 5.7386-52.4472 19.7561-13.5344 13.0034-20.8295 29.1021-21.6223 47.8721-.8527 20.1909 5.7618 37.8192 19.7678 52.3923 13.006 13.5326 29.1074 20.8239 47.8765 21.6111 20.2493.8492 37.928-5.7883 52.4949-19.8884 14.3203-13.8615 21.3536-31.0106 21.6219-50.5558z" fill="#fff"/><path d="m141.8341 71.2634c-.2683 19.5452-7.3016 36.6943-21.6219 50.5558-14.5668 14.1002-32.2456 20.7377-52.4949 19.8884-18.7691-.7872-34.8705-8.0785-47.8765-21.6111-14.006-14.5732-20.6205-32.2014-19.7678-52.3923.7927-18.77 8.0879-34.8687 21.6223-47.8721 14.59-14.0176 32.2402-20.6265 52.4472-19.7561 18.7276.8067 34.7827 8.1058 47.7842 21.5904 13.1795 13.669 19.6814 30.1979 19.9074 49.597zm-71.4403 66.4435c18.5386-.1245 34.1444-6.4138 47.0408-18.9499 12.5987-12.2467 19.4554-27.3035 20.1772-44.9198.7839-19.1334-5.541-35.7545-18.8483-49.4788-12.2443-12.628-27.3305-19.4412-44.9653-20.1979-18.6604-.8006-34.7687 5.5406-48.6379 17.876-5.0552 5.1098-9.5975 10.6064-13.0104 16.9809-4.8898 9.1332-7.6916 18.8327-8.0107 29.2103-.5949 19.3474 5.832 36.0561 19.4423 49.7598 12.9671 13.0558 28.8546 19.5603 46.8123 19.7194z" fill="#5f6065"/><path d="m70.3938 137.7069c-17.9577-.1591-33.8453-6.6636-46.8123-19.7195-13.6102-13.7037-20.0371-30.4124-19.4422-49.7598.3191-10.3775 3.1209-20.0771 8.0107-29.2103 3.4128-6.3745 7.9552-11.8711 13.0104-16.9809 13.8691-12.3353 29.9774-18.6765 48.6378-17.8759 17.6348.7566 32.721 7.5698 44.9654 20.1979 13.3073 13.7243 19.6322 30.3454 18.8483 49.4788-.7218 17.6163-7.5784 32.6731-20.1772 44.9198-12.8965 12.5361-28.5022 18.8254-47.0409 18.9499zm-36.9312-75.2342c-.1573-.0707-.2615.038-.3676.1173-1.4229 1.0631-2.5465 2.4185-3.6271 3.8029-1.1227 1.4384-2.2199 2.9006-3.056 4.5363-.0714.1397-.1265.3977-.3954.2686-.4682-.2248-.9811-.2998-1.4785-.3839-.7848-.1328-1.5827-.2968-2.3822-.0576-.2906.0869-.4606.2713-.4901.5829-.0325.3437.2424.3792.4578.448.9397.3 1.7695.808 2.5801 1.35.1669.1116.3976.2079.2533.5211-.6349 1.3784-1.2271 2.7768-1.8789 4.147-1.06 2.2281-1.9125 4.5326-2.5517 6.9113-.3411 1.269-.6999 2.5427-.8484 3.8533-.2453 2.1645-.2305 4.3286.0891 6.4896.2824 1.9099.9444 3.6671 2.0743 5.2322.2044.2831.2871.5343.3013.8769.0284.6848.1516 1.319.8634 1.7195.7875.4431 1.6358.7567 2.4096 1.2221 2.1083 1.2679 4.279 2.4317 6.558 3.3483 3.2901 1.3233 6.5649 2.7166 10.0394 3.5112 2.5138.5749 5.0384 1.1131 7.6375 1.1308 2.3561.0161 4.7102-.0186 7.0634-.1605 2.245-.1354 4.4419-.5572 6.6225-1.0659 1.4456-.3373 2.8261-.9149 4.2828-1.2269.4096-.0877.7647-.0103 1.1329.1499.9232.4018 1.6972 1.0888 2.6489 1.4214 1.0031.3507 2.0157.8315 3.1029.2668.221-.1148.4002-.0018.5835.0742.2196.091.4232.2201.6426.3116 2.1501.8972 4.363 1.5866 6.6636 1.974 1.435.2416 2.884.3665 4.3368.4036 1.501.0384 3-.0598 4.4992-.1441 1.7085-.0961 3.4027-.3229 5.1044-.4782 1.2661-.1156 2.4871-.4548 3.7334-.665 3.5419-.5972 7.0164-1.4698 10.4441-2.5407.9936-.3104 1.9125-.8891 2.9411-1.0163 1.6506-.2041 3.2495-.6372 4.8785-.9295 1.0948-.1964 2.0969-.7267 3.2051-.8843.214-.0304.3957-.2333.4514-.4525.0587-.2308-.177-.3109-.3258-.4067-.156-.1004-.3313-.1948-.5105-.2315-1.341-.2743-2.6856-.5143-4.0666-.4245-2.5809.1679-5.1263.6223-7.6855.9599-2.5613.3378-5.1185.7054-7.7015.3608-1.4617-.195-2.9564-.3015-4.3023-1.0144-1.4358-.7605-2.8424-1.5611-3.9932-2.7385-.2149-.2198-.355-.4389-.2847-.7667.109-.5083-.0918-.9001-.4249-1.2964-.8745-1.0404-1.9394-1.881-2.8884-2.8419-.2468-.2499-.2928-.4047-.0606-.7157.849-1.1366 1.6329-2.3238 2.2671-3.593 1.2838-2.5692 2.3814-5.2212 3.301-7.9416.4409-1.3045.8449-2.6279.9889-4.0093.0201-.1923.1432-.2471.2819-.3213.9712-.52 1.3072-1.3973 1.3127-2.4305.0036-.677.1036-.8024.7726-.6894.792.1338 1.5803.2902 2.3693.4418 2.5567.4912 5.0359.2779 7.4192-.8117.8535-.3902 1.5955-.9246 2.1366-1.7039.3766-.5425.2282-.9639-.3865-1.1317-.1142-.0312-.2343-.0457-.3527-.0554-.2126-.0174-.2866-.1196-.2807-.3367.0332-1.2166-.4854-1.9319-1.662-2.2762-.1818-.0532-.3084-.1464-.4088-.2825-.1768-.2396-.3835-.4356-.6639-.545-.5494-.2143-.8574-.5803-.8826-1.2036-.0132-.324-.0784-.6823-.5144-.7902-.9554-.2365-1.8722-.5386-2.8955-.1614-.8694.3204-1.6665.6852-2.2861 1.3868-.0933.1057-.1659.2626-.3771.2475.0152-.1054.0089-.213.0468-.3017.939-2.2001 1.7673-4.4452 2.6865-6.6522.8164-1.9601 1.5613-3.9385 2.0802-5.9973.6701-2.6587 1.1731-5.3467 1.2688-8.0945.0654-1.8785.0709-3.7557-.4683-5.5866-.6468-2.1962-1.3719-4.3657-2.2157-6.494-.3716-.9373-.8536-1.8126-1.5153-2.5873-1.4405-1.6867-3.094-3.1484-4.8004-4.5511-.6396-.5258-1.1714-1.2024-2.0178-1.4606-.9795-.2988-1.9419-.6537-2.9198-.9581-1.0298-.3206-2.0812-.5656-3.1619-.615-1.2508-.0572-2.4952.1043-3.7412.1832-2.1179.1342-4.2151.4599-6.3173.7349-.4539.0594-.8537.0223-1.1417-.3867-.7855-1.1158-1.9163-1.7998-3.1134-2.3485-1.4156-.6488-2.9448-.9768-4.4447-1.3808-.9755-.2628-1.9342-.5643-2.707-1.2735-.5973-.5483-1.053-.3908-1.2404.3986-.3165 1.3331.1366 2.4889.818 3.5942.291.4721.4772.9759.5012 1.539.0085.198-.002.2748-.236.2447-1.3045-.1677-2.6128-.2841-3.913-.5109-1.5702-.2738-2.3361-1.3924-2.8751-2.6566-.5598-1.3129-1.1088-2.5925-2.1062-3.6481-1.6451-1.7413-3.7198-2.813-5.8513-3.7829-1.4904-.6782-2.8588-1.4704-3.6864-2.9514-.7051-1.2617-.7913-1.2153.0385-2.1423.0118-.0132-.0118-.0581-.0189-.0881-.3919.0662-.6727.2234-.7971.5212-.669 1.6019-.719 3.1987.0806 4.7781.076.15.1298.2771.0915.4744-.2768 1.424.1487 2.7054 1.0982 3.7222 1.0302 1.1032 2.0864 2.2117 3.4662 2.9264.4654.2411.9358.4888 1.3078.8923.2245.2435.0538.4509.0309.6664-.0225.2114-.2289.1568-.3756.1627-2.3255.0938-4.4726-.3906-6.3019-1.927-.4923-.4135-.6624-.3821-1.0798.1157-.2543.3033-.2423.6606-.0908.9655.1537.3092.0967.5558.0341.866-.1537.7612-.5282 1.5916.3828 2.1788.0923.0595.0826.1711.0965.2756.1116.8418.5361 1.453 1.3378 1.7821.1202.0493.2439.0926.283.2625.1292.5619.4854.9713.9582 1.2711.6858.4349 1.2636 1.0289 2.2286.932 1.7267-.1735 3.4188-.4326 5.0598-1.0266.8675-.314 1.6707-.9278 2.6934-.6756.223.055.4571-.0016.672.1662 2.2093 1.7255 4.8193 2.4949 7.5119 2.9292 2.3075.3722 4.6526.4922 6.9995.4734 2.7402-.0219 5.4689-.2776 8.206-.3565 1.4636-.0422 2.9262-.0614 4.3518.3331.9591.2654 1.8387.7198 2.715 1.1918 1.4692.7914 2.689 1.8634 3.7421 3.139.9659 1.17 1.3618 2.5766 1.6666 4.0267.1065.5064-.0028.9184-.2467 1.355-.3265.5845-.7298 1.1129-1.1103 1.6571-.8738 1.2497-1.842 2.4209-3.0482 3.3688-.5557.4368-.5677.4167-.8454-.197-.0629-.139-.1349-.2817-.235-.3938-.116-.1299-.1486-.2484-.1005-.4168.3472-1.2159-.0495-2.1747-1.0357-2.9164-.133-.1-.2525-.1852-.1949-.3692.3571-1.141-.2566-1.9007-1.0337-2.5802-.1428-.1248-.2379-.2106-.2106-.4103.1097-.8026-.3531-1.2815-.9751-1.6482-.394-.2322-.8419-.3685-1.265-.1419-.3791.203-.3733.6149-.3375 1.0007.0047.0505-.0042.1025-.009.1535-.2912 3.0553-1.8096 5.4983-3.8525 7.6701-1.1964 1.2719-2.6658 2.2437-3.8719 3.5133-1.5474 1.629-2.2218 3.5208-1.9247 5.7485.0336.2519-.0239.4129-.2187.5755-.7202.6011-1.4346 1.2096-2.1361 1.8325-1.9532 1.7342-3.7013 3.6409-4.9522 5.9597-.1481.2746-.335.4672-.6915.3794-.2058-.0507-.3484.0761-.4881.2184-1.1246 1.1457-2.2474 2.2934-3.385 3.426-1.2576 1.2522-2.5466 2.4707-3.9861 3.5179-.0971.0707-.1794.1691-.3132.141-.5489-.1151-.906.2359-1.2658.541-1.9178 1.6263-3.845 3.2424-5.7288 4.9074-.653.5771-1.348.744-2.1615.6047-.4198-.0719-.8357-.1664-1.2545-.2448-2.3546-.441-4.6572-1.0681-6.862-2.0106-1.5078-.6446-2.9629-1.3768-4.2003-2.5031-1.1866-1.08-2.3977-2.1435-3.7078-3.0725-1.5928-1.1294-3.3551-1.9625-5.1578-2.6986-.3957-.1616-.4498-.3049-.2458-.6548.6284-1.0777 1.2259-2.1724 1.8955-3.2271 1.1915-1.8768 2.1341-3.903 3.4143-5.7279.0071-.0248.0142-.0496.0213-.0743-.0056.0272-.011.0543-.0165.0814z" fill="#c19853"/><path d="m33.4582 62.4662c-1.2807 1.8245-2.2234 3.8506-3.4149 5.7274-.6696 1.0547-1.2671 2.1495-1.8955 3.2271-.204.3499-.1499.4932.2458.6548 1.8027.7361 3.565 1.5692 5.1578 2.6986 1.3101.929 2.5212 1.9925 3.7078 3.0725 1.2374 1.1263 2.6925 1.8585 4.2003 2.5031 2.2047.9425 4.5074 1.5697 6.862 2.0106.4188.0784.8346.1729 1.2545.2448.8135.1393 1.5086-.0275 2.1615-.6047 1.8838-1.665 3.811-3.2811 5.7288-4.9074.3598-.3051.7169-.6561 1.2658-.541.1338.0281.2161-.0703.3132-.141 1.4395-1.0472 2.7285-2.2657 3.9861-3.5179 1.1376-1.1327 2.2604-2.2803 3.385-3.426.1397-.1423.2823-.2691.4881-.2184.3565.0878.5434-.1048.6915-.3794 1.2509-2.3188 2.9991-4.2255 4.9522-5.9597.7015-.6228 1.4159-1.2314 2.1361-1.8325.1948-.1626.2523-.3236.2187-.5755-.2971-2.2277.3773-4.1196 1.9247-5.7485 1.206-1.2696 2.6754-2.2414 3.8719-3.5133 2.0429-2.1718 3.5614-4.6148 3.8525-7.6701.0049-.0511.0137-.103.009-.1535-.0357-.3859-.0415-.7977.3375-1.0007.4232-.2266.871-.0903 1.265.1419.6221.3667 1.0848.8456.9751 1.6482-.0273.1997.0679.2855.2106.4103.7771.6794 1.3909 1.4392 1.0337 2.5802-.0576.184.0619.2692.1949.3692.9862.7417 1.3829 1.7005 1.0357 2.9164-.0481.1684-.0155.2869.1005.4168.1001.1121.1721.2549.235.3938.2778.6138.2897.6338.8454.197 1.2062-.948 2.1744-2.1191 3.0482-3.3688.3806-.5443.7839-1.0727 1.1103-1.6571.2438-.4366.3531-.8486.2467-1.355-.3049-1.4501-.7007-2.8567-1.6666-4.0267-1.053-1.2756-2.2728-2.3476-3.7421-3.139-.8764-.472-1.7559-.9264-2.715-1.1918-1.4256-.3945-2.8881-.3753-4.3518-.3331-2.7371.0789-5.4658.3346-8.206.3565-2.3469.0188-4.692-.1012-6.9995-.4734-2.6926-.4343-5.3026-1.2037-7.5119-2.9292-.2149-.1678-.449-.1112-.672-.1662-1.0227-.2522-1.8259.3616-2.6934.6756-1.6411.594-3.3331.8531-5.0598 1.0266-.965.097-1.5427-.497-2.2286-.932-.4728-.2998-.8291-.7092-.9582-1.2711-.0391-.17-.1628-.2132-.283-.2625-.8017-.3291-1.2262-.9403-1.3378-1.7821-.0139-.1046-.0042-.2161-.0965-.2756-.9111-.5873-.5365-1.4176-.3828-2.1788.0626-.3102.1196-.5568-.0341-.866-.1516-.305-.1635-.6623.0908-.9655.4175-.4979.5875-.5292 1.0798-.1157 1.8293 1.5364 3.9764 2.0208 6.3019 1.927.1467-.0059.3531.0487.3756-.1627.0229-.2154.1936-.4229-.0309-.6664-.372-.4035-.8424-.6512-1.3078-.8923-1.3798-.7148-2.436-1.8233-3.4662-2.9264-.9495-1.0167-1.375-2.2982-1.0982-3.7222.0384-.1974-.0155-.3244-.0915-.4744-.7996-1.5794-.7497-3.1761-.0806-4.7781.1244-.2978.4052-.4549.7971-.5212.007.03.0307.0749.0189.0881-.8298.9269-.7436.8806-.0385 2.1423.8276 1.481 2.196 2.2732 3.6864 2.9514 2.1314.9699 4.2062 2.0416 5.8513 3.7829.9973 1.0556 1.5464 2.3352 2.1062 3.6481.539 1.2642 1.3049 2.3828 2.8751 2.6566 1.3002.2267 2.6085.3432 3.913.5109.234.0301.2445-.0468.236-.2447-.024-.5632-.2102-1.067-.5012-1.539-.6814-1.1053-1.1345-2.2611-.818-3.5942.1874-.7894.643-.9469 1.2404-.3986.7728.7093 1.7315 1.0108 2.707 1.2735 1.4999.404 3.0291.7321 4.4447 1.3808 1.1971.5486 2.3279 1.2327 3.1134 2.3485.288.409.6878.4461 1.1417.3867 2.1023-.275 4.1994-.6007 6.3173-.7349 1.2461-.079 2.4904-.2404 3.7412-.1832 1.0807.0494 2.132.2944 3.1619.615.9779.3044 1.9403.6593 2.9198.9581.8465.2582 1.3783.9348 2.0178 1.4606 1.7063 1.4027 3.3598 2.8644 4.8004 4.5511.6617.7747 1.1437 1.65 1.5153 2.5873.8438 2.1283 1.5689 4.2979 2.2157 6.494.5392 1.8308.5337 3.7081.4683 5.5866-.0957 2.7478-.5986 5.4357-1.2688 8.0945-.5189 2.0588-1.2638 4.0372-2.0802 5.9973-.9193 2.207-1.7475 4.4521-2.6865 6.6522-.0379.0887-.0316.1963-.0468.3017.2112.0151.2838-.1419.3771-.2475.6197-.7016 1.4168-1.0664 2.2861-1.3868 1.0233-.3771 1.9401-.075 2.8955.1614.436.1079.5012.4662.5144.7902.0253.6233.3332.9893.8826 1.2036.2804.1094.4871.3053.6639.545.1004.1361.227.2293.4088.2825 1.1766.3443 1.6952 1.0596 1.662 2.2762-.0059.2171.0681.3193.2807.3367.1184.0097.2385.0242.3527.0554.6147.1678.7632.5892.3865 1.1317-.5411.7793-1.2831 1.3137-2.1366 1.7039-2.3832 1.0896-4.8625 1.3028-7.4192.8117-.789-.1516-1.5773-.3079-2.3693-.4418-.669-.113-.7689.0124-.7726.6894-.0055 1.0332-.3415 1.9105-1.3127 2.4305-.1387.0743-.2618.129-.2819.3213-.144 1.3814-.548 2.7048-.9889 4.0093-.9195 2.7204-2.0172 5.3724-3.301 7.9416-.6342 1.2692-1.4181 2.4564-2.2671 3.593-.2323.311-.1862.4658.0606.7157.949.9609 2.0139 1.8015 2.8884 2.8419.3331.3963.5339.7881.4249 1.2964-.0703.3278.0698.5469.2847.7667 1.1508 1.1773 2.5574 1.9779 3.9932 2.7385 1.3459.7129 2.8406.8194 4.3023 1.0144 2.5831.3446 5.1403-.0229 7.7015-.3608 2.5592-.3376 5.1046-.7919 7.6855-.9599 1.381-.0898 2.7256.1501 4.0666.4245.1792.0367.3545.131.5105.2315.1488.0958.3845.1759.3258.4067-.0557.2192-.2374.4221-.4514.4525-1.1082.1576-2.1103.6879-3.2051.8843-1.6289.2923-3.2279.7254-4.8785.9295-1.0286.1272-1.9475.7059-2.9411 1.0163-3.4277 1.0709-6.9022 1.9435-10.4441 2.5407-1.2464.2101-2.4673.5494-3.7334.665-1.7017.1554-3.3959.3821-5.1044.4782-1.4993.0844-2.9983.1825-4.4992.1441-1.4528-.0372-2.9018-.162-4.3368-.4036-2.3006-.3873-4.5135-1.0767-6.6636-1.974-.2193-.0915-.423-.2207-.6426-.3116-.1833-.0759-.3625-.1889-.5835-.0742-1.0872.5647-2.0998.0838-3.1029-.2668-.9517-.3327-1.7256-1.0196-2.6489-1.4214-.3682-.1602-.7232-.2377-1.1329-.1499-1.4567.312-2.8372.8896-4.2828 1.2269-2.1806.5088-4.3774.9305-6.6225 1.0659-2.3533.142-4.7073.1767-7.0634.1605-2.5991-.0178-5.1237-.5559-7.6375-1.1308-3.4745-.7946-6.7493-2.1878-10.0394-3.5112-2.279-.9166-4.4496-2.0804-6.558-3.3483-.7739-.4654-1.6221-.779-2.4096-1.2221-.7118-.4005-.835-1.0347-.8634-1.7195-.0142-.3426-.097-.5939-.3013-.8769-1.1299-1.5651-1.7918-3.3222-2.0743-5.2322-.3196-2.161-.3344-4.325-.0891-6.4896.1485-1.3106.5074-2.5843.8484-3.8533.6393-2.3786 1.4918-4.6831 2.5517-6.9113.6518-1.3702 1.244-2.7686 1.8789-4.147.1443-.3132-.0865-.4095-.2533-.5211-.8107-.542-1.6405-1.05-2.5801-1.35-.2154-.0688-.4904-.1043-.4578-.448.0295-.3116.1995-.496.4901-.5829.7994-.2392 1.5974-.0752 2.3822.0576.4975.0842 1.0103.1591 1.4785.3839.2688.1291.3239-.1289.3954-.2686.8361-1.6357 1.9333-3.098 3.056-4.5363 1.0806-1.3844 2.2042-2.7399 3.6271-3.8029.1061-.0793.2103-.188.3676-.1173zm21.1807-33.5515.0084.0126c-.0346-.0349-.0693-.0699-.1039-.1048-.1769-.453-.4712-.1136-.6835-.0728-2.5436.489-4.7102-.3111-6.6646-1.8908-.1314-.1062-.2541-.4037-.4934-.1865-.2053.1863-.17.4331-.0335.6594.2089.3464.5202.5821.8553.7956.4912.313 1.052.5256 1.5294 1.0202-.5008.0045-.8106-.2716-1.1656-.4005-.3559-.1292-.675-.3601-1.0204-.5522-.2906 1.6661-.4593 1.6658 1.1886 2.3623.4008.1694.885.1861 1.269.5829-.6738.0971-1.2089-.2702-1.8056-.2744.0736.7769.5153 1.1583 1.189 1.3346.4678.1224.9314.2598 1.3993.5357-.3492.2339-.7181-.1116-1.0139.1615.4352.5798.8255 1.1738 1.6669 1.2242 1.1169.0668 2.2231-.0466 3.3224-.1799 1.1552-.1401 2.2654-.4893 3.3238-.9919.306-.1453.3833-.2469.061-.4666-.3268-.2227-.5753-.5286-.7755-.871.2139-.0535.3681.0158.5459.1598.5237.4241 1.0844.7944 1.8814.7816-.2682-.3805-.5025-.7126-.6207-1.1001-.0594-.1947-.1472-.4559.2463-.3068.2901.967 1.0912 1.5017 1.8667 1.9581 1.9295 1.1355 3.9958 2.0172 6.1809 2.5022 2.2892.508 4.64.5293 6.981.5165 3.129-.0172 6.246-.3502 9.3761-.3536 2.0666-.0023 4.1253.1497 6.028.9834 2.8938 1.268 5.0198 3.3698 6.2861 6.2955.0349.0806.0543.1731.1479.1899.1286.0231.1696-.0814.2122-.1772.1476-.3314.3196-.6736.6178-.8675.7692-.5001.8549-1.2561.8395-2.0531-.0089-.4609-.0777-.9182-.2019-1.3677-.2976-1.0769-.8295-2.0533-1.2882-3.0612.2878.0195.4295.2182.5482.446.2361.453.4865.8991.7063 1.3599.5303 1.1117.8905 2.2781.6619 3.5141-.2413 1.3043-.5259 2.6096-1.0657 3.8318-.7769 1.7592-1.8285 3.3529-3.0464 4.8354-.9872 1.2017-2.0302 2.3509-3.385 3.1598-.3109.1856-.1197.3652.0188.4743.3383.2664.3354.6004.2924.9724-.0937.8117-.702 1.2035-1.2862 1.6232-1.2752.9161-2.7739 1.3827-4.1577 2.0802-.1765.089-.4011.1249-.5479.4035.9654-.1577 1.8597-.3002 2.6964-.6508 2.1415-.8972 3.9281-2.3119 5.5858-3.9051.1843-.1771.3588-.3593.6047-.4499l-.006-.0086c.0965.0871.0147.1539-.034.2108-1.7513 2.0476-3.8234 3.6935-6.2079 4.9464-.3669.1928-.7621.3145-1.1707.3622-.6807.0795-1.3275.2842-1.9639.5164-.2593.0946-.5389.2068-.6315.5439-.3138 1.1425-1.1861 1.8841-1.9685 2.6871-.074.076-.1794.1712-.3151.0318.5736-.7088 1.0179-1.4878 1.2301-2.3828.0302-.1275.124-.2968-.0011-.387-.1552-.1119-.2799.0552-.3967.1421-.5401.402-.9582.9239-1.395 1.4279-.0993.1146-.2199.2528-.3865.2064-.2136-.0595-.1048-.252-.1126-.3934.3997-.7372.9944-1.3066 1.6505-1.7978 1.6652-1.2466 3.5138-2.1684 5.4287-2.9623.8931-.3703 1.691-.8917 2.4493-1.4846.2692-.2105.3573-.4953.4015-.8026.0476-.3314-.1952-.5023-.4363-.625-.2402-.1223-.2977.1421-.4249.2643-.1961.1884-.2671.5176-.6651.5764.3485-.6562.6738-1.2659.9965-1.877.2486-.4707.1016-.8949-.1833-1.2833-.1661-.2265-.3053-.2902-.5341.0211-.3865.5259-.685 1.133-1.2234 1.5545-.1681-.2133-.0175-.3349.0701-.4725.303-.476.5789-.9713.9096-1.427.5964-.8219.5142-1.6538.1239-2.5166-.1307-.289-.3115-.4951-.6457-.5015-.3272-.0062-.3279.2878-.4344.4896-.4257.8074-.8872 1.5901-1.5879 2.2645-.0714-.3137.1267-.4442.2279-.6093.7027-1.1463 1.438-2.2685 1.5273-3.6799.0382-.604-.2435-.9609-.6817-1.273-.2242-.1597-.288-.0843-.3675.1646-.3677 1.1502-1.0028 2.1638-1.6826 3.1503-.0617.0895-.1174.2074-.263.2067-.056-.1549.054-.2653.1137-.3769.3464-.6467.716-1.281 1.0563-1.9307.414-.7905.5608-1.6409.5045-2.5286-.018-.2847-.1163-.5129-.3448-.7126-.2348-.2051-.5219-.3833-.7748-.2905-.2444.0897-.1638.4505-.1644.6951-.0029 1.1002-.0951 2.1805-.4934 3.2231-.7207 1.8866-1.9664 3.3926-3.4175 4.7463-1.2011 1.1205-2.463 2.1777-3.6352 3.3269-1.7302 1.6962-2.5663 3.7069-1.9041 6.161-.408.3333-.8217.6599-1.2232 1.0009-2.5094 2.131-4.9271 4.3389-6.2004 7.5317.4699.1405.9497.2839 1.4294.4273-.0436.0539-.0872.1079-.1309.1618-.3672-.0749-.7322-.1966-1.1021-.214-.6174-.0291-1.2176-.2489-1.8165.3066-1.7931 1.663-3.4526 3.4663-5.2994 5.0673-.6739.5842-1.0162 1.1182-.6857 2.0208.1815.4958.183.6015.6753.3583 1.0459-.5168 2.1381-.9044 3.2451-1.2585 1.6231-.5193 3.2054-1.1773 4.9265-1.3526.9276-.0945 1.7678.0688 2.5056.6472.3368.2641.4632.649.3355 1.042-.4286 1.3197-1.2623 2.3161-2.4611 3.0279-.5577.3312-1.0673.7435-1.6843 1.1796 1.6669.0309 3.2166.0584 4.7304.4541 1.4874.3888 2.9738.7765 4.2817 1.6929.0307-.8159-.0141-1.619.5721-2.2551.567-.6152 1.1086-1.257 1.7104-1.8362.7881-.7585 1.6358-1.4546 2.4378-2.1992 2.8478-2.6439 5.9104-5.0109 9.1492-7.1544.3693-.2444.7383-.3057 1.1632-.1971.4781.1223.9663.2047 1.4473.3167.2296.0535.3034.026.3243-.2517.0947-1.2634.0696-2.5266.0608-3.7907-.005-.7092.0896-1.407.4603-2.0252 1.2527-2.0893 2.3646-4.2582 3.6301-6.3411.9568-1.5749 1.8099-3.2124 2.7345-4.8074 1.181-2.0375 2.3591-4.074 3.3442-6.2181.4713-1.0257.4786-2.009.1143-3.0704-.4205-1.2251-.8997-2.4271-1.3318-3.6467-.4427-1.2494-.9737-2.4365-1.9829-3.3502-.2265-.2051-.4175-.4519-.6111-.6906-1.3661-1.6841-3.0094-3.0725-4.7076-4.3992-.6413-.501-1.4258-.7177-2.1826-.9794-1.5034-.5199-3.0328-.9448-4.6268-1.0405-2.4187-.1453-4.8139.172-7.2102.4366-.7934.0876-1.5867.1754-2.3927.2646.1024.2925.3244.1917.4915.1947.806.0147 1.6061-.0733 2.4067-.1553 1.1396-.1168 2.2801-.2251 3.4202-.3371.0333.0587.0666.1175.0998.1762-.5878.2752-1.2368.3035-1.854.4605-.4748.0432-.9494.0883-1.4243.1294-1.5248.1319-3.0723-.0287-4.5775.3529-1.0055.2549-2.0165.4798-3.0519.5719-.5122.0456-1.0223.0521-1.5448-.1462.1783-.2001.3688-.0707.5198-.1381.5177.0392 1.0094-.1321 1.5153-.1886.6534-.073 1.2335-.3484 1.7928-.6716.2899-.1676.357-.3964.1395-.6789-.2941-.3821-.6387-.7184-1.0174-1.0089-1.6144-1.2384-3.5099-1.835-5.4349-2.3761-1.3158-.3699-2.7182-.5605-3.7467-1.6133-.1192-.122-.2535-.0862-.3112.0909-.1571.4822.0117.9335.1035 1.4019.0689.3516.3689.2107.5229.3511.1255.1144.3306.1086.42.2777-.1887.2566-.4112.0139-.6155.0422-.0381-.0084-.0761-.0168-.1142-.0252.0149.0364.0297.0728.0446.1092.2279.5782.2579 1.309 1.1315 1.3722.1805.0131.4998.0868.4671.3011-.0486.318-.3569.1278-.5583.1418-.0294.002-.057.0301-.0991.0539.1519.3775.4322.6813.299 1.1883-.112.4262-.3333.8589-.7943.8083-2.3914-.2622-4.7788-.5494-6.8987-1.8356-.0513-.0741-.0884-.176-.212-.1077l.0173-.0015c.0301-.1037-.0453-.152-.1076-.2092-.0967-.0888-.2627-.1492-.2096-.3175.0607-.1924.2764.0249.3731-.1024-.604-.5341-1.1991-1.059-2.0964-.9032-.1699.0295-.2908-.0903-.2317-.2965.5218-.3189 1.0705-.1662 1.694-.0283-.5298-1.6757-1.4712-2.9806-2.6971-4.0726-1.4826-1.3207-3.2772-2.1395-5.0378-3.0139-1.5936-.7915-3.2612-1.5216-4.0272-3.4584-.1301.6996-.0973 1.2759.0261 1.8326.2885 1.302 1.011 2.3797 1.857 3.3814.2042.2418.3975.4849.4933.8013-.757-.3157-1.0485-1.12-1.6792-1.575.1842 1.4483.8577 2.6505 1.9676 3.5345 1.302 1.037 2.9108 1.6753 3.9712 3.0351.1481.1899.326.1077.5136.0651.4623-.1048.9146-.3143 1.408-.172.0649.2428-.1216.2923-.28.3403-.4377.1326-.8745.2754-1.3211.3691-.3826.0803-.5152.1899-.2274.5447.3092.3812.5848.7886.9666 1.1073.1553.1296.3935.2864-.0127.4095-.0135-.0267-.0341-.0345-.0619-.0234-.0919-.1822-.1963-.3472-.4406-.3189l.0139.0014c-.121-.2276-.2925-.4033-.5278-.5134l.0054.0095c-.0368-.0378-.074-.0756-.1112-.1133zm36.7157 41.0479.0001-.0006c-.2031.0533-.4165.0893-.5193.3104l.0105-.007c-.0375.037-.075.0739-.1126.1109l.0059-.014c-.3809.0755-.6379.3242-.8628.6177-.6121.3103-1.1294.7587-1.6665 1.1733-1.4175 1.0942-2.9022 2.1034-4.2305 3.3111-.8207.7462-1.6378 1.4964-2.4491 2.2528-1.1494 1.0717-2.3103 2.1323-3.3059 3.3563-.2854.3508-.3886.7563-.3566 1.19.0515.6973.179 1.3839.36 2.0603.1185.4428-.0264.5914-.4883.5153-.213-.0351-.3749-.1552-.5269-.2986-.2636-.2486-.555-.4602-.8956-.5888-1.4713-.5556-2.9656-1.0359-4.533-1.2311-2.8572-.3558-5.697-.2272-8.518.3467-.2342.0476-.4736.0829-.7119.0926-.1792.0073-.4575.0554-.4978-.1439-.0491-.243.2518-.3038.4236-.3479.4041-.1039.7616-.3022 1.1347-.4701 2.142-.9641 4.0777-2.226 5.66-3.9815.2601-.2886.7964-.6062.5724-.9767-.1858-.3075-.7614-.1022-1.1545-.0191-2.2801.4819-4.5032 1.1392-6.6008 2.1783-.7949.3938-1.6002.7666-2.4003 1.15-.2344.1123-.4651.0954-.6723-.0493-.1093-.0764-.1759-.1825-.1375-.352.1626-.7172.2406-1.4462.2354-2.1821-.0015-.2109.1257-.4781-.1267-.6092-.2338-.1214-.4221.0804-.5978.202-1.8168 1.2567-3.4917 2.6964-5.2165 4.0713-1.2393.9878-2.3326 2.1523-3.6221 3.078-.429.308-.5596.6027-.4201 1.1096.2171.7891.2024 1.5789-.4394 2.1921-.4792.4578-.964.9113-1.492 1.3209-1.0694.8295-2.2025 1.571-3.2544 2.4259-.9003.7317-1.838 1.4239-2.8038 2.0663-.5802.3859-1.2461.643-1.8736.958-.0309-.0535-.0617-.107-.0926-.1605 1.8799-1.1751 3.6302-2.522 5.3431-3.9184.0767-.071.1534-.1421.2503-.2318-.1838-.0425-.2617.0641-.361.1176-1.3155.573-2.6039 1.1946-3.7729 2.0404-2.463 1.7819-5.1876 3.0001-8.1183 3.7866-1.42.3811-2.8459.7366-4.3208 1.0573.9938.8038 1.9407 1.5698 2.9039 2.349-.2424.1526-.3662-.0205-.505-.0913-1.0362-.5281-2.0015-1.1745-2.9712-1.8117-1.1491-.7551-2.4541-.8825-3.5411.0598-.174.1508-.387.3234-.6241.0674.1782-.5108.625-.8022 1.008-1.1115.2603-.2102.1789-.2809.0301-.4488-.6338-.7156-1.0063-1.5767-1.2888-2.4694-.5455-1.7241-.7492-3.5043-.7803-5.3079-.0526-3.0511.3079-6.0225 1.4232-8.8997.9701-2.5026 2.026-4.9628 3.1763-7.3855 1.0848-2.2847 2.4681-4.398 3.7556-6.5664.3063-.3535.6164-.7049.617-1.2402-.2442.3743-.4884.7485-.7325 1.1228-.2246.3005-.4382.6101-.6757.9001-1.4319 1.7486-2.5924 3.6728-3.6714 5.6503-1.121 2.0547-2.0219 4.2081-2.916 6.3683-.5674 1.371-1.032 2.7786-1.5942 4.1498-.0603.12-.1434.2339-.1775.3609-.4286 1.5983-.9627 3.1663-1.1974 4.8179-.4196 2.9534-.4505 5.8802.3683 8.7768.3035 1.0735.7839 2.0638 1.3923 3.0199.1456-.17.1313-.5292.4441-.4079.2628.102.0964.361.0907.5491-.0077.2549-.0681.5091-.0666.7633.0034.5924.1829 1.1344.7024 1.4576.5925.3686 1.2238.6753 1.8418 1.0021 1.4961.7911 3.0586 1.4515 4.5517 2.2424 1.8736.9924 3.7652 1.9361 5.7409 2.7035 2.1788.8463 4.4002 1.5581 6.659 2.1686 2.701.73 5.4347 1.2363 8.2316 1.2248 3.1456-.013 6.2764-.2575 9.3871-.7926 2.1933-.3773 4.361-.8175 6.4399-1.6203 1.5132-.5844 2.9983-1.2378 4.436-1.9919.7376-.3869 1.4997-.7343 2.1543-1.2636.1353-.071.2753-.1344.4053-.2142 1.7925-1.1001 3.5223-2.2915 5.2342-3.5137 2.0928-1.494 4.1433-3.0243 5.6822-5.1252.6653-.9083 1.4716-1.7199 1.9752-2.7393.9694-1.962.9088-4.0674.8056-6.174-.0026-.0537-.0301-.0611-.0923.0193-.0534.5798-.1017 1.2066-.1705 1.8312-.1619 1.468-.6373 2.8197-1.4936 4.0344-1.0916 1.5485-2.407 2.8742-3.8734 4.0712-1.7165 1.4011-3.5479 2.6261-5.5206 3.6182-1.3394.6737-2.7504 1.1997-4.1811 1.6705-2.1306.7011-4.3013 1.2223-6.5073 1.611-2.7298.481-5.4861.6429-8.2515.7465-1.6424.0616-3.2848.1557-4.8947-.2239-1.4936-.3521-3.0998-.3963-4.362-1.4528-.0753-.3572.0241-.3867.3292-.214 1.58.8947 3.37.8887 5.178 1.236-.5089-1.0264-.0253-1.7456.5342-2.4396.0688-.0853.1042-.315.2915-.1721.1406.1073.0316.2456-.0225.3703-.1177.2709-.2276.5453-.3741.8988 1.2326-.5648 2.4814-.8409 3.6361-1.3928 3.5123-1.6786 5.5401-4.4186 6.0564-8.2838.1223-.9157-.1856-1.6857-.7116-2.3846-.4227-.5615-.7252-.5974-1.3079-.2506-.3821.2274-.7403.4873-1.0656.7925-.2002.1879-.4135.3605-.6848.4399-.111.0325-.2317.1107-.3151-.0408-.0681-.1236.0357-.1875.1063-.2565.318-.3104.6305-.6271.9588-.9263 2.0955-1.9093 3.6207-1.9267 5.8323-1.1757.1167.0396.3148.057.2606.2459-.0511.1781-.2363.1006-.3595.0916-.7026-.0514-1.4044-.0171-2.1029.0395-.3707.0301-.7596.0338-1.1165.1938 1.016.9469 1.3988 2.0978 1.2982 3.4045-.1185 1.5392-.754 2.8903-1.5705 4.1846-1.1971 1.8977-2.7683 3.3553-4.7822 4.3463-1.049.5162-2.1901.7703-3.2689 1.1989-.5537.22-.6015.5659-.1284.9242.4558.3453.9864.3042 1.5185.2879 2.9077-.0888 5.8157-.1701 8.6896-.6844 2.7115-.4852 5.4139-.9975 7.9738-2.0753 1.8901-.7957 3.7828-1.5535 5.5089-2.71 1.4129-.9466 2.7612-1.9624 4.0277-3.0833 1.7451-1.5445 2.9408-3.4602 3.802-5.6343.8713-2.1998.6948-4.2006-.6991-6.0999-.1131-.1541-.2919-.3076-.0814-.4758.1788-.1428.3777-.0024.4952.1297.2939.3303.6349.6178.864 1.0093.9351 1.5979 1.2723 3.3269 1.2241 5.1624-.0479 1.8223-.5061 3.498-1.5573 5.0057-2.3835 3.4188-5.581 5.9889-8.841 8.4911-2.3987 1.8411-5.0006 3.3481-7.7536 4.5947-.3157.1429-.3817.2883-.0412.4652.9853.512 1.8888 1.1736 2.9117 1.6133.3972.1707.8253.3123 1.3453.0142-.8502-.2178-.807-.7567-.5959-1.3596.0278-.0794.0364-.167.0447-.2516.0389-.3942.274-.6172.6091-.8062 1.1767-.6639 2.3366-1.3577 3.5078-2.0314 1.6304-.9379 3.2318-1.9171 4.762-3.017.8312-.5975 1.6641-1.3265 2.8424-.9206.054.0186.1308-.0274.1966-.0447 2.4813-.6532 4.9557-.9224 7.4702.1578-.2835-.4018-.5282-.7552-.8448-1.062-.9332-.9041-1.8653-1.8097-2.7749-2.7373-.2719-.2773-.4815-.6202-.6925-.9503-.0773-.1209-.1116-.3145.0351-.4218.1216-.089.225.0445.3019.1243.1115.1157.1663.1611.3125.0103.5483-.5656 1.0723-1.1536 1.5248-1.795 1.3281-1.8824 2.3243-3.9355 3.0573-6.1173.4889-1.4551.9898-2.9065 1.4518-4.3701.4767-1.5099.6178-3.0789.7433-4.6487.1006-1.259.3802-2.5092.2822-3.7768-.0637-.8241.023-1.6342.0679-2.4494.0189-.3431.0869-.6835.1326-1.0252.2404.5543.0195 1.1448.2426 1.6855.1535 2.1336.0505 4.2599-.2511 6.4049.5541-.1036.7766-.4129.8956-.8713.2008-.7738.1386-1.5509.107-2.3307-.0699-1.7239-.1107-3.4471.1482-5.1616.0498-.2674.1049-.5339.1468-.8026.0164-.1054.0179-.228.1544-.2113.1504.0183.0984.1588.0867.2474-.0834.6289-.0984 1.2604-.0859 1.8933.0026.1305-.132.3409.1386.3363.1858-.0032.4268.0596.5084-.2221.0569-.1965.1185-.393.1967-.5818.8874-2.143 1.7969-4.277 2.6633-6.4284.8482-2.1062 1.5783-4.2561 2.3314-6.3985 1.1964-3.4039 1.9077-6.8798 1.9797-10.49.0312-1.5659-.074-3.1146-.361-4.7617-.3275.7469-.5769 1.4133-.9029 2.0398-.7952 1.5278-1.6564 3.0196-2.5307 4.5042-1.1517 1.9558-2.2579 3.9384-3.4173 5.8895-.7246 1.2193-1.3477 2.4959-2.0897 3.7019-1.2708 2.0655-1.3651 4.3551-1.3823 6.6698-.1537.2671-.0492.5578-.0739.8367-.0248.28.0157.5762-.2558.7725-.1529.1619-.3411.1127-.5241.0854-.6024-.0898-1.2035-.1892-1.8074-.2674-.1744-.0226-.3665-.1323-.5345.0318-.0289.0226-.0579.0445-.0869.0665zm2.7459 37.5991c-.072.2146-.139.2234-.2091.2097-1.7153-.3342-3.3949-.8064-4.971-1.5592-1.3299-.6353-2.4519-1.5965-3.6108-2.502-1.1888-.9289-1.5284-.9122-2.631-.1366-.5155.3626-.9955.781-1.5322 1.1073-1.7219 1.0467-3.4632 2.0615-5.1961 3.0903-.6006.3566-1.2597.6229-1.7658 1.1266-.5945.5916-.5135 1.4361.1824 1.7454.983.437 1.9646.8814 2.9679 1.2678 3.0501 1.175 6.2529 1.5158 9.4846 1.6684 1.7072.0806 3.4156.0528 5.1199-.0632 1.7061-.1161 3.4136-.2703 5.0962-.5666 2.1866-.3849 4.35-.9001 6.5329-1.3087 2.9319-.5489 5.7961-1.3325 8.5686-2.4254 2.0569-.8109 3.9478-2.0173 6.1917-2.5809-.6004-.1608-1.079.091-1.5772.1339-1.0378.0894-2.0854.1292-3.109.3056-2.0753.3576-4.1464.7422-6.2432.9451-.9993.0967-2.005.1264-3.0128.1429-1.5779.0258-3.172.0754-4.693-.2976-2.4068-.5903-4.6804-1.5164-6.3804-3.4701-.5737-.6593-1.2553-1.2105-2.1406-1.4238-1.8323-.4414-3.6698-.4332-5.5969-.0771 2.5749 2.1613 5.0694 4.2874 8.5249 4.6682zm-43.9667-24.3098c-1.4972-.1735-2.8978-.2504-4.2613-.5956-1.6737-.4236-3.3219-.9129-4.9033-1.6247-1.95-.8777-3.5337-2.2704-5.0966-3.6599-2.0921-1.8599-4.384-3.3644-6.9355-4.4983-1.2494-.5553-1.2394-.5769-1.8051.6555-.05.1088-.097.2217-.1651.319-.1449.2071-.0987.3671.0725.5372.3646.3621.689.7567.9739 1.1882 1.0826 1.6398 1.7848 3.4579 2.4421 5.2889.6359 1.7711 1.2484 3.5467 2.1746 5.1946.7444 1.3245 1.6773 2.5088 2.8039 3.5162 1.1569 1.0345 2.3367 2.0483 3.6928 2.8371.2966.1725.4612.1682.7154.0036.8027-.5197 1.6047-1.042 2.4274-1.5287 1.2535-.7416 2.5737-1.3421 3.984-1.7229.4003-.1081.5254-.2768.236-.6226-.3253-.3887-.3188-.7887-.1069-1.2378.242-.5129.617-.8452 1.1424-1.0313.1715-.0607.3723-.0763.5204-.2587-3.38-.1301-6.4023-.8116-7.1786-1.6611 1.0011.3506 1.9203.7119 2.8834.9384 1.4592.3432 2.9254.5053 4.4168.2517.1337-.0227.3651.0305.2559-.2371-.1949-.4779.1038-.7315.4189-.9878.4077-.3318.8118-.6681 1.292-1.0639zm-11.5822 9.9347c-.3545-.2209-.6616-.3783-.9306-.5852-3.1216-2.4019-5.4584-5.3972-6.837-9.1074-.7785-2.0951-1.4624-4.2285-2.5646-6.1897-.4667-.8305-.937-1.6563-1.6745-2.3633-.1247.2704-.232.4975-.3348.7266-.9111 2.0314-1.4824 4.18-2.1877 6.2832-1.103 3.289-1.2454 6.6327-.6571 10.0148.2473 1.4221.5864 2.8457 1.5438 4.01.2459.2991.4702.6117.9673.4775.2293-.0619.503.0385.7466.1361.3051.1222.6298.173.9559.1146 1.2957-.232 2.6049-.369 3.8996-.6208 2.5361-.4933 4.8196-1.5622 7.0731-2.8964zm64.4205-20.568c.5461-.4063 1.152-.6174 1.7868-.7758.1409-.0351.472.157.4398-.2358-.0259-.3151.0306-.6362-.3743-.8123-1.1347-.4935-2.1283-.2198-3.0344.5153-.8206.6657-1.3865 1.5473-1.9697 2.4144-.5871.873-1.0982 1.8338-2.2031 2.1914-.1321.0428-.1094.1551-.103.255.0436.6825.1012 1.3644.1265 2.0476.0094.2523.0804.3152.3321.2941.5999-.0501 1.1849.0824 1.7733.1876 1.0408.1861 2.0761.4058 3.1331.4988 1.0981.0966 2.149-.1872 3.1969-.411 1.4152-.3023 2.7311-.8563 3.8013-1.8928.3162-.3063.2252-.4276-.1275-.5354-.55-.1681-.8407-.4473-.7443-1.1154.0953-.6606-.3993-1.2506-1.0458-1.4726-.5892-.2023-1.1848-.2897-1.8122-.1845-.6249.1049-1.2427.2334-1.8587.3793-.1373.0325-.3408.2093-.4853-.1027.9721-.3178 1.9287-.6306 2.9142-.9528-1.2061-1.0656-2.4732-.6014-3.7457-.2924zm-25.3552 9.8609c-.1782.2479-.2541.5084-.1949.7865.0256.1201.0564.2611-.0373.3421-.1374.1188-.2523-.035-.3641-.0921-.6802-.3475-1.3292-.7446-2.0376-1.0504-2.0706-.8938-4.2423-1.1033-6.455-1.0684-.4536.0072-.8966-.0267-1.4639-.0317.3303-.3041.5643-.5495.8281-.7572.9416-.7412 1.8944-1.4681 2.8407-2.2033.5466-.4247.8829-.9903 1.1014-1.6395.0844-.2508.1011-.5141-.1037-.6649-.4092-.3012-.8279-.6256-1.3876-.5838-.375.028-.752.0455-1.1236.099-1.7822.2564-3.5151.6822-5.1644 1.4336-1.1358.5174-2.3022.9673-3.4509 1.457-.2288.0975-.2988.0438-.3162-.1962-.0311-.428-.1187-.8467-.2828-1.2471-.0718-.1752-.1209-.396-.3754-.3175-.2102.0648-.1961.269-.1516.4362.2144.8048.0759 1.5968-.072 2.3888-.0286.1533-.0842.3114.0586.4296.1488.1232.2828.0212.4233-.048.5829-.287 1.1685-.5689 1.756-.8466 1.6894-.7986 3.4522-1.3981 5.2575-1.8632.921-.2373 1.8335-.5457 2.8013-.565.3057-.0061.5716.1216.6683.3877.089.2449.0318.531-.1811.7422-.4473.4438-.7993.9677-1.2776 1.3931-1.3516 1.2022-2.7629 2.2942-4.4885 2.9174-.2835.1024-.5849.1955-.8894.4535.1538.0081.2247.0303.283.0122 1.0565-.3278 2.1651-.3731 3.2444-.4318 2.2168-.1205 4.4495-.1357 6.6205.4775 1.3479.3807 2.7812.5656 3.8634 1.5978.0848.0809.2192.0651.2098-.0835-.0351-.5553-.0907-1.1094-.1387-1.664zm37.8646 25.944c2.0418-.2669 3.9641-.5583 5.7396-1.4432-2.0353-.166-3.9038.3429-5.7396 1.4432zm-93.1093-37.1143c.777.2259 1.4637.6276 2.1603 1.0154.2752.1532.5769.5405.8037.4247.2469-.126.3377-.5593.4935-.8603.0214-.0414.0251-.092.0341-.1272-1.1337-.3886-2.2727-.6819-3.4916-.4526zm24.5817 16.713c.0509.1158.0006.3098.1832.3616.1513.0429.7531-.5746.6888-.7186-.2298-.514.0617-.6259.4746-.6595.1006-.0082.1638-.0589.1642-.1518.0005-.1115-.0891-.1187-.18-.1201-.5892-.0095-1.3411.7075-1.3308 1.2884z" fill="#0d0e0d"/><path d="m33.4626 62.4727c.0054-.0271.0109-.0542.0163-.0813-.0071.0248-.0142.0496-.021.0746z" fill="#0d0e0d"/><path d="m23.4612 98.0447c.2372.256.4502.0834.6241-.0674 1.087-.9423 2.392-.8149 3.5411-.0598.9698.6373 1.935 1.2836 2.9712 1.8117.1388.0707.2626.2439.505.0913-.9632-.7791-1.9102-1.5451-2.9039-2.349 1.4749-.3207 2.9008-.6762 4.3208-1.0573 2.9307-.7865 5.6553-2.0047 8.1183-3.7866 1.1691-.8458 2.4574-1.4673 3.7729-2.0404.037.0381.074.0762.1109.1142-1.7131 1.3963-3.4634 2.7432-5.3433 3.9183.0309.0535.0617.107.0926.1605.6274-.315 1.2933-.5721 1.8736-.958.9658-.6424 1.9035-1.3346 2.8038-2.0663 1.0519-.8549 2.185-1.5964 3.2544-2.4259.5279-.4095 1.0128-.863 1.492-1.3209.6417-.6132.6565-1.403.4394-2.1921-.1395-.507-.0088-.8016.4201-1.1096 1.2895-.9257 2.3828-2.0902 3.6221-3.078 1.7248-1.3749 3.3997-2.8146 5.2165-4.0713.1757-.1215.3639-.3233.5978-.202.2524.131.1252.3982.1267.6092.0052.7359-.0728 1.4649-.2354 2.1821-.0384.1695.0282.2756.1375.352.2072.1447.4378.1616.6723.0493.8001-.3834 1.6054-.7562 2.4003-1.15 2.0976-1.0391 4.3207-1.6963 6.6008-2.1783.3931-.0831.9687-.2884 1.1545.0191.2239.3705-.3123.6881-.5724.9767-1.5822 1.7555-3.5179 3.0173-5.66 3.9815-.3731.1679-.7306.3663-1.1347.4701-.1718.0442-.4727.105-.4236.3479.0403.1993.3186.1512.4978.1439.2383-.0097.4777-.0449.7119-.0926 2.821-.5739 5.6608-.7026 8.518-.3467 1.5674.1952 3.0616.6755 4.533 1.2311.3405.1286.632.3403.8956.5888.152.1434.3139.2635.5269.2986.462.0761.6069-.0725.4883-.5153-.181-.6764-.3085-1.363-.36-2.0603-.032-.4336.0712-.8391.3566-1.19.9956-1.224 2.1565-2.2846 3.3059-3.3563.8113-.7564 1.6284-1.5066 2.4491-2.2528 1.3283-1.2077 2.813-2.2169 4.2305-3.3111.5371-.4146 1.0543-.863 1.6664-1.1731.3276-.15.6635-.2886.8629-.6178l-.006.014c.0375-.037.0751-.0739.1126-.1108l-.0105.0069c.2458.0182.4014-.1146.5193-.3103l-.0001.0007c.029-.022.058-.044.087-.066.168-.164.3601-.0544.5345-.0318.6039.0782 1.205.1777 1.8074.2674.183.0273.3712.0765.5242-.0855.2866.2284.3448.0458.3453-.2009.001-.4694-.0098-.9388-.0157-1.4082.0173-2.3147.1116-4.6043 1.3823-6.6698.742-1.2061 1.3651-2.4826 2.0897-3.7019 1.1594-1.9511 2.2656-3.9338 3.4173-5.8895.8743-1.4846 1.7355-2.9763 2.5307-4.5042.326-.6264.5754-1.2928.9029-2.0398.287 1.6471.3922 3.1959.361 4.7617-.072 3.6101-.7833 7.086-1.9797 10.49-.753 2.1424-1.4832 4.2923-2.3314 6.3985-.8664 2.1514-1.7759 4.2854-2.6633 6.4284-.0782.1888-.1398.3853-.1967.5818-.0816.2817-.3226.2189-.5084.2221-.2705.0046-.136-.2057-.1386-.3363-.0124-.6329.0025-1.2644.0859-1.8933.0118-.0886.0638-.229-.0867-.2474-.1364-.0166-.138.106-.1544.2113-.0419.2686-.097.5352-.1468.8026-.3328.0365-.3047.3325-.3658.542-.1421.4868-.2279.9922-.5337 1.4166-.2231-.5407-.0022-1.1312-.2426-1.6855-.0457.3417-.1137.6821-.1326 1.0252-.0449.8152-.1316 1.6253-.0679 2.4494.098 1.2677-.1816 2.5178-.2822 3.7768-.1255 1.5698-.2666 3.1388-.7433 4.6487-.4621 1.4636-.963 2.9151-1.4518 4.3701-.733 2.1818-1.7292 4.2349-3.0573 6.1173-.4525.6414-.9766 1.2294-1.5248 1.795-.1462.1509-.201.1054-.3125-.0103-.0769-.0798-.1803-.2133-.3019-.1243-.1467.1073-.1124.3009-.0351.4218.211.3302.4206.6731.6925.9503.9096.9275 1.8418 1.8332 2.7749 2.7373.3166.3067.5613.6601.8448 1.062-2.5145-1.0802-4.9889-.811-7.4702-.1578-.0658.0173-.1426.0633-.1966.0447-1.1784-.406-2.0112.3231-2.8424.9206-1.5301 1.0999-3.1315 2.0791-4.762 3.017-1.1713.6737-2.3311 1.3675-3.5078 2.0314-.3351.189-.5702.412-.6091.8062-.0084.0847-.0169.1722-.0447.2516-.2112.6029-.2543 1.1417.5959 1.3596-.52.2981-.948.1565-1.3453-.0142-1.0229-.4396-1.9264-1.1013-2.9117-1.6133-.3405-.1769-.2745-.3222.0412-.4652 2.7531-1.2466 5.3549-2.7536 7.7536-4.5947 3.2601-2.5022 6.4575-5.0722 8.841-8.4911 1.0512-1.5077 1.5094-3.1834 1.5573-5.0057.0483-1.8355-.289-3.5644-1.2241-5.1624-.2291-.3915-.5701-.6789-.864-1.0093-.1175-.1321-.3164-.2725-.4952-.1297-.2105.1682-.0317.3216.0814.4758 1.3939 1.8994 1.5704 3.9001.6991 6.0999-.8611 2.174-2.0568 4.0898-3.802 5.6343-1.2664 1.1209-2.6147 2.1367-4.0277 3.0833-1.7261 1.1565-3.6188 1.9143-5.5089 2.71-2.56 1.0778-5.2624 1.59-7.9738 2.0753-2.8739.5143-5.7819.5956-8.6896.6844-.532.0163-1.0627.0574-1.5185-.2879-.4731-.3583-.4253-.7043.1284-.9242 1.0787-.4285 2.2199-.6827 3.2689-1.1989 2.014-.991 3.5851-2.4486 4.7822-4.3463.8165-1.2944 1.452-2.6454 1.5705-4.1846.1006-1.3067-.2822-2.4576-1.2982-3.4045.3569-.16.7457-.1637 1.1165-.1938.6985-.0566 1.4003-.0909 2.1029-.0395.1232.009.3084.0865.3595-.0916.0542-.1889-.1439-.2063-.2606-.2459-2.2117-.751-3.7368-.7336-5.8323 1.1757-.3284.2992-.6408.6159-.9588.9263-.0706.0689-.1744.1329-.1063.2565.0835.1515.2041.0733.3151.0408.2713-.0795.4845-.252.6848-.4399.3253-.3052.6834-.565 1.0656-.7925.5827-.3468.8852-.311 1.3079.2506.526.6989.8339 1.4689.7116 2.3846-.5163 3.8651-2.5441 6.6051-6.0564 8.2838-1.1547.5519-2.4035.828-3.6361 1.3928.1465-.3535.2564-.6279.3741-.8988.0541-.1247.1631-.263.0225-.3703-.1874-.143-.2228.0867-.2915.1721-.5594.6941-1.0431 1.4133-.5342 2.4396-1.8079-.3473-3.598-.3413-5.178-1.236-.3051-.1727-.4046-.1432-.3292.214-.2213.1913-.0196.3019.0906.4101 1.6045 1.5759 3.3656 2.8257 5.6192 3.4047 2.1915.563 4.3995.8125 6.6328.8132 1.6151.0005 3.2469-.1985 4.8093-.611 2.2264-.5878 4.5141-.9392 6.6887-1.7284.4606-.1672.8908-.4418 1.4039-.448-.6545.5294-1.4167.8768-2.1543 1.2636-1.4377.7541-2.9228 1.4075-4.436 1.9919-2.0789.8028-4.2466 1.243-6.4399 1.6203-3.1106.5351-6.2415.7796-9.3871.7926-2.7968.0115-5.5305-.4948-8.2316-1.2248-2.2588-.6105-4.4802-1.3223-6.659-2.1686-1.9757-.7675-3.8673-1.7111-5.7409-2.7035-1.4931-.7909-3.0557-1.4513-4.5517-2.2424-.618-.3268-1.2493-.6336-1.8418-1.0021-.5195-.3232-.699-.8652-.7024-1.4576-.0015-.2542.0589-.5084.0666-.7633.0057-.1881.1721-.4471-.0907-.5491-.3128-.1214-.2985.2379-.4441.4079-.6084-.9562-1.0889-1.9464-1.3923-3.0199-.8188-2.8967-.7879-5.8234-.3683-8.7768.2346-1.6516.7688-3.2196 1.1974-4.8179.0341-.127.1172-.2409.1775-.3609.0068.9206-.2202 1.8195-.2386 2.7414-.0138.6931-.1912 1.3821-.218 2.076-.0547 1.4135-.1646 2.8338.0469 4.2412.1792 1.1929.3792 2.3869.659 3.5591.2336.9786.6253 1.9111 1.3992 2.62zm34.1387-8.9899c.2575-.3075.1033-.6869.179-1.0263.1235-.5538-.0517-.9959-.4836-1.3593-1.102-.927-2.6492-.8385-3.7011.2212-.7556.7612-.8731 1.6422-.3648 2.7351.3829.8233 1.1125 1.2684 2.0144 1.1927.4431-.0372.8706-.1633 1.2618-.3884.4249-.4104.9659-.7285 1.0943-1.375zm-23.7116 13.185c.748-.1311 1.58-.3861 2.4182-.6153.0807-.0221.175-.0546.1363-.1678-.0348-.1019-.1296-.0901-.2161-.0822-.4058.037-.8121.07-1.2175.1108-.2795.0281-.5036-.0608-.6669-.2909-.5408-.7622-.2751-1.6758.5986-1.9997.3176-.1177.6594-.1685.9852-.2663.1252-.0376.2762-.099.2143-.2854-.0599-.1804-.2036-.1375-.3418-.114-1.1653.1985-2.1598.7227-2.981 1.5706-.3467.358-.4874.7843-.3044 1.2655.2081.5471.7008.8749 1.3751.8747z" fill="#b1bd68"/><path d="m69.659 69.9626c-.4798-.1434-.9595-.2868-1.4294-.4273 1.2733-3.1928 3.691-5.4006 6.2004-7.5317.4015-.341.8152-.6676 1.223-1.0006.2609.261.543.5043.7783.7866.3898.4678.8304.6648 1.4301.4284.166-.0655.3655-.0496.5501-.0636.6312-.0477 1.3123.0061 1.5602-.7957.0071-.0229.0564-.0328.086-.0488.0077.1414-.1011.3338.1126.3934.1665.0464.2872-.0919.3865-.2064.4368-.504.8549-1.0259 1.395-1.4279.1168-.0869.2415-.254.3967-.1421.1251.0902.0313.2595.0011.387-.2122.895-.6565 1.674-1.2301 2.3828.1357.1394.2411.0441.3151-.0318.7823-.803 1.6547-1.5446 1.9685-2.6871.0926-.337.3722-.4493.6315-.5439.6364-.2322 1.2832-.4369 1.9639-.5164.4086-.0477.8038-.1694 1.1707-.3622 2.3845-1.2529 4.4566-2.8988 6.2079-4.9464.0486-.0569.1304-.1236.034-.2106.0234.002.0467.0039.07.0057-.0061-.0208-.0123-.0417-.0184-.0625-.0152.0218-.0305.0435-.0457.0653-.2459.0907-.4204.2728-.6047.4499-1.6577 1.5932-3.4443 3.008-5.5858 3.9051-.8368.3506-1.731.4931-2.6964.6508.1468-.2786.3714-.3145.5479-.4035 1.3838-.6974 2.8825-1.164 4.1577-2.0802.5842-.4197 1.1925-.8115 1.2862-1.6232.0429-.3719.0459-.7059-.2924-.9724-.1385-.1091-.3297-.2887-.0188-.4743 1.3548-.8089 2.3978-1.9581 3.385-3.1598 1.2179-1.4825 2.2695-3.0762 3.0464-4.8354.5398-1.2222.8244-2.5275 1.0657-3.8318.2287-1.2361-.1316-2.4025-.6619-3.5141-.2198-.4608-.4703-.9069-.7063-1.3599-.1187-.2277-.2603-.4265-.5482-.4458-.5581-.9078-1.4868-1.453-2.1826-2.2288-.7112-.793-1.6146-1.3191-2.6221-1.649-1.0961-.3589-2.163-.7982-3.2574-1.1644-.6201-.2075-1.2121-.2907-1.8449-.3136-.6803-.0246-1.3587-.1023-2.0379-.1569.6171-.1569 1.2662-.1853 1.854-.4605 1.1043-.328 2.1137.2068 3.1379.3324-.3951-.167-.6631-.6457-1.1973-.6209-.6805.0316-1.3639.009-2.0404.1122-1.1401.112-2.2806.2203-3.4202.3371-.8005.082-1.6007.17-2.4067.1553-.167-.0031-.3891.0978-.4915-.1947.806-.0891 1.5993-.177 2.3927-.2646 2.3963-.2646 4.7916-.5819 7.2102-.4366 1.594.0957 3.1234.5206 4.6268 1.0405.7568.2617 1.5413.4784 2.1826.9794 1.6982 1.3267 3.3415 2.7152 4.7076 4.3992.1936.2387.3846.4855.6111.6906 1.0091.9137 1.5402 2.1008 1.9829 3.3502.4321 1.2196.9112 2.4216 1.3318 3.6467.3643 1.0614.3569 2.0446-.1143 3.0704-.9851 2.1442-2.1632 4.1807-3.3442 6.2181-.9245 1.595-1.7776 3.2325-2.7345 4.8074-1.2655 2.083-2.3774 4.2519-3.6301 6.3411-.3707.6182-.4652 1.316-.4603 2.0252.0089 1.264.034 2.5273-.0608 3.7907-.0208.2778-.0946.3052-.3243.2517-.481-.112-.9692-.1944-1.4473-.3167-.4249-.1086-.7938-.0474-1.1632.1971-3.2389 2.1435-6.3015 4.5105-9.1492 7.1544-.802.7446-1.6497 1.4407-2.4378 2.1992-.6018.5792-1.1434 1.221-1.7104 1.8362-.5862.636-.5414 1.4391-.5721 2.2551-1.3079-.9164-2.7943-1.3041-4.2817-1.6929-1.5138-.3957-3.0635-.4233-4.7304-.4541.6171-.4361 1.1266-.8484 1.6843-1.1796 1.1988-.7118 2.0325-1.7082 2.4611-3.0279.1276-.393.0013-.778-.3355-1.042-.7378-.5784-1.578-.7417-2.5056-.6472-1.7212.1753-3.3034.8333-4.9265 1.3526-1.107.3542-2.1992.7418-3.2451 1.2585-.4922.2432-.4938.1376-.6753-.3583-.3304-.9027.0119-1.4367.6857-2.0208 1.8468-1.601 3.5063-3.4043 5.2994-5.0673.5989-.5555 1.1991-.3356 1.8165-.3066.3699.0174.7349.1392 1.1021.214 1.1946.3496 2.3326.8536 3.4988 1.2863-1.076-.5955-2.1552-1.178-3.3683-1.4478zm28.0385-34.2103c-.0315-.0447-.063-.0894-.0945-.1342-.1773-.4797-.3205-.9757-.5391-1.4357-.438-.9216-1.0116-1.7409-1.9676-2.2057-.151-.0734-.3455-.1472-.4463.0657-.0943.1992.0452.3038.2151.3899.8241.4174 1.3464 1.1275 1.8275 1.8825.2826.4435.4683.9461.8236 1.3445-.0097.0814.0264.1381.0953.1771.1149.3399.3422.6132.5366.9059.8905 1.5279 1.1682 3.1857 1.0437 4.9285-.105.6403-.21 1.2806-.315 1.921.0521.0097.1041.0194.1562.0291.1139-.6482.2279-1.2965.3418-1.9447.4505-1.4966.272-2.9434-.3412-4.3572-.1454-.3352-.3875-.5471-.7445-.6268-.0831-.3852-.3939-.6273-.5916-.9399zm-2.8654 15.5051c2.0416-1.2065 2.8638-3.1679 3.6233-5.1712.0775-.2045.1661-.4228-.0484-.6172-.2169.0933-.3598.2825-.4491.4725-.3527.7507-.8071 1.4681-.9035 2.3145-.0407.3569-.1627.6543-.4005.9157-.6042.6639-1.2322 1.3069-1.8218 2.0857zm-.3208-19.4751c-.795-.9117-3.1216-1.866-4.3823-1.8121-.148.0063-.2274.0627-.2536.1947-.0288.1455.0536.2247.189.2504.1343.0255.2694.0527.4054.0623 1.1589.0821 2.2197.5001 3.2696.9536.2563.1107.4455.3712.7719.3511z" fill="#b1d8d4"/><path d="m94.1005 107.5617c-3.4555-.3808-5.95-2.5069-8.5249-4.6683 1.9271-.3561 3.7646-.3643 5.5969.0771.8854.2133 1.5669.7645 2.1406 1.4238 1.6999 1.9537 3.9736 2.8798 6.3804 3.4701 1.521.3731 3.1151.3234 4.693.2976 1.0079-.0165 2.0135-.0462 3.0128-.1429 2.0968-.2029 4.1678-.5875 6.2432-.9451 1.0236-.1764 2.0712-.2162 3.109-.3056.4983-.0429.9768-.2946 1.5772-.1339-2.2438.5636-4.1348 1.7701-6.1917 2.5809-2.7725 1.0929-5.6368 1.8765-8.5686 2.4254-2.1828.4086-4.3462.9238-6.5329 1.3087-1.6826.2962-3.3901.4504-5.0962.5666-1.7043.116-3.4128.1438-5.1199.0632-3.2318-.1526-6.4346-.4935-9.4846-1.6684-1.0033-.3865-1.9849-.8308-2.9679-1.2678-.6958-.3094-.7768-1.1539-.1824-1.7454.5061-.5037 1.1652-.77 1.7658-1.1266 1.7328-1.0288 3.4742-2.0436 5.1961-3.0903.5367-.3263 1.0167-.7446 1.5322-1.1073 1.1026-.7756 1.4421-.7923 2.631.1366 1.1589.9056 2.2809 1.8668 3.6108 2.502 1.5761.7529 3.2557 1.2251 4.971 1.5592.07.0138.1371.005.2091-.2096z" fill="#b1bd67"/><path d="m83.8462 30.1996c.6792.0545 1.3576.1322 2.0379.1569.6328.0229 1.2248.1061 1.8449.3136 1.0944.3662 2.1613.8055 3.2574 1.1644 1.0075.3299 1.9109.856 2.6221 1.649.6958.7758 1.6245 1.321 2.1826 2.2288.4587 1.0078.9906 1.9842 1.2882 3.0611.1242.4495.193.9068.2019 1.3677.0154.797-.0703 1.5529-.8395 2.0531-.2982.1939-.4702.5361-.6178.8675-.0426.0957-.0837.2003-.2122.1772-.0936-.0168-.113-.1094-.1479-.1899-1.2663-2.9257-3.3923-5.0275-6.2861-6.2955-1.9028-.8338-3.9614-.9857-6.028-.9834-3.1301.0034-6.2471.3365-9.3761.3536-2.3409.0128-4.6918-.0084-6.981-.5165-2.1852-.485-4.2514-1.3666-6.1809-2.5022-.7755-.4564-1.5765-.9911-1.8666-1.9582.0057-.2243.0337-.44.2244-.5943 3.2277 1.9728 6.3469 2.8605 7.8413 2.7361-2.0827-.2358-3.966-1.0708-5.8245-1.9543-.7388-.3512-1.4123-.8397-2.1156-1.2657-.0602-.9279.4012-1.3655 1.5481-1.4681l-.0174.0018c.0339.1084.1257.1026.212.1077 2.1199 1.2862 4.5072 1.5735 6.8987 1.8356.461.0505.6823-.3821.7943-.8083.1332-.5071-.1471-.8109-.299-1.1883.0421-.0237.0697-.0518.0991-.0539.2014-.014.5097.1762.5583-.1418.0327-.2144-.2866-.2881-.4671-.3011-.8736-.0632-.9036-.794-1.1315-1.3722.0232-.0282.0465-.0564.0697-.0847.2042-.0276.4266.2151.6153-.0416 1.0999.4323 2.0589 1.1394 3.1429 1.6056.7046.3031 1.4483.53 2.0788.9894.6188.451 1.158.9398.7945 1.8208-.151.0674-.3415-.0619-.5198.1381.5225.1983 1.0327.1918 1.5448.1462 1.0354-.0922 2.0465-.3171 3.0519-.5719 1.5052-.3816 3.0528-.221 4.5775-.3529.475-.0411.9496-.0862 1.4244-.1294z" fill="#b1bd68"/><path d="m50.1338 83.2519c-.4803.3958-.8843.732-1.2921 1.0638-.315.2563-.6137.5098-.4189.9878.1091.2677-.1222.2144-.2559.2371-1.4914.2537-2.9576.0915-4.4168-.2517-.9631-.2265-1.8823-.5878-2.8834-.9384.7764.8495 3.7986 1.531 7.1786 1.6611-.1481.1824-.3489.1979-.5204.2587-.5254.1861-.9004.5184-1.1424 1.0313-.2119.4492-.2184.8491.1069 1.2378.2894.3458.1643.5145-.236.6226-1.4103.3808-2.7305.9813-3.984 1.7229-.8227.4867-1.6248 1.009-2.4274 1.5287-.2542.1646-.4188.169-.7154-.0036-1.3561-.7888-2.5359-1.8026-3.6928-2.8371-1.1266-1.0074-2.0595-2.1916-2.8039-3.5162-.9262-1.6479-1.5388-3.4234-2.1746-5.1946-.6574-1.831-1.3596-3.6491-2.4421-5.2889-.2849-.4315-.6093-.8261-.9739-1.1882-.1712-.17-.2174-.3301-.0725-.5372.068-.0973.1151-.2101.1651-.319.5657-1.2324.5556-1.2108 1.8051-.6555 2.5515 1.1339 4.8434 2.6384 6.9355 4.4983 1.5629 1.3894 3.1466 2.7822 5.0966 3.6599 1.5815.7118 3.2297 1.2011 4.9033 1.6247 1.3637.3453 2.7642.4223 4.2614.5957z" fill="#b1bd68"/><path d="m38.5516 93.1866c-2.2536 1.3342-4.5371 2.4031-7.0731 2.8965-1.2946.2519-2.6039.3888-3.8996.6208-.3261.0584-.6507.0075-.9559-.1146-.2437-.0976-.5173-.1979-.7466-.1361-.497.1341-.7214-.1785-.9673-.4775-.9574-1.1643-1.2964-2.5879-1.5438-4.01-.5883-3.3821-.4458-6.7258.6571-10.0148.7053-2.1033 1.2766-4.2519 2.1877-6.2832.1028-.2291.21-.4562.3348-.7266.7375.707 1.2078 1.5328 1.6745 2.3633 1.1022 1.9612 1.7861 4.0946 2.5646 6.1897 1.3786 3.7103 3.7153 6.7055 6.837 9.1074.269.2068.5762.3642.9306.5851z" fill="#c19853"/><path d="m80.0577 61.3099c-.0296.016-.0789.0259-.086.0488-.2478.8018-.929.748-1.5602.7957-.1847.014-.3841-.0019-.5501.0636-.5997.2364-1.0403.0394-1.4301-.4284-.2352-.2823-.5174-.5255-.7783-.7866-.662-2.4544.174-4.4651 1.9042-6.1613 1.1722-1.1492 2.4341-2.2064 3.6352-3.3269 1.4511-1.3537 2.6968-2.8598 3.4175-4.7463.3983-1.0425.4905-2.1229.4934-3.2231.0006-.2447-.08-.6055.1644-.6951.2529-.0928.5401.0854.7748.2905.2286.1997.3268.4279.3448.7126.0563.8877-.0904 1.7381-.5045 2.5286-.3403.6497-.7099 1.2841-1.0563 1.9307-.0598.1116-.1697.222-.1137.3769.1456.0007.2013-.1172.263-.2067.6798-.9864 1.3149-2 1.6826-3.1503.0796-.2489.1433-.3243.3675-.1646.4381.3121.7199.669.6817 1.273-.0893 1.4114-.8246 2.5336-1.5273 3.6799-.1012.165-.2992.2956-.2279.6093.7006-.6744 1.1621-1.4571 1.5879-2.2645.1064-.2018.1072-.4958.4344-.4896.3342.0063.5151.2125.6457.5015.3903.8628.4724 1.6947-.1239 2.5166-.3307.4557-.6066.951-.9096 1.427-.0876.1376-.2382.2592-.0701.4725.5385-.4215.837-1.0287 1.2234-1.5545.2288-.3113.368-.2476.5341-.0211.2849.3884.4319.8126.1833 1.2833-.3227.6111-.648 1.2209-.9965 1.877.398-.0588.469-.388.6651-.5764.1272-.1221.1846-.3865.4249-.2643.2411.1227.4839.2936.4363.625-.0441.3073-.1323.5921-.4015.8026-.7582.5929-1.5562 1.1143-2.4493 1.4846-1.9149.794-3.7635 1.7158-5.4287 2.9623-.6559.4911-1.2505 1.0605-1.6502 1.7977z" fill="#b0bd68"/><path d="m72.8113 105.8174c-.5131.0062-.9433.2809-1.4039.448-2.1746.7892-4.4623 1.1406-6.6887 1.7284-1.5624.4125-3.1942.6115-4.8093.611-2.2333-.0007-4.4413-.2503-6.6328-.8132-2.2536-.5789-4.0147-1.8288-5.6192-3.4047-.1101-.1081-.3118-.2188-.0906-.4101 1.2622 1.0564 2.8684 1.1006 4.3619 1.4527 1.6099.3796 3.2523.2855 4.8947.2239 2.7653-.1037 5.5216-.2655 8.2515-.7465 2.206-.3887 4.3767-.9099 6.5073-1.611 1.4307-.4708 2.8417-.9969 4.1811-1.6705 1.9727-.9922 3.8041-2.2171 5.5206-3.6182 1.4664-1.197 2.7818-2.5227 3.8734-4.0712.8563-1.2147 1.3316-2.5665 1.4936-4.0344.0689-.6245.1171-1.2514.1705-1.8312.0622-.0804.0896-.073.0923-.0193.1032 2.1067.1638 4.2121-.8056 6.174-.5037 1.0194-1.3099 1.8309-1.9752 2.7393-1.5388 2.1009-3.5893 3.6312-5.6822 5.1252-1.7119 1.2221-3.4417 2.4136-5.2342 3.5137-.1299.0797-.2699.1431-.4052.2141z" fill="#e5e7a7"/><path d="m102.9721 72.6186c1.2725-.309 2.5396-.7732 3.7457.2925-.9855.3222-1.9421.635-2.9142.9528.1444.312.348.1352.4853.1027.616-.1459 1.2338-.2745 1.8587-.3793.6274-.1053 1.223-.0179 1.8122.1845.6465.222 1.1411.812 1.0458 1.4726-.0964.6681.1943.9473.7443 1.1154.3527.1078.4437.2291.1275.5354-1.0703 1.0365-2.3862 1.5905-3.8013 1.8928-1.0479.2238-2.0989.5076-3.1969.411-1.057-.093-2.0923-.3127-3.1331-.4988-.5884-.1052-1.1733-.2377-1.7733-.1876-.2517.021-.3228-.0419-.3321-.2941-.0253-.6831-.083-1.3651-.1265-2.0476-.0064-.1-.0291-.2123.103-.255 1.1049-.3576 1.6159-1.3184 2.2031-2.1914.5832-.8671 1.1491-1.7487 1.9697-2.4144.9062-.7352 1.8998-1.0088 3.0344-.5153.4049.1761.3484.4972.3743.8123.0322.3928-.2989.2007-.4398.2358-.6348.1583-1.2407.3694-1.7868.7757z" fill="#b0bd68"/><path d="m56.636 27.1014c-.4932-.1421-.9454.0674-1.4077.1722-.1876.0425-.3655.1248-.5136-.0651-1.0604-1.3598-2.6692-1.9981-3.9712-3.0351-1.11-.8841-1.7834-2.0862-1.9676-3.5345.6307.4551.9221 1.2593 1.6792 1.575-.0958-.3165-.2891-.5595-.4933-.8013-.846-1.0017-1.5685-2.0794-1.857-3.3814-.1233-.5567-.1562-1.133-.0261-1.8326.766 1.9369 2.4336 2.6669 4.0272 3.4584 1.7606.8744 3.5552 1.6932 5.0378 3.0139 1.2259 1.092 2.1673 2.397 2.6971 4.0726-.6235-.1379-1.1723-.2906-1.694.0283-.531-.0153-1.0513.0177-1.5108.3296z" fill="#b0bd68"/><path d="m56.6922 31.6123c.2001.3424.4487.6483.7755.871.3223.2197.245.3213-.061.4666-1.0584.5026-2.1686.8519-3.3238.9919-1.0993.1333-2.2056.2468-3.3224.1799-.8414-.0504-1.2317-.6444-1.6669-1.2242.2958-.2731.6647.0724 1.0139-.1615-.4679-.2759-.9315-.4132-1.3993-.5357-.6736-.1763-1.1154-.5577-1.189-1.3346.5966.0042 1.1318.3715 1.8056.2744-.384-.3968-.8682-.4135-1.269-.5829-1.6479-.6965-1.4792-.6962-1.1886-2.3623.3454.192.6645.4229 1.0204.5522.355.1289.6648.405 1.1656.4005-.4774-.4946-1.0382-.7073-1.5294-1.0202-.3351-.2135-.6464-.4492-.8553-.7956-.1365-.2263-.1718-.4731.0335-.6594.2393-.2172.362.0803.4934.1865 1.9544 1.5797 4.121 2.3798 6.6646 1.8908.2122-.0408.5066-.3802.6834.0727.0346.0349.0693.0699.104.1048l-.0084-.0126c.0372.0378.0744.0755.1116.1133l-.0053-.0096c.062.2882.2304.4672.5278.5134l-.0139-.0014c.0938.1796.226.3062.4406.3189.0278-.011.0484-.0032.0621.0235.236.4173.5563.7878.6598 1.2782.036.171.0813.3664.2705.4614z" fill="#b0bd68"/><path d="m23.4612 98.0447c-.7738-.7088-1.1656-1.6414-1.3993-2.6204-.2799-1.1722-.4798-2.3662-.659-3.5591-.2115-1.4074-.1015-2.8277-.0469-4.2412.0268-.6938.2042-1.3829.218-2.076.0184-.9219.2454-1.8208.2386-2.7414.5622-1.3712 1.0268-2.7787 1.5942-4.1497.894-2.1602 1.7949-4.3136 2.916-6.3683 1.079-1.9776 2.2395-3.9017 3.6714-5.6503.2375-.29.4511-.5996.6756-.9001.0385.0391.077.0782.1156.1173-1.2875 2.1684-2.6708 4.2817-3.7556 6.5664-1.1503 2.4227-2.2062 4.8829-3.1763 7.3855-1.1153 2.8772-1.4758 5.8485-1.4232 8.8997.0311 1.8036.2348 3.5839.7803 5.3079.2825.8927.655 1.7538 1.2888 2.4694.1487.1679.2302.2386-.0301.4488-.3831.3092-.83.6006-1.0081 1.1115z" fill="#e1e3a3"/><path d="m77.6169 82.4795c.048.5546.1036 1.1087.1389 1.664.0095.1486-.1249.1644-.2098.0835-1.0822-1.0321-2.5155-1.2171-3.8634-1.5978-2.171-.6132-4.4037-.598-6.6205-.4775-1.0793.0586-2.1879.104-3.2444.4318-.0583.0181-.1292-.0041-.283-.0122.3045-.258.6059-.3511.8894-.4535 1.7255-.6232 3.1369-1.7152 4.4885-2.9174.4783-.4254.8303-.9492 1.2776-1.3931.2129-.2112.2701-.4973.1811-.7422-.0967-.2662-.3626-.3938-.6683-.3877-.9678.0193-1.8803.3277-2.8013.565-1.8052.4651-3.5681 1.0646-5.2575 1.8632-.5875.2777-1.173.5596-1.756.8466-.1406.0692-.2745.1713-.4233.048-.1428-.1183-.0872-.2764-.0586-.4296.1479-.792.2864-1.5839.072-2.3888-.0445-.1672-.0586-.3714.1516-.4362.2545-.0784.3035.1423.3754.3175.1641.4003.2517.8191.2828 1.2471.0174.24.0875.2937.3162.1962 1.1487-.4897 2.3151-.9395 3.4509-1.457 1.6493-.7514 3.3822-1.1772 5.1644-1.4336.3716-.0535.7487-.071 1.1236-.099.5597-.0418.9784.2826 1.3876.5838.2048.1507.1881.4141.1037.6649-.2185.6491-.5547 1.2148-1.1014 1.6395-.9463.7352-1.8991 1.4621-2.8407 2.2033-.2638.2076-.4979.453-.8281.7572.5672.005 1.0103.0389 1.4639.0317 2.2127-.0349 4.3844.1746 6.455 1.0684.7085.3058 1.3574.7029 2.0376 1.0504.1118.0571.2267.2109.3641.0921.0938-.0811.0629-.222.0373-.3421-.0593-.278.0165-.5386.1947-.7865z" fill="#767b51"/><path d="m73.7673 30.9695c.3636-.881-.1756-1.3699-.7945-1.8208-.6304-.4594-1.3741-.6863-2.0788-.9894-1.084-.4663-2.043-1.1734-3.1429-1.6056-.0894-.1691-.2946-.1632-.42-.2777-.154-.1405-.454.0005-.5229-.3511-.0918-.4684-.2606-.9196-.1035-1.4019.0577-.1771.192-.2129.3112-.0909 1.0285 1.0527 2.4308 1.2434 3.7467 1.6133 1.925.5411 3.8204 1.1378 5.4349 2.3761.3787.2905.7233.6268 1.0174 1.0089.2174.2825.1504.5113-.1395.6789-.5593.3232-1.1394.5986-1.7928.6716-.5059.0565-.9975.2277-1.5153.1886z" fill="#b1d8d1"/><path d="m56.6922 31.6123c-.1892-.095-.2345-.2903-.2706-.4613-.1035-.4904-.4238-.8609-.6598-1.2782.4061-.1231.1679-.2799.0125-.4096-.3818-.3187-.6574-.7261-.9666-1.1073-.2878-.3548-.1552-.4645.2274-.5447.4466-.0937.8834-.2365 1.3211-.3691.1584-.048.3449-.0975.2799-.3405.4594-.3121.9797-.3451 1.5106-.3297-.0592.2062.0617.3261.2316.2966.8972-.1558 1.4924.3691 2.0964.9032-.0967.1273-.3124-.09-.3731.1024-.0531.1683.1128.2287.2096.3175.0622.0571.1377.1054.1077.209-1.1468.1025-1.6083.5401-1.5481 1.468-.4534.2607.0298.33.0988.4839-.1908.1543-.2187.37-.2244.5943-.3934-.149-.3057.1122-.2463.3069.1182.3875.3525.7197.6207 1.1001-.797.0128-1.3577-.3575-1.8814-.7816-.1779-.1441-.3322-.2134-.546-.1599z" fill="#b1d8d1"/><path d="m96.3018 75.0105c.3058-.4244.3917-.9298.5337-1.4166.0611-.2095.033-.5056.3658-.542-.2588 1.7145-.2181 3.4376-.1482 5.1616.0316.7797.0938 1.5569-.107 2.3307-.1189.4584-.3415.7677-.8956.8713.3017-2.1451.4047-4.2714.2513-6.405z" fill="#b1d8d1"/><path d="m115.4815 108.4235c1.8357-1.1003 3.7042-1.6092 5.7396-1.4432-1.7755.8849-3.6978 1.1763-5.7396 1.4432z" fill="#767b51"/><path d="m22.3722 71.3092c1.2189-.2293 2.3579.064 3.4917.4526-.009.0352-.0127.0858-.0341.1272-.1558.3009-.2466.7343-.4935.8603-.2268.1158-.5285-.2715-.8037-.4247-.6966-.3878-1.3834-.7894-2.1604-1.0154z" fill="#b0bd68"/><path d="m85.6003 29.5629c.6765-.1032 1.3599-.0807 2.0404-.1122.5342-.0248.8022.4539 1.1973.6209-1.0242-.1256-2.0335-.6604-3.1379-.3324-.0332-.0588-.0665-.1175-.0998-.1763z" fill="#161717"/><path d="m46.9539 88.0222c-.0103-.5809.7416-1.2979 1.3308-1.2885.0908.0014.1805.0086.18.1201-.0004.0929-.0636.1436-.1642.1518-.4129.0337-.7044.1455-.4746.6595.0644.1439-.5374.7615-.6888.7186-.1826-.0517-.1323-.2457-.1832-.3615z" fill="#c19853"/><path d="m69.659 69.9626c1.2132.2698 2.2923.8523 3.3679 1.4481-1.1661-.4326-2.3042-.9367-3.4988-1.2863.0437-.054.0873-.1079.1309-.1618z" fill="#5f6065"/><path d="m30.7853 65.8555c-.0386-.0391-.0771-.0781-.1156-.1173l.7326-1.1229c-.0006.5353-.3107.8867-.617 1.2402z" fill="#b0bd68"/><g fill="#b1d8d1"><path d="m94.6373 68.4377c.0059.4694.0167.9389.0157 1.4082-.0005.2467-.0587.4293-.3453.2009.2714-.1962.231-.4924.2558-.7724.0246-.2789-.0799-.5696.0738-.8367z"/><path d="m90.7393 70.3622c-.1995.3292-.5354.4678-.8629.6178.225-.2936.482-.5422.8629-.6178z"/><path d="m55.273 29.5318c-.2974-.0463-.4658-.2252-.5278-.5134.2353.1101.4068.2858.5278.5134z"/><path d="m91.3547 69.962c-.118.1957-.2735.3286-.5193.3103.1028-.221.3162-.2571.5193-.3103z"/><path d="m55.6997 29.8493c-.2146-.0127-.3467-.1393-.4406-.3189.2443-.0283.3486.1367.4406.3189z"/></g><path d="m44.4108 90.5872c.0993-.0535.1772-.1602.361-.1176-.0969.0898-.1736.1608-.2502.2319-.0369-.0381-.0739-.0762-.1108-.1143z" fill="#b1bd68"/><path d="m60.6135 28.7099c-.0863-.0051-.1781.0007-.212-.1077.1236-.0684.1607.0335.212.1077z" fill="#b1d8d1"/><path d="m90.8459 70.2654c-.0375.0369-.0751.0739-.1126.1108.0376-.0369.0751-.0739.1126-.1108z" fill="#b1d8d1"/><path d="m91.4416 69.8967c-.029.022-.058.044-.087.066.029-.0221.058-.044.087-.066z" fill="#b1d8d1"/><path d="m67.0662 26.6798c-.0149-.0364-.0297-.0728-.0446-.1092.0381.0084.0761.0168.1143.0249-.0232.0279-.0465.0561-.0697.0843z" fill="#b1bd68"/><path d="m54.6473 28.9273c-.0347-.035-.0694-.0699-.104-.1048.0348.0349.0694.0698.104.1048z" fill="#b1d8d1"/><path d="m54.7505 29.0279c-.0372-.0378-.0743-.0755-.1116-.1133.0372.0378.0744.0756.1116.1133z" fill="#b1d8d1"/><path d="m57.5999 89.0548c-.1285.6465-.6695.9646-1.0945 1.3751-.2497-.1414-.5214-.0454-.7813-.0637-.6752-.0476-1.2874-.1767-1.6103-.8714-.3513-.7558-.2943-1.483.2335-2.1161.4573-.5485 1.0882-.9384 1.8053-.7292.6253.1825 1.0676.6375 1.2148 1.3803.066.3324-.157.7644.2325 1.025zm-1.492-.7668c-.1527-.0136-.3063-.0455-.4578-.0375-.4794.0252-.7514.3531-.6833.8234.0597.4124.3019.651.7254.6413.2765-.0063.6796.02.3055-.4507.0513-.0308.0996-.0805.1544-.0893.2658-.0425.335-.2632.4341-.4587.017-.3398-.1886-.4311-.4783-.4285z" fill="#c19853"/><path d="m57.5999 89.0548c-.3895-.2606-.1665-.6926-.2325-1.025-.1473-.7429-.5895-1.1978-1.2148-1.3803-.7171-.2092-1.3481.1806-1.8053.7292-.5277.633-.5848 1.3602-.2335 2.1161.3229.6947.9351.8238 1.6103.8714.2599.0183.5316-.0777.7813.0637-.3911.2251-.8186.3512-1.2617.3883-.9019.0756-1.6315-.3694-2.0144-1.1927-.5083-1.093-.3908-1.974.3648-2.7351 1.0519-1.0597 2.5991-1.1482 3.7011-.2212.4319.3634.6072.8055.4836 1.3593-.0756.3394.0786.7188-.1789 1.0263z" fill="#0d0e0d"/><path d="m33.8883 102.2398c-.6743.0002-1.167-.3276-1.3751-.8748-.183-.4812-.0423-.9075.3044-1.2655.8212-.8479 1.8157-1.3721 2.981-1.5706.1382-.0235.2819-.0664.3418.114.0619.1864-.0891.2478-.2143.2854-.3258.0978-.6676.1486-.9852.2663-.8737.3239-1.1394 1.2375-.5986 1.9997.1633.2301.3874.319.6669.2909.4055-.0407.8117-.0738 1.2175-.1108.0866-.0079.1813-.0197.2161.0822.0387.1132-.0556.1458-.1363.1678-.8382.2293-1.6702.4843-2.4182.6154zm.3706-.4481c-.1691-.1836-.3094-.3216-.4318-.4739-.0931-.1158-.0896-.367-.3457-.2145-.1357.0808-.3937.0267-.4049.2181-.0109.1868.2011.2977.3523.4008.2412.1645.509.1375.8301.0695z" fill="#0d0e0d"/><g fill="#161717"><path d="m94.8321 51.2574c.5897-.7789 1.2176-1.4218 1.8217-2.0857.2378-.2614.3599-.5588.4005-.9157.0965-.8464.5508-1.5638.9035-2.3145.0893-.19.2323-.3792.4491-.4725.2145.1944.126.4127.0484.6172-.7594 2.0033-1.5816 3.9647-3.6232 5.1712z"/><path d="m99.1919 41.6708c.1245-1.7429-.1532-3.4006-1.0437-4.9285.047-.0167.094-.0334.141-.0501.357.0797.5991.2916.7445.6268.6132 1.4138.7917 2.8606.3412 4.3572-.061-.0018-.122-.0036-.183-.0054z"/><path d="m97.5162 35.6593c-.3553-.3984-.541-.901-.8236-1.3445-.4811-.755-1.0035-1.4651-1.8275-1.8825-.1699-.0861-.3094-.1907-.2151-.3899.1008-.2129.2953-.1391.4463-.0657.956.4649 1.5296 1.2841 1.9676 2.2057.2186.4601.3618.956.5391 1.4357-.0289.0138-.0578.0275-.0868.0412z"/><path d="m94.5113 31.7823c-.3264.0201-.5156-.2404-.772-.3511-1.0499-.4534-2.1106-.8715-3.2696-.9536-.136-.0096-.2711-.0369-.4054-.0623-.1354-.0257-.2178-.1049-.189-.2504.0261-.132.1056-.1884.2536-.1947 1.2608-.0539 3.5875.9004 4.3824 1.8121z"/></g><path d="m99.1919 41.6708c.061.0018.122.0036.183.0053-.1139.6483-.2279 1.2965-.3418 1.9448-.0521-.0097-.1042-.0194-.1562-.0291.105-.6404.21-1.2807.315-1.921z" fill="#5f6065"/><path d="m98.2892 36.6922c-.047.0167-.094.0334-.141.0501-.1945-.2927-.4217-.566-.5366-.9059.0288-.0283.0575-.0566.0863-.0849.1973.3134.5081.5555.5913.9407z" fill="#5f6065"/><path d="m97.603 35.6181c.0315.0447.063.0894.0946.1338-.0286.0279-.0573.0562-.0861.0845-.069-.039-.1051-.0958-.0953-.1771.029-.0137.0579-.0274.0868-.0412z" fill="#5f6065"/><path d="m93.4168 53.4067c.0152-.0218.0305-.0435.0457-.0653.0061.0208.0123.0417.0184.0625-.0233-.0019-.0466-.0037-.07-.0057z" fill="#0d0e0d"/><path d="m58.9695 30.5524c-.069-.1539-.5523-.2232-.0988-.4839.7034.426 1.3769.9145 2.1157 1.2657 1.8584.8835 3.7418 1.7185 5.8245 1.9543-1.4945.1244-4.6136-.7633-7.8414-2.7361z" fill="#161717"/><path d="m56.5862 88.7165c-.099.1955-.1682.4163-.4341.4587-.0548.0088-.1031.0585-.1544.0893.3741.4707-.0291.4443-.3055.4507-.4235.0097-.6657-.229-.7254-.6413-.0681-.4703.2039-.7982.6833-.8234.1515-.008.3051.0239.4576.0374.0723.1913-.1487.2893-.1422.4357.2136.209.4098-.0517.6207-.0071zm-.5889.1822c-.0942-.0794-.1244-.105-.1547-.1305-.0268.0339-.072.0665-.0746.1022-.0022.0301.043.0878.0711.0903.0411.0037.0856-.0311.1582-.062z" fill="#0d0e0d"/><path d="m56.5862 88.7165c-.2108-.0447-.4071.2161-.6206.007-.0065-.1464.2145-.2444.1422-.4357.2898-.0024.4954.0889.4784.4287z" fill="#b1d8d4"/><path d="m34.2589 101.7917c-.3211.068-.5889.095-.8301-.0695-.1512-.1031-.3632-.214-.3523-.4008.0112-.1913.2691-.1372.4049-.2181.2561-.1525.2526.0987.3457.2145.1224.1524.2628.2903.4318.4739z" fill="#767b51"/><path d="m55.9973 88.8987c-.0726.0309-.1171.0656-.1583.062-.0281-.0025-.0733-.0602-.0711-.0903.0026-.0357.0479-.0683.0746-.1022.0304.0256.0607.0511.1548.1305z" fill="#b1d8d4"/></svg>