<svg enable-background="new 0 0 141.748 141.8301" viewBox="0 0 141.748 141.8301" xmlns="http://www.w3.org/2000/svg"><path d="m71.2195 0c-19.2211.2118-35.6665 6.6351-49.2953 19.6531-13.6402 13.0287-21.0334 29.1676-21.8479 48.0328-.8725 20.2076 5.738 37.857 19.7547 52.448 13.0028 13.5355 29.1028 20.8297 47.8712 21.6227 20.2092.8539 37.887-5.7345 52.4212-19.8091 14.7327-14.2668 21.9896-31.8902 21.6105-52.4564-.3523-19.1076-7.431-35.51-20.9602-48.9283-13.7514-13.6386-30.5353-20.3203-49.5542-20.5628z" fill="#fff"/><path d="m71.2195 0c19.019.2425 35.8029 6.9242 49.5542 20.5628 13.5292 13.4183 20.6079 29.8207 20.9602 48.9283.3791 20.5662-6.8778 38.1896-21.6105 52.4564-14.5342 14.0746-32.2119 20.663-52.4212 19.8091-18.7684-.793-34.8683-8.0872-47.8712-21.6227-14.0167-14.591-20.6272-32.2404-19.7547-52.448.8145-18.8652 8.2077-35.0041 21.8479-48.0328 13.6288-13.018 30.0742-19.4413 49.2953-19.6531zm28.0504 131.6072c2.0196-.9361 3.9815-1.9805 5.8897-3.1268 4.1917-2.5182 8.0739-5.4444 11.5998-8.8347 1.6777-1.6132 3.2876-3.2902 4.793-5.0708 1.5235-1.802 2.9653-3.6626 4.332-5.5843.108-.1518.1075-.2695.0502-.4176.3396-.1242.3701-.5132.6156-.7181.3134-.0636.3151-.3824.4475-.5811 1.0301-1.5465 2.001-3.1351 2.8309-4.7949 1.3131-2.6258 2.5957-5.2682 3.625-8.0258.9138-2.4481 1.7333-4.9245 2.3593-7.4611.5482-2.2216.9364-4.4722 1.2486-6.7415.2792-2.0297.5109-4.0674.5562-6.1058.0649-2.9217.1151-5.8482-.1566-8.772-.1546-1.6639-.3107-3.328-.5578-4.9775-.5779-3.8575-1.535-7.6218-2.845-11.3022-1.488-4.1802-3.3609-8.1732-5.5714-12.0158-2.6525-4.6111-5.9224-8.7531-9.5713-12.603-1.8737-1.977-3.9253-3.7689-6.0252-5.5012-3.1921-2.6334-6.6446-4.8865-10.2847-6.8418-3.3422-1.7953-6.8065-3.3312-10.4021-4.5544-3.8882-1.3227-7.8585-2.2836-11.9419-2.7975-2.0142-.2535-4.0324-.5184-6.0533-.5631-2.9387-.0651-5.8817-.111-8.8234.1525-2.3117.2071-4.6155.4581-6.8959.8674-5.525.9915-10.7985 2.7854-15.8689 5.1741-2.0718.976-4.0896 2.0584-6.0686 3.2197-4.4703 2.623-8.4867 5.8298-12.2281 9.3912-2.0595 1.9605-3.9215 4.1088-5.7125 6.3168-2.5636 3.1605-4.7562 6.5669-6.6609 10.157-1.369 2.5804-2.5998 5.2272-3.6311 7.9644-.9091 2.413-1.7159 4.8587-2.3345 7.3617-.6844 2.7694-1.146 5.5778-1.4592 8.4155-.1685 1.5264-.339 3.057-.3656 4.5847-.0634 3.6396-.0991 7.2819.3756 10.9086.2101 1.6056.4098 3.2113.6936 4.8055.5851 3.2864 1.4928 6.4854 2.6256 9.6221.7533 2.086 1.5847 4.1405 2.5456 6.1404 1.3342 2.7766 2.8148 5.4691 4.4776 8.0667 1.9914 3.1109 4.2877 5.9787 6.7614 8.7084 1.1369 1.2546 2.3193 2.466 3.5745 3.6116 1.5938 1.4546 3.2203 2.8661 4.9139 4.2005 2.5195 1.9852 5.2103 3.7165 8.0047 5.2832 2.042 1.1449 4.1443 2.1736 6.289 3.1178 1.7492.7701 3.5282 1.4641 5.3354 2.0747 1.256.4244 2.502.9132 3.8259 1.097.0427.0101.0855.0201.1282.0301.2225.1306.4643.204.7143.2662 4.6434 1.157 9.36 1.8222 14.1371 2.0208 7.5807.3151 15.0046-.6381 22.2539-2.8923 1.4365-.4467 2.8765-.8904 4.2495-1.5174 1.4539-.4605 2.8207-1.1294 4.2044-1.7579z" fill="#5f6065"/><path d="m53.5872 135.4566c-1.3287-.1824-2.5746-.6712-3.8306-1.0956-1.8072-.6107-3.5862-1.3046-5.3354-2.0747-2.1446-.9442-4.2469-1.9729-6.289-3.1178-2.7944-1.5667-5.4852-3.298-8.0047-5.2832-1.6936-1.3345-3.3202-2.7459-4.9139-4.2005-1.2552-1.1456-2.4375-2.3571-3.5745-3.6116-2.4737-2.7297-4.7699-5.5975-6.7614-8.7084-1.6629-2.5976-3.1435-5.2901-4.4776-8.0667-.961-1.9999-1.7923-4.0544-2.5456-6.1404-1.1328-3.1368-2.0405-6.3358-2.6256-9.6221-.2838-1.5942-.4835-3.2-.6936-4.8055-.4747-3.6267-.439-7.2691-.3756-10.9086.0266-1.5277.1971-3.0583.3656-4.5847.3132-2.8377.7748-5.6462 1.4592-8.4155.6185-2.503 1.4253-4.9487 2.3345-7.3617 1.0313-2.7371 2.2621-5.3839 3.6311-7.9644 1.9047-3.5901 4.0972-6.9965 6.6609-10.157 1.791-2.208 3.653-4.3564 5.7125-6.3168 3.7413-3.5614 7.7578-6.7682 12.2281-9.3912 1.979-1.1612 3.9969-2.2436 6.0686-3.2197 5.0704-2.3887 10.3439-4.1826 15.8689-5.1741 2.2804-.4092 4.5842-.6603 6.8959-.8674 2.9417-.2635 5.8847-.2176 8.8234-.1525 2.0209.0447 4.0391.3096 6.0533.5631 4.0834.5139 8.0537 1.4748 11.9419 2.7975 3.5955 1.2231 7.0599 2.759 10.4021 4.5543 3.6401 1.9553 7.0926 4.2084 10.2847 6.8418 2.0999 1.7324 4.1514 3.5242 6.0252 5.5012 3.6489 3.8499 6.9188 7.992 9.5713 12.603 2.2105 3.8426 4.0835 7.8356 5.5714 12.0158 1.3101 3.6804 2.2672 7.4448 2.845 11.3022.2471 1.6495.4032 3.3135.5578 4.9775.2717 2.9237.2214 5.8503.1566 8.772-.0453 2.0384-.2769 4.0761-.5562 6.1058-.3122 2.2693-.7003 4.5199-1.2486 6.7415-.626 2.5366-1.4455 5.013-2.3593 7.4611-1.0293 2.7576-2.3119 5.4-3.625 8.0258-.83 1.6597-1.8009 3.2483-2.8309 4.7949-.1324.1987-.1341.5175-.4475.5811-.2989-.9165-.5463-1.854-.9105-2.7437-.3969-.9696-.7067-1.9629-1.0166-2.9591.0285-.0227.057-.0454.0855-.0681.0392.0312.0837.0576.1166.0943.3067.3419.5958.7016.9234 1.0219.1602.1567.391.3287.6331.172.2182-.1412.1692-.3877.1152-.6086-.065-.2659-.101-.5443-.2045-.7946-.8859-2.1433-1.6235-4.3427-2.6482-6.4349-1.624-3.3158-3.5248-6.476-5.2883-9.7129-.6624-1.2158-1.502-2.3164-2.2773-3.4591-1.6782-2.4738-3.4734-4.8615-5.2887-7.2345-1.2122-1.5847-2.2334-3.2671-2.7921-5.2026-.0586-.203-.093-.3396.1081-.4795.6016-.4184 1.174-.8813 1.7907-1.2752 2.2964-1.4668 3.9592-3.5027 5.1758-5.8938.7293-1.4334 1.4081-2.8968 1.9968-4.4041.5362-1.373 1.0117-2.7505 1.3178-4.1908.4462-2.1001.8551-4.2069 1.1331-6.3364.2041-1.5637.5659-3.0783 1.2925-4.4889.1425-.2766.2186-.567.2764-.8711.3029-1.5922-.5174-3.273-1.9438-4.0585-.2808-.1546-.6416-.1658-.869.0255-.5868.4935-1.2354.8852-1.8879 1.2719-.8663.5134-1.7802.9524-2.6167 1.5089-1.9842 1.3201-4.064 2.4762-6.1287 3.6581-1.6843.9642-3.4093 1.8578-5.0845 2.8372-1.4559.8512-2.8663 1.7799-4.1735 2.8542-.2361.194-.479.3798-.7169.5716-.1344.1084-.2431.1386-.3917-.0074-.4421-.4342-1.0146-.6838-1.5286-1.0128-1.3812-.8842-2.8584-1.5981-4.3193-2.341-1.9726-1.0031-4.0152-1.7881-6.2019-2.1766-.31-.0551-.7217-.0812-.8924-.2839-.8355-.9923-1.9834-1.413-3.1293-1.8534-.1247-.0479-.2166-.1143-.2355-.2425-.1562-1.0606-.6594-2.0025-1.0054-2.9988-.6245-1.7985-1.4436-3.5078-2.2917-5.2042-.8854-1.7709-1.8705-3.4885-2.8338-5.2184-.9032-1.622-1.7739-3.2747-2.4413-5.0108-.4738-1.2326-1.139-2.3679-1.6476-3.5812-.4238-1.0111-.8611-2.0283-1.5963-2.8773-.2113-.244-.3679-.3686-.7275-.2331-.7459.2811-1.2993.8084-1.8106 1.3618-.7269.7867-1.2642 1.7155-1.776 2.6595-.911 1.6804-1.7015 3.4141-2.3587 5.2063-.7832 2.1359-1.3461 4.3327-1.7308 6.5757-.1821 1.0615-.4152 2.123-.33 3.2028.0372.4716-.0814.7956-.4261 1.0795-.5074.418-.8028 1.0152-1.2437 1.4905-.1215.131-.1973.2995-.1149.4731.332.7001.3049 1.4907.5645 2.205.1403.3859.0428.6861-.1635 1.0091-.5164.8088-.813 1.6807-.6284 2.6564.0454.2398-.1093.2896-.265.3653-.4445.2163-.8821.4474-1.331.6543-2.0884.9626-4.1112 2.0511-6.1473 3.1177-1.2846.673-2.5835 1.3898-4.0758 1.5861-.3053.0402-.63.0727-.9308.2324-.3334.177-.5255.3116-.2083.6723.1746.1986.1886.4419.1676.7184-.1172 1.5417-.5278 3.0096-1.0416 4.4568-.0429.1208-.0727.2314-.1971.2729-.4662.1557-.9277.3292-1.434.3129-.2619-.0084-.4191-.0988-.5605-.3456-.3322-.5802-.3892-1.226-.5307-1.8528-.031-.1373.0423-.3689-.1881-.3339-.1978.03-.194.2247-.1664.4154.0338.2334.0336.477.0099.7124-.1098 1.0885.6039 2.4552 1.5823 2.8645.3573.1495.3615.2706.1891.5452-.7424 1.1826-1.4667 2.3775-2.4446 3.3905-.0991.1026-.212.1719-.3477.2051-1.011.247-1.9876.6065-2.9547.978-2.3696.9105-4.5502 2.2028-6.7644 3.4265-1.283.709-2.5499 1.4631-3.8873 2.0535-1.5213.6716-3.0448 1.3527-4.6448 1.843-1.023.3135-2.0295.6716-2.9997 1.1577-1.4887.7458-3.1063 1.1912-4.5887 1.9933-1.4448.7818-2.6142 3.2357-1.1317 4.8156.069.0736.2334.1254.0951.2754-.4093.4443-.4636 1.0499-.7065 1.5704-.4106.8802-.4474 1.8413-.4345 2.7856.0153 1.1181.3778 2.1721.822 3.1885.2459.5627.4758 1.1576.8445 1.6367 1.2004 1.5597 2.3518 3.1532 3.4089 4.8108.3304.5181.7341.9205 1.2743 1.1256.6272.2382.7593.6837.7978 1.2647.0296.4459.2308.8468.5921 1.1266 1.3253 1.0262 2.926 1.5631 4.3457 2.4299 1.2076.7373 2.5366 1.2518 3.8383 1.815 1.0829.4685 2.2039.8161 3.3133 1.1882 1.0098.3387 2.0914.4492 3.1597.5358 2.6695.2166 5.1589-.259 7.3412-1.9233.3781-.2883.7052-.6415 1.1376-.8635.8333-.4279 1.6626-.8472 2.5705-1.1179 2.126-.634 4.2802-1.1123 6.4872-1.3457.2117-.0224.3696.0514.5483.1924.5395.4255.9897.9294 1.4565 1.4282 1.1191 1.1959 2.0544 2.5101 2.8115 3.9606.8527 1.6335 1.5666 3.3252 2.1606 5.0669.236.6919.4432 1.3965.612 2.1075.1816.765-.2815 1.4125-.4641 2.112-.3712 1.422-.8795 2.7978-1.3839 4.1748-.8295 2.2645-1.5287 4.566-2.0819 6.915-.2221.9431-.3111 1.9202-.6795 2.8264-.0663.163-.1728.3166-.0401.4688.1361.1561.3144.2239.5433.2298.4444.0116.4201-.4401.6694-.6116.0378.0305.0755.061.1133.0915-.0174.2581-.1105.4945-.1946.7362-.4633 1.3318-1.1236 2.5772-1.6859 3.8654-.4276.9797-.954 1.9119-1.3968 2.8862-.1806.399-.2934.5842.1957.7136z" fill="#dde3af"/><path d="m95.0656 133.3652c-1.3732.627-2.8131 1.0708-4.2497 1.5174-7.2492 2.2542-14.6731 3.2074-22.2539 2.8923-4.7771-.1985-9.4937-.8638-14.1371-2.0208-.25-.0623-.4918-.1356-.7132-.262.4048.0557.4076-.3123.5133-.5269.7759-1.5742 1.5526-3.1487 2.2861-4.7429.7235-1.5725 1.468-3.1383 1.9302-4.8192.0755-.2745.1082-.4654-.1547-.6002-.2952-.1515-.6206-.1624-.8419.098-.1139.134-.2195.2431-.373.3145-.0305-.0313-.061-.0626-.0915-.0938.0215-.5884.2352-1.1359.3639-1.7014.401-1.7621.8309-3.5151 1.5101-5.1973.3951-.9785.7424-1.9766 1.1538-2.9479.2293-.5413.386-1.1081.6258-1.7408.1042.3952.1765.699.2667.9974.0354.117.1247.2256.2663.1762.1298-.0453.0678-.1711.0605-.2659-.0972-1.2582-.081-2.5204-.2878-3.7761-.3868-2.3486-1.1249-4.5631-2.2578-6.6544-.6748-1.2457-1.3509-2.4883-2.2595-3.626 1.2246.1028 2.2018.4252 3.0747 1.0219 1.9179 1.3112 3.7089 2.7836 5.4576 4.3096.913.7967 1.8508 1.562 2.8484 2.252.0999.0691.196.1739.3011.0327.0581-.078-.0006-.1533-.07-.2173-1.0239-.9435-2.0509-1.8838-3.0656-2.8372-.4104-.3856-.8805-.6965-1.2759-1.1035-.9506-.9784-1.9467-1.9238-3.0627-2.7008-1.0897-.7586-2.0487-1.6864-3.1875-2.376-.2058-.1246-.2146-.4024-.1886-.6053.0314-.2443.2592-.1198.417-.1173.3698.006.7403-.0113 1.1094.0054.2387.0108.3365-.1043.3979-.3096.0697-.2329-.042-.3642-.2322-.4454-.2311-.0987-.4592-.1964-.727-.1855-.7914.0323-1.5839.0664-2.3756.0607-2.2193-.0158-4.4021.3355-6.5918.6232-1.7614.2315-3.472.6876-5.1609 1.218-.8249.2591-1.6864.4921-2.2017 1.31-.572.9078-1.4603 1.4386-2.4364 1.758-1.5274.4999-3.1192.6748-4.7243.5762-.6381-.0392-1.2776-.1208-1.911-.2715-1.3554-.3224-2.6006-.9394-3.9102-1.3813-.788-.2659-1.5985-.4955-2.3409-.8597-1.468-.7202-2.9214-1.4794-4.324-2.3176-.4119-.2462-.8989-.3965-1.2441-.7597-.095-.0999-.2358-.2128-.1704-.3428.0752-.1494.2277-.0642.3579-.0142.6206.2387 1.2542.447 1.8614.7154.1797.0795.4235.1179.4642.0344.2025-.4159.4472-.1262.6499-.0577.3362.1136.6479.2998.9841.4137.2452.0831.5888.3972.7311.1575.1662-.2798-.3203-.3406-.4746-.541-.0201-.0262-.0539-.0418-.0814-.0623.2761-.3407.7721-.2474 1.0711-.5428.2311.0579.4674.1005.6925.1762.9533.3208 1.9601.4445 2.9377.4997 1.2187.0689 2.4558-.1069 3.6796-.2305 1.2466-.126 2.3628-.6198 3.3641-1.3709.0801-.0601.1498-.1239.1786-.2371.1593-.6272.4408-1.2095.6749-1.8095.0803-.2059.1505-.2797.4069-.2356.5167.0889 1.0465.1041 1.5714.1418.1091.0079.2572.0622.3097-.0899.0541-.1567-.0627-.2462-.1745-.3352-.481-.3827-1.0198-.6077-1.6395-.6305-.2022-.0074-.4151.0117-.5863-.1322-.279-.2344-.5917-.0535-.884-.0554-.1527-.001-.2791.179-.3249.3602-.0497.1965.084.3033.2191.3603.265.112.2702.2876.1445.4847-.3921.6148-.782 1.2373-1.4221 1.6345-.614.381-1.3309.4672-1.9976.6936-1.6419.5575-3.2875.5635-4.9351.1981-1.0908-.2419-2.1539-.622-3.2147-.9833-1.5117-.5148-2.8347-1.3879-4.1357-2.2885-1.1096-.7681-2.2867-1.2218-3.6412-.8068-.335.1026-.4005-.1015-.4948-.281-.5712-1.0871-1.307-2.0737-1.9173-3.1336-.8255-1.4339-1.4825-2.9426-1.4839-4.6493.0666-.002.1333-.004.1999-.0061.0505.5962.1794 1.1916.4248 1.7201.3978.8567 1.0604 1.5421 1.799 2.1196.6791.531 1.3883 1.0402 2.3359.9941.397-.0193.767.0555 1.12.3387 1.3708 1.0996 2.9169 1.3368 4.5974.8366.8721-.2596 1.6496-.7021 2.4199-1.1624.7247-.433 1.2424-1.0434 1.4968-1.8602.4297-.1865.6501-.5805.9185-.9268.204.0495.3433-.1121.5177-.1587 1.3196-.3528 2.01-1.0914 2.1237-2.4338.0572-.6753.1948-1.3333.2731-2.0021.0723-.6176.3641-1.1148.8603-1.491.0952-.0007.1402-.0528.1469-.1439.018-.028.0437-.0427.0769-.0443.6007-.2564 1.2148-.4565 1.8783-.451.8241.0787 1.5988.344 2.3668.632 1.3589.5097 2.5778 1.1998 3.2986 2.5423.0747.1392.196.3345.3977.2237.1685-.0925.0758-.2723.0307-.4173-.0153-.0491-.0263-.1007-.0497-.1458-.396-.7616-.4579-.6718.3192-1.4089.1362-.1292.2839-.2473.4323-.3626 1.0454-.8122 2.2304-1.3977 3.3566-2.0799 2.3516-1.4244 4.7588-2.7095 7.4459-3.3944.2355-.06.5256-.0362.6884-.2881.436-.0669.8712-.1395 1.3082-.1995 1.2595-.173 2.5354-.1135 3.7949-.2582.3257-.0374.7803.0474.9391-.4256.2781-.7618.1196-1.4001-.4268-2.018-.9477-1.0716-2.0855-1.8679-3.3573-2.4809-.4659-.2245-.4743-.4729-.1922-.8257.4158-.5199.8133-1.0571 1.2613-1.5479.387-.424.616-.9823 1.1191-1.304.2536.0606.3943-.0725.4635-.2915.8278-2.6185 2.0953-5.0735 2.8665-7.7116.13-.4447.3147-.4756.7165-.3311 1.111.3995 2.0157 1.139 2.9921 1.7581.1665.1056.2863.2122.4924.1664.7526-.1673 1.5097-.248 2.282-.1438 1.8418.2484 3.5536.7912 5.1384 1.8264 1.0382.6782 1.8533 1.5548 2.7105 2.4045.5574.5525 1.0414 1.1742 1.3871 1.8904.0588.1219.1733.2361-.0111.3408-.7295.4146-1.4782.8832-2.3314.8296-1.4844-.0932-2.7103-.7967-3.7346-1.8699-1.1073-1.16-2.3715-1.9871-4.0767-1.7989-.1774.0196-.3387-.0028-.4968-.0822-.6641-.3334-1.2817-.2628-1.9722.036-1.1586.5014-2.0087 1.3425-2.7486 2.2945-.8512 1.0949-1.5771 2.2829-2.2907 3.4753-.5045.8431-.5111 1.0087.069 1.8101.2222.307.4213.3584.6917.0594.5861-.648 1.2534-1.1969 1.9828-1.684.2953-.1972.4643-.1826.6153.0913.2174.3944.5892.5898.9366.8354.512.3619 1.2483.3712 1.5826 1.0149.0389.0749.1684.1221.2648.1448 1.1122.262 2.2086.1745 3.2228-.3347 1.1236-.5641 2.0166-1.3861 2.4326-2.6296.0959-.2866.2517-.4566.581-.2433.2024.1311.4352.1633.6851.1689 1.7378.0388 3.289-.5417 4.724-1.4528.3766-.2391.5797-.2358.7833.1402.0272.5271.257 1.03.1868 1.5687-.6318.257-1.2604.522-1.896.7691-1.1424.4441-2.2895.8761-3.4331 1.3171-.1341.0517-.3467.0592-.3172.2703.1372.9787-.5833 1.7281-.6878 2.6384-.0219.1913-.1366.2643-.2856.314-.9988.3329-1.9769.7386-3.0414.8363-1.231.113-2.465.3944-3.6575-.2385-.206-.1093-.5584-.2016-.7567.074-.1871.2599-.2075.5493-.0277.8642.541.9477.9052 1.9761 1.2104 3.0159.1356.4619.41.9055.3176 1.4322-.1372.7822-.2276 1.5727-.3703 2.3538-.3211 1.7575-.8983 3.4484-1.3774 5.1646-.2256.8082-.465 1.6136-.733 2.4086-.2595.7698-.5978 1.5141-.837 2.2894-.185.5999-.5362.9914-1.1049 1.2143-.2196.086-.5214.1383-.5053.4283.018.3259.011.721.3092.932 1.1327.8014 2.049 1.8359 3.0017 2.8192 1.4584 1.5054 2.8767 3.0488 4.4184 4.4717.355.3277.5093.2998.6942-.1473.1759-.4256.2449-.884.3818-1.3225.1452-.4652.017-.9289-.3538-1.3368-.3948-.4344-.8199-.8603-1.0783-1.4054.0285-.0319.057-.0637.0855-.0956.8882.216 1.6856.6577 2.5117 1.0249.4628.2057.7863.058 1.045-.3088.8744-1.2396 1.7694-2.4633 2.7427-3.6277 1.058-1.2656 2.229-2.4162 3.5162-3.4489.2449-.1965.4516-.4431.4087-.7764-.1657-1.2898-.1695-2.584-.1183-3.8786.0505-1.2782.1655-2.5502.634-3.7583.0491-.1267.04-.401.3181-.2663 1.2395.6006 2.6122.6946 3.9253.9957 1.973.4525 3.9809.737 6.0167.7565 1.2504.012 2.5.0569 3.746-.1014.351-.0446.64.0745.9321.3088.7548.6052 1.619 1.0956 2.5159 1.3873.8705.2831 1.7536.5596 2.638.8156.9847.2851 1.9659.6209 2.8299 1.162 1.7779 1.1136 3.1067 2.7101 4.3361 4.3743.7104.9617 1.2094 2.0523 1.6092 3.1898.1223.348.2132.6325.1189 1.0056-.3003 1.1883-.5593 2.3871-.8328 3.5821-.3568 1.5593-.4954 3.128-.1635 4.7095.0704.3355.1975.6592.3045 1.0078-.6414-.0798-1.3832-.5554-1.748-1.1021-.1497-.2244-.3514-.4379-.609-.3985-.271.0415-.5737.1621-.6524.4995-.1159.4971-.2967.9752-.348 1.4922-.1245 1.254.1031 2.4954.0949 3.7435-.004.6146.1649 1.2253.09 1.9034-.8468-.5623-1.5225-1.2068-2.2152-1.8265-.9997-.8944-2.118-1.6026-3.3145-2.1917-.697-.3432-.8043-.2622-1.158.3736-.6838 1.2292-.9547 2.582-1.2313 3.9308-.0932.4545-.2065.4661-.5293.2003-.9853-.8112-2.0072-1.4896-3.3601-1.6086-1.4265-.1255-2.8482-.2331-4.2809-.2701-2.325-.0601-4.6502-.1636-6.9711-.3142-1.4799-.0961-2.9643-.1835-4.4416-.2142-1.5609-.0324-3.1409-.0431-4.6973.2245-.1465.0252-.335-.0386-.3793.1653-.0485.2231.1654.2834.3022.3571.112.0603.262.0679.3951.068.7134.0003 1.4275-.0308 2.1402-.0106 1.4811.042 2.9617.1055 4.4422.1675 1.4961.0626 2.9964.0821 4.4864.2148 1.803.1605 3.599.407 5.3948.6404 1.6045.2085 3.1904.5125 4.7373 1.0039.8635.2743 1.6948.6211 2.5133 1.0052.5253.2466 1.0677-.0303 1.1005-.5664.0648-1.0599.273-2.0781.7759-3.0271.5594-1.0555.3753-1.358 1.5479-.2629-.2502.0619-.2196.297-.2489.4616-.3884 2.186-1.1562 4.2467-1.995 6.292-1.1518 2.8085-2.511 5.5113-4.0013 8.1514-.4961.8788-1.0325 1.7329-1.6283 2.548-.2699.3693-.2816.6478.098 1.0008.9408.8746 1.7472 1.8798 2.4908 2.9234.5813.8166 1.1284 1.6651 1.4896 2.6124zm-6.2707-10.2111c-.113-.4045-.0766-.6414-.0602-.8777.1125-1.6276.051-3.2331-.5674-4.7754-.136-.3392-.3332-.63-.5857-.8849-.0851-.0859-.1753-.2567-.3351-.1195-.1464.1257-.0235.261.0407.3666.6692 1.1008.8562 2.3168.8994 3.5772.0713 2.0788-.2399 4.1351-.3504 6.2031-.0708 1.3236-.2628 2.6407-.4011 3.9606-.0178.1695-.0715.407.1394.4318.2367.0279.1795-.2427.2054-.387.3533-1.9667.9597-3.8662 1.5551-5.7658.6219-1.9841 1.3836-3.9226 1.9826-5.9154.0553-.1839.0929-.3333-.0852-.4488-.2138-.1387-.2174.1478-.3519.1945-.0916.0318-.1539.1705-.2125.2712-.4039.6948-.7355 1.4253-1.0476 2.1646-.2618.62-.5131 1.2447-.8255 2.0049zm-50.8419-37.927c-.013-.7011-.6189-1.1739-1.1724-.9153-.43.201-.8419.4521-1.1949.8078-.3347.3373-.6109.7606-1.1322.9042-.2332.0642-.3001.3367-.1749.5896.1939.3918.7029.5716 1.0845.3363.6953-.4286 1.4365-.7663 2.1575-1.1436.2643-.1382.3964-.3564.4324-.579zm-1.1903 4.9365c.7771-.1019 1.5582-.1806 2.3298-.3142.489-.0847.6792-.3983.5735-.7974-.1594-.6019-.4995-.8662-.9834-.7634-.8846.188-1.7118.5487-2.5565.8554-.2846.1034-.3316.4997-.1048.6973.2134.1858.4377.3304.7414.3223z" fill="#faf5dc"/><path d="m28.1124 87.0862c-.2543.8168-.7721 1.4272-1.4968 1.8602-.7703.4603-1.5477.9028-2.4199 1.1624-1.6805.5002-3.2266.263-4.5974-.8366-.353-.2832-.723-.358-1.12-.3387-.9476.0461-1.6568-.4631-2.3359-.9941-.7386-.5775-1.4012-1.263-1.799-2.1196-.2454-.5285-.3743-1.1239-.4248-1.7201-.0511-.5607.0312-1.1059.1913-1.6421.0358-.0575.0719-.1149.1075-.1725.1862-.3017-.0217-.6516-.1837-.6971-.3123-.0876-.1725.308-.2769.4714-.0316.0494-.0155.1293-.0212.1952-.0986.6162-.1126 1.2332-.0168 1.8511.0014 1.7067.6584 3.2155 1.4839 4.6494.6102 1.06 1.3461 2.0465 1.9173 3.1336.0943.1795.1598.3837.4948.281 1.3545-.415 2.5316.0387 3.6412.8068 1.301.9006 2.6241 1.7736 4.1357 2.2885 1.0608.3613 2.1239.7413 3.2147.9833 1.6476.3654 3.2932.3595 4.9351-.1981.6667-.2264 1.3835-.3126 1.9976-.6936.6401-.3972 1.03-1.0197 1.4221-1.6345.1257-.1971.1205-.3727-.1445-.4847-.1351-.0571-.2688-.1639-.2191-.3603.0458-.1811.1722-.3612.3249-.3602.2923.0019.605-.1791.884.0554.1712.1439.3841.1248.5863.1322.6196.0228 1.1585.2478 1.6395.6305.1118.089.2286.1785.1745.3352-.0525.1521-.2006.0977-.3097.0899-.5249-.0378-1.0547-.0529-1.5714-.1418-.2564-.0441-.3265.0297-.4069.2356-.2341.6-.5156 1.1824-.6749 1.8095-.0287.1132-.0985.177-.1786.2371-1.0013.7511-2.1175 1.2449-3.3641 1.3709-1.2238.1236-2.4609.2994-3.6796.2305-.9776-.0553-1.9844-.1789-2.9377-.4997-.2251-.0758-.4614-.1184-.6925-.1762-.2227-.2042-.5164-.2663-.7864-.3543-.8798-.2868-1.7056-.6881-2.537-1.0878-1.1708-.5629-2.2341-1.3026-3.3547-1.947-.4329-.2489-.8855-.4444-1.4103-.3783-.1888.0238-.3177.0716-.2084.2801.2062.3932.4591.8099.8361.9994 1.1009.5531 2.2519 1.0054 3.368 1.5298 1.0176.4781 2.0151.999 3.0215 1.501.0275.0205.0613.0361.0814.0623.1542.2004.6407.2612.4746.541-.1423.2397-.4859-.0744-.7311-.1575-.3362-.1139-.6478-.3001-.9841-.4137-.2028-.0685-.4474-.3582-.6499.0577-.0407.0835-.2845.0451-.4642-.0344-.6072-.2685-1.2407-.4767-1.8614-.7154-.1302-.0501-.2828-.1353-.3579.0142-.0654.13.0754.2428.1704.3428.3452.3632.8322.5135 1.2441.7597 1.4026.8382 2.856 1.5974 4.324 2.3176.7424.3642 1.5529.5938 2.3409.8597 1.3095.4419 2.5548 1.059 3.9102 1.3813.6335.1507 1.273.2323 1.911.2715 1.605.0986 3.1969-.0763 4.7243-.5762.9761-.3195 1.8644-.8502 2.4364-1.758.5154-.8179 1.3769-1.0509 2.2017-1.31 1.6888-.5304 3.3994-.9865 5.1609-1.218 2.1896-.2877 4.3725-.639 6.5918-.6232.7917.0056 1.5842-.0284 2.3756-.0607.2678-.0109.4959.0868.727.1855.1902.0812.3019.2125.2322.4454-.0614.2053-.1592.3204-.3979.3096-.3691-.0168-.7396.0006-1.1094-.0054-.1577-.0025-.3856-.127-.417.1173-.0261.203-.0172.4807.1886.6053 1.1388.6897 2.0978 1.6174 3.1875 2.376 1.116.777 2.1121 1.7224 3.0627 2.7008.3954.407.8655.7179 1.2759 1.1035 1.0147.9534 2.0417 1.8936 3.0656 2.8372.0694.0639.128.1393.07.2173-.1051.1412-.2012.0364-.3011-.0327-.9976-.6899-1.9355-1.4553-2.8484-2.252-1.7486-1.526-3.5396-2.9984-5.4576-4.3096-.8729-.5968-1.8501-.9191-3.0747-1.0219.9086 1.1378 1.5847 2.3803 2.2595 3.626 1.1329 2.0914 1.871 4.3059 2.2578 6.6544.2068 1.2557.1905 2.5179.2878 3.7761.0073.0948.0694.2206-.0605.2659-.1417.0494-.231-.0591-.2663-.1762-.0901-.2984-.1625-.6022-.2667-.9974-.2398.6326-.3965 1.1994-.6258 1.7408-.4114.9713-.7588 1.9695-1.1538 2.9479-.6792 1.6822-1.1092 3.4352-1.5101 5.1973-.1287.5655-.3424 1.1129-.3638 1.7014-.082.0538-.0945.1411-.0296.1919.0432.0338.1046-.0324.1211-.0981.1535-.0715.2591-.1805.373-.3145.2213-.2603.5466-.2494.8419-.098.2628.1348.2301.3257.1547.6002-.4622 1.6809-1.2067 3.2467-1.9302 4.8192-.7335 1.5942-1.5102 3.1687-2.2861 4.7429-.1058.2146-.1086.5826-.5133.5269-.0438-.0143-.0865-.0243-.1269-.035-.4868-.13-.374-.3152-.1927-.7139.4428-.9742.9692-1.9065 1.3968-2.8862.5623-1.2883 1.2226-2.5336 1.6859-3.8654.0841-.2417.1772-.4781.1944-.7362.0025-.0425.0052-.0851.0079-.1276-.0404.012-.0807.0241-.1211.0361-.2493.1715-.2251.6232-.6694.6116-.2289-.006-.4072-.0738-.5433-.2298-.1327-.1522-.0262-.3058.0401-.4688.3684-.9062.4574-1.8833.6795-2.8264.5532-2.349 1.2524-4.6505 2.0819-6.915.5044-1.377 1.0128-2.7528 1.3839-4.1748.1826-.6995.6457-1.3471.4641-2.112-.1688-.7111-.376-1.4157-.612-2.1075-.5941-1.7417-1.308-3.4334-2.1606-5.0669-.7571-1.4505-1.6925-2.7647-2.8115-3.9606-.4668-.4988-.917-1.0027-1.4565-1.4282-.1788-.141-.3367-.2148-.5483-.1924-2.207.2333-4.3612.7116-6.4872 1.3457-.9079.2708-1.7372.69-2.5705 1.1179-.4324.2221-.7595.5752-1.1376.8635-2.1823 1.6643-4.6717 2.1399-7.3412 1.9233-1.0683-.0867-2.1499-.1972-3.1597-.5358-1.1095-.3721-2.2305-.7197-3.3133-1.1882-1.3017-.5632-2.6307-1.0777-3.8383-1.815-1.4197-.8668-3.0204-1.4037-4.3457-2.4299-.3613-.2797-.5625-.6806-.5921-1.1266-.0385-.581-.1706-1.0266-.7978-1.2647-.5401-.2051-.9439-.6075-1.2743-1.1256-1.0571-1.6577-2.2086-3.2511-3.4089-4.8108-.3687-.4791-.5987-1.074-.8445-1.6367-.4441-1.0163-.8067-2.0704-.822-3.1885-.0129-.9443.0238-1.9054.4345-2.7856.2428-.5205.2971-1.1262.7065-1.5704.1382-.1501-.0261-.2018-.0951-.2754-1.4825-1.5798-.3131-4.0338 1.1317-4.8156 1.4824-.8021 3.1-1.2475 4.5887-1.9933.9703-.4861 1.9767-.8442 2.9997-1.1577 1.6-.4903 3.1235-1.1714 4.6448-1.843 1.3374-.5904 2.6043-1.3444 3.8873-2.0535 2.2142-1.2237 4.3949-2.516 6.7644-3.4265.967-.3716 1.9437-.7311 2.9547-.978.1357-.0331.2486-.1024.3477-.2051.9779-1.013 1.7022-2.2079 2.4446-3.3905.1724-.2746.1682-.3958-.1891-.5452-.9784-.4093-1.6921-1.776-1.5823-2.8645.0237-.2354.0239-.479-.0099-.7124-.0276-.1908-.0314-.3854.1664-.4154.2304-.035.1571.1966.1881.3339.1415.6267.1985 1.2725.5307 1.8528.1413.2469.2986.3372.5605.3456.5062.0163.9677-.1571 1.434-.3129.1244-.0416.1542-.1521.1971-.2729.5138-1.4471.9244-2.9151 1.0416-4.4568.021-.2765.0071-.5199-.1676-.7184-.3173-.3607-.1251-.4953.2083-.6723.3008-.1597.6255-.1922.9308-.2324 1.4923-.1963 2.7912-.9131 4.0758-1.5861 2.036-1.0666 4.0588-2.1551 6.1473-3.1177.4488-.2069.8864-.4379 1.331-.6543.1557-.0758.3104-.1256.265-.3653-.1846-.9757.112-1.8477.6284-2.6564.2063-.323.3038-.6232.1635-1.0091-.2596-.7142-.2325-1.5049-.5645-2.205-.0823-.1736-.0066-.3421.1149-.4731.4409-.4753.7362-1.0725 1.2437-1.4905.3447-.2839.4633-.6079.4261-1.0795-.0852-1.0798.1479-2.1413.33-3.2028.3848-2.243.9476-4.4398 1.7308-6.5757.6572-1.7922 1.4477-3.5259 2.3587-5.2063.5118-.944 1.0491-1.8729 1.776-2.6595.5114-.5534 1.0647-1.0808 1.8106-1.3618.3596-.1355.5162-.0109.7275.2331.7352.8489 1.1725 1.8661 1.5963 2.8773.5085 1.2133 1.1737 2.3486 1.6476 3.5812.6674 1.7361 1.5381 3.3888 2.4413 5.0108.9633 1.7299 1.9484 3.4475 2.8338 5.2184.8481 1.6964 1.6672 3.4057 2.2917 5.2042.3459.9963.8492 1.9382 1.0054 2.9988.0189.1282.1108.1945.2355.2425 1.1459.4405 2.2938.8611 3.1293 1.8534.1707.2028.5825.2288.8924.2839 2.1867.3885 4.2293 1.1735 6.2019 2.1766 1.4609.7429 2.9381 1.4568 4.3193 2.341.514.329 1.0865.5786 1.5286 1.0128.1486.146.2573.1158.3917.0074.2379-.1918.4808-.3776.7169-.5716 1.3072-1.0742 2.7176-2.003 4.1735-2.8542 1.6751-.9793 3.4002-1.873 5.0845-2.8372 2.0647-1.1819 4.1445-2.338 6.1287-3.6581.8365-.5565 1.7504-.9955 2.6167-1.5089.6526-.3868 1.3012-.7784 1.8879-1.2719.2275-.1913.5882-.1802.869-.0255 1.4264.7855 2.2467 2.4664 1.9438 4.0585-.0578.3041-.134.5945-.2764.8711-.7266 1.4106-1.0884 2.9252-1.2925 4.4889-.278 2.1295-.6869 4.2363-1.1331 6.3364-.306 1.4402-.7815 2.8178-1.3178 4.1908-.5887 1.5073-1.2676 2.9708-1.9968 4.4041-1.2165 2.3911-2.8793 4.4269-5.1758 5.8938-.6168.3939-1.1891.8568-1.7907 1.2752-.2011.1399-.1667.2765-.1081.4795.5587 1.9355 1.5798 3.6179 2.7921 5.2026 1.8153 2.373 3.6105 4.7607 5.2887 7.2345.7752 1.1427 1.6149 2.2433 2.2773 3.4591 1.7635 3.2369 3.6643 6.397 5.2883 9.7129 1.0247 2.0922 1.7623 4.2917 2.6482 6.4349.1035.2503.1395.5287.2045.7946.054.2209.1029.4673-.1152.6086-.2421.1567-.4728-.0153-.6331-.172-.3276-.3203-.6167-.68-.9234-1.0219-.033-.0367-.0775-.0631-.1166-.0943-.0283-.0276-.0735-.0836-.0822-.0784-.0706.0421-.0355.0961-.0032.1466.3099.9962.6198 1.9896 1.0166 2.9591.3642.8897.6116 1.8273.9105 2.7437-.2455.2048-.276.5939-.6156.718-.2659-.7745-.4984-1.5625-.8046-2.3208-.6706-1.6609-1.3106-3.3378-2.2155-4.8929-.1442-.2478-.1915-.495.025-.7001.2032-.1924.4018-.3535.7648-.2298.3514.1198.5874.4043.9314.5051.0425.0065.085.0131.1275.0198-.0082-.0433-.0163-.0866-.0245-.1299-.7986-1.9-1.6048-3.7947-2.4902-5.6586-1.5864-3.3396-3.5295-6.4765-5.3484-9.6845-1.7814-3.1418-3.985-5.9968-6.1359-8.88-1.4333-1.9212-2.8401-3.8398-3.8218-6.0363-.1246-.2788-.213-.1099-.329-.0299-.4219.2911-.8144.645-1.2724.8585-.5441.2536-.5123.5822-.2865 1.0008.7193 1.3332 1.3676 2.7127 2.1859 3.9825 1.141 1.7706 2.1755 3.572 2.843 5.5833.4527 1.3641.8304 2.7419 1.0884 4.1518.3727 2.0365.3315 4.0799-.0011 6.1167-.0924.5658-.0656 1.1592-.3422 1.6899-.0884.1695-.1801.3552-.3851.3657-.1824.0093-.3069-.1392-.3897-.2963-.1266-.2403-.2406-.4783-.2728-.7623-.0652-.5735-.4612-.9642-.809-1.3879-.022 1.1379-.1998 2.2307-.4179 3.3113-.38 1.8829-.8462 3.7486-1.2123 5.6339-.2166 1.1154-.1195 2.2487.116 3.3612.1415.6685.5542 1.1402 1.0973 1.5437.455.3381.4323.6195-.0495.9046-.7041.4167-1.4477.3229-2.1534.0069-.6542-.293-1.2265-.7203-1.7068-1.3086-.1839 1.5343-.3762 3.047-.2776 4.5739.0561.8688.3044 1.7072.5159 2.5495.0654.2603.1499.5297-.1753.7143-.3283.1863-.6367.3233-.9813.0348-.2346-.1964-.4934-.36-.7293-.5594-.6349-.5368-1.1795-1.1752-1.8665-1.652-.7184-.5804-1.4265-1.1758-2.2704-1.5755-1.1726-1.0951-.9885-.7926-1.5479.2629-.5029.949-.711 1.9672-.7759 3.0271-.0328.536-.5752.8129-1.1005.5664-.8184-.3841-1.6498-.7309-2.5133-1.0052-1.5469-.4914-3.1328-.7954-4.7373-1.0039-1.7959-.2334-3.5918-.4799-5.3948-.6404-1.4901-.1326-2.9904-.1522-4.4864-.2148-1.4805-.062-2.9611-.1255-4.4422-.1675-.7127-.0202-1.4267.0109-2.1402.0106-.1332 0-.2832-.0077-.3951-.068-.1368-.0737-.3508-.134-.3022-.3571.0444-.2039.2329-.1401.3793-.1653 1.5564-.2676 3.1364-.2569 4.6973-.2245 1.4773.0307 2.9617.1181 4.4416.2142 2.3209.1507 4.6461.2541 6.9711.3142 1.4327.0371 2.8544.1446 4.2809.2701 1.3529.119 2.3748.7974 3.3601 1.6086.3228.2658.4361.2542.5293-.2003.2766-1.3489.5475-2.7016 1.2313-3.9308.3537-.6358.461-.7168 1.158-.3736 1.1965.5891 2.3149 1.2973 3.3145 2.1917.6926.6197 1.3683 1.2642 2.2152 1.8265.075-.6782-.094-1.2888-.09-1.9034.0082-1.2481-.2194-2.4895-.0949-3.7435.0513-.517.2321-.9951.348-1.4922.0787-.3374.3814-.458.6524-.4995.2576-.0395.4593.1741.609.3985.3647.5467 1.1066 1.0223 1.748 1.1021-.107-.3487-.2341-.6723-.3045-1.0078-.3318-1.5815-.1933-3.1502.1635-4.7095.2735-1.1951.5325-2.3938.8328-3.5821.0943-.373.0034-.6576-.1189-1.0056-.3998-1.1375-.8988-2.228-1.6092-3.1898-1.2293-1.6642-2.5581-3.2608-4.3361-4.3743-.864-.5411-1.8451-.8769-2.8299-1.162-.8844-.256-1.7675-.5325-2.638-.8156-.8969-.2917-1.7611-.7821-2.5159-1.3873-.2921-.2343-.5812-.3534-.9321-.3088-1.246.1583-2.4956.1133-3.746.1014-2.0358-.0195-4.0437-.304-6.0167-.7565-1.3131-.3011-2.6858-.3951-3.9253-.9957-.2781-.1348-.269.1396-.3181.2663-.4685 1.2081-.5835 2.4801-.634 3.7583-.0512 1.2946-.0474 2.5887.1183 3.8786.0428.3333-.1638.5799-.4087.7764-1.2872 1.0327-2.4582 2.1833-3.5162 3.4489-.9734 1.1644-1.8684 2.3881-2.7427 3.6277-.2587.3668-.5822.5145-1.045.3088-.826-.3672-1.6235-.8089-2.5117-1.0249-.0488-.0748-.1292-.1296-.1895-.0517-.0782.101.0437.1141.104.1473.2584.5452.6835.9711 1.0783 1.4054.3707.4079.499.8716.3538 1.3368-.1369.4385-.2059.897-.3818 1.3225-.1849.4472-.3391.475-.6942.1473-1.5417-1.423-2.96-2.9664-4.4184-4.4717-.9527-.9834-1.8691-2.0178-3.0017-2.8192-.2982-.211-.2912-.6061-.3092-.932-.016-.29.2858-.3423.5053-.4283.5687-.2228.9199-.6144 1.1049-1.2143.2392-.7754.5775-1.5196.837-2.2894.2679-.795.5074-1.6004.733-2.4086.4791-1.7162 1.0563-3.4071 1.3774-5.1646.1427-.7811.233-1.5716.3703-2.3538.0924-.5267-.182-.9703-.3176-1.4322-.3052-1.0398-.6694-2.0682-1.2104-3.0159-.1797-.3149-.1594-.6042.0277-.8642.1983-.2755.5507-.1833.7567-.074 1.1925.6329 2.4265.3515 3.6575.2385 1.0645-.0977 2.0426-.5034 3.0414-.8363.149-.0497.2637-.1227.2856-.314.1044-.9102.825-1.6597.6878-2.6384-.0296-.2111.1831-.2186.3172-.2703 1.1436-.441 2.2907-.873 3.4331-1.3171.6356-.2471 1.2642-.5122 1.896-.7691.248.1634.1891.267-.0509.3838-1.5159.7377-2.9754 1.5891-4.5271 2.2543-.157.0673-.2735.1485-.3018.313-.1427.8307-.6363 1.5879-.5131 2.4754.0214.1539-.0232.304-.1506.4173-.7891.7021-1.7559 1.1101-2.732 1.3935-1.4818.4302-3.0152.4857-4.5354.0907-.0561-.0378-.1184-.0708-.1601.0072-.0088.0163.0495.0685.0769.1042.1768.6418.3798 1.2744.5911 1.9063.3087.9233.6347 1.8071.4135 2.8739-.4689 2.2611-1.0531 4.4833-1.7542 6.6791-.4863 1.5232-1.0786 3.013-1.4287 4.579-.128.5726-.3571 1.0667-.8847 1.4152-.2199.1452-.4696.2671-.6872.4697 1.4756 1.6667 2.9327 3.3373 4.4195 4.981.7315.8086 1.5173 1.5682 2.2812 2.3475.0828.0845.2244.3014.2959.0876.111-.3321.4457-.6707.0712-1.0655-.9228-.9727-1.5578-2.1507-2.2789-3.2663-.1236-.1913-.2875-.4037-.0584-.6488.2182-.2335.4721-.3601.7765-.2282 1.1104.481 2.2426.9238 3.3087 1.49.5016.2664.7149.1462.9915-.2359 1.2956-1.7898 2.7222-3.4726 4.2047-5.1095.4295-.4742.9033-.8547.9486-1.638.1003-1.7345.4115-3.4545.7938-5.1517.2467-1.095.4282-2.2048.8484-3.2653.3095-.7812.3881-.9528.9846-.608.8974.5188 1.8967.6592 2.8653.8963 2.3335.5711 4.7196.732 7.1145.7971 1.0474.0285 2.0819-.0996 3.1199-.1953.3957-.0365.5452-.1608.2207-.5212-.121-.1343-.1857-.3264-.2514-.5014-.0733-.1951-.0312-.3905.1569-.492.1764-.0952.2864.0726.3786.1847.1955.2376.3323.5388.5628.7297.9647.7989 2.0392 1.4322 3.1842 1.9356 1.1556.5082 2.3526.9288 3.4834 1.4855 1.5945.785 3.032 1.7917 4.2413 3.1337 1.1728 1.3015 2.2316 2.666 3.0076 4.2395.2838.5754.552 1.1584.8576 1.8016.2387-.9563.1239-1.8293.0294-2.7084-.0782-.7265-.398-1.3708-.6087-2.0519-.1144-.3697.1493-.5375.3742-.4232.5024.2553 1.0722.3736 1.4804.8527.426.5.865.9895 1.3107 1.6692.0235-.3267.0453-.5038.0474-.6811.0154-1.3-.1424-2.5853-.3283-3.8687-.2812-1.9407-.8538-3.796-1.5961-5.6064-.9039-2.2048-2.1898-4.2056-3.3266-6.2858-.7745-1.4173-1.2723-2.9262-1.5473-4.5117-.1373-.7911-.0388-.8939.7517-.8643.0509.0019.1027-.0066.1533-.0151 1.0576-.1772 2.0309-.6009 2.9146-1.1739 1.1416-.7402 2.3243-1.4226 3.3166-2.3898.7467-.7278 1.4708-1.4623 2.0557-2.3252.7291-1.0756 1.3467-2.2126 1.9338-3.3732.81-1.6014 1.6035-3.2144 2.0965-4.9363.7764-2.7118 1.2862-5.4868 1.7167-8.2751.2529-1.6377.617-3.2367 1.2748-4.7814.4685-1.1001.5717-2.2955-.212-3.3735-.3835-.5275-.5552-.5614-1.0803-.2074-1.4503.9777-2.8749 1.9959-4.3537 2.9283-2.2213 1.4005-4.5102 2.6866-6.8658 3.8526-1.1428.5657-2.3334 1.0359-3.4328 1.6869-.6469.383-1.2507.8498-1.9024 1.2102-1.4513.8026-2.6431 1.8483-3.5383 3.2416-.2659.4139-.7766.5181-.9539.1414-.2165-.4602-.6363-.4981-.9634-.7126-1.3299-.8718-2.6715-1.7241-4.0648-2.4964-1.3771-.7633-2.799-1.4308-4.2526-2.0204-1.1974-.4857-2.4354-.8602-3.7222-1.0877-.8255-.146-1.6493-.1763-2.4748-.2583-1.3793-.1369-2.7508-.0548-4.1236.0238-.7995.0458-1.5965.1323-2.3988.1178-.138-.0025-.2939.004-.3307-.1711-.0376-.1792.0706-.2904.2281-.3514.1269-.0491.2559-.1116.3884-.1248 1.3244-.1322 2.6479-.2815 3.9753-.3725.9677-.0663 1.9356-.1759 2.9262-.1377-.6223-.2895-1.2586-.5016-1.8962-.7091-.0442-.0144-.1008-.0017-.1491.0095-.6509.1504-.9456-.144-.8337-.8406.0265-.1649.1255-.3107.0687-.4967-.3844-1.257-.8204-2.4997-1.3698-3.6895-.577-1.2499-1.1665-2.4968-1.7635-3.738-1.0633-2.211-2.0739-4.4477-3.217-6.6197-1.1682-2.2197-2.2268-4.4915-3.2569-6.7767-.4587-1.0175-.8423-2.0684-1.4952-2.9909-.1755-.2479-.2933-.2831-.4977-.0593-.571.6249-1.2471 1.168-1.7034 1.8806-.8469 1.3225-1.6075 2.6934-2.2158 4.1518-.9411 2.2565-1.7812 4.5367-2.1694 6.9639-.2456 1.5355-.4192 3.0744-.3825 4.6327.02.8491-.1116 1.6097-.8343 2.2253-.4325.3683-.6524.932-.5671 1.5801.1087.8255.2374 1.6521.2327 2.4909-.0009.1639.0053.2859-.1344.4036-.6061.5108-.6618 1.2339-.7254 1.9501-.0094.1057.0729.1858.1533.1352.374-.2356.8799-.1589 1.1992-.5144.9981-.1607 1.3734-.4854 1.5902-1.424.1337-.5788.1797-1.1835.3664-1.7427.1434-.4295-.0076-.9173.2196-1.2781.4147-.6586.7135-1.3678.9601-2.0876.1729-.5044.5409-.9742.4505-1.5498-.0742-.4721-.203-.9354-.2895-1.4059-.1078-.5868-.195-1.1652-.0146-1.7691.229-.767.5864-1.4773.8788-2.2158.0419-.1058.0969-.2416.26-.1598.1311.0657.2487.1842.1882.3258-.1637.3832-.1044.8005-.2544 1.196-.495 1.3053-.5313 2.6108.2179 3.8552.1568.2604.0189.4636-.1074.6559-.0716.109-.1842.1896-.2415.3212-.4219.9695-.672 2.0091-1.1988 2.9354-.0787.1384-.0073.2626.0209.3949.1346.6322.3314 1.2615.3714 1.9003.0328.5225.1892.5393.6141.4107.5079-.1536.8564-.3502.9646-.953.0983-.5481.1891-1.1014.3048-1.6457.566-2.6622.7437-5.3632.856-8.0704.0736-1.7746.0837-3.5517.1453-5.3269.0553-1.5936.1721-3.1871-.1541-4.8921-.4834.9658-.8551 1.8517-1.1226 2.7819-.0993.3454-.2275.6629-.6908.5718-.2315-.4744.0952-.8662.2211-1.271.4363-1.4031.9679-2.7628 1.9219-3.9225.2077-.2525.3949-.1915.626-.1775.2598.0158.3729.1868.3828.4031.0154.3379.1442.6502.1197 1.0043-.1096 1.5834-.0229 3.169.0254 4.753.0564 1.8517.1013 3.7037.0385 5.5549-.0706 2.08-.1554 4.1605-.2901 6.2371-.1056 1.6276-.2781 3.2516-.4565 4.8733-.1088.9892-.1779 1.0213-1.1924 1.1072-.0667.0056-.1343.0146-.1986.0324-1.1655.3213-2.3336.6338-3.4951.9694-1.5907.4595-3.1375 1.0565-4.6499 1.7156-1.4034.6116-2.7408 1.3776-4.0947 2.0993-1.6532.8813-3.2979 1.7778-5.0235 2.5142-.4189.1788-.8544.3251-1.2305.5933-.4027-.0472-.7696.1109-1.1473.2033-.2119.0519-.3325.1329-.3103.4184.0339.4361.0015.8839-.0574 1.3194-.2496 1.8438-.825 3.5762-1.7342 5.209-.3765.6761-.9062 1.2814-1.0668 2.0707-.5352.8082-1.0762 1.6126-1.6 2.4282-.0869.1353-.1705.2344-.3152.3121-1.796.965-3.7577 1.5338-5.6232 2.3351-2.0306.8723-4.006 1.8351-5.9331 2.9044-1.0142.5628-1.9914 1.1932-3.0505 1.6731-1.8924.8576-3.8439 1.5655-5.7948 2.2745-.2805.0557-.6081.0374-.8328.1806-.7378.4703-1.5168.8374-2.3461 1.1006-.8567.2718-1.6069.7474-2.3159 1.2701-.7552.5568-1.4234 1.2021-1.6821 2.1772-.1207.4549.1536.7901.2021 1.1887.0742.6091.2054 1.2113.3213 1.8668.5218-.7771 1.5329-.8952 2.041-.2942.7804.9233.9039 2.4865.2819 3.5213-.1536.2555-.3762.4213-.6684.401-.3-.0209-.5388-.1633-.6625-.4817-.1267-.3263-.2069-.6236-.0995-.9869.075-.2536.1038-.7024-.2118-.7295-.2377-.0205-.3184.4005-.331.709-.0478 1.1683.3285 2.2244.8858 3.2113.6234 1.1039 1.678 1.5509 2.8887 1.6745.1721.0176.4651.0611.4058-.2859-.1125-.6576.0572-1.2843.1675-1.9215.0432-.2495.1365-.2323.3035-.1485.2184.1097.3388.2589.2985.5295-.076.5106-.0374 1.0181.0978 1.5188.2482.9191 1.1705 1.7639 2.0268 1.7587 1.5966-.0096 3.0652-.4063 4.2058-1.6159.2268-.2405.6445-.4906.5216-.8107-.1213-.3159-.584-.1414-.8953-.162-.6931-.0458-1.1701-.4324-1.4101-1.0224-.203-.4991-.2328-1.0463.1583-1.5452.6927-.8835 2.2547-1.0457 3.0731-.2761.2388.2245.4918.4171.7916.5456.7893.3385 1.4062.2071 1.6907-.3858.1834-.3823.3319-.7836.3629-1.2154.0668-.931.298-1.8345.4905-2.7419.1748-.8239 1.4936-1.7067 2.3277-1.6398.203.0163.2391.1628.3053.2979-.1722.4293-.6497.6431-.7785 1.1031-.0332.0015-.0589.0163-.0769.0443-.0991-.0032-.1369.0562-.1469.1439-.4962.3762-.788.8734-.8603 1.491-.0783.6688-.2159 1.3268-.2731 2.0021-.1137 1.3424-.8041 2.081-2.1237 2.4338-.1744.0466-.3136.2082-.5177.1587-.4713-.2384-.9343-.4953-1.4165-.709-.3697-.1639-.7592-.2276-1.0949.1049-.0712.0705-.1852.1328-.1562.2456.0294.1144.1685.1282.2545.1199.8706-.0855 1.3823.2793 1.4932 1.1645z" fill="#0d0d0d"/><path d="m124.6357 100.9347c-.344-.101-.58-.3855-.9314-.5053-.3631-.1237-.5617.0374-.7648.2298-.2165.205-.1692.4523-.025.7001.9049 1.5551 1.545 3.232 2.2155 4.8929.3061.7583.5386 1.5463.8046 2.3208.0573.1481.0578.2658-.0502.4176-1.3667 1.9217-2.8085 3.7823-4.332 5.5843-1.5054 1.7806-3.1153 3.4577-4.793 5.0708-3.5258 3.3902-7.408 6.3164-11.5998 8.8347-1.9082 1.1463-3.8701 2.1908-5.8896 3.1269-.0318-.2533-.2173-.418-.3568-.6071-1.0331-1.4012-2.1144-2.7663-3.0579-4.2343-.2475-.385-.2288-.6495-.0109-1.0112.6889-1.1436 1.2996-2.3291 1.7981-3.5698.9099-2.2648 1.8726-4.5099 2.6203-6.8362.4596-1.43.8967-2.8684.8685-4.3966.687.4767 1.2316 1.1151 1.8665 1.652.2359.1995.4948.3631.7293.5594.3446.2884.653.1515.9813-.0348.3253-.1846.2407-.454.1753-.7143-.2116-.8423-.4598-1.6807-.5159-2.5495-.0986-1.5269.0937-3.0396.2776-4.5739.4803.5883 1.0526 1.0156 1.7068 1.3086.7057.3161 1.4493.4098 2.1534-.0069.4818-.2851.5045-.5666.0495-.9046-.5431-.4035-.9558-.8752-1.0973-1.5437-.2355-1.1126-.3326-2.2458-.116-3.3612.3661-1.8853.8323-3.7511 1.2123-5.6339.2181-1.0807.3959-2.1734.4179-3.3113.3478.4238.7438.8145.809 1.3879.0323.284.1462.522.2728.7623.0828.1572.2073.3056.3897.2963.205-.0104.2968-.1961.3851-.3657.2766-.5307.2498-1.1241.3422-1.6899.3326-2.0368.3738-4.0802.0011-6.1167-.258-1.4099-.6357-2.7877-1.0884-4.1518-.6675-2.0113-1.702-3.8127-2.843-5.5833-.8182-1.2698-1.4665-2.6493-2.1859-3.9825-.2258-.4186-.2577-.7471.2865-1.0008.458-.2135.8505-.5673 1.2724-.8585.116-.08.2044-.2489.329.0299.9817 2.1965 2.3885 4.1151 3.8218 6.0363 2.151 2.8832 4.3545 5.7381 6.1359 8.88 1.8189 3.2079 3.7621 6.3449 5.3484 9.6845.8854 1.8639 1.6915 3.7586 2.4902 5.6586-.0344.0365-.0688.0733-.1031.1101z" fill="#a99f7b"/><path d="m101.1312 110.952c.0282 1.5282-.4089 2.9665-.8685 4.3966-.7476 2.3263-1.7104 4.5714-2.6203 6.8362-.4985 1.2407-1.1092 2.4263-1.7981 3.5698-.2179.3617-.2366.6261.0109 1.0112.9435 1.468 2.0248 2.8331 3.0579 4.2343.1395.1891.325.3538.3568.6071-1.3838.6284-2.7506 1.2974-4.2044 1.758-.3612-.9474-.9082-1.7959-1.4893-2.6115-.7435-1.0437-1.55-2.0488-2.4908-2.9234-.3796-.3529-.368-.6315-.098-1.0008.5958-.8151 1.1323-1.6692 1.6283-2.548 1.4903-2.6401 2.8495-5.3428 4.0013-8.1514.8388-2.0454 1.6065-4.106 1.995-6.292.0292-.1646-.0013-.3997.2489-.4616.8438.3997 1.5519.9951 2.2703 1.5755z" fill="#d5c990"/><path d="m64.9749 75.2861c1.5202.3955 3.0536.3399 4.5354-.0902.9761-.2834 1.9429-.6914 2.732-1.3935.1274-.1133.172-.2634.1506-.4173-.1231-.8875.3704-1.6447.5131-2.4754.0283-.1645.1447-.2457.3018-.313 1.5518-.6652 3.0112-1.5166 4.5271-2.2543.24-.1168.299-.2203.0509-.3838.0703-.5387-.1595-1.0416-.1867-1.5687.3355.0897.4701-.0589.3638-.3668-.1156-.3347-.2725-.6581-.4386-.972-.7907-1.4947-1.9496-2.6958-3.1097-3.8987-1.9363-2.0079-4.3265-2.9519-7.0788-3.0576-.5451-.0209-1.1178-.104-1.6293.0287-.4083.1059-.6294.03-.8772-.2348-.923-.9864-2.1189-1.4708-3.3878-1.802-.4326-.1129-.8798-.2146-1.3174.0584-.1339.0836-.2807.1275-.3118.2973-.0318.1737.0433.2959.2124.3615.1991.0772.2312.2186.1703.4147-.187.6029-.3302 1.2215-.5503 1.8116-.6501 1.7431-1.2175 3.5125-1.7268 5.3004-.1249.4384-.2954.8746-.2773 1.3455-.5031.3217-.7321.8801-1.1191 1.304-.448.4908-.8455 1.028-1.2613 1.5479-.2822.3528-.2737.6012.1922.8257 1.2719.613 2.4096 1.4093 3.3573 2.4809.5464.6178.705 1.2561.4268 2.018-.9683.0258-1.9366.0527-2.905.0768-.2557.0064-.5291.0354-.7484-.108-.2591-.1695-.5304-.1956-.8248-.2145-.8585-.0551-1.6907.1415-2.535.2228-.392.0377-.6032.2903-.5591.5889.0476.3216.3304.5285.7299.437.2617-.0599.518-.1859.8001-.1196-.1628.2519-.4529.2281-.6884.2881-2.6872.6849-5.0943 1.97-7.4459 3.3944-1.1262.6822-2.3112 1.2676-3.3566 2.0799-.1485.1154-.2961.2334-.4323.3626-.7771.7371-.7151.6473-.3192 1.4089.0234.045.0344.0967.0497.1458.0451.1451.1378.3248-.0307.4173-.2016.1107-.3229-.0845-.3977-.2237-.7208-1.3425-1.9396-2.0326-3.2986-2.5423-.768-.2881-1.5426-.5533-2.3668-.6318-.2261-.2922-.3746-.658-.758-.8019.2131-.5048.1357-.9046-.4103-1.135.1169-.0506.3046-.0416.2671-.2395-.0253-.1339-.1608-.1498-.2824-.1769-.7704-.172-1.5534-.2152-2.3377-.2163-1.3446-.002-2.6877-.0248-4.0264-.1602-.9438-.0955-1.8176-.459-2.6998-.764-1.0963-.379-2.0824-.9354-2.5086-2.1321-.1175-.3299-.3381-.5531-.7295-.5134-.0024-.0672-.0047-.1343-.0071-.2015 1.9509-.709 3.9024-1.417 5.7948-2.2745 1.0591-.48 2.0363-1.1104 3.0505-1.6731 1.9271-1.0693 3.9024-2.0322 5.9331-2.9044 1.8655-.8013 3.8272-1.3701 5.6232-2.3351.1446-.0777.2282-.1768.3152-.3121.5238-.8155 1.0648-1.62 1.6-2.4281.8998.6619 1.2497.5808 1.8664-.3808.1455-.2269.1509-.5796.5049-.6483.0082.3706-.2147.6708-.3138 1.009-.0636.217-.1123.4261.1182.5352.2568.1215.4194-.0538.518-.2742.0904-.2022.1702-.4105.2375-.6216.5895-1.8493 1.2853-3.6581 2.2467-5.3458.2731-.4795.2026-1.1621.8302-1.446.1256-.0568.0059-.1714-.0493-.2537-.1166-.1735-.3129-.1948-.4841-.2646.0446-.8362-.5044-1.223-1.1586-1.5301.3761-.2682.8116-.4146 1.2305-.5933 1.7256-.7364 3.3702-1.6329 5.0235-2.5142 1.3538-.7217 2.6912-1.4877 4.0947-2.0993 1.5124-.6591 3.0592-1.2561 4.6499-1.7156 1.1614-.3355 2.3295-.648 3.4951-.9694.0643-.0177.1319-.0267.1986-.0324 1.0145-.0859 1.0836-.118 1.1924-1.1072.1784-1.6217.3509-3.2458.4565-4.8733.1347-2.0766.2195-4.1571.2901-6.2371.0628-1.8512.0179-3.7032-.0385-5.5549-.0483-1.584-.135-3.1696-.0254-4.753.0245-.3542-.1043-.6665-.1197-1.0043-.0099-.2164-.123-.3874-.3828-.4031-.2311-.014-.4183-.075-.626.1775-.954 1.1597-1.4856 2.5194-1.9219 3.9225-.1259.4048-.4525.7966-.2211 1.271-.8141 2.2941-1.7799 4.5411-2.2513 6.9438-.3119 1.5898-.509 3.1951-.4301 4.8233.0104.2152.0322.4316-.0911.6463-.4672.8137-.9104 1.6412-1.3705 2.4591-.1389.247-.2138.5016-.1861.7836.115 1.1721.1689 2.3441-.0061 3.5157-.3193.3555-.8252.2788-1.1992.5144-.0804.0507-.1627-.0295-.1533-.1352.0636-.7163.1193-1.4393.7254-1.9501.1397-.1177.1335-.2397.1344-.4036.0047-.8388-.1239-1.6655-.2327-2.4909-.0854-.6481.1346-1.2118.5671-1.5801.7228-.6155.8543-1.3762.8343-2.2253-.0367-1.5583.1369-3.0972.3825-4.6327.3882-2.4272 1.2283-4.7074 2.1694-6.9639.6083-1.4584 1.3689-2.8293 2.2158-4.1518.4563-.7126 1.1324-1.2556 1.7034-1.8806.2044-.2237.3223-.1886.4977.0593.653.9225 1.0366 1.9733 1.4952 2.9909 1.0301 2.2853 2.0887 4.557 3.2569 6.7767 1.1431 2.172 2.1537 4.4088 3.217 6.6197.597 1.2413 1.1864 2.4881 1.7635 3.738.5493 1.1898.9854 2.4325 1.3698 3.6895.0569.186-.0422.3318-.0687.4967-.1119.6967.1828.991.8337.8406.0483-.0112.1049-.0238.1491-.0095.6377.2076 1.2739.4196 1.8962.7091-.9906-.0382-1.9585.0714-2.9262.1377-1.3274.091-2.6509.2403-3.9753.3725-.1324.0132-.2614.0757-.3884.1248-.1575.061-.2657.1722-.2281.3514.0368.1751.1927.1686.3307.1711.8024.0145 1.5994-.072 2.3988-.1178 1.3728-.0786 2.7443-.1608 4.1236-.0238.8254.0819 1.6493.1123 2.4748.2583 1.2868.2275 2.5248.602 3.7222 1.0877 1.4536.5896 2.8755 1.2571 4.2526 2.0204 1.3933.7723 2.7349 1.6246 4.0648 2.4964.3271.2144.7469.2523.9634.7126.1772.3768.6879.2725.9539-.1414.8952-1.3933 2.087-2.439 3.5383-3.2416.6517-.3604 1.2555-.8271 1.9024-1.2102 1.0994-.651 2.29-1.1212 3.4328-1.6869 2.3556-1.1661 4.6445-2.4521 6.8658-3.8526 1.4788-.9324 2.9034-1.9506 4.3537-2.9283.5251-.354.6968-.3201 1.0803.2074.7837 1.078.6805 2.2734.212 3.3735-.6578 1.5447-1.0219 3.1436-1.2748 4.7814-.4305 2.7883-.9403 5.5633-1.7167 8.2751-.493 1.7219-1.2865 3.3348-2.0965 4.9363-.587 1.1606-1.2047 2.2977-1.9338 3.3732-.5849.863-1.309 1.5974-2.0557 2.3252-.9924.9672-2.175 1.6496-3.3166 2.3898-.8838.573-1.857.9967-2.9146 1.1739-.0506.0085-.1024.017-.1533.0151-.7905-.0297-.8889.0732-.7517.8643.2751 1.5855.7728 3.0944 1.5473 4.5117 1.1369 2.0802 2.4227 4.081 3.3266 6.2858.7422 1.8104 1.3149 3.6657 1.5961 5.6064.186 1.2834.3437 2.5687.3283 3.8687-.0021.1773-.024.3544-.0474.6811-.4456-.6797-.8846-1.1691-1.3107-1.6692-.4082-.4791-.978-.5974-1.4804-.8527-.2249-.1142-.4885.0535-.3742.4232.2107.6811.5305 1.3254.6087 2.0519.0946.879.2093 1.7521-.0294 2.7084-.3056-.6432-.5738-1.2263-.8576-1.8016-.776-1.5735-1.8348-2.938-3.0076-4.2395-1.2093-1.342-2.6468-2.3487-4.2413-3.1337-1.1308-.5567-2.3278-.9773-3.4834-1.4855-1.1449-.5035-2.2194-1.1367-3.1842-1.9356-.2306-.1909-.3673-.4921-.5628-.7297-.0922-.1121-.2022-.2799-.3786-.1847-.1881.1015-.2301.2969-.1569.492.0658.175.1305.3671.2514.5014.3245.3604.1749.4848-.2207.5212-1.038.0957-2.0725.2238-3.1199.1953-2.3948-.0652-4.7809-.226-7.1145-.7971-.9686-.2371-1.9679-.3775-2.8653-.8963-.5965-.3448-.6751-.1732-.9846.608-.4201 1.0604-.6017 2.1703-.8484 3.2653-.3823 1.6972-.6935 3.4172-.7938 5.1517-.0453.7833-.5191 1.1638-.9486 1.638-1.4825 1.6368-2.9091 3.3197-4.2047 5.1095-.2766.382-.4899.5022-.9915.2359-1.0661-.5662-2.1983-1.009-3.3087-1.49-.3045-.1319-.5583-.0053-.7765.2282-.2291.245-.0652.4575.0584.6488.7211 1.1156 1.3561 2.2937 2.2789 3.2663.3745.3947.0399.7334-.0712 1.0655-.0715.2138-.2131-.0032-.2959-.0876-.7638-.7793-1.5496-1.5388-2.2812-2.3475-1.4868-1.6437-2.9439-3.3143-4.4195-4.981.2177-.2026.4674-.3245.6872-.4697.5276-.3485.7567-.8426.8847-1.4152.3501-1.5659.9424-3.0558 1.4287-4.579.7011-2.1958 1.2853-4.418 1.7542-6.6791.2212-1.0668-.1048-1.9506-.4135-2.8739-.2113-.632-.4144-1.2645-.5911-1.9063.0284-.0374.0562-.0746.084-.1119zm53.5356-33.4232c-.0591-.5819-.3995-.9502-.885-1.2301-.4578-.264-.742.0618-1.0337.2968-1.6607 1.3379-3.2919 2.7131-4.9724 4.0253-1.1409.8909-2.2593 1.7962-3.2894 2.8181-1.8076 1.7931-3.4375 3.7392-5.043 5.7081-1.1199 1.3734-2.1802 2.7857-3.0732 4.3269-.4179.7213-.3224 1.351.0079 2.006.5586 1.1077.7897 2.3179 1.1211 3.4947.3878 1.377.9738 2.6901 1.2915 4.0872.1138.5005.2611.9844.5024 1.439.0782.1473.1812.2738.3504.2462.1502-.0245.3247-.1291.2901-.3019-.0872-.435.1622-.4315.4681-.4301.2013.0009.4066-.0435.6036-.0935 1.5963-.4055 2.7332-1.4842 3.8118-2.6355 1.3812-1.4743 2.5349-3.1229 3.5801-4.8443 1.2647-2.0828 2.2315-4.2929 2.9268-6.64.5438-1.8357.9656-3.6904 1.2948-5.5694.285-1.6268.6668-3.2184 1.3724-4.7227.2953-.6298.5438-1.2822.6757-1.9808zm-73.7914 34.8381c.1898.0138.3338-.0853.4826-.1682.1481-.0826.2843-.1984.4419-.2501 1.7321-.567 3.3534-1.3615 4.8818-2.3505.8301-.5371 1.6536-1.0894 2.5642-1.4822.1993-.086.334-.141.3189-.3764-.0151-.2357-.0723-.4411-.3188-.5365-.4892-.1894-.9664-.1721-1.4029.1298-.351.2428-.6829.5134-1.02.776-1.033.8045-2.0257 1.6691-3.1474 2.3466-.9329.5635-1.921 1.0356-2.8862 1.5453-.1202.0635-.2891.105-.2284.278.0465.1326.2146.0465.3143.0882zm10.8937-4.7271c-.4508.1445-.9417.1922-1.3083.5399-.1424.135-.1959.2898-.0468.446.1158.1213.2283.2345.4368.0976.3404-.2234.7102-.4016 1.0617-.6087.1096-.0646.2777-.1269.2003-.3029-.0587-.1335-.1965-.1792-.3437-.1719z" fill="#a99f7b"/><path d="m57.6406 65.676c-.0181-.4709.1524-.907.2773-1.3455.5093-1.7879 1.0767-3.5573 1.7268-5.3004.2201-.5901.3633-1.2087.5503-1.8116.0608-.1961.0288-.3375-.1703-.4147-.1691-.0656-.2442-.1877-.2124-.3615.0311-.1698.1779-.2138.3118-.2973.4376-.2731.8848-.1713 1.3174-.0584 1.2689.3312 2.4648.8156 3.3878 1.802.2478.2648.4689.3407.8772.2348.5115-.1326 1.0842-.0496 1.6293-.0287 2.7524.1057 5.1425 1.0497 7.0788 3.0576 1.16 1.2029 2.319 2.4041 3.1097 3.8987.1661.3139.323.6373.4386.972.1064.3079-.0283.4565-.3638.3668-.2037-.3761-.4067-.3794-.7833-.1403-1.435.9111-2.9862 1.4917-4.724 1.4528-.2499-.0056-.4827-.0378-.6851-.1689-.3292-.2133-.4851-.0433-.581.2433-.416 1.2435-1.309 2.0655-2.4326 2.6296-1.0142.5092-2.1106.5966-3.2228.3347-.0963-.0227-.2259-.0699-.2648-.1448-.3342-.6437-1.0705-.653-1.5826-1.0149-.3474-.2455-.7193-.4409-.9366-.8354-.151-.2739-.32-.2886-.6153-.0913-.7294.4871-1.3967 1.036-1.9828 1.684-.2705.299-.4695.2477-.6917-.0594-.5801-.8014-.5735-.967-.069-1.8101.7136-1.1925 1.4395-2.3804 2.2907-3.4753.74-.9519 1.59-1.7931 2.7486-2.2945.6905-.2988 1.3081-.3694 1.9722-.036.1581.0794.3194.1018.4968.0822 1.7052-.1882 2.9695.6389 4.0767 1.7989 1.0244 1.0732 2.2503 1.7766 3.7346 1.8699.8532.0536 1.6019-.4151 2.3314-.8296.1843-.1048.0699-.2189.0111-.3408-.3457-.7163-.8298-1.3379-1.3871-1.8904-.8572-.8497-1.6723-1.7263-2.7105-2.4045-1.5848-1.0352-3.2966-1.5781-5.1384-1.8264-.7724-.1042-1.5294-.0235-2.282.1438-.2061.0458-.3259-.0608-.4924-.1664-.9764-.6192-1.8811-1.3586-2.9921-1.7581-.4018-.1445-.5865-.1136-.7165.3311-.7712 2.6381-2.0387 5.0932-2.8665 7.7116-.0692.2189-.2098.352-.4635.2914zm8.0741 3.7053c1.3826-.0068 2.4243-.4553 3.3328-1.2656.3962-.3534.7855-2.0071.4723-2.447-.8439-1.1854-1.8509-2.0832-3.4268-2.0237-.6079.0229-1.2155.1231-1.8148.144-.8557.0299-1.2226.6809-1.7688 1.1127-.0335.0265-.0203.1258-.0119.189.0604.4569-.0411.9024-.1333 1.3393-.095.45-.0101.8307.2175 1.2165.743 1.2595 1.9101 1.6973 3.133 1.7348z" fill="#0d0e0d"/><path d="m88.7949 123.1541c.3124-.7601.5638-1.3849.8256-2.0051.312-.7393.6437-1.4697 1.0476-2.1646.0585-.1007.1209-.2394.2125-.2712.1344-.0467.1381-.3332.3519-.1945.1781.1156.1405.2649.0852.4488-.599 1.9929-1.3607 3.9314-1.9826 5.9154-.5954 1.8996-1.2018 3.7991-1.5551 5.7658-.0259.1443.0313.4149-.2054.387-.2109-.0249-.1572-.2623-.1394-.4318.1383-1.3199.3303-2.637.4011-3.9606.1106-2.068.4217-4.1242.3504-6.2031-.0432-1.2604-.2302-2.4764-.8994-3.5772-.0642-.1056-.1871-.2409-.0407-.3666.1598-.1372.25.0336.3351.1195.2524.2549.4497.5457.5857.8849.6184 1.5423.68 3.1479.5674 4.7754-.0165.2364-.053.4733.0601.8779z" fill="#141413"/><path d="m25.3203 97.3687c-1.0064-.502-2.0039-1.0228-3.0215-1.501-1.116-.5244-2.2671-.9767-3.368-1.5298-.3771-.1894-.6299-.6061-.8361-.9994-.1093-.2085.0195-.2563.2084-.2801.5248-.0661.9774.1294 1.4103.3783 1.1206.6444 2.1839 1.3841 3.3547 1.947.8314.3997 1.6572.8009 2.537 1.0878.27.0881.5637.1501.7864.3543-.2992.2956-.7952.2023-1.0712.5429z" fill="#d2c78f"/><path d="m53.1943 74.7357c-.282-.0663-.5384.0597-.8001.1196-.3995.0915-.6823-.1154-.7299-.437-.0442-.2985.167-.5511.5591-.5889.8443-.0813 1.6765-.2779 2.535-.2228.2943.0189.5657.045.8248.2145.2193.1434.4927.1144.7484.108.9684-.0241 1.9367-.051 2.905-.0768-.1588.473-.6135.3882-.9391.4256-1.2595.1447-2.5354.0851-3.7949.2582-.437.0602-.8722.1328-1.3083.1996z" fill="#0d0e0d"/><path d="m37.953 85.2271c-.036.2226-.1682.4408-.4323.579-.721.3774-1.4622.715-2.1575 1.1436-.3816.2352-.8906.0555-1.0845-.3363-.1252-.2529-.0583-.5253.1749-.5896.5212-.1436.7975-.5669 1.1322-.9042.353-.3557.7649-.6068 1.1949-.8078.5534-.2586 1.1594.2142 1.1723.9153zm-.9256-.0526c-.393.0318-.6999.1926-.8935.5308.3114-.159.6774-.2212.8935-.5308zm.1747-.1171-.0174.0273.0302.0025z" fill="#0d0e0d"/><path d="m36.7627 90.1636c-.3037.008-.5281-.1365-.7413-.3223-.2268-.1977-.1799-.5939.1048-.6973.8447-.3068 1.6719-.6675 2.5565-.8554.4839-.1028.8239.1615.9834.7634.1057.3992-.0845.7128-.5735.7974-.7716.1336-1.5528.2123-2.3299.3142zm1.9599-1.0992c-.3491-.0639-.648.0684-.9341.2511.327-.0225.6756.0393.9341-.2511z" fill="#141413"/><path d="m28.1124 87.0862c-.1109-.8852-.6227-1.25-1.4946-1.1655-.086.0083-.2251-.0055-.2545-.1199-.029-.1128.085-.175.1562-.2456.3357-.3325.7252-.2688 1.0949-.1049.4822.2137.9452.4707 1.4165.709-.2684.3465-.4888.7404-.9185.9269z" fill="#d2c78f"/><path d="m34.1499 78.633c.3834.1439.5319.5096.758.8019-.6635-.0058-1.2776.1943-1.8783.4507.1287-.46.6063-.6738.7784-1.1031.114-.0498.2279-.0997.3419-.1495z" fill="#d2c78f"/><path d="m14.1101 82.4576c-.1602.5362-.2424 1.0814-.1913 1.6421-.0666.002-.1333.004-.1999.006-.0958-.618-.0818-1.235.0168-1.8511.1884-.0496.2686.1004.3744.203z" fill="#d9e0ad"/><path d="m32.8057 80.0739c.01-.0877.0478-.1471.1469-.1439-.0067.0911-.0516.1431-.1469.1439z" fill="#d2c78f"/><path d="m34.1499 78.633c-.114.0498-.2279.0996-.3419.1495-.0662-.135-.1023-.2816-.3053-.2979-.8341-.0669-2.1529.8159-2.3277 1.6398-.1925.9074-.4237 1.8109-.4905 2.7419-.031.4319-.1795.8332-.3629 1.2154-.2845.5929-.9015.7243-1.6907.3858-.2997-.1285-.5528-.3211-.7916-.5456-.8184-.7696-2.3804-.6074-3.0731.2761-.3911.4989-.3614 1.0461-.1583 1.5452.24.59.717.9766 1.4101 1.0224.3114.0206.774-.1539.8953.162.123.3201-.2948.5702-.5216.8107-1.1406 1.2095-2.6092 1.6063-4.2058 1.6159-.8564.0051-1.7786-.8397-2.0268-1.7587-.1352-.5006-.1738-1.0082-.0978-1.5188.0403-.2706-.0801-.4198-.2985-.5295-.167-.0839-.2604-.101-.3035.1485-.1103.6372-.28 1.2639-.1675 1.9215.0594.3469-.2337.3034-.4058.2859-1.2107-.1235-2.2653-.5706-2.8887-1.6745-.5574-.9869-.9337-2.043-.8858-3.2113.0126-.3085.0934-.7295.331-.709.3155.0272.2867.476.2118.7295-.1074.3633-.0272.6606.0995.9869.1236.3184.3625.4608.6625.4817.2922.0204.5148-.1454.6684-.401.6221-1.0348.4986-2.5981-.2819-3.5213-.5081-.601-1.5192-.483-2.041.2942-.1159-.6555-.2471-1.2577-.3213-1.8668-.0485-.3986-.3228-.7338-.2021-1.1887.2588-.9751.927-1.6204 1.6821-2.1772.709-.5227 1.4592-.9983 2.3159-1.2701.8293-.2632 1.6083-.6302 2.3461-1.1006.2247-.1432.5523-.1249.8328-.1806.0024.0671.0047.1343.007.2015-.0568.1407-.1158.2687-.074.4392.2524 1.0293.7879 1.8346 1.7578 2.3195 2.0615 1.0306 4.2358 1.5854 6.5477 1.5464 1.3621-.023 2.7238-.0677 4.0857-.1026.5461.2301.6235.6299.4104 1.1347zm-6.783 3.6017c.5868.0348 1.0213-.0571 1.4535-.1545.1228-.0277.2875-.0373.2896-.2307.0022-.2022-.153-.25-.3014-.2933-.0808-.0236-.1692-.0221-.2544-.0298-1.9188-.1726-3.8227-.3671-5.643-1.1043-1.704-.6901-3.4688-1.2255-5.0644-2.1749-.4627-.2753-.8166-.662-1.2371-.9754-.2279-.1698-.498-.5259-.771-.2332-.2547.2732-.0553.6055.229.8311.1866.1481.3796.2906.5502.4558 1.2951 1.2537 2.8608 2.1045 4.4947 2.7714 2.0307.829 4.1966 1.1257 6.2543 1.1378z" fill="#616065"/><path d="m61.0085 44.6316c.175-1.1716.1211-2.3435.0061-3.5157-.0277-.282.0472-.5367.1861-.7836.4601-.8179.9033-1.6453 1.3705-2.4591.1233-.2148.1015-.4311.0911-.6463-.0788-1.6282.1182-3.2335.4301-4.8233.4714-2.4027 1.4372-4.6496 2.2513-6.9438.4633.0911.5915-.2264.6909-.5718.2675-.9302.6392-1.8161 1.1226-2.7819.3263 1.7051.2094 3.2985.1541 4.8921-.0616 1.7752-.0718 3.5523-.1453 5.3269-.1122 2.7072-.29 5.4081-.856 8.0704-.1157.5443-.2065 1.0977-.3048 1.6457-.1081.6028-.4567.7994-.9646.953-.4249.1286-.5814.1118-.6141-.4107-.04-.6388-.2369-1.2681-.3714-1.9003-.0282-.1323-.0996-.2565-.0209-.3949.5268-.9263.777-1.9659 1.1988-2.9354.0573-.1316.1699-.2122.2415-.3212.1263-.1923.2641-.3955.1074-.6559-.7492-1.2444-.7129-2.5499-.2179-3.8552.15-.3955.0907-.8129.2544-1.196.0605-.1416-.0571-.26-.1882-.3258-.1631-.0818-.2181.054-.26.1598-.2924.7385-.6498 1.4488-.8788 2.2158-.1803.6039-.0932 1.1823.0146 1.7691.0865.4705.2153.9338.2895 1.4059.0904.5756-.2777 1.0454-.4505 1.5498-.2467.7198-.5455 1.4289-.9601 2.0876-.2272.3608-.0762.8486-.2196 1.2781-.1867.5593-.2327 1.1639-.3664 1.7427-.217.9386-.5923 1.2633-1.5904 1.424z" fill="#d2c78f"/><path d="m48.0479 51.9458c.6541.3072 1.2032.6939 1.1586 1.5301-.1712.1016-.455.2038-.3092.4338.1927.3041-.001.4736-.1134.6821-.2472.4587-.4996.9148-.7595 1.3664-.768 1.3347-1.3769 2.7421-1.9213 4.1793-.3539.0687-.3594.4214-.5049.6483-.6167.9616-.9666 1.0427-1.8664.3808.1607-.7894.6904-1.3946 1.0668-2.0707.9091-1.6328 1.4845-3.3652 1.7342-5.209.059-.4354.0913-.8833.0574-1.3194-.0222-.2855.0984-.3665.3103-.4184.3779-.0925.7448-.2506 1.1474-.2033z" fill="#f7f1d6"/><path d="m14.1101 82.4576c-.1058-.1027-.186-.2526-.3744-.203.0057-.066-.0103-.1459.0212-.1953.1044-.1633-.0354-.559.2769-.4714.1621.0455.3699.3955.1837.6971-.0355.0578-.0716.1151-.1074.1726z" fill="#d2c78f"/><path d="m67.6559 97.1213c-.0604-.0332-.1822-.0463-.104-.1473.0603-.0779.1407-.0231.1895.0517-.0284.0319-.057.0637-.0855.0956z" fill="#faf5dc"/><path d="m57.0718 125.2156c-.0165.0657-.078.1319-.1211.0981-.0649-.0508-.0524-.1381.0296-.1919.0305.0313.061.0625.0915.0938z" fill="#faf5dc"/><path d="m124.7388 100.8244c.0081.0433.0163.0866.0245.1299-.0425-.0067-.0849-.0133-.1275-.0198.0342-.0366.0686-.0734.103-.1101z" fill="#a99f7b"/><path d="m124.6231 102.152c-.0323-.0505-.0673-.1044.0032-.1466.0087-.0052.0539.0508.0822.0784-.0285.0228-.0569.0455-.0854.0682z" fill="#dde3af"/><path d="m64.8916 75.3979c-.0274-.0357-.0856-.0879-.0769-.1042.0417-.078.104-.045.1601-.0072-.0277.0369-.0555.0741-.0832.1114z" fill="#a99f7b"/><path d="m56.5561 127.1639c.0404-.012.0807-.0241.1211-.0361-.0027.0425-.0054.0851-.0079.1276-.0377-.0305-.0755-.061-.1132-.0915z" fill="#dde3af"/><path d="m118.5105 41.8629c-.1318.6986-.3804 1.351-.6757 1.9806-.7056 1.5043-1.0874 3.0959-1.3724 4.7227-.3292 1.8791-.751 3.7337-1.2948 5.5694-.6953 2.3471-1.6621 4.5571-2.9268 6.64-1.0452 1.7214-2.1989 3.37-3.5801 4.8443-1.0786 1.1513-2.2155 2.23-3.8118 2.6355-.197.05-.4023.0944-.6036.0935-.306-.0014-.5553-.0049-.4681.4301.0346.1729-.1399.2775-.2901.3019-.1693.0276-.2722-.0989-.3504-.2462-.2414-.4546-.3886-.9385-.5024-1.439-.3177-1.3971-.9037-2.7102-1.2915-4.0872-.3314-1.1767-.5624-2.3869-1.1211-3.4947-.3304-.6551-.4259-1.2848-.0079-2.006.893-1.5412 1.9533-2.9535 3.0732-4.3269 1.6055-1.9689 3.2354-3.915 5.043-5.7081 1.0301-1.0219 2.1485-1.9272 3.2894-2.8181 1.6805-1.3122 3.3117-2.6874 4.9724-4.0253.2917-.235.5759-.5607 1.0337-.2968.4855.2801.8258.6484.885 1.2303zm-16.0733 21.3411c-.167-.895.3672-1.3049.9964-1.7218.9804-.6495 1.8866-1.3959 2.6108-2.3443.1869-.2448.2104-.3434-.1004-.4634-.2364-.0913-.5129-.2407-.4928-.5322.018-.2614.2832-.417.4996-.5273.9535-.486 1.5833-1.2931 2.0654-2.1922.5675-1.0584 1.0178-2.1783 1.5908-3.2382.7892-1.4601 1.8043-2.7604 2.8168-4.063.1432-.1843.3596-.3133.5483-.46.085-.066.1941-.0924.2818-.0099.0803.0756.0983.1828.0462.2843-.1322.2571-.2372.5369-.4115.7625-1.5456 1.9995-2.8193 4.1469-3.5434 6.5828-.3597 1.2103-.7407 2.4171-.9819 3.6601-.0562.2898.0517.6095-.2174.8601-.4493.4184-.86.8787-1.3158 1.2894-1.0136.9132-1.8868 1.9564-2.769 2.988-.4998.5844-.5273.6424-1.2658.4078.0178.1433.0168.2816.0539.4088.2183.7503.4552 1.4953.6665 2.2475.1758.6259.3482.7074.997.5346.9405-.2504 1.681-.8453 2.3879-1.4432 2.0541-1.7374 3.5328-3.957 4.8837-6.2419 1.9682-3.329 3.0695-6.9771 3.6872-10.7817.1474-.908.309-1.8177.5395-2.7071.3797-1.4652 1.019-2.8439 1.5101-4.2727.0666-.1936.1941-.3928.0435-.6043-1.1409.7265-2.1452 1.6013-3.2334 2.3614-1.2341.8619-2.3738 1.8384-3.4757 2.8592-1.6784 1.5549-3.1795 3.278-4.6987 4.9841-1.4451 1.6228-2.8824 3.2615-3.9536 5.1555-.397.7019-1.1285 1.2485-.9525 2.3132.2244 1.3585.7834 2.5843 1.1865 3.9039z" fill="#0d0d0d"/><path d="m33.7396 77.498c-1.3619.0349-2.7236.0796-4.0857.1026-2.3119.039-4.4862-.5158-6.5477-1.5464-.97-.4849-1.5054-1.2901-1.7578-2.3195-.0418-.1705.0172-.2985.074-.4392.3914-.0398.6121.1834.7296.5133.4262 1.1967 1.4122 1.7531 2.5086 2.1321.8823.305 1.7561.6685 2.6998.764 1.3387.1354 2.6819.1582 4.0264.1602.7842.0012 1.5673.0443 2.3377.2163.1216.0272.2571.043.2824.1769.0372.1981-.1504.1891-.2673.2397z" fill="#0b0b0b"/><path d="m44.7191 76.701c-.0997-.0417-.2678.0444-.3143-.0882-.0607-.173.1082-.2145.2284-.278.9652-.5097 1.9533-.9818 2.8862-1.5453 1.1217-.6775 2.1145-1.5421 3.1474-2.3466.3371-.2625.669-.5332 1.02-.776.4365-.3019.9137-.3192 1.4029-.1298.2465.0954.3037.3008.3188.5365.0151.2354-.1196.2905-.3189.3764-.9107.3928-1.7341.9451-2.5642 1.4822-1.5284.9889-3.1497 1.7834-4.8818 2.3505-.1576.0516-.2938.1675-.4419.2501-.1487.0829-.2928.182-.4826.1682z" fill="#0d0d0d"/><path d="m46.1032 60.1375c.5444-1.4372 1.1533-2.8446 1.9213-4.1793.2599-.4516.5123-.9077.7595-1.3664.1124-.2085.3061-.378.1134-.6821-.1458-.23.1381-.3322.3092-.4338.1712.0699.3675.0911.4841.2646.0553.0823.1749.1969.0493.2537-.6276.2839-.5571.9665-.8302 1.446-.9613 1.6877-1.6572 3.4965-2.2467 5.3458-.0673.2111-.1471.4194-.2375.6216-.0985.2204-.2612.3957-.518.2742-.2305-.1091-.1818-.3182-.1182-.5352.099-.3383.322-.6385.3138-1.0091z" fill="#141413"/><path d="m55.613 71.9733c.147-.0066.2848.039.3436.1726.0774.1761-.0907.2384-.2003.3029-.3516.2071-.7213.3853-1.0617.6087-.2085.1368-.321.0237-.4368-.0976-.1492-.1562-.0956-.311.0468-.446.3665-.3478.8574-.3955 1.3084-.5406z" fill="#0d0e0d"/><path d="m65.7147 69.3813c-1.2228-.0376-2.39-.4754-3.133-1.7348-.2276-.3857-.3125-.7664-.2175-1.2165.0922-.4369.1937-.8824.1333-1.3393-.0083-.0632-.0215-.1626.0119-.189.5461-.4318.9131-1.0828 1.7688-1.1127.5993-.0209 1.2069-.1211 1.8148-.144 1.576-.0595 2.5829.8384 3.4268 2.0237.3132.4399-.0761 2.0936-.4723 2.447-.9085.8103-1.9503 1.2589-3.3328 1.2656zm1.005-4.1178c-.481-.073-.7829.2557-1.1479.4925-.496.3219-.6261.7998-.255 1.272.6282.7992 1.5791.6923 2.2019-.2206.2339-.3428.2142-.6686.0469-.9958-.1682-.3291-.4158-.5851-.8459-.5481z" fill="#d9e0ad"/><path d="m37.0274 85.1745c-.2161.3096-.5821.3718-.8935.5308.1937-.3382.5005-.499.8935-.5308z" fill="#616065"/><path d="m37.2021 85.0574.0128.0298-.0302-.0025z" fill="#616065"/><path d="m38.7226 89.0644c-.2585.2903-.6071.2285-.9341.2511.2861-.1827.585-.315.9341-.2511z" fill="#a99f7b"/><path d="m27.3669 82.2347c-2.0577-.0122-4.2236-.3089-6.2544-1.1378-1.6339-.6669-3.1996-1.5177-4.4947-2.7714-.1706-.1652-.3636-.3077-.5502-.4558-.2842-.2256-.4837-.558-.229-.8311.273-.2927.5431.0633.771.2332.4205.3134.7744.7001 1.2371.9754 1.5956.9494 3.3604 1.4847 5.0644 2.1749 1.8203.7372 3.7242.9317 5.643 1.1043.0852.0077.1736.0062.2544.0298.1484.0434.3036.0912.3014.2933-.0021.1935-.1667.2031-.2896.2307-.4321.0974-.8666.1893-1.4534.1545z" fill="#0b0b0b"/><path d="m102.4372 63.204c-.4031-1.3196-.9621-2.5454-1.1866-3.904-.1759-1.0646.5555-1.6113.9525-2.3132 1.0712-1.894 2.5085-3.5326 3.9536-5.1555 1.5192-1.7061 3.0203-3.4292 4.6987-4.9841 1.1019-1.0208 2.2416-1.9972 3.4757-2.8592 1.0882-.7601 2.0925-1.6349 3.2334-2.3614.1506.2115.023.4107-.0435.6043-.4912 1.4289-1.1304 2.8076-1.5101 4.2727-.2305.8894-.3921 1.7992-.5395 2.7071-.6177 3.8046-1.719 7.4527-3.6872 10.7817-1.3509 2.2849-2.8297 4.5045-4.8837 6.2419-.7069.5979-1.4473 1.1929-2.3879 1.4432-.6488.1727-.8212.0913-.997-.5346-.2113-.7522-.4482-1.4972-.6665-2.2475-.037-.1272-.036-.2655-.0539-.4088.7384.2346.7659.1767 1.2658-.4078.8822-1.0316 1.7554-2.0748 2.769-2.988.4558-.4106.8665-.871 1.3158-1.2894.2692-.2507.1612-.5703.2174-.8601.2412-1.2431.6221-2.4499.9819-3.6601.7241-2.4359 1.9978-4.5834 3.5434-6.5828.1743-.2255.2793-.5053.4115-.7625.0522-.1014.0342-.2087-.0462-.2843-.0876-.0825-.1968-.0561-.2818.0099-.1887.1467-.405.2757-.5483.46-1.0125 1.3026-2.0276 2.603-2.8168 4.063-.573 1.06-1.0233 2.1799-1.5908 3.2382-.4821.8991-1.1119 1.7062-2.0654 2.1922-.2164.1103-.4816.2659-.4996.5273-.0201.2916.2565.441.4928.5322.3108.12.2873.2185.1004.4634-.7242.9484-1.6304 1.6948-2.6108 2.3443-.6292.417-1.1633.8269-.9963 1.7219z" fill="#d3c78f"/><path d="m66.7197 65.2635c.4301-.037.6777.219.846.548.1673.3272.187.653-.0469.9958-.6228.9129-1.5737 1.0198-2.2019.2206-.3711-.4722-.2411-.9501.255-1.272.3649-.2368.6668-.5654 1.1478-.4924zm-.2833 1.1398c.1108.0871-.1442.3581.1349.3303.1958-.0195.341-.2313.3686-.4188.0201-.1371-.134-.2965-.2932-.2932-.2365.0048-.2146.2071-.2103.3817z" fill="#0d0e0d"/><path d="m66.4364 66.4033c-.0043-.1745-.0261-.3769.2103-.3817.1592-.0033.3133.1562.2932.2932-.0276.1875-.1728.3992-.3686.4188-.2791.0278-.0242-.2432-.1349-.3303z" fill="#dde3af"/></svg>