<svg enable-background="new 0 0 141.7733 141.8302" viewBox="0 0 141.7733 141.8302" xmlns="http://www.w3.org/2000/svg"><path d="m70.4989 141.8302c19.2924-.2111 35.7513-6.6449 49.3854-19.6855 13.6311-13.0377 21.0131-29.1805 21.8151-48.0481.8591-20.2097-5.7636-37.8522-19.7889-52.4345-12.9977-13.5139-29.0851-20.796-47.834-21.5888-20.2092-.8546-37.8519 5.769-52.4302 19.7983-13.5235 13.0142-20.819 29.1167-21.5785 47.8889-.841 20.7869 6.1457 38.7806 20.8958 53.4653 13.7392 13.6782 30.5492 20.3579 49.5353 20.6044z" fill="#fff"/><path d="m70.4989 141.8302c-18.9861-.2465-35.7961-6.9262-49.5353-20.6044-14.7502-14.6846-21.7368-32.6783-20.8958-53.4653.7595-18.7723 8.055-34.8748 21.5785-47.889 14.5783-14.0292 32.221-20.6528 52.4302-19.7982 18.7489.7928 34.8363 8.075 47.834 21.5889 14.0253 14.5823 20.648 32.2248 19.7889 52.4345-.802 18.8676-8.1841 35.0104-21.8151 48.0481-13.6342 13.0405-30.093 19.4743-49.3854 19.6854zm-20.0098-7.183c2.504.9252 5.0953 1.5311 7.7028 2.065 2.1843.4472 4.3901.7579 6.6148.9444 1.6486.1382 3.2925.3276 4.9508.2903.5274.0002 1.0549.0004 1.5823.0007 1.0628.0128 2.1231-.0329 3.1842-.0956 2.1557-.1274 4.3002-.3516 6.4338-.6812 3.2728-.5056 6.4815-1.2865 9.6456-2.258.4911-.1591.9823-.3181 1.4734-.4772.7077-.1092 1.3743-.338 2.03-.628.9118-.4032 1.849-.7484 2.7671-1.1378 1.2916-.5477 2.5715-1.1172 3.8053-1.7939 1.0078-.5527 2.0437-1.0478 3.0262-1.6547 1.5104-.933 3.0371-1.8329 4.4926-2.8571 1.0919-.7684 2.1749-1.5458 3.2331-2.3584 2.1455-1.6475 4.1721-3.4351 6.1283-5.3002 1.388-1.3233 2.6598-2.759 3.9166-4.2079 2-2.3056 3.8445-4.7235 5.4927-7.2956 2.1908-3.419 4.0651-7.0003 5.643-10.7392 1.322-3.1325 2.416-6.3439 3.227-9.645.6599-2.6861 1.1049-5.412 1.4023-8.1651.1815-1.6798.3573-3.3613.382-5.0467.0515-3.5208.0685-7.0424-.3861-10.549-.206-1.5891-.4071-3.1775-.6888-4.7548-.5866-3.2855-1.4942-6.4841-2.6253-9.6212-.7464-2.07-1.5686-4.1097-2.5206-6.0941-1.3396-2.7921-2.8268-5.5003-4.4989-8.1119-1.9917-3.1109-4.286-5.9806-6.7603-8.7099-1.1255-1.2415-2.2946-2.4421-3.5366-3.5772-1.5928-1.4558-3.2117-2.877-4.9116-4.2033-4.4341-3.4597-9.28-6.2243-14.4249-8.4761-3.3343-1.4595-6.7639-2.6488-10.2952-3.5304-2.4687-.6163-4.9732-1.0359-7.5012-1.3485-1.8126-.2241-3.6303-.4349-5.4476-.4681-2.9054-.0532-5.8144-.1095-8.721.1593-1.6641.1539-3.3278.3145-4.9772.56-3.8578.5741-7.6212 1.5376-11.3013 2.8456-4.18 1.4857-8.1722 3.3596-12.013 5.5714-4.6099 2.6546-8.7528 5.9244-12.6028 9.574-1.6775 1.5902-3.1959 3.3337-4.7043 5.0862-2.9728 3.454-5.4784 7.2255-7.636 11.2257-1.8167 3.3682-3.3548 6.8679-4.5851 10.4963-1.3079 3.8573-2.2492 7.7962-2.7655 11.8441-.2591 2.0314-.5045 4.0669-.5612 6.1053-.0665 2.3923-.1021 4.7908.0553 7.1887.1196 1.8219.2877 3.6337.5149 5.445.3258 2.5965.8104 5.1594 1.4884 7.684 1.0105 3.7633 2.3465 7.414 4.0006 10.9397 1.0159 2.1653 2.1403 4.2769 3.3541 6.3441 2.6244 4.4696 5.8341 8.4827 9.3903 12.2288 1.8399 1.9381 3.8624 3.685 5.9148 5.3941 1.6116 1.3421 3.3114 2.5703 5.0193 3.7843.8049.5722 1.6698 1.0602 2.5095 1.5832.9677.6027 1.8942 1.2944 2.919 1.7764 1.0263.4827 2.0075 1.0489 3.0324 1.5336 1.4942.7068 3.0316 1.3085 4.529 2.0029.3738.1734.8188.1665 1.1417.4814.0784.0764.2675.0673.348-.0968.676.3251 1.3648.6132 2.1133.7284z" fill="#5f6065"/><path d="m48.3755 133.9187c-.0804.1645-.2695.1736-.3479.0972-.3229-.3149-.7679-.3081-1.1417-.4814-1.4974-.6944-3.0348-1.2962-4.529-2.0029-1.0249-.4848-2.0061-1.0509-3.0324-1.5336-1.0248-.482-1.9512-1.1737-2.919-1.7764-.8397-.523-1.7046-1.011-2.5095-1.5832-1.7079-1.214-3.4076-2.4422-5.0193-3.7843-2.0524-1.7091-4.0748-3.456-5.9148-5.3941-3.5563-3.746-6.7659-7.7592-9.3903-12.2288-1.2138-2.0672-2.3383-4.1788-3.3541-6.3441-1.6541-3.5258-2.9901-7.1764-4.0006-10.9397-.6779-2.5246-1.1625-5.0875-1.4884-7.684-.2273-1.8112-.3954-3.623-.5149-5.445-.1574-2.3979-.1217-4.7964-.0553-7.1887.0567-2.0384.3021-4.0739.5612-6.1053.5163-4.048 1.4576-7.9869 2.7655-11.8441 1.2303-3.6284 2.7684-7.128 4.5851-10.4963 2.1576-4.0003 4.6632-7.7717 7.636-11.2257 1.5084-1.7526 3.0268-3.496 4.7043-5.0862 3.85-3.6496 7.9929-6.9194 12.6028-9.574 3.8408-2.2118 7.8331-4.0857 12.013-5.5714 3.6802-1.308 7.4435-2.2715 11.3013-2.8456 1.6494-.2455 3.3131-.4061 4.9772-.56 2.9067-.2689 5.8157-.2125 8.721-.1593 1.8174.0333 3.6351.244 5.4476.4681 2.528.3126 5.0325.7322 7.5012 1.3485 3.5313.8816 6.9609 2.0709 10.2954 3.5303 5.1449 2.2517 9.9909 5.0164 14.4249 8.4761 1.6998 1.3263 3.3187 2.7475 4.9116 4.2033 1.242 1.1351 2.4111 2.3357 3.5366 3.5772 2.4743 2.7293 4.7687 5.599 6.7603 8.7099 1.672 2.6116 3.1593 5.3198 4.4989 8.1119.952 1.9843 1.7742 4.0241 2.5206 6.0941 1.1311 3.137 2.0387 6.3356 2.6253 9.6212.2816 1.5773.4828 3.1658.6888 4.7548.4546 3.5066.4376 7.0282.3861 10.549-.0247 1.6854-.2005 3.3669-.382 5.0467-.2974 2.7531-.7424 5.479-1.4023 8.1651-.811 3.3011-1.905 6.5124-3.227 9.645-1.5779 3.739-3.4522 7.3202-5.643 10.7392-1.6481 2.5721-3.4927 4.99-5.4927 7.2956-1.2568 1.4489-2.5286 2.8846-3.9166 4.2079-1.9563 1.8651-3.9828 3.6526-6.1283 5.3002-1.0582.8126-2.1413 1.59-3.2331 2.3584-1.4555 1.0242-2.9823 1.9241-4.4926 2.8571-.9825.6069-2.0184 1.102-3.0262 1.6547-1.2338.6767-2.5137 1.2462-3.8053 1.7939-.9181.3894-1.8554.7346-2.7671 1.1378-.6556.2899-1.3223.5188-2.0299.6282-.257-.476-.4974-.9622-.7741-1.4268-1.3399-2.2495-2.7198-4.475-3.945-6.7918-.7499-1.4179-1.4751-2.8468-2.411-4.1641-1.8244-2.568-3.4456-5.2708-5.0915-7.9541-.9173-1.4954-1.6806-3.0843-2.5617-4.603-.4409-.7599-.9261-1.4952-1.3203-2.282-.7004-1.3979-1.3435-2.8269-2.098-4.1946-.6878-1.2466-1.2909-2.5338-1.9477-3.7945-.3569-.685-.5828-1.437-.914-2.137-.6245-1.3198-1.2076-2.6648-1.6498-4.0471-.5115-1.5991-1.153-3.1477-1.6739-4.7405-.3373-1.0314-.7722-2.0426-.9902-3.0986-.3803-1.8417-.8829-3.654-1.2135-5.5098-.3116-1.7487-.3751-3.5091-.5426-5.2646-.0478-.5015-.0731-1.0087-.0981-1.5117-.056-1.1283-.0742-2.2466.0676-3.3668.0124-.0984-.0056-.2263.1206-.255.1197-.0273.1719.0904.2369.166.0669.0779.1326.1572.1933.24 1.1196 1.5269 2.2156 3.0717 3.3633 4.5771 1.263 1.6568 2.4867 3.3411 3.6275 5.0826.8999 1.3737 1.8769 2.6891 2.8674 3.9955.7163.9448 1.5037 1.8227 2.3356 2.6771 1.1832 1.2152 2.5682 2.1509 3.9281 3.1119.7714.5451 1.662.9633 2.5793 1.297.8423.3065 1.6949.585 2.5533.8187 2.0165.5489 4.0527 1.011 6.1395 1.2496 1.7461.1997 3.4905.1176 5.2344.1104.7998-.0033 1.6046-.131 2.4076-.0785.4311.0282.8462.0069 1.2733-.0489.422-.0552.756-.3648 1.1312-.4073.6552-.0743 1.3322-.0808 1.9947.0402.1446.0264.2656.1673.4332.0846.699-.3448 1.4156-.6583 2.094-1.0397.9324-.5242 1.8357-1.0998 2.752-1.6527.8443-.5095 1.7204-.9608 2.3195-1.8059.4243-.5985.9231-1.15 1.4311-1.6819.7713-.8076 1.4519-1.6472 1.8194-2.7375.3961-1.175.4736-2.319.0581-3.4929-.3097-.875-.8014-1.6628-1.2114-2.487-.4708-.9465-1.1334-1.7962-1.6268-2.7332-.6108-1.16-1.1631-2.3537-1.6856-3.5567-.5007-1.1526-.8991-2.3474-1.2742-3.5477-.1054-.3372-.068-.6218.29-.8301.4766-.2774.9655-.5329 1.2422-1.0755.5489-1.0764.8407-2.1905.5773-3.3883-.1876-.8528-.6885-1.5353-1.3221-2.1262-.1385-.1291-.378-.2288-.2591-.4961.1783-.4009.0464-.7638-.1206-1.1276-.5022-1.0939-1.234-2.0211-2.2563-2.6368-.6322-.3807-.7682-.8029-.7867-1.509-.0384-1.4673-.5254-2.8745-1.027-4.2363-.7787-2.1142-1.8308-4.1086-3.0235-6.0262-.2842-.4569-.4799-.9618-.3658-1.5356.3164-1.5901.611-3.1794.3045-4.8142-.144-.7682-.2426-1.5466-.5125-2.2827-.5945-1.6215-1.3308-3.1845-2.1681-4.6893-.4967-.8927-1.0284-1.8068-1.8946-2.4219-.8876-.6302-1.8556-1.1123-2.8517-1.5596-2.1324-.9576-4.3474-1.2301-6.6535-1.024-.9995.0893-1.9821.2927-2.9786.3869-1.989.1879-3.8579-.3934-5.6492-1.1126-1.9362-.7774-3.958-1.2987-5.8751-2.1254-1.2951-.5585-2.6832-.8421-4.0688-1.1012-1.5366-.2874-3.0771-.5474-4.6476-.5413-1.6642.0065-3.3154.1521-4.9632.3958-1.3593.201-2.7098.4302-4.0294.8121-1.7475.5057-3.4701 1.0846-5.1073 1.8888-1.1373.5587-2.3647 1.0159-3.3738 1.7344-1.6303 1.1608-3.2683 2.3469-4.6942 3.7793-.6308.6337-1.4107 1.1194-1.9588 1.83-.818 1.0605-1.5823 2.1626-2.3635 3.2512-.2473.3446-.4585.7161-.7169 1.0516-.5058.6567-.999 1.323-1.3761 2.0611-.7489 1.4656-1.4777 2.9416-2.2059 4.4177-.4207.8528-.8995 1.6872-1.2175 2.578-.5203 1.4571-1.1742 2.8635-1.6023 4.3563-.3843 1.3397-.8758 2.649-1.2508 3.991-.3234 1.1574-.6044 2.327-.8073 3.5176-.3259 1.9126-.5742 3.8341-.7459 5.7637-.1545 1.7354-.2173 3.4778-.2395 5.2217-.0206 1.616.1384 3.2244.1593 4.8361.0217 1.6686.1366 3.329.2693 4.9888.1505 1.8823.4105 3.7514.7417 5.6123.3022 1.698.5102 3.4128.8122 5.1109.3798 2.1357.8026 4.2639 1.226 6.3916.4456 2.2398 1.0047 4.4533 1.6971 6.6288.5208 1.6364 1.1353 3.2408 1.7447 4.8477.6161 1.6245 1.2238 3.2501 1.9332 4.836.2262.5057.5519.9752.7195 1.4973.4698 1.4641 1.164 2.8323 1.7517 4.245.4835 1.1622.9695 2.3282 1.5859 3.4308.5318.9514.7591 2.0367 1.3181 2.9764.2681.4506.5452.8989.7718 1.3705.4146.8627.7417 1.7685 1.1271 2.6387.6451 1.4566 1.4243 2.8575 2.0806 4.3144.3559.7901.8672 1.5054 1.1281 2.3413z" fill="#fde166"/><path d="m90.6032 134.9129c-3.164.9712-6.3727 1.7522-9.6455 2.2578-2.1336.3296-4.2781.5538-6.4338.6812-1.0611.0627-2.1214.1085-3.1842.0956-.5003-.6474-1.0365-1.2224-1.8261-1.565-1.1472-.4977-2.35-.77-3.5586-1.0152-1.5292-.3103-3.0725-.5524-4.6115-.8128-1.3038-.2206-2.6262-.3263-3.9079-.684-1.2735-.3553-2.5275-.7721-3.7907-1.1539-.952-.2877-1.9007-.5797-2.8503-.8764-1.5609-.4877-2.1916-1.6545-2.6598-3.0412-.2897-.8581-.2037-1.7419-.1823-2.6063.0176-.71.1806-1.4362.4579-2.1089.4009-.9727 1.0637-1.8057 1.4335-2.8081.5324-1.4431.7131-2.8666.086-4.2996-.4966-1.1348-1.2058-2.0648-2.5217-2.3917-.3402-.0845-.7387-.2864-.9729-.6079-.8244-1.1315-1.0188-2.3392-.4185-3.6479.4975-1.0844 1.2244-2.0207 1.8976-2.9885.8286-1.1914 1.4007-2.4652 1.6475-3.9042.1832-1.0681.125-2.1248.0262-3.1844-.0845-.9061-.2408-1.8194-.6356-2.6365-.5142-1.0643-1.2486-1.9621-2.2499-2.6569-1.0882-.755-2.18-1.5413-2.4989-2.9761-.212-.9538-.217-1.8617.1355-2.7997.586-1.5595 1.8136-2.7643 2.2988-4.3896.2556-.8561.6337-1.685.763-2.5739.3183-2.1882.0212-4.3369-.5016-6.4653-.1956-.7962-.4907-1.576-.9274-2.2415-.4506-.6866-1.0497-1.3016-1.5237-1.9724-.8165-1.1554-1.8769-2.061-2.8256-3.077-.6288-.6734-1.2064-1.4019-1.7921-2.097-.8495-1.008-1.2809-2.3285-1.6034-3.6338-.2696-1.0914-.4048-2.2036-.4995-3.325-.1517-1.798-.243-3.5928-.0263-5.3904.0918-.7613.0408-1.5355.2065-2.2893.2598-1.1819.5706-2.3506.8851-3.5193.4075-1.5145.896-3.0008 1.5497-4.4229.3769-.82.686-1.6684 1.1152-2.4747.2933-.5511.5559-1.1472.9067-1.6673 1.1632-1.7244 2.1732-3.5641 3.7098-5.0159.3957-.3739.7525-.784 1.2976-.9418-1.0345 1.3058-1.7523 2.7749-2.4532 4.2591-.3209.6795-.5272 1.3878-.7432 2.0998-.1863.6142-.4263 1.2119-.6248 1.8226-.0666.205-.1186.4166.0893.6136.4112.3896.7531.339 1.0728-.2659.5228-.9891 1.1371-1.9177 1.7294-2.864.7834-1.2516 1.7982-2.2899 2.8996-3.2126 1.753-1.4686 3.5776-2.8679 5.7215-3.7565 1.7182-.7122 3.4126-1.3652 5.3267-.5164.5897.2615.9556.6207 1.2455 1.0955.6785 1.1112 1.047 2.3731 1.6838 3.5722-.4667.0271-.8863.067-1.3064.0727-.9698.0131-1.9409-.02-2.8866.2692-.3178.0972-.6622.4875-.5625.7392.1241.3132.376.4376.7046.3064 1.1881-.4743 2.4385-.3718 3.6364-.2143 2.1365.2808 3.6919 1.5707 4.9035 3.2888.5105.7239.9522 1.4959 1.4395 2.2366.455.6918 1.2286 1.0607 1.7612 1.6854.0976.1145.5261.2822.7448.0431.1969-.2154-.0922-.3959-.1895-.5761-.0783-.145-.2378-.2451-.3215-.3883-.2396-.4099-.7568-.5637-.9316-1.028.0287-.0283.0574-.0565.0861-.0848.5743.2922 1.1458.59 1.7235.8754 1.0752.531 2.1176 1.1221 3.2475 1.55 1.2372.4685 2.4966.8852 3.6729 1.5192.5349.2883 1.0684.6021 1.6337.8286 1.1081.4439 1.945 1.256 2.6542 2.137.4824.5992.884 1.3081 1.2584 2.0116.5795 1.0887 1.2042 2.1588 1.8889 3.184.4372.6547.6417 1.4583 1.2768 1.9887.0827.0691.1503.2108.1558.3636.0187.5182.4068.8787.6601 1.268.2507.3854.7804.5582 1.0326 1.0044.1355.2398.4416.2309.6705.3296.1037.0447.2377-.0419.3115-.1403.101-.1347-.0232-.205-.0997-.2966-.1725-.2067-.3309-.4251-.4951-.6388.106-.0566.1314-.1595.1521-.265.5758.6147 1.1076 1.2624 1.6341 1.9224 1.066 1.3362 1.8021 2.8431 2.5653 4.3454.8815 1.7352 1.5227 3.5706 2.2572 5.3674.6102 1.4928 1.1308 3.0162 1.5862 4.5614.234.794.4917 1.594.5975 2.4096.1279.9858.1921 1.9891.0417 2.9894-.0462.3078-.4952.998-.7618 1.0611-1.6326.3862-3.2878.6634-4.9093 1.1135-.9246.2566-1.8882.4105-2.8348.603-1.2001.244-2.2853.0844-3.3406-.4964-.4757-.2618-.9253-.5695-1.3959-.8309-1.7789-.9882-2.9683-2.5157-3.9844-4.2113-.5674-.9469-1.0624-1.9349-1.7082-2.8379-.462-.646-.9233-1.3459-.9481-2.1562-.0453-1.4798.5326-2.8184 1.1764-4.1139.1572-.3164.4-.7487.8023-.6989.4935.0611.9825.0599 1.4735.0857.0845.0044.1559.0194.2141.1043.931 1.3575 1.6965 2.772 1.5345 4.499-.0256.2725.0203.5299.3001.5476.337.0213.5619-.2706.5098-.5659-.0922-.5235-.1014-1.0529-.1867-1.5739-.1131-.6906-.3116-1.3579-.5974-1.9977-.099-.2216-.1011-.3442.197-.4246.4069-.1097.802-.2834 1.1805-.473.4485-.2247.9095-.4358 1.2496-.8377.0999-.118-.0429-.4411.3021-.3609.2618.0609.4249.2134.4994.4612.0356.1184.0958.1983.1869.2874.62.6067 1.2126 1.2416 1.8391 1.8413.4323.4137 1.0469.5768 1.4504 1.0568.2843.338.5377.7152.8588 1.0074.6006.5466 1.0307 1.2444 1.1846 1.9678.232 1.0902.6746 2.1751.3715 3.357-.232.9049-.4912 1.7928-1.2525 2.3598-.9269.6904-1.9275 1.1056-3.185.8387-1.4504-.3079-2.3457-1.2254-3.0071-2.3988-.4342-.7704-.8418-1.5999-.8594-2.5405-.0029-.1558-.1173-.3437-.3346-.3102-.1731.0267-.2138.1699-.2483.3397-.1113.5485.1127 1.0428.2066 1.5589.1315.7225.355 1.4755.7458 2.0287.5466.7737 1.14 1.5333 2.1218 1.9928 1.3482.6309 2.6232.6246 3.8865.0786 2.0338-.8791 2.9634-2.5743 3.0541-4.7352.037-.8808-.187-1.7373-.417-2.5948-.3882-1.4473-1.2347-2.5545-2.3015-3.5556-.8067-.757-1.8638-1.1746-2.5971-2.0298-.6599-.7696-1.3782-1.4767-1.6847-2.4955-.1105-.3672.2079-.4892.2419-.7657.2503-2.0364-.1114-3.9441-1.1255-5.7285-.1184-.2083-.2581-.3961-.4071-.5848-.3921-.4963-.8404-.9804-1.0907-1.5469-.2149-.4866-.5304-.7604-.9209-1.0799-1.3791-1.1286-3.0283-1.5582-4.6927-1.9743-.1456-.0364-.3091-.0497-.4555-.0238-.222.0393-.3633.1973-.3866.4251-.0225.22.1486.2794.3179.3379.5013.1732.9879.3855 1.5096.5033 1.1131.2514 2.0711.8019 2.8952 1.5819.355.336.2353 1.2089-.1696 1.2371-.3692.0257-.7283.1122-1.1091.1105-.5808-.0025-1.2398-.1441-1.7255.339-.2522.2509-.4822.5087-.8053.6811-.3422.1826-.6869.3813-.9791.6328-1.0231.8806-1.5829 2.0173-1.7362 3.352-.0173.1509-.0173.2667-.1821.3142-.4721.1358-.9395.2914-1.4168.4057-.6556.157-1.3216.0563-1.9853.0538-.6835-.0026-.994-.8822-1.7381-.6755-.0232.0065-.0699-.0678-.1043-.1056-.2838-.3115-.5915-.6047-.8469-.938-1.1713-1.5284-2.5547-2.8642-3.9058-4.2212-1.2627-1.2682-2.5609-2.5031-3.6706-3.9062-.9051-1.1443-1.7268-2.3554-2.4212-3.648-.4983-.9276-.9775-1.8628-1.4154-2.8207-.2146-.4695-.2797-.9778-.4603-1.4579-.3756-.9986-.7273-2.0145-.6433-3.1155.0154-.2021.0735-.3164.2572-.4457.4377-.308.9258-.3648 1.4268-.4537 1.735-.308 3.3248-.0878 4.6611 1.1693.1778.1673.3944.1428.5713.0494.1893-.0999.0338-.2546.0008-.3988-.2261-.9875-.8674-1.5641-1.7573-1.9916-.661-.3175-1.3351-.4435-2.0437-.5415-.7397-.1023-1.4556-.0226-2.168.1296-1.3029.2783-2.3629 1.0529-3.4093 1.807-.4638.3342-.9794.6953-1.1953 1.2973-.0659.1838-.1484.4019-.0102.5277.1459.1328.3426.2995.5963.1821.3401-.1573.2973.0448.2286.2538-.1232.3746-.14.7603-.1446 1.1501-.0168 1.4203.3895 2.7595.8443 4.0748.5657 1.6361 1.6397 2.9664 2.809 4.2057.8867.9398 1.8028 1.8551 2.7895 2.6962.444.3785.7646.7944.8968 1.4429.3465 1.6993 1.4921 3.0773 2.0649 4.7051.2523.717.7823 1.3392 1.1833 2.0011.5365.8856 1.1658 1.7016 1.76 2.5355 1.0769 1.5113 2.2873 2.9274 3.4417 4.3834.7481.9436 1.4801 1.9005 2.248 2.8278.7589.9165 1.4846 1.8633 2.064 2.8948.7076 1.2598 1.2655 2.6004 1.7955 3.9474.4938 1.2552 1.2238 2.3797 1.9948 3.4688.7599 1.0735 1.8207 1.8727 2.8411 2.6751 1.5231 1.1977 3.3452 1.8547 5.1271 2.5666 1.2399.4954 2.5391.625 3.8579.6141 2.8612-.0236 5.6721-.2325 8.1728-1.8792.7891-.5196 1.6755-.5577 2.5306-.0316.8113.4992.8664 1.3977.1218 1.9954-.6537.5247-1.3849.7977-2.2281.7805-1.1147-.0228-2.2276.1549-3.3339.1381-2.0469-.0312-4.1116.4241-6.1431-.3554-1.249-.4793-2.6176-.6198-3.8961-1.0455-1.4663-.4883-2.9538-.9742-4.2364-1.8424-1.7305-1.1713-3.3757-2.4738-4.7422-4.0744-1.5-1.757-2.8433-3.6366-4.0845-5.5822-.7173-1.1244-1.5263-2.1774-2.3008-3.2575-1.0607-1.4792-2.1316-2.9511-3.2688-4.3734-.7411-.9268-1.2432-2.0247-2.1478-2.8462-.2853-.2591-.658-.5477-.7878-.9475-.1062-.3273-.229-.5725-.4835-.8409-.7867-.8296-1.7591-1.3617-2.7556-1.826-1.9231-.8961-3.7831-1.846-5.0314-3.658-.1966-.2854-.4951-.2735-.7902-.2177-1.0334.1953-2.0773.0939-3.1143.0846-.7439-.0066-1.4788-.273-2.1639-.5135-2.4303-.8534-4.4941-2.2275-5.7107-4.6099-.6088-1.1924-1.1219-2.4264-1.1601-3.7866-.0326-1.1617.0096-2.3254.0172-3.4882.0011-.1687-.0684-.3282-.232-.358-.195-.0356-.1908.1799-.2158.2879-.2739 1.1833-.4393 2.3756-.4696 3.5979-.0329 1.3253.2259 2.5647.812 3.7344.4636.9252.9078 1.8576 1.5484 2.6934.6496.8476 1.4788 1.4971 2.3323 2.057.8494.5573 1.8823.8267 2.8893 1.0856.5454.1402 1.1018.2098 1.6459.3472.2373.0599.346.1951.3716.4222.0208.1847-.0105.3688-.2051.4227-.9955.2757-1.9766.6706-3.0029.7499-1.5317.1185-3.0165-.3332-4.5154-.5856-.3126-.4183-.6686-.8124-.9218-1.264-.1533-.2734-.3109-.4041-.6716-.4172.4826.7025.8941 1.3948 1.5054 1.9381.0553.1323.1516.2136.2947.2364.2846.2881.6484.3825 1.0343.423.0724.0189.1449.0377.2173.0566.4048.1287.7953.3063 1.2228.357.0722.0186.1445.0373.2167.0559.0542.0594.1165.0868.1953.0499.0728.0155.1456.031.2185.0465.0909.0604.1875.0887.2955.0526.065.0589.1402.0661.2213.0441.1243.0705.257.0843.3956.0588.0636.0589.1374.0724.2195.0495.0911.0673.1897.0744.2938.0368.1367.0707.2797.0928.4305.0564.2636.079.5321.0976.8047.0658.1016.0645.2107.0715.3245.0419.3667.1114.7398.1092 1.1154.0628.1352.0722.2785.0716.4245.047.2969.0953.5989.1608.9127.1589.0656.0574.1402.0659.2211.0409.1243.0731.2578.0821.3961.0562.0736.0156.1473.0313.2209.0469.0885.0715.1868.0844.2932.0494l.2244.045c.0855.0733.1823.0936.2902.0621.0728.0186.1455.0372.2183.0557 1.0108.3095 2.0121.6451 2.9709 1.0957.108.0984.2293.1697.3779.1852.0513.0951.1342.1398.239.1493.0307.0163.0614.0325.092.0488.0427.0928.1145.1447.2167.1534.0283.0183.0566.0366.085.0548.0441.0954.1212.1418.2236.1507.0297.0178.0595.0357.0892.0535.0747.1331.1849.2228.3302.2694.0656.1243.1688.2011.3025.2394.0329.099.1029.1546.2036.1743.0411.0786.1014.1305.1928.1394.0456.0962.121.1521.2264.1676.0402.083.1107.122.1982.1363.028.1055.1094.1448.2056.1655 1.341 1.1949 1.8959 2.7822 2.1424 4.4846.2145 1.482.2935 2.983.4758 4.4704.2797 2.2822.5083 4.5831 1.1158 6.8021 1.1952 4.3653 2.5758 8.6702 4.4701 12.7982 1.0669 2.3251 2.1701 4.6312 3.2884 6.9314 1.1041 2.2711 2.3092 4.4853 3.5888 6.6608.9966 1.6943 1.9861 3.3928 2.9737 5.0923.7764 1.3359 1.5394 2.6795 2.3191 4.0134.6297 1.0772 1.2553 2.1577 1.9209 3.2127.485.7689 1.0732 1.4739 1.5436 2.2508 1.3392 2.2113 2.7697 4.3672 3.9371 6.6831.5635 1.1178 1.2766 2.1595 1.9218 3.2353z" fill="#dfe6ad"/><path d="m44.3384 62.5818c1.4989.2524 2.9837.704 4.5154.5856 1.0263-.0794 2.0074-.4743 3.0029-.7499.1946-.0539.2259-.2381.2051-.4227-.0256-.2271-.1343-.3622-.3716-.4222-.5441-.1374-1.1005-.207-1.6459-.3472-1.007-.2589-2.0399-.5284-2.8893-1.0856-.8535-.56-1.6828-1.2094-2.3323-2.057-.6405-.8358-1.0848-1.7682-1.5484-2.6934-.5861-1.1698-.8448-2.4091-.812-3.7344.0303-1.2223.1957-2.4147.4696-3.5979.025-.108.0208-.3235.2158-.2879.1636.0299.2331.1894.232.358-.0076 1.1628-.0498 2.3265-.0172 3.4882.0382 1.3603.5512 2.5943 1.1601 3.7866 1.2165 2.3825 3.2804 3.7566 5.7107 4.6099.6851.2406 1.4199.5069 2.1639.5135 1.0369.0092 2.0809.1106 3.1143-.0846.2951-.0558.5936-.0676.7902.2177 1.2484 1.812 3.1083 2.7618 5.0314 3.658.9965.4643 1.9689.9965 2.7556 1.826.2545.2684.3773.5137.4835.8409.1298.3998.5025.6884.7878.9475.9046.8215 1.4067 1.9194 2.1478 2.8462 1.1372 1.4223 2.2081 2.8942 3.2688 4.3734.7745 1.0801 1.5836 2.1332 2.3008 3.2575 1.2411 1.9456 2.5845 3.8252 4.0845 5.5822 1.3664 1.6005 3.0116 2.9031 4.7422 4.0744 1.2826.8682 2.7701 1.354 4.2364 1.8424 1.2785.4258 2.6471.5663 3.8961 1.0455 2.0315.7795 4.0962.3242 6.1431.3554 1.1063.0169 2.2192-.1608 3.3339-.1381.8432.0172 1.5745-.2558 2.2281-.7805.7447-.5978.6896-1.4963-.1218-1.9954-.8551-.5261-1.7415-.488-2.5306.0316-2.5007 1.6466-5.3116 1.8556-8.1728 1.8792-1.3188.0109-2.618-.1188-3.8579-.6141-1.7819-.7119-3.604-1.3689-5.1271-2.5666-1.0203-.8024-2.0811-1.6015-2.8411-2.6751-.771-1.0891-1.501-2.2136-1.9948-3.4688-.5299-1.347-1.0879-2.6876-1.7955-3.9474-.5794-1.0315-1.3051-1.9783-2.064-2.8948-.7678-.9273-1.4999-1.8842-2.248-2.8278-1.1544-1.4561-2.3648-2.8722-3.4417-4.3834-.5942-.8339-1.2235-1.6499-1.76-2.5355-.401-.6619-.9309-1.2841-1.1833-2.0011-.5729-1.6278-1.7184-3.0058-2.0649-4.7051-.1322-.6485-.4528-1.0644-.8968-1.4429-.9867-.8411-1.9028-1.7564-2.7895-2.6962-1.1694-1.2393-2.2433-2.5697-2.809-4.2057-.4548-1.3153-.8611-2.6545-.8443-4.0748.0046-.3898.0214-.7755.1446-1.1501.0687-.209.1115-.4111-.2286-.2538-.2537.1174-.4504-.0493-.5963-.1821-.1382-.1258-.0557-.344.0102-.5277.2159-.6021.7315-.9631 1.1953-1.2973 1.0464-.7541 2.1064-1.5287 3.4093-1.807.7124-.1522 1.4283-.2319 2.168-.1296.7086.098 1.3827.224 2.0437.5415.8899.4275 1.5312 1.004 1.7573 1.9916.033.1442.1885.299-.0008.3988-.1769.0933-.3934.1179-.5713-.0494-1.3363-1.2571-2.9261-1.4773-4.6611-1.1693-.501.0889-.9891.1457-1.4268.4537-.1837.1292-.2418.2436-.2572.4457-.0839 1.101.2678 2.1169.6433 3.1155.1806.4802.2457.9885.4603 1.4579.4379.9579.917 1.8931 1.4154 2.8207.6944 1.2926 1.5161 2.5036 2.4212 3.648 1.1097 1.4031 2.4079 2.638 3.6706 3.9062 1.3511 1.357 2.7345 2.6928 3.9058 4.2212.2554.3333.563.6266.8469.938.0345.0378.0811.112.1043.1056.7441-.2067 1.0546.6729 1.7381.6755.6637.0025 1.3297.1032 1.9853-.0538.4773-.1143.9446-.2698 1.4168-.4057.1648-.0474.1648-.1633.1821-.3142.1533-1.3348.7132-2.4715 1.7362-3.352.2922-.2515.6369-.4503.9791-.6328.3231-.1724.5531-.4302.8053-.6811.4857-.4831 1.1447-.3415 1.7255-.339.3808.0017.7399-.0848 1.1091-.1105.4049-.0282.5246-.9011.1696-1.2371-.8241-.78-1.7821-1.3304-2.8952-1.5819-.5216-.1178-1.0083-.3301-1.5096-.5033-.1693-.0585-.3404-.1179-.3179-.3379.0233-.2277.1646-.3858.3866-.4251.1464-.0259.3098-.0126.4555.0238 1.6644.4161 3.3135.8457 4.6927 1.9743.3905.3195.7059.5934.9209 1.0799.2502.5665.6985 1.0506 1.0907 1.5469.149.1886.2888.3765.4071.5848 1.0141 1.7845 1.3758 3.6922 1.1255 5.7285-.034.2765-.3523.3984-.2419.7657.3065 1.0189 1.0248 1.7259 1.6847 2.4955.7333.8552 1.7905 1.2728 2.5971 2.0298 1.0668 1.0012 1.9133 2.1083 2.3015 3.5556.23.8575.454 1.714.417 2.5948-.0907 2.1609-1.0203 3.8561-3.0541 4.7352-1.2632.546-2.5382.5522-3.8865-.0786-.9818-.4594-1.5753-1.219-2.1218-1.9928-.3908-.5532-.6143-1.3062-.7458-2.0287-.0939-.5161-.318-1.0104-.2066-1.5589.0345-.1698.0752-.313.2483-.3397.2173-.0335.3317.1544.3346.3102.0175.9406.4252 1.7701.8594 2.5405.6614 1.1734 1.5567 2.0909 3.0071 2.3988 1.2575.267 2.2581-.1483 3.185-.8387.7613-.567 1.0205-1.455 1.2525-2.3598.303-1.1819-.1395-2.2668-.3715-3.357-.154-.7234-.584-1.4212-1.1846-1.9678-.3211-.2922-.5746-.6694-.8588-1.0074-.4036-.48-1.0182-.6431-1.4504-1.0568-.6265-.5997-1.2191-1.2346-1.8391-1.8413-.091-.0891-.1513-.169-.1869-.2874-.0745-.2478-.2376-.4004-.4994-.4612-.345-.0803-.2021.2428-.3021.3609-.3401.4019-.8012.613-1.2496.8377-.3785.1896-.7736.3633-1.1805.473-.2981.0804-.296.2029-.197.4246.2858.6398.4843 1.3071.5974 1.9977.0853.521.0945 1.0504.1867 1.5739.052.2952-.1728.5872-.5098.5659-.2798-.0177-.3256-.2751-.3001-.5476.162-1.7269-.6035-3.1415-1.5345-4.499-.0582-.0849-.1296-.0998-.2141-.1043-.491-.0257-.98-.0246-1.4735-.0857-.4023-.0498-.645.3825-.8023.6989-.6438 1.2956-1.2216 2.6341-1.1764 4.1139.0248.8103.4861 1.5102.9481 2.1562.6458.903 1.1408 1.8909 1.7082 2.8379 1.0161 1.6956 2.2055 3.2231 3.9844 4.2113.4706.2614.9203.5691 1.3959.8309 1.0553.5808 2.1404.7405 3.3406.4964.9465-.1925 1.9102-.3464 2.8348-.603 1.6215-.4501 3.2767-.7272 4.9093-1.1135.2666-.0631.7155-.7533.7618-1.0611.1503-1.0003.0861-2.0036-.0417-2.9894-.1058-.8156-.3634-1.6155-.5975-2.4096-.4554-1.5452-.976-3.0686-1.5862-4.5614-.7344-1.7968-1.3756-3.6322-2.2572-5.3674-.7632-1.5023-1.4992-3.0092-2.5653-4.3454-.5265-.6599-1.0582-1.3077-1.6341-1.9224-.0556-.2808-.3148-.3804-.4925-.5524-.0707-.0685-.1496-.0779-.2162-.0019-.0737.084-.0253.1615.0486.2076.2383.1486.3085.4334.5081.6118.1641.2136.3226.4321.4951.6388.0765.0916.2007.162.0997.2966-.0738.0984-.2077.185-.3115.1403-.2289-.0987-.5349-.0898-.6705-.3296-.2522-.4462-.7819-.619-1.0326-1.0044-.2533-.3893-.6414-.7498-.6601-1.268-.0055-.1528-.073-.2945-.1558-.3636-.6351-.5304-.8396-1.334-1.2768-1.9887-.6847-1.0252-1.3094-2.0953-1.8889-3.184-.3745-.7035-.7761-1.4124-1.2584-2.0116-.7091-.8809-1.5461-1.693-2.6542-2.137-.5653-.2265-1.0988-.5402-1.6337-.8286-1.1763-.6341-2.4357-1.0507-3.6729-1.5192-1.1298-.4279-2.1723-1.0189-3.2475-1.55-.5777-.2853-1.1492-.5832-1.7235-.8754-.0476-.0798-.1203-.1461-.1904-.054-.0422.0553.0485.1054.1043.1388.1749.4643.692.618.9316 1.028.0837.1432.2432.2433.3215.3883.0973.1802.3865.3607.1895.5761-.2186.2391-.6471.0714-.7448-.0431-.5326-.6246-1.3062-.9936-1.7612-1.6854-.4873-.7408-.929-1.5127-1.4395-2.2366-1.2116-1.7181-2.7669-3.008-4.9035-3.2888-1.1979-.1574-2.4483-.26-3.6364.2143-.3287.1312-.5806.0068-.7046-.3064-.0997-.2517.2447-.642.5625-.7392.9457-.2893 1.9168-.2561 2.8866-.2692.4201-.0057.8398-.0456 1.3064-.0727-.6368-1.1992-1.0053-2.4611-1.6838-3.5722-.2899-.4748-.6558-.834-1.2455-1.0955-1.9141-.8488-3.6086-.1958-5.3267.5164-2.1438.8887-3.9685 2.2879-5.7215 3.7565-1.1014.9227-2.1162 1.961-2.8996 3.2126-.5923.9463-1.2065 1.8749-1.7294 2.864-.3198.6049-.6617.6555-1.0728.2659-.2079-.197-.1559-.4085-.0893-.6136.1984-.6108.4384-1.2085.6248-1.8226.216-.712.4223-1.4203.7432-2.0998.7009-1.4842 1.4187-2.9533 2.4532-4.2591-.5451.1578-.9019.5679-1.2976.9418-1.5366 1.4517-2.5466 3.2915-3.7098 5.0159-.3509.5201-.6134 1.1163-.9067 1.6673-.4292.8064-.7383 1.6548-1.1152 2.4747-.6537 1.4221-1.1422 2.9084-1.5497 4.4229-.3145 1.1687-.6252 2.3374-.8851 3.5193-.1657.7538-.1147 1.528-.2065 2.2893-.2168 1.7976-.1254 3.5924.0263 5.3904.0946 1.1215.2298 2.2337.4995 3.325.3224 1.3052.7539 2.6257 1.6034 3.6338.5858.6951 1.1634 1.4236 1.7921 2.097.9487 1.016 2.0092 1.9216 2.8256 3.077.474.6708 1.0731 1.2858 1.5237 1.9724.4367.6655.7319 1.4453.9274 2.2415.5228 2.1283.8198 4.2771.5016 6.4653-.1293.8889-.5074 1.7177-.763 2.5739-.4852 1.6253-1.7128 2.8301-2.2988 4.3896-.3525.938-.3475 1.8458-.1355 2.7997.3189 1.4348 1.4107 2.2211 2.4989 2.9761 1.0013.6947 1.7357 1.5926 2.2499 2.6569.3948.8172.5511 1.7305.6356 2.6365.0988 1.0596.157 2.1163-.0262 3.1844-.2468 1.439-.8189 2.7128-1.6475 3.9042-.6732.9678-1.4002 1.9041-1.8976 2.9885-.6004 1.3088-.406 2.5165.4185 3.6479.2343.3215.6327.5234.9729.6079 1.316.3269 2.0251 1.2569 2.5217 2.3917.6271 1.433.4464 2.8565-.086 4.2996-.3698 1.0024-1.0326 1.8354-1.4335 2.8081-.2773.6728-.4403 1.3989-.4579 2.1089-.0214.8643-.1074 1.7482.1823 2.6063.4682 1.3867 1.0989 2.5535 2.6598 3.0412.9496.2967 1.8983.5886 2.8503.8764 1.2632.3818 2.5173.7986 3.7907 1.1539 1.2818.3577 2.6041.4634 3.9079.684 1.5391.2604 3.0824.5025 4.6115.8128 1.2085.2453 2.4114.5175 3.5586 1.0152.7896.3426 1.3258.9176 1.8261 1.565-.5274-.0002-1.0549-.0005-1.5823-.0007-.3127-.3311-.7192-.5415-1.1245-.692-1.1797-.4381-2.4155-.6993-3.6478-.928-1.8171-.3372-3.6321-.6882-5.4758-.8853-2.3433-.2505-4.5202-1.174-6.7641-1.8231-1.093-.3161-2.1752-.6747-3.2777-1.2341.3695.8183.6955 1.5405 1.0216 2.2627-.7484-.1152-1.4373-.4033-2.1136-.7283-.2609-.8361-.7722-1.5515-1.1281-2.3416-.6563-1.457-1.4355-2.8578-2.0806-4.3144-.3854-.8702-.7126-1.776-1.1271-2.6387-.2266-.4716-.5038-.9199-.7718-1.3705-.559-.9397-.7863-2.025-1.3181-2.9764-.6164-1.1026-1.1024-2.2686-1.5859-3.4308-.5877-1.4127-1.2819-2.7809-1.7517-4.245-.1676-.5222-.4932-.9916-.7195-1.4973-.7095-1.5859-1.3172-3.2115-1.9332-4.836-.6094-1.6069-1.2239-3.2113-1.7447-4.8477-.6924-2.1756-1.2514-4.3891-1.6971-6.6288-.4233-2.1277-.8461-4.2559-1.226-6.3916-.302-1.6981-.51-3.4128-.8122-5.1109-.3312-1.8609-.5912-3.7299-.7417-5.6123-.1327-1.6598-.2476-3.3202-.2693-4.9888-.0209-1.6117-.1799-3.2201-.1593-4.8361.0222-1.744.085-3.4864.2395-5.2217.1718-1.9296.42-3.8511.7459-5.7637.2029-1.1906.4838-2.3603.8073-3.5176.375-1.342.8666-2.6513 1.2508-3.991.4282-1.4928 1.0821-2.8992 1.6023-4.3563.3181-.8908.7969-1.7252 1.2175-2.578.7281-1.4761 1.457-2.9521 2.2059-4.4177.3771-.7381.8703-1.4044 1.3761-2.0611.2584-.3355.4696-.707.7169-1.0516.7813-1.0886 1.5456-2.1907 2.3635-3.2512.5481-.7106 1.328-1.1963 1.9588-1.83 1.4259-1.4323 3.0639-2.6184 4.6942-3.7793 1.0091-.7186 2.2366-1.1758 3.3738-1.7344 1.6372-.8042 3.3598-1.3831 5.1073-1.8888 1.3196-.3819 2.6701-.6111 4.0294-.8121 1.6478-.2436 3.299-.3892 4.9632-.3958 1.5705-.0062 3.111.2539 4.6476.5413 1.3856.2592 2.7737.5428 4.0688 1.1012 1.9171.8267 3.9389 1.3481 5.8751 2.1254 1.7913.7192 3.6602 1.3004 5.6492 1.1126.9965-.0941 1.9791-.2976 2.9786-.3869 2.3061-.2061 4.5211.0664 6.6535 1.024.996.4473 1.9641.9294 2.8517 1.5596.8662.615 1.398 1.5292 1.8946 2.4219.8373 1.5048 1.5736 3.0678 2.1681 4.6893.2699.7361.3685 1.5145.5125 2.2827.3065 1.6348.0119 3.2241-.3045 4.8142-.1142.5738.0816 1.0787.3658 1.5356 1.1926 1.9175 2.2448 3.912 3.0235 6.0262.5016 1.3618.9886 2.769 1.027 4.2363.0185.7061.1544 1.1283.7867 1.509 1.0223.6156 1.754 1.5428 2.2563 2.6368.167.3638.2989.7267.1206 1.1276-.1189.2673.1206.367.2591.4961.6337.5909 1.1346 1.2734 1.3221 2.1262.2634 1.1978-.0284 2.3119-.5773 3.3883-.2767.5426-.7655.7981-1.2422 1.0755-.358.2084-.3954.4929-.29.8301.3751 1.2003.7735 2.3951 1.2742 3.5477.5226 1.203 1.0748 2.3966 1.6856 3.5567.4934.937 1.1559 1.7868 1.6268 2.7332.41.8242.9017 1.612 1.2114 2.487.4156 1.1739.338 2.3179-.0581 3.4929-.3675 1.0902-1.048 1.9299-1.8194 2.7375-.508.5319-1.0068 1.0834-1.4311 1.6819-.5992.8451-1.4752 1.2964-2.3195 1.8059-.9162.5529-1.8196 1.1285-2.752 1.6527-.6784.3814-1.395.6949-2.094 1.0397-.1676.0827-.2886-.0582-.4332-.0846-.6625-.1211-1.3395-.1145-1.9947-.0402-.3752.0425-.7092.3521-1.1312.4073-.4271.0558-.8421.0771-1.2733.0489-.803-.0525-1.6078.0752-2.4076.0785-1.7439.0072-3.4882.0893-5.2344-.1104-2.0869-.2386-4.123-.7007-6.1395-1.2496-.8584-.2337-1.711-.5122-2.5533-.8187-.9173-.3337-1.808-.7519-2.5793-1.297-1.3599-.961-2.7449-1.8967-3.9281-3.1119-.8319-.8544-1.6193-1.7324-2.3356-2.6771-.9905-1.3063-1.9675-2.6217-2.8674-3.9955-1.1408-1.7415-2.3645-3.4258-3.6275-5.0826-1.1477-1.5055-2.2437-3.0502-3.3633-4.5771-.0607-.0828-.1263-.1621-.1933-.24-.065-.0756-.1172-.1932-.2369-.166-.1262.0288-.1082.1566-.1206.255-.1417 1.1203-.1236 2.2385-.0676 3.3668.025.503.0502 1.0103.0981 1.5117.1674 1.7555.231 3.5159.5426 5.2646.3307 1.8558.8332 3.6681 1.2135 5.5098.2181 1.056.6529 2.0673.9902 3.0986.5209 1.5928 1.1623 3.1414 1.6739 4.7405.4422 1.3823 1.0253 2.7273 1.6498 4.0471.3312.6999.5571 1.452.914 2.137.6568 1.2607 1.2599 2.548 1.9477 3.7945.7546 1.3677 1.3977 2.7967 2.098 4.1946.3942.7868.8794 1.522 1.3203 2.282.8811 1.5187 1.6444 3.1077 2.5617 4.603 1.6459 2.6833 3.2671 5.3861 5.0915 7.9541.9359 1.3173 1.6611 2.7462 2.411 4.1641 1.2252 2.3167 2.6052 4.5423 3.945 6.7918.2767.4646.5171.9508.7741 1.4268-.4912.1588-.9823.3179-1.4735.4771-.6453-1.0757-1.3584-2.1174-1.9216-3.2346-1.1674-2.3159-2.598-4.4719-3.9371-6.6831-.4705-.7769-1.0586-1.4818-1.5436-2.2508-.6655-1.055-1.2912-2.1355-1.9209-3.2127-.7797-1.3339-1.5428-2.6775-2.3191-4.0134-.9877-1.6995-1.9771-3.398-2.9737-5.0923-1.2797-2.1755-2.4847-4.3897-3.5888-6.6608-1.1183-2.3002-2.2215-4.6063-3.2884-6.9314-1.8943-4.1281-3.275-8.4329-4.4701-12.7982-.6075-2.219-.8362-4.5199-1.1158-6.8021-.1823-1.4873-.2613-2.9884-.4758-4.4704-.2464-1.7025-.8014-3.2897-2.1424-4.4846-.015-.1217-.0936-.1644-.2056-.1655-.0875-.0143-.158-.0533-.1982-.1363-.0225-.1274-.1041-.175-.2264-.1676-.0914-.0089-.1518-.0608-.1928-.1394-.012-.1233-.0881-.1718-.2036-.1743-.1337-.0383-.2369-.1151-.3025-.2394-.0345-.1824-.1414-.2761-.3302-.2694-.0297-.0178-.0595-.0357-.0892-.0535-.023-.1267-.1104-.1578-.2236-.1507-.0283-.0183-.0567-.0366-.085-.0548-.0211-.1234-.1053-.1577-.2167-.1534-.0307-.0163-.0614-.0325-.092-.0487-.0246-.1379-.1194-.1634-.239-.1493-.1486-.0155-.2699-.0868-.3779-.1852-.7388-.616-1.6837-.7424-2.545-1.0666-.132-.0497-.2748-.1663-.4259-.0291-.0728-.0186-.1455-.0372-.2183-.0557-.0695-.1481-.1717-.1431-.2902-.0622-.0748-.015-.1496-.03-.2244-.045-.076-.1452-.1772-.1413-.2932-.0494-.0736-.0156-.1473-.0313-.2209-.0469-.1099-.1748-.2494-.1407-.3961-.0562-.0809.0251-.1555.0165-.2211-.0408-.2855-.1607-.5725-.3124-.9127-.1589-.146.0246-.2892.0252-.4245-.047-.3602-.2272-.7386-.1308-1.1154-.0628-.1138.0296-.2229.0226-.3245-.0419-.2515-.2265-.53-.1229-.8047-.0658-.1507.0364-.2938.0143-.4305-.0564-.0824-.136-.1824-.1326-.2939-.0368-.0821.0229-.1559.0094-.2195-.0495-.1086-.1761-.2487-.1406-.3956-.0588-.0811.022-.1563.0148-.2213-.0441-.0748-.1506-.1769-.1481-.2955-.0526-.0728-.0155-.1456-.031-.2185-.0465-.0414-.1094-.0994-.1537-.1953-.05-.0722-.0186-.1445-.0373-.2167-.0559-.3784-.2192-.7655-.4081-1.2228-.357-.0724-.0189-.1449-.0377-.2173-.0566-.3142-.2158-.6808-.3032-1.0343-.423-.1431-.0229-.2394-.1041-.2947-.2364.0289-.0863.0583-.1719.0876-.2576zm65.7137.4896c-.2379.5078-.474 1.0146-1.0945 1.1703-.0431.0108-.0191.1223.0451.1678.1266.2944.253.589.3799.8833.1381.3202.3433.2915.6123.1508.4573-.2391.5006-.7339.7376-1.109.5594-.8854.1901-2.6657-.6026-3.3263-.19-.1583-.4826-.1448-.6097-.3781-.2785-.5108-.8168-.4766-1.2698-.6042-.2242-.0632-.5205.017-.4371.3137.1036.3683.0611.7804.3042 1.1088.0136.1165.0273.233.0423.3613.1935-.1059.3815-.1822.5378-.3005.2469-.1869.4652.0178.6201.0974.2064.1061-.0852.2671-.1103.419-.2588.1814-.3042.4868-.198.7042.0717.1468.4024.2074.595.0498.4913-.4019.3979.0444.4477.2917zm-31.8863 8.7659c.0262.0106.0525.0212.0787.0318-.009-.0279-.0181-.0558-.0271-.0837-.007-.204.0004-.402.038-.6084.1939-1.0654.6416-2.0356 1.0692-3.0168.1241-.2847.4738-.5023.4451-.7678-.0362-.3347-.5051-.262-.7439-.4422-.1083-.0817-.2168-.1643-.3315-.2363-.9362-.5875-1.4071-1.4934-1.6042-2.527-.0733-.3842-.1934-.4017-.4717-.3123-1.0817.3473-2.1586.7123-3.326.5241-.233-.0376-.31.1257-.1549.2629.2898.2564.4503.5989.6878.8871.9969 1.2096 1.8455 2.5251 2.7329 3.8131.5585.8109.9491 1.7302 1.6076 2.4755zm-21.0237-28.5729c-.1359.1697-.3694.3311-.3229.5503.1131.5336-.0204 1.0529-.0333 1.5762-.0311 1.2627.1181 2.4857.67 3.6298.3417.7084.731 1.3946 1.1162 2.0811.7575 1.3501 1.845 2.3873 3.0604 3.3309.7449.5783 1.392 1.2882 2.0475 1.973.2016.2106.3315.5201.416.8073.3638 1.2366.4514 2.5341 1.1554 3.6972.5031.8311.987 1.6861 1.4759 2.5317.5015.8676 1.1478 1.638 1.7417 2.4441.7259.9854 1.3771 2.032 2.1806 2.9544.5409.621 1.1823 1.1983 1.6218 1.8631.7163 1.0834 1.6016 2.0317 2.2909 3.1426.672 1.0831 1.4464 2.117 2.1082 3.2156.2784.4621.6234.8857.8183 1.4009.3422.9044.6971 1.8042 1.0634 2.6992.7029 1.7172 1.7875 3.1441 3.2511 4.2921 1.434 1.1248 2.9603 2.0839 4.6975 2.6612.9342.3104 1.8865.6059 2.8748.6506 1.1228.0508 2.2522.0803 3.3717-.0859 1.4052-.2086 2.8302-.3345 4.1405-.9563.9965-.4729 1.9892-.9541 2.9929-1.4114.7217-.3288 1.4773-.3832 2.2462-.1729.6532.1787 1.0793.6034 1.3385 1.2204.2921.6951.5355 1.3893.3651 2.1671-.0828.3783-.1278.7694-.1433 1.1566-.0165.4115.1916.5503.5911.4278.504-.1545.9925-.3417 1.455-.6058 1.222-.6978 2.4542-1.3776 3.6852-2.0595.5714-.3165 1.1494-.6212 1.7384-.9388-.1402-.117-.2807-.0796-.4089-.0925-.6308-.0635-1.1997-.2449-1.7636-.5773-.8177-.4821-1.202-1.2723-1.6655-2.0093-.4512-.7174-1.1264-1.0442-1.9331-.8293-.4911.1308-.9786.2511-1.3913.5963-.1644.1375-.4344.3011-.6586.2244-.5875-.201-1.127-.4694-1.3382-1.1513-.2022-.6528-.6814-1.1271-1.3249-1.2912-.76-.1938-1.5615-.145-2.3358-.0142-.9416.1591-1.8585.4367-2.7983.6205-1.5819.3095-3.1403.7377-4.7165 1.0791-1.1639.2521-2.3221.2912-3.4674-.178-1.1034-.452-2.0979-1.0951-3.0919-1.7262-.7361-.4674-1.3321-1.1371-1.8957-1.8127-.3762-.451-.8047-.8761-1.0929-1.3797-.9832-1.7181-1.981-3.4292-3.0778-5.0742-.9057-1.3585-1.7284-2.7682-2.6451-4.1189-.453-.6675-.8019-1.4421-1.3201-2.0237-.9493-1.0655-1.6464-2.3103-2.6038-3.3617-.857-.9411-1.6445-1.9453-2.4943-2.8932-.8439-.9412-1.733-1.8418-2.6046-2.7575-1.0524-1.1056-2.1681-2.148-3.1849-3.2913-1.0116-1.1374-1.8871-2.3623-2.7113-3.6326-.4155-.6403-.686-1.357-1.0901-2.0076-.3707-.5969-.6695-1.2447-.9803-1.8773-.3142-.6394-.5324-1.33-.7506-2.0116-.2682-.8378-.5468-1.6774-.5849-2.5694.079-.0326.0995-.1101.0501-.1551-.0689-.0631-.0987.0282-.1345.0729zm-11.1852-5.1855c.324-.0745.4027-.2825.5207-.4251.8878-1.0732 1.8403-2.0691 2.9681-2.9056 1.4101-1.0459 2.8185-2.0953 4.3997-2.8639 1.3619-.6621 2.7642-1.2336 4.2999-1.3981 1.2057-.1291 2.2827.2033 3.3062.7925.0856.0493.1797.1093.2307.1893.6598 1.0342 1.2702 2.0943 1.7936 3.2072.6095 1.2959 1.3291 2.4941 2.6968 3.1822.8002.4026 1.4345 1.0889 1.9204 1.8181.6346.9522 1.5647 1.5102 2.459 2.1002.8704.5742 1.8802.9409 2.7787 1.4676 1.0735.6293 2.2223 1.0532 3.3637 1.4843 1.9384.7322 3.804 1.593 5.5515 2.7021.4868.309 1.0007.6276 1.3725 1.0547.7751.8902 1.2841 1.9707 1.9194 2.9622.3006.4691.5811.951.8796 1.4214.525.8275 1.063 1.6475 1.489 2.5324.1972.4097.5039.771.8875.9266 1.3428.5447 2.227 1.623 3.1422 2.6402 1.4465 1.6077 2.4143 3.5367 3.3449 5.4674.2232.4631.4346.9532.6177 1.4468.2647.7136.4792 1.4517.8698 2.1163.0838.1425.1936.2652.226.4508.1501.8608.5685 1.6311.8635 2.4434.3294.9073.7173 1.7964.9945 2.7191.3505 1.1666.7387 2.3324.856 3.554.1083 1.1275.3786 2.2649-.0373 3.3855-.1672.4506-.0403.5557.4341.5687 1.415.0387 2.7684.2688 3.4806 1.733.1827.3757.3863.4118.7638.2381.9738-.4482 1.9562-.5522 2.9189.0821.2236.1473.4087.3725.7097.4212.2032-.4613.2894-.9472.2629-1.4428-.0572-1.0724-.1546-2.1428-.2088-3.2153-.0913-1.8049-.3279-3.5951-.5285-5.3886-.1457-1.302-.3787-2.5895-.6786-3.8671-.2083-.8877-.3704-1.7822-.612-2.6668-.3483-1.2753-.4936-2.6111-.9021-3.8703-.5655-1.7428-1.0064-3.5211-1.6544-5.2437-.5789-1.5391-.9362-3.1631-1.4319-4.7389-.5566-1.7693-1.0393-3.5615-1.6819-5.304-.0621-.1684-.156-.334-.1068-.5425.1604-.6783.3158-1.3586.4443-2.0435.3402-1.8136.8756-3.5868.8285-5.474-.0352-1.412-.3617-2.7608-.678-4.1036-.3294-1.3987-.7329-2.8018-1.4541-4.0715-.3055-.5378-.5336-1.1388-1.119-1.5877 0 .4422-.0397.8144.0068 1.1755.2096 1.6261-.0288 3.2291-.2304 4.8322-.1134.9021-.3564 1.7709-.9914 2.4701-.3561.3921-.7739.7241-1.0949 1.1531-.1245.1664-.1666.3147-.1455.5165.0662.6326.1133 1.2673.1667 1.9013.0562.6678-.2327 1.2819-.3018 1.9299-.1412 1.3233-.7944 2.4182-1.6987 3.315-.9632.9552-2.1003.6381-3.3979-.0405-.8144-.4259-1.5002-1.0436-2.2236-1.6049-.7636-.5925-1.412-1.2558-1.8754-2.127-.6904-1.2978-1.8009-2.0876-3.2476-2.3984-1.2008-.258-2.359-.6769-3.4505-1.2136-1.2869-.6327-2.5314-1.3638-3.6552-2.2757-.6155-.4995-1.2802-.9428-1.8636-1.4762-.715-.6537-1.4046-1.3369-2.0428-2.0731-.5878-.678-1.1822-1.3406-1.6299-2.1274-.3531-.6205-.6717-1.258-1.0109-1.8846-.5837-1.0783-.9779-2.2195-1.2096-3.4137-.0647-.3334-.2339-.6601-.1993-.9966.091-.8854.1241-1.7342-.244-2.5983-.1798-.4219-.395-.5153-.7678-.5561-1.0395-.1138-2.0828-.0936-3.1252-.1144-1.2844-.0257-2.5609.0732-3.8085.3683-1.5032.3555-3.0205.6507-4.49 1.1554-1.2828.4405-2.5924.8084-3.7795 1.4782-.6328.357-1.2946.6497-1.9336.9861-.7298.3842-1.3793.9187-2.0984 1.3265-.504.2858-.7794.8223-1.264 1.0879-1.4572.7988-2.5101 2.049-3.6131 3.2262-.9274.9897-1.742 2.0892-2.5645 3.172-.7723 1.0168-1.528 2.0481-2.0953 3.2046-.5071 1.0338-1.0527 2.0488-1.5831 3.0712-.3443.6638-.7632 1.2992-1.0236 1.9942-.63 1.682-1.4118 3.3004-1.9779 5.0114-.73 2.2065-1.5579 4.3789-2.034 6.6637-.094.4512-.06.9454-.2349 1.3472-.369.8478-.3029 1.7483-.4557 2.6187-.1933 1.1018-.0528 2.2323-.2668 3.3442-.1631.8475-.1649 1.7255-.2515 2.5886-.0298.2972.0827.3948.3717.3857.5966-.0189 1.1995-.0575 1.7829.1036.6992.193 1.4461.268 2.0165.7975.8902.8263 1.4305 1.8938 1.9427 2.956.3354.6956.567 1.4543 1.0308 2.0735.9521 1.2714 1.5808 2.6857 2.0893 4.1778.3068.9005.2961 1.8286.2066 2.7159-.1404 1.3915-.3618 2.7831-.703 4.1514-.1949.7814-.2561 1.596-.3798 2.3953-.1951 1.2599-.9422 2.1203-2.0235 2.7063-1.2691.6878-2.6775.9488-4.0712 1.2404-.2115.0443-.2815.0464-.2004.3111.1481.4828.2334.9891.3013 1.4914.1663 1.2302.6048 2.4022.7593 3.6346.0242.1928.1223.3604.3806.3004.9039-.2099 1.8071-.0197 2.6955.0834.5248.0609 1.0817-.0132 1.5943.2806.9835.5638 1.3633 1.592 1.9437 2.4522.604.8954 1.0683 1.8847 1.5979 2.8306.3882.6933.7682 1.3505.7259 2.2254-.0455.9415-.2024 1.8602-.2924 2.7899-.1203 1.2428-.389 2.4441-.7083 3.6415-.0503.1886-.1589.3325-.3365.4323-.69.388-1.4316.5606-2.3018.553 2.4783 5.7549 4.6814 11.5946 7.6775 17.0896.0542-.074.0614-.1343.0592-.1943-.0631-1.74.5459-3.2835 1.4874-4.6888.7069-1.0552 1.0468-2.1687.894-3.4158-.1659-1.3548-.8133-2.4325-2.1412-2.8843-1.0807-.3676-1.8237-1.054-2.2545-2.0392-.6775-1.5491-.3448-3.0478.5-4.4415.4504-.7431.9481-1.4636 1.4847-2.1471 1.3626-1.7357 1.9-3.7041 1.7961-5.8838-.0335-.7025-.1651-1.3836-.304-2.0683-.3186-1.5714-1.2805-2.6517-2.5797-3.5093-1.0693-.7058-2.0709-1.4714-2.5028-2.7846-.6784-2.0627-.2663-3.9063.9288-5.6598.9856-1.4461 1.8191-2.9664 2.0992-4.7395.2746-1.738.2665-3.4555-.1545-5.1693-.3768-1.534-.897-2.9875-1.9273-4.2355-.4082-.4945-.8643-.9433-1.2596-1.4402-.4581-.5758-.9596-1.1033-1.478-1.6188-.8901-.8852-1.8367-1.7553-2.4165-2.8608-.3875-.7387-.8266-1.4601-1.1778-2.2306-.6721-1.4744-.8964-3.0196-1.1671-4.5759-.1461-.8401-.0923-1.6789-.1339-2.5179-.0606-1.2199-.2525-2.4327-.0551-3.6564.046-.2856.0805-.5748.0937-.8635.0564-1.2334.2593-2.4541.623-3.6201.5214-1.6717.861-3.3964 1.5735-5.017.4848-1.1028.9028-2.2389 1.4344-3.322.6992-1.4247 1.4945-2.7911 2.4426-4.0743.6555-.8872 1.2717-1.8001 1.9831-2.6485.9725-1.1598 2.3219-1.82 3.4783-2.7341.3332-.2634.7101-.2819.9605.0104.2357.2752.2096.6624-.0455.9839-.188.2368-.3864.4699-.5402.7284-.4781.804-1.0391 1.5561-1.4565 2.3991-.3414.6888-.8006 1.3187-1.138 2.1081zm23.3724-13.1167c-.0006.6089-.0947 1.0898.0588 1.5251.3532 1.0014.5948 2.0315 1.0572 3.0093.7807 1.6512 1.8241 3.0972 3.0251 4.4403 1.181 1.3207 2.5549 2.4201 4.0308 3.4063 1.866 1.247 3.8138 2.3313 6.0184 2.7957 1.6448.3465 2.9411 1.1485 3.8072 2.538.6241 1.0013 1.3351 1.8783 2.3007 2.5417.805.5531 1.5199 1.2452 2.5241 1.4872.7127.1717 1.3993.061 1.7439-.3403.5779-.673.9871-1.4247 1.1465-2.2936.235-1.2815.5387-2.5701.0474-3.8593-.1192-.3126-.0398-.5777.125-.8212.1903-.281.3822-.5621.6339-.8008.6185-.5867 1.1541-1.2286 1.342-2.0978.355-1.6426.4147-3.3099.409-4.9799-.0026-.7537-.1849-1.4889-.5034-2.1723-.17-.3647-.3267-.7804-.6821-1.003-1.6716-1.0471-3.5144-1.5112-5.4761-1.5304-1.6816-.0164-3.3148.4618-5.0065.4421-1.8413-.0215-3.6222-.3155-5.3199-.9713-1.8781-.7255-3.7985-1.3248-5.6827-2.0294-.6404-.2395-1.351-.2904-1.9928-.5269-1.1566-.4261-2.385-.5275-3.5581-.8675-.1171-.034-.3079-.0521-.2273.1878.2267.6756.1735 1.3742.1789 1.9202zm-38.4474 49.9417c-.055.2137.0612.4555.0903.7079.2921 2.5291.4345 5.0725.745 7.6006.1815 1.4778.4361 2.9379.7628 4.3893.0652.2896.1366.3001.392.2526 1.0079-.1872 1.9628-.5562 2.9464-.8253 1.194-.3267 2.0394-1.0793 2.2758-2.3006.4015-2.0738.848-4.1422 1.0899-6.2444.1249-1.0858.0821-2.1817-.3505-3.1814-.4664-1.0777-.9495-2.1433-1.6357-3.1362-.8134-1.1768-1.2641-2.5887-2.0699-3.7946-.4219-.6313-.7201-1.4043-1.5351-1.6232-.7108-.1909-1.4321-.3681-2.1937-.3009-.7112.0627-.8193.11-.8713.8288-.0934 1.2916.0728 2.5792.0965 3.8695.0226 1.2372.1644 2.4723.2575 3.7579zm71.2824-30.1221c-.2765.8808-.4957 1.7047-.4908 2.5517.0042.7254.3432 1.3953.5457 2.085.3243 1.1047.7089 2.1915 1.0489 3.2918.4503 1.4573.8359 2.9363 1.3349 4.3764.4843 1.3975.9346 2.8053 1.33 4.2272.4223 1.5189.7728 3.0592 1.1465 4.5916.4268 1.75.825 3.5032 1.1541 5.2725.1617.8695.3709 1.7446.3944 2.6215.0277 1.0378.2304 2.0519.3457 3.0704.1778 1.5711.2404 3.1488.395 4.7197.1081 1.0981-.2743 2.1508-.6361 3.1814-.0437.1244-.068.2108.0069.3281.3374.528.8514.8274 1.4114 1.0306 1.0681.3877 1.8529-.2984 2.6787-.782.1092-.0639.166-.2081.0398-.3933-.2411-.3538-.5793-.6111-.8389-.937-.5561-.6983-1.0577-1.4759-.9973-2.3891.0521-.787.2697-1.5791.5195-2.334.6651-2.0099.4479-3.9314-.574-5.7391-.7478-1.3228-1.4023-2.6768-1.8719-4.1174-.4746-1.4557-.9203-2.9209-1.3664-4.3856-.1681-.5521-.2932-1.1171-.4533-1.6717-.3264-1.1309-.4829-2.2796-.5059-3.4594-.0133-.681.3519-1.0971 1.0444-1.061.4956.0258.9882.0813 1.55.188-.5375-1.2029-1.1122-2.2094-2.4411-2.5005-.3486-.0764-.6122-.3654-.6353-.7239-.0517-.8023-.2252-1.5839-.3309-2.3763-.2522-1.8914-1.0573-3.5916-1.9019-5.2615-.5735-1.1339-1.2945-2.1937-1.9021-3.4041zm-66.5214 55.7006c1.0038-.5276 1.5746-.4975 2.0337.488.3062.6571.4458 1.332.5836 2.0177.1553.7725-.2056 1.3231-.9434 1.5057-.2734.0677-.3774.2176-.2667.4796.4699 1.1119.9352 2.2261 1.4246 3.3294.1671.3768.3786.7504.9091.4155.1211-.0765.2929-.0344.4496-.0197.8591.0806 1.1582-.1513 1.3378-.9966.0602-.2834.1058-.5711.1856-.8489.3042-1.058.2897-2.1624.4768-3.2391.1418-.8161.1945-1.6759-.2483-2.4506-.9338-1.6335-1.9183-3.2365-2.9599-4.8037-.1884-.2834-.3945-.5979-.7574-.6521-1.0759-.1607-2.1578-.2732-3.2488-.2652-.2203.0016-.3107.0771-.2512.3083.1215.4722.2191.9507.3477 1.4208.2996 1.0956.6118 2.1877.9272 3.3109zm51.3046-38.3301c0-.1194.0106-.24-.0016-.3581-.1212-1.1675-.7489-2.0687-1.6467-2.7331-.7128-.5275-1.5947-.6815-2.4935-.7834-.8789-.0997-1.5261.4478-2.2945.6355-.207.0506-.4217.4566-.6379.6947-1.1209 1.2346-1.4998 2.6643-1.0246 4.2632.1944.6539.5751 1.328 1.1688 1.6294 1.1459.5816 2.2981 1.0843 3.7243.7519 1.3565-.3161 2.1868-1.1411 2.9008-2.1697.3849-.5546.3192-1.2674.3049-1.9304zm25.8929 14.5307c-.0591.9002-.2179 1.7485-.5201 2.5647-.2205.5957-.3018 1.218-.3858 1.8375-.0492.3626-.1337.8031.0176 1.0941.3867.7435.9025 1.4173 1.6044 1.9168.2039.1451.2807.0372.3916-.1341.1456-.225.1327-.4855.225-.7238.3631-.9371.6194-1.9037.4423-2.9263-.118-.6811-.4906-1.2666-.7808-1.8735-.2863-.5985-.7038-1.1362-.9942-1.7554zm-76.0006 27.4033c.1164-.2556.2285-.4766.3193-.706.2349-.5936.2593-1.1917-.0077-1.783-.1812-.4014-.5219-.5432-.9372-.5219-.2345.0121-.3316.0744-.2659.3846.1899.895.437 1.7627.8915 2.6263zm61.5893-74.2768c-.0079-.011-.0157-.022-.0236-.033-.0104.0086-.0279.0163-.0292.0261s.0137.0217.0215.0327c.0105-.0086.0209-.0172.0313-.0258z" fill="#0c0d0d"/><path d="m50.4891 134.6472c-.3261-.7222-.6521-1.4444-1.0216-2.2627 1.1025.5594 2.1847.9179 3.2777 1.2341 2.2439.649 4.4208 1.5726 6.7641 1.8231 1.8438.1971 3.6588.5481 5.4758.8853 1.2323.2287 2.4681.4899 3.6478.928.4053.1505.8118.3609 1.1245.692-1.6583.0372-3.3021-.1521-4.9508-.2903-2.2247-.1865-4.4305-.4972-6.6148-.9444-2.6075-.534-5.1987-1.14-7.7027-2.0651z" fill="#6e5949"/><path d="m44.3384 62.5818c-.0293.0856-.0586.1713-.088.2569-.6113-.5433-1.0228-1.2356-1.5054-1.9381.3607.0131.5183.1438.6716.4172.2532.4517.6091.8457.9218 1.264z" fill="#0e0e0d"/><path d="m54.9522 65.095c.1511-.1372.2939-.0206.4259.0291.8612.3243 1.8062.4507 2.545 1.0666-.9588-.4506-1.96-.7862-2.9709-1.0957z" fill="#0e0e0d"/><path d="m89.9889 58.867c-.1996-.1784-.2698-.4632-.5081-.6118-.0739-.0461-.1223-.1236-.0486-.2076.0667-.0759.1455-.0665.2162.0019.1777.172.4368.2716.4925.5524-.0206.1057-.046.2085-.152.2651z" fill="#dbe3aa"/><g fill="#0e0e0d"><path d="m50.6354 64.4699c.3768-.068.7552-.1644 1.1154.0628-.3755.0464-.7487.0487-1.1154-.0628z"/><path d="m45.7967 63.5548c.4573-.0512.8445.1378 1.2228.357-.4275-.0507-.818-.2283-1.2228-.357z"/><path d="m44.5451 63.0752c.3534.1198.7201.2072 1.0343.423-.3859-.0406-.7497-.1349-1.0343-.423z"/><path d="m52.1753 64.5797c.3402-.1535.6273-.0017.9127.1589-.3137.0019-.6158-.0636-.9127-.1589z"/><path d="m49.5062 64.3622c.2747-.0571.5532-.1608.8047.0658-.2726.0319-.5411.0133-.8047-.0658z"/><path d="m53.3091 64.7795c.1467-.0845.2862-.1186.3961.0562-.1383.0259-.2717.0169-.3961-.0562z"/><path d="m48.1668 64.1607c.1469-.0819.287-.1174.3956.0588-.1386.0255-.2713.0118-.3956-.0588z"/><path d="m59.2465 66.9864c.1888-.0067.2957.087.3302.2694-.1453-.0466-.2555-.1363-.3302-.2694z"/><path d="m54.4437 64.9771c.1185-.0809.2208-.0859.2902.0622-.1078.0313-.2047.0111-.2902-.0622z"/><path d="m53.9262 64.8826c.116-.0918.2172-.0958.2932.0494-.1064.035-.2048.0221-.2932-.0494z"/><path d="m48.7819 64.269c.1115-.0958.2114-.0992.2939.0368-.1043.0376-.2029.0305-.2939-.0368z"/><path d="m47.6499 64.064c.1186-.0955.2207-.098.2955.0526-.108.0361-.2046.0078-.2955-.0526z"/><path d="m58.9337 66.7821c.1132-.0071.2006.024.2236.1507-.1024-.0088-.1795-.0552-.2236-.1507z"/><path d="m59.8791 67.4952c.1155.0025.1916.051.2036.1743-.1007-.0198-.1707-.0754-.2036-.1743z"/><path d="m60.2756 67.8089c.1223-.0074.2039.0402.2264.1676-.1054-.0155-.1808-.0714-.2264-.1676z"/><path d="m60.7002 68.1128c.112.0012.1906.0438.2056.1655-.0962-.0207-.1776-.06-.2056-.1655z"/><path d="m58.632 66.5739c.1115-.0043.1957.03.2167.1534-.1022-.0087-.1739-.0606-.2167-.1534z"/><path d="m58.301 66.3759c.1195-.0141.2144.0114.239.1493-.1048-.0096-.1876-.0542-.239-.1493z"/><path d="m47.2362 63.9676c.0959-.1037.1539-.0595.1953.05-.0788.0368-.1411.0094-.1953-.05z"/></g><path d="m45.9569 38.0789c.3374-.7893.7967-1.4192 1.1379-2.1086.4174-.8429.9783-1.5951 1.4565-2.3991.1537-.2585.3522-.4916.5402-.7284.2551-.3215.2812-.7087.0455-.9839-.2504-.2922-.6273-.2737-.9605-.0104-1.1565.9141-2.5059 1.5743-3.4783 2.7341-.7114.8484-1.3276 1.7614-1.9831 2.6485-.9481 1.2831-1.7433 2.6496-2.4426 4.0743-.5316 1.083-.9496 2.2192-1.4344 3.322-.7125 1.6206-1.0521 3.3453-1.5735 5.017-.3637 1.166-.5666 2.3867-.623 3.6201-.0132.2888-.0476.578-.0937.8635-.1973 1.2237-.0054 2.4364.0551 3.6564.0416.839-.0122 1.6778.1339 2.5179.2707 1.5563.4949 3.1014 1.1671 4.5759.3512.7705.7903 1.4918 1.1778 2.2306.5798 1.1054 1.5265 1.9756 2.4165 2.8608.5183.5155 1.0199 1.0429 1.478 1.6188.3953.4969.8514.9457 1.2596 1.4402 1.0303 1.248 1.5505 2.7015 1.9273 4.2355.421 1.7138.429 3.4313.1545 5.1693-.2801 1.7731-1.1135 3.2934-2.0992 4.7395-1.1952 1.7535-1.6072 3.597-.9288 5.6598.4319 1.3132 1.4335 2.0788 2.5028 2.7846 1.2992.8576 2.261 1.9379 2.5797 3.5093.1388.6846.2704 1.3658.304 2.0683.104 2.1797-.4334 4.1481-1.7961 5.8838-.5365.6835-1.0343 1.404-1.4847 2.1471-.8448 1.3938-1.1775 2.8924-.5 4.4415.4309.9852 1.1739 1.6716 2.2545 2.0392 1.3279.4518 1.9753 1.5295 2.1412 2.8843.1527 1.2471-.1871 2.3606-.894 3.4158-.9414 1.4053-1.5504 2.9488-1.4874 4.6888.0022.06-.0051.1203-.0592.1943-2.9962-5.495-5.1992-11.3347-7.6775-17.0896.8702.0076 1.6118-.165 2.3018-.553.1776-.0998.2862-.2437.3365-.4323.3192-1.1974.588-2.3988.7083-3.6415.09-.9297.2469-1.8484.2924-2.7899.0423-.8749-.3377-1.5321-.7259-2.2254-.5296-.9459-.994-1.9352-1.5979-2.8306-.5803-.8603-.9601-1.8885-1.9437-2.4522-.5126-.2938-1.0695-.2197-1.5943-.2806-.8884-.1031-1.7917-.2933-2.6955-.0834-.2583.06-.3564-.1076-.3806-.3004-.1545-1.2324-.5929-2.4044-.7593-3.6346-.0679-.5024-.1533-1.0086-.3013-1.4914-.0812-.2647-.0111-.2668.2004-.3111 1.3937-.2916 2.802-.5526 4.0712-1.2404 1.0813-.586 1.8285-1.4464 2.0235-2.7063.1238-.7993.1849-1.6139.3798-2.3953.3413-1.3683.5627-2.7599.703-4.1514.0895-.8874.1002-1.8155-.2066-2.7159-.5084-1.4921-1.1371-2.9063-2.0893-4.1778-.4637-.6192-.6954-1.3779-1.0308-2.0735-.5121-1.0622-1.0525-2.1297-1.9427-2.956-.5704-.5294-1.3173-.6044-2.0165-.7975-.5834-.1611-1.1863-.1224-1.7829-.1036-.289.0091-.4015-.0885-.3717-.3857.0866-.8631.0884-1.7411.2515-2.5886.214-1.1119.0735-2.2425.2668-3.3442.1528-.8704.0867-1.7709.4557-2.6187.1749-.4018.1409-.8959.2349-1.3472.4761-2.2848 1.3039-4.4572 2.034-6.6637.5661-1.711 1.3478-3.3294 1.9779-5.0114.2603-.695.6792-1.3304 1.0236-1.9942.5304-1.0224 1.076-2.0373 1.5831-3.0712.5673-1.1565 1.323-2.1877 2.0953-3.2046.8224-1.0828 1.6371-2.1823 2.5645-3.172 1.103-1.1771 2.1559-2.4274 3.6131-3.2262.4846-.2656.76-.8021 1.264-1.0879.7192-.4078 1.3686-.9423 2.0984-1.3265.639-.3364 1.3008-.6291 1.9336-.9861 1.1871-.6698 2.4967-1.0377 3.7795-1.4782 1.4695-.5046 2.9868-.7998 4.49-1.1554 1.2476-.2951 2.5241-.394 3.8085-.3683 1.0424.0209 2.0857.0006 3.1252.1144.3728.0408.588.1342.7678.5561.3682.8641.3351 1.7129.244 2.5983-.0346.3365.1347.6631.1993.9966.2316 1.1942.6258 2.3355 1.2096 3.4137.3392.6267.6578 1.2641 1.0109 1.8846.4477.7868 1.0421 1.4494 1.6299 2.1274.6383.7362 1.3278 1.4194 2.0428 2.0731.5834.5334 1.2481.9767 1.8636 1.4762 1.1237.912 2.3683 1.643 3.6552 2.2757 1.0916.5367 2.2497.9557 3.4505 1.2136 1.4466.3108 2.5572 1.1006 3.2476 2.3984.4634.8712 1.1118 1.5345 1.8754 2.127.7234.5613 1.4092 1.179 2.2236 1.6049 1.2975.6786 2.4347.9957 3.3979.0405.9043-.8968 1.5576-1.9916 1.6987-3.315.0691-.648.358-1.2621.3018-1.9299-.0534-.634-.1005-1.2686-.1667-1.9013-.0211-.2019.021-.3501.1455-.5165.321-.429.7388-.761 1.0949-1.1531.635-.6991.878-1.568.9914-2.4701.2016-1.6031.44-3.2061.2304-4.8322-.0465-.3611-.0068-.7333-.0068-1.1755.5854.449.8135 1.0499 1.119 1.5877.7212 1.2697 1.1247 2.6728 1.4541 4.0715.3163 1.3428.6428 2.6916.678 4.1036.0471 1.8871-.4883 3.6604-.8285 5.474-.1285.6849-.2839 1.3652-.4443 2.0435-.0493.2085.0447.3741.1068.5425.6426 1.7425 1.1253 3.5348 1.6819 5.304.4957 1.5758.853 3.1998 1.4319 4.7389.648 1.7226 1.0889 3.5009 1.6544 5.2437.4085 1.2592.5538 2.5949.9021 3.8703.2416.8846.4037 1.7791.612 2.6668.2999 1.2776.5329 2.5651.6786 3.8671.2006 1.7936.4372 3.5837.5285 5.3886.0543 1.0725.1516 2.1429.2088 3.2153.0264.4955-.0597.9815-.2629 1.4428-.301-.0488-.4861-.2739-.7097-.4212-.9627-.6343-1.9451-.5302-2.9189-.0821-.3775.1737-.581.1377-.7638-.2381-.7122-1.4642-2.0656-1.6943-3.4806-1.733-.4743-.013-.6013-.1181-.4341-.5687.4159-1.1206.1456-2.2579.0373-3.3855-.1173-1.2216-.5055-2.3874-.856-3.554-.2772-.9226-.6651-1.8117-.9945-2.7191-.295-.8123-.7134-1.5826-.8635-2.4434-.0324-.1856-.1422-.3082-.226-.4508-.3906-.6646-.6051-1.4027-.8698-2.1163-.1831-.4937-.3945-.9838-.6177-1.4468-.9306-1.9307-1.8984-3.8598-3.3449-5.4674-.9152-1.0172-1.7995-2.0955-3.1422-2.6402-.3837-.1556-.6903-.517-.8875-.9266-.426-.8849-.964-1.7049-1.489-2.5324-.2985-.4705-.579-.9523-.8796-1.4214-.6353-.9915-1.1443-2.072-1.9194-2.9622-.3718-.4271-.8857-.7457-1.3725-1.0547-1.7475-1.1091-3.6131-1.9699-5.5515-2.7021-1.1415-.4311-2.2902-.855-3.3637-1.4843-.8985-.5267-1.9083-.8935-2.7787-1.4676-.8943-.59-1.8244-1.1479-2.459-2.1002-.486-.7292-1.1202-1.4154-1.9204-1.8181-1.3677-.6882-2.0873-1.8864-2.6968-3.1822-.5235-1.113-1.1338-2.173-1.7936-3.2072-.051-.08-.1451-.14-.2307-.1893-1.0235-.5892-2.1005-.9216-3.3062-.7925-1.5358.1645-2.938.7361-4.2999 1.3981-1.5812.7686-2.9896 1.818-4.3997 2.8639-1.1278.8365-2.0803 1.8324-2.9681 2.9056-.1179.143-.1966.3511-.5206.4256z" fill="#6f5a48"/><path d="m69.3293 24.9622c-.0054-.546.0478-1.2446-.1789-1.9201-.0805-.2399.1102-.2218.2273-.1878 1.1731.34 2.4016.4413 3.5581.8675.6419.2365 1.3524.2874 1.9928.5269 1.8842.7046 3.8046 1.3039 5.6827 2.0294 1.6977.6558 3.4786.9498 5.3199.9713 1.6917.0197 3.3249-.4585 5.0065-.4421 1.9617.0191 3.8045.4833 5.4761 1.5304.3555.2227.5122.6383.6821 1.003.3185.6834.5009 1.4186.5034 2.1723.0057 1.67-.054 3.3373-.409 4.9799-.1878.8693-.7235 1.5111-1.342 2.0978-.2516.2387-.4436.5198-.6339.8008-.1648.2434-.2442.5085-.125.8212.4913 1.2892.1876 2.5778-.0474 3.8593-.1593.869-.5685 1.6207-1.1465 2.2936-.3447.4013-1.0313.5121-1.7439.3403-1.0043-.242-1.7191-.9341-2.5241-1.4872-.9656-.6634-1.6766-1.5403-2.3007-2.5417-.8661-1.3895-2.1625-2.1915-3.8072-2.538-2.2047-.4644-4.1524-1.5487-6.0184-2.7957-1.4758-.9862-2.8498-2.0856-4.0308-3.4063-1.201-1.3432-2.2444-2.7892-3.0251-4.4403-.4624-.9779-.704-2.0079-1.0572-3.0093-.1535-.4354-.0594-.9163-.0588-1.5252z" fill="#fbe066"/><path d="m57.2267 43.3464c.0381.892.3167 1.7316.5849 2.5694.2182.6816.4364 1.3722.7506 2.0116.3108.6326.6096 1.2804.9803 1.8773.4041.6506.6746 1.3672 1.0901 2.0076.8242 1.2703 1.6997 2.4951 2.7113 3.6326 1.0168 1.1434 2.1325 2.1857 3.1849 3.2913.8716.9157 1.7607 1.8163 2.6046 2.7575.8499.9479 1.6374 1.952 2.4943 2.8932.9574 1.0514 1.6545 2.2962 2.6038 3.3617.5181.5815.867 1.3561 1.3201 2.0237.9167 1.3507 1.7394 2.7604 2.6451 4.1189 1.0967 1.645 2.0945 3.3562 3.0778 5.0742.2882.5036.7166.9287 1.0929 1.3797.5636.6756 1.1595 1.3453 1.8957 1.8127.994.6311 1.9885 1.2742 3.0919 1.7262 1.1453.4692 2.3035.4301 3.4674.178 1.5762-.3414 3.1346-.7696 4.7165-1.0791.9398-.1838 1.8567-.4615 2.7983-.6205.7743-.1308 1.5758-.1796 2.3358.0142.6435.1641 1.1226.6383 1.3249 1.2912.2113.6819.7507.9503 1.3382 1.1513.2242.0767.4942-.0868.6586-.2244.4126-.3452.9002-.4655 1.3913-.5963.8068-.2149 1.4819.1119 1.9331.8293.4634.737.8477 1.5271 1.6655 2.0093.5639.3325 1.1328.5138 1.7636.5773.1282.0129.2688-.0244.4089.0925-.589.3176-1.167.6223-1.7384.9388-1.231.6819-2.4632 1.3617-3.6852 2.0595-.4625.2641-.9511.4513-1.455.6058-.3995.1225-.6076-.0163-.5911-.4278.0155-.3872.0605-.7784.1433-1.1566.1703-.7778-.0731-1.472-.3651-2.1671-.2593-.617-.6853-1.0417-1.3385-1.2204-.7689-.2104-1.5245-.156-2.2462.1729-1.0036.4573-1.9964.9385-2.9929 1.4114-1.3103.6218-2.7353.7477-4.1405.9563-1.1195.1662-2.2489.1367-3.3717.0859-.9883-.0447-1.9406-.3401-2.8748-.6506-1.7372-.5773-3.2635-1.5364-4.6975-2.6612-1.4636-1.148-2.5482-2.5749-3.2511-4.2921-.3663-.8949-.7212-1.7948-1.0634-2.6992-.195-.5152-.5399-.9388-.8183-1.4009-.6618-1.0986-1.4361-2.1325-2.1082-3.2156-.6893-1.1109-1.5745-2.0592-2.2909-3.1426-.4395-.6647-1.081-1.2421-1.6218-1.8631-.8035-.9224-1.4547-1.9691-2.1806-2.9544-.5939-.8061-1.2401-1.5765-1.7417-2.4441-.4888-.8456-.9728-1.7006-1.4759-2.5317-.704-1.163-.7916-2.4605-1.1554-3.6972-.0845-.2872-.2144-.5967-.416-.8073-.6555-.6848-1.3026-1.3946-2.0475-1.973-1.2154-.9436-2.3029-1.9808-3.0604-3.3309-.3852-.6865-.7745-1.3727-1.1162-2.0811-.5519-1.1441-.7011-2.3671-.67-3.6298.0129-.5233.1464-1.0426.0333-1.5762-.0465-.2192.187-.3806.3229-.5503.028.0275.0562.0549.0844.0822z" fill="#f5f3d9"/><path d="m30.8819 74.9039c-.0931-1.2856-.2349-2.5206-.2576-3.7578-.0236-1.2904-.1899-2.5779-.0965-3.8695.052-.7188.1601-.7661.8713-.8288.7616-.0672 1.4829.11 2.1937.3009.815.2188 1.1132.9918 1.5351 1.6232.8058 1.2059 1.2566 2.6177 2.0699 3.7946.6862.9929 1.1693 2.0585 1.6357 3.1362.4327.9997.4754 2.0956.3505 3.1814-.2419 2.1022-.6884 4.1706-1.0899 6.2444-.2364 1.2214-1.0818 1.9739-2.2758 2.3006-.9836.2691-1.9385.6381-2.9464.8253-.2554.0474-.3268.037-.392-.2526-.3267-1.4515-.5813-2.9116-.7628-4.3893-.3106-2.5281-.4529-5.0715-.745-7.6006-.029-.2525-.1452-.4944-.0902-.708zm.9083 2.0576c-.0845.9614.1601 1.8962.2432 2.8433.0303.3447.2174.5906.5464.7991.7642.4845 1.5177.2897 2.2638.0555.4821-.1514.617-.6185.6273-1.0746.0064-.282-.1033-.5657-.1516-.8501-.1891-1.1125-.4016-2.222-.5493-3.34-.0684-.5176-.1521-.9828-.6877-1.1919-.625-.244-1.3491-.1144-1.6877.3577-.3638.5074-.7733 1.0214-.6118 1.7356.0479.2115.0074.4431.0074.6654z" fill="#fadf65"/><path d="m102.1643 44.7818c.6076 1.2104 1.3286 2.2702 1.902 3.4041.8446 1.6699 1.6496 3.3701 1.9019 5.2615.1057.7925.2792 1.5741.3309 2.3763.0231.3585.2867.6475.6353.7239 1.329.2911 1.9036 1.2976 2.4411 2.5005-.5618-.1067-1.0544-.1622-1.55-.188-.6925-.036-1.0577.3801-1.0444 1.061.023 1.1799.1795 2.3286.5059 3.4594.1601.5547.2852 1.1197.4533 1.6717.4461 1.4648.8919 2.9299 1.3664 4.3856.4696 1.4405 1.1241 2.7946 1.8719 4.1174 1.0219 1.8077 1.2391 3.7291.574 5.7391-.2498.7549-.4674 1.547-.5195 2.334-.0604.9131.4412 1.6908.9973 2.3891.2595.3259.5978.5832.8389.937.1262.1852.0694.3294-.0398.3933-.8258.4836-1.6106 1.1696-2.6787.782-.56-.2033-1.074-.5026-1.4114-1.0306-.0749-.1172-.0506-.2037-.0069-.3281.3618-1.0306.7442-2.0833.6361-3.1814-.1546-1.5709-.2172-3.1486-.395-4.7197-.1153-1.0185-.3179-2.0327-.3457-3.0704-.0235-.8769-.2327-1.7521-.3944-2.6215-.3291-1.7693-.7273-3.5225-1.1541-5.2725-.3737-1.5324-.7242-3.0727-1.1465-4.5916-.3953-1.4219-.8457-2.8297-1.33-4.2272-.499-1.4401-.8846-2.9191-1.3349-4.3764-.3399-1.1003-.7246-2.1871-1.0489-3.2918-.2024-.6897-.5415-1.3596-.5457-2.085-.0048-.847.2144-1.6709.4909-2.5517z" fill="#dbe3aa"/><path d="m35.6429 100.4824c-.3154-1.1232-.6276-2.2153-.9273-3.3108-.1286-.4701-.2262-.9486-.3477-1.4208-.0595-.2312.0309-.3067.2512-.3083 1.091-.008 2.1729.1046 3.2488.2652.3629.0542.569.3687.7574.6521 1.0417 1.5671 2.0261 3.1701 2.9599 4.8037.4428.7747.3901 1.6345.2483 2.4506-.1871 1.0766-.1726 2.1811-.4768 3.2391-.0799.2778-.1254.5655-.1856.8489-.1797.8453-.4787 1.0773-1.3378.9966-.1567-.0147-.3284-.0568-.4496.0197-.5305.3349-.7419-.0387-.9091-.4155-.4894-1.1034-.9546-2.2175-1.4246-3.3294-.1107-.2619-.0066-.4119.2667-.4796.7378-.1826 1.0987-.7332.9434-1.5057-.1378-.6858-.2775-1.3606-.5836-2.0177-.459-.9856-1.0298-1.0157-2.0336-.4881z" fill="#fadf65"/><path d="m86.9475 62.1523c.0143.663.08 1.3758-.305 1.9303-.714 1.0286-1.5443 1.8536-2.9008 2.1697-1.4262.3324-2.5784-.1704-3.7243-.7519-.5938-.3013-.9745-.9755-1.1688-1.6294-.4752-1.5988-.0963-3.0285 1.0246-4.2632.2162-.2381.4309-.6442.6379-.6947.7685-.1877 1.4156-.7351 2.2945-.6355.8988.1019 1.7806.2559 2.4935.7834.8978.6644 1.5255 1.5656 1.6467 2.7331.0123.1183.0017.2388.0017.3582zm-4.5221 2.8877c1.0285.0182 1.8031-.4008 2.4651-1.0271.8571-.8109.9535-1.9477.3333-2.9431-.2626-.4215-.6738-.7179-.9046-1.164-.0891-.1722-.2857-.2268-.4902-.2255-1.9502.0121-3.036.69-3.7698 2.5432-.2741.6923-.1309 1.3506.3671 1.8586.5543.5652 1.2077 1.0208 1.9991.9579z" fill="#f2f2d5"/><path d="m78.1655 71.8376c-.6582-.7456-1.0488-1.6648-1.6074-2.4756-.8874-1.2881-1.736-2.6035-2.7329-3.8131-.2375-.2882-.398-.6307-.6878-.8871-.155-.1372-.078-.3005.1549-.2629 1.1674.1882 2.2443-.1768 3.326-.5241.2784-.0894.3985-.0719.4717.3123.1971 1.0336.668 1.9395 1.6042 2.527.1148.072.2232.1545.3315.2363.2388.1802.7077.1075.7439.4422.0287.2655-.321.4831-.4451.7678-.4276.9812-.8753 1.9514-1.0692 3.0168-.0376.2063-.045.4044-.038.6084-.0177.0167-.035.0341-.0518.052z" fill="#6e5847"/><path d="m112.8404 76.683c.2905.6192.7079 1.157.9942 1.7556.2902.6068.6627 1.1924.7808 1.8735.1772 1.0226-.0792 1.9891-.4423 2.9263-.0923.2383-.0794.4988-.225.7238-.1108.1713-.1877.2792-.3916.1341-.7019-.4995-1.2176-1.1733-1.6044-1.9168-.1514-.291-.0668-.7315-.0176-1.0941.084-.6196.1653-1.2418.3858-1.8375.3021-.8165.461-1.6648.5201-2.5649z" fill="#6e5847"/><path d="m108.1175 61.4485c-.2431-.3284-.2006-.7405-.3042-1.1088-.0834-.2966.2129-.3768.4371-.3137.453.1276.9913.0934 1.2698.6042.1272.2333.4197.2197.6097.3781.7927.6605 1.162 2.4408.6026 3.3263-.237.3751-.2803.8699-.7376 1.109-.269.1407-.4743.1694-.6123-.1508-.1269-.2943-.2533-.5888-.3797-.8829.6614-.1698 1.0819-.576 1.3165-1.2258.2647-.733.1617-1.2909-.4031-1.7492-.5168-.4196-1.1695-.4146-1.7988.0136z" fill="#ebebcf"/><path d="m36.8398 104.0863c-.4544-.8636-.7015-1.7312-.8914-2.6263-.0658-.3102.0313-.3725.2659-.3846.4153-.0213.756.1205.9372.5219.267.5913.2426 1.1894.0077 1.783-.0909.2294-.203.4504-.3194.706z" fill="#6e5847"/><path d="m108.1175 61.4485c.6293-.4282 1.282-.4332 1.7988-.0138.5648.4583.6678 1.0163.4031 1.7492-.2347.6498-.6551 1.0561-1.3165 1.2258-.0644-.0458-.0885-.1573-.0453-.1681.6205-.1556.8566-.6624 1.0945-1.1703.218-.1553.1382-.3514.0634-.5365-.1651-.4089-.5417-.4526-.9081-.5091.0251-.1519.3167-.3129.1103-.419-.1549-.0796-.3732-.2843-.6201-.0974-.1563.1183-.3443.1946-.5378.3005-.015-.1283-.0287-.2448-.0423-.3613z" fill="#f7de67"/><path d="m109.2074 62.0257c.3664.0565.7431.1002.9081.5091.0747.1852.1546.3812-.0634.5365-.0498-.2472.0436-.6935-.4478-.2916-.1926.1575-.5232.097-.595-.0498-.1061-.2174-.0607-.5228.1981-.7042z" fill="#f5f3d9"/><path d="m57.1421 43.2644c.0358-.0447.0656-.136.1346-.0731.0494.0451.0289.1226-.0501.1551-.0281-.0273-.0563-.0547-.0845-.082z" fill="#f5f3d9"/><path d="m70.3113 42.9674c-.0558-.0333-.1465-.0835-.1043-.1388.0701-.092.1428-.0258.1904.054-.0287.0283-.0574.0566-.0861.0848z" fill="#dfe6ad"/><path d="m78.2174 71.7853c.009.0279.0181.0558.0271.0837-.0262-.0106-.0525-.0212-.0788-.0316.0166-.0177.0339-.0351.0517-.0521z" fill="#6e5847"/><path d="m98.4291 29.8095c-.0104.0086-.0208.0172-.0312.0258-.0078-.011-.0228-.0229-.0215-.0327s.0188-.0175.0292-.0261c.0078.011.0157.022.0235.033z" fill="#6f5a48"/><path d="m31.7902 76.9615c0-.2224.0405-.4539-.0074-.6655-.1615-.7142.2479-1.2282.6118-1.7356.3386-.4721 1.0627-.6017 1.6877-.3577.5356.2091.6193.6743.6877 1.1919.1477 1.118.3602 2.2275.5493 3.34.0484.2845.158.5681.1516.8501-.0103.4562-.1452.9233-.6273 1.0746-.7461.2342-1.4996.4291-2.2638-.0555-.329-.2086-.5161-.4545-.5464-.7991-.0831-.9469-.3277-1.8817-.2432-2.8432zm1.0289 1.2986c.0323.3051.0549.6115.0989.9149.0994.6856.578 1.0004 1.2505.8476.2489-.0566.343-.1755.2908-.4349-.077-.3826-.153-.7682-.1871-1.1562-.0911-1.0366-.2849-2.0548-.5111-3.0678-.0574-.2569-.3119-.4248-.477-.2596-.2683.2684-.5996.5061-.5769 1.0189.0316.7129.1063 1.4223.1119 2.1371z" fill="#0e0e0d"/><path d="m82.4254 65.04c-.7914.0629-1.4448-.3927-1.999-.9579-.498-.508-.6412-1.1663-.3671-1.8586.7337-1.8532 1.8196-2.5311 3.7698-2.5432.2045-.0013.4012.0533.4902.2255.2307.4462.6419.7425.9046 1.164.6202.9954.5238 2.1322-.3333 2.9431-.6621.6263-1.4367 1.0453-2.4652 1.0271zm1.8-3.4864c-.164-.1661.1259-.5616-.3292-.5971-.375-.0293-.6.1264-.7582.436-.047.0109-.0941.0219-.1411.0328-.4444-.2465-.9536-.096-1.4421.4264-.4711.5037-.5563 1.4269-.1247 1.7995.5451.4705 1.1926.7868 1.9232.6359 1.4858-.3068 1.6124-1.0584 1.0507-2.2346-.0595-.1662-.1191-.3325-.1786-.4989z" fill="#f7de67"/><path d="m32.8191 78.2601c-.0056-.7148-.0803-1.4241-.1119-2.137-.0228-.5128.3086-.7505.5769-1.0189.1652-.1652.4196.0026.477.2596.2262 1.0129.42 2.0312.5111 3.0678.0341.388.1101.7736.1871 1.1562.0522.2594-.0419.3783-.2908.4349-.6725.1528-1.1511-.162-1.2505-.8476-.044-.3035-.0666-.61-.0989-.915z" fill="#6e5847"/><path d="m84.4041 62.0526c.5617 1.1762.4351 1.9278-1.0507 2.2346-.7306.1509-1.3781-.1654-1.9232-.6359-.4316-.3726-.3464-1.2958.1247-1.7995.4886-.5224.9978-.6729 1.4422-.4263.0528.1792-.0501.3327-.1076.4809-.1631.4209-.0941.4871.3438.5834.5132.1127.804-.2336 1.1708-.4372z" fill="#0e0e0d"/><path d="m84.404 62.0526c-.3668.2037-.6576.5499-1.1708.4371-.4379-.0963-.5069-.1625-.3438-.5834.0574-.1482.1604-.3017.1076-.4809.047-.011.094-.0219.1412-.0327.3422.1907.6413.672 1.0872.1609.0595.1664.1191.3327.1786.499z" fill="#f5f3d9"/><path d="m84.2254 61.5536c-.4459.5111-.745.0297-1.0872-.1609.1581-.3098.383-.4655.758-.4362.455.0356.1652.4311.3292.5971z" fill="#0e0e0d"/></svg>