<svg enable-background="new 0 0 141.832 141.7793" viewBox="0 0 141.832 141.7793" xmlns="http://www.w3.org/2000/svg"><path d="m141.832 71.4265c-.2104-19.4437-6.6466-35.9011-19.6853-49.5359-13.037-13.6332-29.1815-21.0139-48.0483-21.8165-20.2086-.8596-37.8527 5.762-52.4347 19.7874-13.5134 12.9975-20.7981 29.0835-21.5905 47.8335-.8541 20.2096 5.7693 37.851 19.7972 52.431 13.0001 13.5117 29.0886 20.7912 47.8375 21.5806 20.2292.8517 37.8967-5.7714 52.4604-19.8455 14.3472-13.8648 21.3943-31.0274 21.6637-50.4346z" fill="#fff"/><path d="m141.832 71.4265c-.2694 19.4073-7.3166 36.5698-21.6637 50.4346-14.5637 14.074-32.2312 20.6972-52.4604 19.8455-18.7489-.7894-34.8374-8.0688-47.8375-21.5806-14.0279-14.58-20.6514-32.2215-19.7972-52.431.7924-18.75 8.0771-34.836 21.5904-47.8335 14.5821-14.0254 32.2261-20.647 52.4348-19.7874 18.8668.8026 35.0114 8.1833 48.0484 21.8164 13.0387 13.6349 19.4748 30.0923 19.6852 49.536zm-21.819 44.8583c.5703-.3704.9443-.9384 1.3676-1.4408 1.9199-2.2792 3.7255-4.6488 5.3312-7.162.2867-.4488.7103-.8416.7606-1.423.3795-.2906.5359-.725.7313-1.1342.5105-.4072.7037-1.0269.9965-1.5664 1.5981-2.9448 3.035-5.9663 4.227-9.1019.9287-2.4432 1.7468-4.9212 2.3717-7.4587.551-2.2377.9473-4.5039 1.2597-6.7902.2796-2.0466.5051-4.1003.5578-6.1562.0609-2.3754.1044-4.7565-.0579-7.1369-.1068-1.5657-.2383-3.1256-.4174-4.6841-.2672-2.3251-.6675-4.6262-1.2082-6.9012-1.0215-4.2982-2.5197-8.4345-4.375-12.4373-1.418-3.0594-3.0526-6.0061-4.8994-8.8308-2.2555-3.4498-4.8818-6.606-7.7071-9.5957-1.8944-2.0046-3.9721-3.819-6.0995-5.5721-3.1803-2.6208-6.6191-4.8636-10.2444-6.8105-3.3436-1.7956-6.8093-3.3313-10.4054-4.5566-3.8876-1.3246-7.8583-2.2824-11.9414-2.7966-2.0309-.2558-4.0655-.522-6.1037-.5663-3.3312-.0724-6.6673-.1194-9.9941.2626-2.0326.2334-4.0619.4697-6.0741.8403-5.3202.9797-10.3919 2.7306-15.2848 5.0048-2.1389.9942-4.2174 2.1111-6.2557 3.3084-4.4991 2.6429-8.5399 5.8732-12.2999 9.4658-2.0435 1.9526-3.8953 4.0871-5.6736 6.2832-2.5827 3.1895-4.789 6.6287-6.7013 10.2541-1.3392 2.5388-2.5458 5.1416-3.5588 7.8314-.909 2.4136-1.7164 4.8596-2.3334 7.3638-.6824 2.7693-1.145 5.5767-1.4578 8.4138-.1682 1.5262-.3385 3.0564-.3654 4.5839-.0643 3.6396-.0969 7.2816.3745 10.9084.2043 1.5718.3889 3.1467.6707 4.7053.6486 3.5869 1.6597 7.0733 2.9358 10.4889 1.1802 3.159 2.5929 6.2056 4.2031 9.1656 1.9685 3.6186 4.2524 7.0181 6.8821 10.1937 2.3525 2.8409 4.8788 5.5085 7.6618 7.9257 2.4441 2.1229 4.999 4.1019 7.7344 5.8477 3.6711 2.343 7.5217 4.3361 11.5515 5.972 3.133 1.2719 6.344 2.3279 9.6441 3.087 1.8303.421 3.6673.8148 5.5324 1.0572.3693.0352.7385.0704 1.1078.1056.2339.1443.4989.0776.7491.1122 2.2059.3053 4.4221.4715 6.6485.5056.3267-.0001.6535-.0002.9802-.0003 1.3362.0034 2.6706-.0111 4.0069-.0788 2.6379-.1337 5.2561-.4248 7.8551-.8783 7.4273-1.2962 14.4229-3.8111 20.9955-7.5018.2411-.1354.5501-.2013.6784-.4989.4855.0123.8018-.3404 1.1613-.5719.7192-.4632 1.5508-.7701 2.1092-1.4652.1888.0246.324-.0899.4642-.1844 4.0395-2.7249 7.7333-5.8573 11.078-9.401.1035-.1097.2411-.1992.2362-.3772.2952-.1076.5114-.2924.5941-.6077z" fill="#5f6065"/><path d="m61.3485 137.1268c-1.8651-.2424-3.7021-.6362-5.5324-1.0571-3.3001-.759-6.5111-1.8151-9.6441-3.087-4.0298-1.6359-7.8804-3.629-11.5515-5.972-2.7354-1.7458-5.2903-3.7248-7.7344-5.8477-2.783-2.4172-5.3093-5.0847-7.6618-7.9257-2.6297-3.1757-4.9135-6.5751-6.8821-10.1937-1.6103-2.96-3.0229-6.0066-4.2031-9.1656-1.2761-3.4156-2.2872-6.902-2.9358-10.4889-.2818-1.5586-.4664-3.1335-.6707-4.7053-.4714-3.6268-.4388-7.2688-.3747-10.9082.0269-1.5275.1972-3.0578.3654-4.5839.3128-2.8371.7754-5.6444 1.4578-8.4138.617-2.5043 1.4245-4.9502 2.3334-7.3638 1.013-2.6898 2.2197-5.2926 3.5588-7.8314 1.9123-3.6254 4.1186-7.0647 6.7013-10.2541 1.7782-2.196 3.63-4.3306 5.6736-6.2832 3.76-3.5926 7.8008-6.823 12.2999-9.4658 2.0383-1.1973 4.1167-2.3143 6.2557-3.3084 4.8929-2.2742 9.9646-4.0251 15.2848-5.0048 2.0122-.3705 4.0416-.6069 6.0741-.8403 3.3269-.382 6.663-.335 9.9941-.2626 2.0382.0443 4.0728.3105 6.1037.5663 4.083.5143 8.0537 1.472 11.9414 2.7966 3.5962 1.2253 7.0619 2.761 10.4054 4.5566 3.6253 1.9469 7.0641 4.1897 10.2444 6.8105 2.1274 1.7531 4.2051 3.5675 6.0995 5.5721 2.8253 2.9897 5.4516 6.1459 7.7071 9.5957 1.8468 2.8246 3.4814 5.7713 4.8994 8.8308 1.8552 4.0028 3.3535 8.1391 4.375 12.4373.5407 2.275.941 4.5761 1.2082 6.9012.1791 1.5585.3107 3.1184.4174 4.6841.1623 2.3804.1188 4.7615.0579 7.1369-.0527 2.0559-.2782 4.1096-.5578 6.1562-.3124 2.2863-.7086 4.5524-1.2597 6.7902-.6249 2.5375-1.443 5.0156-2.3717 7.4587-1.192 3.1356-2.6289 6.1572-4.227 9.1019-.2928.5395-.486 1.1591-.9965 1.5664-.2649-1.3771-.7045-2.7062-1.1423-4.0332-.4856-1.4718-1.0584-2.9154-1.5226-4.3934-.4179-1.3306-.9514-2.6186-1.498-3.89-1.1993-2.7894-2.7133-5.4244-4.237-8.0502-1.3613-2.3458-3.0189-4.4891-4.5344-6.7294-1.8757-2.7728-3.82-5.5019-5.4819-8.4152-.479-.8398-1.0389-1.6336-1.4603-2.5375.2789-.0547.5307-.0912.7756-.1547.461-.1196.5356-.4127.2652-.8103-.7082-1.0414-1.4687-2.0562-2.0783-3.1539-1.2199-2.1965-2.6697-4.2348-4.1029-6.2886-.7441-1.0663-1.4756-2.1458-2.3695-3.0876-.3413-.3596-.1923-.4434.0785-.6593 1.3218-1.0539 2.7038-2.0241 4.0991-2.9757 1.0505-.7165 1.8881-1.5372 2.2445-2.8556.4909-1.8155.9353-3.6385 1.2286-5.4909.2962-1.8701.2418-3.7727.3554-5.6602.0733-1.2171-.0426-2.4293-.105-3.6422-.0869-1.6889-.2521-3.3753-.5436-5.0377-.2584-1.4737-.6405-2.9261-.8825-4.4065-.1434-.8776-.3803-1.7231-.9723-2.438-.448-.541-.8702-.6542-1.5147-.3151-.7101.3736-1.4158.7571-2.1386 1.1046-2.7659 1.3298-5.4396 2.8432-8.2385 4.1082-1.1453.5177-2.1927 1.2314-3.3437 1.746-.6452.2884-1.3864.43-1.9039.9253-1.1009 1.0534-2.1164 2.2059-2.9257 3.4912-1.0322 1.6394-2.0204 3.3107-2.7677 5.1157-1.1534 2.7857-2.4577 5.5096-3.4031 8.3794-.0605.1838-.1027.2942-.3364.2765-.6449-.0489-1.2926-.0604-1.9383-.1011-1.7518-.1105-3.502-.2504-5.2549-.3372-1.7025-.0843-3.4074-.1235-5.1116-.1666-.2842-.0072-.5707-.023-.86.082-.9772.3544-1.9612.6912-2.9514 1.0074-.3505.1119-.7479.2587-1.086.1934-1.0221-.1976-2.0484-.3526-3.0803-.4769-.5688-.0685-1.1794-.2737-1.7069-.0604-1.391.5623-2.8317 1.0127-4.1528 1.7419-.1508.0832-.2566.1098-.3848-.0652-.9352-1.2759-1.8857-2.5406-2.8255-3.8131-.976-1.3213-2.0243-2.5829-3.2317-3.6969-1.4971-1.3813-3.1481-2.5734-4.8064-3.7507-1.8776-1.3329-3.7747-2.6382-5.7321-3.8527-1.1568-.7178-2.0646-1.7286-3.0873-2.604-.2387-.2043-.4194-.3285-.8013-.2083-.4563.1436-.7077.5269-1.103.6968-.3739.1607-.467.4547-.4484.7813.026.4558.0794.9105.2173 1.3571.3375 1.0935.9394 2.0664 1.384 3.1105.0692.1626.0998.2777.0075.4197-.1249.1922-.2902.0687-.4134.0234-.6014-.2214-1.2494-.3552-1.6762-.9142-.1068-.1399-.3074-.2353-.5046-.1151-.197.1201-.4376.1871-.4629.494-.1393 1.6952-.3464 3.383-.6196 5.0618-.2537 1.559-.5214 3.1157-.7956 4.6712-.1863 1.0571-.1564 2.1372.0872 3.1469.2813 1.1662.7079 2.311 1.2036 3.4198.6264 1.4013 1.2257 2.8109 1.948 4.1711.4529.8529.961 1.6768 1.3704 2.5575.5064 1.0896.8439 1.1654 2.0078.7213.1574-.0601.3304-.2078.5438-.0684-.5535.7766-1.042 1.5925-1.685 2.2977-.1047.1148-.2348.2009-.1771.4336.2827 1.1396.3971 2.303.4272 3.4768.005.1939-.0633.327-.1608.4651-1.2455 1.7647-2.0914 3.6931-2.4991 5.8248-.1435.7499-.3161 1.536-1.0692 1.9979-.3911.2399-.7492.5338-1.1209.8052-1.6686 1.2184-3.282 2.5058-4.8834 3.8115-.7905.6446-1.2875 1.4594-1.73 2.3307-.4155.8181-.7132 1.7305-1.5326 2.2443-.6589.4132-1.3722.7472-2.0832 1.0681-.8864.4-1.7632.8121-2.4583 1.5077-.3802.3805-.7019.7809-.7003 1.4066.0027 1.0073.5317 1.7604 1.0341 2.5407.1351.2098.2932.558.4556.5668.4167.0226.4711.3154.6348.5632.2162.3274.3859.6926.6191.9951.8735 1.133 1.5493 2.3998 2.4322 3.5236.0728.0927.0374.1749.0359.2756-.023 1.4738-.1832 2.9502.0606 4.4202.0995.5999.5301.9656 1.0161 1.1886 1.1136.511 2.178 1.112 3.2625 1.676.1196.0622.2127.1505.2447.3066.1358.6609.3068 1.3151.4239 1.979.0525.2977.2124.4704.4598.554.4353.147.8831.2774 1.3475.2724 1.4373-.0155 2.8747-.0386 4.3089-.1463.3616-.0272.5345.1232.5546.4903.0364.6659.1996 1.3129.3162 1.9673.441 2.4751 1.2481 4.8062 2.5802 6.9548.2481.4001.4116.3466.7163.1481.1757-.1145.2467-.2745.317-.4487.3352-.8311.8063-1.5695 1.4136-2.2351.2218-.243.3109-.2328.4934-.0026.5822.7342.9011 1.6505 1.6006 2.3033.0905.0845.0152.1911.0008.2901-.023.1578-.0143.3314.1606.3911.1667.057.318.0918.5109-.0612.3473-.2754.5168-.6786.8199-.978 1.377-1.361 2.899-2.5285 4.6596-3.3454.7669-.3558 1.5722-.6395 2.4138-.7969 1.3518-.2528 2.6473.0072 3.9284.4099.8625.271 1.7134.6273 2.461 1.0967 1.204.7561 2.3303 1.6343 3.1782 2.8379 1.0521 1.4935 1.9356 3.0496 2.3539 4.8416.1545.6621.2709 1.3347.4583 1.9871.3759 1.3088.459 2.6604.5469 3.9998.0823 1.2528.1354 2.5145.0689 3.7767-.0607 1.1516-.0085 2.31-.0916 3.4592-.1199 1.6593-.2987 3.3146-.2581 4.9823z" fill="#d9d0a0"/><path d="m119.4189 116.8925c.0048.178-.1327.2675-.2362.3772-3.3447 3.5437-7.0385 6.6761-11.078 9.401-.1401.0945-.2754.209-.4642.1844.3134-.6438.6018-1.3042 1.0721-1.8547.4761-.5574.9723-1.0976 1.4551-1.6493.0721-.0824.2125-.1738.1039-.3009-.1016-.1189-.2249-.0257-.3199.0413-.1113.0784-.2165.1687-.3123.2656-1.2141 1.228-2.5289 2.349-3.7683 3.5491-.5562.5386-1.0429 1.105-1.9148.6391-.0956-.0511-.2326-.0198-.3482-.0393-1.9405-.327-3.8591-.7707-5.8391-.8703-1.7747-.0892-3.545-.1973-5.3233-.1353-1.6221.0565-3.241.1671-4.8615.2437-2.7853.1316-5.5363.4741-8.2324 1.1857-.3961.1045-.4621-.0079-.5307-.3213-.4688-2.1427-1.0581-4.2505-1.7469-6.3347-.7738-2.3413-1.8567-4.5395-2.9558-6.734-.0969-.1934-.2275-.3745-.4586-.3435-.2255.0303-.4114.1823-.4992.4004-.0939.2333-.1639.4748-.3822.6803-.3004-.8573-.6081-1.6685-1.0415-2.429-.3028-.5315-.5511-1.0939-.8281-1.6403-.1004-.198-.1318-.3171.173-.273.6938.1003 1.4016.1904 2.0471.4444 2.4274.9551 4.9269 1.7421 7.2266 3.0024 1.6276.892 3.3299 1.646 4.8357 2.7629.7613.5646 1.1333.5444 1.547-.1308 1.0935-1.7851 2.5545-3.3211 3.4506-5.2416.5983-1.2822 1.3551-2.4896 1.8433-3.8271.1476-.4043.3154-.8012.4959-1.257.4453.5629.8384 1.0528 1.1369 1.6129.2966.5564.5815 1.1216.9178 1.6536.3249.514.8895.7125 1.1767.4499.2765-.2527.5409-.5261.7191-.8639.7416-1.4056 1.176-2.9294 1.6266-4.4378.4263-1.4268.824-2.8624 1.0722-4.3442.2535-1.5138.3661-3.0407.5801-4.5568.1839-1.3031.1787-2.6328.2595-3.9911.9705.5445 1.6761 1.3503 2.309 2.2146.1899.2593.3855.2942.5225.1138.1831-.2411.4434-.4274.5353-.7502.334-1.1728.5203-2.3747.589-3.5826.1488-2.6169.0978-5.2264-.3819-7.8211-.3042-1.6453-.5998-3.2919-.9474-4.9285-.1284-.6047-.2879-1.2028-.4332-1.804.4836.4096.8435.8787 1.2376 1.317 1.1845 1.3173 2.3994 2.606 3.4592 4.0326.9406 1.2661 1.7107 2.6442 2.6356 3.9194.0716.0987.1307.2522.2584.1869.1631-.0833.0136-.1988-.0332-.2975-.167-.3524-.3326-.7053-.4987-1.0581.282-.1297.2627.1528.3181.2645.4098.8261.7895 1.6671 1.198 2.4939.3024.6121.6709 1.1877.9464 1.8175.8233 1.8824 1.3477 3.8693 2.0625 5.7887.5975 1.6045 1.0433 3.2494 1.394 4.9224.0614.2929.0045.621.2577.856.0096.0504.0277.1008.0277.1512-.0032 2.0392.0119 4.0787-.022 6.1174-.0142.8522-.1479 1.6993-.5787 2.4645-.1581.2809-.3654.5781-.5784.7584-.3117.2638-.4962-.261-.773-.3768-.0947-.0396-.1791-.1251-.2778-.0527-.1167.0857-.1045.2264-.0372.324.1923.2787.3387.5968.6173.8073.6443.4866 1.2085 1.0657 1.7198 1.677 1.375 1.6439 2.6766 3.3472 3.8754 5.1264z" fill="#cfcdcb"/><path d="m109.2691 83.7527c.1661.3527.3318.7057.4987 1.0581.0468.0987.1963.2142.0332.2975-.1277.0652-.1867-.0882-.2584-.1869-.9249-1.2751-1.6951-2.6532-2.6356-3.9194-1.0598-1.4266-2.2747-2.7152-3.4592-4.0326-.3941-.4383-.754-.9074-1.2376-1.317.1453.6011.3047 1.1992.4332 1.804.3476 1.6367.6432 3.2832.9474 4.9285.4797 2.5947.5306 5.2042.3819 7.8211-.0687 1.2079-.255 2.4098-.589 3.5826-.0919.3229-.3522.5092-.5353.7502-.137.1804-.3326.1455-.5225-.1138-.6329-.8643-1.3385-1.6701-2.309-2.2146-.0808 1.3582-.0756 2.688-.2595 3.9911-.214 1.5161-.3265 3.043-.5801 4.5568-.2482 1.4818-.6459 2.9174-1.0722 4.3442-.4506 1.5084-.885 3.0322-1.6266 4.4378-.1782.3378-.4426.6112-.7191.8639-.2873.2625-.8519.0641-1.1767-.4499-.3363-.5321-.6212-1.0972-.9178-1.6536-.2985-.5601-.6916-1.05-1.1369-1.6129-.1805.4558-.3483.8527-.4959 1.257-.4882 1.3375-1.245 2.5448-1.8433 3.8271-.8961 1.9205-2.3571 3.4565-3.4506 5.2416-.4137.6753-.7857.6955-1.547.1308-1.5058-1.1169-3.2081-1.871-4.8357-2.7629-2.2997-1.2603-4.7992-2.0473-7.2266-3.0024-.6454-.254-1.3533-.3441-2.0471-.4444-.3048-.0441-.2734.075-.173.273.277.5464.5253 1.1088.8281 1.6403.4334.7605.7411 1.5717 1.0415 2.429.2184-.2055.2883-.447.3822-.6803.0878-.2181.2737-.3701.4992-.4004.2311-.0311.3618.1501.4586.3435 1.0992 2.1946 2.1821 4.3927 2.9558 6.734.6888 2.0843 1.278 4.1921 1.7469 6.3347.0686.3134.1346.4258.5307.3213 2.6961-.7116 5.4471-1.054 8.2324-1.1857 1.6205-.0766 3.2394-.1871 4.8615-.2437 1.7784-.062 3.5487.0461 5.3233.1353 1.98.0995 3.8986.5433 5.8391.8703.1157.0195.2526-.0118.3482.0393.8719.466 1.3586-.1005 1.9148-.6391 1.2394-1.2001 2.5542-2.321 3.7683-3.5491.0958-.0969.201-.1872.3123-.2656.095-.0669.2183-.1601.3199-.0413.1086.1271-.0318.2186-.1039.3009-.4828.5518-.979 1.0919-1.4551 1.6493-.4702.5505-.7586 1.211-1.0721 1.8547-.5584.695-1.39 1.002-2.1092 1.4652-.3595.2316-.6758.5843-1.1613.5719-.0387-.1158-.1487-.1386-.2419-.1685-1.6722-.5368-3.3566-1.0033-5.1209-1.1492-1.104-.0913-2.2035-.2458-3.3122-.2773-1.5217-.0432-3.0414-.045-4.5657.0098-2.8862.1036-5.7707.209-8.6239.6756-1.765.2886-3.5049.702-5.1375 1.4789-.6432.3061-1.3075.5696-1.9696.8339-.2402.0959-.5013.0742-.5943-.2167-.0725-.2266.0697-.3784.288-.4701.8481-.3562 1.6937-.7182 2.5384-1.0825.671-.2894.736-.4284.5508-1.124-.0262-.0986-.0531-.1975-.0698-.2979-.3545-2.1321-1.0485-4.1713-1.7335-6.2096-.5663-1.685-1.3504-3.2797-2.1918-4.8442-.0859-.1597-.1607-.4002-.3458-.4092-.2104-.0102-.1272.2778-.2389.4018-.0787.0873-.1304.1984-.1983.296-.1264.1815-.239.4089-.5209.296-.2556-.1024-.427-.2976-.5268-.5587-.3672-.9597-.3895-2.0412-1.419-2.7312-.7981-.5349-1.4645-1.2889-2.2573-1.859-1.9268-1.3855-3.793-2.856-5.7778-4.1594-.5802-.381-1.1583-.8081-1.9765-.8754 1.3143 2.4638 2.3535 4.9479 3.103 7.6799.0909-.2559.1677-.381.1748-.5099.0175-.3218.1087-.628.4654-.6127.3482.015.4806.34.5587.6529.4661 1.8672 1.185 3.6597 1.6059 5.5427.2488 1.113.5421 2.2139.6376 3.3545.1159 1.384.2301 2.7682.3506 4.2195.4266-.3624.8014-.6668.9685-1.1634.0761-.2262.2064-.4637.4897-.4557.2603.0074.3195.2187.3944.4488.1944.5971.2995 1.212.4017 1.8246.2226 1.3348.758 2.5809 1.0602 3.8936.1725.7494.3187 1.5262.7999 2.1698.12.1605.2007.4118.0955.5212-.2884.2997-.2662.697-.4152 1.0359-.3923.8929-.5871 1.8459-.7815 2.7968-.3267.0001-.6535.0002-.9802.0003.154-.9771.3379-1.9509.4511-2.9327.0732-.6348.4539-1.1987.331-1.8807-.326-1.8093-.6903-3.6067-1.2467-5.3627-.0847-.2674-.18-.2393-.3529-.1452-.4499.2449-.8966.496-1.3474.7393-.4261.23-.6315.0992-.769-.3592-.0993-.3311.1123-.5827.0988-.8862-.0697-1.5673-.1493-3.1356-.4347-4.6792-.2257-1.2204-.5135-2.4308-.813-3.6358-.3001-1.2075-.6477-2.4033-.9792-3.6029-.0209-.0757-.0691-.1827-.1278-.2011-.1232-.0387-.1712.0903-.2153.1758-.1168.2264-.2094.4658-.3334.6879-.1197.2145-.2829.4015-.5639.3631-.2761-.0377-.237-.2673-.2829-.4687-.1779-.7819-.3531-1.5667-.5859-2.3332-.5177-1.7043-1.2236-3.3346-2.1156-4.8748-.4416-.7626-.849-1.5837-1.5509-2.1399-.5974-.4734-1.2513-.8866-1.9322-1.2488-.8532-.4538-.8413-.4585-1.4528.3158-.3943.4993-.8676.9179-1.4458 1.2002-1.4359.7011-2.9721.7131-4.5044.5666-2.3944-.229-4.7825-.4543-7.1935-.2703-1.0124.0773-2.0141.2332-2.9312.628-.5197.2237-.9719.1684-1.3339-.0614-.9933-.6306-2.0306-1.1838-3.029-1.8035-.4043-.2509-.8466-.4279-1.329-.5094-.4453-.0752-.5309.0687-.4681.4937.2626 1.7779.6292 3.531 1.185 5.2406.2896.8907.8442 1.6489 1.2532 2.5669.1641-.2863.2579-.4892.3865-.667.4944-.6838.9125-1.4323 1.5806-1.9742.5614-.4554.7946-.3694 1.1303.2614.4007.7531.8625 1.4736 1.2925 2.2113.1146.1966.2108.2282.3886.0515.6057-.6018 1.2826-1.1223 1.933-1.6736 2.3643-2.0042 4.9864-3.1137 8.1634-2.7366 2.0984.2491 3.9226 1.1265 5.6407 2.2426 1.3069.849 2.3575 1.9935 3.1825 3.3384 1.1058 1.8027 2.0173 3.677 2.3955 5.7806.3317 1.8454.4937 3.709.68 5.5723.2113 2.1138.1059 4.2251.0622 6.3368-.0348 1.6862-.1401 3.371-.2141 5.0564-.3693-.0352-.7385-.0704-1.1078-.1057-.0406-1.6678.1382-3.3231.2582-4.983.0831-1.1492.031-2.3076.0916-3.4592.0665-1.2622.0134-2.5239-.0689-3.7767-.088-1.3394-.171-2.691-.5469-3.9998-.1874-.6524-.3037-1.325-.4583-1.9871-.4183-1.792-1.3018-3.3481-2.3539-4.8416-.8479-1.2036-1.9742-2.0818-3.1782-2.8379-.7475-.4694-1.5985-.8257-2.461-1.0967-1.2811-.4026-2.5766-.6627-3.9284-.4099-.8416.1574-1.6469.4411-2.4138.7969-1.7605.8169-3.2825 1.9844-4.6596 3.3454-.303.2995-.4726.7026-.8199.978-.1929.153-.3442.1181-.5109.0612-.1749-.0598-.1836-.2333-.1606-.3911.0144-.0991.0897-.2057-.0008-.2901-.6995-.6528-1.0184-1.5691-1.6006-2.3033-.1825-.2302-.2716-.2404-.4934.0026-.6073.6656-1.0784 1.404-1.4136 2.2351-.0703.1742-.1413.3341-.317.4487-.3046.1986-.4682.2521-.7163-.1481-1.3321-2.1486-2.1392-4.4797-2.5802-6.9548-.1166-.6544-.2798-1.3013-.3162-1.9673-.0201-.367-.193-.5174-.5546-.4903-1.4342.1077-2.8716.1308-4.3089.1463-.4644.005-.9122-.1254-1.3475-.2724-.2474-.0836-.4073-.2563-.4598-.554-.1171-.6639-.2881-1.3181-.4239-1.979-.0321-.1561-.1251-.2444-.2447-.3066-1.0845-.564-2.1489-1.165-3.2625-1.676-.486-.223-.9165-.5887-1.0161-1.1886-.2438-1.47-.0836-2.9464-.0606-4.4202.0016-.1006.0369-.1829-.0359-.2756-.883-1.1238-1.5587-2.3906-2.4322-3.5236-.2332-.3025-.4029-.6677-.6191-.9951-.1636-.2478-.2181-.5406-.6348-.5632-.1625-.0088-.3206-.3571-.4556-.5668-.5024-.7803-1.0314-1.5335-1.0341-2.5407-.0017-.6257.32-1.0261.7003-1.4066.6951-.6956 1.5719-1.1077 2.4583-1.5077.711-.3208 1.4242-.6549 2.0832-1.0681.8193-.5138 1.1171-1.4262 1.5326-2.2443.4425-.8713.9395-1.6862 1.73-2.3307 1.6014-1.3057 3.2148-2.5931 4.8834-3.8115.3717-.2714.7298-.5653 1.1209-.8052.7531-.4619.9257-1.248 1.0692-1.9979.4078-2.1317 1.2536-4.06 2.4991-5.8248.0975-.1381.1657-.2711.1608-.4651-.0301-1.1738-.1445-2.3372-.4272-3.4768-.0577-.2327.0724-.3188.1771-.4336.643-.7053 1.1315-1.5212 1.685-2.2977-.2134-.1394-.3864.0083-.5438.0684-1.164.4441-1.5014.3683-2.0078-.7213-.4093-.8807-.9174-1.7046-1.3704-2.5575-.7223-1.3602-1.3217-2.7698-1.948-4.1711-.4957-1.1089-.9222-2.2537-1.2036-3.4198-.2436-1.0097-.2735-2.0897-.0872-3.1469.2741-1.5555.5418-3.1123.7956-4.6712.2732-1.6787.4802-3.3665.6196-5.0618.0252-.3069.2658-.3739.4629-.494.1972-.1202.3978-.0248.5046.1151.4269.559 1.0748.6928 1.6762.9142.1232.0453.2885.1689.4134-.0234.0923-.142.0617-.2571-.0075-.4197-.4446-1.0441-1.0465-2.017-1.384-3.1105-.1378-.4466-.1913-.9013-.2173-1.3571-.0186-.3265.0745-.6206.4484-.7813.3953-.1699.6466-.5533 1.103-.6968.3819-.1202.5626.004.8013.2083 1.0227.8755 1.9305 1.8863 3.0873 2.604 1.9574 1.2145 3.8545 2.5198 5.7321 3.8527 1.6584 1.1773 3.3094 2.3694 4.8064 3.7507 1.2074 1.114 2.2558 2.3756 3.2317 3.6969.9399 1.2725 1.8904 2.5372 2.8255 3.8131.1283.175.234.1484.3848.0652 1.3211-.7293 2.7617-1.1796 4.1528-1.7419.5275-.2132 1.1381-.008 1.7069.0604 1.0319.1242 2.0582.2793 3.0803.4769.3381.0654.7355-.0814 1.086-.1934.9902-.3162 1.9742-.6531 2.9514-1.0074.2893-.1049.5758-.0891.86-.082 1.7042.0431 3.4091.0822 5.1116.1666 1.7529.0868 3.5031.2267 5.2549.3372.6457.0407 1.2934.0522 1.9383.1011.2337.0177.2758-.0928.3364-.2765.9454-2.8698 2.2497-5.5937 3.4031-8.3794.7474-1.805 1.7355-3.4762 2.7677-5.1157.8093-1.2854 1.8248-2.4378 2.9257-3.4912.5175-.4952 1.2587-.6368 1.9039-.9253 1.151-.5146 2.1984-1.2283 3.3437-1.746 2.7989-1.2651 5.4726-2.7785 8.2385-4.1082.7228-.3475 1.4286-.731 2.1386-1.1046.6445-.3391 1.0668-.2259 1.5147.3151.592.7149.8289 1.5604.9723 2.438.242 1.4804.6241 2.9328.8825 4.4065.2915 1.6624.4567 3.3488.5436 5.0377.0625 1.2129.1783 2.4252.105 3.6422-.1136 1.8875-.0592 3.7901-.3554 5.6602-.2934 1.8524-.7378 3.6754-1.2286 5.4909-.3565 1.3184-1.194 2.1392-2.2445 2.8556-1.3953.9516-2.7773 1.9218-4.0991 2.9757-.2709.216-.4199.2997-.0785.6593.8939.9418 1.6254 2.0213 2.3695 3.0876 1.4332 2.0538 2.883 4.0921 4.1029 6.2886.6096 1.0976 1.3701 2.1124 2.0783 3.1539.2704.3976.1958.6908-.2652.8103-.2448.0635-.4966.1001-.7756.1547.4214.9039.9813 1.6977 1.4603 2.5375 1.6618 2.9133 3.6062 5.6424 5.4819 8.4152 1.5155 2.2404 3.1731 4.3836 4.5344 6.7294 1.5237 2.6258 3.0376 5.2608 4.237 8.0502.5466 1.2714 1.0801 2.5593 1.498 3.89.4642 1.4781 1.037 2.9216 1.5226 4.3934.4378 1.327.8774 2.6561 1.1423 4.0332-.1954.4093-.3518.8437-.7313 1.1343-.0133-.1189-.0161-.2402-.0414-.3566-.5658-2.5987-1.2926-5.1529-2.1983-7.6525-.4221-1.1651-.8887-2.3154-1.3575-3.464-.4504-1.1037-.9136-2.2005-1.4665-3.2493-1.161-2.2023-2.3535-4.3886-3.7553-6.4546-.8156-1.2021-1.546-2.4616-2.3417-3.6776-.9817-1.5003-1.9934-2.9806-3.0135-4.4557-1.0586-1.5308-2.0177-3.1301-3.0383-4.6878-.6718-1.0254-1.408-2.0098-2.0533-3.051-.4199-.6775-.7045-1.4375-1.0945-2.1354-.2906-.5199-.1311-.9417.4737-.9916.3654-.0302.2705-.1556.186-.3903-.2151-.5976-.5634-1.1228-.8425-1.6842-.6849-1.3772-1.4868-2.6815-2.3673-3.935-1.4227-2.0252-3.2108-3.7786-4.4437-5.9472-.1901-.3344-.3943-.337-.6789-.0747-.7007.6461-1.5094 1.1571-2.1999 1.8312-.3863.3771-.2223.5222-.0163.7791.3814.4755.7991.9243 1.1527 1.4192.8747 1.2245 1.5502 2.5617 2.2266 3.905.7283 1.4464 1.4037 2.917 2.0201 4.4081.4978 1.2043.8037 2.4889 1.1778 3.7429.1441.4829.2862.9769.0457 1.4793-.1796.375-.4213.5765-.8548.3684-.3198-.1535-.6616-.231-1.0627-.2719.2713.9713.5845 1.883 1.0367 2.7299.5156.9656 1.2503 1.777 1.9471 2.6203 1.0977 1.3286 2.1679 2.6892 3.0828 4.1541.5005.8018.9882 1.6218 1.2742 2.5364zm-21.9069 29.9323.0055.0133c.1982.0254.199-.1228.2216-.2519.1251-.064.2163-.1597.2879-.2813.8801-1.4929 1.7085-3.0149 2.472-4.5695.5172-1.0531.9676-2.1394 1.4327-3.2174.1316-.3049.3623-.4483.6585-.5026.3438-.0629.3501.258.4598.4499.118.2065.2093.4282.329.6336.6265 1.0756 1.4337 2.0178 2.2468 3.0258.2831-.6281.5759-1.2226.8164-1.8376.1003-.2566.313-.5005.216-.8152.0411-.0263.1062-.0436.12-.0801.4985-1.3279.9175-2.6787 1.1563-4.0803.9513-2.8921 1.0251-5.8943 1.131-8.8947.0284-.8041-.0781-1.5966-.1087-2.3949-.0154-.4017.3075-.7361.6095-.6118.2565.1055.523.1905.7489.4125.6283.6175 1.3148 1.1753 1.9675 1.7686.2374.2157.371.198.4315-.1245.2142-1.1424.3612-2.2943.442-3.4531.1068-1.5316.0066-3.0615-.0937-4.5893-.0647-.986-.0924-1.9848-.2803-2.9499-.2995-1.5378-.5853-3.0791-.9486-4.6071-.49-2.0606-1.2129-4.0431-1.8304-6.0605-.0718-.2346-.2203-.4368-.0057-.6539.2126-.215.4846-.1903.7164-.0821.5369.2506 1.1238.2794 1.6816.4314.3463.0944.3817-.0613.3009-.3391-.1993-.6859-.3387-1.3957-.6048-2.0544-.4779-1.1827-.8601-2.4001-1.3809-3.5687-.5979-1.3414-1.2437-2.657-1.9492-3.9412-1.085-1.975-2.3629-3.8235-3.8055-5.5565-.1981-.2379-.4006-.4795-.2242-.8218.0911-.0189.1821-.0377.2732-.0566.5968.2186.8852.7677 1.2619 1.212.1912.2255.292.2751.5115.054.5028-.5065.9966-1.0286 1.5462-1.481 1.7796-1.4646 3.7196-2.7125 5.6353-3.9823 1.3802-.9149 2.2351-2.0789 2.6417-3.6684.5053-1.9755.8606-3.9762 1.0547-5.9977.1974-2.0548.1184-4.1253.1572-6.1892.0518-2.759-.1093-5.4977-.6236-8.2105-.274-1.4452-.835-2.8035-1.3223-4.1828-.0976-.2762-.2271-.476-.5995-.2127-.211.1491-.4635.2803-.7053.4051-2.0625 1.0651-4.1513 2.0768-6.2337 3.102-2.0655 1.0168-4.1935 1.9037-6.2185 3.0026-.822.4461-1.7136.8129-2.3883 1.4627-1.1475 1.1052-2.0235 2.4468-2.9527 3.7317-.9408 1.3009-1.6441 2.7565-2.3756 4.1799-.8261 1.6075-1.5182 3.2852-2.2361 4.9464-.4849 1.122-1.0541 2.2145-1.205 3.4631-.0379.3141-.2979.56-.7332.545-.3962-.0137-.7802-.0938-1.1732-.1157-1.7869-.0995-3.5734-.2096-5.359-.3308-1.9067-.1294-3.8064-.3838-5.7253-.2854-.3524.0181-.6749.0962-.9792.2636-.691.3802-1.4163.6651-2.1762.8845-.7024.2028-1.3533.5091-1.8959 1.0468-.7633.7564-1.5514 1.4912-2.3456 2.2139-1.8431 1.6773-3.698 3.3385-5.3774 5.1853-.4256.4681-.8915.9002-1.3501 1.3371-.1655.1576-.3776.4124-.604.1638-.2444-.2684.1697-.2856.2492-.4399.0229-.0445.0646-.0795.0989-.1178 1.1039-1.2331 2.1925-2.4802 3.3158-3.6954 1.4497-1.5683 2.9301-3.1081 4.3911-4.666.58-.6184.5927-.6772-.2141-.9921-1.2059-.4708-2.4432-.745-3.7347-.2517-1.3109.5007-2.5828 1.0812-3.8301 1.7217-.4471.2296-.7835.1182-1.0288-.3073-.2799-.4855-.5067-1.0062-.8249-1.4642-1.0742-1.5459-2.347-2.9273-3.5862-4.3416-1.8082-2.0635-3.9541-3.724-6.1033-5.3824-1.2272-.947-2.5616-1.7539-3.8316-2.6468-1.6916-1.1891-3.3244-2.4526-4.7901-3.9198-.1139-.114-.2361-.2697-.4369-.2175-.3084.0801-.7828.8734-.6999 1.2023.1083.4293.2485.8505.3749 1.2751.266.5264.4157 1.1094.8422 1.5582.2042.2148.4243.4928.4658.7681.0979.6488-.0958 1.2505-.6092 1.6978-.5082.4429-1.0076.2596-1.4931-.065-.0412-.0276-.0949-.0365-.1429-.054-.1563-.0991-.312-.1989-.4689-.297-.4793-.2996-.5127-.299-.5938.2761-.1381.9783-.2752 1.961-.4539 2.9281-.2891 1.5644-.4822 3.1386-.6605 4.7142-.1473 1.301-.3018 2.631.0733 3.9128.3328 1.1371.7842 2.2404 1.2054 3.3503.181.477.397.9436.6329 1.3962.9049 1.7362 1.8349 3.4594 2.7296 5.2008.1851.3603.4113.4168.7334.2799.4452-.1892.9141-.2692 1.3855-.3506.5532-.0956.5581.46.8068.7064.1728.1712-.088.388-.2494.5408-.6958.6587-1.352 1.3506-1.8745 2.1614-.0879.1364-.1683.2332-.0953.4101.2102.5098.2534 1.0527.3195 1.5962.0793.6528-.218 1.3333.1539 1.9635.053.0899-.0048.191-.093.2684-.8479.7438-1.3014 1.7528-1.739 2.7458-.4921 1.1167-.8358 2.2916-.813 3.6106.4163-.2632.7752-.4798 1.0672-.7912 1.3867-.6917 2.7735-1.3835 4.2731-2.1315-.9197-.2285-1.7177-.4474-2.5256-.6203-.5283-.1131-.6662.0575-.497.5777.062.1905.088.3432-.1098.4238-.2125.0866-.4057.0351-.5091-.1981-.0543-.1225-.0036-.2783-.1192-.3822-.0007-.0679.0047-.1366-.0031-.2037-.0974-.8319-.0595-.8834.7704-1.0975.2891-.0746.492-.2882.5441-.5545.1726-.8827.5815-1.7562.1867-2.6774-.0566-.1321.0772-.2214.0406-.3396.1362-.0546.2452-.1343.4266-.0882 1.2651.3217 2.5298.2074 3.7918-.0435.3867-.0769.7501-.0604.8612-.6323.1137-.5857.7116-.9157 1.0768-1.3744.0735.0013.147.0025.2206.0038.0603.0025.1008-.0182.1006-.0862.0211-.0578.0423-.1156.0634-.1734.0472-.0128.0944-.0257.1417-.0385.0421-.0228.0843-.0456.1264-.0684.2712.0025.4557.2084.6913.2945.2838.1717.5676.3435.8514.5152-.0916.3485-.3095.408-.6196.2786-.2341-.0977-.4712-.1888-.7102-.2736-.1193-.0423-.2489-.153-.3678.0031-.2781.3651-.6597.6439-.8756 1.0619-.0853.1653-.0946.2244.0925.3803.7527.6274 1.5656 1.1775 2.263 1.8807.6463.6516 1.2772 1.4384 2.429 1.0134.8962-.3307 1.9036-.3984 2.5904-1.1829.034-.0192.0937-.0346.097-.0582.0099-.0695-.03-.1125-.1079-.1038-.0652-.1452-.1304-.2904-.1957-.4356-.161-.8852.1584-1.6911.5228-2.4445.245-.5066.4439-1.1221 1.2421-1.1988.5213-.0501.2948.1682.2178.3339-.2302.4954-.4941.9808-.5594 1.5301-.078.6561-.3372 1.3554-.0696 1.9656.2335.5325.3229.7882-.3451.9077-.1664.0298-.3346.1854-.4522.325-.3079.3655-.7055.5753-1.1316.7635-1.1379.5026-2.3776.5834-3.5675.8642-1.6211.3827-3.2372.7476-4.792 1.3737-2.3833.9597-4.6388 2.1696-6.807 3.5228-1.7646 1.1013-3.4994 2.267-5.1192 3.5833-.968.7866-1.8943 1.6246-2.8649 2.4078-.2827.2281-.4491.4973-.5866.8105-.6877 1.5662-1.3422 3.1571-2.9477 4.0566-1.3112.7223-2.621 1.4472-3.9344 2.1655-.5273.2884-.7762.9319-.5105 1.4861.2284.4762.5128.926.7803 1.3829.0788.1345.1906.2784.3705.17.6757-.4071 1.4692-.3988 2.1904-.6399.4144-.1385.732-.0361.9851.3024.8389 1.1223 1.6427 2.2627 2.1571 3.5849.0943.2424.042.3903-.0678.5587-.1215.1863-.2877.2503-.5276.2043-.4112-.0789-.757-.2594-1.1064-.487-.7576-.4935-1.0992-1.3319-1.6989-1.9523-.0772-.0798-.0466-.1808-.0089-.2866.221-.6209.217-.6239-.4434-.5416-.1514.0188-.3.0609-.4515.0779-.2954.0331-.3244.1736-.1913.4097.6047 1.0728 1.2771 2.101 2.0814 3.0342 1.0509 1.2194 2.2751 2.2549 3.5871 3.1761.8197.5755 1.7011 1.0469 2.7508.4796.2272-.1228.4483.0037.6696.1312.3482.2006.7263.5212 1.1392.309.5886-.3027 1.1694-.6622 1.5946-1.1812.7243-.884 1.3657-1.8302 1.9439-2.8184 1.173-2.0045 2.3673-3.9968 2.5298-6.4039.0267-.3962.2034-.7077.7113-.7001.2004.003.425-.1325.6005-.2581.3326-.238.421-.7526.1645-.8803-.6826-.3399-1.3611-.6996-2.073-.9665-1.2807-.4802-2.6177-.7618-3.9663-.9873-.4724-.079-.9873-.2465-1.407-.0219-1.1233.6011-2.2615 1.1649-3.428 1.6749-.194.0848-.3689.1763-.3769-.1582.4029-.1171.6853-.4264 1.0271-.6409.8214-.5153 1.664-.9982 2.4685-1.5382.3702-.2484.7301-.3324 1.1511-.2478 1.8029.3624 3.6236.6428 5.3912 1.168.5561.1075 1.0928.2722 1.5969.5355.9129.4769 1.1185 1.1021.7208 2.0589-.1692.407-.4271.7522-.7493 1.0083-.4247.3376-.5679.7806-.6777 1.2583-.2918 1.2688-.7245 2.5039-1.3752 3.6133-.7911 1.3488-1.563 2.7326-2.6736 3.8671-.9078.9272-1.6451 2.0625-2.975 2.4848-.1655.0526-.1427.1562-.1034.2822.2841.9113.4527 1.8563.8015 2.7483.0421.1076.1097.2244.1995.2911 1.1843.8803 2.3324 1.8192 3.7188 2.3833.1159.0472.2446.0884.2736.2084.0718.2976.3324.374.547.5.8989.5279 1.7998 1.0525 2.7044 1.5705.9114.5219 1.7985 1.1603 2.9379.5901.1913-.0957.4246-.1118.6407-.1531 2.3054-.4408 4.628-.0615 6.9421-.124 1.2423-.0335 2.5017.1381 3.7312-.0669 1.3376-.223 2.5982-.6747 3.5653-1.7336.6304-.6902 1.248-1.3895 1.8663-2.0897 1.0822-1.2253 2.0345-2.5625 3.2102-3.7069.542-.5275.9934-1.1514 1.6803-1.5193 1.6975-.9091 3.4127-1.7851 5.0802-2.7503.272-.1574.4407-.3527.3941-.6425-.14-.8703-.0399-1.775-.3619-2.6165-.072-.1882-.1607-.4023.0329-.4966.2579-.1257.2538.1974.3673.3198.0442.0476.0699.119.0871.1841.1044.3949.2706.6292.7506.45.2367-.0883.4963.0354.7243.1787.2692.1693.4621.407.6373.6575.2617.3742.5853.5152 1.0303.3681.6651-.2198 1.3173-.272 1.9123.1998.3499.6425.5111 1.3246.3105 2.0396-.2928 1.0438-.5259 2.0941-.5879 3.18-.0161.2813-.2252.3974-.4903.4179-.1749-.1645-.2005-.3524-.1877-.5971.0371-.7079.0335-1.4193.226-2.1075.1071-.3829-.0798-.3885-.3372-.287-.4097.1614-.837.2764-1.2443.4291-1.1606.4352-2.3514.7728-3.4889 1.296-1.7452.8028-3.5766 1.4164-5.3568 2.1459-.5717.2343-1.226.3435-1.6506.8626-.8167.9983-1.634 1.9963-2.4333 3.0084-.1822.2308-.6143.4235-.4756.72.1509.3222.607.2512.9357.2276 1.3364-.096 2.5871.223 3.8238.6863 1.0351.3878 2.0908.7206 3.1373 1.0778.9275.4278 1.8866.7682 2.8523 1.1021 2.3927.8274 4.6602 1.9543 6.9731 2.9748 2.694 1.1887 5.2729 2.587 7.8253 4.0409.9768.5564 1.8876 1.2189 2.7862 1.8953.1398.1052.2501.2675.4656.0379.4696-.5002.8833-1.0349 1.2182-1.6321.134-.0648.2349-.1576.2636-.3115l.039-.011.0096-.04c.0755-.0689.2206-.1083.1095-.2571zm-20.6828-17.8985c.5591-.2019 1.1204-.3983 1.6769-.607.9848-.3694 2.0066-.6353 2.9699-1.0647.0879-.0392.2296-.0398.1821-.1817-.0436-.1305-.1617-.0731-.2609-.053-.2984.0604-.6022.098-.8966.1733-.9567.2446-1.8724.6143-2.7875.9761-.3574.1413-.7913.2707-.8781.7594l-.0186.0023zm-44.4507-.552c-.1827 1.1793-.0693 2.2959.1178 3.4183.066.396.2568.6509.5594.8523.8077.5375 1.6187 1.0703 2.4346 1.5953.5414.3484 1.0983.6729 1.6385 1.0231.1926.1249.302.1368.461-.0681.3061-.3947.2826-.7314.1841-1.2401-.1846-.9529-.5272-1.8541-.7243-2.796-.0322-.1539-.0475-.3055-.2313-.3598-.3401-.1005-.6799-.2019-1.0181-.3085-.6357-.2004-1.2222-.4763-1.7795-.8654-.5512-.3848-1.0137-.8852-1.6422-1.2511zm13.8668-28.1653c.5337.111 1.0006.2081 1.4675.3054.4662.0971.952.1412 1.3941.3038.7156.2632 1.3885.1813 2.0651-.0873.4402-.1748 1.1742-.079 1.2891-.424.1186-.356-.27-.897-.4738-1.3401-.235-.5112-.4686-1.0385-1.2004-.9729-.2478.0222-.5087-.0406-.7566-.0962-.3703-.0831-.7354-.0541-1.0325.1588-.9192.6587-1.9439 1.1856-2.7525 2.1525zm-7.6197 35.8809c.3551-.0255.709-.048 1.0623-.0771.3637-.03.7269-.0666 1.1283-.1038-1.096-1.0306-1.8358-.9554-2.1906.1809zm39.5142-10.3304c.1326.2169-.1269.6886.3576.6822.3131-.0041.6981-.0413.8839-.3722.0836-.1489-.5142-.8594-.6845-.8143-.2471.0655-.5576.1119-.557.5043z" fill="#0c0c0c"/><path d="m109.2691 83.7527c-.286-.9146-.7737-1.7346-1.274-2.5356-.9149-1.4649-1.9852-2.8255-3.0828-4.1541-.6968-.8434-1.4315-1.6547-1.9471-2.6203-.4522-.847-.7654-1.7586-1.0367-2.7299.4012.041.743.1184 1.0627.2719.4335.2081.6752.0066.8548-.3684.2406-.5023.0984-.9964-.0457-1.4793-.3741-1.254-.68-2.5386-1.1778-3.7429-.6163-1.4911-1.2917-2.9617-2.0201-4.4081-.6764-1.3433-1.3519-2.6805-2.2266-3.905-.3535-.4949-.7713-.9437-1.1527-1.4192-.2061-.2569-.37-.402.0163-.7791.6905-.6741 1.4991-1.1851 2.1999-1.8312.2846-.2624.4888-.2598.6789.0747 1.2329 2.1686 3.021 3.922 4.4437 5.9472.8805 1.2534 1.6824 2.5577 2.3673 3.935.2792.5614.6274 1.0865.8425 1.6842.0845.2347.1794.3602-.186.3903-.6048.0499-.7643.4716-.4737.9916.39.698.6746 1.4579 1.0945 2.1354.6453 1.0412 1.3814 2.0256 2.0533 3.051 1.0206 1.5576 1.9796 3.157 3.0383 4.6878 1.0201 1.4751 2.0318 2.9554 3.0135 4.4557.7957 1.216 1.5261 2.4756 2.3417 3.6776 1.4018 2.066 2.5943 4.2522 3.7553 6.4546.5529 1.0488 1.0161 2.1456 1.4665 3.2493.4688 1.1487.9354 2.2989 1.3575 3.464.9057 2.4996 1.6325 5.0538 2.1983 7.6525.0253.1164.0281.2376.0414.3566-.0502.5814-.4738.9741-.7605 1.423-1.6057 2.5133-3.4112 4.8829-5.3312 7.162-.4232.5024-.7973 1.0704-1.3674 1.4407-1.1958-1.9539-2.4422-3.8681-4.1967-5.3873-.0742-.0642-.1801-.1683-.1706-.2405.0648-.4918-.1292-1.0083.219-1.476.84-1.1281.7735-2.4547.7019-3.751-.0628-1.1358-.2531-2.264-.359-3.3982-.0823-.8814-.0947-1.7707-.3832-2.621-.0399-.1176-.0312-.2825-.2424-.2542-.0922.2397.018.5157-.1365.7392-.2532-.235-.1963-.5631-.2577-.856-.3507-1.673-.7965-3.3179-1.394-4.9224-.7148-1.9194-1.2392-3.9063-2.0625-5.7887-.2754-.6297-.644-1.2054-.9464-1.8175-.4085-.8268-.7882-1.6678-1.198-2.4939-.0553-.1117-.0361-.3942-.318-.2645z" fill="#888177"/><path d="m70.8341 137.85c.1944-.951.3892-1.9039.7815-2.7968.1489-.3389.1267-.7361.4152-1.0359.1053-.1094.0245-.3607-.0955-.5212-.4812-.6436-.6273-1.4203-.7999-2.1698-.3022-1.3128-.8376-2.5589-1.0602-3.8936-.1022-.6126-.2073-1.2276-.4017-1.8246-.0749-.2301-.1342-.4414-.3944-.4488-.2833-.008-.4136.2294-.4897.4557-.1671.4966-.542.801-.9685 1.1634-.1205-1.4513-.2347-2.8355-.3506-4.2195-.0955-1.1406-.3889-2.2415-.6376-3.3545-.4209-1.883-1.1398-3.6755-1.6059-5.5427-.0781-.313-.2105-.638-.5587-.6529-.3567-.0153-.4479.2909-.4654.6127-.007.1289-.0839.254-.1748.5099-.7495-2.732-1.7887-5.2162-3.103-7.6799.8182.0674 1.3963.4944 1.9765.8754 1.9849 1.3034 3.851 2.7739 5.7778 4.1594.7928.5701 1.4592 1.324 2.2573 1.859 1.0295.69 1.0518 1.7714 1.419 2.7312.0999.261.2713.4562.5268.5587.2819.113.3945-.1145.5209-.296.0679-.0976.1196-.2087.1983-.296.1116-.1239.0285-.412.2389-.4018.1851.009.2599.2495.3458.4092.8414 1.5644 1.6255 3.1592 2.1918 4.8442.685 2.0382 1.379 4.0774 1.7335 6.2096.0167.1004.0435.1994.0698.2979.1852.6956.1202.8347-.5508 1.124-.8446.3643-1.6903.7263-2.5384 1.0825-.2183.0917-.3605.2435-.288.4701.093.291.3541.3126.5943.2167.6621-.2643 1.3263-.5278 1.9696-.8339 1.6326-.777 3.3725-1.1903 5.1375-1.4789 2.8532-.4666 5.7377-.5719 8.6239-.6756 1.5243-.0547 3.044-.053 4.5657-.0098 1.1087.0315 2.2083.186 3.3122.2773 1.7643.1459 3.4487.6124 5.1209 1.1492.0932.0299.2032.0527.2419.1685-.1284.2976-.4374.3635-.6784.4989-6.5726 3.6906-13.5682 6.2055-20.9955 7.5018-2.599.4536-5.2172.7447-7.8551.8783-1.3364.0675-2.6708.082-4.007.0786z" fill="#cecdca"/><path d="m62.4563 137.2325c.074-1.6854.1793-3.3702.2141-5.0564.0436-2.1118.1491-4.223-.0622-6.3368-.1862-1.8633-.3483-3.7269-.68-5.5723-.3781-2.1036-1.2897-3.9779-2.3955-5.7806-.825-1.345-1.8756-2.4894-3.1825-3.3384-1.7181-1.1162-3.5423-1.9936-5.6407-2.2426-3.177-.3771-5.7991.7325-8.1634 2.7366-.6504.5514-1.3273 1.0718-1.933 1.6736-.1778.1767-.274.1451-.3886-.0515-.43-.7377-.8918-1.4582-1.2925-2.2113-.3357-.6308-.5688-.7168-1.1303-.2614-.6681.5419-1.0862 1.2903-1.5806 1.9742-.1286.1778-.2223.3808-.3865.667-.409-.9181-.9636-1.6762-1.2532-2.5669-.5559-1.7096-.9224-3.4628-1.185-5.2406-.0628-.425.0228-.5689.4681-.4937.4823.0815.9247.2585 1.329.5094.9984.6197 2.0358 1.173 3.029 1.8035.362.2298.8142.2851 1.3339.0614.9171-.3947 1.9188-.5507 2.9312-.628 2.411-.184 4.7991.0414 7.1935.2703 1.5323.1465 3.0685.1345 4.5044-.5666.5782-.2823 1.0515-.701 1.4458-1.2002.6115-.7743.5996-.7696 1.4528-.3158.6809.3622 1.3348.7754 1.9322 1.2488.7018.5562 1.1092 1.3773 1.5509 2.1399.892 1.5403 1.5979 3.1706 2.1156 4.8748.2328.7665.408 1.5513.5859 2.3332.0458.2015.0068.431.2829.4687.281.0384.4442-.1486.5639-.3631.124-.2221.2166-.4615.3334-.6879.0441-.0855.0921-.2145.2153-.1758.0587.0184.1069.1254.1278.2011.3315 1.1996.6791 2.3953.9792 3.6029.2995 1.2051.5873 2.4154.813 3.6358.2855 1.5437.365 3.112.4347 4.6792.0135.3035-.1981.5551-.0988.8862.1375.4584.3429.5892.769.3592.4508-.2434.8974-.4944 1.3474-.7393.1729-.0941.2682-.1222.3529.1452.5565 1.756.9208 3.5534 1.2467 5.3627.1229.682-.2578 1.2459-.331 1.8807-.1133.9818-.2972 1.9556-.4511 2.9327-2.2264-.0341-4.4427-.2002-6.6485-.5056-.2503-.0347-.5153.032-.7492-.1123z" fill="#888177"/><path d="m115.4457 99.8958c.1545-.2235.0443-.4995.1365-.7392.2112-.0284.2025.1365.2424.2542.2885.8503.3009 1.7396.3832 2.621.1059 1.1342.2963 2.2624.359 3.3982.0716 1.2963.1381 2.6229-.7019 3.751-.3482.4676-.1542.9842-.219 1.476-.0095.0722.0964.1762.1706.2405 1.7545 1.5191 3.0009 3.4333 4.1967 5.3873-.0829.3154-.299.5003-.5943.6078-1.1988-1.7791-2.5004-3.4825-3.8755-5.1265-.5113-.6113-1.0755-1.1903-1.7198-1.677-.2786-.2105-.425-.5285-.6173-.8073-.0673-.0975-.0795-.2383.0372-.324.0986-.0724.1831.0131.2778.0527.2769.1158.4613.6406.773.3768.213-.1802.4203-.4775.5784-.7584.4308-.7652.5645-1.6123.5787-2.4645.034-2.0387.0189-4.0782.022-6.1174.0001-.0504-.018-.1008-.0277-.1512z" fill="#0d0d0d"/><path d="m71.8709 98.4237c.2651-.0205.4743-.1366.4903-.4179.062-1.0859.2951-2.1362.5879-3.18.2006-.715.0394-1.3971-.3105-2.0396.0007-.0655.0015-.1309.0022-.1964.2737.1139.4583.3472.6914.5135.3549.2531.5178.7184.9775.8557.1207.036.0646.1641.0519.2666-.1848 1.4965-.4094 2.9818-1.1006 4.3503-.1364.27-.0862.4204.2582.4006.1406-.0081.2648-.0461.3956-.0851 1.8083-.5392 3.2938-1.711 4.9516-2.5461 1.7939-.9036 3.4343-2.0807 5.0943-3.2155.3738-.2555.3529-.4542.1613-.7407-.3215-.4806-.6528-.951-1.0745-1.3591-1.2162-1.1771-2.4063-2.3813-3.8971-3.227-.2733-.1551-.3833-.4425-.4203-.7335-.0864-.6799-.2784-1.3409-.453-1.9936-.3812-1.4251-.3429-2.8718-.3987-4.3162-.0192-.4976.1368-.9304.4177-1.3751.5806-.9189 1.0861-1.8896 1.5669-2.8664.9114-1.8516 1.7378-3.7424 2.5179-5.6537.5996-1.4688 1.2375-2.9221 1.592-4.4783.154-.6761-.0929-1.0382-.7856-1.1463-.5206-.0812-1.07-.0645-1.5495-.3065-.7267-.3667-1.2477-.1942-1.625.5107-.045.084-.1446.1387-.219.207-1.1383-.3777-2.3151-.404-3.4997-.4613-.4621-.0223-.9851.0987-1.4261-.1919.0484-.1653.0968-.3305.1452-.4958.383-.085.4709-.2972.2784-.636-.093-.1637-.1878-.3275-.2657-.4986-1.1351-2.4922-2.5768-4.7723-4.56-6.6894-.1393-.1347-.3966-.2236-.389-.4946.012-.4292-.3048-.4492-.5964-.4364-.8161.0357-1.6311.0956-2.4464.1476-1.7523.1118-3.5032.2716-5.26.2616-.5208-.003-1.0408-.0405-1.5644-.0243-.2052.0063-.4344-.0836-.5526.1179-.1272.2169-.2132.5109-.0393.7245.7001.8601.6662 1.9781 1.0555 2.9462.0527.131.0259.3926-.1265.5679-.1547.1779-.4704.3012-.3068.6271.1694.3375.4806.1496.7342.1713.0844.0072.1703.001.2537.0134.4728.0707.5583.2319.4543.704-.0815.3697-.3869.5029-.6399.6909-.6795.5049-1.0781 1.3188-.6551 2.2364.0997.2163.0797.3749-.1223.5732-.5769.5661-1.2703.9869-1.8527 1.5374-.3638.3439-.7497.3922-1.2163.3569-1.1891-.0899-2.305-.4032-3.3773-.9238-1.0162-.4934-1.6158-1.2181-1.6402-2.3981-.0233-1.1251.2119-2.1983.5017-3.2688.0291-.1073.1461-.2259-.0225-.3044-.1269-.059-.2434.0056-.3041.1193-.2085.3907-.5243.7152-.669 1.147-.3615 1.0784-.6684 2.1683-.8821 3.288-.0821.4303.0609.6665.3858.8955.2895.204.6953.1945.9256.4054.5956.5454 1.3167.9057 1.9288 1.4186-.869.5007-1.8407.5551-2.8042.645-.326.0991-.6596.1784-.9766.3009-.8435.3261-1.6772.6772-2.5194 1.0066-2.1176.8282-4.0731 1.973-6.0515 3.0752-2.097 1.1683-3.8901 2.7665-5.8647 4.1072-.1005.0682-.2242.1147-.1612.271.0577.1431.1105.2927.3177.2701.1529-.0167.3079-.0126.4614-.0255.6127-.0513.6649.0027.5441.591-.0169.0823-.0605.1588-.0885.2392-.43 1.2351-1.1147 2.3315-1.845 3.4041-.0898.1319-.2538.2769-.1151.4577.1487.1939.3096-.0079.466-.0186-.0012.275-.0023.5501-.0035.8251-1.7676-.5253-3.5883-.8057-5.3912-1.168-.421-.0846-.7809-.0007-1.1511.2478-.8045.5399-1.6471 1.0229-2.4685 1.5382-.3418.2145-.6242.5238-1.0273.6408-1.4398.1116-2.8719.1882-4.0642-.8639 1.6055-.8995 2.26-2.4904 2.9477-4.0566.1375-.3132.3039-.5823.5866-.8105.9706-.7832 1.8969-1.6212 2.8649-2.4078 1.6197-1.3163 3.3546-2.482 5.1192-3.5833 2.1682-1.3532 4.4236-2.5631 6.807-3.5228 1.5548-.6261 3.1709-.991 4.792-1.3737 1.1899-.2809 2.4297-.3616 3.5675-.8642.4261-.1882.8237-.398 1.1316-.7635.1176-.1396.2858-.2952.4522-.325.668-.1196.5786-.3752.3451-.9077-.2675-.6102-.0084-1.3095.0696-1.9656.0653-.5492.3292-1.0346.5594-1.5301.077-.1657.3036-.3841-.2178-.3339-.7982.0768-.9971.6922-1.2421 1.1988-.3644.7535-.6838 1.5593-.5228 2.4445-.2559-.0267-.4451-.1902-.5777-.3746-.9906-1.3772-2.5721-1.6562-4.0176-2.1894-.2838-.1717-.5676-.3435-.8514-.5152.0048-.1183.0096-.2366.0144-.3549.3244.0172.6272.1759.9619.1374.1606-.0185.3115-.0252.3502-.2242.04-.2056-.0894-.2705-.2524-.3135-.0993-.0262-.1945-.0691-.2946-.0905-.3263-.07-.4454-.2035-.2083-.5142.6734-.8824 1.3211-1.7834 2.0691-2.608.7028-.7746 1.5187-1.4262 2.2622-2.1554.0966-.0948.284-.2476.178-.3851-.1419-.1841-.2545.0608-.38.1147-.1092.0469-.2094.1145-.3137.173-.0275-.0288-.055-.0575-.0825-.0863-.1666-.3237-.3423-.1224-.5161-.0086-1.5373 1.0062-2.8173 2.3168-4.1291 3.579-.5086.4894-.8413 1.0856-1.6642.5958-.136-.0809-.3871-.06-.4923.1547-.1271.2594.1218.3109.2559.418.0925.0739.1986.1309.2986.1954.0054.3061-.3804.1612-.4453.3863-.2972-.1553-.5843-.1316-.8627.0483-1.147.0836-2.2247.4022-3.1578 1.0784-.6839.4957-1.2113 1.123-1.0918 2.0665.0367.1183-.0972.2075-.0406.3396.3947.9213-.0141 1.7948-.1867 2.6774-.0521.2663-.255.4799-.5441.5545-.8299.2141-.8677.2656-.7704 1.0975.0079.0671.0024.1357.0031.2037-.1675.2315-.3516.453-.4987.6967-.2474.41-.3603.8357-.0782 1.2896.0574.0924.0448.2284.0644.3442-.2921.3113-.6509.5279-1.0672.7912-.0228-1.3191.3209-2.4939.813-3.6106.4376-.993.891-2.002 1.739-2.7458.0882-.0774.1461-.1785.093-.2684-.3718-.6302-.0745-1.3107-.1539-1.9635-.066-.5435-.1093-1.0864-.3195-1.5962-.073-.1769.0075-.2738.0953-.4101.5225-.8107 1.1787-1.5026 1.8745-2.1614.1614-.1528.4221-.3696.2494-.5408-.2487-.2464-.2536-.802-.8068-.7064-.4714.0814-.9403.1614-1.3855.3506-.322.1368-.5482.0804-.7334-.2799-.8946-1.7414-1.8247-3.4646-2.7296-5.2008-.2359-.4527-.4519-.9193-.6329-1.3962-.4211-1.1099-.8726-2.2132-1.2054-3.3503-.3751-1.2818-.2206-2.6118-.0733-3.9128.1783-1.5755.3714-3.1498.6605-4.7142.1787-.9671.3158-1.9498.4539-2.9281.0812-.575.1145-.5757.5938-.2761.1569.0981.3126.198.4689.297-.0234.7494-.2088 1.4763-.3057 2.2142-.231 1.7584-.4159 3.5236-.5798 5.2897-.0739.7964-.3576 1.5858-.2 2.3901.2266 1.1567.5151 2.3046.9524 3.4003.5378 1.3474 1.2051 2.6375 1.7173 4.0018.381 1.0148.8243 2.0203 1.409 2.9594.4785.7686 1.0408 1.0498 1.9232.8489.3454-.0786.6961-.1578 1.0462-.2278.1921.6379.57.7364 1.0994.337.3618-.2729.5905-.6577.9252-.9535 1.2395-1.0954 2.4922-2.1797 3.6724-3.3372 1.1673-1.1448 2.2862-2.338 3.5591-3.3704.4051-.3286.5034-.762.295-1.2223-.5213-1.1513-1.0019-2.317-1.418-3.5138-.4874-1.4018-.8313-2.8864-1.8569-4.0384-.6918-.7771-1.3957-1.5488-2.1504-2.2635-.9781-.9262-2.0208-1.7837-3.0195-2.6887-.9853-.8929-1.9446-1.8145-2.9281-2.7094-.2575-.2343-.5321-.5123-.9462-.306-.465-.0661-.8433-.3177-1.2281-.5621-.3156-.2005-.6448-.3829-1.0294-.1535-.1265-.4247-.2666-.8459-.3749-1.2751-.083-.3289.3915-1.1222.6999-1.2023.2008-.0521.323.1035.4369.2175 1.4657 1.4672 3.0986 2.7307 4.7901 3.9198 1.2701.8928 2.6044 1.6998 3.8316 2.6468 2.1492 1.6584 4.2951 3.3189 6.1033 5.3824 1.2393 1.4142 2.5121 2.7957 3.5862 4.3416.3182.4579.545.9787.8249 1.4642.2454.4255.5817.5369 1.0288.3073 1.2473-.6405 2.5192-1.2211 3.8301-1.7217 1.2915-.4933 2.5288-.2191 3.7347.2517.8068.315.7941.3737.2141.9921-1.461 1.5578-2.9414 3.0977-4.3911 4.666-1.1233 1.2151-2.2119 2.4623-3.3158 3.6954-.0343.0383-.076.0733-.0989.1178-.0795.1543-.4936.1714-.2492.4399.2264.2487.4386-.0061.604-.1638.4586-.4369.9245-.8691 1.3501-1.3371 1.6794-1.8469 3.5343-3.508 5.3774-5.1853.7941-.7227 1.5823-1.4575 2.3456-2.2139.5426-.5377 1.1935-.844 1.8959-1.0468.7599-.2194 1.4852-.5043 2.1762-.8845.3043-.1674.6267-.2455.9792-.2636 1.9189-.0984 3.8186.156 5.7253.2854 1.7856.1212 3.572.2313 5.359.3308.393.0219.7769.102 1.1732.1157.4354.015.6953-.2309.7332-.545.1509-1.2486.7201-2.3411 1.205-3.4631.7179-1.6612 1.41-3.339 2.2361-4.9464.7315-1.4234 1.4348-2.8789 2.3756-4.1799.9292-1.2849 1.8052-2.6265 2.9527-3.7317.6747-.6498 1.5663-1.0166 2.3883-1.4627 2.025-1.0989 4.153-1.9858 6.2185-3.0026 2.0824-1.0251 4.1713-2.0368 6.2337-3.102.2418-.1249.4944-.256.7053-.4051.3724-.2632.502-.0635.5995.2127.4873 1.3794 1.0483 2.7376 1.3223 4.1828.5142 2.7128.6754 5.4515.6236 8.2105-.0388 2.0639.0402 4.1343-.1572 6.1892-.1942 2.0215-.5494 4.0222-1.0547 5.9977-.4066 1.5895-1.2615 2.7536-2.6417 3.6684-1.9157 1.2699-3.8557 2.5177-5.6353 3.9823-.5496.4524-1.0434.9745-1.5462 1.481-.2195.2211-.3203.1716-.5115-.054-.3767-.4443-.6651-.9934-1.2619-1.212-.0012-.2254.1433-.3536.33-.4048.3972-.1089.692-.3574.9834-.6288.3128-.2913.6659-.5407.9686-.8414 1.7089-1.6978 3.8421-2.9587 5.0192-5.2136.4648-.8904.8777-1.7735 1.1156-2.7273.4506-1.8062.8347-3.625 1.0312-5.4862.1511-1.4305.3034-2.8663.2714-4.2938-.0581-2.5935-.0641-5.197-.6438-7.7568-.2308-1.0194-.3388-1.2166-1.3156-1.2339-.1251-.109-.2426-.1602-.4114-.0538-.7361.464-1.4952.8931-2.2182 1.3762-2.1805 1.4569-4.3861 2.8732-6.6415 4.2118-.6041.3585-1.4244 1.1404-1.8154 1.6874-1.5987 2.2367-2.972 4.6059-4.2047 7.062-.5047 1.0055-.9705 2.0299-1.5437 3.0042-.7426 1.2624-1.4029 2.5731-2.1089 3.8573-.1326.2412-.0814.3884.1176.5609.4113.3566.8311.7115 1.1918 1.1165.7925.8898 1.6844 1.6807 2.5297 2.5137.8713.8586 1.8013 1.6572 2.5707 2.6149.3829.4766.8949.8108 1.3237 1.237.1439.143.3935.273.6048.1177.2026-.1488.1773-.3635.0799-.599-.0987-.2388-.0372-.5022.039-.7494.8162.2342 1.5806.6534 2.4532.6859-.1764.3423.0262.5839.2242.8218 1.4426 1.7331 2.7205 3.5816 3.8055 5.5565.7055 1.2843 1.3512 2.5998 1.9492 3.9412.5209 1.1686.903 2.386 1.3809 3.5687.2661.6587.4055 1.3685.6048 2.0544.0807.2778.0454.4334-.3009.3391-.5578-.152-1.1447-.1807-1.6816-.4314-.2318-.1082-.5038-.1329-.7164.0821-.2146.217-.0661.4193.0057.6539.6175 2.0174 1.3405 4 1.8304 6.0605.3633 1.528.6491 3.0693.9486 4.6071.188.9651.2156 1.9639.2803 2.9499.1003 1.5278.2005 3.0577.0937 4.5893-.0808 1.1588-.2279 2.3107-.442 3.4531-.0605.3225-.1941.3403-.4315.1245-.6527-.5933-1.3392-1.1511-1.9675-1.7686-.2259-.222-.4924-.307-.7489-.4125-.3021-.1243-.6249.2102-.6095.6118.0306.7983.137 1.5908.1087 2.3949-.1059 3.0003-.1797 6.0026-1.1309 8.8946-.3531.3238-.3355.7967-.4652 1.2049-.3094.9736-.6427 1.9426-.8111 2.9556.0969.3147-.1157.5586-.216.8152-.2404.615-.5333 1.2095-.8164 1.8376-.8131-1.008-1.6203-1.9502-2.2468-3.0258-.1196-.2054-.211-.4272-.329-.6336-.1096-.1918-.1159-.5128-.4598-.4499-.2962.0542-.5269.1977-.6585.5026-.4651 1.078-.9155 2.1643-1.4327 3.2174-.7635 1.5546-1.5919 3.0766-2.472 4.5695-.0717.1216-.1629.2173-.288.2814-.1456.021-.2561.0726-.2215.2518l-.0055-.0133c-.1286.0465-.1201.1514-.1098.2572l-.0096.04-.039.011c-.1931.0148-.2706.1273-.2635.3115-.3349.5972-.7486 1.1319-1.2182 1.6321-.2155.2296-.3258.0673-.4656-.0379-.8986-.6763-1.8094-1.3389-2.7862-1.8953-2.5525-1.4539-5.1313-2.8522-7.8253-4.0409-2.3129-1.0205-4.5804-2.1474-6.9731-2.9748-.9657-.3339-1.9248-.6743-2.8523-1.1021.1807-.4945.5491-.8486.9299-1.1784 1.1972-1.0368 2.4426-2.0192 3.4984-3.211.3849-.4345.8115-.8301 1.2894-1.1638.6798-.4735 1.19-1.0624 1.3346-1.9084zm-45.7206-16.4242c.5362-.0721 1.065-.1664 1.5917-.3085 1.1251-.3036 2.1156-.9124 3.1839-1.3418.5731-.2304 1.091-.5532 1.5879-.9136.0652-.0473.1612-.0983.1147-.1969-.0501-.1063-.1776-.1462-.2604-.084-.4943.3714-1.0983.3041-1.6493.4475-1.3475.3507-2.6769.7706-4.0185 1.145-.4096.1143-.839.1935-1.2632.0811-.3764-.0998-.1331-.4855-.2857-.7022-.1062-.1508-.2222-.2766-.4069-.2515-.1621.0221-.1844.1845-.1998.3213-.1511 1.3411.7873 1.8586 1.6056 1.8036z" fill="#888177"/><path d="m35.4021 82.9272c.0012-.275.0023-.5501.0035-.8251 1.1065-1.2351 1.8531-2.7331 2.9215-3.9982.2787-.33.0499-.9721-.3515-1.1618-.2215-.1047-.4385-.2189-.7-.3501.8285-.814 1.7477-1.4418 2.6123-2.1283.9951-.7901 2.1375-1.3772 3.2039-2.0711.9946-.6473 2.0871-1.1566 3.1709-1.6515 1.5051-.6873 3.0243-1.3486 4.607-1.8493.1912-.0605.4355-.1648.3688-.4688.9635-.0899 1.9352-.1443 2.8042-.645.7106.3311 1.4347.6169 2.1934.831.5362.1513 1.0948.0141 1.618.2127.244.0926.4284.2585.4578.4933.0266.2123-.1687.3585-.357.4592-.18.0963-.3558.2043-.5447.2786-.1846.0726-.4165.1753-.3585.3619.0658.2117.0332.529.3792.6037.268.0578.393.3057.5068.5253.6027 1.1634.8173 2.4041.6978 3.7043-.0709.7714.1776.9065.8292.997 1.4094.1958 2.8276.1223 4.2213-.1613 2.7765-.5651 5.2969-1.7772 7.7619-3.1269 1.4989-.8207 3.0009-1.6651 4.3523-2.6875 1.6544-1.2517 3.2748-2.576 4.7024-4.1077.1663-.1785.3571-.4639.7184-.4074.4426.0692.8599.2164 1.2778.3613.2666.0924.3827.2455.2814.5796-.4992 1.647-1.0221 3.281-1.6495 4.8883-1.0995 2.8163-2.497 5.4711-4.1731 7.9733-.4274.6381-.78 1.095-.3335 1.8863.2635.467.2382 1.092.3701 1.6393.3362 1.3958.6874 2.7879 1.0334 4.1813.0752.303-.0426.699.2681.8884.4946.3015.9056.7074 1.4083 1.003 1.3705.806 2.3449 2.0634 3.4625 3.157.1674.1638.0395.2314-.085.353-.998.9752-2.2198 1.634-3.3613 2.4061-1.2605.8525-2.6806 1.4226-3.9618 2.2445-.3993.2561-.8138.636-1.3798.5185l.0109.0066c.2021-1.1812.5365-2.3387.5932-3.5468.0225-.4788.2107-.8728-.46-1.1873-.6876-.3224-1.255-.9419-1.7955-1.4923-.9061-.9226-1.7812-1.8793-2.7025-2.7885-.7162-.7067-1.5401-1.3024-2.1693-2.1006-.0646-.0819-.1726-.1385-.2733-.074-.1274.0817-.034.1851.016.2632.1536.2401.2921.4967.482.7056 1.5123 1.6638 2.9889 3.3605 4.5607 4.9697-.0007.0655-.0014.1309-.0022.1964-.595-.4718-1.2472-.4196-1.9123-.1998-.445.1471-.7686.0061-1.0303-.3681-.1752-.2506-.368-.4883-.6373-.6575-.228-.1433-.4877-.2671-.7243-.1787-.48.1792-.6462-.0551-.7506-.45-.0172-.065-.0429-.1364-.0871-.1841-.1135-.1224-.1094-.4455-.3673-.3198-.1936.0944-.1049.3085-.0329.4966.3221.8415.222 1.7461.3619 2.6165.0466.2898-.1221.4851-.3941.6425-1.6675.9653-3.3827 1.8412-5.0802 2.7503-.6868.3678-1.1383.9918-1.6803 1.5193-1.1757 1.1444-2.128 2.4816-3.2102 3.7069-.6184.7001-1.236 1.3994-1.8663 2.0897-.9671 1.0589-2.2276 1.5106-3.5653 1.7336-1.2296.205-2.489.0334-3.7312.0669-2.3141.0625-4.6367-.3168-6.9421.124-.2161.0413-.4494.0574-.6407.1531-1.1393.5702-2.0264-.0682-2.9379-.5901-.9046-.518-1.8055-1.0426-2.7044-1.5705-.2145-.126-.4752-.2024-.547-.5-.0289-.12-.1577-.1613-.2736-.2084-1.3864-.5641-2.5345-1.5029-3.7188-2.3833-.0898-.0668-.1574-.1836-.1995-.2911-.3487-.892-.5173-1.8371-.8015-2.7483-.0393-.1261-.0621-.2297.1034-.2822 1.3298-.4222 2.0672-1.5575 2.975-2.4848 1.1107-1.1345 1.8826-2.5183 2.6736-3.8671.6507-1.1094 1.0834-2.3445 1.3752-3.6133.1099-.4777.2531-.9207.6777-1.2583.3222-.2561.5801-.6013.7493-1.0083.3977-.9568.1922-1.582-.7208-2.0589-.5038-.2635-1.0405-.4282-1.5966-.5357zm5.064-.0658c.2642.4176.6759.5632 1.0378.7748.731.4273 1.0181 1.0614.8401 1.896-.0747.3501.0246.5734.3967.6242.6871.0938 1.3727.2119 2.0631.2648 1.8471.1417 3.6455.5173 5.4133 1.057.589.1798.5836.1961.1942.6648-1.1761 1.4158-2.6295 2.4804-4.2447 3.3271-1.0122.5306-2.0559 1.0072-3.1677 1.2951-.2664.069-.615.0406-.5816.3939.0305.3218.3406.4292.667.4213 1.4941-.0362 2.949-.363 4.36-.7851 1.9284-.5769 3.8282-1.2811 5.2716-2.8045.1308-.1381.2698-.1934.4346-.0192.1322.1397.3328.1609.5067.23.8281.3291 1.2476 1.3313.7824 1.9132-.2951.3691-.6212.7328-.9963 1.0154-1.9644 1.4793-4.1222 2.588-6.4921 3.2654-.2262.0647-.4334.1247-.4791.3845-.0469.2665.0859.4672.2967.6063.349.2302.723.3602 1.1589.322 1.0807-.0948 2.0862-.4659 3.1109-.7816 1.8756-.5778 3.7158-1.2134 5.2205-2.5473.0946-.0838.1916-.2132.3567-.139.5172.2324 1.0637.6843.8493 1.4651-.265.9654-1.0239 1.4358-1.7495 1.9587-1.0702.7711-2.2973 1.277-3.3985 1.9981-.1626.1065-.2845.1987-.2578.3866.0269.1895.1734.2689.3583.3126.2762.0653.5561.0665.8089-.0306 1.8946-.7273 3.8039-1.4236 5.4509-2.6654.2458-.1853.2485-.3614.134-.5569-.1365-.233-.3465-.1403-.5376-.0371-.2127.1149-.4038.284-.7618.3398.2383-.3725.4266-.6596.6076-.9512.6001-.9665.5831-2.0598-.437-2.7887-.4015-.2869-.9093-.5244-1.4211-.2-.3879.2458-.7885.5011-1.1002.8309-.5299.5607-1.2369.767-1.8891 1.0897-.1103.0546-.1923.0625-.2588-.0464-.0982-.1608.0876-.9491.258-1.0496.4913-.2899.9254-.656 1.3041-1.0724.3254-.3577.7186-.6872.8365-1.1918.2585-1.1063-.1104-1.9132-1.1197-2.4771-1.0213-.5706-1.4715-.5201-2.384.2371-.1819.151-.3976.267-.6105.3735-.3274.1636-.6894.0908-.8915-.1507-.1893-.2262.1434-.4093.2835-.5765.3616-.4315.7558-.8353 1.1258-1.26.4696-.539.3442-1.0277-.3523-1.2041-1.215-.3077-2.4014-.714-3.6498-.913-1.3273-.2115-2.6427-.5226-3.9805-.6507-.5864-.0562-.8272-.1538-.8792-.8206-.0872-1.1165-1.4882-2.0444-2.4877-1.7284z" fill="#cecdca"/><path d="m94.5819 54.0805c-.8726-.0325-1.637-.4517-2.4532-.6859-.0283-.5948-.2962-1.2582.2065-1.743.9932-.9578 2.111-1.7706 3.2731-2.5123.878-.5605 1.6662-1.0862 1.905-2.2663.2581-1.2754.8133-2.489 1.2145-3.7374.4348-1.3531 1.0099-2.6528 1.4886-3.9875.4896-1.3655.9468-2.739 1.5339-4.0698.1736-.3934.5372-.7294.4954-1.2105-.0742-.8525.0172-1.6997.0517-2.5496.014-.3451.0264-.7249-.1887-1.0391-.0963-.1407-.2222-.2857-.4226-.216-.1378.0479-.2654.1006-.3062.2973-.2463 1.1873-.7385 2.2593-1.5991 3.1309-1.454 1.4726-2.7352 3.0966-4.1139 4.6342-.4093.4564-.6116.8123-.4992 1.4556.1921 1.0988.1979 2.2289.3494 3.3367.0558.4078-.0665.6735-.3125.9386-.127.1369-.2645.2647-.3837.408-.8077.9708-1.5797 1.9719-2.5103 2.8355-.2359.2189-.498.404-.8003.4236-1.2206.0791-2.4341.257-3.6656.202-.9468-.0423-1.1327-.1907-1.1173-1.1458.0025-.1536.0094-.3103-.015-.4608-.2642-1.6295.1464-3.1387.9547-4.5173.6642-1.1328 1.2594-2.2997 1.8647-3.4599.8362-1.6026 1.738-3.1627 2.7167-4.6796.2016-.3124.4286-.6152.7285-.8512 1.1824-.9307 2.4795-1.6833 3.8065-2.3765 1.6888-.8821 3.3413-1.8057 4.6266-3.2506.4338-.4876 1.0183-.8642 1.205-1.5463.9768.0173 1.0848.2145 1.3156 1.2339.5797 2.5598.5858 5.1634.6438 7.7568.032 1.4275-.1203 2.8634-.2714 4.2938-.1966 1.8612-.5807 3.68-1.0312 5.4862-.2379.9538-.6508 1.8369-1.1156 2.7273-1.1771 2.2549-3.3103 3.5158-5.0192 5.2136-.3027.3007-.6558.5501-.9686.8414-.2914.2714-.5862.5198-.9834.6288-.1868.0512-.3312.1794-.33.4048-.0911.0187-.1821.0376-.2732.0564z" fill="#cecccb"/><path d="m37.4585 57.1051c-.3501.07-.7007.1492-1.0462.2278-.8824.2008-1.4448-.0803-1.9232-.8489-.5846-.9391-1.028-1.9446-1.409-2.9594-.5121-1.3642-1.1795-2.6543-1.7173-4.0018-.4373-1.0957-.7258-2.2436-.9524-3.4003-.1576-.8043.1261-1.5937.2-2.3901.1639-1.7661.3488-3.5313.5798-5.2897.0969-.7379.2823-1.4648.3057-2.2142.0479.0176.1016.0265.1429.054.4856.3246.9849.5079 1.4931.065.5133-.4474.707-1.049.6092-1.6978-.0415-.2752-.2617-.5533-.4658-.7681-.4265-.4488-.5762-1.0318-.8422-1.5582.3846-.2294.7137-.0471 1.0294.1534.3848.2444.763.496 1.2281.5621.0538.1292-.0565.2666.105.4096.8781.7772 1.7389 1.5745 2.591 2.3804.2446.2313.5295.4408.6891.7669-.2345.0911-.3588-.0529-.5004-.1383-.3352-.2023-.6596-.4248-1.0056-.6061-.2504-.1312-.5101-.2962-.8227-.1715-.1125.0449-.2376.0801-.2408.2269-.0026.118.0971.2056.1878.2193.6363.096 1.0836.5464 1.6158.8368.8949.4883 1.8373.9013 2.614 1.5796.6894.602 1.3682 1.2172 2.0294 1.8498.5152.4928 1.1488.891 1.457 1.5638.3477.759.5243 1.5801.7787 2.3731.4481 1.3967.6351 2.8562 1.0596 4.2572.1003.3309.0719.5986-.1845.8883-.8679.9809-1.7639 1.9346-2.6727 2.8768-.0681.0706-.2026.186-.2347.166-.3943-.246-.8472.0243-1.2348-.1468-.2924-.1291-.7262.2246-.8725-.1643-.1107-.2944-.0239-.6735.0134-1.0107.0579-.5233-.0023-1.1157.3241-1.5314.2654-.338.2225-.5452.0424-.8491-.281-.4741-.4656-.9267-.2275-1.5327.1976-.503.3366-.6027.8012-.3256.1712.1021.3726.3978.6968.0886.3763-.3589.2684-.6259.0183-.962-.9823-1.3198-2.0828-2.5328-3.2921-3.6456-.4811-.4427-.8162-1.0061-1.2754-1.4652-.1091-.1091-.2117-.2044-.3442-.0949-.1447.1197.0272.2037.0768.2951.3031.5583.6813 1.0627 1.0976 1.5418.1424.1639.3508.3108.3723.5359.1326 1.3868.2085 2.7758.1421 4.1707-.0133.2798-.1128.4546-.3788.4184-.2452-.0334-.5812.0428-.5859-.433-.0085-.8701-.1278-1.7347-.2414-2.5994-.0511-.389-.3592-.7313-.2198-1.1373.1039-.3027-.0343-.4509-.2377-.6448-.829-.7902-1.723-1.5139-2.4755-2.3825-.1957-.2259-.3839-.6608-.6885-.438-.3137.2295-.0031.5853.1837.8411.4463.6112 1.0552 1.0687 1.5598 1.624.4594.5055 1.0599.9001 1.1339 1.6975.1195 1.2886.3314 2.5687.3066 3.8691-.0032.1675.0027.3314.0581.5029.5229 1.6168.9128 3.2753 1.5763 4.8488.1976.4687.2289.9388-.0936 1.4545-.3964.6343-.6298 1.3705-.9338 2.0625z" fill="#cecccb"/><path d="m21.2999 83.322c1.1922 1.0521 2.6244.9756 4.0642.8639.0082.3346.183.2431.3771.1583 1.1665-.5101 2.3047-1.0738 3.428-1.6749.4197-.2246.9345-.057 1.407.0219 1.3485.2254 2.6856.5071 3.9663.9873.7119.2669 1.3904.6266 2.073.9665.2565.1278.1681.6423-.1645.8803-.1755.1256-.4001.2611-.6005.2581-.5079-.0076-.6846.3039-.7113.7001-.1625 2.4071-1.3568 4.3994-2.5298 6.4039-.5782.9881-1.2196 1.9343-1.9439 2.8184-.4253.519-1.006.8786-1.5946 1.1812-.4129.2123-.791-.1084-1.1392-.309-.2213-.1275-.4423-.254-.6696-.1312-1.0498.5673-1.9311.0959-2.7508-.4796-1.312-.9212-2.5363-1.9567-3.5871-3.1761-.8042-.9333-1.4767-1.9614-2.0814-3.0342-.1331-.2361-.1041-.3767.1913-.4097.1515-.017.3001-.059.4515-.0779.6604-.0823.6644-.0793.4434.5416-.0377.1058-.0683.2067.0089.2866.5997.6204.9413 1.4588 1.6989 1.9523.3494.2276.6952.4081 1.1064.487.2398.046.4061-.018.5276-.2043.1098-.1684.1621-.3163.0678-.5587-.5144-1.3222-1.3182-2.4627-2.1571-3.5849-.2531-.3386-.5707-.441-.9851-.3024-.7211.2411-1.5147.2328-2.1904.6399-.1799.1084-.2917-.0355-.3705-.17-.2675-.4569-.5519-.9066-.7803-1.3829-.2658-.5542-.0169-1.1977.5105-1.4861 1.3132-.7182 2.623-1.4432 3.9342-2.1654zm10.2365 2.9204c-1.4658-.1378-2.5726.612-3.4408 1.7792-.38.5109-.6297 1.1473-.5305 1.7692.1645 1.0315.9391 1.5766 1.8811 1.8818.4722.153.9975-.1165 1.326-.5156.5995-.7283.5637-1.656.8285-2.4863.125-.3919-.0467-.4254-.4921-.3413-.224.0423-.527.4015-.7506-.0008-.1785-.3211-.1936-.6716.0559-.9623.2765-.3222.6538-.4749 1.0783-.5207.4483-.0484.8839.0488 1.3248.0882.1798.0161.3637-.0089.4129-.2133.0557-.2314-.1585-.2966-.3065-.3389-.4268-.1222-.8652-.191-1.387-.1392z" fill="#5e6065"/><path d="m71.8709 98.4237c-.1446.8459-.6547 1.4349-1.3337 1.909-.4779.3337-.9044.7293-1.2894 1.1638-1.0559 1.1918-2.3012 2.1742-3.4984 3.211-.3808.3298-.7492.6838-.9299 1.1784-1.0466-.3572-2.1023-.69-3.1373-1.0778-1.2367-.4633-2.4874-.7824-3.8238-.6863-.3287.0236-.7849.0946-.9357-.2276-.1388-.2964.2933-.4892.4756-.72.7993-1.0121 1.6166-2.0101 2.4333-3.0084.4246-.519 1.079-.6283 1.6506-.8626 1.7802-.7296 3.6115-1.3432 5.3568-2.1459 1.1375-.5232 2.3283-.8608 3.4889-1.296.4073-.1527.8346-.2677 1.2443-.4291.2574-.1014.4443-.0959.3372.287-.1925.6882-.1889 1.3996-.226 2.1075-.013.2446.0126.4325.1875.597z" fill="#cecdca"/><path d="m22.2287 95.2345c.6286.3659 1.091.8663 1.6421 1.2509.5574.389 1.1439.665 1.7795.8654.3382.1066.6781.208 1.0181.3085.1838.0544.1991.2059.2313.3598.1971.9419.5397 1.843.7243 2.796.0986.5087.122.8454-.1841 1.2401-.159.205-.2683.193-.461.0681-.5402-.3502-1.0971-.6747-1.6385-1.0231-.8159-.525-1.6269-1.0577-2.4346-1.5953-.3026-.2014-.4934-.4563-.5594-.8523-.187-1.1222-.3004-2.2388-.1177-3.4181z" fill="#cecbc8"/><path d="m43.9648 61.9565c1.4455.5332 3.027.8122 4.0176 2.1894.1326.1844.3218.3479.5777.3746.0652.1452.1304.2904.1957.4356.0036.054.0073.108.0109.1619-.6868.7845-1.6942.8523-2.5904 1.1829-1.1519.425-1.7827-.3617-2.429-1.0134-.6974-.7032-1.5104-1.2533-2.263-1.8807-.1871-.156-.1778-.2151-.0925-.3803.2158-.4181.5974-.6968.8756-1.0619.1189-.1561.2485-.0454.3678-.0031.239.0848.4761.1759.7102.2736.3099.1295.5278.0699.6194-.2786z" fill="#cecbc8"/><path d="m35.6131 63.648c-.1195-.9435.4079-1.5709 1.0918-2.0665.9331-.6763 2.0108-.9948 3.1578-1.0784-.0728.3086.2042.343.3656.3912.4999.1491.5287.3724.1799.7183-.0835.0828-.1541.1832-.213.2856-.1945.3386-.5148.6003-.6278.9836-.0366.1243-.1382.302.053.41.1617.0913.3303.0984.4731-.0334.0983-.0907.1886-.1952.2622-.3069.262-.3978.4992-.813.7781-1.1982.1609-.2223.2843-.5251.6414-.5186-.0019.0917-.0038.1834-.0057.2751-.3652.4587-.9631.7887-1.0768 1.3744-.1111.5719-.4745.5555-.8612.6323-1.262.2509-2.5266.3652-3.7918.0435-.1814-.0463-.2904.0334-.4266.088z" fill="#cecbc8"/><path d="m36.0955 67.0692c.8086-.9669 1.8333-1.4938 2.7526-2.1525.2971-.2129.6622-.2419 1.0325-.1588.2478.0556.5088.1184.7566.0962.7318-.0657.9654.4617 1.2004.9729.2037.4431.5923.9841.4738 1.3401-.1149.345-.849.2492-1.2891.424-.6766.2686-1.3495.3506-2.0651.0873-.4421-.1626-.9279-.2067-1.3941-.3038-.467-.0973-.9339-.1944-1.4676-.3054zm3.7606.4637c.4809.0058 1.1294-.4753 1.1485-.852.0171-.3367-.6872-.7425-1.3077-.7537-.3756-.0068-.6538.3304-.664.8046-.0083.385.4142.7962.8232.8011z" fill="#d9d0a0"/><path d="m33.5619 70.8514c-.0197-.1159-.007-.2518-.0644-.3442-.2821-.4539-.1693-.8796.0782-1.2896.1471-.2438.3312-.4653.4987-.6967.1157.1039.065.2597.1192.3822.1033.2332.2965.2848.5091.1981.1978-.0806.1718-.2333.1098-.4238-.1693-.5202-.0313-.6908.497-.5777.8078.1729 1.6059.3918 2.5256.6203-1.4997.7479-2.8864 1.4396-4.2732 2.1314z" fill="#ae9a86"/><path d="m66.6856 95.7888c.0865-.4886.5204-.6181.8778-.7594.9151-.3618 1.8308-.7315 2.7875-.9761.2943-.0753.5982-.1129.8966-.1733.0992-.0201.2173-.0774.2609.053.0474.1419-.0942.1425-.1821.1817-.9633.4294-1.9851.6953-2.9699 1.0647-.5566.2088-1.1178.4051-1.6769.607z" fill="#ae9a86"/><path d="m28.4758 102.9501c.3548-1.1363 1.0946-1.2115 2.1906-.1809-.4014.0372-.7646.0738-1.1283.1038-.3533.0292-.7072.0516-1.0623.0771z" fill="#888177"/><path d="m67.99 92.6197c-.0006-.3924.3099-.4388.557-.5042.1703-.0451.7682.6653.6845.8143-.1858.3309-.5708.3681-.8839.3722-.4845.0063-.225-.4654-.3576-.6823z" fill="#fff"/><path d="m96.5083 106.3322c.1685-1.013.5018-1.982.8111-2.9556.1297-.4082.1121-.8811.4652-1.2049-.2389 1.4017-.6579 2.7525-1.1564 4.0804-.0136.0365-.0787.0538-.1199.0801z" fill="#ae9a86"/><path d="m40.7254 60.4548c.0649-.2251.4507-.0802.4453-.3863.3537.0728.6944.1849 1.0215.3382.0345.2695.069.5391.1035.8086-.0472.0128-.0944.0257-.1418.0383-.0623-.0591-.1245-.118-.1866-.1769.1178-.3085.0349-.4333-.3108-.5288-.3174-.0877-.648.1507-.9311-.0931z" fill="#888177"/><path d="m43.1279 61.0864c-.0048.1183-.0096.2366-.0145.3549-.2356-.0861-.4201-.2919-.6914-.2942.1974-.3086-.1178-.4964-.1762-.7449.1078-.0877.2271-.1321.3672-.0972l-.0069-.0057c-.1362.468.1068.6845.5218.7871z" fill="#888177"/><path d="m42.2458 60.4023c.0584.2485.3735.4362.1762.7449-.042.0225-.0841.0453-.1263.0681-.0345-.2695-.069-.5391-.1035-.8082l.0278.008z" fill="#888177"/><path d="m41.9673 61.0767c.0621.0589.1243.1178.1866.1769-.021.058-.0421.1158-.0632.1736-.0335.0287-.0671.0575-.1006.0862-.0735-.0013-.147-.0025-.2206-.0038.0019-.0917.0038-.1834.0057-.2751.064-.0526.128-.1052.1921-.1578z" fill="#888177"/><path d="m87.3677 113.6983c-.0346-.1792.0759-.2309.2215-.2518-.0225.129-.0233.2772-.2215.2518z" fill="#ae9a86"/><path d="m86.9402 114.3047c-.0071-.1841.0705-.2966.2635-.3115-.0286.154-.1295.2467-.2635.3115z" fill="#ae9a86"/><path d="m87.2524 113.9422c-.0104-.1058-.0188-.2107.1098-.2572.1111.1488-.034.1882-.1098.2572z" fill="#ae9a86"/><path d="m48.7667 65.1181c-.0036-.054-.0073-.108-.0109-.1619.0779-.0087.1178.0342.1079.1038-.0034.0235-.0631.0389-.097.0581z" fill="#888177"/><path d="m66.6794 95.7865-.0127.0046.0188-.0023z" fill="#ae9a86"/><path d="m41.99 61.5134c.0335-.0287.0671-.0575.1006-.0862.0002.068-.0403.0887-.1006.0862z" fill="#888177"/><path d="m72.6408 92.5898c-1.5717-1.6093-3.0484-3.3059-4.5607-4.9697-.1899-.2089-.3284-.4655-.482-.7056-.0499-.0781-.1434-.1814-.016-.2632.1006-.0645.2087-.0079.2733.074.6292.7982 1.4531 1.3939 2.1693 2.1006.9213.9092 1.7964 1.8659 2.7025 2.7885.5406.5504 1.108 1.1699 1.7955 1.4923.6707.3145.4825.7085.46 1.1873-.0567 1.2081-.3911 2.3656-.5932 3.5468-.0748.0092-.1149.0535-.0943.1251.015.0521.0609.0555.1005.0151.0538-.0551.05-.105-.0172-.1467.5661.1174.9806-.2624 1.3798-.5185 1.2812-.822 2.7014-1.392 3.9618-2.2445 1.1415-.772 2.3633-1.4308 3.3613-2.4061.1244-.1216.2523-.1891.085-.353-1.1175-1.0936-2.092-2.351-3.4625-3.157-.5027-.2956-.9137-.7015-1.4083-1.003-.3107-.1894-.1929-.5854-.2681-.8884-.3461-1.3934-.6972-2.7856-1.0334-4.1813-.1319-.5474-.1066-1.1723-.3701-1.6393-.4465-.7913-.0938-1.2483.3335-1.8863 1.6761-2.5022 3.0736-5.157 4.1731-7.9733.6275-1.6073 1.1503-3.2413 1.6495-4.8883.1012-.334-.0148-.4872-.2814-.5796-.418-.1448-.8352-.292-1.2778-.3613-.3614-.0565-.5521.2289-.7184.4074-1.4275 1.5317-3.048 2.856-4.7024 4.1077-1.3514 1.0224-2.8534 1.8668-4.3523 2.6875-2.4651 1.3497-4.9854 2.5618-7.7619 3.1269-1.3937.2836-2.8119.3571-4.2213.1613-.6516-.0905-.9001-.2256-.8292-.997.1195-1.3002-.0951-2.5409-.6978-3.7043-.1138-.2197-.2389-.4675-.5068-.5253-.346-.0747-.3135-.392-.3792-.6037-.058-.1867.1739-.2893.3585-.3619.1889-.0743.3648-.1824.5447-.2786.1883-.1007.3836-.2469.357-.4592-.0294-.2348-.2138-.4007-.4578-.4933-.5232-.1986-1.0818-.0614-1.618-.2127-.7587-.2141-1.4828-.4999-2.1934-.831-.612-.5129-1.3331-.8732-1.9288-1.4186-.2304-.2109-.6362-.2014-.9256-.4054-.3249-.229-.4679-.4652-.3858-.8955.2136-1.1197.5206-2.2096.8821-3.288.1447-.4318.4605-.7563.669-1.147.0607-.1136.1772-.1783.3041-.1193.1686.0784.0516.197.0225.3044-.2899 1.0705-.525 2.1438-.5017 3.2688.0244 1.18.624 1.9047 1.6402 2.3981 1.0722.5206 2.1881.8339 3.3773.9238.4665.0353.8524-.0131 1.2163-.3569.5824-.5505 1.2758-.9713 1.8527-1.5374.2021-.1983.2221-.3568.1223-.5732-.4229-.9175-.0244-1.7315.6551-2.2364.253-.188.5584-.3211.6399-.6909.104-.4721.0185-.6334-.4543-.704-.0834-.0125-.1693-.0062-.2537-.0134-.2536-.0217-.5648.1662-.7342-.1713-.1636-.326.1521-.4492.3068-.6271.1524-.1753.1792-.4369.1265-.5679-.3892-.9681-.3553-2.0861-1.0555-2.9462-.1739-.2136-.0879-.5076.0393-.7245.1182-.2015.3474-.1116.5526-.1179.5236-.0162 1.0437.0214 1.5644.0243 1.7568.0099 3.5077-.1498 5.26-.2616.8153-.052 1.6303-.1118 2.4464-.1476.2916-.0128.6084.0073.5964.4364-.0076.271.2497.36.389.4946 1.9832 1.9171 3.4249 4.1972 4.56 6.6894.0779.1711.1727.3349.2657.4986.1925.3388.1046.551-.2784.636-.2888-.0404-.3912-.2755-.4498-.4995-.0754-.288-.2143-.5382-.3533-.7922-.4236-.7743-.8148-1.5689-1.2818-2.3162-.9243-1.479-2.0105-2.8316-3.3196-3.9954-.1434-.1275-.319-.1932-.4698-.1029-.3734.2236-.7893.1745-1.1871.2394-1.8659.3047-3.7264.6467-5.6153.7903-.5569.0423-.5582.0877-.4028.6476.1958.7057.4654 1.4244-.0742 2.1251 1.7217.2615 3.3881-.0008 5.0512-.1415 1.2593-.1066 2.4731-.2435 3.26 1.0477.0254.0417.0742.0701.1143.102 1.4509 1.1554 2.7682 2.4741 4.3056 3.5237.0188.118.2021.17.1464.3053-.0529.1285-.1794.0855-.2636.0368-.7123-.412-1.3423-.0046-1.8379.351-1.007.7226-2.1058 1.3413-2.9492 2.2779-.1345.1494-.2977.2084-.4797.2702-.694.2356-1.4065.3712-2.1225.5234-1.516.3224-2.9637-.0372-4.4337-.2232-.5248-.0664-.9881-.5458-1.5838-.1277-.7414.5203-1.4627 1.0578-2.1304 1.6711-.2002.1839-.1648.3319-.0755.5352.1709.3891.3941.7509.5108 1.1696.2807 1.0076.3701 2.044.5053 3.0733.0214.1633.0403.2666.2144.2662.7848-.002 1.5825.0798 2.3519-.0315 1.8174-.263 3.5748-.735 5.3075-1.3999 2.155-.827 4.1357-1.9567 6.0391-3.1978 2.1795-1.4211 4.27-2.9978 6.0042-4.979.0743-.0683.174-.123.219-.207.3773-.7049.8983-.8775 1.625-.5107.4796.242 1.0289.2253 1.5495.3065.6927.1081.9396.4702.7856 1.1463-.3545 1.5562-.9925 3.0095-1.592 4.4783-.7801 1.9112-1.6065 3.8021-2.5179 5.6537-.4808.9768-.9863 1.9475-1.5669 2.8664-.281.4447-.4369.8775-.4177 1.3751.0558 1.4444.0175 2.8912.3987 4.3162.1746.6527.3665 1.3136.453 1.9936.037.291.147.5784.4203.7335 1.4909.8457 2.6809 2.0499 3.8971 3.227.4217.4081.753.8785 1.0745 1.3591.1916.2864.2125.4851-.1613.7407-1.66 1.1348-3.3004 2.3119-5.0943 3.2155-1.6578.835-3.1433 2.0069-4.9516 2.5461-.1308.039-.255.077-.3956.0851-.3444.0198-.3946-.1306-.2582-.4006.6912-1.3685.9158-2.8539 1.1006-4.3503.0127-.1025.0688-.2306-.0519-.2666-.4598-.1373-.6227-.6025-.9775-.8557-.2332-.1667-.4179-.3999-.6915-.5139zm-7.484-25.6766c1.3256.0196 2.5182-.2134 3.6717-.663.8767-.3418 1.3069-1.1039.9899-2.1256-.177-.5705-.5116-.9825-.8396-1.4359-.7154-.9887-1.6685-1.3455-2.8656-1.2387-.8426.0752-1.5113.5136-2.1841.9314-.7763.4821-1.432 1.0545-1.52 2.0995-.0746.8869.2884 1.7222 1.0877 2.0744.557.2454 1.1439.3314 1.66.3579z" fill="#0c0c0c"/><path d="m102.6152 25.4374c-.1867.6821-.7713 1.0587-1.205 1.5463-1.2853 1.4449-2.9379 2.3684-4.6266 3.2506-1.327.6932-2.6241 1.4458-3.8065 2.3765-.2999.236-.527.5388-.7285.8512-.9787 1.5169-1.8805 3.077-2.7167 4.6796-.6053 1.1601-1.2004 2.3271-1.8647 3.4599-.8083 1.3785-1.219 2.8878-.9547 4.5173.0244.1505.0175.3072.015.4608-.0154.9551.1705 1.1035 1.1173 1.1458 1.2315.055 2.4449-.1229 3.6656-.202.3023-.0196.5644-.2047.8003-.4236.9305-.8635 1.7026-1.8647 2.5103-2.8355.1192-.1432.2567-.2711.3837-.408.246-.2651.3682-.5308.3125-.9386-.1515-1.1078-.1573-2.2379-.3494-3.3367-.1125-.6433.0899-.9992.4992-1.4556 1.3787-1.5376 2.6599-3.1616 4.1139-4.6342.8606-.8716 1.3529-1.9436 1.5991-3.1309.0408-.1967.1684-.2494.3062-.2973.2003-.0696.3262.0754.4226.216.2151.3142.2027.694.1887 1.0391-.0345.8499-.1259 1.6971-.0517 2.5496.0418.4811-.3218.8171-.4954 1.2105-.5871 1.3308-1.0443 2.7043-1.5339 4.0698-.4786 1.3348-1.0537 2.6344-1.4886 3.9875-.4012 1.2484-.9564 2.462-1.2145 3.7374-.2388 1.1801-1.027 1.7059-1.905 2.2663-1.1621.7418-2.2799 1.5545-3.2731 2.5123-.5027.4848-.2347 1.1481-.2065 1.743-.0762.2472-.1377.5107-.039.7494.0974.2355.1227.4502-.0799.599-.2113.1553-.4609.0253-.6048-.1177-.4288-.4262-.9408-.7604-1.3237-1.237-.7694-.9578-1.6994-1.7564-2.5707-2.6149-.8453-.833-1.7372-1.6239-2.5297-2.5137-.3608-.405-.7805-.76-1.1918-1.1165-.199-.1725-.2502-.3197-.1176-.5609.7061-1.2842 1.3663-2.5949 2.1089-3.8573.5731-.9743 1.039-1.9987 1.5437-3.0042 1.2327-2.4561 2.606-4.8252 4.2047-7.062.3909-.547 1.2113-1.3288 1.8154-1.6874 2.2554-1.3386 4.4609-2.7549 6.6415-4.2118.7231-.4831 1.4821-.9122 2.2182-1.3762.1686-.1061.2861-.055.4112.0541z" fill="#0b0b0b"/><path d="m79.7939 65.6513c-1.7342 1.9812-3.8247 3.5579-6.0042 4.979-1.9034 1.2411-3.8841 2.3708-6.0391 3.1978-1.7327.6649-3.4901 1.1369-5.3075 1.3999-.7694.1114-1.5671.0295-2.3519.0315-.1741.0004-.193-.1029-.2144-.2662-.1351-1.0293-.2246-2.0657-.5053-3.0733-.1166-.4187-.3399-.7805-.5108-1.1696-.0893-.2033-.1247-.3514.0755-.5352.6678-.6133 1.389-1.1508 2.1304-1.6711.5957-.4181 1.059.0613 1.5838.1277 1.47.186 2.9178.5456 4.4337.2232.716-.1523 1.4285-.2878 2.1225-.5234.182-.0618.3451-.1208.4797-.2702.8434-.9366 1.9422-1.5553 2.9492-2.2779.4956-.3557 1.1256-.7631 1.8379-.351.0842.0487.2107.0918.2636-.0368.0557-.1353-.1276-.1873-.1464-.3053.0925-.0441.185-.0882.2775-.1322.4409.2906.964.1695 1.4261.1919 1.1847.0573 2.3614.0835 3.4997.4612z" fill="#ae9a86"/><path d="m37.4585 57.1051c.304-.6921.5375-1.4282.934-2.0624.3225-.5158.2913-.9859.0936-1.4545-.6636-1.5735-1.0535-3.232-1.5763-4.8488-.0555-.1715-.0613-.3354-.0581-.5029.0248-1.3004-.1871-2.5805-.3066-3.8691-.074-.7974-.6745-1.192-1.1339-1.6975-.5046-.5553-1.1136-1.0127-1.5598-1.624-.1868-.2558-.4975-.6115-.1837-.8411.3046-.2228.4928.2121.6885.438.7525.8687 1.6465 1.5924 2.4755 2.3825.2034.1938.3416.3421.2377.6448-.1394.406.1687.7483.2198 1.1373.1136.8647.2329 1.7293.2414 2.5994.0046.4758.3407.3996.5859.433.266.0363.3655-.1386.3788-.4184.0664-1.3949-.0096-2.784-.1421-4.1707-.0215-.2251-.2299-.372-.3723-.5359-.4162-.4791-.7945-.9834-1.0976-1.5418-.0496-.0914-.2215-.1754-.0768-.2951.1325-.1095.2351-.0142.3442.0949.4593.459.7943 1.0224 1.2754 1.4652 1.2093 1.1128 2.3098 2.3259 3.2921 3.6456.2502.3361.358.6031-.0183.962-.3242.3092-.5256.0135-.6968-.0886-.4646-.2771-.6036-.1774-.8012.3256-.2381.606-.0535 1.0586.2275 1.5327.1801.3038.2229.511-.0424.8491-.3263.4157-.2662 1.008-.3241 1.5314-.0373.3372-.1241.7163-.0134 1.0107.1463.3889.5801.0352.8725.1643.3877.1711.8405-.0992 1.2348.1468.0321.02.1666-.0954.2347-.166.9088-.9423 1.8048-1.8959 2.6727-2.8768.2564-.2897.2847-.5574.1845-.8883-.4244-1.4011-.6114-2.8605-1.0596-4.2572-.2544-.793-.431-1.6141-.7787-2.3731-.3082-.6728-.9418-1.071-1.457-1.5638-.6613-.6326-1.3401-1.2478-2.0294-1.8498-.7767-.6783-1.719-1.0913-2.614-1.5796-.5322-.2904-.9795-.7408-1.6158-.8368-.0907-.0137-.1904-.1013-.1878-.2193.0032-.1467.1283-.182.2408-.2269.3126-.1246.5723.0403.8227.1715.346.1814.6704.4038 1.0056.6061.1416.0854.2658.2294.5004.1383-.1596-.3261-.4445-.5356-.6891-.7669-.8521-.8059-1.7129-1.6031-2.591-2.3804-.1615-.143-.0513-.2804-.105-.4096.4142-.2063.6888.0717.9462.306.9835.8949 1.9428 1.8165 2.9281 2.7094.9987.905 2.0414 1.7625 3.0195 2.6887.7547.7147 1.4585 1.4863 2.1504 2.2635 1.0255 1.1519 1.3694 2.6365 1.8569 4.0384.4161 1.1968.8967 2.3625 1.418 3.5138.2085.4604.1102.8937-.295 1.2223-1.2729 1.0323-2.3918 2.2256-3.5591 3.3704-1.1802 1.1574-2.4329 2.2418-3.6724 3.3372-.3347.2958-.5634.6806-.9252.9535-.5298.3994-.9077.3008-1.0997-.3371z" fill="#0c0c0c"/><path d="m74.8682 64.9982c-.0925.0441-.185.0882-.2775.1322-1.5374-1.0497-2.8547-2.3684-4.3056-3.5237-.04-.0319-.0888-.0602-.1143-.102-.7869-1.2912-2.0007-1.1543-3.26-1.0477-1.6631.1407-3.3295.403-5.0512.1415.5396-.7006.2701-1.4194.0742-2.1251-.1554-.56-.1541-.6053.4028-.6476 1.8889-.1436 3.7494-.4856 5.6153-.7903.3978-.0649.8137-.0159 1.1871-.2394.1508-.0903.3264-.0246.4698.1029 1.3091 1.1639 2.3953 2.5164 3.3196 3.9954.467.7473.8582 1.5419 1.2818 2.3162.139.254.2779.5042.3533.7922.0586.224.161.4592.4498.4995-.0483.1653-.0967.3306-.1451.4959z" fill="#cecbc8"/><path d="m51.2384 68.423c.0667.3039-.1776.4083-.3688.4688-1.5827.5007-3.1018 1.162-4.607 1.8493-1.0838.4949-2.1763 1.0042-3.1709 1.6515-1.0664.694-2.2087 1.281-3.2039 2.0711-.8646.6865-1.7838 1.3143-2.6123 2.1283.2615.1312.4785.2454.7.3501.4014.1897.6302.8318.3515 1.1618-1.0684 1.2651-1.815 2.7631-2.9215 3.9982-.1564.0108-.3173.2125-.4659.0186-.1387-.1809.0253-.3259.1151-.4577.7303-1.0727 1.415-2.169 1.845-3.4041.028-.0803.0716-.1569.0885-.2392.1208-.5883.0686-.6423-.5441-.591-.1534.0129-.3085.0088-.4614.0255-.2071.0226-.26-.127-.3177-.2701-.063-.1563.0608-.2028.1612-.271 1.9746-1.3407 3.7677-2.9389 5.8647-4.1072 1.9784-1.1023 3.9339-2.247 6.0515-3.0752.8422-.3294 1.6759-.6806 2.5194-1.0066.317-.1227.6506-.2021.9766-.3011z" fill="#0d0d0d"/><path d="m42.2458 60.4023-.0258.0127-.0278-.008c-.3271-.1537-.6678-.2658-1.0215-.3386-.1-.0646-.2061-.1215-.2986-.1955-.1341-.1071-.383-.1586-.2559-.418.1052-.2147.3563-.2356.4923-.1547.8229.4899 1.1556-.1064 1.6642-.5958 1.3119-1.2621 2.5918-2.5727 4.1291-3.579.1738-.1138.3494-.315.5161.0087-.067.0697-.1341.1394-.2011.2092-.0407.0357-.0815.0714-.1222.1071-.1288.0234-.2131.1053-.2783.2121-.0397.0283-.0794.0566-.1191.0849-.1613.0549-.2906.137-.2829.3347-.1457.0036-.2395.0858-.3099.2038-.074.0302-.1489.0605-.1445.1597.0003.0075.0294.0222.0417.0193.1021-.0239.1125-.0978.0957-.1847.1595.017.2393-.0881.312-.204.1703-.018.2953-.096.3508-.2657.0267-.0421.0536-.0841.0806-.126.144.0126.2478-.0412.2993-.1816.0469-.0322.0937-.064.1406-.0959.104-.026.1722-.0943.2198-.1868.1042-.0585.2045-.1261.3137-.173.1255-.0539.2381-.2988.38-.1147.106.1375-.0814.2904-.178.3851-.7434.7292-1.5594 1.3808-2.2622 2.1554-.7481.8245-1.3958 1.7256-2.0691 2.608-.2372.3108-.118.4443.2083.5142.1001.0214.1953.0644.2946.0905.1631.043.2924.1079.2524.3135-.0387.199-.1896.2057-.3502.2242-.3347.0385-.6375-.1202-.9619-.1374-.4149-.1026-.658-.3191-.5219-.7872.6156-.756 1.2314-1.5119 1.8471-2.2677.0355-.0457.0709-.0915.1064-.1372-.0243-.0068-.0591-.0274-.0712-.0181-.0566.0432-.0655.1005-.0255.1623-.1411-.0726-.221.0202-.2985.1129-.4459.5332-.8931 1.0655-1.3351 1.6019-.1301.158-.2439.329-.216.552-.1404-.0348-.2597.0097-.3675.0974zm2.7443-2.9652c.081-.0274.1922-.1036.1447-.1575-.1058-.1201-.1488.0306-.2053.0954-.0334.0361-.0668.0722-.1003.1082-.0767.031-.1521.0663-.1447.1661.0015.0205.0393.0563.0572.0545.1005-.0106.1155-.0966.1378-.1738.0368-.031.0737-.0619.1106-.0929zm.7583-.7574c.0252-.0118.0505-.0236.0759-.0354-.0083-.0123-.0196-.0363-.0244-.0351-.0261.0067-.0506.0196-.0756.0303.0077.0129.0154.0257.0241.0402zm-.1539.1269c-.0235.0117-.0475.0236-.0714.0355.009.0113.0211.0335.0265.032.0253-.0072.0487-.0209.0728-.0323-.0088-.0112-.0177-.0224-.0279-.0352zm-.2588.2776c.0103-.0109.0291-.022.0292-.0333s-.0186-.0227-.029-.0341c-.0112.0164-.0223.0327-.0335.0491.0106.0059.0212.0117.0333.0183z" fill="#0c0c0c"/><path d="m26.1503 81.9995c-.8182.055-1.7567-.4625-1.6056-1.8036.0154-.1369.0377-.2993.1998-.3213.1848-.0251.3007.1007.4069.2515.1526.2167-.0908.6024.2857.7022.4242.1124.8535.0332 1.2632-.0811 1.3416-.3744 2.671-.7943 4.0185-1.145.551-.1434 1.155-.0761 1.6493-.4475.0828-.0622.2102-.0223.2604.084.0465.0985-.0495.1496-.1147.1969-.497.3604-1.0149.6832-1.5879.9136-1.0683.4294-2.0587 1.0382-3.1839 1.3418-.5267.1421-1.0555.2364-1.5917.3085z" fill="#0c0c0c"/><path d="m41.9673 61.0767c-.064.0526-.1281.1052-.1921.1579-.357-.0064-.4804.2964-.6414.5186-.2789.3852-.5161.8004-.7781 1.1982-.0736.1117-.1638.2161-.2622.3069-.1428.1318-.3114.1247-.4731.0334-.1912-.108-.0897-.2857-.053-.41.113-.3834.4333-.645.6278-.9836.0588-.1024.1295-.2028.213-.2856.3487-.3459.32-.5692-.1799-.7183-.1614-.0481-.4383-.0826-.3656-.3912.2784-.1799.5656-.2036.8627-.0483.2831.2439.6137.0055.931.0932.3458.0955.4287.2203.3109.5288z" fill="#0d0d0d"/><path d="m40.4661 82.8614c.9995-.316 2.4005.6119 2.4876 1.7286.052.6668.2928.7644.8792.8206 1.3378.1281 2.6532.4392 3.9805.6507 1.2483.1989 2.4347.6053 3.6498.913.6966.1764.8219.6651.3523 1.2041-.37.4247-.7642.8285-1.1258 1.26-.1401.1672-.4728.3503-.2835.5765.2021.2415.5641.3143.8915.1507.213-.1064.4286-.2225.6105-.3735.9125-.7572 1.3627-.8077 2.384-.2371 1.0093.5639 1.3782 1.3708 1.1197 2.4771-.1179.5046-.5111.8342-.8365 1.1918-.3787.4163-.8129.7825-1.3041 1.0724-.1704.1005-.3562.8889-.258 1.0496.0665.1089.1485.101.2588.0464.6522-.3228 1.3592-.5291 1.8891-1.0897.3117-.3298.7123-.5851 1.1002-.8309.5119-.3244 1.0196-.0869 1.4211.2 1.0201.7289 1.0371 1.8222.437 2.7887-.181.2916-.3693.5787-.6076.9512.358-.0558.5491-.2249.7618-.3398.1912-.1032.4012-.1958.5376.0371.1145.1955.1118.3716-.134.5569-1.6471 1.2418-3.5563 1.9381-5.4509 2.6654-.2528.097-.5327.0959-.8089.0306-.1849-.0437-.3314-.1231-.3583-.3126-.0266-.1879.0952-.2802.2578-.3866 1.1012-.7211 2.3283-1.227 3.3985-1.9981.7256-.5228 1.4845-.9933 1.7495-1.9587.2144-.7808-.3322-1.2327-.8493-1.4651-.1651-.0742-.2621.0552-.3567.139-1.5048 1.3338-3.3449 1.9695-5.2205 2.5473-1.0247.3157-2.0302.6868-3.1109.7816-.4359.0382-.8098-.0918-1.1589-.322-.2109-.1391-.3436-.3398-.2967-.6063.0457-.2598.2529-.3198.4791-.3845 2.3699-.6774 4.5277-1.786 6.4921-3.2654.3751-.2825.7012-.6462.9963-1.0154.4652-.5819.0457-1.5841-.7824-1.9132-.1739-.0691-.3744-.0903-.5067-.23-.1648-.1742-.3037-.1189-.4346.0192-1.4434 1.5234-3.3432 2.2276-5.2716 2.8045-1.411.4221-2.8659.7489-4.36.7851-.3264.0079-.6365-.0995-.667-.4213-.0334-.3534.3152-.3249.5816-.3939 1.1118-.2879 2.1555-.7645 3.1677-1.2951 1.6152-.8468 3.0686-1.9113 4.2447-3.3271.3894-.4688.3948-.485-.1942-.6648-1.7678-.5397-3.5661-.9153-5.4133-1.057-.6904-.053-1.376-.1711-2.0631-.2648-.3721-.0508-.4714-.2741-.3967-.6242.178-.8346-.1091-1.4687-.8401-1.896-.3619-.2117-.7735-.3574-1.0377-.775zm16.9728 14.7801c.0108-.0097.0467-.0421.0827-.0745-.0318-.0248-.0193-.1146-.0962-.071-.041.0233-.0745.0598-.1114.0903.0313.0234.0121.1133.1249.0552z" fill="#0d0d0d"/><path d="m31.5364 86.2424c.5218-.0518.9602.0171 1.3869.1391.148.0423.3622.1075.3065.3389-.0492.2044-.233.2293-.4129.2133-.4409-.0394-.8765-.1366-1.3248-.0882-.4245.0458-.8018.1985-1.0783.5207-.2495.2907-.2344.6412-.0559.9623.2236.4023.5266.0431.7506.0008.4454-.0841.6171-.0506.4921.3413-.2648.8304-.229 1.758-.8285 2.4863-.3285.3991-.8538.6686-1.326.5156-.942-.3052-1.7166-.8503-1.8811-1.8818-.0992-.6219.1505-1.2583.5305-1.7692.8682-1.1671 1.9751-1.9169 3.4409-1.7791z" fill="#0b0b0b"/><path d="m39.8561 67.5329c-.4089-.0049-.8315-.4161-.8232-.8011.0102-.4742.2884-.8114.664-.8046.6205.0112 1.3248.4171 1.3077.7537-.0192.3767-.6676.8578-1.1485.852z" fill="#0d0d0d"/><path d="m65.1568 66.9132c-.5161-.0266-1.103-.1125-1.6598-.3579-.7993-.3523-1.1624-1.1876-1.0877-2.0744.0879-1.045.7436-1.6174 1.52-2.0995.6728-.4178 1.3415-.8562 2.1841-.9314 1.1971-.1068 2.1502.25 2.8656 1.2387.328.4534.6626.8654.8396 1.4359.3169 1.0218-.1132 1.7839-.9899 2.1256-1.1537.4496-2.3463.6826-3.6719.663zm1.8254-3.2228c-.4565.0112-.8629.0564-1.1406.4751-.438.6603-.1574 1.4918.5963 1.6515.2649.0561.5247-.0684.8268.0246.3746.1153.7199-.2051.8354-.5318.1107-.313.4051-.7082.1055-1.0275-.3197-.3409-.7095-.6504-1.2234-.5919z" fill="#d9d0a0"/><path d="m74.3785 97.8342c.0672.0417.071.0916.0172.1467-.0396.0405-.0855.0371-.1005-.0151-.0206-.0716.0195-.1159.0943-.1251z" fill="#cecdca"/><path d="m44.4531 58.0315c-.6157.7559-1.2315 1.5117-1.8471 2.2677l.0071.0058c-.0278-.2229.086-.3939.2161-.5518.442-.5365.8892-1.0687 1.3351-1.6019.0775-.0926.1574-.1855.2985-.1129z" fill="#888177"/><g fill="#5e6065"><path d="m46.4142 56.0823c-.0077-.1978.1216-.2798.283-.3347.0206.0217.0416.0427.0631.0633-.0558.1695-.1808.2475-.3511.2655z"/><path d="m47.1399 55.5035c-.0516.14-.1554.1938-.2994.1812l-.0244-.0221c.0653-.1068.1496-.1887.2786-.2121.0294.0057.0444.0234.0452.053z"/><path d="m46.1043 56.2861c.0704-.118.1643-.2002.3099-.2038l-.005-.0058c-.0727.1159-.1524.221-.312.204z"/><path d="m44.8796 57.5301c-.0225.0771-.0374.163-.1379.1737-.0178.0019-.0557-.034-.0572-.0545-.0074-.0998.068-.1351.1447-.1661.0169.0156.0337.0312.0504.0469z"/><path d="m44.9288 57.3745c.0572-.0643.1002-.215.206-.0949.0475.054-.0638.1302-.1448.1575-.0201-.0213-.0405-.0421-.0612-.0626z"/></g><path d="m47.5003 55.2206c-.0476.0925-.1157.1607-.2198.1868-.0203-.0222-.0416-.0435-.0638-.0639.067-.0697.1341-.1394.2011-.2091.0275.0287.055.0574.0825.0862z" fill="#888177"/><path d="m46.0972 56.2804c.0167.0869.0063.1608-.0957.1847-.0124.0029-.0414-.0119-.0417-.0193-.0044-.0993.0706-.1295.1445-.1597z" fill="#5e6065"/><path d="m45.7484 56.6797c-.0087-.0145-.0164-.0274-.0241-.0402.0251-.0108.0496-.0237.0756-.0303.0048-.0012.0161.0227.0244.0351-.0253.0118-.0507.0237-.0759.0354z" fill="#5e6065"/><path d="m44.4628 58.0384c-.04-.0618-.0311-.1191.0255-.1623.0121-.0092.0469.0113.0712.0181-.0355.0457-.0709.0914-.1064.1372z" fill="#888177"/><path d="m45.5945 56.8066c.0101.0128.019.024.0279.0352-.0241.0114-.0475.0251-.0728.0323-.0054.0015-.0175-.0207-.0265-.032.024-.0119.0479-.0238.0714-.0355z" fill="#5e6065"/><path d="m44.8292 57.4832c.0334-.0361.0668-.0722.0999-.1085.0204.0202.0407.0411.0608.0623-.0368.0311-.0736.062-.1105.093-.0165-.0156-.0333-.0312-.0502-.0468z" fill="#5e6065"/><path d="m45.3357 57.0842c-.0121-.0067-.0227-.0125-.0333-.0183.0112-.0164.0223-.0327.0335-.0491.0104.0114.0291.0228.029.0341s-.0189.0225-.0292.0333z" fill="#5e6065"/><path d="m46.8406 55.6848c-.027.0419-.0539.0838-.0806.126-.0212-.0204-.0422-.0415-.0628-.0631.0396-.0284.0793-.0566.119-.085z" fill="#5e6065"/><path d="m47.2805 55.4073c-.0469.0318-.0937.0637-.1406.0959-.0008-.0293-.0158-.047-.0451-.0526.0405-.0357.0813-.0714.122-.1071.0221.0203.0434.0416.0637.0638z" fill="#888177"/><path d="m57.4389 97.6415c-.1128.0581-.0936-.0318-.1249-.0552.0369-.0305.0704-.067.1114-.0903.0769-.0436.0645.0462.0962.071-.0359.0324-.0719.0648-.0827.0745z" fill="#cecdca"/><path d="m66.9822 63.6904c.5139-.0585.9037.251 1.2234.5919.2995.3193.0051.7145-.1055 1.0275-.1155.3267-.4608.6471-.8354.5318-.302-.093-.5618.0316-.8268-.0246-.7537-.1597-1.0342-.9912-.5963-1.6515.2778-.4186.6841-.4639 1.1406-.4751zm.6581 1.0238c-.0501-.2223-.2292-.2141-.3901-.223-.2113-.0118-.4307.0411-.4544.2728-.0227.2215.172.401.3688.4151.2804.0202.3407-.2757.4757-.4649z" fill="#0d0d0d"/><path d="m67.6403 64.7142c-.135.1891-.1953.485-.4757.4649-.1968-.0142-.3915-.1936-.3688-.4151.0237-.2317.2432-.2845.4544-.2728.1608.009.34.0008.3901.223z" fill="#cfcdcb"/></svg>