<svg enable-background="new 0 0 141.7811 141.8328" viewBox="0 0 141.7811 141.8328" xmlns="http://www.w3.org/2000/svg"><path d="m71.3133 0c-19.4467.2256-35.976 6.7265-49.6448 19.9054-13.4841 13.0009-20.7852 29.0545-21.5924 47.7826-.871 20.2075 5.7375 37.857 19.7541 52.448 13.0026 13.5356 29.1024 20.8299 47.8705 21.6235 20.2092.8546 37.8509-5.7703 52.4296-19.7997 13.51-13.001 20.7911-29.0879 21.5784-47.8383.8502-20.2499-5.7869-37.9276-19.8846-52.496-13.8612-14.3239-31.0131-21.3546-50.5108-21.6255z" fill="#fff"/><path d="m71.3133 0c19.4977.2709 36.6496 7.3016 50.5108 21.6256 14.0977 14.5684 20.7348 32.2461 19.8846 52.496-.7873 18.7504-8.0684 34.8373-21.5784 47.8383-14.5787 14.0294-32.2204 20.6542-52.4296 19.7997-18.7681-.7936-34.8679-8.088-47.8705-21.6235-14.0166-14.5911-20.6251-32.2405-19.7541-52.4481.8072-18.7282 8.1084-34.7817 21.5924-47.7826 13.6688-13.1789 30.198-19.6798 49.6448-19.9054zm12.3382 136.5657c.8907-.1786 1.7813-.3573 2.672-.5359 8.4442-1.9151 16.2362-5.318 23.3527-10.2542.5582-.3872 1.159-.7254 1.6279-1.2333.3883-.135.6588-.4481.9958-.6609.1985-.1254-.0142-.1672-.0608-.2419.268.0002.4863-.1027.6984-.2709 1.5849-1.2574 3.1116-2.5817 4.5787-3.9741 3.4054-3.232 6.4341-6.7876 9.0838-10.6623 1.2765-1.8666 2.4852-3.7774 3.5148-5.7952.788-1.3079 1.4213-2.6946 2.0671-4.0747.0337-.072.0194-.1665.0275-.2505.1462-.0811.1986-.2293.2581-.3696.3453-.8154.7117-1.623 1.0239-2.451.2319-.6152.5848-1.1928.6362-1.8702.6411-1.2876 1.0485-2.6535 1.3576-4.0524.1221-.091.1318-.2385.1682-.3654 1.6124-5.6128 2.4712-11.3397 2.6027-17.1774.0551-2.4478-.081-4.8889-.2318-7.3299-.028-.2653-.0561-.5307-.0841-.796-.0977-.7556-.1683-1.5162-.3035-2.2651-.0787-.4358.0269-.9229-.3057-1.3004.0972-.1329.1045-.2746.0736-.4351-.2064-1.0705-.3733-2.1498-.6155-3.212-.2415-1.0589-.4103-2.1391-.8126-3.1574-.0282-.1667-.0423-.3372-.0868-.4995-.9349-3.4139-2.1248-6.7367-3.6017-9.9537-.2249-.4898-.3593-1.0327-.7464-1.4405-.0823-.2387-.1382-.4908-.251-.7141-1.2975-2.5679-2.7271-5.0585-4.3303-7.45-1.8903-2.8197-3.9852-5.4778-6.2782-7.9776-.855-.9321-1.7151-1.8651-2.6905-2.6791-1.294-1.4017-2.7606-2.6117-4.2334-3.8149-.032-.0396-.058-.0866-.0967-.1177-2.6549-2.1381-5.4397-4.0906-8.3918-5.7962-.9739-.5626-1.9239-1.1793-2.989-1.5723-.0002-.2264-.1956-.2539-.3405-.3243-.5637-.2735-1.1311-.5391-1.6958-.8107-2.6832-1.2907-5.4537-2.3588-8.289-3.2643-1.3835-.4418-2.7852-.8159-4.1899-1.1821-2.4965-.6508-5.0253-1.114-7.5827-1.4598-2.0294-.2744-4.0659-.516-6.1048-.5582-3.3143-.0686-6.633-.1135-9.9428.2664-2.0328.2333-4.0629.4691-6.0744.8424-5.3176.9868-10.3898 2.7352-15.2811 5.0138-2.1381.9961-4.2182 2.1089-6.2548 3.3077-4.451 2.62-8.4567 5.8139-12.1855 9.3639-2.0718 1.9725-3.9471 4.1321-5.7475 6.3544-2.5726 3.1753-4.7733 6.5973-6.6801 10.206-1.3488 2.5527-2.5601 5.1709-3.5864 7.874-.8976 2.364-1.6932 4.7621-2.3098 7.211-1.0735 4.2633-1.6659 8.6105-1.8488 12.9959-.0997 2.389-.1 4.79.0552 7.1878.1191 1.839.2867 3.6679.5178 5.4958.326 2.5788.8051 5.1251 1.4769 7.6334 1.0131 3.7824 2.3575 7.4498 4.0193 10.9929 1.016 2.1661 2.1392 4.2794 3.355 6.346 2.6279 4.4668 5.8349 8.4831 9.3988 12.2221 1.9618 2.0582 4.1085 3.922 6.3178 5.7114 3.1622 2.5612 6.5669 4.7568 10.161 6.6547 2.0388 1.0766 4.1174 2.0732 6.2556 2.9482 2.8951 1.1848 5.8466 2.2028 8.8734 2.9742 4.2602 1.0856 8.6104 1.6606 12.9951 1.8551 2.7674.1228 5.5465.0819 8.3177-.0829.0765-.0046.1498-.0627.2246-.0958.2396-.1117.4969-.1065.7523-.1131.0847.1686.2361.1071.3619.0928 1.1339-.1284 2.2713-.2354 3.399-.4055.7181-.1083 1.4618-.1082 2.1443-.4104.2861-.0307.5726-.0611.859-.0914z" fill="#5f6065"/><path d="m76.1346 137.493c-.0748.0331-.1481.0912-.2245.0958-2.7712.1648-5.5503.2058-8.3177.0829-4.3846-.1946-8.7349-.7695-12.9951-1.8551-3.0268-.7714-5.9782-1.7894-8.8734-2.9742-2.1382-.875-4.2168-1.8716-6.2556-2.9482-3.5941-1.8978-6.9988-4.0935-10.161-6.6547-2.2093-1.7894-4.356-3.6532-6.3178-5.7114-3.5639-3.739-6.7709-7.7553-9.3988-12.2221-1.2158-2.0666-2.339-4.1799-3.355-6.346-1.6618-3.5431-3.0062-7.2104-4.0193-10.9929-.6718-2.5083-1.1509-5.0546-1.4769-7.6334-.2311-1.8279-.3987-3.6567-.5178-5.4958-.1553-2.3978-.1549-4.7988-.0552-7.1878.183-4.3855.7754-8.7326 1.8488-12.9959.6166-2.4489 1.4122-4.847 2.3098-7.211 1.0263-2.7031 2.2376-5.3213 3.5864-7.874 1.9068-3.6087 4.1076-7.0307 6.6801-10.206 1.8005-2.2223 3.6757-4.3819 5.7475-6.3544 3.7288-3.55 7.7346-6.7439 12.1855-9.3639 2.0366-1.1988 4.1167-2.3116 6.2548-3.3077 4.8913-2.2787 9.9636-4.027 15.2811-5.0138 2.0115-.3733 4.0415-.6091 6.0744-.8424 3.3098-.3798 6.6285-.335 9.9428-.2664 2.0389.0422 4.0755.2839 6.1048.5582 2.5574.3458 5.0862.809 7.5827 1.4598 1.4047.3662 2.8063.7402 4.1899 1.1821 2.8353.9055 5.6057 1.9736 8.289 3.2643.5646.2716 1.1321.5372 1.6958.8107.1449.0703.3403.0978.3405.3242-1.4679 1.425-2.9657 2.8207-4.3218 4.3562-.1701.1926-.3064.2321-.5173.0785-.2361-.172-.4544-.1185-.6161.1198-.3656.5389-.8296.9934-1.2581 1.4781-.936 1.0587-1.8745 2.1152-2.8167 3.1684-.117.1308-.2663.3548-.4434.0959-.2193-.3206-.5151-.5736-.7169-.9135-.1981-.3336-.4839-.6152-.7332-.918-.1256-.1526-.2894-.1668-.4663-.1148-.1346.0395-.2118.1556-.1962.2717.0943.7025-.2848 1.2782-.5118 1.8857-.5661 1.5153-1.5064 2.8177-2.4202 4.1354-.1826.2633-.3448.2834-.6116.219-1.095-.2644-1.123-.2274-.9382.8709.0303.1802.1555.4463-.0576.5635-.3758.2068-.6051.617-1.0393.7251-.1006.025-.1084-.1041-.1613-.1583-.3762-.3858-.7104-.8201-1.212-1.0664-.3633-.1784-.6305-.0561-.6121.3447.0275.5963-.2784 1.0319-.5833 1.4875-.6322.9445-1.6104 1.4669-2.5282 2.0446-1.3769.8666-2.9146 1.3909-4.4405 1.9307-1.6149.5712-3.2683.9677-4.9869.9894-.9084.0115-1.806.0854-2.7022.2144-1.1634.1674-2.3456.2874-3.4071.8317-.3581.1836-.519.0897-.7675-.1417-1.8081-1.684-3.5842-3.4065-5.672-4.7594-.4808-.3116-.9661-.6354-1.3794-1.0273-.5523-.5239-1.1669-.6217-1.8576-.2694-.9946.5074-1.659 1.3078-2.2482 2.2285-1.0104 1.5788-1.6918 3.2799-1.8394 5.139-.1036 1.3047.2878 2.5562.9115 3.7134.1223.227.1497.3333-.1229.461-1.3429.6292-2.6175 1.3809-3.8656 2.1816-.9907.6356-1.9896 1.2511-2.9128 1.9914-1.1753.9425-2.3525 1.8922-3.6985 2.5956-.7766.4059-1.5924.7511-2.4646.7861-.4164.0167-.4662.1986-.472.4617-.0097.4423.0071.8901.0676 1.3279.1056.7635-.2414 1.2667-.8571 1.6376-.1397.0842-.2659.1806-.2611.3508.0425 1.5005-.48 2.8841-.8699 4.2968-.3606 1.3067-.939 2.5141-1.5952 3.6923-.4427.7949-.7089 1.6059-.4451 2.5563.3628 1.3074.113 2.5704-.3909 3.8218-.974 2.4185-1.9047 4.8551-2.703 7.3393-.0626.1948-.1839.4259.0251.5611.2112.1367.4893.1941.7324.0475.1726-.1041.3224-.2495.4707-.3889.121-.1138.2093-.2731.4393-.2355-.0443.3633-.0493.7313-.1384 1.0778-.3397 1.3213-.4415 2.682-.697 4.0166-.0335.175-.0774.3513.1147.4495.1823.0931.3181-.0199.4539-.1404.2532-.2247.4739-.4988.9072-.6577-.3046.5528-.5865 1.0077-.8106 1.4894-.1773.381-.4773.7391-.2543 1.2318.2543.5618.2934 1.184.3301 1.7886.2474 4.0738-.6586 7.9292-2.3009 11.626-.9115 2.0517-1.5291 4.1846-1.9307 6.3826-.1981 1.0843-.3295 2.183-.2139 3.2929.0286.274.1283.5253.4082.5826.2532.0518.4484-.0812.5419-.3575.0402-.1189.1686-.2126.268-.306.97-.9119 1.9737-1.7815 3.159-2.4092.2184-.1157.4606-.4141.6685-.2716.2.1371.0383.4841.009.7287-.2602 2.1726.1461 4.2032 1.2449 6.0964.1279.2203.2932.409.5514.3941.2491-.0144.2678-.28.347-.4618.0405-.0928.07-.1956.079-.2962.1549-1.7304 1.1609-3.0166 2.2242-4.2732.1466-.1732.2783-.2484.404.0291.4055.8957 1.0155 1.6447 1.6546 2.385 1.47 1.7031 3.2566 2.9193 5.3515 3.7275.7318.2823 1.5267.3982 2.2027.8109.2295.1401.4463.2385.6521.0759.2371-.1873.1611-.552.0462-.6984-.497-.6331-.6963-1.388-.965-2.1131-.2992-.8073-.2862-1.644-.0775-2.4683.1304-.5149.3357-.5471.7025-.1339.2946.3318.6023.6441.9633.9045 1.2474.8998 2.5462 1.7171 3.9292 2.391 1.3979.6811 2.8305 1.3237 4.3477 1.6414 1.8889.3955 3.8037.7652 5.7602.4862.1566-.0223.3648.0748.4236-.1716.0524-.2194-.1351-.316-.2679-.3933-.4437-.2581-.8351-.5778-1.2358-.8966-1.1764-.9362-1.8585-2.1872-2.3868-3.5497-.1116-.288-.1441-.4821.2968-.4049.5867.1028 1.195.0975 1.7733.2297 1.8799.4298 3.7527.8923 5.6538 1.2212 1.7724.3066 3.5578.4064 5.3582.3546 1.5593-.0448 3.0945-.2353 4.6159-.5609.6633-.142 1.3246-.2941 1.9838-.454.2114-.0513.3567-.1772.3729-.4285.015-.2324-.1173-.3373-.286-.4395-.2025-.1227-.4155-.2362-.5942-.3885-1.8678-1.591-3.3202-3.4745-4.0349-5.8571-.3231-1.0773-.6088-2.1864-.3806-3.3086.3069-1.5093 1.0386-2.8525 1.8583-4.1451.0969-.1528.2028-.2513.4036-.2598.7443-.0315 1.4606.0599 2.1425.3826.1871.0885.3054.1984.3325.4056.2678 2.0487.8069 4.0416 1.3207 6.0342.2146.8322.4049 1.6086.3923 2.4959-.0258 1.816.1113 3.6403.4732 5.433.0778.3855.0279.7333-.1392 1.0908-.8719 1.8652-1.7559 3.724-2.4869 5.6532-.5987 1.5801-.9928 3.1607-.635 4.8658.3783 1.8028.6579 3.6181.6088 5.4743-.05 1.8871-.1306 3.768-.4321 5.6361-.2443 1.5134-.4457 3.0338-.6685 4.5508-.2151 1.4648-.4568 2.9267-.6136 4.3977-.016.148-.334.5662.1473.6828z" fill="#d5e1a0"/><path d="m130.1148 102.9368c-1.0296 2.0178-2.2383 3.9286-3.5148 5.7952-2.6497 3.8747-5.6784 7.4303-9.0838 10.6623-1.467 1.3923-2.9937 2.7167-4.5787 3.9741-.212.1682-.4304.2711-.6985.2708-.6878-.1173-1.3525-.3778-2.0655-.3346-.1711.0104-.3561.0209-.4028.24-.0487.2285.0818.3405.2749.4248.4223.1844.8393.3811 1.2584.5728-.4689.508-1.0696.8461-1.6279 1.2333-7.1165 4.9362-14.9085 8.3392-23.3528 10.2543.3513-.7606.6861-1.5295 1.0577-2.2801.6551-1.3233 1.4131-2.5596 2.5025-3.6051.822-.7889 1.7807-1.3918 2.6042-2.1623.5187-.4853 1.0802-.8868 1.7252-1.1766 1.2166-.175 2.4253-.3994 3.6407-.5842 1.49-.2266 2.8394-.7268 3.158-2.4933.0318-.1762.1757-.3273.3319-.4439 1.629-1.2162 3.3866-2.1352 5.417-2.4995 1.5034-.2697 2.9816-.6634 4.457-1.0623 1.7931-.4848 3.4356-1.3125 5.0666-2.1729 1.0829-.5713 1.9749-1.3814 2.8327-2.2342.1069-.1063.3009-.2794.1649-.4255-.1413-.1517-.2957.0208-.4282.1366-.2444.2136-.4895.433-.762.6063-.4366.2774-.8267.6493-1.366.816-.0036-.2038.088-.2546.1705-.317.7246-.5483 1.3314-1.2179 1.9257-1.8977 1.2232-1.3992 2.0004-3.0667 2.8142-4.7117.0645-.1304.2385-.2707.0296-.3822-.1835-.098-.26.0922-.3357.2238-.3228.5613-.6492 1.1207-.9665 1.6852-.7361 1.3093-1.5608 2.5517-2.6723 3.5805.1522-.8123.5281-1.5455.84-2.2981.2006-.484.2295-.9562.1462-1.4533-.0792-.4731-.2076-.9327-.36-1.388-.5911-1.7662-1.3882-3.4557-1.8972-5.2545-.6909-2.4413-.7558-4.8677.1627-7.2475.5164-1.338 1.0956-2.6528 1.6001-3.9979.2693-.7179.591-1.4221 1.1103-2.0126.0962-.1094.1711-.2691.1859-.4128.0538-.5248.2717-.9831.5225-1.4323-.0408-.1266.0645-.181.1281-.2538.5166-.5906 1.049-1.1682 1.5476-1.7736.433-.5257.8302-1.0811 1.2388-1.6267.0896-.1196.2323-.281.0747-.4006-.1313-.0996-.232.0834-.3184.1814-.2244.2546-.4435.5138-.6652.7708-.4973.5764-.9417 1.2015-1.5473 1.678-.625-.9177-1.2664-1.8294-1.1222-3.0318.2971-.2354.6326-.4037.9744-.5618.6431-.2974 1.1246-.6791 1.4493-1.3939.5978-1.3163 1.3828-2.5475 2.0883-3.8149.8398-1.5085 1.748-2.9737 2.7436-4.3849.0718-.1018.2842-.246.0604-.3727-.1541-.0872-.2617.0572-.3589.1969-.4485.6443-.9479 1.2557-1.3645 1.9194-1.1713 1.8661-2.3147 3.7498-3.4608 5.6315-.4052.6652-.8567 1.2742-1.6068 1.5856-1.2451-1.3715-2.7786-2.4511-3.9933-3.8419-1.6499-1.8892-3.8573-2.9166-5.9773-4.084-1.2621-.6949-2.66-1.0729-4.0175-1.5388-.0016-.064-.0033-.1281-.0049-.1921.7928.212 1.3264-.1428 1.2018-.8314-.3097-1.7105-.3528-3.4449-.4752-5.1708-.0952-1.3423-.0175-2.6907-.092-4.0392-.0932-1.6869-.0244-3.3829-.0207-5.0749.0004-.1967-.0628-.419.1498-.5628.3043.2231.4737.6849.9786.5533.2088-.0926.0052-.4712.2195-.453.8329.0708.2652-.4453.2117-.5821-.4482-1.1465-.8287-2.3134-1.1527-3.4996-.521-1.9078-.7677-3.8695-1.1274-5.8087-.3005-1.6202-.7644-3.2127-.7423-4.8882.0111-.8418-.434-1.442-1.2452-1.7514-.902-.344-1.8057-.6868-2.6427-1.1737.0607-.0347.1308-.0748.201-.1149 1.0706-.3246 2.0559-.8222 2.987-1.44 1.1821-.7844 1.9535-1.7708 2.0349-3.2782.1588-2.9411-1.098-5.1643-3.3363-6.9167-.7234-.5664-1.5401-1.0127-2.2711-1.5704-1.4156-1.08-3.0365-1.6387-4.7656-1.8585-.9204-.117-1.8731-.2302-2.7997.0481-.5093.153-.6556.5077-.4241.967.2892.5739.4212 1.1929.3327 1.8221-.2716 1.9309-.8672 3.7403-2.1222 5.28-.4918.6033-1.0361 1.1384-1.8561 1.2357-.2337.0277-.423.0866-.4522.321-.0344.2762.2142.3096.4099.3619.4078.109.8383.1051 1.2224.3361 1.4489.871 2.6262 2.0736 3.8126 3.2381 1.1517 1.1304 2.3872 2.0503 3.9204 2.5549 1.5686.5163 3.0065 1.2798 4.3257 2.2708.1525.1146.3016.2179.2979.4438-.022 1.3192.401 2.5639.6987 3.8216.5972 2.5226 1.4795 4.9655 2.2069 7.4524.0082.1812-.0532.3099-.2525.3344-.3775-.2108-.6768-.5188-.9844-.8128-.1765-.1687-.3501-.0877-.526-.0487-.1997.0444-.1186.2219-.1265.3423-.0099.1504.0069.3052.0321.4548.1875 1.1159.2187 2.2424.1932 3.3684-.0299 1.3223-.0069 2.6433.0005 3.9652.0073 1.3166.1848 2.6263.1279 3.9439-.0294-.0592-.0912-.1233-.083-.1769.08-.5288-.2292-.567-.6353-.5465-1.4902.0754-2.9547-.0317-4.3314-.684-.1633-.2648-.4682-.2859-.7052-.4238-1.1564-.6729-2.1886-1.5435-2.972-2.6015-1.4205-1.9184-2.4842-4.0263-2.6598-6.4786-.0551-.7694-.0152-1.5315.1793-2.2752.1105-.4224.2714-.8378.465-1.2289.0661-.1335.3035-.2124.2049-.4064-.1062-.2089-.328-.3158-.5582-.2978-.4976.0388-.9777-.0862-1.4538-.1674-1.3463-.2296-2.6934-.4448-4.0496-.6073-1.133-.1357-2.2623-.3028-3.3949-.4422-.3425-.0421-.7377-.4472-1.022.1111-.0022.0044-.0886-.0265-.13-.0507-1.3501-.787-2.887-.9313-4.3728-1.1238-1.7748-.23-3.5808-.2224-5.3739-.3069-.4634-.0218-.9287-.0033-1.3999-.0033.0167-.0464.0183-.0891.0395-.1041.4317-.3058.8785-.5918 1.2969-.9146 2.3895-1.8436 5.0598-2.8921 8.1059-2.8525.9593.0125 1.9087.136 2.7541.6544.2267.139.405.0651.5958-.0757.2096-.1548.06-.2841.0047-.4366-.3579-.9872-.9801-1.8743-1.1035-2.9526-.024-.2094-.1097-.4459-.4168-.4209-1.248.1015-2.4886.0574-3.7425.3645-2.5514.6248-4.8428 1.726-6.9035 3.308-1.187.9113-2.2499 1.9828-3.4209 2.9167-1.1667.9304-2.3991 1.7764-3.9762.8167-.0288-.0175-.0635-.0255-.0959-.0368-.1548-.0538-.2841.0158-.3548.1327-.0862.1427.0682.2179.155.2765.269.1817.5511.3441.94.5826-.6813-.0666-1.2035-.1887-1.7153-.3804-.9227-.3456-1.649-1.0249-2.5252-1.4538-.7281-.3564-1.4678-.4517-2.2347-.2639-1.6524.4045-3.0533 1.3026-4.3943 2.3082-.1741.1306-.3207.3078-.5774.2842-1.3187-.1212-2.4066.4066-3.3573 1.2528-.3071.2734-.522.1783-.7361-.0508-.9811-1.05-1.8364-2.1855-2.3183-3.5603-.0572-.1633-.0761-.3406-.264-.408-1.2443-.4459-2.3814-1.0891-3.4532-1.8564-.1728-.1237-.3632-.1498-.5831-.0734-1.0748.3735-2.0496.9793-3.1321 1.3379-.1722.0571-.3279.2636-.3381.4815-.0104.2232.1779.3191.3522.3935.3289.1404.6566.2889.9968.396 1.0296.3241 2.0906.4543 3.1659.5358.8555.0648 1.7669.056 2.3588.8755.2082.2883.444.5568.6539.844.071.0971.2428.2126.0921.3444-.1159.1014-.2088-.0572-.3018-.118-1.4884-.9719-3.164-1.3942-4.8924-1.6415-1.0992-.1573-2.1974-.0628-3.292.099-.1357.0201-.3199.1577-.443-.0868-.2095-.416-.3259-.85-.342-1.3123-.0053-.1518-.024-.313.17-.3841.4285-.157.849-.3389 1.2841-.4742.5882-.1829 1.1204-.4753 1.6306-.8037 2.0929-1.3467 3.9705-2.991 6.0586-4.351 2.2866-1.4892 4.7628-2.5983 7.1976-3.7923 1.3018-.6384 2.6776-1.047 4.136-1.2161.8491-.0984 1.7018-.2641 2.539-.4495.9296-.2058 1.9201-.3265 2.6261-1.101.1329-.1458.3439-.1926.5275-.1347.4548.1436.9128.291 1.3414.4958.1281.0612.375.1789.3351.3959-.0322.175-.2327.233-.3936.2974-.2225.0891-.4513.1677-.6624.2793-.8419.4448-1.6891.8071-2.6643.4114-.1331-.054-.3047-.0213-.4581-.0161-1.0464.0356-2.0711.1606-3.1025.3969-1.5282.3501-2.9554.9244-4.3649 1.575-.2297.106-.3945.2651-.2654.5139.124.2388.3222.2029.5665.0909 1.8461-.8465 3.7953-.8755 5.7677-.6813.0835.0082.1637.0476.246.0705.2149.06.2802.1706.142.3712-.2534.3675-.4005.7877-.5806 1.1918-.1923.4315-.0946.6802.3588.8039.4269.1165.8796.1598 1.287.321.4706.1862.5829-.0676.5702-.4104-.0324-.8777.4958-1.4176 1.1449-1.8054 1.4478-.8652 3.0703-1.2058 4.7314-1.334 1.1385-.0879 2.2837-.0866 3.4248-.1465.2348-.0123.617.1208.6691-.1959.051-.3096-.3572-.3404-.5725-.482-.5247-.3452-1.1839-.3587-1.8036-.6887.4858-.3025.9259-.5031 1.4044-.6402 1.8017-.5159 3.6498-.7119 5.5115-.7735 2.0341-.0673 4.0696-.0192 6.0829.3043 2.0782.3339 4.104.8882 6.0828 1.6091.1916.0698.3756.1758.522-.0958.1374-.2549-.0344-.3911-.1729-.5264-.119-.1163-.2837-.1845-.4222-.2825-1.5418-1.0907-2.9926-2.326-4.7752-3.034-.26-.1033-.2227-.282-.187-.4541.1628-.7841.0836-1.5703-.041-2.3393-.0762-.4701.1396-.4757.4541-.4727.4462.0043.8793.0776 1.3084.208.3715.1128.5921.0042.6745-.4369.1946-1.0421.1657-2.0819.0864-3.1276-.0098-.1295-.0859-.303.0408-.3841.1234-.079.254.0462.3729.111.7316.3984 1.2825 1.0142 1.8841 1.5684.1518.1399.2852.3091.5244.2387.2921-.086.0082-.2915.0815-.4272.032-.0592.0377-.1322.0663-.1939.4311-.9298.7564-1.8983 1.0431-2.8798.1751-.5994.4431-1.1834.3292-1.8376-.0278-.1596-.038-.3216-.2421-.3309-.2074-.0095-.1655.1638-.1959.2914-.3047 1.2784-.8103 2.486-1.3053 3.6977-.0933.2285-.1635.3015-.3902.1026-.869-.7626-.8766-.7553-.3655-1.7944.0598-.1216.1354-.2354.2017-.3539.4655-.8319 1.0607-1.5919 1.3742-2.5081.2272-.664.4669-1.3237.7235-2.049.4576.6159.8623 1.1791 1.2869 1.7269.4926.6356.7854 1.367 1.8691 1.4339 2.15.1326 4.1704.9195 6.1133 1.8159 1.4319.6606 2.644 1.685 3.7948 2.7608.6482.606 1.3412 1.1858 1.8755 1.8834.2979.3889.5687.3647.8309.2067.2538-.153.5033-.1913.7665-.2254 1.448-.1874 2.905-.0826 4.3573-.1271 3.4028-.1041 6.5672.7403 9.5647 2.3066 1.9106.9984 3.6107 2.2554 4.975 3.9414 1.2233 1.5118 2.1344 3.1854 2.7956 5.0201.6998 1.9417.9211 3.9494.9943 5.98.0365 1.013.1786 2.0323-.0004 3.0497-.0406.231-.2175.6032.0521.6786.3398.095.3792-.3294.4547-.5681.8704-2.752 1.1768-5.5684.9282-8.4446.3873.4078.5218.9507.7466 1.4405 1.4769 3.2171 2.6667 6.5398 3.6017 9.9537.0444.1622.0585.3328.0869.4995-1.8967 1.9051-4.1428 3.2726-6.6125 4.2957-.1906.079-.3859.1194-.5978.1116-.9097-.0334-1.8006.0813-2.6848.3075-1.5959.4083-2.9614 1.3066-4.4193 2.0115-1.3625.6588-2.5143 1.6373-3.7984 2.4134-.2656.1605-.1575.416.1011.565.1857.107.3689.0257.5472-.0232 1.1185-.3067 2.2524-.3993 3.3991-.2185 2.0441.3222 4.0183.9244 5.993 1.5225.2113.064.4224.0988.6495.0898.902-.0357 1.7527-.2956 2.587-.5998 2.2912-.8355 4.2585-2.2253 6.1905-3.671.3326.3775.227.8646.3057 1.3004.1352.7489.2058 1.5094.3036 2.2652-.2897.0882-.5812.1715-.8689.2662-.1616.0532-.3326.1184-.2807.3448.0452.1969.1839.2719.3792.2554.2847-.024.5695-.0471.8543-.0706.1509 2.441.287 4.8821.2318 7.3299-.1315 5.8377-.9903 11.5647-2.6027 17.1774-.0365.1269-.0462.2744-.1682.3654-.1021-.007-.2048-.0097-.3063-.0216-1.5434-.1815-3.0891-.3188-4.6463-.2768-.4919.0133-.9108.1425-1.3016.4797-.6038.5209-1.2468 1.0014-1.9033 1.4554-2.3711 1.6398-4.6284 3.433-6.9588 5.1272-.2267.1648-.2024.2969-.0936.5126.1103.2186.2495.2674.4529.1787.9075-.3961 1.8309-.7609 2.7158-1.2025 2.0516-1.0238 4.1444-1.9483 6.2968-2.7369.9078-.3326 1.8232-.3919 2.7654-.0928.5561.1766 1.0748.4359 1.6212.6296-.0515.6774-.4043 1.255-.6362 1.8702-.3122.828-.6786 1.6356-1.0239 2.451-.0594.1403-.1118.2885-.2582.3696-.6271-.2604-1.2425-.5547-1.8838-.7727-.838-.2848-1.6868-.3961-2.547-.0083-1.0574.4767-2.1204.9456-3.2027 1.3613-2.3109.8876-4.4782 2.0923-6.7682 3.0232-.3452.1404-.5207.4073-.4149.7155.1229.3576.485.191.7149.1096 2.21-.7827 4.5053-1.2212 6.7889-1.7056 1.005-.2132 1.9745-.3453 2.9639.2432.7539.448 1.5286.8629 2.255 1.3588zm-34.0194-51.1324c-.0691.9248.0668 1.6959.1777 2.4705.1271.8877.5642 1.6537.9209 2.4526.0818.1833.1091.4045.405.3415.2789-.0593.3606-.2537.337-.4921-.1601-1.6154-.1332-3.2245.0302-4.8414.1576-1.5601.4481-3.0878.9277-4.5745.4031-1.2495.3876-1.509-.3722-2.0348-.648-.4484-1.3413-.8002-2.1217-.4004-1.4331.7342-2.9225 1.3125-4.4499 1.8158-1.5052.4961-3.0165.9592-4.5697 1.2778-.2267.0465-.4876.1076-.4954.3627-.0087.2846.277.3126.4955.3394 1.6468.202 3.3036.2651 4.9591.2532 1.2877-.0093 2.5753-.1178 3.8616-.2028.3217-.0213.4092.1483.272.3487-.1479.2161-.1017.4266-.1328.6394-.1158.7905-.3101 1.5729-.245 2.2444zm-25.6639-5.5835c-.0315.375.1584.5398.4299.4183.1639-.0733.3162-.2074.4317-.3485 1.4862-1.8155 3.241-3.3436 5.0788-4.7858.8905-.6988 1.7694-1.4124 2.6516-2.1217.1811-.1456.4438-.2727.2796-.5721-.1486-.2708-.4366-.2409-.6751-.2019-1.4416.2358-2.8969.4057-4.2951.8618-.346.1129-.5782.3365-.7668.6359-.8052 1.2784-1.5993 2.5645-2.2435 3.9324-.3447.7321-.615 1.4992-.8911 2.1816zm-20.6376 2.0597c-.0537-1.8043-.1967-2.4161-.8171-3.4355-.3015-.4954-.5515-.5786-1.1048-.3786-.3676.1329-.7407.2508-1.1071.387-.3457.1285-.69.2625-1.0268.4124-.2283.1016-.3909.2823-.4303.5378-.0486.3146.2598.2831.4116.3629 1.5012.7892 2.5103 2.0092 3.1813 3.5415.0762.1739.0042.5195.3538.4435.2636-.0573.4121-.2637.452-.5498.0581-.4158.1623-.8267.0874-1.3212zm16.2521-6.8584c-.2824.092-.7028.1584-1.0453.3584-.4305.2513-.8306.5446-.7023 1.2095.1314.6814-.0849 1.3513-.3971 1.9698-.4443.88-1.0358 1.6217-1.945 2.0767-.1254.0628-.3819.1627-.2661.4154.1214.265.3417.2468.5594.1394.243-.1199.4651-.2891.7162-.3845 2.1401-.8123 3.4758-2.3537 4.1433-4.5159.257-.8326-.3916-1.2709-1.0631-1.2688zm-9.5407 2.9318c-.0457.5884.1225 1.1849.3891 1.7688.3233.7082.8635 1.1672 1.5658 1.4515.1724.0698.3862.0951.521-.0797.1571-.2037-.0179-.3333-.1404-.4791-.2454-.2921-.4167-.6471-.4677-1.0084-.1685-1.1944-.1582-2.3797.3804-3.5061.1532-.3204.3744-.7187.0977-1.0086-.2722-.2851-.5931.0719-.8898.1616-.0328.0099-.069.0141-.0979.0308-.5424.3136-1.1525.5676-1.2649 1.2943-.0672.4358-.1837.8696-.0933 1.3749zm71.2567 28.2213c.0258-.0087.0944-.0098.117-.0426.2522-.366.4044-.7808.5524-1.1951.016-.0448-.0733-.1732-.1327-.1882-.0869-.022-.2496-.008-.2781.0453-.1996.372-.4472.7266-.5384 1.1457-.0361.1658.0929.2402.2798.2349z" fill="#f39c44"/><path d="m105.8697 73.8246c.0016.064.0033.1281.0049.1922.1384.9001.2718 1.8008.4172 2.6996.0896.5543-.1406.7681-.6785.6543-.2905-.0615-.5093-.2099-.7447-.3749-.4285-.3002-.7846-.6983-1.2624-.9299-.7238-.9329-.7948-.9447-1.6668-.2799-.0679.0518-.1403.0982-.2053.1533-2.4318 2.0591-4.8631 4.119-7.2944 6.1787-.2727.2902-.4933.6774-.9978.5349-.1158-.355-.2299-.7105-.3479-1.0648-.0893-.2681-.1949-.3403-.5013-.1852-1.9811 1.0026-3.978 1.9739-5.9697 2.9555-.6547.24-1.2512.5914-1.8329.9684-.2137.1385-.3955.1458-.5946-.0305-.2025-.1793-.1296-.356-.0346-.5433.0907-.1787.1823-.357.2736-.5354.217-.4699.434-.9398.683-1.4789-.3344.0983-.5874.1758-.8421.247-1.4895.4163-2.9625.8823-4.4067 1.4378-.1727.0664-.1659.1962-.1715.3302-.0194.4707-.2898.8402-.5831 1.1446-.9585.9949-1.8555 2.0379-2.6854 3.1412-.1547.2057-.1825.2903.1225.3609.4131.0956.8099.2616 1.2136.3974 1.2435.5141 2.4138 1.1564 3.4847 1.9759.0926.0708.2157.1117.3663-.0228-.4008-.3933-.3782-.8941-.3387-1.4077.0301-.392.2184-.4643.5465-.3321.1103.0444.2213.09.3248.1481 1.3039.7313 2.6373 1.4114 3.8794 2.2505.2717.1835.5767.3177.9352.512-.2615-1.0036-.3658-1.949-.6756-2.8489-.075-.2178.0218-.3442.2616-.3983.3049-.0687.5153.1424.7722.2107 1.8351.4874 3.4754 1.3732 5.0381 2.4324.6536.443 1.3595.8087 2.0552 1.2175.1-.4026.0074-.7309-.0521-1.0641-.0272-.1524-.1579-.3457.0606-.4559.1688-.0851.3509-.1023.5443-.0259 1.0742.4242 2.1064.9312 3.0948 1.5292 1.686 1.0199 3.3549 2.0695 5.1206 2.9517.1767.0883.3788.1703.3938.4522-.6049.0189-1.1611-.0782-1.6936-.3732-.7159-.3965-1.4432-.7755-2.1834-1.1242-1.1411-.5377-2.2094-1.2225-3.3861-1.6834-.3066-.1201-.6335-.4227-.9297-.2934-.2816.123-.0697.5285-.1166.8053-.0911.5378-.3436.6584-.8075.3594-.4158-.268-.8328-.5358-1.2318-.8276-1.7076-1.2485-3.5447-2.221-5.6519-2.7013-.0582.3465-.0113.6534.174.9379-.0561.1682-.0356.3244.0187.497.1811.5757.3381 1.1589.5038 1.7394.0546.1913.0658.3777-.1271.5009-.2076.1326-.3524.0019-.4859-.1396-.1877-.1988-.3728-.3963-.6318-.5105-.5808-.2559-1.0905-.6342-1.6278-.9647-.9217-.567-1.8714-1.0794-2.9256-1.5777.1061.7495.4239 1.3103.7442 1.8621.1255.2161.321.3973.0682.6182-.2147.1876-.4048.0981-.6292-.0679-.9876-.7305-1.9963-1.4326-2.9985-2.1434-.0948-.0672-.1971-.1822-.318-.1067s-.0505.2154-.0425.3309c.0602.8707.2218 1.7252.4346 2.569.2707 1.0735.3774 2.1931.8798 3.2023.2328.4677.3655.9047.3102 1.4806-.184 1.9152.1711 3.8152.3968 5.7121.0484.4066.0447.7497-.086 1.1227-.5077 1.449-1.1363 2.8461-1.8054 4.225-.492 1.014-.9682 2.0327-1.3502 3.0947-.1041.2895-.0135.4013.2618.4521 1.2132.224 2.4436.2698 3.6687.2672.7645-.0016 1.494.0368 2.1948.3568.6205.2833 1.23.5997 1.8705.8285 1.5376.5492 3.0203 1.2339 4.5837 1.7268 1.9169.6044 3.8255 1.1505 5.8601 1.0604.1012-.0045.2071.0021.3045.0277.1825.048.3002.1639.2939.367-.0059.1914-.1338.26-.3013.2875-1.1806.1934-2.3557.4388-3.5572.4599-2.2786.0402-4.5363-.2145-6.7913-.5039-1.0475-.1344-2.1002-.3688-3.1402.0341-.9233.3577-1.875.6351-2.7882 1.0244-.5932.2528-1.1537.5991-1.8058.7047-.2036.033-.2705.1517-.2589.3626.0468.8528.0857 1.7063.1076 2.5601.0071.2764.0649.349.3611.2828 1.6983-.3796 3.3195-1.0224 5.0056-1.4463.5244-.1319 1.0502-.256 1.5532-.1263 1.6018.4129 3.1877.8877 4.7791 1.3408 1.1776.3353 2.2635.9688 3.5138 1.0736.154.0129.3744.0603.3441.2979-.0261.2047-.2009.2466-.3853.262-.7274.0606-1.4579-.0017-2.1859.1331-2.1663.4013-4.336.7868-6.5102 1.1422-1.2296.201-2.3861.4959-3.3479 1.3742-1.3562 1.2386-2.5382 2.6329-3.7453 4.0068-.2519.2867-.4163.625-.4603 1.007-.1385 1.2018-.44 2.3823-.4575 3.6004-.0046.3203-.0325.6454-.1578.9497-.2554.0066-.5127.0014-.7523.1131-.4813-.1167-.1633-.5348-.1475-.6832.1568-1.471.3985-2.9329.6136-4.3977.2228-1.5169.4242-3.0373.6685-4.5508.3016-1.8681.3822-3.749.4321-5.6361.0491-1.8561-.2305-3.6715-.6088-5.4743-.3578-1.705.0364-3.2856.635-4.8658.731-1.9292 1.615-3.7879 2.4869-5.6532.1671-.3575.217-.7054.1392-1.0908-.3619-1.7927-.4991-3.617-.4732-5.433.0126-.8874-.1777-1.6637-.3923-2.4959-.5137-1.9926-1.0529-3.9855-1.3207-6.0342-.0271-.2072-.1454-.317-.3325-.4056-.6819-.3226-1.3981-.4141-2.1425-.3826-.2008.0085-.3066.107-.4036.2598-.8197 1.2926-1.5514 2.6358-1.8583 4.1451-.2282 1.1222.0575 2.2312.3806 3.3086.7147 2.3826 2.1671 4.2661 4.0349 5.8571.1788.1523.3918.2658.5942.3885.1686.1022.301.2071.286.4395-.0162.2512-.1615.3772-.3729.4285-.6592.1599-1.3205.312-1.9838.454-1.5214.3256-3.0566.516-4.6159.5609-1.8004.0518-3.5858-.0479-5.3582-.3546-1.9011-.3289-3.7739-.7915-5.6538-1.2212-.5783-.1322-1.1866-.1269-1.7733-.2297-.4408-.0773-.4084.1169-.2968.4049.5283 1.3625 1.2103 2.6135 2.3868 3.5497.4007.3189.7921.6385 1.2358.8966.1329.0773.3203.1739.2679.3933-.0588.2464-.2669.1492-.4236.1716-1.9565.279-3.8713-.0907-5.7602-.4862-1.5171-.3176-2.9498-.9602-4.3477-1.6414-1.383-.6739-2.6818-1.4912-3.9292-2.391-.361-.2604-.6687-.5727-.9633-.9045-.3668-.4131-.5721-.381-.7025.1339-.2087.8244-.2217 1.661.0775 2.4683.2687.7251.468 1.48.965 2.1131.115.1465.191.5111-.0462.6984-.2058.1626-.4226.0642-.6521-.0759-.676-.4126-1.4709-.5286-2.2027-.8109-2.0949-.8081-3.8815-2.0244-5.3515-3.7275-.639-.7403-1.249-1.4894-1.6546-2.385-.1256-.2775-.2574-.2023-.404-.0291-1.0634 1.2566-2.0693 2.5429-2.2242 4.2732-.009.1006-.0386.2034-.079.2962-.0793.1818-.098.4475-.347.4618-.2582.0149-.4235-.1739-.5514-.3941-1.0988-1.8932-1.5051-3.9238-1.2449-6.0964.0293-.2446.191-.5916-.009-.7287-.2079-.1425-.4501.1559-.6685.2716-1.1853.6277-2.1891 1.4973-3.159 2.4092-.0994.0934-.2278.1871-.268.306-.0935.2763-.2887.4093-.5419.3575-.2799-.0573-.3796-.3085-.4082-.5826-.1157-1.1099.0158-2.2086.2139-3.2929.4016-2.198 1.0192-4.3309 1.9307-6.3826 1.6423-3.6967 2.5483-7.5522 2.3009-11.626-.0367-.6046-.0758-1.2268-.3301-1.7886-.223-.4927.077-.8507.2543-1.2318.2241-.4818.5061-.9366.8106-1.4894-.4334.1588-.654.433-.9072.6577-.1358.1205-.2715.2335-.4539.1404-.1921-.0981-.1483-.2744-.1147-.4495.2556-1.3346.3573-2.6953.697-4.0166.0891-.3464.0941-.7145.1384-1.0778-.2301-.0377-.3183.1217-.4393.2355-.1483.1394-.2982.2848-.4707.3889-.2431.1466-.5212.0893-.7324-.0475-.209-.1353-.0877-.3664-.0251-.5611.7983-2.4843 1.729-4.9208 2.703-7.3393.5039-1.2514.7537-2.5144.3909-3.8218-.2637-.9504.0025-1.7614.4451-2.5563.6562-1.1782 1.2346-2.3856 1.5952-3.6923.3899-1.4127.9124-2.7964.8699-4.2968-.0048-.1702.1214-.2666.2611-.3508.6156-.3708.9627-.874.8571-1.6376-.0606-.4379-.0773-.8856-.0676-1.3279.0058-.263.0556-.445.472-.4617.8723-.0349 1.688-.3802 2.4646-.7861 1.346-.7034 2.5233-1.6531 3.6985-2.5956.9232-.7404 1.9221-1.3558 2.9128-1.9914 1.248-.8007 2.5227-1.5524 3.8656-2.1816.2726-.1277.2452-.234.1229-.461-.6237-1.1573-1.0151-2.4087-.9115-3.7134.1476-1.8591.829-3.5602 1.8394-5.139.5892-.9207 1.2536-1.7211 2.2482-2.2285.6906-.3523 1.3052-.2544 1.8576.2694.4133.3919.8985.7157 1.3794 1.0273 2.0878 1.3529 3.8639 3.0755 5.672 4.7594.2485.2314.4094.3253.7675.1417 1.0615-.5443 2.2437-.6643 3.4071-.8317.8962-.129 1.7938-.2029 2.7022-.2144 1.7186-.0217 3.372-.4181 4.9869-.9894 1.5259-.5397 3.0637-1.064 4.4405-1.9307.9178-.5777 1.8959-1.1 2.5282-2.0446.305-.4556.6108-.8912.5833-1.4875-.0185-.4008.2487-.5231.6121-.3447.5016.2463.8357.6806 1.212 1.0664.0528.0542.0607.1833.1613.1583.4342-.1081.6636-.5183 1.0393-.7251.2131-.1173.0879-.3833.0576-.5635-.1847-1.0983-.1567-1.1353.9382-.8709.2668.0644.429.0443.6116-.219.9138-1.3177 1.8541-2.6201 2.4202-4.1354.227-.6075.6061-1.1831.5118-1.8857-.0156-.1161.0616-.2322.1962-.2717.1769-.052.3407-.0378.4663.1148.2493.3028.5351.5845.7332.918.2018.3399.4977.5929.7169.9135.177.2589.3264.0349.4434-.0959.9422-1.0532 1.8807-2.1097 2.8167-3.1684.4285-.4847.8924-.9392 1.2581-1.4781.1617-.2384.38-.2918.6161-.1198.2109.1536.3472.1142.5173-.0785 1.356-1.5354 2.8539-2.9311 4.3218-4.3562 1.065.393 2.0151 1.0097 2.989 1.5723 2.9521 1.7055 5.7369 3.658 8.3918 5.7962.0387.0312.0648.0781.0969.1177-1.3319.0143-2.6636-.0179-3.9962.0653-1.2788.0798-2.5689.0786-3.7984.4755-.3751.1211-.6245.0827-.9058-.144-.771-.6213-1.5196-1.2766-2.3329-1.8375-.9522-.6567-1.8828-1.3657-2.9991-1.7503-.2563-.0883-.4467-.0673-.6347.1554-.3517.4169-.7518.7939-1.0923 1.2192-.262.3273-.5329.3119-.8437.1316-.4773-.2768-.4839.2563-.6572.4219-.2558.2444.0972.2852.2345.3299 1.1369.3697 2.2783.7264 3.4509.9686.206.0426.3806.1037.5387.2598.826.8155 1.8271 1.4111 2.7428 2.1123.6714.5141 1.3886.9672 2.0281 1.5335.3469.3072.6934.776 1.1788.7441.9229-.0606 1.8412.0169 2.7626-.0129 2.8744-.093 5.7212-.408 8.5571-.8574.9754.814 1.8356 1.747 2.6905 2.6791 2.293 2.4998 4.3879 5.1579 6.2782 7.9776 1.6033 2.3915 3.0329 4.8821 4.3303 7.45.1128.2233.1687.4754.2509.7141.2485 2.8762-.0579 5.6926-.9283 8.4446-.0755.2388-.1148.6631-.4547.5681-.2696-.0754-.0928-.4476-.0521-.6786.179-1.0174.0369-2.0367.0004-3.0497-.0732-2.0305-.2945-4.0383-.9943-5.98-.6612-1.8347-1.5724-3.5083-2.7956-5.0201-1.3643-1.686-3.0644-2.943-4.975-3.9414-2.9975-1.5663-6.1619-2.4107-9.5647-2.3066-1.4524.0444-2.9094-.0603-4.3573.1271-.2632.0341-.5127.0724-.7665.2254-.2622.1581-.533.1822-.8309-.2067-.5344-.6976-1.2273-1.2774-1.8755-1.8834-1.1508-1.0758-2.3629-2.1002-3.7948-2.7608-1.9428-.8964-3.9633-1.6833-6.1133-1.8159-1.0836-.0668-1.3764-.7983-1.8691-1.4339-.4246-.5478-.8292-1.111-1.2869-1.7269-.2567.7253-.4963 1.385-.7235 2.049-.3135.9161-.9087 1.6762-1.3742 2.5081-.0663.1185-.1419.2323-.2017.3539-.5111 1.0392-.5035 1.0318.3655 1.7944.2267.1989.2969.1259.3902-.1026.495-1.2117 1.0006-2.4193 1.3053-3.6977.0304-.1276-.0115-.3009.1959-.2914.2041.0093.2143.1713.2421.3309.1139.6543-.1541 1.2383-.3292 1.8376-.2868.9815-.612 1.95-1.0431 2.8798-.0286.0617-.0342.1346-.0663.1939-.0733.1356.2106.3412-.0815.4272-.2393.0704-.3726-.0988-.5244-.2387-.6016-.5543-1.1525-1.17-1.8841-1.5684-.1189-.0648-.2495-.19-.3729-.111-.1266.0811-.0506.2546-.0408.3841.0793 1.0457.1082 2.0855-.0864 3.1276-.0824.4412-.3029.5498-.6745.4369-.4291-.1303-.8622-.2037-1.3084-.208-.3145-.003-.5303.0026-.4541.4727.1247.769.2038 1.5552.041 2.3393-.0357.1721-.073.3508.187.4541 1.7826.708 3.2335 1.9433 4.7752 3.034.1385.098.3032.1661.4222.2825.1385.1354.3103.2716.1729.5264-.1465.2716-.3304.1656-.522.0958-1.9788-.7209-4.0046-1.2752-6.0828-1.6091-2.0133-.3235-4.0489-.3716-6.0829-.3043-1.8617.0616-3.7098.2576-5.5115.7735-.4785.137-.9186.3377-1.4044.6402.6197.3301 1.2789.3435 1.8036.6887.2153.1416.6235.1724.5725.482-.0522.3167-.4343.1835-.6691.1959-1.1411.0599-2.2863.0586-3.4248.1465-1.6611.1283-3.2836.4688-4.7314 1.334-.6491.3879-1.1773.9277-1.1449 1.8054.0127.3428-.0996.5967-.5702.4104-.4074-.1612-.8601-.2045-1.287-.321-.4534-.1237-.5511-.3724-.3588-.8039.1801-.4041.3272-.8242.5806-1.1918.1382-.2005.0729-.3111-.142-.3712-.0823-.023-.1625-.0623-.246-.0705-1.9724-.1943-3.9216-.1653-5.7677.6813-.2443.112-.4425.148-.5665-.0909-.1292-.2487.0356-.4078.2654-.5139 1.4096-.6506 2.8367-1.2249 4.3649-1.575 1.0314-.2363 2.0561-.3613 3.1025-.3969.1534-.0052.325-.038.4581.0161.9753.3957 1.8224.0334 2.6643-.4114.2111-.1115.4399-.1901.6624-.2793.1609-.0645.3614-.1225.3936-.2974.0399-.2169-.207-.3346-.3351-.3959-.4286-.2048-.8865-.3522-1.3414-.4958-.1835-.0579-.3946-.0112-.5275.1347-.706.7744-1.6965.8951-2.6261 1.101-.8372.1854-1.6899.3511-2.539.4495-1.4585.1691-2.8342.5776-4.136 1.2161-2.4348 1.1941-4.911 2.3032-7.1976 3.7923-2.0882 1.36-3.9658 3.0043-6.0586 4.351-.5103.3283-1.0424.6208-1.6306.8037-.4351.1353-.8555.3172-1.2841.4742-.194.0711-.1753.2323-.17.3841.0161.4624.1325.8963.342 1.3123.1231.2444.3073.1068.443.0868 1.0946-.1617 2.1929-.2563 3.292-.099 1.7284.2473 3.404.6697 4.8924 1.6415.093.0607.1859.2193.3018.118.1507-.1319-.021-.2473-.0921-.3444-.2099-.2872-.4457-.5556-.6539-.844-.5919-.8195-1.5033-.8107-2.3588-.8755-1.0753-.0814-2.1363-.2117-3.1659-.5358-.3402-.1071-.668-.2557-.9968-.396-.1743-.0744-.3626-.1702-.3522-.3935.0102-.2179.1658-.4244.3381-.4815 1.0825-.3587 2.0573-.9644 3.1321-1.3379.22-.0764.4103-.0503.5831.0734 1.0718.7673 2.2089 1.4106 3.4532 1.8564.1879.0673.2068.2447.264.408.4819 1.3748 1.3372 2.5103 2.3183 3.5603.2141.2291.429.3242.7361.0508.9507-.8462 2.0386-1.374 3.3573-1.2528.2567.0236.4033-.1536.5774-.2842 1.341-1.0055 2.7419-1.9036 4.3943-2.3082.7669-.1878 1.5066-.0925 2.2347.2639.8762.4289 1.6024 1.1082 2.5252 1.4538.5118.1917 1.0339.3137 1.7153.3804-.3889-.2385-.671-.4009-.94-.5826-.0868-.0586-.2412-.1338-.155-.2765.0707-.1169.2-.1865.3548-.1327.0324.0113.0671.0193.0959.0368 1.5771.9597 2.8095.1137 3.9762-.8167 1.171-.9338 2.2339-2.0054 3.4209-2.9167 2.0607-1.582 4.3522-2.6832 6.9035-3.308 1.2539-.3071 2.4944-.263 3.7425-.3645.3071-.025.3928.2115.4168.4209.1235 1.0782.7456 1.9654 1.1035 2.9526.0553.1525.2049.2818-.0047.4366-.1908.1409-.3691.2148-.5958.0757-.8454-.5184-1.7948-.642-2.7541-.6544-3.0462-.0396-5.7164 1.0089-8.1059 2.8525-.4184.3228-.8652.6088-1.2969.9146-.0212.015-.0228.0577-.0395.1041.4712 0 .9365-.0186 1.3999.0033 1.793.0845 3.599.0769 5.3739.3069 1.4859.1925 3.0228.3368 4.3728 1.1238.0414.0241.1278.0551.13.0507.2843-.5583.6795-.1533 1.022-.1111 1.1326.1394 2.2619.3064 3.3949.4422 1.3563.1625 2.7033.3777 4.0496.6073.4761.0812.9562.2062 1.4538.1674.2302-.0179.452.089.5582.2978.0986.1939-.1388.2729-.2049.4064-.1936.3911-.3545.8065-.465 1.2289-.1945.7436-.2344 1.5058-.1793 2.2752.1756 2.4523 1.2393 4.5602 2.6598 6.4786.7834 1.058 1.8156 1.9287 2.972 2.6015.237.1379.5419.1589.7051.424-.08.1094-.1435.237-.2424.3247-1.1789 1.045-2.454 1.9472-3.8689 2.653-3.1583 1.5753-6.2928 3.1798-9.0332 5.4622-1.9403 1.616-3.802 3.2941-5.3149 5.3268-.1408.1891-.3347.3299-.502.2523-.2401-.1115-.1735-.3804-.0766-.5884.2509-.5384.4962-1.0806.7754-1.6045.5266-.9882 1.2144-1.8759 1.8029-2.825 1.3365-2.1554 2.9562-4.0852 4.6479-5.9615 1.4094-1.5632 3.0533-2.8723 4.6226-4.2617.2068-.1831.2203-.2807.0525-.4848-.2586-.3145-.5098-.6413-.7149-.9917-.1773-.3029-.353-.3326-.5873-.1035-.7275.7116-1.5419 1.3116-2.3746 1.8918-1.1883.8279-2.3621 1.6766-3.5484 2.5075-1.6514 1.1566-3.3871 2.1826-5.0824 3.2712-.2029.1303-.3846.1319-.5769.0577-.2183-.0842-.1521-.2872-.1232-.4459.1364-.7492.2137-1.4958.2047-2.2645-.0078-.6603-.0602-1.3327.0724-1.9921.1971-.1589.3512-.3592.5932-.4764 1.6726-.8096 3.3462-1.618 5.0033-2.4587 1.6249-.8244 3.1221-1.8641 4.6692-2.8202.4328-.2675.4565-.4998.3329-.9443-.1765-.6347-.294-1.2976-.3371-1.955-.0804-1.2269-.0016-2.4503.3464-3.6413.0908-.3108.0162-.5004-.3207-.5886-.5769-.1511-1.1604-.3114-1.7517-.3056-.4208.0041-.8976-.0916-1.2624.2588-1.856 1.7825-3.987 3.0583-6.5339 3.59-1.8345.383-3.6287.1975-5.4061-.3172-1.1474-.3322-2.296-.6508-3.508-.6113-.1674.0055-.3708.0442-.4114-.193-.0411-.2403.1447-.3273.3291-.3857.6108-.1935 1.2325-.1938 1.8647-.1223.8321.0941 1.5867.4924 2.4235.5743.9303.0911 1.8544.2448 2.7899.05.7211-.1502 1.4184-.3852 2.0826-.6868 1.1127-.5052 2.2271-1.0256 2.9975-2.0447.2454-.3245.3742-.6778.3627-1.0827-.0044-.1568-.099-.2726-.2359-.2991-.1626-.0315-.1789.1307-.1931.2402-.0336.2597-.2144.4329-.3771.5926-.7478.7344-1.6365 1.2272-2.6558 1.4876-1.1482.2933-2.2892.4669-3.4892.2676-.9313-.1547-1.751-.5226-2.5468-.9797-.2747-.1578-.5512-.3148-.8544-.2094-.6719.2336-1.366.4023-2.0002.7511-.6866.3777-1.3932.721-2.1526.945-.1666.0492-.2697.0306-.3473-.0896-.0864-.1339.0285-.2259.1238-.2951.1091-.0793.2302-.1432.35-.2066.7135-.3781 1.4461-.7239 2.1886-1.2696-.8758-.1055-1.6169.1089-2.3596.2237-.6557.1014-1.2909.0519-1.9293-.0686-.1459-.0275-.3089-.081-.3051-.287.0046-.252.1948-.1869.3359-.1871.1693-.0002.3393.0113.5079.0282 1.5184.1518 2.8223-.4301 4.0526-1.2184.2272-.1456.3018-.48.1873-.7427-.1036-.2377-.3572-.2056-.589-.1581-.3001.0615-.6344.0357-.9029.1588-1.0954.5022-2.2298.8095-3.4309.9389-1.7117.1845-3.2465-.1757-4.6367-1.2152-.9146-.6839-1.8804-1.2381-3.1188-.8358-1.4733.4786-2.689 1.3931-3.9407 2.2474-.248.1693-.4732.2875-.7781.3075-1.1443.0751-2.1323.4971-2.983 1.2928-.7122.6661-1.3382 1.3989-1.9171 2.1749-.8818 1.1819-1.53 2.4886-2.0382 3.8984.8255.0752 1.6147.1618 2.4086.2257 1.6363.1318 3.2282.0253 4.8247-.3672 1.927-.4739 3.7469-1.2575 5.6314-1.8533 1.6734-.529 3.3368-.791 5.0732-.5377.6283.0917 1.0964.4489 1.3951.9885.2616.4727-.1294.7407-.4159 1.0234-.2189.0369-.4367.0957-.6569.1072-1.4525.0762-2.8777.2234-4.1184 1.1099-.5532.3953-1.2454.5857-1.7428 1.0636-.8746.8402-1.7201 1.7109-2.5755 2.5711-.8822.8872-1.7939 1.7851-2.9783 2.2024-.8134.2866-1.1801.797-1.5595 1.4947-1.0402 1.9129-1.3104 3.9023-.8496 6.0081.265 1.2111 1.0348 1.967 2.1997 2.3259 1.2671.3904 2.5416.7566 3.8119 1.1369 1.368.4096 2.7684.7175 4.0847 1.2895.1953.0849.3335.0218.4422-.132.3528-.4991.7405-.9793 1.0399-1.509.4393-.7773 1.0706-.978 1.8741-.6329.9536.4095 1.2542 1.1785 1.2144 2.0953-.0406.9363.0867 1.6712 1.2056 1.786.0292.003.0524.0441.0826.0591 1.1408.5678 2.2575 1.1726 3.3476 1.8395 1.2528.7664 2.4816 1.5627 3.6253 2.4778.3755.3004.5759.2521.8294-.0692.0636-.0806.1556-.1448.1993-.2338.1638-.3338.4671-.508.7396-.2826.3171.2623.0356.5693-.1759.7825-1.3311 1.3411-2.6786 2.6659-4.0084 4.0083-.3781.3817-.8072.6482-1.3434.6101-.4205-.0299-.8343-.1387-1.2417-.2887-1.5329-.5646-2.8915-1.4522-4.2869-2.2699-1.5416-.9034-3.0933-1.7872-4.5781-2.7899-1.1839-.7996-2.4584-1.4651-3.6927-2.1902-1.3534-.7951-2.7537-1.4895-4.2483-1.9817-1.6611-.6267-3.3786-1.0475-5.1268-1.3255-1.3436-.2136-2.7062-.2761-4.0661-.296-.5914-.0087-1.1843.0837-1.7765.1302.4286.2947.8817.2225 1.318.2676 1.9741.2042 3.9497.3933 5.9235.6006.8317.0873 1.6538.2344 2.432.5608.1511.0634.3534.0966.2573.3468-.3088.0334-.6136-.0036-.92-.0414-1.5461-.1906-3.0996-.331-4.6554-.3444-2.3391-.0201-4.6794.0102-7.0181.0653-2.0852.0492-4.1564.2528-6.1992.7132-.3771.085-.3773.2534-.3126.5276.0274.1161.0708.2288.0934.3456.5367 2.7654.168 5.4657-.5856 8.1387-.7605 2.6975-1.9325 5.2512-2.767 7.9228-.5107 1.6349-.8801 3.2999-1.0604 5.0045-.0102.0968-.0175.2479.0366.287.1408.1018.1899-.0738.2749-.1437.6292-.5174 1.2249-1.0855 1.8995-1.5351.7605-.5068 1.5884-.9218 2.4481-1.2413.5499-.2044.9036.1441.7142.6871-.2913.8348-.3563 1.6905-.3367 2.5592.0289 1.2777.3786 2.4831.8362 3.7262.6827-1.8241 1.7146-3.3587 2.8437-4.8351.1315-.172.2566-.3942.525-.3455.2669.0484.3301.3056.3699.5068.1264.6391.4367 1.1815.8107 1.6953.7824 1.0748 1.5622 2.1901 2.6204 2.9792 1.1363.8473 2.39 1.5623 3.7505 2.0428.3278.1158.6304.3074 1.0266.334-.1606-.4432-.3291-.8331-.444-1.2383-.4686-1.6533.0038-3.2322.4102-4.8136.0804-.3127.3001-.2396.475-.1185.1511.1046.2836.2531.3869.4073.9538 1.4242 2.2835 2.439 3.7164 3.309 2.602 1.5799 5.4169 2.5577 8.4726 2.7692.3007.0208.6085.1693.9845-.0009-1.6641-1.3152-2.1331-3.3104-3.1186-4.9861-.2811-.478-.0997-.6737.4539-.6847 1.1938-.0237 2.3277.3259 3.4622.6121 1.6003.4037 3.2082.7513 4.8372 1.0107 1.8518.2949 3.7153.3735 5.5881.4106 1.8036.0357 3.5762-.1353 5.3379-.4889.149-.0299.3382-.046.3903-.2005.0582-.1724-.1236-.2641-.2336-.3603-.5788-.5057-1.2046-.9689-1.6836-1.5715-1.2256-1.542-2.0887-3.2658-2.5068-5.2032-.3192-1.4793-.3413-2.9435.1811-4.3841 1.0182-2.8076 2.7355-5.1411 4.9014-7.162.511-.4768.8662-.9772.7709-1.7308-.1507-1.1917-.8246-2.1723-1.2437-3.255-.0559-.1446-.3596-.2623-.1051-.4462.2313-.1672.3593.0454.4907.2097.4166.5211.7886 1.0691 1.078 1.6725.5193 1.0831.5217 1.0813 1.6494.6788.1767-.063.3576-.1143.5342-.1776 1.7304-.6202 3.4614-1.239 5.1889-1.8671.1885-.0686.3337-.1279.5027.0515.1748.1856.1581.3598.0528.5547-.0887.1641-.1854.3238-.2747.4876-.2851.5227-.634 1.014-.8766 1.7049.7435-.453 1.3912-.8185 2.0088-1.2294 1.7733-1.1799 3.6722-2.15 5.4683-3.2914.0838-.0532.1927-.0694.292-.0952.2693-.0701.4426.0037.438.3136-.0077.5194.1776 1.0016.2832 1.4991-.0172.0249-.0547.0621-.0483.0726.0324.0533.079.0429.1229.0083.5884-.5405 1.1536-1.1045 1.7634-1.624 1.9902-1.6957 3.9667-3.4077 5.937-5.1265.7516-.6557 1.0026-.6653 1.7331.0328.4501.4302.907.8533 1.3608 1.2796.0427-.0179.0854-.0357.1281-.0536-.5893-2.5834-.9484-5.1942-1.0231-7.8389.0113-.2263.1045-.4612-.0696-.6683l.0027-.0173c.0569-1.3176-.1206-2.6274-.1279-3.9439-.0073-1.3218-.0303-2.6429-.0005-3.9652.0255-1.1261-.0058-2.2525-.1932-3.3684-.0251-.1496-.0419-.3044-.0321-.4548.0079-.1204-.0732-.298.1265-.3423.176-.0391.3496-.12.526.0487.3075.294.6068.602.9844.8128.197.1858.3939.3716.5908.5574.0198-.0147.0395-.0294.0593-.0441-.1325-.2825-.2651-.565-.3976-.8476-.7274-2.4869-1.6097-4.9298-2.2069-7.4524-.2977-1.2577-.7207-2.5024-.6987-3.8216.0038-.2259-.1453-.3292-.2979-.4438-1.3193-.9909-2.7572-1.7545-4.3257-2.2708-1.5332-.5046-2.7687-1.4245-3.9204-2.5549-1.1865-1.1645-2.3638-2.3672-3.8126-3.2381-.3841-.2309-.8146-.2271-1.2224-.3361-.1957-.0523-.4443-.0857-.4099-.3619.0292-.2344.2186-.2933.4522-.321.82-.0973 1.3644-.6323 1.8561-1.2357 1.255-1.5397 1.8506-3.3491 2.1222-5.28.0885-.6292-.0435-1.2482-.3327-1.8221-.2315-.4594-.0852-.8141.4241-.967.9265-.2783 1.8793-.1651 2.7997-.0481 1.729.2198 3.35.7785 4.7656 1.8585.731.5577 1.5477 1.004 2.2711 1.5704 2.2382 1.7524 3.4951 3.9756 3.3363 6.9167-.0814 1.5074-.8527 2.4938-2.0349 3.2782-.9311.6178-1.9164 1.1154-2.9869 1.44-.5576-.0073-1.0641.1997-1.574.385-.1039.0378-.2531.0677-.2747.2024-.0264.1641.1515.1554.2387.2204 1.1063.8244 2.4726 1.2361 3.489 2.212.1958.188.3383.3455.3745.6216.2468 1.88.5431 3.751 1.0442 5.5842.6798 2.4868 1.3373 4.9796 2.4954 7.3043.2707.5434.6036 1.0837.485 1.7418-.5049.1316-.6743-.3302-.9786-.5532-.5315-.593-1.1628-1.0485-1.8305-1.3874 0 1.4094.0017 2.802-.0004 4.1946-.0042 2.9206.0589 5.8411.3545 8.7466.1403 1.3853.3671 2.7689.7121 4.1255zm-60.4136 1.6332c1.8379.3166 3.5007-1.4781 3.6225-2.9174.0973-1.1496.2317-2.2972.388-3.4405.1302-.9524.2148-1.9241.7122-2.7841.0859-.1486.0658-.2451-.0655-.3473-.1876-.146-.3586-.3139-.5488-.4562-.8383-.6268-1.6147-1.3057-2.0507-2.2933-.2536-.5746-.5422-1.1347-.774-1.7176-.2106-.5295-.8055-.7103-1.0312-1.2132-.4169.156-.8283.3225-1.1614.6318-.2252.2091-.4462.4229-.6732.63-.2756.2514-.3066.5137-.1467.8631.4988 1.0897.5923 2.2596.6351 3.4401.013.3573-.1936.4179-.4479.4803-.2717.0667-.4628-.0037-.5593-.2893-.1885-.5574-.4942-1.0516-.8601-1.5079-.4913-.6126-.6206-.6828-1.275-.3374-1.496.7895-2.8997 1.7145-4.1056 2.9221-.3407.3412-.1706.4077.155.5063.9255.2803 1.8488.5684 2.7689.8659.1948.063.4769.0857.4752.3666-.0016.2707-.1955.3975-.4648.4573-.2475.0549-.4865.1288-.7428.1662-1.2244.179-2.4481.154-3.672.0328-.2336-.0231-.2937.0496-.3274.2576-.0748.4625-.0139.9174.0335 1.375.1489 1.4391.3123 2.877.4333 4.3185.0554.6599.0133.6307.6824.5667 2.9938-.2864 5.9845-.6313 9.0003-.5761zm21.0268 4.5717c-.0347.3112.1777.352.3313.4469 1.3036.8056 2.6771 1.4993 3.9194 2.4014.5594.4062 1.1581.7788 1.5332 1.4012.1946.3228.1632.6061-.0246.9006-.1928.3024-.4578.3399-.7992.2814-.4178-.0716-.7984-.2216-1.1181-.4746-1.0177-.8051-2.144-1.4488-3.2041-2.1908-1.1155-.7808-2.2731-1.5028-3.4287-2.2243-.8686-.5423-1.7429-1.0945-2.7032-1.4534-1.5042-.5621-3.0773-.8987-4.6315-1.294-1.5531-.395-3.1047-.7819-4.6861-1.0683-1.3109-.2374-2.6259-.4377-3.9462-.5362-1.5367-.1146-3.0824-.1291-4.6291-.0526-.9856.0487-1.9749.063-2.9579.149-1.1549.1011-2.3101.2234-3.4561.3965-1.4687.2219-2.9908.3916-3.6364 2.0793-.0528.138-.23.2725-.1535.4077.09.1592.2707.0362.4169.014.2875-.0436.5698-.1747.8411-.1933 1.4449-.099 2.8741-.3453 4.3273-.388 1.0335-.0304 2.0703-.0387 3.1987-.0865-.221-.1247-.3555-.2268-.5071-.2804-.2617-.0925-.3966-.2767-.4038-.5346-.008-.286.253-.3394.4502-.4242.4937-.2121 1.019-.2807 1.5504-.2841 2.255-.0147 4.4933.1014 6.7115.5858 2.3677.5171 4.6528 1.2571 6.7836 2.4016 1.8629 1.0006 3.7236 2.0126 5.4758 3.2092 1.3832.9445 2.852 1.7521 4.3019 2.5885 1.3891.8014 2.7312 1.6902 4.2589 2.2302.4895.173.9417.1882 1.3275-.1918.9181-.9044 1.8215-1.8237 2.7353-2.7324.2059-.2047.1755-.3673-.0446-.5289-.3851-.2826-.7158-.6308-1.1271-.8848-1.0312-.6367-2.0383-1.313-3.077-1.9369-1.1411-.6851-2.3085-1.3253-3.6287-1.7332zm-23.0956-15.8963c-.0276-.5015-.1582-.961-.4064-1.3619-.3744-.6049-.3648-1.1547.148-1.6452.6167-.5899 1.2961-1.0837 2.0838-1.4502.3292-.1532.7319-.2064.9718-.6239.8735-1.5199 1.8-3.01 2.7358-4.4929.1706-.2704.1442-.3598-.122-.4767-.732-.3217-1.4766-.6207-2.1463-1.067-.1427-.0951-.287-.0795-.4418-.0752-2.0253.0562-4.0508.1819-6.072-.0992-.7481-.104-1.0334-.2954-1.2109-1.0122-.0689-.2781-.2305-.3144-.4438-.2672-.2158.0477-.429.121-.6322.2087-.4629.1997-.4769.3518-.0646.6462.861.6149 1.8723.8865 2.8533 1.2173 1.1381.3839 2.3345.4952 3.5144.6798.1913.0299.4602-.0093.4787.2687.0179.2691-.1894.4307-.4239.5137-.2245.0794-.4677.1051-.6939.1809-2.2224.7445-4.4664.7318-6.7216.1849-.2366-.0574-.2953.0196-.3572.213-.3442 1.0766-.86 2.0775-1.367 3.0828-.0785.1556-.1624.3126-.0411.5257.6754 1.1874 1.4531 2.3027 2.3083 3.3654.1088.1351.1488.2638.0642.4212-.4567.8509-.8732 1.727-1.3836 2.5444-.3247.52-.3762.9847-.1196 1.5155.0507-.0153.0923-.015.1116-.0356.1631-.1743.3102-.3654.4844-.5275 1.4411-1.3408 2.9529-2.5827 4.7867-3.3653.4521-.193 1.1401.0194 1.4734.394.174.1957.2357.5523.6335.5378zm53.5323-23.9526c-.1479-.3783.0959-.5675.3524-.7515 1.0783-.7736 2.2968-1.3332 3.3109-2.2087.8425-.7274 1.4529-1.581 1.6887-2.7164-.299.2146-.6359.1404-.9478.1997-.3603.0685-.4629-.1095-.3576-.457.0724-.2391.2557-.4416.2232-.7171-.0999-.8446-.0964-1.7178-.7701-2.3815-.094-.0926-.1889-.2316-.1687-.3928.522-.1717.5083-.1581.8652.2024.6427.6492.8469 1.4645.8737 2.3287.0142.4572.0992.5465.5112.3022.2504-.1485.5563-.1264.8146.0605.2613.1891.1318.411.0646.6424-.4364 1.5024-1.3488 2.6876-2.4639 3.7422-.6581.6224-1.3864 1.154-2.1252 1.6736-.1007.0708-.2687.1456-.1525.3169.1027.1513.2123.0026.3133-.0258 1.59-.4481 3.1188-1.0606 4.6047-1.7746 1.0618-.5102 1.8783-1.2022 2.0309-2.5151.2103-1.8094-.3845-3.3474-1.4948-4.677-1.925-2.3053-4.3633-3.851-7.3212-4.4831-.6939-.1483-1.4092-.359-2.2179-.2146.3599.3192.6574.5944.9669.8556 1.1892 1.0034 2.0525 2.2247 2.5021 3.7234.5913 1.971.3793 3.9209-.244 5.8312-.289.8858-.6944 1.7407-1.2419 2.5115-.3945.5553-.3966.5543.2656.9042.0286.0145.0663.012.1176.0207zm-49.6369 19.8213c.1745.26.2787.4988.3186.7422.2105 1.286.8053 2.3641 1.6953 3.3021.9308.9809 1.9863 1.5947 3.39 1.2017.356-.0997.6962-.2689 1.0295-.4347 1.7025-.8473 3.1944-1.9754 4.4876-3.3711.694-.7489 1.5327-1.3608 2.1482-2.1807.3121-.4157.584-.8476 1.1413-.9266.6912-.098 1.37-.2702 2.0748-.2924.7174-.0226 1.4331-.098 2.2056-.1543-.3142-.3607-.4617-.4698-.7772-.493-1.6182-.1187-3.2099.0585-4.7492.561-2.0557.671-4.044 1.5508-6.1881 1.9453-.9766.1797-1.9503.3316-2.9493.2765-1.2751-.0705-2.5514-.1184-3.8271-.176zm6.1647-22.7563c.108.138.2047.2752.3153.4001.2733.3087.532.4796 1.0076.2784.8426-.3565 1.6643-.7695 2.5466-1.0376.2561-.0778.4083-.3562.3694-.652-.0332-.2522-.0951-.5053-.18-.7453-.6631-1.8752-1.1985-3.7893-1.7366-5.7022-.206-.7324-.9979-1.0596-1.6045-.6068-.5606.4185-1.0047.9541-1.3756 1.548-.6117.9792-1.0276 2.0459-1.298 3.1587-.4062 1.6717-.4413 3.3312.3765 4.9199.1293.2512.2199.3638.5388.2008.702-.3588.7154-.3324.486-1.0564-.0256-.0807-.046-.1632-.0751-.2425-.3273-.8948-.3276-.8946.5754-1.207-.2227-.2806-.456-.5457-.652-.8359-.0763-.113-.1544-.3037.0111-.4179.1722-.1188.2507.0396.3659.1508.3468.3348.5883.797 1.1155.924.1737.0419.1969.2118.1854.3788-.0129.1873-.1127.2594-.2904.2936-.231.0444-.4709.0821-.6813.2505zm32.308-8.8331c-.139.0828-.24.1436-.3417.2033-1.254.7352-1.0556.7421-1.7769-.287-.0196-.028-.0384-.057-.0535-.0876-.1873-.379-.3464-.3313-.5527.0033-.5138.8332-1.154 1.5314-1.9671 2.1138-1.64 1.1749-3.4103 2.0595-5.3177 2.689-1.0238.3379-2.048.6749-3.074 1.0129.0613.1434.165.1338.2679.152.3815.0675.6863-.1662 1.0288-.2487 1.5219-.3667 3.0766-.3092 4.6227-.3841 1.284-.0622 2.5582-.2194 3.6572-.9865.6308-.4403 1.0811-1.0265 1.074-1.8138-.0067-.7372-.0378-.761.7318-.7794 1.5967-.0382 1.6264-.0637 1.7332-1.492.0011-.0158-.0104-.0324-.032-.0952zm-51.4183 36.2421c-1.0953 2.3836-1.8672 4.7077-2.5991 7.1513.5344-.2269.8567-.6377 1.3768-.5957.2753.0222.4387.0736.4108.4197-.022.2731-.1606.4631-.2747.6849-.3616.7026-.4814 1.482-.6302 2.2438-.1338.6852-.3306 1.3697-.3031 2.1572.4548-.3357.8505-.6233 1.2411-.9178.2199-.1658.4401-.1698.6633-.0216.2383.1583.0529.3286.0078.4959-.0156.0579-.0134.1207-.0203.191.6131-.0896.6362-.108.5408-.5113-.1517-.641-.2249-1.2932-.2686-1.9476-.1053-1.5802-.2245-3.1598-.2109-4.7459.003-.3511.1501-.5311.477-.6161.2537-.066.4998-.0694.7594-.0381.6569.0793 1.3114.0789 2.0684-.172-.3953-.1013-.6844-.1372-.9408-.2483-.77-.3336-1.5814-.5957-1.7136-1.6524-.074-.592-.3524-1.1583-.5841-1.877zm56.2357-29.6228c.8426.4033 1.4793 1.0811 2.2021 1.6447.7535.5875 1.7094.3162 1.9712-.5738.0625-.2124.1521-.4241.1699-.6409.0446-.5448.2454-1.0992-.0754-1.6316-.2732-.4533-.6748-.7637-1.1373-.9814-.3819-.1797-.5444.2568-.818.3865-.8844.4191-1.7467.8891-2.3125 1.7965zm-10.3625 15.9581c-2.1944-.4461-4.3201-.6779-6.4462-.9069-.1671-.018-.3092.0044-.3486.2036-.15.7577.3329 1.9288 1.1014 2.2544 1.0569.4479 2.1111.3107 3.1459.0459.9671-.2473 1.8394-.7258 2.5475-1.597zm-17.3922-15.9581c-.9945-1.2057-2.1258-2.1773-3.2562-3.1484-.1541-.1324-.3099-.0645-.4307.106-.5186.7315-.4605 2.1208-.0994 2.7565.3029.5333.5696 1.1609 1.3962.9334.779-.2144 1.5598-.4229 2.3901-.6475zm2.7127 43.6073c-.065-.406-.1271-.8923-.2163-1.3757-.0807-.4374-.3568-.6241-.6683-.7385-.337-.1237-.4899.2374-.6357.4593-.343.5217-.7055 1.0258-1.1111 1.4999-.2878.3364-.2459.6514.1236.8839.5474.3444 1.0965.6862 1.6502 1.0203.3815.2302.6581.1015.7228-.3521.0623-.4373.0866-.88.1348-1.3971zm-23.5715-27.409c-.1161.2207-.0553.2999.1922.3014.2703.0016.5398.0659.8106.0753.7812.0269 1.5629.0371 2.3441.0622.0966.0031.1796.0079.1855-.102.0065-.1213-.1059-.0939-.1817-.1196-.9102-.3086-1.8433-.5255-2.7905-.6772-.3316-.0532-.6786-.0574-.5602.4599zm63.1274 24.4515-.0174.038.0338.0005zm-7.996-35.4442c-.0101-.0094-.0199-.0258-.0303-.0261-.0103-.0003-.0212.0155-.0318.0242.0101.0094.0199.0258.0303.0261.0103.0003.0212-.0155.0318-.0242z" fill="#0c0c0c"/><path d="m76.887 137.3799c.1254-.3044.1533-.6294.1578-.9497.0175-1.2181.319-2.3986.4575-3.6004.044-.382.2084-.7202.4603-1.007 1.2071-1.3738 2.3891-2.7682 3.7453-4.0068.9618-.8783 2.1183-1.1732 3.3479-1.3742 2.1743-.3554 4.3439-.7409 6.5102-1.1422.7281-.1348 1.4586-.0726 2.1859-.1331.1844-.0154.3591-.0573.3853-.262.0303-.2376-.19-.285-.3441-.2979-1.2503-.1049-2.3362-.7384-3.5138-1.0736-1.5914-.4531-3.1773-.9279-4.7791-1.3408-.503-.1297-1.0288-.0056-1.5532.1263-1.6861.4239-3.3073 1.0666-5.0056 1.4463-.2962.0662-.354-.0064-.3611-.2828-.0219-.8538-.0608-1.7073-.1076-2.5601-.0116-.2109.0553-.3296.2589-.3626.6522-.1056 1.2127-.4518 1.8058-.7047.9133-.3893 1.8649-.6667 2.7882-1.0244 1.0401-.4028 2.0927-.1685 3.1402-.0341 2.255.2894 4.5127.5441 6.7913.5039 1.2015-.0212 2.3766-.2665 3.5572-.4599.1674-.0274.2953-.0961.3013-.2875.0063-.203-.1115-.319-.2939-.367-.0974-.0256-.2033-.0322-.3045-.0277-2.0346.0901-3.9431-.456-5.8601-1.0604-1.5634-.4929-3.0461-1.1776-4.5837-1.7268-.6404-.2288-1.25-.5451-1.8705-.8285-.7007-.32-1.4302-.3584-2.1948-.3568-1.225.0026-2.4555-.0432-3.6687-.2672-.2753-.0508-.3659-.1626-.2618-.4521.382-1.062.8582-2.0808 1.3502-3.0947.6691-1.3789 1.2977-2.7761 1.8054-4.225.1307-.373.1344-.7161.086-1.1227-.2257-1.8968-.5808-3.7968-.3968-5.7121.0553-.5759-.0773-1.0129-.3102-1.4806-.5024-1.0092-.6091-2.1288-.8798-3.2023-.2127-.8438-.3744-1.6983-.4346-2.569-.008-.1155-.0784-.2554.0425-.3309s.2232.0395.318.1067c1.0022.7108 2.0109 1.4128 2.9985 2.1434.2243.1659.4145.2555.6292.0679.2528-.221.0573-.4021-.0682-.6182-.3203-.5518-.6382-1.1126-.7442-1.8621 1.0543.4982 2.004 1.0106 2.9256 1.5777.5373.3306 1.0469.7088 1.6278.9647.259.1141.4441.3117.6318.5105.1336.1415.2783.2722.4859.1396.1929-.1232.1817-.3096.1271-.5009-.1657-.5805-.3227-1.1638-.5038-1.7394-.0543-.1726-.0748-.3287-.0186-.4969.7172.4071 1.206 1.048 1.6816 1.69 1.0759 1.4523 2.1224 2.9244 3.1033 4.4455.5879.9118 1.3403 1.6927 2.5371 1.7905l-.0063-.008c.0235.164-.0477.3055-.1243.4371-.5905 1.0153-.7804 2.1357-.9386 3.2805-.1285.9301.1564 1.7983.2386 2.6956.189 2.0625.8778 3.9423 2.1595 5.5692.9106 1.1559 1.8799 2.2682 2.8658 3.3613.7544.8365 1.0377 1.7784.9135 2.881-.0823.7305-.1144 1.4665-.18 2.1991-.0436.4867-.0097.9559.2269 1.3947-.8913-.1658-1.7459-.0025-2.5786.3063-.5164.1916-.9758.4665-1.3047.937-.1608.2299-.2804.4344-.0782.6839.2154.2657.4529.1484.6843.0191.779-.4352 2.0035.1412 2.016 1.035.0045.3193-.086.4405-.3297.5195-.5365.1739-1.0855.2906-1.6483.3485-1.7292.1778-3.4572.3405-5.1241.9029-2.0654.6968-3.8289 1.8592-5.2947 3.4408-1.2908 1.3929-2.3431 2.9702-3.0836 4.7312-.2699.6418-.58 1.2752-.6929 1.9745-.6825.3022-1.4262.3021-2.1443.4104-1.1278.1701-2.2651.2771-3.399.4055-.1256.0141-.277.0757-.3617-.093z" fill="#f39c44"/><path d="m82.7923 136.6568c.1129-.6993.423-1.3327.6929-1.9745.7405-1.7609 1.7928-3.3383 3.0836-4.7312 1.4658-1.5817 3.2294-2.744 5.2947-3.4408 1.6669-.5624 3.3948-.7251 5.1241-.9029.5628-.0579 1.1118-.1746 1.6483-.3485.2437-.079.3341-.2002.3297-.5195-.0126-.8938-1.237-1.4702-2.016-1.035-.2314.1293-.469.2466-.6843-.0191-.2023-.2496-.0826-.454.0782-.6839.3289-.4704.7883-.7454 1.3047-.937.8327-.3088 1.6873-.4721 2.5785-.3064.5754.3781 1.0912.3147 1.5819-.1745.3383-.3373.7805-.5099 1.232-.6448.3659-.1093.5651-.3096.5703-.7262.0067-.5412.1071-1.0768.2364-1.6046.4004-1.6345.5361-3.3091.7507-4.9717.1116-.746.3984-1.4672.1586-2.2568-.0784-.2581-.016-.598.2771-.8655.6297-.5746.5835-.8055-.104-1.3391-.2792-.2167-.5756-.4228-.8118-.6814-1.7133-1.8761-3.2115-3.9293-4.8246-5.8882-.4903-.5955-.8565-1.3284-1.6679-1.5897-.8045-.4748-1.6604-.8273-2.5599-1.0759l.0063.008c-.0748-.1503-.2349-.191-.3617-.2701-.1086-.0678-.2255-.1288-.1614-.2702.0673-.1483.2011-.0828.3109-.0445.2901.1011.5768.2125.8683.3094.8211.2731 1.6328.6064 2.5299.327.1592-.0496.3482-.0315.4191.1853.2601.7956.8696 1.3636 1.3559 2.0009 1.3609 1.7834 2.8045 3.501 4.437 5.0485.8093.7672 1.6119 1.5437 2.5954 2.0957.1654.2049.4008.3049.6336.3957.9916.3869 1.9858.7672 2.9835 1.138.1091.0405.2206.1926.3775.0455-.229-.8327-.7549-1.5321-1.0935-2.3183-.0719-.2963-.1317-.5961-.2176-.8883-.6207-2.1129-.9438-4.2586-.8063-6.4694.0291-.4681.2763-.9078.1719-1.3794-.2374-1.0728-.6489-2.0459-1.6495-2.6447-.1558-.0932-.2803-.1841-.2523-.3967.0216-.1635.1462-.19.2561-.2025.6088-.0693 1.1051-.4259 1.6506-.6503.4977-.2048.9069-.549 1.2327-1.0089.6269-.8848.8603-1.9419 1.332-2.8959 1.1088-2.2422 2.5468-4.2189 4.3641-5.932 1.1401-1.0748 2.4421-1.9069 3.815-2.6408.7501-.3113 1.2015-.9203 1.6067-1.5855 1.1462-1.8817 2.2895-3.7654 3.4608-5.6315.4166-.6637.916-1.275 1.3645-1.9194.0973-.1397.2048-.2841.3589-.1969.2238.1267.0114.2708-.0604.3727-.9956 1.4112-1.9039 2.8764-2.7436 4.3849-.7056 1.2674-1.4906 2.4986-2.0883 3.8149-.3246.7148-.8062 1.0966-1.4493 1.3939-.3418.158-.6773.3264-.9745.5618-.4029.13-.668.456-.986.7037-.6973.543-1.4177 1.0591-2.0344 1.7-1.6024 1.6653-2.8082 3.5908-3.7291 5.6999-.223.5107-.4269 1.0352-.4712 1.6612.5072-.3106.9951-.5596 1.4276-.8829 1.8278-1.3667 3.5596-2.8538 5.3074-4.3193.5648-.4736 1.1475-.9416 1.6079-1.5308.6056-.4765 1.0501-1.1016 1.5473-1.678.2217-.257.4408-.5162.6652-.7708.0864-.098.1871-.281.3184-.1814.1576.1196.0149.2809-.0747.4006-.4085.5456-.8057 1.101-1.2388 1.6267-.4986.6054-1.031 1.183-1.5476 1.7736-.0636.0728-.1689.1272-.1281.2538-.2045-.057-.2564.14-.3529.2335-1.7856 1.7309-3.706 3.3024-5.6838 4.8045-1.258.9554-2.2829 2.0821-2.8676 3.5777-.435 1.1126-.7173 2.2562-.9346 3.4319-.3346 1.8102-.2631 3.5849.2066 5.3515.3558 1.3382.8923 2.5951 1.6578 3.7593.1798.2734.2749.6223.2725 1.0011-.0045.7023-.1523 1.3808-.2542 2.0644-.1778 1.193-.4366 2.3705-.837 3.5153-.258.7377-.6495 1.4158-.9269 2.1374.1263.1019.2396.0802.3552.0377 1.227-.4507 2.455-.8986 3.6798-1.3553.1158-.0432.3193-.0946.2785-.2409-.1086-.3896.1901-.433.4059-.5844.9571-.6716 1.9174-1.3421 2.6899-2.2367 1.1115-1.0288 1.9362-2.2711 2.6723-3.5805.3173-.5644.6436-1.1238.9665-1.6852.0757-.1317.1522-.3219.3357-.2238.2089.1116.0349.2518-.0296.3822-.8138 1.645-1.591 3.3125-2.8142 4.7117-.5943.6798-1.201 1.3494-1.9257 1.8977-.0825.0624-.1741.1132-.1705.317.5392-.1667.9294-.5386 1.366-.816.2726-.1732.5176-.3927.762-.6063.1325-.1158.2869-.2884.4282-.1366.136.1461-.058.3192-.1649.4255-.8578.8528-1.7498 1.6629-2.8327 2.2342-1.631.8604-3.2735 1.6882-5.0666 2.1729-1.4754.3989-2.9536.7925-4.457 1.0623-2.0303.3643-3.788 1.2833-5.417 2.4995-.1561.1166-.3001.2676-.3319.4439-.3185 1.7665-1.6679 2.2667-3.158 2.4933-1.2154.1848-2.4241.4092-3.6406.5843-.4573-.0683-.8669.1518-1.2894.249-2.0906.481-3.8323 1.6054-5.2675 3.16-1.7198 1.863-3.1831 3.9106-4.005 6.3509-.2859.0302-.5724.0606-.8587.091zm21.7442-16.3734c.6672-.0665 1.3174-.0689 1.9365-.2087.789-.1782 1.6867-.1741 2.1914-1.0041.1941-.3193.4166-.6212.6223-.9336.8195-1.2451 1.2338-2.6534 1.6086-4.072.3502-1.3258.2779-1.459-.9256-2.1518-.1619-.0932-.333-.1744-.5076-.2406-.9225-.3498-1.8494-.6865-2.7067-1.1874-.4568-.2669-1.025-.0233-1.0185.5153.0071.5942-.1365 1.1534-.196 1.7288-.131 1.2655-.2703 2.5302-.5362 3.7793-.2627 1.232-.4665 2.4763-.4682 3.7748zm12.076-3.8778c-.0114.0108-.0339.0241-.0321.0321.0051.0234.0199.0447.0309.0668.0114-.0108.0338-.0239.0322-.0321-.0049-.0235-.0194-.045-.031-.0668z" fill="#0f100f"/><path d="m137.3309 60.6343c-1.932 1.4457-3.8994 2.8355-6.1905 3.671-.8343.3042-1.685.564-2.587.5998-.2271.009-.4382-.0258-.6495-.0898-1.9747-.5981-3.949-1.2002-5.993-1.5225-1.1467-.1808-2.2806-.0882-3.3991.2185-.1783.0489-.3615.1302-.5472.0232-.2586-.149-.3667-.4045-.1011-.565 1.2841-.7761 2.4359-1.7545 3.7984-2.4134 1.4579-.705 2.8235-1.6032 4.4193-2.0115.8842-.2263 1.7751-.3409 2.6848-.3075.2119.0078.4072-.0326.5978-.1116 2.4696-1.0232 4.7158-2.3906 6.6125-4.2957.4022 1.0183.571 2.0985.8125 3.1574.2422 1.0622.4091 2.1415.6155 3.212.0311.1605.0238.3022-.0734.4351z" fill="#0a0a0a"/><path d="m117.9914 23.1152c-2.8359.4494-5.6827.7644-8.5571.8574-.9215.0298-1.8397-.0478-2.7626.0129-.4854.0319-.8319-.4369-1.1788-.7441-.6395-.5663-1.3567-1.0193-2.0281-1.5335-.9156-.7011-1.9168-1.2968-2.7428-2.1123-.1581-.156-.3326-.2172-.5387-.2598-1.1726-.2422-2.314-.5989-3.4509-.9686-.1373-.0446-.4902-.0854-.2345-.3299.1733-.1656.1799-.6987.6572-.4219.3108.1803.5817.1956.8437-.1316.3405-.4253.7406-.8023 1.0923-1.2192.1879-.2227.3783-.2437.6347-.1554 1.1162.3846 2.0469 1.0937 2.9991 1.7503.8133.5609 1.5619 1.2162 2.3329 1.8375.2813.2267.5306.2651.9058.144 1.2295-.397 2.5197-.3958 3.7984-.4755 1.3326-.0831 2.6643-.051 3.9962-.0653 1.4727 1.2032 2.9393 2.4133 4.2332 3.815z" fill="#f29c45"/><path d="m134.1275 93.9208c-.5464-.1937-1.0651-.453-1.6212-.6296-.9422-.2991-1.8576-.2398-2.7654.0928-2.1524.7886-4.2452 1.7131-6.2968 2.7369-.885.4416-1.8083.8065-2.7158 1.2025-.2034.0888-.3426.04-.4529-.1787-.1088-.2157-.1331-.3478.0936-.5126 2.3305-1.6942 4.5877-3.4873 6.9588-5.1272.6565-.454 1.2995-.9345 1.9033-1.4554.3908-.3372.8097-.4664 1.3016-.4797 1.5571-.042 3.1028.0952 4.6463.2768.1016.0119.2042.0146.3063.0216-.3093 1.3991-.7167 2.765-1.3578 4.0526z" fill="#0a0a0a"/><path d="m130.1148 102.9368c-.7263-.4959-1.501-.9108-2.2545-1.359-.9894-.5885-1.9589-.4564-2.9639-.2432-2.2836.4844-4.5789.9229-6.7889 1.7056-.2298.0814-.592.248-.7149-.1096-.1059-.3082.0696-.5751.4149-.7155 2.2899-.931 4.4572-2.1357 6.7682-3.0232 1.0823-.4157 2.1453-.8845 3.2027-1.3613.8602-.3878 1.709-.2765 2.547.0083.6413.218 1.2567.5123 1.8838.7727-.0079.084.0064.1785-.0273.2505-.6459 1.3801-1.2791 2.7668-2.0671 4.0747z" fill="#0a0a0a"/><path d="m83.6515 136.5657c.8218-2.4402 2.2851-4.4879 4.005-6.3509 1.4352-1.5546 3.1769-2.679 5.2675-3.16.4225-.0972.8321-.3173 1.2894-.249-.6452.2898-1.2067.6913-1.7254 1.1766-.8235.7705-1.7822 1.3733-2.6042 2.1623-1.0894 1.0455-1.8474 2.2818-2.5025 3.6051-.3716.7506-.7064 1.5195-1.0577 2.2801-.8908.1785-1.7815.3571-2.6721.5358z" fill="#eee9df"/><path d="m111.304 124.5422c-.4192-.1917-.8361-.3884-1.2584-.5728-.1931-.0844-.3237-.1964-.2749-.4248.0467-.2191.2317-.2296.4028-.24.713-.0432 1.3777.2174 2.0655.3346.0467.0747.2594.1166.0609.242-.3371.2129-.6076.5259-.9959.661z" fill="#0f100f"/><path d="m138.0242 64.9958c-.2848.0235-.5696.0466-.8543.0706-.1953.0164-.3341-.0585-.3792-.2554-.0519-.2265.1191-.2916.2807-.3448.2877-.0947.5791-.178.8689-.2662.0278.2651.0559.5304.0839.7958z" fill="#0f100f"/><path d="m104.02 67.0643-.0026.0175c-.0119.2265-.0503.4555.0696.6681.0747 2.6446.4339 5.2554 1.0231 7.8389-.0427.0179-.0854.0357-.1281.0536-.4538-.4263-.9107-.8494-1.3608-1.2796-.7305-.6981-.9814-.6885-1.7331-.0328-1.9703 1.7189-3.9468 3.4308-5.937 5.1265-.6098.5195-1.1749 1.0835-1.7634 1.624-.0249-.027-.0497-.0539-.0746-.0809-.1056-.4976-.2909-.9797-.2832-1.4991.0046-.31-.1687-.3837-.438-.3136-.0992.0258-.2082.042-.292.0952-1.796 1.1414-3.6949 2.1114-5.4683 3.2914-.6175.4109-1.2652.7764-2.0088 1.2294.2426-.6908.5915-1.1822.8766-1.7049.0893-.1637.186-.3235.2747-.4876.1054-.1949.122-.3692-.0528-.5547-.169-.1794-.3141-.12-.5027-.0515-1.7275.6281-3.4585 1.2469-5.1889 1.8671-.1766.0633-.3575.1145-.5342.1776-1.1277.4025-1.1301.4042-1.6494-.6788-.2894-.6034-.6613-1.1514-1.078-1.6725-.1313-.1643-.2593-.3769-.4907-.2097-.2545.1839.0491.3016.1051.4462.4191 1.0827 1.093 2.0633 1.2437 3.255.0953.7535-.2599 1.254-.7709 1.7308-2.1659 2.0209-3.8832 4.3544-4.9014 7.162-.5224 1.4406-.5003 2.9047-.1811 4.3841.418 1.9374 1.2811 3.6612 2.5068 5.2032.479.6026 1.1048 1.0659 1.6836 1.5715.11.0961.2918.1878.2336.3603-.0521.1545-.2413.1706-.3903.2005-1.7617.3535-3.5343.5246-5.3379.4889-1.8728-.0371-3.7363-.1157-5.5881-.4106-1.629-.2594-3.2369-.607-4.8372-1.0107-1.1344-.2862-2.2683-.6357-3.4622-.6121-.5536.011-.735.2068-.4539.6847.9855 1.6757 1.4545 3.6709 3.1186 4.9861-.376.1702-.6838.0217-.9845.0009-3.0557-.2115-5.8706-1.1893-8.4726-2.7692-1.4329-.87-2.7626-1.8848-3.7164-3.309-.1032-.1542-.2357-.3027-.3869-.4073-.1749-.1211-.3946-.1942-.475.1185-.4065 1.5815-.8788 3.1604-.4102 4.8136.1148.4051.2834.7951.444 1.2383-.3963-.0265-.6988-.2182-1.0266-.334-1.3604-.4804-2.6142-1.1954-3.7505-2.0428-1.0582-.7891-1.838-1.9044-2.6204-2.9792-.374-.5138-.6843-1.0563-.8107-1.6953-.0398-.2012-.103-.4584-.3699-.5068-.2684-.0487-.3935.1735-.525.3455-1.129 1.4763-2.1609 3.0109-2.8437 4.8351-.4577-1.2431-.8074-2.4484-.8362-3.7262-.0196-.8687.0454-1.7244.3367-2.5592.1895-.543-.1643-.8914-.7142-.6871-.8597.3195-1.6876.7344-2.4481 1.2413-.6746.4496-1.2703 1.0177-1.8995 1.5351-.085.0699-.1341.2454-.2749.1437-.0541-.0391-.0468-.1902-.0366-.287.1803-1.7047.5496-3.3696 1.0604-5.0045.8346-2.6716 2.0065-5.2252 2.767-7.9228.7536-2.673 1.1223-5.3733.5856-8.1387-.0227-.1168-.066-.2295-.0934-.3456-.0647-.2742-.0645-.4426.3126-.5276 2.0428-.4605 4.114-.664 6.1992-.7132 2.3387-.0552 4.679-.0855 7.0181-.0653 1.5558.0134 3.1093.1538 4.6554.3444.3064.0378.6112.0748.9198.0414.2002.0307.4011.0584.6008.0928.3014.0519.4633-.0528.4378-.3775 1.4946.4922 2.895 1.1866 4.2483 1.9817 1.2342.7251 2.5087 1.3906 3.6927 2.1902 1.4847 1.0028 3.0364 1.8865 4.5781 2.7899 1.3954.8177 2.754 1.7053 4.2869 2.2699.4074.15.8211.2588 1.2417.2887.5362.0381.9653-.2284 1.3434-.6101 1.3298-1.3424 2.6773-2.6672 4.0084-4.0083.2116-.2132.493-.5201.1759-.7825-.2725-.2254-.5758-.0513-.7396.2826-.0437.089-.1357.1533-.1993.2338-.2534.3212-.4539.3696-.8294.0692-1.1436-.9151-2.3725-1.7113-3.6253-2.4778-1.0901-.6669-2.2068-1.2717-3.3476-1.8395-.0302-.015-.0534-.0561-.0826-.0591-1.1189-.1148-1.2462-.8498-1.2056-1.786.0398-.9169-.2608-1.6858-1.2144-2.0953-.8036-.345-1.4348-.1444-1.8741.6329-.2994.5297-.6871 1.0099-1.0399 1.509-.1087.1538-.2469.2168-.4422.132-1.3164-.572-2.7167-.8799-4.0847-1.2895-1.2702-.3803-2.5448-.7466-3.8119-1.1369-1.1649-.3589-1.9348-1.1148-2.1997-2.3259-.4607-2.1058-.1906-4.0952.8496-6.0081.3794-.6977.7461-1.2081 1.5595-1.4947 1.1845-.4173 2.0961-1.3152 2.9783-2.2024.8554-.8602 1.7009-1.7309 2.5755-2.5711.4975-.4779 1.1897-.6683 1.7428-1.0636 1.2407-.8865 2.6658-1.0336 4.1184-1.1099.2202-.0116.438-.0703.657-.1073.0216.2032.1608.35.2497.521-.1904.1413-.3569.3077-.1016.5136.2491.2009.511.4086.8019.5309 1.5.6302 2.6616 1.6946 3.7261 2.8778.3044.3384.557.7295.6989 1.1826.0937.2993.0387.4409-.2743.5507-1.4344.5033-2.9156.7546-4.4225.8951-.6408.0598-1.286.1047-1.9077.2974-.1772.0549-.318.1246-.2995.3453.0177.212.1233.3491.3287.4072 1.1053.313 2.2347.4197 3.3791.385 1.5672-.0476 3.1223-.2438 4.6651-.4949.5964-.0971.9328.1029 1.2612.5144.6101.7646 1.034 1.6268 1.3689 2.5386.2169.5905.1747.7195-.4452.8486-1.1854.2469-2.3808.4287-3.5958.4786-1.0279.0423-2.0536.1385-3.0806.2049-.1474.0095-.2913.0191-.3085.1947-.0359.3662.0017.7147.4196.8546.6292.2107 1.2555.4368 1.8965.6048 2.0953.5489 4.2128.9806 6.3843 1.0873.2562.0126.3859.1591.494.3791.3342.6797.1703 1.3627.0237 2.0402-.0325.1502-.1747.3035-.3066.4004-.4076.2994-.8553.5465-1.2498.8611-.6931.5528-1.6362.7901-2.0838 1.6567-.0909.176-.3279.3421-.1634.5331.1713.1987.4451.1386.6679.025.526-.2683 1.0853-.3865 1.6704-.3821.2194.0016.4454-.0051.4817-.2588.0305-.213-.0944-.3898-.3326-.4358-.1014-.0196-.2016-.0324-.2639-.1522.0524-.0582.0969-.1445.1671-.1802.802-.4072 1.5135-.9726 2.3396-1.3368.1207-.0532.2829-.0682.2484-.2627-.0902-.5077.1364-1.0082.0524-1.5079-.1031-.6134-.1978-1.2156-.6407-1.7377-.4663-.5496-1.0359-.5317-1.6445-.5551-1.6444-.0633-3.2688-.2931-4.8744-.6521-.1701-.038-.4525-.0462-.3922-.2922.0374-.1526.2688-.2624.4888-.2614.32.0015.6408-.0068.96-.0285 1.2907-.088 2.5917-.1206 3.8415-.498.7456-.2252.974-.8269.6817-1.5608-.4193-1.0528-1.1493-1.8842-1.8816-2.717 1.2353-.5339 2.5506-.8182 3.8264-1.2258-.1326.6594-.0802 1.3319-.0724 1.9921.0091.7687-.0683 1.5153-.2047 2.2645-.0289.1588-.0951.3618.1232.4459.1923.0741.374.0725.5769-.0577 1.6953-1.0887 3.431-2.1146 5.0824-3.2712 1.1863-.8308 2.3601-1.6795 3.5484-2.5075.8327-.5802 1.6471-1.1802 2.3746-1.8918.2342-.2291.4099-.1994.5873.1035.2052.3504.4564.6772.7149.9917.1678.2041.1543.3018-.0525.4848-1.5692 1.3894-3.2132 2.6985-4.6226 4.2617-1.6917 1.8763-3.3115 3.806-4.6479 5.9615-.5885.9491-1.2763 1.8367-1.8029 2.825-.2791.5239-.5244 1.0661-.7754 1.6045-.0969.208-.1636.477.0766.5884.1673.0777.3612-.0631.502-.2523 1.513-2.0327 3.3746-3.7108 5.3149-5.3268 2.7404-2.2824 5.8749-3.8869 9.0332-5.4622 1.4148-.7057 2.6899-1.608 3.8689-2.653.0989-.0877.1624-.2154.2424-.3247 1.3768.652 2.8412.7592 4.3315.6837.4061-.0206.7153.0177.6353.5465-.0078.0537.054.1178.0834.177z" fill="#efeae1"/><path d="m107.0648 109.3294c-.9834-.552-1.7861-1.3285-2.5954-2.0957-1.6325-1.5475-3.0761-3.265-4.437-5.0485-.4863-.6373-1.0958-1.2053-1.3559-2.0009-.0709-.2168-.2599-.2349-.4191-.1853-.8971.2794-1.7088-.0538-2.5299-.327-.2915-.0969-.5781-.2083-.8683-.3094-.1098-.0383-.2437-.1038-.3109.0445-.0642.1414.0528.2024.1614.2702.1268.0792.2869.1198.3617.2701-1.1968-.0978-1.9492-.8787-2.5371-1.7905-.9809-1.5211-2.0274-2.9932-3.1033-4.4455-.4755-.6419-.9643-1.2828-1.6816-1.69-.1853-.2846-.2322-.5914-.174-.9379 2.1072.4803 3.9443 1.4529 5.6519 2.7013.3991.2917.8161.5596 1.2318.8276.4639.299.7164.1784.8075-.3594.0469-.2768-.165-.6823.1166-.8053.2962-.1293.6231.1733.9297.2934 1.1768.4609 2.245 1.1457 3.3861 1.6834.7402.3487 1.4675.7277 2.1834 1.1242.5324.2949 1.0887.3921 1.6936.3732-.0151-.282-.2172-.364-.3938-.4522-1.7656-.8822-3.4346-1.9318-5.1206-2.9517-.9885-.598-2.0206-1.1049-3.0948-1.5292-.1934-.0764-.3755-.0592-.5443.0259-.2185.1102-.0879.3035-.0606.4559.0595.3332.1521.6615.0521 1.0641-.6957-.4088-1.4016-.7745-2.0552-1.2175-1.5628-1.0592-3.203-1.945-5.0381-2.4324-.2569-.0682-.4673-.2794-.7722-.2107-.2398.0541-.3366.1805-.2616.3983.3097.8999.4141 1.8453.6756 2.8489-.3586-.1943-.6636-.3284-.9352-.512-1.2421-.8391-2.5754-1.5192-3.8794-2.2505-.1034-.058-.2145-.1036-.3248-.1481-.3281-.1322-.5163-.0599-.5465.3321-.0395.5136-.0621 1.0144.3387 1.4077-.1506.1346-.2738.0937-.3663.0228-1.0709-.8195-2.2412-1.4618-3.4847-1.9759-.0211-.2515.1072-.4479.302-.5566.8727-.487 1.4387-1.3 2.0403-2.0355.7361-.9 1.7282-1.5044 2.483-2.3898.3572-.4191 1.2141-.4122 1.8446-.5983-.0912.1784-.1829.3567-.2736.5354-.095.1873-.168.364.0346.5433.1991.1763.3809.169.5946.0305.5818-.377 1.1783-.7284 1.8329-.9684-.1198.7093.053.9947.7453 1.2085.5875.1814 1.1487.125 1.6674-.2194.4549-.3021.898-.6227 1.3601-.9133.996-.6264 2.1026-1.0644 3.0462-1.7812.5046.1425.7252-.2447.9978-.5349.0623.7353.5753 1.0099 1.207.6332.2477-.1477.4821-.3214.7085-.5009 1.3063-1.0358 2.5772-2.1193 3.921-3.1036 1.2335-.9036 2.3212-1.9446 3.3301-3.0807.4777.2316.8338.6297 1.2624.9299.2354.1649.4542.3134.7447.3749.5379.1138.7682-.1001.6785-.6543-.1454-.8988-.2787-1.7996-.4172-2.6996 1.3576.4658 2.7554.8438 4.0175 1.5387 2.12 1.1674 4.3274 2.1948 5.9773 4.084 1.2146 1.3908 2.7482 2.4704 3.9933 3.8419-1.3728.7339-2.6748 1.566-3.8149 2.6408-1.8173 1.7132-3.2553 3.6898-4.3641 5.932-.4717.9539-.7051 2.0111-1.332 2.8959-.3259.4599-.735.8041-1.2327 1.0089-.5455.2244-1.0419.5811-1.6506.6503-.1099.0125-.2345.039-.2561.2025-.028.2126.0965.3035.2523.3967 1.0006.5989 1.4121 1.5719 1.6495 2.6447.1043.4716-.1428.9113-.1719 1.3794-.1375 2.2107.1857 4.3565.8063 6.4694.0858.2922.1457.592.2176.8883-.3444.1782-.6876.3587-1.0334.5341-.5964.3027-1.2458.1313-1.8678.2052zm-5.7845-20.8328c-.2269-.0918-.3422-.1205-.4382-.1801-.999-.6203-2.0579-1.1095-3.1723-1.484-1.1112-.3735-2.2392-.7461-3.4142-.7043-.917.0326-1.8397-.0166-2.7538.1011-.5742.0739-1.1485.1477-1.7208.234-.1644.0248-.3902.0599-.3873.2657.0037.2622.2492.1581.4004.1737.4312.0446.8476-.0885 1.2725-.1181 1.4548-.1013 2.8767.1222 4.2922.4331 2.0879.4586 3.9464 1.433 5.7456 2.537.5565.3415.792.2542.9512-.3718.1315-.5173.1937-1.0431.2246-1.5664.0244-.4136.1321-.4496.5165-.3705 1.4376.296 2.7352 1.0158 4.1585 1.3397 1.0643.2423 2.1357.2608 3.1705-.1448.2247-.0881.5831-.2087.4593-.5597-.1378-.3908-.4628-.1883-.7395-.1447-.666.105-1.3722.1705-1.9939-.0387-1.4804-.4983-2.8967-1.1831-4.4301-1.5345-.6614-.1516-1.3256-.2945-1.9788-.4766-.1808-.0504-.3446-.1915-.5112-.0299-.1861.1807-.1636.47-.0534.623.4307.5976.1845 1.2873.4022 2.0168z" fill="#efeae1"/><path d="m117.691 114.6295c-.7725.8946-1.7328 1.5651-2.6899 2.2367-.2158.1514-.5145.1948-.4059.5844.0408.1463-.1627.1978-.2785.2409-1.2248.4566-2.4528.9046-3.6798 1.3553-.1156.0425-.229.0642-.3552-.0377.2774-.7216.6689-1.3997.9269-2.1374.4003-1.1447.6591-2.3223.837-3.5153.1019-.6836.2497-1.3621.2542-2.0644.0025-.3787-.0927-.7276-.2725-1.0011-.7654-1.1642-1.302-2.4212-1.6578-3.7593-.4697-1.7667-.5412-3.5414-.2066-5.3515.2173-1.1757.4995-2.3193.9346-3.4319.5847-1.4955 1.6096-2.6223 2.8676-3.5777 1.9778-1.5021 3.8982-3.0737 5.6838-4.8045.0965-.0935.1484-.2905.3529-.2335-.2508.4492-.4687.9075-.5225 1.4323-.0147.1437-.0897.3034-.1859.4128-.5192.5905-.841 1.2947-1.1103 2.0126-.5046 1.3451-1.0837 2.6599-1.6001 3.9979-.9185 2.3798-.8536 4.8062-.1627 7.2475.509 1.7987 1.3061 3.4882 1.8972 5.2545.1524.4554.2808.915.36 1.388.0833.4972.0544.9693-.1462 1.4533-.3121.7526-.6881 1.4858-.8403 2.2981z" fill="#efeae1"/><path d="m96.0954 51.8044c-.0651-.6715.1292-1.4539.2449-2.2443.0312-.2128-.0151-.4233.1328-.6394.1372-.2004.0497-.37-.272-.3487-1.2863.085-2.5738.1935-3.8616.2028-1.6554.0119-3.3123-.0512-4.9591-.2532-.2186-.0268-.5042-.0548-.4955-.3394.0078-.2551.2687-.3162.4954-.3627 1.5532-.3186 3.0645-.7818 4.5697-1.2778 1.5274-.5034 3.0168-1.0816 4.4499-1.8158.7804-.3998 1.4737-.048 2.1217.4004.7598.5258.7753.7853.3722 2.0348-.4796 1.4866-.7701 3.0144-.9277 4.5745-.1633 1.6169-.1903 3.226-.0302 4.8414.0236.2384-.0581.4328-.337.4921-.296.063-.3232-.1582-.405-.3415-.3567-.7989-.7938-1.5648-.9209-2.4526-.1108-.7748-.2467-1.5458-.1776-2.4706z" fill="#0c0c0c"/><path d="m120.4598 87.708c-.4604.5892-1.0431 1.0573-1.6079 1.5308-1.7478 1.4655-3.4796 2.9526-5.3074 4.3193-.4324.3233-.9204.5723-1.4276.8829.0443-.626.2482-1.1505.4712-1.6612.9209-2.1091 2.1267-4.0346 3.7291-5.6999.6167-.6409 1.3371-1.157 2.0344-1.7.318-.2476.5831-.5737.986-.7037-.1441 1.2024.4973 2.114 1.1222 3.0318z" fill="#eee9df"/><path d="m105.8697 73.8246c-.345-1.3565-.5717-2.7401-.7126-4.1253-.2956-2.9055-.3587-5.8259-.3545-8.7466.002-1.3926.0004-2.7851.0004-4.1946.6677.3389 1.299.7944 1.8305 1.3874-.2126.1438-.1493.3661-.1498.5627-.0038 1.692-.0725 3.388.0207 5.0749.0745 1.3485-.0032 2.6969.092 4.0392.1224 1.7259.1655 3.4603.4752 5.1708.1245.6887-.4092 1.0435-1.2019.8315z" fill="#cb8135"/><path d="m107.612 58.6988c.1186-.6581-.2143-1.1984-.485-1.7418-1.1581-2.3246-1.8155-4.8175-2.4954-7.3043-.5011-1.8331-.7974-3.7042-1.0442-5.5842-.0362-.276-.1787-.4336-.3745-.6216-1.0165-.9759-2.3828-1.3876-3.489-2.212-.0872-.065-.2651-.0562-.2387-.2204.0217-.1348.1708-.1647.2747-.2024.5099-.1853 1.0164-.3923 1.574-.385-.0702.0401-.1403.0802-.201.1149.837.4869 1.7407.8297 2.6427 1.1737.8112.3094 1.2563.9095 1.2452 1.7514-.0221 1.6755.4418 3.268.7423 4.8882.3597 1.9393.6064 3.9009 1.1274 5.8087.324 1.1862.7045 2.353 1.1527 3.4996.0535.1368.6212.6528-.2117.5821-.2143-.0182-.0108.3605-.2195.4531z" fill="#cb8135"/><path d="m70.4315 46.2209c.276-.6824.5464-1.4495.8911-2.1816.6442-1.3679 1.4383-2.654 2.2435-3.9324.1886-.2994.4208-.523.7668-.6359 1.3982-.4561 2.8535-.626 4.2951-.8618.2385-.039.5266-.069.6751.2019.1642.2994-.0985.4265-.2796.5721-.8822.7093-1.7611 1.4229-2.6516 2.1217-1.8377 1.4421-3.5926 2.9703-5.0788 4.7858-.1155.1411-.2679.2752-.4317.3485-.2714.1215-.4613-.0433-.4299-.4183z" fill="#0c0c0c"/><path d="m49.7939 48.2806c.0749.4945-.0293.9054-.0873 1.3214-.0399.2861-.1884.4925-.452.5498-.3496.0759-.2776-.2696-.3538-.4435-.671-1.5323-1.6801-2.7523-3.1813-3.5415-.1519-.0798-.4602-.0483-.4116-.3629.0395-.2555.2021-.4362.4303-.5378.3368-.1499.6811-.2839 1.0268-.4124.3664-.1362.7395-.2541 1.1071-.387.5533-.2.8033-.1168 1.1048.3786.6203 1.0192.7633 1.6309.817 3.4353z" fill="#0c0c0c"/><path d="m66.046 41.4222c.6714-.0021 1.3201.4362 1.0631 1.2688-.6675 2.1621-2.0033 3.7035-4.1433 4.5159-.2511.0953-.4732.2645-.7162.3845-.2177.1075-.438.1256-.5594-.1394-.1158-.2527.1407-.3526.2661-.4154.9091-.455 1.5007-1.1967 1.945-2.0767.3123-.6185.5286-1.2884.3971-1.9698-.1283-.665.2718-.9582.7023-1.2095.3425-.1999.7629-.2664 1.0453-.3584z" fill="#0c0c0c"/><path d="m56.5053 44.354c-.0905-.5052.0261-.9391.0934-1.3748.1124-.7266.7224-.9807 1.2649-1.2943.0289-.0167.065-.0209.0979-.0308.2967-.0897.6176-.4467.8898-.1616.2767.2898.0555.6881-.0977 1.0086-.5386 1.1264-.5489 2.3117-.3804 3.5061.051.3613.2223.7163.4677 1.0084.1225.1458.2975.2755.1404.4791-.1348.1749-.3486.1495-.521.0797-.7023-.2843-1.2425-.7433-1.5658-1.4515-.2667-.5841-.4348-1.1806-.3892-1.7689z" fill="#0c0c0c"/><path d="m127.762 72.5753c-.1869.0052-.3159-.0691-.2798-.2349.0912-.4191.3389-.7737.5384-1.1457.0286-.0533.1912-.0673.2781-.0453.0594.015.1487.1434.1327.1882-.148.4142-.3002.8291-.5524 1.1951-.0226.0328-.0912.034-.117.0426z" fill="#0f100f"/><path d="m105.5557 55.5167c.1325.2825.2651.565.3976.8476-.0198.0147-.0395.0294-.0593.0441-.1969-.1858-.3938-.3716-.5908-.5574.1993-.0244.2607-.1531.2525-.3343z" fill="#cb8135"/><path d="m79.1028 65.8807c-1.2758.4076-2.5911.6919-3.8261 1.2261-.1444-.1658-.274-.3489-.4365-.4952-.5833-.5248-1.1721-.9343-2.0572-.6536-.5874.1862-1.2179.3251-1.8584.2898.1805-.1342.3649-.2223.5764-.2869 1.1585-.3536 1.5141-1.0844 1.0085-2.0829-.1821-.3596-.3962-.7111-.6918-1.0013-1.1529-1.1317-2.3464-2.213-3.7923-3.0441.3071-.1953.4334-.4861.5864-.731.595-.9525.6066-1.8532-.2978-2.6641-.7708-.6911-1.7259-1.0158-2.7362-1.152-.2062-.0278-.5847-.1701-.6376.0366-.0876.3424.3388.31.542.3855.7848.2916 1.5674.5701 2.2245 1.1176.5066.4221.6068 1.0506.2423 1.5835-.352.5146-.8504.7472-1.451.8042-.0889-.1709-.2281-.3178-.2497-.521.2864-.2827.6775-.5506.4158-1.0233-.2987-.5397-.7668-.8969-1.3951-.9885-1.7364-.2533-3.3998.0086-5.0732.5377-1.8845.5958-3.7043 1.3794-5.6314 1.8533-1.5964.3926-3.1884.499-4.8247.3672-.7939-.0639-1.5831-.1505-2.4086-.2257.5082-1.4098 1.1564-2.7165 2.0382-3.8984.5789-.7759 1.2048-1.5087 1.9171-2.1749.8508-.7957 1.8388-1.2176 2.983-1.2928.3048-.02.5301-.1383.7781-.3075 1.2517-.8543 2.4674-1.7688 3.9407-2.2474 1.2384-.4023 2.2042.1519 3.1188.8358 1.3902 1.0395 2.925 1.3997 4.6367 1.2152 1.2011-.1295 2.3355-.4367 3.4309-.9389.2685-.1231.6027-.0973.9029-.1588.2318-.0475.4854-.0795.589.1581.1144.2627.0399.5971-.1873.7427-1.2303.7883-2.5341 1.3702-4.0526 1.2184-.1686-.0169-.3386-.0283-.5079-.0282-.141.0001-.3312-.0649-.3359.1871-.0038.206.1592.2595.3051.287.6384.1205 1.2736.17 1.9293.0686.7427-.1149 1.4838-.3292 2.3596-.2237-.7425.5457-1.4751.8915-2.1886 1.2696-.1197.0634-.2408.1273-.35.2066-.0953.0693-.2103.1613-.1238.2951.0776.1202.1807.1387.3473.0896.7594-.2241 1.466-.5674 2.1526-.945.6342-.3489 1.3283-.5175 2.0002-.7511.3032-.1054.5797.0516.8544.2094.7958.4571 1.6155.825 2.5468.9797 1.2001.1993 2.3411.0258 3.4892-.2676 1.0192-.2604 1.908-.7532 2.6558-1.4876.1627-.1597.3435-.3329.3771-.5926.0142-.1095.0304-.2717.1931-.2402.1369.0265.2315.1423.2359.2991.0115.4049-.1174.7582-.3627 1.0827-.7704 1.0191-1.8849 1.5394-2.9975 2.0447-.6643.3016-1.3615.5366-2.0826.6868-.9355.1948-1.8596.0411-2.7899-.05-.8368-.0819-1.5914-.4802-2.4235-.5743-.6322-.0715-1.2539-.0712-1.8647.1223-.1844.0584-.3703.1454-.3291.3857.0406.2373.244.1985.4114.193 1.212-.0395 2.3606.279 3.508.6113 1.7773.5146 3.5716.7002 5.4061.3172 2.547-.5317 4.6779-1.8076 6.5339-3.59.3649-.3504.8416-.2547 1.2624-.2588.5912-.0058 1.1748.1546 1.7517.3056.3369.0882.4115.2779.3207.5886-.348 1.1911-.4268 2.4145-.3464 3.6413.0431.6574.1606 1.3203.3371 1.955.1236.4445.0999.6768-.3329.9443-1.5471.956-3.0444 1.9958-4.6692 2.8202-1.6571.8407-3.3307 1.6492-5.0033 2.4587-.2423.1173-.3964.3176-.5935.4765zm-15.9795-13.5142c-1.2862.0652-2.4398.6028-3.5118 1.3136-.8484.5625-1.6811 1.1437-2.5969 1.5958-.2444.1207-.7211.0906-.4403.6209.079.1492-.1515.1633-.238.197-.4111.1601-.8327.2881-1.278.3301-.1358.0128-.3449.017-.3156.2453.0271.2106.2143.1951.363.185.53-.0362 1.0423-.158 1.5498-.3162 1.4622-.4557 2.6995-1.3714 4.0848-1.9799.9482-.4165 1.9247-.7847 2.9692-.8673.2535-.02.5874-.0035.7148.3517.0691.1926.2498.226.4252.1907.1298-.0261.1743-.1469.1908-.2746.076-.5862-.1906-1.0814-.7028-1.3994-.3765-.2337-.7889-.1058-1.2142-.1927zm-3.2949-1.9436c-.4906-.0186-.9624.08-1.3925.3606-.4992.3257-.9368.7389-1.4697 1.0193-.0788.0415-.3017.1992-.1454.3088.3606.2529.0142.3226-.0907.4255-.1314.129-.3005.2204-.4566.323-.0938.0617-.1598.129-.1099.2506.063.1535.1807.1394.2967.0846.1692-.0799.3354-.1672.4976-.2607.9001-.519 1.7932-1.0506 2.7001-1.5574.437-.2442.8969-.3828 1.402-.1393.1566.0755.3994.2566.5272-.0203.1212-.2625-.1025-.4326-.3053-.5064-.4619-.1681-.9328-.3298-1.4535-.2883z" fill="#f29c45"/><path d="m45.4561 75.4571c-3.0158-.0545-6.0065.2904-9.0002.5767-.6691.064-.627.0932-.6824-.5667-.121-1.4415-.2844-2.8794-.4333-4.3185-.0473-.4576-.1082-.9125-.0335-1.375.0336-.208.0938-.2807.3274-.2576 1.2239.1212 2.4476.1462 3.672-.0328.2562-.0375.4953-.1113.7428-.1662.2693-.0597.4631-.1866.4648-.4573.0017-.2809-.2804-.3036-.4752-.3666-.9201-.2976-1.8434-.5857-2.7689-.8659-.3256-.0986-.4957-.1651-.155-.5063 1.2059-1.2076 2.6096-2.1326 4.1056-2.9221.6545-.3454.7838-.2752 1.275.3374.3659.4563.6716.9505.8601 1.5079.0966.2856.2876.3559.5593.2893.2543-.0624.4608-.1229.4479-.4803-.0428-1.1805-.1364-2.3504-.6351-3.4401-.1599-.3494-.1289-.6117.1467-.8631.2271-.2071.448-.4208.6732-.63.3331-.3093.7445-.4759 1.1614-.6318.2257.5029.8207.6837 1.0312 1.2132.2318.5829.5204 1.1431.774 1.7176.436.9876 1.2123 1.6665 2.0507 2.2933.1902.1423.3612.3102.5488.4562.1313.1022.1514.1987.0655.3473-.4974.86-.582 1.8318-.7122 2.7841-.1563 1.1432-.2908 2.2908-.388 3.4405-.1219 1.4394-1.7847 3.2341-3.6226 2.9168z" fill="#efeae1"/><path d="m66.4829 80.0295c1.3202.4079 2.4876 1.0481 3.6285 1.7334 1.0387.6239 2.0458 1.3002 3.077 1.9369.4114.254.7421.6022 1.1271.8848.2202.1616.2505.3242.0446.5289-.9138.9087-1.8172 1.828-2.7353 2.7324-.3858.38-.838.3649-1.3275.1918-1.5277-.54-2.8698-1.4289-4.2589-2.2302-1.4499-.8365-2.9187-1.644-4.3019-2.5885-1.7523-1.1965-3.613-2.2085-5.4758-3.2092-2.1307-1.1445-4.4158-1.8845-6.7836-2.4016-2.2182-.4844-4.4565-.6005-6.7115-.5858-.5314.0035-1.0567.072-1.5504.2841-.1972.0847-.4582.1381-.4502.4242.0072.2579.1421.4421.4038.5346.1516.0536.2862.1557.5071.2804-1.1283.0478-2.1651.0561-3.1987.0865-1.4532.0427-2.8824.2889-4.3273.388-.2713.0186-.5536.1497-.8411.1933-.1462.0222-.3269.1452-.4169-.014-.0765-.1352.1007-.2697.1535-.4077.6456-1.6876 2.1677-1.8574 3.6364-2.0793 1.146-.1731 2.3012-.2954 3.4561-.3965.983-.0861 1.9723-.1003 2.9579-.149 1.5467-.0764 3.0924-.062 4.6291.0526 1.3204.0984 2.6354.2988 3.9462.5362 1.5813.2863 3.133.6732 4.6861 1.0683 1.5542.3953 3.1274.7319 4.6315 1.294.9603.3589 1.8346.911 2.7032 1.4534 1.1556.7215 2.3132 1.4435 3.4287 2.2243 1.0601.742 2.1864 1.3857 3.2041 2.1908.3197.2529.7003.4029 1.1181.4746.3415.0585.6064.021.7992-.2814.1878-.2945.2192-.5777.0246-.9006-.3751-.6224-.9737-.995-1.5332-1.4012-1.2423-.9021-2.6158-1.5958-3.9194-2.4014-.1534-.0951-.3658-.1359-.3311-.4471z" fill="#722e2e"/><path d="m43.3873 64.1332c-.3977.0145-.4595-.3421-.6335-.5376-.3333-.3746-1.0212-.5869-1.4734-.394-1.8337.7826-3.3456 2.0245-4.7867 3.3653-.1742.1621-.3213.3531-.4844.5275-.0193.0206-.0609.0203-.1116.0356-.2567-.5308-.2051-.9955.1196-1.5155.5104-.8174.9268-1.6934 1.3836-2.5444.0845-.1575.0445-.2861-.0642-.4212-.8552-1.0627-1.6329-2.178-2.3083-3.3654-.1213-.2132-.0373-.3701.0411-.5257.5069-1.0053 1.0228-2.0062 1.367-3.0828.0618-.1933.1205-.2703.3572-.213 2.2552.5469 4.4992.5596 6.7216-.1849.2261-.0758.4693-.1015.6939-.1809.2345-.083.4418-.2446.4239-.5137-.0185-.2779-.2874-.2388-.4787-.2687-1.1799-.1846-2.3763-.296-3.5144-.6798-.9809-.3308-1.9923-.6025-2.8533-1.2173-.4123-.2944-.3983-.4465.0646-.6462.2033-.0877.4165-.161.6322-.2087.2133-.0472.375-.0109.4438.2672.1775.7168.4628.9082 1.2109 1.0122 2.0212.281 4.0468.1554 6.072.0992.1549-.0043.2992-.0199.4418.0752.6697.4462 1.4143.7453 2.1463 1.067.2661.117.2926.2063.122.4767-.9358 1.4829-1.8623 2.973-2.7358 4.4929-.2399.4175-.6426.4707-.9718.6239-.7877.3665-1.467.8603-2.0838 1.4502-.5127.4904-.5224 1.0403-.148 1.6452.2481.4008.3788.8602.4064 1.3617z" fill="#f29c45"/><path d="m96.9196 40.1806c-.0513-.0087-.089-.0061-.1174-.0211-.6622-.3499-.6601-.3489-.2656-.9042.5475-.7707.9529-1.6257 1.2419-2.5115.6233-1.9103.8353-3.8601.244-5.8312-.4496-1.4987-1.3129-2.72-2.5021-3.7234-.3095-.2611-.6071-.5364-.9669-.8556.8087-.1444 1.524.0663 2.2179.2146 2.9579.6321 5.3962 2.1779 7.3212 4.4831 1.1103 1.3296 1.7051 2.8676 1.4948 4.677-.1526 1.3129-.9691 2.0049-2.0309 2.5151-1.4858.714-3.0147 1.3265-4.6047 1.7746-.101.0285-.2106.1772-.3133.0258-.1162-.1712.0517-.2461.1525-.3169.7388-.5196 1.4671-1.0512 2.1252-1.6736 1.115-1.0546 2.0274-2.2398 2.4639-3.7422.0672-.2314.1967-.4533-.0646-.6424-.2583-.1869-.5642-.209-.8146-.0605-.412.2444-.497.155-.5112-.3022-.0268-.8642-.2311-1.6795-.8737-2.3287-.3569-.3605-.3432-.3741-.8652-.2024-.0203.1612.0746.3002.1687.3928.6736.6637.6702 1.5369.7701 2.3815.0326.2754-.1507.478-.2232.7171-.1053.3476-.0027.5255.3576.457.312-.0593.6488.0149.9478-.1997-.2358 1.1354-.8462 1.989-1.6887 2.7164-1.0141.8755-2.2326 1.4351-3.3109 2.2087-.2567.1844-.5005.3735-.3526.7519z" fill="#eee9df"/><path d="m47.2827 60.0019c1.2757.0576 2.552.1055 3.827.1759.999.0551 1.9727-.0968 2.9493-.2765 2.1441-.3945 4.1324-1.2743 6.1881-1.9453 1.5393-.5025 3.131-.6797 4.7492-.561.3155.0231.463.1323.7772.493-.7725.0564-1.4882.1317-2.2056.1543-.7047.0222-1.3836.1943-2.0748.2924-.5572.079-.8292.511-1.1413.9266-.6155.8199-1.4543 1.4318-2.1482 2.1807-1.2932 1.3957-2.7852 2.5238-4.4876 3.3711-.3332.1659-.6735.335-1.0295.4347-1.4036.3931-2.4592-.2207-3.39-1.2017-.89-.938-1.4848-2.0161-1.6953-3.3021-.0397-.2433-.144-.4821-.3185-.7421z" fill="#f0ab98"/><path d="m53.4474 37.2456c.2104-.1684.4503-.2061.6813-.2506.1777-.0343.2775-.1063.2904-.2936.0115-.167-.0117-.3369-.1854-.3788-.5273-.1271-.7688-.5892-1.1155-.924-.1152-.1112-.1936-.2695-.3659-.1508-.1655.1141-.0874.3049-.0111.4179.196.2903.4293.5554.652.8359-.903.3123-.9027.3122-.5754 1.207.029.0794.0495.1618.0751.2425.2294.724.216.6976-.486 1.0564-.3189.163-.4094.0504-.5388-.2008-.8178-1.5887-.7827-3.2481-.3765-4.9199.2704-1.1128.6863-2.1794 1.298-3.1587.3709-.5939.8151-1.1295 1.3756-1.548.6066-.4528 1.3985-.1256 1.6045.6068.538 1.9129 1.0735 3.827 1.7366 5.7022.0849.2401.1468.4931.18.7453.0389.2958-.1134.5741-.3694.652-.8823.2681-1.704.6811-2.5466 1.0376-.4756.2012-.7344.0303-1.0076-.2784-.1107-.1248-.2074-.2621-.3153-.4z" fill="#eee9df"/><path d="m85.7554 28.4125c.0216.0628.0331.0794.0319.0951-.1068 1.4283-.1365 1.4538-1.7332 1.492-.7695.0184-.7385.0423-.7318.7794.0072.7873-.4431 1.3735-1.074 1.8138-1.0989.7671-2.3732.9243-3.6572.9865-1.5461.0749-3.1008.0174-4.6227.3841-.3425.0825-.6472.3162-1.0288.2487-.1029-.0182-.2066-.0086-.2679-.152 1.026-.338 2.0501-.675 3.074-1.0129 1.9074-.6296 3.6777-1.5142 5.3177-2.689.8131-.5824 1.4533-1.2806 1.9671-2.1138.2063-.3346.3655-.3823.5527-.0033.0151.0306.0339.0596.0535.0876.7213 1.0291.5229 1.0222 1.7769.287.1019-.0596.2028-.1205.3418-.2032z" fill="#f29c45"/><path d="m34.3371 64.6546c.2318.7188.5101 1.285.5842 1.8769.1322 1.0567.9436 1.3188 1.7136 1.6524.2564.1111.5455.147.9408.2483-.757.251-1.4115.2513-2.0684.172-.2596-.0313-.5057-.0279-.7594.0381-.3269.085-.474.2649-.477.6161-.0136 1.5861.1056 3.1657.2109 4.7459.0436.6544.1169 1.3066.2686 1.9476.0954.4033.0724.4217-.5408.5113.0069-.0704.0047-.1331.0203-.191.0452-.1673.2305-.3376-.0078-.4959-.2232-.1482-.4435-.1442-.6633.0216-.3906.2945-.7863.5821-1.2411.9178-.0275-.7875.1692-1.472.3031-2.1572.1488-.7618.2686-1.5412.6302-2.2438.1142-.2218.2528-.4118.2747-.6849.0279-.3461-.1355-.3975-.4108-.4197-.5202-.042-.8425.3689-1.3768.5957.7317-2.4436 1.5037-4.7676 2.599-7.1512z" fill="#f29c45"/><path d="m84.4342 84.2176c-.6305.1861-1.4873.1793-1.8446.5983-.7548.8854-1.7468 1.4898-2.483 2.3898-.6016.7355-1.1676 1.5485-2.0403 2.0355-.1948.1087-.323.305-.302.5566-.4038-.1358-.8006-.3018-1.2136-.3974-.305-.0706-.2772-.1552-.1225-.3609.8299-1.1033 1.727-2.1463 2.6854-3.1412.2933-.3044.5637-.6739.5831-1.1446.0055-.134-.0012-.2638.1715-.3302 1.4442-.5555 2.9173-1.0215 4.4067-1.4378.2547-.0712.5077-.1487.8421-.247-.2488.539-.4658 1.0089-.6828 1.4789z" fill="#c6beb3"/><path d="m103.6061 76.066c-1.0089 1.1362-2.0966 2.1772-3.3301 3.0807-1.3438.9843-2.6147 2.0679-3.921 3.1036-.2264.1795-.4608.3532-.7085.5009-.6316.3766-1.1447.102-1.2069-.6332 2.4313-2.0598 4.8625-4.1196 7.2944-6.1787.0651-.0551.1374-.1015.2053-.1533.872-.6648.943-.6529 1.6668.28z" fill="#c6beb3"/><path d="m93.4417 82.6529c-.9436.7168-2.0502 1.1548-3.0462 1.7812-.4621.2906-.9051.6112-1.3601.9133-.5187.3445-1.0799.4008-1.6674.2194-.6923-.2138-.865-.4992-.7453-1.2085 1.9917-.9816 3.9886-1.9529 5.9697-2.9555.3064-.1551.412-.0829.5013.1852.1181.3543.2322.7099.348 1.0649z" fill="#c6beb3"/><path d="m90.5728 35.0318c.5658-.9074 1.4281-1.3774 2.3125-1.7965.2735-.1297.4361-.5662.818-.3865.4625.2176.8641.528 1.1373.9814.3208.5325.1201 1.0869.0754 1.6316-.0178.2169-.1074.4285-.1699.6409-.2618.8899-1.2177 1.1613-1.9712.5738-.7228-.5636-1.3595-1.2414-2.2021-1.6447z" fill="#fbfbfb"/><path d="m80.2103 50.9899c-.7081.8712-1.5804 1.3497-2.5474 1.5971-1.0348.2647-2.089.402-3.1459-.0459-.7685-.3257-1.2514-1.4967-1.1014-2.2544.0394-.1991.1815-.2216.3486-.2036 2.126.2289 4.2517.4607 6.4461.9068zm-5.0554.8129c.4697.0262.6351-.2456.6664-.5845.0529-.5724-.197-.8075-.788-.8084-.4526-.0007-.7952.2893-.7982.6756-.0032.4192.3843.7047.9198.7173z" fill="#d5e1a0"/><path d="m62.8181 35.0318c-.8303.2247-1.6111.4331-2.3902.6475-.8266.2274-1.0933-.4001-1.3962-.9334-.361-.6357-.4192-2.025.0994-2.7565.1209-.1705.2766-.2384.4307-.106 1.1305.971 2.2618 1.9427 3.2563 3.1484z" fill="#fbfbfb"/><path d="m65.5308 78.6391c-.0482.5171-.0724.9598-.1348 1.3971-.0647.4536-.3413.5822-.7228.3521-.5537-.3341-1.1028-.6759-1.6502-1.0203-.3695-.2325-.4113-.5475-.1236-.8839.4056-.4741.7682-.9782 1.1111-1.4999.1458-.2218.2987-.583.6357-.4593.3115.1143.5876.301.6683.7385.0892.4834.1513.9697.2163 1.3757z" fill="#fbfbfb"/><path d="m52.888 79.28c.0254.3246-.1364.4293-.4378.3775-.1997-.0344-.4006-.0621-.6008-.0928.0963-.2503-.1061-.2835-.2571-.3469-.7782-.3264-1.6003-.4735-2.432-.5608-1.9737-.2073-3.9494-.3964-5.9235-.6006-.4363-.0451-.8894.0271-1.318-.2676.5922-.0465 1.1851-.1389 1.7765-.1302 1.3598.0199 2.7225.0824 4.0661.296 1.748.2779 3.4655.6987 5.1266 1.3254z" fill="#f0ab98"/><path d="m41.9593 51.2301c-.1184-.5173.2286-.5131.5603-.4599.9472.1517 1.8803.3686 2.7905.6772.0758.0257.1882-.0018.1817.1196-.0059.1099-.0889.1051-.1855.102-.7812-.0251-1.563-.0353-2.3441-.0622-.2708-.0093-.5403-.0737-.8106-.0753-.2475-.0015-.3083-.0807-.1923-.3014z" fill="#d5e1a0"/><path d="m104.0869 67.7499c-.1199-.2126-.0815-.4417-.0696-.6681.1741.2069.0809.4417.0696.6681z" fill="#f39c44"/><path d="m94.1876 81.0805c-.0439.0346-.0905.045-.1229-.0083-.0064-.0105.0311-.0477.0483-.0726.0249.0269.0498.0539.0746.0809z" fill="#efeae1"/><path d="m105.0867 75.6816.0163.0385-.0337-.0005z" fill="#efeae1"/><path d="m97.0907 40.2374c-.0106.0087-.0215.0245-.0318.0242-.0104-.0003-.0202-.0168-.0303-.0261.0106-.0087.0215-.0245.0318-.0242.0104.0003.0203.0168.0303.0261z" fill="#eee9df"/><path d="m95.0652 99.9395c.8996.2486 1.7554.6011 2.5599 1.0759-.0073.2023.1193.3483.2052.5149.2269.4402.6135.7951.7386 1.2841.3777 1.4766.9193 2.8975 1.4474 4.3224.6978 1.8829 1.5565 3.6938 2.6769 5.3611.4304.6405.9472 1.3022 1.9045 1.1382-.2146 1.6626-.3503 3.3372-.7507 4.9717-.1293.5278-.2296 1.0634-.2364 1.6046-.0052.4165-.2044.6169-.5703.7262-.4515.1349-.8937.3075-1.232.6448-.4907.4892-1.0065.5526-1.5819.1745-.2364-.4387-.2703-.908-.2267-1.3947.0656-.7326.0977-1.4686.18-2.1991.1241-1.1026-.1591-2.0445-.9135-2.881-.9859-1.0931-1.9551-2.2055-2.8658-3.3613-1.2818-1.6269-1.9706-3.5067-2.1595-5.5692-.0822-.8973-.3671-1.7655-.2386-2.6956.1581-1.1447.3481-2.2652.9386-3.2805.0766-.1315.1478-.273.1243-.437z" fill="#efeae1"/><path d="m104.5365 120.2834c.0017-1.2984.2056-2.5428.468-3.7749.266-1.2491.4053-2.5137.5362-3.7793.0595-.5754.2032-1.1346.196-1.7288-.0065-.5386.5617-.7822 1.0185-.5153.8573.5009 1.7842.8376 2.7067 1.1874.1746.0662.3458.1475.5076.2406 1.2035.6928 1.2758.826.9256 2.1518-.3748 1.4186-.7891 2.827-1.6086 4.072-.2056.3124-.4281.6143-.6223.9336-.5047.83-1.4024.826-2.1914 1.0041-.619.1398-1.2691.1422-1.9363.2088z" fill="#fbfbfb"/><path d="m104.5977 113.6361c-.9573.164-1.4741-.4977-1.9045-1.1382-1.1204-1.6672-1.9791-3.4782-2.6769-5.3611-.5281-1.4249-1.0697-2.8458-1.4474-4.3224-.1251-.489-.5118-.8439-.7386-1.2841-.0859-.1667-.2125-.3126-.2052-.5149.8115.2612 1.1776.9942 1.6679 1.5897 1.613 1.9589 3.1112 4.0121 4.8246 5.8882.2362.2587.5326.4647.8118.6814.6875.5336.7338.7645.104 1.3391-.2931.2675-.3555.6073-.2771.8655.2398.7896-.0469 1.5108-.1586 2.2568z" fill="#c6beb3"/><path d="m107.0648 109.3294c.622-.0739 1.2714.0976 1.8677-.2049.3458-.1754.689-.3559 1.0334-.5341.3386.7862.8645 1.4856 1.0935 2.3183-.1569.1471-.2685-.0049-.3775-.0455-.9977-.3708-1.9919-.7512-2.9835-1.138-.2327-.0909-.4681-.1909-.6336-.3958z" fill="#c6beb3"/><path d="m116.6129 116.4054c.0112.022.0257.0436.0305.067.0017.0082-.0208.0213-.0322.0321-.011-.0221-.0257-.0434-.0309-.0668-.0017-.008.0208-.0212.0326-.0323z" fill="#f39c44"/><g fill="#0f100f"><path d="m66.4979 59.2129c.6006-.057 1.0991-.2896 1.451-.8042.3645-.5329.2644-1.1614-.2423-1.5835-.6572-.5475-1.4397-.826-2.2245-1.1176-.2032-.0755-.6296-.0431-.542-.3855.0529-.2067.4314-.0644.6376-.0366 1.0103.1362 1.9654.461 2.7362 1.152.9044.8109.8928 1.7116.2978 2.6641-.153.2449-.2793.5357-.5864.731 1.4459.8311 2.6395 1.9124 3.7923 3.0441.2956.2902.5098.6417.6918 1.0013.5056.9985.15 1.7293-1.0085 2.0829-.2115.0645-.3958.1527-.5764.2869.6405.0353 1.271-.1035 1.8584-.2898.8851-.2806 1.4739.1288 2.0572.6536.1626.1463.2922.3293.4365.4952.732.8324 1.462 1.6638 1.8813 2.7166.2923.7339.0638 1.3356-.6817 1.5608-1.2499.3775-2.5509.4101-3.8415.498-.3192.0218-.64.03-.96.0285-.22-.001-.4514.1088-.4888.2614-.0603.246.2221.2542.3922.2922 1.6055.359 3.2299.5888 4.8744.6521.6086.0234 1.1783.0055 1.6445.5551.4429.5221.5376 1.1243.6407 1.7377.084.4997-.1425 1.0002-.0524 1.5079.0345.1945-.1277.2095-.2484.2627-.8261.3641-1.5376.9296-2.3396 1.3368-.0702.0357-.1147.122-.1671.1802.0623.1198.1625.1326.2639.1522.2381.046.363.2228.3326.4358-.0363.2537-.2624.2605-.4817.2588-.5851-.0044-1.1444.1139-1.6704.3821-.2228.1136-.4966.1738-.6679-.025-.1645-.1909.0724-.357.1634-.5331.4476-.8666 1.3907-1.1039 2.0838-1.6567.3945-.3146.8421-.5617 1.2498-.8611.132-.097.2742-.2502.3066-.4004.1465-.6775.3104-1.3605-.0237-2.0402-.1081-.22-.2379-.3665-.494-.3791-2.1715-.1067-4.289-.5384-6.3843-1.0873-.641-.1679-1.2673-.394-1.8965-.6048-.4178-.1399-.4555-.4884-.4196-.8546.0172-.1756.1611-.1852.3085-.1947 1.027-.0664 2.0527-.1626 3.0806-.2049 1.215-.05 2.4104-.2318 3.5958-.4786.6198-.1291.6621-.2581.4452-.8486-.3349-.9118-.7588-1.774-1.3689-2.5386-.3284-.4115-.6647-.6115-1.2612-.5144-1.5427.2511-3.0979.4473-4.6651.4949-1.1444.0347-2.2738-.0721-3.3791-.385-.2053-.0581-.311-.1952-.3287-.4072-.0184-.2207.1223-.2904.2995-.3453.6217-.1927 1.2669-.2376 1.9077-.2974 1.5069-.1406 2.9881-.3918 4.4225-.8951.3131-.1099.3681-.2514.2743-.5507-.1419-.4531-.3945-.8442-.6989-1.1826-1.0645-1.1833-2.2261-2.2476-3.7261-2.8778-.2909-.1222-.5529-.33-.8019-.5309-.2555-.2059-.0889-.3724.1015-.5136z"/><path d="m101.2803 88.4966c-.2177-.7295.0285-1.4192-.4023-2.0171-.1102-.1529-.1327-.4423.0534-.623.1665-.1617.3304-.0205.5112.0299.6531.1821 1.3173.3251 1.9788.4766 1.5334.3514 2.9497 1.0362 4.4301 1.5345.6217.2093 1.328.1437 1.9939.0387.2767-.0436.6017-.2461.7395.1447.1238.3511-.2346.4716-.4593.5597-1.0347.4056-2.1062.3871-3.1705.1448-1.4232-.324-2.7209-1.0437-4.1585-1.3397-.3844-.0791-.4921-.0431-.5165.3705-.0309.5233-.0931 1.0491-.2246 1.5664-.1592.626-.3947.7133-.9512.3718-1.7992-1.104-3.6577-2.0783-5.7456-2.537-1.4155-.3109-2.8373-.5344-4.2922-.4331-.4249.0296-.8413.1627-1.2725.1181-.1512-.0156-.3967.0885-.4004-.1737-.0029-.2059.2229-.241.3873-.2657.5724-.0863 1.1467-.1601 1.7208-.234.9141-.1177 1.8368-.0685 2.7538-.1011 1.175-.0418 2.303.3309 3.4142.7043 1.1144.3745 2.1733.8637 3.1723 1.484.0961.06.2114.0886.4383.1804z"/><path d="m63.1233 52.3665c.4253.0869.8377-.041 1.2143.1927.5123.318.7788.8132.7028 1.3994-.0166.1277-.0611.2484-.1908.2746-.1754.0353-.3561.0019-.4252-.1907-.1274-.3552-.4613-.3717-.7148-.3517-1.0445.0825-2.021.4507-2.9692.8673-1.3853.6085-2.6226 1.5241-4.0848 1.9799-.5075.1582-1.0198.28-1.5498.3162-.1487.0102-.3359.0256-.363-.185-.0294-.2282.1797-.2324.3156-.2453.4453-.042.8669-.17 1.278-.3301.0865-.0337.3169-.0478.238-.197-.2808-.5302.1959-.5002.4403-.6209.9157-.4521 1.7485-1.0333 2.5969-1.5958 1.0719-.7107 2.2255-1.2484 3.5117-1.3136zm-2.7222 1.6067c-.1664.0095-.3056.0744-.4134.2032-.0537.0259-.1073.0519-.161.0778.0134.019.0269.038.0403.057.0411-.044.0821-.0881.1232-.1321.1614-.0203.3668.0452.4083-.2092.076-.0141.1519-.0282.2279-.0423-.0088-.0135-.0148-.0353-.0268-.0393-.0898-.0297-.1536.0067-.1985.0849zm.7218-.1934c.1963-.0766.3926-.1531.589-.2297-.3137-.1078-.5853-.1175-.7006.2453.045.0513.0804.0331.1116-.0156zm.7997-.3582c.0305-.0021.0611-.0042.0916-.0065 0 0 .0006-.0024.0008-.0037-.0308-.003-.0616-.006-.0925-.009 0 .0063 0 .0126.0001.0192z"/><path d="m59.8284 50.4229c.5206-.0415.9916.1202 1.4535.2883.2028.0738.4265.244.3053.5064-.1278.2769-.3706.0958-.5272.0203-.5051-.2435-.965-.105-1.402.1393-.9069.5068-1.7999 1.0384-2.7001 1.5574-.1621.0935-.3284.1808-.4976.2607-.116.0548-.2337.069-.2967-.0846-.0499-.1217.0161-.1889.1099-.2506.1561-.1026.3252-.1941.4566-.323.1049-.1029.4513-.1726.0907-.4255-.1563-.1096.0666-.2673.1454-.3088.5329-.2804.9705-.6936 1.4697-1.0193.4301-.2806.9019-.3792 1.3925-.3606z"/><path d="m75.1549 51.8028c-.5355-.0126-.923-.2981-.9198-.7173.0029-.3863.3456-.6763.7982-.6756.5911.0009.8409.2359.788.8084-.0313.3389-.1966.6107-.6664.5845z"/></g><path d="m61.0112 53.7954c.1153-.3628.3869-.3531.7006-.2453-.1963.0766-.3927.1531-.5889.2296-.0372.0053-.0744.0105-.1117.0157z" fill="#cb8135"/><path d="m60.3985 53.97c-.0415.2544-.2468.1889-.4082.2092l-.0025-.0028c.1078-.1288.247-.1937.4134-.2032z" fill="#722e2e"/><path d="m61.9226 53.4214c0-.0065 0-.0128 0-.0191.0308.003.0616.006.0925.009-.0003.0013-.0005.0037-.0005.0037-.031.0024-.0615.0045-.092.0064z" fill="#cb8135"/><path d="m60.4011 53.9732c.0449-.0782.1087-.1146.1985-.0848.012.004.018.0258.0268.0393-.076.0141-.1519.0282-.2279.0423z" fill="#722e2e"/><path d="m59.9902 54.1792c-.0411.044-.0821.0881-.1232.1321-.0134-.019-.0269-.038-.0403-.057.0537-.0259.1073-.0519.161-.0778z" fill="#722e2e"/><path d="m61.0112 53.7954c.0373-.0052.0745-.0105.1117-.0157-.0312.0488-.0666.067-.1117.0157z" fill="#722e2e"/></svg>