<svg enable-background="new 0 0 141.832 141.7791" viewBox="0 0 141.832 141.7791" xmlns="http://www.w3.org/2000/svg"><path d="m141.4095 71.0818c-.1995-19.4912-6.6279-35.9517-19.6592-49.5942-13.0298-13.6409-29.1715-21.0303-48.0367-21.8426-20.2069-.8702-37.8567 5.7411-52.4454 19.7602-13.5329 13.0045-20.8273 29.1033-21.6178 47.8733-.8512 20.2104 5.7766 37.8496 19.8071 52.4268 13.0026 13.5093 29.0918 20.7848 47.8411 21.5715 20.21.848 37.8638-5.7667 52.4201-19.8188 14.3542-13.8568 21.4104-31.0161 21.6908-50.3762z" fill="#fff"/><path d="m141.4095 71.0818c-.2803 19.3601-7.3366 36.5194-21.6906 50.3763-14.5564 14.0521-32.2101 20.6668-52.4201 19.8188-18.7493-.7867-34.8385-8.0623-47.8411-21.5715-14.0307-14.5773-20.6584-32.2164-19.8073-52.4269.7905-18.77 8.0849-34.8688 21.6178-47.8733 14.5887-14.0191 32.2385-20.6304 52.4454-19.7602 18.8652.8123 35.0069 8.2017 48.0366 21.8426 13.0314 13.6425 19.4597 30.103 19.6593 49.5942zm-118.2223-47.9734c-.2326.0517-.3752.2283-.5324.3843-1.8675 1.8536-3.6175 3.811-5.2636 5.8649-2.7212 3.3952-5.0539 7.039-7.0589 10.8961-1.2149 2.3371-2.2497 4.7562-3.1773 7.2184-.347.9212-.7226 1.8437-.8738 2.8299-.4352.6093-.4849 1.3514-.7012 2.036-.5983 2.0928-1.0767 4.2125-1.4592 6.3554-.3011 1.6872-.528 3.3838-.7064 5.0876-.1177.2354-.0641.4965-.1117.7424-.0681 1.327-.1695 2.6533-.1966 3.9812-.0435 2.1335.0194 4.2644.1788 6.3953.1105 1.4774.257 2.9489.4542 4.4152.2516 1.8707.634 3.7194 1.0147 5.5675.0737.3258.0959.668.3037.9509.1342.9131.4189 1.7871.672 2.671 1.155 4.033 2.7295 7.894 4.634 11.6306 1.5158 2.9739 3.2949 5.7812 5.2045 8.51.2178.3112.3657.6972.7295.896.1691.23.3123.4872.5156.6813.1569.1497.1572.4884.4897.4397.2392.2241.147.5798.356.832 1.6156 1.9501 3.2749 3.8627 5.0347 5.6827 1.9289 1.9948 4.0175 3.8188 6.1726 5.5658 3.1609 2.5625 6.5671 4.755 10.157 6.6597 2.5799 1.3687 5.2237 2.6053 7.9633 3.6282 2.4303.9075 4.8883 1.7305 7.4094 2.3475 2.4885.6091 5.0074 1.0428 7.5542 1.3477 1.9493.2334 3.9006.442 5.859.4744 3.5036.0579 7.0085.0713 10.4972-.3874 1.5717-.2067 3.146-.3918 4.7058-.6749 3.1815-.5775 6.2859-1.4401 9.3322-2.524 2.1059-.7493 4.1861-1.5628 6.2004-2.5279 2.1267-1.0189 4.2136-2.114 6.2519-3.3094 4.516-2.6483 8.5609-5.8981 12.3415-9.4933 1.3896-1.3215 2.6591-2.7594 3.9161-4.208 2.0004-2.3051 3.8442-4.7233 5.4935-7.2945 2.1832-3.4035 4.052-6.9688 5.6254-10.6905 1.3239-3.1313 2.4204-6.3416 3.2325-9.6432.5383-2.1884.9196-4.4062 1.2267-6.642.2788-2.0298.5142-4.0674.56-6.1055.0657-2.9215.1202-5.8483-.1573-8.7719-.1902-2.0036-.4184-3.9978-.7257-5.9864-.6814-4.4087-1.9594-8.6498-3.5913-12.7866-1.3682-3.4681-3.0404-6.7891-4.9286-10.0084-2.6662-4.5459-5.9293-8.6237-9.5622-12.4165-1.7055-1.7806-3.5736-3.3892-5.4628-4.9747-3.318-2.7847-6.923-5.1386-10.7324-7.1777-3.9805-2.1306-8.1284-3.8767-12.4536-5.19-3.1756-.9642-6.4071-1.648-9.6998-2.0824-2.0302-.2678-4.0663-.5247-6.1047-.5695-2.9388-.0647-5.8823-.1176-8.8233.1564-2.2083.2057-4.4045.4644-6.5917.8277-4.2295.7024-8.2987 1.9589-12.2789 3.5207-2.705 1.0615-5.3176 2.3247-7.866 3.7204-2.6679 1.4612-5.2346 3.0841-7.7039 4.8589-1.8503 1.3299-3.6442 2.7337-5.3433 4.2538-.4108.3675-.8857.6741-1.1889 1.1542-.274.2842-.655.4725-.7906.8809z" fill="#5f6065"/><path d="m23.978 22.2276c.303-.4802.778-.7868 1.1887-1.1543 1.699-1.52 3.4929-2.9239 5.3433-4.2538 2.4694-1.7748 5.036-3.3978 7.7039-4.8589 2.5484-1.3957 5.161-2.659 7.866-3.7204 3.9802-1.5619 8.0495-2.8183 12.2789-3.5207 2.1873-.3633 4.3834-.622 6.5917-.8277 2.9409-.2739 5.8845-.221 8.8233-.1564 2.0384.0449 4.0745.3017 6.1047.5695 3.2927.4344 6.5242 1.1182 9.6998 2.0824 4.3252 1.3133 8.4731 3.0593 12.4536 5.19 3.8094 2.0391 7.4143 4.393 10.7324 7.1777 1.8892 1.5855 3.7573 3.194 5.4628 4.9747 3.6329 3.7928 6.896 7.8706 9.5622 12.4165 1.8882 3.2194 3.5604 6.5403 4.9286 10.0084 1.6319 4.1368 2.91 8.3778 3.5913 12.7866.3073 1.9886.5355 3.9827.7257 5.9864.2775 2.9236.223 5.8503.1573 8.7719-.0458 2.0381-.2813 4.0757-.56 6.1055-.3071 2.2358-.6884 4.4536-1.2267 6.642-.8121 3.3016-1.9087 6.5119-3.2325 9.6432-1.5735 3.7217-3.4422 7.2869-5.6254 10.6905-1.6493 2.5712-3.4931 4.9894-5.4935 7.2945-1.257 1.4486-2.5265 2.8866-3.9161 4.208-3.7806 3.5952-7.8255 6.8449-12.3415 9.4933-2.0383 1.1953-4.1252 2.2904-6.2519 3.3094-2.0144.9651-4.0946 1.7786-6.2004 2.5279-3.0463 1.0839-6.1508 1.9464-9.3322 2.524-1.5598.2832-3.1341.4683-4.7058.6749-3.4888.4588-6.9937.4454-10.4972.3874-1.9585-.0324-3.9097-.2411-5.859-.4744-2.5468-.3049-5.0657-.7386-7.5542-1.3477-2.521-.617-4.979-1.44-7.4094-2.3475-2.7395-1.0229-5.3834-2.2595-7.9633-3.6282-3.59-1.9047-6.9962-4.0972-10.157-6.6597-2.1551-1.7471-4.2437-3.571-6.1726-5.5658-1.7598-1.82-3.4191-3.7326-5.0347-5.6827-.209-.2522-.1168-.6079-.356-.832-.6147-1.9449-.1171-4.053-.9697-6.022 1.3653.3012 2.6073.6706 3.8214 1.1205.4243.1572.7953.4376 1.0753.8389.6575.9423 1.2791 1.152 2.3845.8387.2551-.0723.4308-.0567.6506.1199 1.7041 1.369 3.424 2.7152 5.2379 3.9421 2.4147 1.6332 4.9118 3.1092 7.6354 4.1627 3.1514 1.219 6.3707 2.186 9.7695 2.419 1.9332.1325 3.8727.2161 5.8.0278 3.3576-.3281 6.5788-1.2213 9.7034-2.496 3.1067-1.2673 5.9881-2.9117 8.6896-4.8983 1.7265-1.2696 3.3851-2.6094 4.8386-4.1854.4406-.4777.9766-.9429.8667-1.7208-.0116-.0818.0678-.1915.1309-.2664.4964-.5897 1.0079-1.1753 1.6183-1.6422 1.7184-1.3141 3.6077-2.3454 5.5814-3.2193 3.1572-1.398 6.4454-2.4747 9.5833-3.9254 2.2364-1.034 4.4444-2.1181 6.528-3.4312 1.5629-.985 2.9943-2.1574 4.4238-3.3283.5883-.4819 1.097-1.0609 1.7858-1.424 2.632-1.3877 4.9695-3.1976 7.2307-5.1096 1.4501-1.2262 2.778-2.587 4.1734-3.8735 2.5191-2.3226 4.9188-4.7479 6.916-7.5502 1.0916-1.5316 2.1276-3.0919 2.8976-4.8129.4514-1.0089.801-2.0511.4886-3.1692-.0769-.2749-.0448-.4286.1275-.627.9942-1.1451 1.6174-2.4473 1.9252-3.9552.3572-1.75.0882-3.4142-.5105-5.0141-.8203-2.1922-2.7145-3.2575-4.8215-3.7441-2.5012-.5777-4.9282.0301-7.188 1.2018-1.8528.9606-3.5553 2.144-5.1504 3.5029-1.7475 1.4888-3.2977 3.1505-4.4989 5.0895-.5355.8645-1.1445 1.3149-2.1187 1.3981-2.3662.202-4.722.5181-7.1111.3263-1.7713-.1422-3.5526-.1788-5.3139-.4287-2.2176-.3147-4.4248-.7038-6.6445-1.0011-2.0824-.2789-4.1743-.5125-6.2951-.1898-.01-.0642-.0319-.1308-.0281-.1959.0078-.1359.0261-.2714.0454-.4063.2681-1.8741-.1678-3.5331-1.5434-4.8788-.2956-.2891-.2579-.4707-.029-.7678 1.1265-1.4628 2.2439-2.9332 3.1444-4.5532.2714-.4882.4451-.9811.3545-1.5579-.1487-.9461-.283-1.8937-.5065-2.8265-.2549-1.064-.4958-2.1314-.7518-3.1951-.1604-.6663-.8487-1.167-1.3051-.9034-.7359.4251-1.4838.848-2.0419 1.5219-.6186.747-1.1108 1.5661-1.456 2.4988-.3345-.7561-.631-1.4981-1.0132-2.1992-.7966-1.461-1.6552-2.8779-2.9481-3.9707-.8921-.754-1.55-.8371-2.5056-.2726-.2452.1449-.266-.0336-.3256-.1489-.2921-.5649-.6401-1.0966-1.0285-1.5946-.6907-.8857-1.272-1.8644-2.1491-2.5959-.4216-.3516-.8907-.2733-1.2192.1655-.8841 1.1808-1.322 2.484-1.1836 3.9722.0228.2449.138.5323-.009.7517-.7802 1.1648-.8557 2.4675-.7697 3.8001.0219.3399-.1077.3739-.3803.3015-.4945-.1313-.9866-.2789-1.4884-.3734-3.6977-.6964-7.402-1.3544-11.1555-1.676-.8594-.0736-1.7364-.2563-2.5691.1643-.8828.4459-1.8021.8334-2.4831 1.5956-.097.1086-.2691.2714-.3694.0574-.2361-.504-.6217-.9854-.5322-1.5768.1065-.704-.1965-1.1779-.7247-1.5526-.3879-.2752-.8613-.4552-1.188-.7852-.4571-.4617-.8713-.9916-1.4144-1.3305-1.2687-.7917-1.9942-1.9061-2.2776-3.35-.1163-.5924-.5625-.8682-1.0954-1.0304-.2438-.0742-.4989-.1132-.7399-.1948-1.1336-.3837-2.2942-.5814-3.3047-1.4011-1.8674-1.5149-3.8349-2.9144-5.8253-4.2735-.4872-.3326-1.0245-.6127-1.2653-1.2267-.2369-.6039-.5224-1.1905-.8154-1.7702-.3698-.7314-.819-1.3947-1.6881-1.609z" fill="#f3ec8a"/><path d="m4.7538 84.8825c-.3807-1.8481-.7631-3.6968-1.0147-5.5675-.1972-1.4662-.3436-2.9378-.4542-4.4152-.1594-2.1309-.2223-4.2618-.1788-6.3953.0271-1.3278.1285-2.6542.1966-3.9815.1472-.0088.2372-.1039.3458-.1933.9384-.773 1.8074-1.6228 2.7144-2.4299 1.7823-1.586 3.4591-3.2635 4.8312-5.225.1341-.1916.2732-.3297.5129-.3842 1.4166-.3219 2.8449-.5702 4.286-.7544.4312-.0551.6238.1825.7879.5015.4417.8582.6293 1.8018.9218 2.7109.227.7056.3843 1.4634 1.0178 1.9635.1944.1535.1005.2875-.0059.4368-.248.348-.4885.7013-.732 1.0524-.9166 1.322-1.8533 2.629-2.9127 3.8425-.129.1478-.4116.2286-.3286.4679.0938.2705.3925.231.6248.2511.1341.0116.277-.0033.4076-.038 1.2499-.3323 2.3767-.1542 3.4406.6414.482.3604.9928.7237 1.7113.0725.7568-.6858 1.7554-1.1072 2.6557-1.6315.8651-.5037 1.6436-1.0906 2.1636-1.9761.163-.2776.3989-.5129.6049-.7646.16-.1954.302-.439.6046-.1647.084.0761.232.0811.3328-.0151.1169-.1116.0356-.224-.0288-.322-.1794-.2731-.1289-.5039.0878-.7364.1741-.1869.3162-.4032.4764-.6034.8623-1.0778 1.6224-2.2585 2.8084-3.026.818-.5294 1.694-.9688 2.5179-1.4897 3.1238-1.9749 6.3271-3.8243 9.3618-5.9411.421-.2937.9008-.5048 1.4692-.5215.8037-.0237 1.6119-.1032 2.41-.0316 1.1009.0987 2.3141-.2698 3.2318.7243.1912.2071.4403.3723.6474.5777.1808.1793.1774.3273.0579.5391-.4244.7517-.9632 1.4151-1.5718 2.0175-.2705.2677-.5661.4911-1.0202.4883-3.1308-.0195-6.2199.3165-9.1963 1.3341-1.236.4226-2.5733.5843-3.4187 1.8921-1.1603 1.7949-2.8009 3.2169-4.1893 4.8395-2.0729 2.4225-4.0835 4.8811-5.2497 7.908-.2702.7012-.3102.6769-1.0235.4935-.2802-.072-.5935-.1901-.8545-.1288-.6838.1605-1.3035-.098-1.9515-.1745-.4397-.0519-.8885-.0325-1.3332-.0328-.1474-.0001-.292.0857-.2921.2361-.0001.1628.1716.1244.2834.1418.4381.0681.88.1175 1.3138.2065 1.6864.346 3.0602 1.2052 3.9548 2.6789.6517 1.0735.8224 2.3079.8076 3.5597-.0138 1.1637-.0468 2.3269.0924 3.4878.21 1.7515.9646 3.2273 2.2052 4.4668.1366.1365.3007.3108.4761.144.1705-.1622-.0496-.3008-.1413-.4297-.7776-1.0938-1.4611-2.227-1.6491-3.5944-.1687-1.227-.1118-2.4589-.083-3.6872.0418-1.7839-.3689-3.4287-1.3489-4.9221-.1411-.215-.1303-.4103-.0539-.6307.2684-.774.5123-1.555.8013-2.3237 1.1222-2.9847 3.1134-5.366 5.2256-7.6701 1.3534-1.4764 2.7324-2.9313 3.9585-4.5181.201-.2601.4204-.442.7236-.535 1.8147-.5565 3.6251-1.1223 5.5067-1.429 2.673-.4357 5.3636-.6084 8.0677-.6301.3766-.003.7534-.0253 1.1291-.0532.143-.0106.2688-.0889.2832-.2507.013-.1457-.0313-.2964-.1986-.311-.5583-.0488-.2694-.3272-.1433-.5355.47-.7761.953-1.5443 1.4288-2.3169.0909-.1476.1949-.3049-.0124-.4441-.1951-.131-.3212-.0092-.4301.1348-.1133.1498-.2283.3003-.3234.4618-.4778.8108-.9556 1.6218-1.4201 2.4402-.2077.366-.5827.3148-.8046.1919-.2741-.1518.0707-.3288.1595-.4712 1.0596-1.6988 2.0601-3.4262 2.6484-5.3562.1162-.3814.3149-.5131.7304-.5308 1.7773-.0758 3.513.2286 5.2558.4895 1.5235.2281 3.0229.5574 4.4966 1.0073 2.0472.6251 4.0485 1.3748 6.0274 2.1884 1.0443.4293 2.1062.816 3.0888 1.3837.3093.1787.4062.2985.0338.5495-.5392.3634-1.0785.7248-1.6376 1.0565-1.9344 1.1474-3.9408 2.1412-6.1388 2.6704-2.1673.5217-4.3853.7258-6.6031.8652-2.3517.1478-4.6076.5293-6.6181 1.8874-1.0362.7-2.124 1.3208-2.9934 2.2384-.0912.0963-.3406.1749-.1798.3487.1478.1598.2688-.0645.3801-.143.2654-.187.514-.3976.7706-.5973 2.0605-1.6035 4.3951-2.5425 6.9746-2.9096 1.8991-.2703 3.8208-.2771 5.7217-.5262 1.6812-.2203 3.3521-.4855 4.9654-1.0229 2.6693-.8891 5.0278-2.3179 7.0998-4.2088.4612-.4209.8762-.5277 1.4269-.2528.288.1437.6092.2193.9095.3403.9848.3968 1.8606.983 2.5032 1.8153.9694 1.2557.944 2.7784.9505 4.2723.0006.1472-.1104.2363-.2194.3285-.9266.7832-1.8611 1.5525-2.9131 2.1697-.4422.2595-1.1443.2847-1.4188-.1179-.5446-.7987-1.4098-1.0515-2.1981-1.4445-.1293-.0645-.3107-.1799-.4146-.0061-.1084.1814.1018.2558.2085.3523.3846.3478.8735.5361 1.2882.8376.4634.3369.6999.8391.708 1.369.0057.3747-.51.3793-.763.5892-.0394.0327-.0852.0575-.1279.0862-.3796.2548-.742.3537-1.1663.042-.2693-.1978-.5986-.3427-.9228-.4319-1.5204-.4182-3.0734-.6645-4.6468-.7525-2.0571-.1152-4.0545.2374-6.0106.8507-.2599.0815-.6848.1315-.5747.5034.1218.4113.5012.1458.7487.0773 1.1881-.3289 2.3689-.676 3.6089-.7681 1.895-.1408 3.7577.0971 5.6081.4615.6609.1302 1.2998.3501 1.9175.7391-1.0754.7367-2.1896 1.2488-3.3284 1.7172-.6625.2726-1.3427.4595-1.7698 1.1723-.6317 1.0546-1.2783 2.0813-1.4203 3.3361-.1346 1.1899-.3204 2.3748-.3229 3.5771-.0004.1703-.0828.3859.1566.4105.2438.0251.2128-.2254.2358-.3769.1543-1.0132.295-2.0284.4471-3.0419.02-.1335.0108-.2958.2167-.4023-.0249 2.0959.2881 4.133.3248 6.186.0091.5094.1295.9874.3596 1.429.0704.1352.122.4389.3611.3455.165-.0645.0701-.3077.0518-.4699-.0516-.4585-.1782-.9178-.1623-1.3729.0455-1.2974-.1048-2.5857-.1255-3.8799-.0282-1.7719.0612-3.5211.5617-5.233.1036-.3543.2747-.578.6544-.7004.584-.1882 1.1542-.4325 1.7073-.7003 1.7217-.8338 3.3722-1.8037 5.0664-2.6896 1.4442-.7552 2.822-1.6036 4.1559-2.5389.4399-.3084.7455-.7769 1.3902-.881 1.3375-.2161 2.6598-.1563 3.9911-.0667 1.6927.114 3.351.4719 5.0258.7127 2.6578.3821 5.328.6533 8.0052.8787 2.0945.1763 4.1701.1627 6.2476-.1172.7214-.0972 1.439-.2226 2.1458-.3331.0769.1848-.0276.277-.0911.3683-.9659 1.3887-1.905 2.7899-3.1068 4.0059-1.3438 1.3598-2.7561 2.6043-4.4613 3.4949-.8717.4553-1.861.507-2.7567.9703-1.9741 1.021-4.2008 1.2968-6.3479 1.7803-1.3008.2929-2.6305.4407-3.9721.4067-.1488-.0038-.3516-.0331-.3731.1706-.0217.2059.1853.2265.3302.238.4088.0325.8239.0927 1.2282.0543 1.4987-.1423 2.9915-.3297 4.4576-.6936 1.5897-.3946 3.2291-.5944 4.7499-1.2573.438-.1909.8236-.5543 1.3066-.5758 1.1544-.0513 2.1002-.6059 2.9976-1.2217 2.5846-1.7734 4.6662-4.05 6.4745-6.5969.506-.7126.8758-1.5086 1.4224-2.1916.0188.0187.0378.0373.0568.0557-.3316 1.1292-.6623 2.253-.8444 3.4255-.1994 1.2842-.2147 2.544.0019 3.8219.0874.5162.6464 1.0442.3363 1.4786-.287.4019-.9302.5394-1.3979.824-2.9634 1.803-6.0856 3.2731-9.3325 4.4856-2.5309.9451-5.0876 1.8124-7.6723 2.5992-3.6491 1.1108-7.357 1.8759-11.1857 1.9436-.2112.0037-.352.072-.4873.2197-1.9021 2.0749-4.303 3.3626-6.9268 4.2299-3.2372 1.07-6.5728 1.6227-9.9945 1.5184-1.0584-.0323-2.1807.0526-3.1525-.2754-.9414-.3178-1.5799-.1181-2.2723.392-.1102.0812-.2339.1442-.3418.228-.136.1056-.2654.1139-.4287.0535-2.8251-1.0441-5.7189-1.0738-8.6533-.6034-1.2804.2053-2.5635.4379-3.8605.0347-1.075-.3341-2.0121-.8583-2.6752-1.7851-.3098-.433-.1574-.6793.3804-.7264.784-.0687 1.5691-.1331 2.3488-.2371.3513-.0468.6987-.1633 1.0314-.2912.1439-.0553.3324-.2091.265-.39-.0704-.1889-.2828-.1397-.4529-.1019-.1998.0445-.3983.0967-.5999.1307-1.1658.1968-2.3439.2261-3.5219.2302-.2388.0009-.367.1013-.5183.2566-.5124.5259-.7791 1.2007-1.1477 1.8143-.4216.7017-.8758 1.3839-1.2963 2.0862-.0735.1228-.2112.3198.0092.4513.2189.1306.2896-.0759.3975-.2015.5688-.6621.57-.6609.9231.0742.0296.0616.0635.1211.0945.182.3397.6686.7201 1.3206 1.0046 2.012.1891.4596.4639.7399.9287.8603 1.1676.3023 2.3726.4176 3.5586.3723 2.8539-.109 5.6986-.3846 8.5249-.814.1759-.0267.2909.0086.4114.1249.9995.9647 2.0851 1.8258 3.2054 2.644.2763.2018.3673.3404-.0504.4848-2.135.7379-4.3071 1.3497-6.5002 1.8818-1.383.3356-2.8144.3607-4.2192.5527-2.007.2743-3.9934.1887-5.9824-.0898-.4652-.0651-.9001-.2463-1.1452-.6923-.6091-1.1084-1.2594-2.1943-1.5553-3.4501-.1603-.6805-.3782-1.3526-.694-1.9826-.0755-.1506-.0924-.459-.3182-.3818-.2167.0741-.0366.3352-.0213.5035.0213.2345.1019.4678.1848.6913.1072.2889-.0177.3324-.2613.2877-.2856-.0525-.5718-.1464-.8577-.1461-2.1622.002-4.1345.6759-5.9823 1.753-.1982.1156-.3459.1706-.56.057-1.6596-.8798-3.3711-1.6713-4.8076-2.9207-.27-.2348-.5784-.4263-.8744-.6301-.1041-.0717-.2307-.1006-.3219.0202-.0966.1279-.0069.2244.0855.3068.0894.0797.1846.153.2783.2279 1.3891 1.1102 2.7576 2.2441 4.0685 3.4473.3231.2966.5705.6495.7394 1.0277.7044 1.5767 1.3597 3.1746 1.6539 4.8919-.1757-.067-.2944.0367-.408.142-.6826.6326-1.5058.5678-2.3539.5441-.976-.0272-1.7988-.4757-2.6741-.7903-.4159-.1495-.8492-.2566-1.1996-.5514-.4691-.3947-.9175-.8213-1.4226-1.1638-.4929-.3342-.909-.836-1.5764-.8571.2675-.9239.357-1.8768.4534-2.8277.141-1.3907.0531-2.7609-.3445-4.1109-.3793-1.2877-1.0789-2.4328-1.587-3.6631-.3319-.8036-.6257-1.6284-1.083-2.3765-.0661-.1082-.0781-.3125-.2612-.2395-.1344.0536-.1397.2208-.1008.3639.1703.6261.3166 1.2569.5118 1.8784.4058 1.2916 1.1361 2.4331 1.6013 3.7059.6534 1.7874.7951 3.5646.4438 5.3856-.5571 2.8876-1.5738 5.6247-2.9117 8.2419-.0626.1225-.0777.3097-.3031.3193-.0772-.1464-.162-.2944-.235-.4479-1.0208-2.1462-2.0276-4.2991-3.0626-6.4385-1.4519-3.0009-3.1392-5.8771-4.7076-8.8164-.057-.1068-.1212-.1911-.2516-.2341-.5827-.1924-1.1613-.3986-1.7416-.5997zm47.7499-7.3628c.7231.4776 1.5196.7888 2.3727.8901 1.721.2045 3.3888.0848 4.8207-1.0544.2268-.1804.4351-.2182.7064-.1043.4253.1786.8626.3298 1.3003.4763.1011.0338.2552.0741.3154-.075.0631-.1565-.0355-.2587-.17-.3249-.3689-.1815-.7447-.35-1.1073-.5432-.8536-.4549-1.6884-.975-2.2006-1.8037-.3252-.5262-.7198-.672-1.2611-.6809-2.0806-.0339-3.8226.7713-5.301 2.1805-.2458.2343-.6292.4593-.6292.8363.0002 1.0963-.3449 2.0774-.8658 3.0157-.0508.0915-.1123.192-.0088.2753.1328.1068.224-.0002.2941-.0965.1813-.249.3537-.5044.5297-.7572.469-.6735 1.3213-.9476 2.075-.672.8532.312 1.7419.3398 2.6324.2839.1655-.0104.502.0464.4858-.2208-.0125-.2057-.311-.1332-.492-.144-.8735-.052-1.7428-.1319-2.5619-.4719-.4494-.1865-.8646-.4215-1.0344-.9254.0332-.0277.0664-.0558.0996-.0839zm6.4718-8.1111c-.497.1163-.9958.2255-1.4907.3502-1.4667.3693-2.7017 1.2297-4.0182 1.9151-.7438.3873-1.4799.7955-2.1027 1.3711-.0942.0871-.2348.1916-.0938.3406.1083.1143.2243.0303.3224-.0362.3398-.2301.6701-.4747 1.0151-.6966 1.1589-.7455 2.4367-1.2435 3.7191-1.7166 1.5067-.5559 3.0682-.7801 4.6784-.6045.3116.034.4083.1732.3987.464-.0626 1.8984.8262 3.4843 1.6798 5.0811.0543.1017.1427.1574.2517.131.1684-.0408.1379-.1894.1043-.2942-.0991-.3087-.1914-.6247-.3366-.9126-.634-1.2574-.9968-2.5716-.9734-3.9925.0139-.8452-.2616-1.1163-1.1221-1.2799-.2458-.0467-.549-.0084-.7214-.1996-.7521-.8339-1.7615-1.03-2.7877-1.0876-2.4223-.136-4.5636.7877-6.5797 1.9825-1.9268 1.1419-3.5097 2.7217-5.0259 4.3546-.323.3479-.6231.7499-.6698 1.2772.4686-.4218.8838-.8838 1.3039-1.3412 2.508-2.7307 5.5214-4.6038 9.1751-5.3737 1.1087-.2336 2.2011-.061 3.2735.2678zm33.7993-5.8595c-.0183-.0497-.0366-.0993-.055-.149-1.2157.3769-2.4158.7995-3.5722 1.338-2.4128 1.1236-4.6526 2.5223-6.6462 4.2917-.8799.7809-1.6076 1.7122-2.3963 2.5826-.1809.1996-.2212.4404.0464.6155.2379.1556.4001.0493.5472-.1734 1.2636-1.9126 2.9555-3.4098 4.7928-4.7266 1.5972-1.1448 3.3492-2.0479 5.1542-2.8358.7114-.3106 1.4195-.6285 2.1291-.943zm-34.5603 17.7527c.259-.0593.3962.0252.4526.1361.0961.1888-.1369.1836-.2197.265-.0835.082-.2066.1229-.2947.2015-.084.0749-.2364.147-.1869.2761.0635.1655.2448.1248.3571.0731 1.0431-.4803 2.07-.9884 2.8616-1.8584.1398-.1537.1683-.2879-.0054-.4348-.1529-.1293-.3151-.2524-.488-.0617-.1861.2053-.4389.2516-.6742.3487-1.0087.4163-2.0682.5924-3.1483.6446-1.3537.0654-2.7553.3147-3.8395-.8557-.0757-.0818-.2044-.162-.3171-.0476-.085.0863-.1308.2075-.0766.331.1059.2411.2736.4314.5044.5612.559.3145 1.1616.4995 1.7975.5554 1.1322.0996 2.2561-.0239 3.2772-.1345zm24.8577-8.3088c.1621-.0411.3769-.0892.5874-.1515.1192-.0353.312-.0284.2814-.2163-.0284-.1745-.1941-.2158-.3586-.2129-.2029.0036-.406.004-.6088.0126-.1736.0074-.436-.075-.4518.1795-.0183.2958.2369.3731.5504.3886z" fill="#7b8e58"/><path d="m4.7538 84.8825c.5803.2012 1.1589.4073 1.7421.5996.1304.043.1946.1273.2516.2341 1.5684 2.9393 3.2557 5.8155 4.7076 8.8164 1.035 2.1393 2.0418 4.2923 3.0626 6.4385.073.1535.1579.3015.235.4479.2254-.0096.2405-.1968.3031-.3193 1.3379-2.6172 2.3546-5.3543 2.9117-8.2419.3513-1.8211.2096-3.5982-.4438-5.3856-.4653-1.2728-1.1955-2.4143-1.6013-3.7059-.1953-.6215-.3415-1.2523-.5118-1.8784-.0389-.1431-.0336-.3103.1008-.3639.1831-.073.1951.1314.2612.2395.4574.7481.7511 1.5728 1.083 2.3765.5081 1.2303 1.2077 2.3754 1.587 3.6631.3976 1.3499.4855 2.7201.3445 4.1109-.0964.9509-.1859 1.9038-.4534 2.8277-.2077.9871-.4891 1.9532-.8093 2.9094-.4881 1.4578-1.2096 2.8204-1.7274 4.2658-.1342.3745-.2443.7559-.2035 1.1533.0805.784.7352.8505 1.3079.9908 1.9218.4709 3.894.8068 5.4364 2.2175.1951.1785.4709.2867.766.2013 1.5644-.4528 3.0085-1.1363 4.157-2.3183.4494-.4625.8147-.9969.9656-1.665.3889-1.7218.039-3.3968-.2582-5.0784-.2943-1.7173-.9495-3.3152-1.6539-4.8919-.169-.3782-.4163-.7312-.7394-1.0277-1.3109-1.2032-2.6794-2.3371-4.0685-3.4473-.0937-.0749-.1889-.1482-.2783-.2279-.0924-.0824-.1821-.1789-.0855-.3068.0912-.1207.2178-.0919.3219-.0202.296.2038.6044.3953.8744.6301 1.4365 1.2494 3.148 2.0409 4.8076 2.9207.2141.1135.3618.0585.56-.057 1.8478-1.0771 3.8201-1.751 5.9823-1.753.2859-.0003.572.0936.8577.1461.2436.0447.3685.0012.2613-.2877-.0829-.2235-.1635-.4569-.1848-.6913-.0153-.1683-.1954-.4294.0213-.5035.2258-.0772.2427.2312.3182.3818.3158.63.5337 1.3021.694 1.9826.2958 1.2558.9462 2.3417 1.5553 3.4501.2451.446.68.6272 1.1452.6923 1.989.2785 3.9754.364 5.9824.0898 1.4047-.192 2.8361-.2171 4.2192-.5527 2.1931-.5321 4.3652-1.1439 6.5002-1.8818.4177-.1444.3266-.283.0504-.4848-1.1203-.8182-2.2059-1.6793-3.2054-2.644-.1205-.1163-.2355-.1516-.4114-.1249-2.8263.4293-5.671.705-8.5249.814-1.186.0453-2.391-.07-3.5586-.3723-.4649-.1203-.7396-.4006-.9287-.8603-.2844-.6914-.6648-1.3433-1.0046-2.012-.031-.0609-.0649-.1204-.0945-.182-.3532-.735-.3544-.7362-.9231-.0742-.1079.1256-.1786.3321-.3975.2015-.2204-.1315-.0827-.3285-.0092-.4513.4205-.7024.8747-1.3845 1.2963-2.0862.3687-.6136.6353-1.2885 1.1477-1.8143.1514-.1553.2796-.2558.5183-.2566 1.178-.0042 2.3561-.0334 3.5219-.2302.2016-.034.4001-.0863.5999-.1307.17-.0378.3825-.087.4529.1019.0674.1809-.1211.3347-.265.39-.3326.1279-.68.2443-1.0314.2912-.7796.104-1.5648.1685-2.3488.2371-.5378.0471-.6902.2935-.3804.7264.6631.9269 1.6003 1.451 2.6752 1.7851 1.297.4032 2.5801.1705 3.8605-.0347 2.9344-.4705 5.8282-.4407 8.6533.6034.1632.0603.2927.052.4287-.0535.1079-.0838.2317-.1468.3418-.228.6924-.5101 1.3309-.7098 2.2723-.392.9718.3281 2.0941.2432 3.1525.2754 3.4217.1043 6.7573-.4484 9.9945-1.5184 2.6238-.8673 5.0248-2.155 6.9268-4.2299.1354-.1477.2761-.216.4873-.2197 3.8288-.0677 7.5366-.8328 11.1857-1.9436 2.5847-.7868 5.1414-1.6541 7.6723-2.5992 3.2469-1.2125 6.3691-2.6826 9.3325-4.4856.4677-.2846 1.1109-.4221 1.3979-.824.3102-.4344-.2488-.9625-.3363-1.4786-.2165-1.2779-.2013-2.5377-.0019-3.8219.1821-1.1725.5128-2.2963.8442-3.4257.0132-.0382.0267-.0762.0401-.1142-.0322.0196-.0645.0391-.0967.0587-.5465.6829-.9164 1.4789-1.4224 2.1916-1.8083 2.5469-3.8899 4.8235-6.4745 6.5969-.8973.6157-1.8432 1.1703-2.9976 1.2217-.483.0215-.8686.3848-1.3066.5758-1.5207.6629-3.1602.8627-4.7499 1.2573-1.4661.364-2.959.5513-4.4576.6936-.4043.0384-.8194-.0218-1.2282-.0543-.1449-.0115-.3519-.0321-.3302-.238.0215-.2036.2243-.1744.3731-.1706 1.3416.034 2.6713-.1138 3.9721-.4067 2.1471-.4834 4.3738-.7593 6.3479-1.7803.8957-.4632 1.8849-.515 2.7567-.9703 1.7052-.8906 3.1174-2.1351 4.4613-3.4949 1.2018-1.216 2.1409-2.6171 3.1068-4.0059.0635-.0912.168-.1834.0911-.3683-.7068.1105-1.4244.2359-2.1458.3331-2.0775.2799-4.1531.2935-6.2476.1172-2.6772-.2254-5.3474-.4966-8.0052-.8787-1.6748-.2408-3.3331-.5986-5.0258-.7127-1.3313-.0897-2.6536-.1494-3.9911.0667-.6447.1042-.9504.5726-1.3902.881-1.3339.9353-2.7117 1.7837-4.1559 2.5389-1.6942.8859-3.3446 1.8557-5.0664 2.6896-.5531.2679-1.1233.5122-1.7073.7003-.3798.1224-.5509.346-.6544.7004-.5005 1.7119-.5899 3.4611-.5617 5.233.0206 1.2942.171 2.5825.1255 3.8799-.016.455.1106.9144.1623 1.3729.0183.1623.1132.4055-.0518.4699-.239.0934-.2906-.2103-.3611-.3455-.2301-.4416-.3505-.9196-.3596-1.429-.0367-2.053-.3498-4.0901-.3248-6.186-.2059.1064-.1967.2688-.2167.4023-.1521 1.0135-.2928 2.0287-.4471 3.0419-.0231.1515.008.402-.2358.3769-.2394-.0246-.1569-.2402-.1566-.4105.0026-1.2023.1883-2.3872.3229-3.5771.142-1.2548.7885-2.2815 1.4203-3.3361.427-.7129 1.1072-.8998 1.7698-1.1723 1.1387-.4684 2.253-.9806 3.3284-1.7172-.6177-.389-1.2566-.6089-1.9175-.7391-1.8504-.3644-3.7131-.6023-5.6081-.4615-1.24.0921-2.4208.4392-3.6089.7681-.2475.0685-.6269.334-.7487-.0773-.1101-.3719.3148-.4219.5747-.5034 1.9561-.6133 3.9535-.9658 6.0106-.8507 1.5734.0881 3.1264.3343 4.6468.7525.3242.0892.6535.2341.9228.4319.4244.3117.7867.2128 1.1663-.042.0427-.0287.0885-.0535.1279-.0862.253-.21.7687-.2145.763-.5892-.0081-.5299-.2446-1.0321-.708-1.369-.4147-.3015-.9037-.4897-1.2882-.8376-.1067-.0965-.317-.1709-.2085-.3523.1039-.1738.2853-.0583.4146.0061.7883.393 1.6536.6458 2.1981 1.4445.2745.4026.9766.3774 1.4188.1179 1.052-.6173 1.9866-1.3866 2.9131-2.1697.109-.0921.22-.1812.2194-.3285-.0065-1.4939.0188-3.0166-.9505-4.2723-.6425-.8323-1.5184-1.4185-2.5032-1.8153-.3003-.121-.6215-.1965-.9095-.3403-.5507-.2749-.9657-.1681-1.4269.2528-2.072 1.8909-4.4305 3.3197-7.0998 4.2088-1.6133.5374-3.2841.8026-4.9654 1.0229-1.9009.2491-3.8226.2559-5.7217.5262-2.5795.3671-4.9141 1.3061-6.9746 2.9096-.2565.1996-.5052.4102-.7706.5973-.1113.0785-.2324.3028-.3801.143-.1607-.1738.0887-.2525.1798-.3487.8694-.9176 1.9573-1.5384 2.9934-2.2384 2.0105-1.3582 4.2664-1.7396 6.6181-1.8874 2.2178-.1394 4.4357-.3435 6.6031-.8652 2.198-.5291 4.2044-1.5229 6.1388-2.6704.5592-.3317 1.0984-.6931 1.6376-1.0565.3724-.251.2754-.3708-.0338-.5495-.9826-.5678-2.0446-.9544-3.0888-1.3837-1.9789-.8135-3.9802-1.5633-6.0274-2.1884-1.4737-.45-2.9731-.7793-4.4966-1.0073-1.7428-.2609-3.4785-.5653-5.2558-.4895-.4155.0177-.6141.1494-.7304.5308-.5882 1.93-1.5888 3.6574-2.6484 5.3562-.0888.1424-.4336.3194-.1595.4712.2219.1229.5969.1741.8046-.1919.4645-.8185.9423-1.6294 1.4201-2.4402.0951-.1614.2101-.3119.3234-.4618.1089-.1439.235-.2658.4301-.1348.2073.1392.1033.2965.0124.4441-.4759.7726-.9588 1.5408-1.4288 2.3169-.1261.2083-.4151.4868.1433.5355.1672.0146.2116.1653.1986.311-.0145.1618-.1403.2401-.2832.2507-.3756.0279-.7525.0501-1.1291.0532-2.7041.0218-5.3948.1944-8.0677.6301-1.8816.3067-3.6921.8725-5.5067 1.429-.3032.093-.5226.2749-.7236.535-1.2262 1.5867-2.6051 3.0416-3.9585 4.5181-2.1122 2.3041-4.1035 4.6854-5.2256 7.6701-.289.7687-.5329 1.5497-.8013 2.3237-.0764.2204-.0872.4156.0539.6307.98 1.4935 1.3907 3.1382 1.3489 4.9221-.0288 1.2283-.0858 2.4603.083 3.6872.188 1.3674.8715 2.5006 1.6491 3.5944.0916.1289.3118.2675.1413.4297-.1754.1668-.3395-.0076-.4761-.144-1.2407-1.2395-1.9952-2.7153-2.2052-4.4668-.1392-1.1609-.1062-2.3241-.0924-3.4878.0149-1.2519-.1559-2.4862-.8076-3.5597-.8946-1.4737-2.2684-2.3329-3.9548-2.6789-.4338-.089-.8757-.1384-1.3138-.2065-.1118-.0174-.2835.021-.2834-.1418.0001-.1504.1447-.2361.2921-.2361.4447.0002.8935-.0192 1.3332.0328.648.0766 1.2677.335 1.9515.1745.261-.0613.5742.0568.8545.1288.7133.1834.7533.2077 1.0235-.4935 1.1663-3.027 3.1768-5.4855 5.2497-7.908 1.3884-1.6226 3.029-3.0447 4.1893-4.8395.8454-1.3078 2.1827-1.4696 3.4187-1.8921 2.9764-1.0176 6.0655-1.3536 9.1963-1.3341.4541.0028.7497-.2206 1.0202-.4883.6086-.6025 1.1474-1.2658 1.5718-2.0175.1196-.2118.123-.3598-.0579-.5391-.2072-.2054-.4563-.3706-.6474-.5777-.9176-.994-2.1308-.6255-3.2318-.7243-.7981-.0716-1.6062.008-2.41.0316-.5684.0167-1.0481.2278-1.4692.5215-3.0347 2.1168-6.238 3.9662-9.3618 5.9411-.824.5209-1.6999.9603-2.5179 1.4897-1.186.7676-1.946 1.9483-2.8084 3.026-.1602.2002-.3023.4166-.4764.6034-.2167.2325-.2672.4633-.0878.7364.0644.098.1457.2104.0288.322-.1008.0962-.2488.0912-.3328.0151-.3026-.2742-.4446-.0307-.6046.1647-.2061.2517-.4419.487-.6049.7646-.52.8855-1.2985 1.4724-2.1636 1.9761-.9003.5242-1.899.9456-2.6557 1.6315-.7185.6512-1.2293.2879-1.7113-.0725-1.064-.7955-2.1907-.9737-3.4406-.6414-.1305.0347-.2735.0496-.4076.038-.2323-.0201-.5309.0194-.6248-.2511-.083-.2393.1995-.3201.3286-.4679 1.0594-1.2135 1.9961-2.5205 2.9127-3.8425.2435-.3512.484-.7044.732-1.0524.1064-.1493.2002-.2834.0059-.4368-.6335-.5001-.7908-1.2578-1.0178-1.9635-.2925-.9091-.4801-1.8527-.9218-2.7109-.1642-.319-.3568-.5566-.7879-.5015-1.4411.1842-2.8695.4325-4.286.7544-.2397.0545-.3788.1925-.5129.3842-1.372 1.9615-3.0489 3.6389-4.8312 5.225-.907.8071-1.776 1.6568-2.7144 2.4299-.109.0896-.1989.1847-.3461.1935.0476-.2455-.006-.5066.1116-.742 2.0409-1.6411 3.9432-3.431 5.7095-5.3633.5293-.579 1.0143-1.2006 1.4363-1.8646.1108-.1744.3525-.424-.1127-.5123-.2601-.0494-.3171-.2593-.2212-.4767.0893-.2025.3009-.1285.4593-.1149.9038.0775 1.8129.0181 2.5958-.4286 1.3039-.7439 2.5441-1.5987 3.8199-2.3927 2.1616-1.3453 4.2917-2.7399 6.4442-4.0987 1.521-.9601 2.9228-2.0801 4.3996-3.0981 1.4472-.9976 2.803-2.1282 4.1938-3.2071 1.3066-1.0136 2.743-1.8554 3.9549-2.9949.1429-.1343.34-.1461.5356-.1096.15.028.3066.0763.4531.0581.9153-.114 1.835-.1494 2.7547-.1987.4231-.0227.8417-.1256 1.2632-.1867.2233-.0324.3388-.1025.1376-.3143-.55-.5788-1.125-1.1291-1.8068-1.6194-.0723.3474.0186.6115.1885.855.0886.1269.1232.2455-.0024.3654-.1322.1262-.2479.0635-.3594-.0356-.3521-.3133-.6343-.68-.6585-1.1631-.0147-.2938-.1212-.3568-.3962-.3852-1.2205-.1261-2.4382-.2797-3.656-.4307-1.6798-.2083-3.329-.5697-4.9543-1.0357-.2867-.0822-.4912-.0203-.7044.1508-1.6261 1.3047-3.2481 2.6145-4.8839 3.9069-1.6339 1.2909-3.2884 2.5557-4.9223 3.8465-1.1527.9107-2.3122 1.8113-3.5141 2.6564-1.033.7264-2.0563 1.4673-3.1034 2.1728-1.729 1.1649-3.4707 2.3112-5.2152 3.4528-.2588.1693-.2477.3209-.0896.5353.2541.3448.5091.6917.5562 1.1374.014.1329.0532.2861-.1035.3649-.1445.0726-.2751-.0019-.371-.1005-.2619-.2696-.5368-.5325-.7586-.8334-.1973-.2677-.3738-.3123-.6313-.1077-.0762.0606-.1804.0858-.2718.1272.2163-.6847.2661-1.4267.7012-2.036.3152.5992.3041.5802.877.2446 1.2274-.7191 2.3489-1.5923 3.5263-2.3838 1.4625-.9832 2.9398-1.9457 4.3787-2.9625 2.4587-1.7375 4.8086-3.6205 7.1732-5.4821 2.0693-1.6291 4.119-3.284 6.1473-4.9638.4192-.3472.8124-.4804 1.308-.3337 2.7507.8141 5.588 1.0958 8.4252 1.3788.1548.0154.3464.1048.3965-.1718.1296-.7154-.4187-1.9048-1.1035-2.1787-1.2513-.5005-2.5718-.6717-3.9141-.6022-.3168.0164-.6921.1371-.7472-.2591-.0526-.3783.3454-.3854.6347-.4199.0209-.0025.0367-.0482.0817-.1116-1.7379-1.6793-3.7441-3.0027-5.7561-4.3664-.0488.208.0065.3341.042.4664.2611.9726.5163 1.9468.7761 2.9198.0261.0976.0889.197-.0222.2731-.0267.0183-.111.0013-.1306-.0264-.2995-.4241-.7576-.6909-.9379-1.251-.6668-2.0713-1.5474-4.0559-2.6959-5.9108-.3537-.5713-.8533-.9705-1.5531-1.0524.1356-.4085.5166-.5967.7907-.8809.8692.2143 1.3184.8777 1.6881 1.6089.293.5796.5785 1.1663.8154 1.7702.2408.6139.7781.894 1.2653 1.2267 1.9904 1.359 3.9579 2.7586 5.8253 4.2735 1.0105.8197 2.1711 1.0174 3.3047 1.4011.241.0816.4961.1205.7399.1948.5329.1623.9791.438 1.0954 1.0304.2835 1.4439 1.0089 2.5583 2.2776 3.35.5431.3389.9573.8687 1.4144 1.3305.3267.33.8001.51 1.188.7852.5281.3747.8312.8486.7247 1.5526-.0895.5914.296 1.0728.5322 1.5768.1003.214.2724.0512.3694-.0574.6811-.7622 1.6003-1.1497 2.4831-1.5956.8328-.4206 1.7098-.238 2.5691-.1643 3.7535.3217 7.4578.9796 11.1555 1.676.5018.0945.994.2422 1.4884.3734.2726.0724.4022.0384.3803-.3015-.086-1.3325-.0105-2.6352.7697-3.8001.147-.2195.0318-.5069.009-.7517-.1384-1.4882.2995-2.7914 1.1836-3.9722.3285-.4388.7976-.5171 1.2192-.1655.8771.7314 1.4584 1.7102 2.1491 2.5959.3884.498.7363 1.0298 1.0285 1.5946.0596.1153.0804.2938.3256.1489.9555-.5645 1.6134-.4815 2.5056.2726 1.2929 1.0928 2.1515 2.5097 2.9481 3.9707.3822.7011.6787 1.4431 1.0132 2.1992.3452-.9326.8375-1.7518 1.456-2.4988.5581-.6739 1.306-1.0969 2.0419-1.5219.4564-.2636 1.1447.2371 1.3051.9034.256 1.0637.4968 2.1311.7518 3.1951.2235.9328.3578 1.8804.5065 2.8265.0907.5769-.0831 1.0697-.3545 1.5579-.9006 1.62-2.0179 3.0905-3.1444 4.5532-.2288.2971-.2665.4787.029.7678 1.3756 1.3457 1.8114 3.0047 1.5434 4.8788-.0193.1349-.0376.2704-.0454.4063-.0037.0651.0181.1317.0281.1959 2.1208-.3227 4.2127-.0891 6.2951.1898 2.2197.2973 4.427.6864 6.6445 1.0011 1.7613.2499 3.5426.2865 5.3139.4287 2.3891.1918 4.7449-.1243 7.1111-.3263.9743-.0832 1.5832-.5336 2.1187-1.3981 1.2012-1.939 2.7514-3.6007 4.4989-5.0895 1.5951-1.3589 3.2976-2.5424 5.1504-3.5029 2.2598-1.1716 4.6868-1.7795 7.188-1.2018 2.1069.4866 4.0012 1.5519 4.8215 3.7441.5987 1.5999.8677 3.2641.5105 5.0141-.3078 1.5079-.931 2.8101-1.9252 3.9552-.1723.1984-.2043.352-.1275.627.3125 1.1181-.0372 2.1604-.4886 3.1692-.7701 1.721-1.806 3.2813-2.8976 4.8129-1.9972 2.8023-4.3969 5.2277-6.916 7.5502-1.3954 1.2865-2.7232 2.6473-4.1734 3.8735-2.2612 1.912-4.5986 3.7219-7.2307 5.1096-.6888.3631-1.1975.9422-1.7858 1.424-1.4295 1.1708-2.8609 2.3433-4.4238 3.3283-2.0835 1.3131-4.2915 2.3973-6.528 3.4312-3.1379 1.4507-6.4261 2.5274-9.5833 3.9254-1.9738.874-3.8631 1.9053-5.5814 3.2193-.6105.4668-1.122 1.0524-1.6183 1.6422-.0631.0749-.1425.1846-.1309.2664.1099.7779-.4261 1.2431-.8667 1.7208-1.4535 1.576-3.1121 2.9158-4.8386 4.1854-2.7015 1.9866-5.5829 3.631-8.6896 4.8983-3.1246 1.2747-6.3458 2.1679-9.7034 2.496-1.9273.1883-3.8668.1047-5.8-.0278-3.3988-.2329-6.6181-1.2-9.7695-2.419-2.7236-1.0535-5.2207-2.5295-7.6354-4.1627-1.8139-1.2269-3.5338-2.5731-5.2379-3.9421-.2198-.1766-.3955-.1921-.6506-.1199-1.1054.3133-1.727.1036-2.3845-.8387-.28-.4012-.651-.6817-1.0753-.8389-1.2141-.4498-2.4561-.8193-3.8214-1.1205.8525 1.969.3549 4.0771.9697 6.022-.3325.0487-.3328-.29-.4897-.4397-.2034-.1941-.3465-.4513-.5158-.6813-.1263-.3587-.1165-.7317-.1406-1.1052-.0691-1.0674-.0607-2.1456-.5526-3.1476-1.1747-2.3928-2.2711-4.823-3.4908-7.1951-1.8446-3.5874-3.6523-7.1939-5.4554-10.8025-.3543-.7091-.8231-1.2389-1.6004-1.4573-.2077-.2829-.2299-.6251-.3037-.9508zm122.5741-21.4347c-.7532.4346-1.4671.9129-2.285 1.0695-.9494.1817-1.5318.7866-2.0159 1.5128-.2733.41-.4502.7215-1.0219.4298-.2627-.134-.6315.005-.8087.2856-.1561.247.085.4118.2565.5414.6275.4741.6329.4699.2334 1.1266-.0519.0853-.1324.1527-.1938.2328-.3643.4756-.7263.9593-.9481 1.5169-.2136.5371-.3443.6102-.876.3351-.2456-.1271-.9056.1382-1.0028.4381-.1222.3769.212.3793.4368.4786.361.1595.4011.4692.0928.7764-.8236.8204-1.6516 1.6367-2.4895 2.4425-.2171.2088-.2946.3422-.049.6145.4815.5338.4208 1.0867-.1621 1.4747-.4028.2681-.8809.4163-1.3664.22-.2751-.1112-.4956-.0752-.7168.0855-.3738.2715-.7398.5538-1.1188.8176-.1395.0971-.1461.1802-.1022.3395.2019.7313.0308 1.3034-.4475 1.5872-.6254.371-1.4111.2871-1.9297-.225-.1074-.106-.1896-.179-.3481-.136-.4758.1289-1.0741.0895-1.0586.8468.0025.1237-.0877.2589-.16.3729-.4907.7739-1.478.8612-1.8948.0872-.2648-.4918-.5742-.4664-.979-.4397-.2386.0157-.4784.0112-.7172.0235-.5836.0303-1.1686.0924-1.3914-.6646-.0474-.1611-.2205-.3361-.4415-.2672-.2581.0805-.2147.3219-.2018.5209.0073.1139.0562.2283.102.3358.0987.2313.048.3604-.2208.3756-.9145.0517-1.6842.3582-2.136 1.2219-.0307.0588-.0804.1117-.1318.1548-.1267.106-.2636.1616-.4186.0481-.1895-.1388-.3915-.2558-.5892-.0315-.2034.2307-.1646.4618.039.6843.1404.1535.1227.3179-.0388.446-.5889.4667-.9442 1.1208-1.3886 1.7044-.2598.3411-.5056.7179-1.0582.5809-.2915-.0723-.6013-.107-.7844.2771-.1882.3948.1216.5134.3176.7031.0874.0846.1963.1589.1527.2964s-.1396.2648-.2975.2294c-.2631-.059-.3595.1143-.4868.2786-.4702.6068-.8954 1.2506-1.4353 1.8005-.2709.2758-.437.5006-.2447.9507.3219.7537.0445 1.2239-.6932 1.3803-.6144.1303-1.1482-.0998-1.6153-.4591-.1814-.1395-.3111-.1951-.5401-.166-.3978.0506-.6576.1787-.8306.5887-.2375.5626-.7905.7575-1.3537.7593-.3693.0012-.7982-.1561-.9097-.553-.1313-.4675-.4241-.5144-.8046-.503-.205.0062-.4236.05-.6121-.0053-.2541-.0745-.355.0503-.4192.2322-.3004.8509-1.4047 1.0098-1.9697.0378-.2977-.5121-.6992-.5854-1.0225-.4447-.6556.2852-.7692-.175-1.0008-.5339-.037-.0573-.0649-.1211-.1065-.1744-.2369-.3039-.5913-.2935-.7959.0401-.0773.126-.1191.2876-.1305.4365-.013.1696-.1052.2504-.2393.293-.1516.0482-.2594-.048-.3479-.1568-.1208-.1484-.2243-.3106-.1748-.5127.047-.1916-.061-.197-.1945-.1856-.5094.0435-1.0187.0884-1.5282.1312-.3371.0283-.5192.1519-.2691.4884.1249.168.0874.2849-.0592.3864-.1684.1166-.3293.0865-.4449-.0827-.0766-.1121-.1222-.2452-.1975-.3583-.1723-.2589-.2948-.6913-.6941-.5309-.4218.1694-.2813.5976-.2179.9482.0088.0485.0307.1005.0617.1383.1677.2042.05.3825-.0988.4852-.4118.2841-.7571.6397-1.0789 1.009-.2748.3153-.5293.2805-.7851.0548-.2716-.2398-.5708-.3362-.8136-.0692-.2508.2758-.1552.6245.1032.8747.2228.2158.1495.3916-.0619.483-.5904.2553-.9254.7922-1.3872 1.1874-.1285.1099-.1489.2322-.1369.4047.0396.5691-.2366.9296-.7944 1.097-.6562.197-1.1493.089-1.3605-.4459-.2217-.5613-.6017-.3356-.9568-.3342-.3822.0016-.4651.2521-.5174.5698-.0758.4611-.3135.8167-.8251.8382-.7539.0316-1.3573-.454-1.4876-1.2062-.0374-.2159-.1141-.2642-.302-.3185-.4003-.1159-.6964-.1204-.9434.3133-.2983.524-.7804.6927-1.3139.5314-.5026-.152-.7677-.4697-.6447-1.0391.0508-.2355-.1903-.2085-.3208-.226-.7685-.1034-1.4964-.368-2.2221-.6083-1.902-.6298-3.7637-1.3685-5.5223-2.3419-.1322-.0732-.231-.0913-.3761-.0321-.8887.3629-1.8151.6113-2.7294.8989-2.6817.8434-5.3882 1.5195-8.2055 1.7521-2.204.182-4.3982.4049-6.5956.0015-.5804-.1065-1.2256-.1589-1.5873-.7121-.7229-1.1055-1.2985-2.2906-1.6354-3.5715-.1236-.4698-.3642-.6567-.8277-.7503-1.7168-.3467-3.2868.177-4.8528.7494-.8766.3204-1.6706.7741-2.3077 1.477-.1595.176-.1828.3084-.0803.5364 1.0999 2.4471 1.7996 5.0093 2.1929 7.6614.1401.9443.0804 1.869-.3773 2.6937-.8974 1.6171-2.2316 2.8304-3.8055 3.7774-.2562.1542-.2963.2147-.064.4149 1.2822 1.1055 2.567 2.2105 3.9567 3.1782 1.4997 1.0443 3.0244 2.0406 4.6738 2.8606 1.1006.5471 2.1871 1.122 3.3212 1.5982 2.8454 1.1947 5.8449 1.795 8.8751 2.2632 2.3078.3565 4.6365.5148 6.957.246 2.8642-.3318 5.6001-1.2042 8.3003-2.1986 2.315-.8526 4.5231-1.9007 6.6268-3.1973 2.3266-1.434 4.5063-3.046 6.4768-4.9379.5432-.5216 1.0312-1.0938 1.4418-1.8453-2.4788.6706-4.8736 1.0404-7.343.7533-2.4128-.2805-4.7846-.7235-7.0901-1.5005.5166-.038.9995-.19 1.5261-.0267.9615.2982 1.9455.5757 2.9405.7024 1.5699.1999 3.1457.3589 4.7444.1435 1.4946-.2013 2.9944-.348 4.435-.8184.4322-.1411.884-.248 1.2259-.6049 2.0758-2.167 4.6938-3.5221 7.3327-4.8322 2.6991-1.34 5.5631-2.2926 8.3294-3.4755 3.6861-1.5762 7.2912-3.3097 10.5552-5.6729.2034-.1472.4614-.2533.629-.6422-2.2361.8979-4.3188 1.8699-6.6043 2.4964.0554-.1376.0611-.2073.0931-.2229.3835-.1875.7642-.3831 1.1584-.5459 2.4784-1.0238 4.9478-2.0616 7.3148-3.3351 2.7239-1.4655 5.2434-3.2157 7.6155-5.1948 3.0301-2.528 5.7712-5.3511 8.4733-8.215 1.1406-1.2089 2.0853-2.5766 3.1037-3.8857 1.2979-1.6683 2.2642-3.4867 2.9052-5.4884.1438-.4495.2815-.9074.1842-1.4515zm-3.9329-13.0799c-2.0102-.0028-3.937.3413-5.7282 1.3193-2.5434 1.3886-4.5302 3.4345-6.3267 5.6227-1.6472 2.0063-2.876 4.3065-3.1541 6.9717-.1617 1.5499.0556 3.0594.745 4.4745.1006.2065.0838.3074-.0608.4832-.4748.5773-1.1488.8439-1.7647 1.2039-2.1119 1.2345-4.2246 2.463-6.4886 3.413-2.1134.8868-4.2564 1.6805-6.4285 2.4158-1.8443.6243-3.6981 1.2127-5.5552 1.7939-1.6364.5122-3.3315.7724-4.9976 1.1567-1.4511.3347-2.9281.5119-4.3952.7264-.7441.1088-1.3533.2818-1.9104.7999-.5227.486-1.1098.9207-1.7219 1.2895-2.6992 1.6266-5.5657 2.8452-8.6607 3.5141-3.0112.6508-6.021.6316-9.0058-.0564-.8652-.1995-1.5463.0152-2.2397.376-.317.1649-.5756.214-.9138.1053-3.0753-.9885-6.1898-.9577-9.33-.3549-2.5013.4801-4.6746-.1004-6.3799-2.0781-.1441-.1671-.2083-.2411-.3506-.0034-.2358.3937-.5099.7643-.75 1.1556-.1076.1753-.0885.3537-.026.5741.2736.9646.79 1.8194 1.1693 2.7347.1493.3604.4631.4732.7981.5725.813.2412 1.6579.2884 2.4879.2823 3.1895-.0237 6.3347-.4508 9.4386-1.1811.2489-.0586.446.0062.5845.2066.6205.8977 1.4206 1.6391 2.2725 2.2817 2.9791 2.2472 6.3279 3.7164 9.9769 4.4958.6169.1318.724.2648.6034.8601-.0309.1529-.0706.3237.0888.419.1767.1058.2881-.055.3888-.1602.2245-.2347.4276-.4897.652-.7245.2181-.2282.4353-.3806.8038-.2299.3083.1261.6668.1189 1.0147.093.5222-.0388.6668.1608.4686.6373-.1026.2467-.1728.4811-.072.7399.0563.1444.1068.2887.3009.3067.2005.0187.2799-.1155.332-.2606.1094-.3049.2004-.6165.2984-.9255.0467-.1473.0757-.2797.2948-.2807.4995-.0021.9989-.0593 1.4981-.0566.3492.0019.7498-.0283.6855.5534-.0278.2515.2064.408.4386.4208.2524.014.3288-.2088.3601-.4218.0197-.1339.0632-.2934.0124-.4025-.1049-.225-.0106-.3175.1746-.3809.5247-.1796.8443-.6263 1.2531-.9565.0772-.0623.1872-.1496.0805-.2494-.4871-.4554-.2161-.8242.0794-1.2454.334-.4763.9287-.6749 1.455-.4107.1771.0889.3449.3279.5634.0422.2012-.263.5815-.3856.4039-.881-.296-.8255.4899-1.8205 1.3118-1.6293.5705.1327.751-.1385.9797-.5149.2763-.4547.4813-.9406.6965-1.4237.0582-.1307.1425-.322.3183-.2656.1587.0509.0939.2387.0645.3638-.0702.2991-.136.6029-.2476.8875-.1158.2952-.0155.5.2495.5533.6472.1303 1.3232.3137 1.9633.136.5972-.1658.9896-.0238 1.3447.4282.0944.1201.1403.2899.3824.2723.4368-.0317.8971.0824 1.3133-.0133.5868-.1349.6646.1222.6302.5828-.0209.2796-.0358.5719.3064.6761.3525.1073.4764-.1741.612-.4082.1958-.338.3954-.6919.8281-.7281.2635-.022.5389.1014.803.0815.6016-.0452.9553.1706 1.1323.7733.0674.2296.1818.6612.6305.456.3556-.1627.8392-.2473.6938-.8256-.049-.1951.0301-.313.1747-.3742.2949-.1248.5762-.2656.9217-.2796.5141-.0208.9179.082 1.25.5139.2818.3665.6997.4274 1.1133.2162.4524-.231.1105-.5612.0703-.8503-.0117-.084-.0422-.1661-.0701-.247-.1284-.373-.0693-.6714.2505-.9495.5965-.5188.9926-1.2184 1.5367-1.7876.1137-.119.155-.2497.1332-.42-.1363-1.0658.3182-1.5705 1.3973-1.5358.1975.0063.3413-.0318.4259-.2007.2486-.4962.651-.8753.9762-1.3129.0779-.1049.2391-.1946.1912-.3451-.1466-.4604.2021-.7659.3322-1.1382.1492-.4268.5184-.5986.8992-.5055.4164.1018.5868-.1214.7981-.3623.4851-.5531.9497-1.1267 1.4651-1.6502.7418-.7535 1.4425-.8577 2.0682.0822.0939.1411.2069.198.3789.2119.3924.0316.782.0806 1.1765.0236.3556-.0514.714-.1333 1.0689-.1231.2802.0081.7829-.1264.5582.5167-.0564.1614.1216.358.3054.4278.1692.0642.2683-.0639.3697-.1964.214-.2796.2132-.6061.2494-.9274.0373-.3311-.0292-.7647.5614-.4798.1053.0508.2933-.0567.4387-.1045.3432-.1127.6944-.1768 1.0535-.2103.2826-.0264.4828.0921.5277.3615.0394.2365.1217.3929.3662.4165.2704.0262.497-.0409.6616-.2921.2316-.3536.1377-.6933-.024-1.0198-.1708-.3448-.1116-.5432.2411-.7423.6359-.3589 1.2615-.7473 1.8424-1.1881.2946-.2236.5378-.2043.6938.0307.2028.3056.4362.2221.6727.1632.216-.0538.3643-.2456.3538-.4557-.0138-.2753-.19-.4224-.4891-.4928-.4072-.0959-.4313-.3006-.1301-.5909.8009-.7722 1.5934-1.5532 2.403-2.3163.2151-.2028.2695-.3321.0237-.5616-.1835-.1713-.2802-.4331-.2205-.7049.1455-.6628.8471-1.2402 1.5515-1.2869.3537-.0234 1.4135-1.5707 1.2981-1.9004-.0222-.0633-.0759-.1148-.1042-.1767-.4498-.9799.0292-1.8694 1.1001-1.9416.5084-.0343.8049-.2816.9693-.6875.2705-.6677.7722-1.0295 1.4276-1.2126.9142-.2553 1.7462-.6876 2.5439-1.1821.7902-.4898 1.5179-1.0639 1.8845-1.9627.2964-.7266.5441-1.467.6725-2.2494.2931-1.7861.1513-3.5357-.6938-5.1313-1.0717-2.0233-2.8186-3.0589-5.142-3.0517zm-73.6689-9.2268c-.2554 0-.5397-.074-.7614.0124-1.1356.4424-2.1966.9985-3.0936 1.8684-.6135.595-.3577 1.2518.2298 1.7918.323.2969.553.5962.6495 1.0026.0714.3008.1166.6133.287.873 1.0213 1.5561 2.0884 3.0724 3.6536 4.1532.2406.1661.2852.0024.3719-.1494.503-.8808.8845-1.8115 1.097-2.8028.0579-.2701.1971-.3895.4338-.4235.2025-.0291.41-.0249.6154-.0316 3.2097-.1052 6.3396.4324 9.442 1.1815 2.3149.559 4.5857 1.2534 6.7635 2.2309 1.1842.5315 2.4205.9713 3.4783 1.7358.4652.3362.7443.3321 1.0835-.1124.2039-.2672.491-.4219.8595-.2898.7727.277 1.5567.5245 2.3202.8244.7297.2866.8314.2782 1.3578-.3228 1.1169-1.2752 2.1205-2.6297 2.9786-4.0953.2466-.4212.3783-.8341.3196-1.3132-.1627-1.3262-.4303-2.629-.7491-3.9282-.1917-.7811-.552-1.2243-1.3593-1.2709-.0168-.001-.0334-.0075-.05-.0118-.3276-.0859-.5747-.0053-.8135.2633-.55.6186-.9609 1.3254-1.4152 2.0091-.5068.7626-.6043 1.5126-.3617 2.3814.0961.3443.2369.7431-.0085 1.1325-.7693 1.2213-1.8988 2.0484-3.0544 2.8518-.1373.0955-.2886.1751-.4048.0125-.1276-.1786.0461-.2626.1637-.363.6904-.5895 1.4052-1.1609 1.9735-1.8707.4274-.5339.9496-.9937.6991-1.8814-.5531-1.9597-1.3008-3.8213-2.3972-5.5314-.5247-.8185-1.0807-1.6295-1.8376-2.2651-.154-.1294-.3009-.3505-.5726-.1554-.3278.2354-.7019.3502-1.1116.3139-.188-.0167-.2463.0508-.1899.2378.1877.6221.3086 1.2717.5618 1.8652.5749 1.3476.8988 2.7592 1.2001 4.181.0219.1033.0485.2183-.0516.2797-.1297.0795-.2172-.0213-.3037-.1111-.2008-.2084-.2577-.4828-.3331-.7426-.5441-1.8743-1.1989-3.7095-1.9714-5.5005-.5345-1.2392-1.0604-2.492-2.0567-3.4589-.2937-.2851-.5586-.6544-.9134-.8098-.603-.2641-1.4707.3687-1.5302 1.0364-.0243.2724-.0292.5469-.0329.8206-.0136.996.1573 2.0309-.6557 2.8479-.0866.0871-.1172.2506-.1334.3835-.0723.5935-.1829 1.1839-.1376 1.7876.0686.9139.1113.9681 1.0128 1.1516.1338.0272.2699.0431.4047.0658.4539.0765.9084.1499 1.361.2337.0988.0183.1943.0708.218.1899.0159.0803-.0361.166-.0892.162-.5331-.0402-.9502.4186-1.5518.243-1.3765-.4018-2.7823-.7049-4.1799-1.0328-1.9336-.4536-3.9009-.7216-5.8601-1.0314-1.8417-.2912-3.6881-.5475-5.5546-.6184zm-5.8092 1.1501c-.1807.3837-.297.6479-.4289.904-.0765.1486-.1546.3386-.3755.2722-.2591-.0779-.1304-.2848-.0959-.4313.1799-.7644.3742-1.5255.5639-2.2876.086-.3454-.166-1.0071-.4735-1.0916-.6064-.1667-1.2282-.3431-1.863-.2338-.9306.1602-1.866.2411-2.8072.2553-1.0861.0164-2.0666.1698-3.0019.8904-1.6643 1.2822-3.4355 2.4297-5.0955 3.7217-2.7441 2.1359-5.5979 4.1132-8.5175 5.9968-2.1707 1.4004-4.3614 2.7699-6.5411 4.1564-.0912.058-.2287.0989-.1964.2703.3899.0198.7795.0611 1.1683.0546.6413-.0107.9785.3383 1.2398.8819.6536 1.36 1.1535 2.7724 1.5375 4.228.0407.1544.0556.3283.231.3617.1858.0354.179-.1736.2508-.2747.2523-.3553.5538-.6353.9654-.8082.9639-.4048 1.8689-.9269 2.7826-1.4317 2.2325-1.2333 4.4718-2.4555 6.5776-3.9017 2.2286-1.5305 4.4604-3.0566 6.6765-4.6053 1.6132-1.1274 3.158-2.3412 4.4797-3.8136.0605-.0674.1242-.1119.2165-.1168 1.0927-.0582 2.0772-.5472 3.1251-.7834.2515-.0567.3458-.1533.2407-.4203-.2173-.552-.411-1.1135-.659-1.7933zm-23.8888 18.3175c.6584.4949 1.3569.4717 2.0961.1396.8264-.3712 1.6822-.6639 2.5604-.8967.3788-.1004.6321.0249.8471.3028.2826.3651.5693.7282.83 1.1088.229.3343.4116.3825.67.0202.4464-.6258.9118-1.2389 1.3893-1.8414.5617-.7087 1.117-1.4113 1.9512-1.857 1.3103-.7001 2.5856-1.4649 3.8399-2.2641 2.8407-1.8103 5.7763-3.4739 8.4837-5.4901.0969-.0722.1887-.1385.3174-.1517 1.0663-.1098 2.1347-.1292 3.2056-.1042.6537.0152 1.308.0028 2.0319.0028-.3399-.4432-.6114-.8138-.9019-1.1689-.1445-.1766-.217-.525-.4913-.4582-.3085.075-.1032.4115-.1602.625-.0386.1447-.0057.3424-.2059.3646-.2195.0242-.2226-.1956-.2468-.3271-.1111-.604-.2299-1.2077-.2507-1.8252-.0122-.3633-.0484-.7559-.3528-.9825-.6801-.5063-1.417-.7608-2.2722-.3868-.5.2187-1.0264.3825-1.5507.5378-.2053.0608-.3896.1487-.5412.278-1.7148 1.4631-3.427 2.9236-5.3124 4.1754-2.1055 1.398-4.1333 2.914-6.251 4.2926-2.4371 1.5865-5.0345 2.9049-7.5662 4.333-.7692.4337-1.6915.6757-2.1193 1.5733zm-4.0664 5.4126c.1377.0082.1897.0205.2386.0128 1.3998-.219 2.6454.078 3.6723 1.0995.242.2407.4695.128.6942-.0143.4336-.2744.854-.5705 1.2952-.8319 1.5548-.9212 2.9795-1.9786 4.001-3.5152.2617-.3937.3644-.6614-.0731-.9701-.2918-.2059-.5868-.4277-.8159-.6972-.305-.3588-.6747-.4093-1.0656-.295-.6853.2003-1.3698.4286-1.9816.802-.359.2191-.695.248-1.066.1048-.3497-.135-.7118-.2499-1.0389-.4278-.2444-.133-.387-.0743-.516.122-1.0307 1.5688-2.1892 3.0457-3.3442 4.6104zm64.1542-24.4595c.103-.0378.3056.0798.2911-.156-.0069-.1128-.0781-.2516-.2182-.2449-.1508.0071-.329.0628-.3458.2391-.0156.1641.1544.1409.2729.1618zm28.4882 18.6593c-.0085-.0108-.017-.0216-.0256-.0324-.0096.0099-.0192.0197-.0288.0296.0131.011.0261.0221.0392.0331.0051-.0101.0101-.0202.0152-.0303z" fill="#0d0e0d"/><path d="m23.1872 23.1084c.6998.0819 1.1993.4811 1.5531 1.0524 1.1485 1.8548 2.0291 3.8394 2.6959 5.9108.1803.5601.6384.8269.9379 1.251.0196.0277.104.0447.1306.0264.1111-.0761.0483-.1755.0222-.2731-.2598-.973-.515-1.9472-.7761-2.9198-.0355-.1322-.0908-.2584-.042-.4664 2.012 1.3637 4.0182 2.6871 5.7561 4.3664-.045.0633-.0608.1091-.0817.1116-.2893.0345-.6873.0416-.6347.4199.0551.3962.4304.2755.7472.2591 1.3423-.0694 2.6629.1017 3.9141.6022.6847.2739 1.233 1.4633 1.1035 2.1787-.0501.2767-.2417.1873-.3965.1718-2.8371-.2831-5.6745-.5648-8.4252-1.3788-.4957-.1467-.8889-.0135-1.308.3337-2.0283 1.6798-4.078 3.3347-6.1473 4.9638-2.3646 1.8616-4.7145 3.7446-7.1732 5.4821-1.4389 1.0168-2.9161 1.9794-4.3787 2.9625-1.1774.7915-2.299 1.6647-3.5263 2.3838-.5729.3356-.5618.3546-.877-.2446.1512-.9862.5268-1.9087.8738-2.8299.9276-2.4622 1.9624-4.8812 3.1773-7.2184 2.005-3.8571 4.3378-7.5009 7.0589-10.8961 1.6461-2.0539 3.3962-4.0112 5.2636-5.8649.1573-.1559.2998-.3325.5325-.3842z" fill="#7b8e58"/><path d="m5.58 52.338c.0914-.0414.1956-.0666.2718-.1271.2575-.2046.434-.16.6313.1077.2218.3009.4968.5638.7586.8334.0958.0987.2265.1731.371.1005.1568-.0787.1175-.232.1035-.3649-.0471-.4457-.3021-.7926-.5562-1.1374-.158-.2144-.1691-.366.0896-.5353 1.7445-1.1417 3.4862-2.2879 5.2152-3.4528 1.0471-.7055 2.0703-1.4464 3.1034-2.1728 1.2019-.8451 2.3614-1.7457 3.5141-2.6564 1.6339-1.2908 3.2884-2.5556 4.9223-3.8465 1.6358-1.2924 3.2578-2.6022 4.8839-3.9069.2132-.1711.4176-.233.7044-.1508 1.6254.466 3.2745.8274 4.9543 1.0357 1.2178.151 2.4355.3045 3.656.4307.275.0284.3815.0913.3962.3852.0242.4832.3064.8499.6585 1.1631.1114.0991.2271.1618.3594.0356.1256-.1199.0909-.2386.0024-.3654-.1699-.2435-.2609-.5076-.1885-.855.6818.4903 1.2568 1.0406 1.8068 1.6194.2012.2118.0857.2819-.1376.3143-.4214.0611-.84.164-1.2632.1867-.9197.0494-1.8394.0847-2.7547.1987-.1465.0182-.3031-.0301-.4531-.0581-.1956-.0365-.3927-.0247-.5356.1096-1.2119 1.1395-2.6483 1.9813-3.9549 2.9949-1.3908 1.0789-2.7466 2.2095-4.1938 3.2071-1.4768 1.018-2.8787 2.138-4.3996 3.0981-2.1525 1.3588-4.2826 2.7534-6.4442 4.0987-1.2758.794-2.516 1.6488-3.8199 2.3927-.7829.4467-1.692.5061-2.5958.4286-.1584-.0136-.37-.0875-.4593.1149-.0959.2173-.0389.4273.2212.4767.4652.0883.2235.3379.1127.5123-.422.664-.907 1.2856-1.4363 1.8646-1.7663 1.9322-3.6686 3.7222-5.7095 5.3633.1785-1.7038.4053-3.4003.7064-5.0876.3825-2.1429.8608-4.2627 1.4592-6.3555z" fill="#5a5b36"/><path d="m5.0575 85.8334c.7773.2184 1.2461.7481 1.6004 1.4573 1.803 3.6086 3.6108 7.215 5.4554 10.8025 1.2197 2.3721 2.3162 4.8022 3.4908 7.1951.4919 1.002.4836 2.0803.5526 3.1476.0242.3735.0143.7465.1406 1.1052-.3637-.1988-.5116-.5848-.7294-.896-1.9096-2.7288-3.6887-5.536-5.2045-8.51-1.9045-3.7365-3.479-7.5976-4.634-11.6306-.253-.884-.5376-1.758-.6719-2.6711z" fill="#7c8d58"/><path d="m27.9683 97.4181c.2972 1.6817.6471 3.3566.2582 5.0784-.1509.6681-.5163 1.2025-.9656 1.665-1.1485 1.182-2.5926 1.8656-4.157 2.3183-.2951.0854-.5709-.0229-.766-.2013-1.5424-1.4108-3.5147-1.7467-5.4364-2.2175-.5727-.1403-1.2273-.2068-1.3079-.9908-.0408-.3973.0693-.7788.2035-1.1533.5179-1.4455 1.2394-2.8081 1.7274-4.2658.3201-.9562.6016-1.9223.8093-2.9094.6673.0211 1.0835.5228 1.5764.8571.5051.3425.9535.769 1.4226 1.1638.3503.2948.7837.4019 1.1996.5514.8753.3146 1.6981.7631 2.6741.7903.8482.0237 1.6714.0885 2.3539-.5441.1136-.1054.2323-.2091.4079-.1421z" fill="#dcdfa1"/><g fill="#0d0e0d"><path d="m58.9755 69.4086c-1.0723-.3288-2.1647-.5014-3.2735-.2677-3.6536.77-6.6671 2.6431-9.1751 5.3737-.4201.4574-.8352.9194-1.3039 1.3412.0467-.5273.3468-.9293.6698-1.2772 1.5162-1.6329 3.0991-3.2127 5.0259-4.3546 2.016-1.1948 4.1573-2.1185 6.5797-1.9825 1.0262.0576 2.0356.2536 2.7877 1.0876.1724.1911.4756.1529.7214.1996.8605.1636 1.136.4347 1.1221 1.2799-.0234 1.4209.3394 2.7351.9734 3.9925.1451.2879.2375.6039.3366.9126.0336.1047.0641.2534-.1043.2942-.109.0264-.1974-.0293-.2517-.131-.8536-1.5968-1.7424-3.1827-1.6798-5.0811.0096-.2908-.0871-.43-.3987-.464-1.6102-.1756-3.1717.0486-4.6784.6045-1.2823.4731-2.5602.9711-3.7191 1.7166-.345.2219-.6753.4665-1.0151.6966-.0981.0664-.2141.1505-.3224.0362-.141-.149-.0004-.2535.0938-.3406.6228-.5756 1.3589-.9838 2.1027-1.3711 1.3165-.6855 2.5514-1.5459 4.0182-1.9151.4949-.1248.9937-.234 1.4907-.3503z"/><path d="m52.4041 77.604c.1698.5038.585.7389 1.0344.9254.8191.3399 1.6884.4198 2.5619.4719.181.0108.4795-.0617.492.144.0162.2672-.3203.2104-.4858.2208-.8905.0558-1.7791.0281-2.6324-.2839-.7537-.2756-1.6061-.0016-2.075.672-.176.2528-.3484.5082-.5297.7572-.0701.0963-.1613.2033-.2941.0965-.1036-.0833-.042-.1838.0088-.2753.5209-.9383.866-1.9194.8658-3.0157-.0001-.377.3834-.602.6292-.8363 1.4784-1.4092 3.2204-2.2145 5.301-2.1805.5413.0088.9358.1547 1.2611.6809.5122.8287 1.347 1.3488 2.2006 1.8037.3626.1932.7384.3617 1.1073.5432.1346.0662.2332.1683.17.3249-.0601.1491-.2142.1088-.3154.075-.4377-.1465-.875-.2977-1.3003-.4763-.2713-.1139-.4796-.0762-.7064.1043-1.4319 1.1392-3.0997 1.2588-4.8207 1.0544-.8531-.1013-1.6496-.4126-2.3728-.89-.0429-.0426-.0907-.092-.1434-.0247-.0121.015.0279.0711.0439.1085zm3.3433-.0164c.9148.0561 1.7043-.0687 2.4801-.288.1652-.0467.47-.0178.4412-.244-.0424-.3328.2417-.7045-.0401-.9822-.6354-.6261-1.2932-1.2563-2.314-.8595-.1037.0403-.2004.0156-.2961.0319-1.0332.1756-2.036.4361-2.8952 1.0816-.224.1683-.3028.3223.0056.4782.858.4335 1.7102.8876 2.6185.782z"/><path d="m92.7748 63.5491c-.7096.3145-1.4177.6324-2.1291.943-1.805.788-3.5569 1.691-5.1542 2.8358-1.8373 1.3168-3.5292 2.8141-4.7928 4.7266-.1471.2227-.3093.3289-.5472.1734-.2677-.1751-.2274-.4159-.0464-.6155.7887-.8704 1.5164-1.8018 2.3963-2.5826 1.9936-1.7694 4.2334-3.1681 6.6462-4.2917 1.1564-.5385 2.3565-.9611 3.5722-1.338.0184.0497.0367.0993.055.149z"/><path d="m58.2145 81.3018c-1.0211.1106-2.145.2341-3.277.1346-.6359-.0559-1.2385-.2409-1.7975-.5554-.2308-.1298-.3985-.3202-.5044-.5612-.0543-.1235-.0084-.2448.0766-.331.1126-.1144.2413-.0342.3171.0476 1.0842 1.1704 2.4857.9212 3.8395.8557 1.0801-.0522 2.1396-.2283 3.1483-.6446.2352-.0971.4881-.1435.6742-.3487.173-.1908.3351-.0676.488.0617.1737.1469.1452.2811.0054.4348-.7916.8699-1.8185 1.378-2.8616 1.8584-.1123.0517-.2936.0923-.3571-.0731-.0495-.129.1029-.2012.1869-.2761.0881-.0786.2112-.1195.2947-.2015.0828-.0813.3158-.0762.2197-.265-.0567-.111-.1938-.1955-.4528-.1362z"/><path d="m83.0722 72.993c-.3136-.0155-.5688-.0928-.5504-.3887.0158-.2544.2782-.1721.4518-.1795.2027-.0086.4058-.009.6088-.0126.1644-.0029.3302.0384.3586.2129.0306.1879-.1622.181-.2814.2163-.2105.0624-.4252.1104-.5874.1516z"/></g><path d="m127.3279 63.4478c.0973.544-.0404 1.0019-.1843 1.4515-.641 2.0018-1.6073 3.8202-2.9052 5.4884-1.0184 1.3091-1.9631 2.6768-3.1037 3.8857-2.7021 2.8639-5.4433 5.687-8.4733 8.215-2.3722 1.9791-4.8917 3.7293-7.6155 5.1948-2.367 1.2735-4.8364 2.3113-7.3148 3.3351-.3942.1628-.7749.3584-1.1584.5459-.0321.0157-.0377.0853-.0931.2229 2.2855-.6265 4.3682-1.5985 6.6043-2.4964-.1676.3889-.4256.4949-.629.6422-3.264 2.3632-6.8691 4.0967-10.5552 5.6729-2.7662 1.1829-5.6303 2.1356-8.3294 3.4755-2.6389 1.3101-5.2569 2.6651-7.3327 4.8322-.3419.3569-.7937.4638-1.2259.6049-1.4407.4704-2.9404.617-4.435.8184-1.5987.2154-3.1745.0564-4.7444-.1435-.9949-.1267-1.9789-.4042-2.9405-.7024-.5267-.1633-1.0096-.0113-1.5261.0267 2.3054.777 4.6773 1.22 7.0901 1.5005 2.4694.2871 4.8643-.0827 7.343-.7533-.4106.7515-.8986 1.3237-1.4418 1.8453-1.9705 1.8919-4.1502 3.5039-6.4768 4.9379-2.1037 1.2966-4.3118 2.3448-6.6268 3.1973-2.7002.9944-5.4361 1.8668-8.3003 2.1986-2.3205.2688-4.6492.1106-6.957-.246-3.0303-.4681-6.0298-1.0684-8.8751-2.2632-1.1342-.4762-2.2206-1.0511-3.3212-1.5982-1.6495-.8199-3.1741-1.8162-4.6738-2.8606-1.3897-.9677-2.6745-2.0726-3.9567-3.1782-.2323-.2003-.1922-.2607.064-.4149 1.5739-.947 2.908-2.1603 3.8055-3.7774.4576-.8246.5173-1.7494.3773-2.6937-.3933-2.6522-1.0931-5.2143-2.1929-7.6614-.1025-.228-.0792-.3604.0803-.5364.6371-.7029 1.4311-1.1566 2.3077-1.477 1.566-.5724 3.136-1.0961 4.8528-.7494.4635.0936.7041.2805.8277.7503.3369 1.2809.9125 2.466 1.6354 3.5715.3617.5531 1.0068.6055 1.5873.7121 2.1974.4034 4.3916.1805 6.5956-.0015 2.8173-.2327 5.5238-.9088 8.2055-1.7521.9144-.2876 1.8407-.536 2.7294-.8989.1451-.0593.2439-.0411.3761.0321 1.7585.9734 3.6203 1.712 5.5223 2.3419.7257.2403 1.4536.5048 2.2221.6083.1306.0176.3717-.0095.3208.226-.123.5695.1421.8871.6447 1.0391.5336.1613 1.0156-.0074 1.3139-.5314.2469-.4337.5431-.4292.9434-.3133.1879.0544.2645.1026.302.3185.1303.7523.7337 1.2378 1.4876 1.2062.5116-.0214.7493-.3771.8251-.8382.0522-.3178.1352-.5683.5174-.5698.3551-.0015.7351-.2271.9568.3342.2113.5348.7043.6428 1.3605.4459.5578-.1674.834-.5279.7944-1.097-.012-.1725.0084-.2948.1369-.4047.4618-.3952.7968-.9321 1.3872-1.1874.2113-.0914.2847-.2673.0619-.483-.2584-.2502-.354-.5989-.1032-.8747.2428-.267.542-.1706.8136.0692.2558.2257.5103.2606.7851-.0548.3218-.3693.6671-.7249 1.0789-1.009.1488-.1027.2666-.2809.0988-.4852-.0311-.0378-.053-.0897-.0617-.1383-.0634-.3506-.2039-.7788.2179-.9482.3993-.1604.5217.2719.6941.5309.0753.1132.1209.2462.1975.3583.1156.1692.2766.1993.4449.0827.1465-.1015.184-.2184.0592-.3864-.2502-.3365-.0681-.4601.2691-.4884.5095-.0427 1.0188-.0877 1.5282-.1312.1335-.0114.2415-.006.1945.1856-.0496.2021.0539.3643.1748.5127.0885.1088.1963.205.3479.1568.1342-.0426.2263-.1234.2393-.293.0114-.1489.0533-.3105.1305-.4365.2045-.3336.559-.344.7959-.0401.0416.0534.0696.1172.1065.1744.2316.3589.3452.819 1.0008.5339.3233-.1406.7248-.0673 1.0225.4447.565.9719 1.6693.8131 1.9697-.0378.0642-.1818.1651-.3067.4192-.2322.1884.0553.4071.0115.6121.0053.3805-.0114.6733.0355.8046.503.1115.397.5404.5542.9097.553.5633-.0018 1.1163-.1967 1.3537-.7593.173-.4099.4328-.538.8306-.5887.229-.0291.3587.0265.5401.166.4671.3592 1.0009.5893 1.6153.4591.7377-.1564 1.0151-.6266.6932-1.3803-.1922-.4501-.0261-.6749.2447-.9507.54-.5499.9652-1.1937 1.4353-1.8005.1273-.1644.2238-.3376.4868-.2786.1578.0354.2538-.0919.2975-.2294.0436-.1375-.0653-.2118-.1527-.2964-.196-.1897-.5058-.3083-.3176-.7031.1831-.384.4929-.3493.7844-.2771.5527.137.7985-.2398 1.0582-.5809.4444-.5836.7997-1.2376 1.3886-1.7044.1616-.128.1792-.2925.0388-.446-.2036-.2225-.2423-.4536-.039-.6843.1977-.2242.3996-.1072.5892.0315.155.1134.2919.0579.4186-.0481.0514-.043.1011-.096.1318-.1548.4519-.8637 1.2216-1.1701 2.136-1.2219.2689-.0152.3196-.1442.2208-.3756-.0459-.1075-.0947-.222-.102-.3358-.0129-.1991-.0563-.4404.2018-.5209.221-.069.3941.1061.4415.2672.2228.757.8078.6948 1.3914.6646.2389-.0124.4787-.0078.7172-.0235.4049-.0267.7142-.0521.979.4397.4168.7739 1.4041.6867 1.8948-.0872.0723-.114.1626-.2492.16-.3729-.0155-.7573.5828-.7178 1.0586-.8468.1585-.043.2407.03.3481.136.5186.5121 1.3043.596 1.9297.225.4783-.2838.6494-.8559.4475-1.5872-.044-.1593-.0374-.2424.1022-.3395.379-.2638.7451-.5462 1.1188-.8176.2212-.1607.4417-.1967.7168-.0855.4856.1963.9636.0481 1.3664-.22.5829-.388.6436-.9408.1621-1.4747-.2456-.2723-.1681-.4057.049-.6145.8379-.8058 1.6658-1.6221 2.4895-2.4425.3084-.3072.2683-.6169-.0928-.7764-.2247-.0993-.559-.1016-.4368-.4786.0972-.2999.7573-.5653 1.0028-.4381.5317.2752.6624.202.876-.3351.2218-.5576.5838-1.0412.9481-1.5169.0614-.0801.1419-.1475.1938-.2328.3995-.6567.3941-.6525-.2334-1.1266-.1715-.1296-.4126-.2944-.2565-.5414.1772-.2805.546-.4196.8087-.2856.5718.2917.7487-.0198 1.0219-.4298.484-.7263 1.0665-1.3312 2.0159-1.5128.818-.1565 1.5319-.6349 2.2851-1.0695z" fill="#dddfa1"/><path d="m123.395 50.3679c2.3234-.0072 4.0703 1.0284 5.142 3.0519.8451 1.5956.9869 3.3452.6938 5.1313-.1284.7824-.3761 1.5228-.6725 2.2494-.3666.8988-1.0943 1.4729-1.8845 1.9627-.7977.4945-1.6297.9268-2.5439 1.1821-.6554.1831-1.1571.5449-1.4276 1.2126-.1644.4059-.4609.6532-.9693.6875-1.0709.0722-1.5499.9617-1.1001 1.9416.0284.0619.0821.1134.1042.1767.1154.3297-.9444 1.877-1.2981 1.9004-.7044.0467-1.4061.624-1.5515 1.2869-.0597.2718.037.5336.2205.7049.2458.2295.1915.3588-.0237.5616-.8095.763-1.602 1.5441-2.403 2.3163-.3012.2903-.2771.495.1301.5909.2991.0704.4753.2175.4891.4928.0106.2101-.1378.4019-.3538.4557-.2365.0589-.4698.1424-.6727-.1632-.156-.235-.3991-.2543-.6938-.0307-.5808.4408-1.2064.8292-1.8424 1.1881-.3527.1991-.4119.3974-.2411.7423.1617.3265.2556.6662.024 1.0198-.1645.2513-.3912.3183-.6616.2921-.2445-.0237-.3268-.1801-.3662-.4165-.0449-.2694-.2451-.3879-.5277-.3615-.3591.0335-.7104.0976-1.0535.2103-.1454.0478-.3333.1553-.4387.1045-.5906-.2849-.524.1488-.5614.4798-.0362.3213-.0354.6478-.2494.9274-.1014.1325-.2005.2606-.3697.1964-.1839-.0698-.3618-.2664-.3054-.4278.2247-.6431-.278-.5086-.5582-.5167-.3549-.0102-.7133.0717-1.0689.1231-.3945.057-.7841.0081-1.1765-.0236-.1719-.0139-.2849-.0708-.3789-.2119-.6257-.9399-1.3264-.8357-2.0682-.0822-.5153.5235-.9799 1.0971-1.4651 1.6502-.2113.241-.3817.4641-.7981.3623-.3808-.0931-.7501.0786-.8992.5055-.1301.3723-.4788.6778-.3322 1.1382.0479.1505-.1133.2403-.1912.3451-.3251.4376-.7275.8167-.9762 1.3129-.0846.1689-.2284.207-.4259.2007-1.0791-.0347-1.5336.4701-1.3973 1.5358.0218.1703-.0195.301-.1332.42-.5441.5692-.9402 1.2688-1.5367 1.7876-.3198.2781-.3789.5765-.2505.9495.0279.0809.0584.163.0701.247.0402.2892.3821.6193-.0703.8503-.4137.2112-.8316.1503-1.1133-.2162-.3321-.4319-.7359-.5347-1.25-.5139-.3455.014-.6267.1548-.9217.2796-.1446.0612-.2238.179-.1747.3742.1454.5783-.3382.6629-.6938.8256-.4486.2052-.563-.2263-.6305-.456-.177-.6027-.5307-.8186-1.1323-.7733-.2642.0199-.5395-.1035-.803-.0815-.4327.0361-.6324.3901-.8281.7281-.1357.2342-.2595.5155-.612.4082-.3421-.1042-.3273-.3965-.3064-.6761.0344-.4606-.0434-.7178-.6302-.5828-.4162.0957-.8765-.0184-1.3133.0133-.242.0175-.288-.1522-.3824-.2723-.3551-.452-.7474-.594-1.3447-.4282-.6401.1777-1.3161-.0057-1.9633-.136-.2649-.0533-.3653-.2581-.2495-.5533.1116-.2846.1774-.5885.2476-.8875.0294-.1251.0942-.3128-.0645-.3638-.1758-.0564-.2601.1349-.3183.2656-.2152.4831-.4202.969-.6965 1.4237-.2288.3764-.4093.6476-.9797.5149-.8219-.1912-1.6078.8038-1.3118 1.6293.1776.4954-.2027.618-.4039.881-.2185.2857-.3863.0467-.5634-.0422-.5264-.2642-1.121-.0657-1.455.4107-.2954.4213-.5664.79-.0794 1.2454.1068.0998-.0033.187-.0805.2494-.4088.3302-.7284.7769-1.2531.9565-.1852.0634-.2795.1559-.1746.3809.0508.109.0073.2686-.0124.4025-.0313.213-.1077.4358-.3601.4218-.2322-.0129-.4664-.1693-.4386-.4208.0643-.5817-.3363-.5515-.6855-.5534-.4992-.0027-.9986.0544-1.4981.0566-.2191.0009-.2481.1333-.2948.2807-.098.309-.189.6205-.2984.9255-.052.1451-.1315.2793-.332.2606-.1942-.0181-.2447-.1623-.3009-.3067-.1008-.2588-.0306-.4933.072-.7399.1982-.4766.0536-.6762-.4686-.6373-.348.0259-.7065.0331-1.0147-.093-.3685-.1507-.5857.0016-.8038.2299-.2243.2348-.4275.4898-.652.7245-.1007.1052-.2121.2659-.3888.1602-.1594-.0954-.1197-.2662-.0888-.419.1206-.5953.0135-.7283-.6034-.8601-3.649-.7794-6.9978-2.2486-9.9769-4.4958-.8518-.6425-1.652-1.384-2.2725-2.2817-.1385-.2004-.3356-.2651-.5845-.2066-3.1039.7303-6.2491 1.1574-9.4386 1.1811-.83.0062-1.6749-.0411-2.4879-.2823-.335-.0994-.6488-.2121-.7981-.5725-.3793-.9153-.8957-1.7701-1.1693-2.7347-.0625-.2204-.0816-.3988.026-.5741.2402-.3912.5142-.7619.75-1.1556.1423-.2376.2065-.1637.3506.0034 1.7053 1.9777 3.8786 2.5582 6.3799 2.0781 3.1402-.6028 6.2547-.6336 9.33.3549.3382.1087.5968.0596.9138-.1053.6934-.3608 1.3745-.5755 2.2397-.376 2.9848.6881 5.9946.7072 9.0058.0564 3.095-.6689 5.9615-1.8875 8.6607-3.5141.6121-.3688 1.1992-.8035 1.7219-1.2895.5571-.5181 1.1663-.6911 1.9104-.7999 1.467-.2144 2.944-.3917 4.3952-.7264 1.6662-.3843 3.3612-.6445 4.9976-1.1567 1.8571-.5812 3.7109-1.1696 5.5552-1.7939 2.1721-.7353 4.3151-1.529 6.4285-2.4158 2.2639-.95 4.3767-2.1785 6.4886-3.413.6159-.36 1.2899-.6267 1.7647-1.2039.1446-.1758.1615-.2767.0608-.4832-.6894-1.415-.9068-2.9245-.745-4.4745.2781-2.6652 1.507-4.9654 3.1541-6.9717 1.7965-2.1882 3.7833-4.2341 6.3267-5.6227 1.7912-.9782 3.718-1.3223 5.7282-1.3195zm-4.4772 6.4228c-.1479.046-.303.073-.4383.14-.641.3176-1.1562.7845-1.5574 1.374-.1975.2902-.3736.6145-.1316.9466.2621.3596.6383.258.9835.1356.7657-.2713 1.2462-.8829 1.7099-1.4981.17-.2256.3304-.4968.1705-.808-.1596-.3105-.5065-.1295-.7366-.2901zm6.6752-3.5861c.1445-.0341.4313-.0802.7029-.1715.2885-.097.5288-.2684.4215-.6336-.1084-.3687-.2872-.6649-.755-.5714-.3202.064-.6257.1729-.8767.3807-.1911.1583-.3959.3458-.2961.6386.1059.3104.3724.3661.8034.3572z" fill="#dddfa1"/><path d="m49.7261 41.1411c1.8665.0708 3.7129.3272 5.5545.6184 1.9592.3099 3.9265.5779 5.8601 1.0314 1.3975.3278 2.8033.631 4.1799 1.0328.6016.1756 1.0187-.2832 1.5518-.243.0531.004.1052-.0818.0892-.162-.0237-.1191-.1192-.1716-.218-.1899-.4526-.0838-.9071-.1572-1.361-.2337-.1348-.0227-.2709-.0386-.4047-.0658-.9015-.1835-.9441-.2377-1.0128-1.1516-.0453-.6037.0653-1.1942.1376-1.7876.0162-.133.0468-.2965.1334-.3835.813-.8171.6421-1.852.6557-2.8479.0037-.2737.0087-.5482.0329-.8206.0595-.6677.9272-1.3005 1.5302-1.0364.3549.1554.6197.5247.9134.8098.9963.9669 1.5222 2.2197 2.0567 3.4589.7724 1.791 1.4273 3.6262 1.9714 5.5005.0754.2598.1323.5342.3331.7426.0865.0898.174.1906.3037.1111.1-.0614.0734-.1764.0516-.2797-.3013-1.4218-.6252-2.8335-1.2001-4.181-.2532-.5935-.3741-1.2431-.5618-1.8652-.0564-.187.0019-.2545.1899-.2378.4097.0363.7838-.0785 1.1116-.3139.2717-.1951.4186.026.5726.1554.7568.6356 1.3128 1.4467 1.8376 2.2651 1.0964 1.7101 1.8441 3.5717 2.3972 5.5314.2505.8877-.2716 1.3475-.6991 1.8814-.5683.7098-1.2831 1.2812-1.9735 1.8707-.1176.1004-.2913.1844-.1637.363.1162.1626.2675.083.4048-.0125 1.1556-.8033 2.285-1.6305 3.0544-2.8518.2454-.3895.1046-.7882.0085-1.1325-.2426-.8689-.1451-1.6188.3617-2.3814.4543-.6837.8652-1.3905 1.4152-2.0091.2388-.2685.4859-.3491.8135-.2633.0166.0043.0331.0108.05.0118.8073.0466 1.1676.4898 1.3593 1.2709.3188 1.2992.5864 2.602.7491 3.9282.0588.479-.073.892-.3196 1.3132-.8581 1.4655-1.8617 2.82-2.9786 4.0953-.5264.601-.6281.6094-1.3578.3228-.7635-.2999-1.5475-.5474-2.3202-.8244-.3684-.1321-.6556.0227-.8595.2898-.3392.4446-.6183.4486-1.0835.1124-1.0579-.7645-2.2942-1.2043-3.4783-1.7358-2.1779-.9775-4.4486-1.6719-6.7635-2.2309-3.1024-.7491-6.2323-1.2866-9.442-1.1815-.2054.0067-.4129.0025-.6154.0316-.2367.034-.3759.1533-.4338.4235-.2125.9913-.594 1.922-1.097 2.8028-.0867.1518-.1313.3155-.3719.1494-1.5652-1.0807-2.6323-2.5971-3.6536-4.1532-.1704-.2596-.2156-.5722-.287-.873-.0965-.4064-.3265-.7057-.6495-1.0026-.5875-.54-.8433-1.1968-.2298-1.7918.897-.8699 1.958-1.426 3.0936-1.8684.2219-.0863.5061-.0124.7615-.0124z" fill="#7c8d58"/><path d="m43.9169 42.2912c.248.6798.4418 1.2413.6591 1.7935.105.2669.0107.3636-.2407.4203-1.0479.2362-2.0324.7252-3.1251.7834-.0923.0049-.156.0494-.2165.1168-1.3217 1.4724-2.8665 2.6862-4.4797 3.8136-2.216 1.5486-4.4478 3.0748-6.6765 4.6053-2.1059 1.4462-4.3451 2.6683-6.5776 3.9017-.9137.5047-1.8187 1.0269-2.7826 1.4317-.4116.1728-.7131.4529-.9654.8082-.0718.101-.065.31-.2508.2747-.1754-.0334-.1903-.2074-.231-.3617-.384-1.4557-.8839-2.868-1.5375-4.228-.2613-.5437-.5985-.8927-1.2398-.8819-.3888.0065-.7784-.0348-1.1683-.0546-.0323-.1714.1052-.2122.1964-.2703 2.1797-1.3865 4.3704-2.7559 6.5411-4.1564 2.9197-1.8836 5.7734-3.8609 8.5175-5.9968 1.66-1.292 3.4311-2.4396 5.0955-3.7217.9354-.7206 1.9159-.874 3.0019-.8904.9412-.0142 1.8766-.0951 2.8072-.2553.6348-.1093 1.2566.0671 1.863.2338.3075.0845.5595.7462.4735 1.0916-.1897.7621-.384 1.5232-.5639 2.2876-.0345.1466-.1632.3534.0959.4313.2208.0664.299-.1236.3755-.2722.1317-.2563.248-.5204.4288-.9042z" fill="#7b8e58"/><path d="m20.0281 60.6087c.4277-.8976 1.3501-1.1396 2.119-1.5733 2.5317-1.4281 5.1291-2.7465 7.5662-4.333 2.1177-1.3786 4.1455-2.8945 6.251-4.2926 1.8854-1.2519 3.5976-2.7123 5.3124-4.1754.1516-.1294.3359-.2172.5412-.278.5243-.1553 1.0507-.3191 1.5507-.5378.8552-.374 1.5921-.1194 2.2722.3868.3044.2266.3406.6192.3528.9825.0208.6175.1396 1.2212.2507 1.8252.0242.1315.0273.3513.2468.3271.2002-.0221.1673-.2199.2059-.3646.057-.2135-.1483-.55.1602-.625.2743-.0667.3468.2817.4913.4582.2905.3551.562.7257.9019 1.1689-.7239 0-1.3782.0124-2.0319-.0028-1.0709-.025-2.1393-.0056-3.2056.1042-.1288.0133-.2205.0796-.3174.1517-2.7074 2.0162-5.643 3.6798-8.4837 5.4901-1.2542.7993-2.5296 1.564-3.8399 2.2641-.8341.4457-1.3894 1.1483-1.9512 1.857-.4775.6025-.9429 1.2156-1.3893 1.8414-.2584.3622-.441.3141-.67-.0202-.2607-.3806-.5474-.7437-.83-1.1088-.215-.2779-.4683-.4033-.8471-.3028-.8781.2328-1.7339.5255-2.5604.8967-.7389.3321-1.4373.3553-2.0958-.1396z" fill="#5a5b36"/><path d="m15.9617 66.0213c1.155-1.5647 2.3135-3.0417 3.3442-4.6105.129-.1963.2716-.255.516-.122.3271.178.6892.2928 1.0389.4278.371.1432.707.1143 1.066-.1048.6119-.3734 1.2963-.6017 1.9816-.802.3909-.1142.7606-.0638 1.0656.295.2291.2695.5241.4913.8159.6972.4375.3087.3349.5764.0731.9701-1.0215 1.5366-2.4463 2.594-4.001 3.5152-.4411.2614-.8616.5574-1.2952.8319-.2247.1423-.4522.255-.6942.0143-1.0269-1.0215-2.2725-1.3185-3.6723-1.0995-.0489.0078-.1009-.0045-.2386-.0127z" fill="#5a5b36"/><path d="m80.1159 41.5618c-.1185-.0209-.2885.0024-.2729-.1618.0168-.1763.1949-.232.3458-.2391.1401-.0066.2113.1321.2182.2449.0144.2357-.1881.1182-.2911.156z" fill="#5a5b36"/><path d="m108.3936 60.4544c.0322-.0196.0645-.0391.0967-.0587-.0134.038-.0268.0761-.0401.1142-.0188-.0182-.0378-.0368-.0566-.0555z" fill="#7b8e58"/><path d="m108.6041 60.2211c-.005.0101-.0101.0202-.0151.0303-.0131-.011-.0261-.0221-.0392-.0331.0096-.0099.0192-.0197.0288-.0296.0084.0108.0169.0216.0255.0324z" fill="#7b8e58"/><path d="m55.7474 77.5876c-.9083.1057-1.7605-.3484-2.6185-.782-.3085-.1558-.2296-.3099-.0056-.4782.8591-.6455 1.8619-.906 2.8952-1.0816.0957-.0163.1924.0085.2961-.0319 1.0208-.3968 1.6786.2334 2.314.8595.2819.2777-.0022.6493.0401.9822.0288.2262-.276.1973-.4412.244-.7758.2192-1.5652.3441-2.4801.288zm-.2514-1.7573c-.4169-.1613-.7175.1267-.7734.5394-.0557.4104.3353.6074.6865.7065.5935.1673 1.1828.1014 1.7508-.1387.2234-.0944.4853-.206.4217-.4913-.0557-.2504-.262-.494-.5411-.4688-.5033.0455-.9687-.1642-1.5445-.1471z" fill="#e7e084"/><path d="m52.4041 77.604c-.016-.0373-.056-.0934-.0439-.1088.0527-.0673.1005-.0179.1434.0247-.0331.0279-.0663.056-.0995.0841z" fill="#7b8e58"/><path d="m118.9178 56.7907c.2301.1606.577-.0204.7366.2901.1599.3112-.0005.5824-.1705.808-.4636.6152-.9442 1.2269-1.7099 1.4981-.3452.1223-.7214.224-.9835-.1356-.2421-.3322-.066-.6564.1316-.9466.4012-.5895.9164-1.0564 1.5574-1.374.1353-.0671.2904-.094.4383-.14zm-1.1758 1.3771c.1842.0494.3556.1104.5322.1393.2728.0446.3831-.1782.5122-.3526.0586-.0793.0322-.1847-.0548-.2164-.1807-.0659-.3626-.2025-.5582.0032-.1356.1427-.3507.2069-.4314.4265z" fill="#0d0e0d"/><path d="m125.593 53.2046c-.431.0089-.6976-.0468-.8034-.3571-.0999-.2928.1049-.4803.2961-.6386.2509-.2078.5564-.3167.8767-.3807.4678-.0936.6466.2027.755.5714.1073.3651-.1329.5366-.4215.6336-.2716.0912-.5583.1373-.7029.1714z" fill="#0d0e0d"/><path d="m55.496 75.8303c.5758-.0171 1.0411.1926 1.5445.1471.2791-.0253.4853.2183.5411.4688.0635.2853-.1984.3969-.4217.4913-.568.2401-1.1573.306-1.7508.1387-.3513-.099-.7422-.296-.6865-.7065.056-.4127.3565-.7007.7734-.5394zm1.5608.598c-.477.005-.8212.092-1.1293.3071.3692.028.7312.0306 1.1293-.3071z" fill="#0d0e0d"/><path d="m117.742 58.1678c.0807-.2196.2958-.2839.4313-.4265.1956-.2057.3775-.0691.5582-.0032.087.0317.1135.1371.0548.2164-.1291.1745-.2394.3973-.5122.3526-.1765-.0288-.3478-.0898-.5321-.1393z" fill="#5a5b36"/><path d="m57.0568 76.4283c-.3981.3378-.7601.3352-1.1293.3071.3081-.2152.6523-.3022 1.1293-.3071z" fill="#dcdfa1"/></svg>