<svg enable-background="new 0 0 141.7958 141.7858" viewBox="0 0 141.7958 141.7858" xmlns="http://www.w3.org/2000/svg"><path d="m141.6101 71.9309c-.2148-19.4761-6.7194-36.0207-19.9137-49.7024-13.0028-13.4832-29.0588-20.7793-47.7863-21.5836-20.207-.8679-37.8562 5.7425-52.4445 19.7621-13.5324 13.0049-20.8261 29.1039-21.6161 47.8739-.8505 20.2105 5.7775 37.8494 19.8087 52.4262 13.0031 13.5087 29.0924 20.7846 47.8418 21.5698 20.2295.8472 37.8949-5.7798 52.4559-19.8565 14.3304-13.8536 21.3742-31.0002 21.6542-50.4895z" fill="#fff"/><path d="m141.6101 71.9309c-.28 19.4893-7.3239 36.6359-21.6542 50.4895-14.561 14.0767-32.2264 20.7036-52.4559 19.8565-18.7494-.7852-34.8387-8.0611-47.8418-21.5698-14.0312-14.5769-20.6592-32.2158-19.8087-52.4262.7899-18.77 8.0836-34.8689 21.6161-47.8739 14.5883-14.0196 32.2375-20.6301 52.4445-19.7621 18.7275.8044 34.7835 8.1004 47.7863 21.5837 13.1943 13.6817 19.699 30.2262 19.9137 49.7023zm-23.2153 46.2249-.0041.0041c.0357-.0356.0713-.0713.107-.1069l-.0041.0041c.0356-.0357.0713-.0713.1069-.1069l-.0041.0041.107-.107-.0041.0041.107-.107-.0042.0042c.0357-.0358.0713-.0716.107-.1074l-.0039.0048c.0382-.0366.0763-.0732.1145-.1099.4264-.4265.9434-.7695 1.2251-1.3294l.002-.0035c.033-.0333.066-.0667.099-.1l.0038-.004c.2341-.21.5172-.3772.6145-.7062l.0121-.0155c.0267-.0285.0534-.0571.0801-.0856.4591-.3541.786-.8304 1.1432-1.274.184-.2285.502-.3725.52-.7224.4691-.1605.6655-.5733.889-.961.5021-.3665.8226-.8963 1.1882-1.3766.5388-.7078 1.1722-1.3537 1.5371-2.185.3609-.1882.5532-.4868.5832-.8916.2291-.0176.2906-.2232.3904-.3697 1.0346-1.5204 2.0345-3.0642 2.9044-4.6851.6515-1.2139 1.3559-2.4035 1.8555-3.6946.1491-.0884.2067-.2213.1897-.3904.1163-.2485.2994-.4683.3234-.7562.2555-.2327.3755-.5081.2697-.8548.1892-.0461.2672-.1923.3356-.3563 1.1664-2.7942 2.163-5.6457 2.9222-8.5788.6841-2.6432 1.2024-5.3146 1.547-8.026.226-1.7778.3434-3.5605.4773-5.3437-.0043-.2569-.0087-.5137-.013-.7706.0062-.4841.0123-.9681.0186-1.4524.1646-.2266.0492-.449-.01-.6722.0804-2.6787-.1219-5.3394-.507-7.9885-.0112-.2325.0297-.4737-.1153-.6836.0543-.1951-.0684-.361-.0899-.5435.0316-.2964.0349-.5799-.3183-.7018.2925-.0417.2288-.2572.1948-.4338-.3969-2.0589-.8251-4.1093-1.3803-6.1345-1.4534-5.3022-3.5719-10.327-6.2128-15.1399.0098-.0929-.0017-.1757-.1029-.2158l.004.0064c.004-.0908-.0073-.1738-.1072-.2121l.0043.007c-.0208-.2237-.1111-.4057-.3129-.5207l.0032.0111c-.2659-.8423-.8047-1.538-1.2383-2.2892-2.5814-4.4722-5.8167-8.4452-9.3521-12.1847-1.0939-1.157-2.288-2.2113-3.4682-3.2803-2.1727-1.9679-4.461-3.7873-6.8864-5.4294-3.5359-2.3941-7.2807-4.4123-11.1935-6.1208-3.3401-1.4584-6.7746-2.6444-10.3094-3.529-2.4826-.6212-5.0008-1.0462-7.5449-1.3492-2.0163-.2402-4.0337-.4513-6.0609-.4812-3.4346-.0507-6.8692-.0555-10.2888.3903-1.5705.2048-3.1439.3873-4.7018.6719-3.2987.6024-6.5188 1.4991-9.6724 2.6373-2.0892.754-4.1465 1.5857-6.1495 2.5467-2.7944 1.3407-5.507 2.825-8.1164 4.5049-3.1036 1.9981-5.9733 4.2893-8.6948 6.771-1.2385 1.1294-2.4368 2.2996-3.5743 3.5382-1.4477 1.5764-2.8589 3.1814-4.1743 4.8664-3.4617 4.4346-6.2222 9.2854-8.4779 14.4313-1.3944 3.1811-2.5334 6.4531-3.4096 9.8111-.754 2.8898-1.2451 5.8305-1.5627 8.8029-.1885 1.7641-.3688 3.5287-.39 5.3008-.0411 3.4347-.0507 6.8688.39 10.2891.2046 1.5879.4049 3.175.6871 4.7507.5885 3.2853 1.4942 6.4848 2.6234 9.6231.752 2.0899 1.5848 4.1468 2.5457 6.1497 1.3406 2.7943 2.827 5.5056 4.504 8.1169 1.9856 3.0917 4.2705 5.9446 6.7354 8.6571 1.1385 1.2529 2.3209 2.4636 3.573 3.6121 1.5773 1.4467 3.1818 2.8585 4.8666 4.1741 4.4339 3.4625 9.2853 6.222 14.4306 8.4789 3.1809 1.3952 6.4555 2.5272 9.8112 3.409 2.6399.6938 5.3272 1.1522 8.0425 1.4714 2.0165.237 4.0336.454 6.0608.4816 3.4344.0468 6.8693.0623 10.2889-.3891 1.5701-.2073 3.144-.387 4.7019-.671 3.1804-.5797 6.2859-1.439 9.333-2.5214 2.1421-.7609 4.2543-1.593 6.3035-2.5736 2.1297-1.0191 4.2281-2.0989 6.257-3.3142 2.9725-1.7804 5.7786-3.7842 8.4282-6.0172 1.1647-.9816 2.2717-2.0251 3.4089-3.0357.3283-.2918.7567-.5327.8566-1.028l-.0003.0129c.1094.0425.177.0023.2101-.1062l-.0076.0068c.1621-.0449.261-.1555.32-.3077l-.0042.0035c.0359-.0356.0715-.0712.1072-.1068z" fill="#5f6065"/><path d="m117.77 118.6533c-.1.4953-.5284.7361-.8568 1.0279-1.1372 1.0106-2.2442 2.0541-3.4089 3.0357-2.6496 2.233-5.4557 4.2368-8.4282 6.0172-2.0289 1.2153-4.1274 2.2951-6.257 3.3142-2.0492.9806-4.1615 1.8127-6.3035 2.5736-3.0471 1.0824-6.1525 1.9417-9.333 2.5214-1.5579.284-3.1318.4637-4.7019.671-3.4196.4515-6.8545.4359-10.2889.3891-2.0272-.0276-4.0443-.2446-6.0608-.4816-2.7153-.3192-5.4025-.7776-8.0425-1.4714-3.3557-.8819-6.6303-2.0138-9.8112-3.409-5.1453-2.2569-9.9966-5.0164-14.4306-8.4789-1.6848-1.3157-3.2893-2.7274-4.8666-4.1741-1.2521-1.1485-2.4345-2.3592-3.573-3.6121-2.4649-2.7125-4.7498-5.5653-6.7354-8.6571-1.677-2.6113-3.1634-5.3225-4.504-8.1169-.9609-2.0028-1.7937-4.0597-2.5457-6.1497-1.1292-3.1383-2.035-6.3379-2.6234-9.6231-.2822-1.5756-.4826-3.1628-.6871-4.7507-.4406-3.4203-.4311-6.8544-.39-10.2891.0212-1.772.2015-3.5367.39-5.3008.3175-2.9724.8086-5.9131 1.5627-8.8029.8762-3.358 2.0152-6.63 3.4096-9.8111 2.2556-5.1459 5.0162-9.9967 8.4779-14.4313 1.3153-1.685 2.7266-3.29 4.1743-4.8664 1.1375-1.2386 2.3357-2.4088 3.5743-3.5382 2.7214-2.4817 5.5912-4.7729 8.6948-6.771 2.6094-1.6799 5.322-3.1642 8.1164-4.5049 2.0029-.961 4.0602-1.7927 6.1495-2.5467 3.1536-1.1381 6.3737-2.0349 9.6724-2.6373 1.5578-.2845 3.1313-.4671 4.7018-.6719 3.4196-.4458 6.8542-.441 10.2888-.3903 2.0272.0299 4.0446.241 6.0609.4811 2.5441.303 5.0623.728 7.5449 1.3492 3.5348.8845 6.9692 2.0705 10.3094 3.529 3.9129 1.7085 7.6577 3.7267 11.1935 6.1208 2.4254 1.6422 4.7138 3.4615 6.8864 5.4294 1.1802 1.069 2.3743 2.1232 3.4682 3.2803 3.5355 3.7395 6.7707 7.7125 9.3521 12.1847.4336.7512.9723 1.4469 1.2383 2.2892-1.486-.2988-2.9904-.3954-4.5025-.4421-1.7451-.0539-3.4831.0489-5.2164.2114-.4819.0452-.6743-.1117-.9085-.5011-.2953-.4911-.4215-1.1718-1.3639-1.0211-.997.1594-2.0404.0187-3.0634.0271-2.5637.0212-5.1195.2069-7.6776.3582-3.7762.2233-7.5194.6479-11.1937 1.5831-.2185.0556-.3925.152-.503.3189-.2373.3585-.5862.6265-.8095.9836-.228.3648-.4659.3222-.758.1413-.2245-.1391-.4647-.2478-.7274-.1817-1.5061.3786-3.0046.7977-4.4286 1.4183-1.9513.8504-3.8964 1.7187-5.782 2.7112-1.2542.6602-2.5135 1.3148-3.5216 2.3428-.1858.1894-.3789.1841-.6097.1319-.7452-.1683-1.5048-.1688-2.2314.031-.4267.1173-.779.0499-1.1277-.1303-1.489-.7694-3.1259-.9344-4.7436-1.1261-1.6823-.1993-3.3758-.0873-5.0267.2768-1.6449.3628-3.3125.7328-4.6065 1.9491-.2054.1931-.421.1768-.6652.0931-.6123-.2096-1.2068-.1446-1.7907.1266-.4668.2168-.8963.4516-1.4804.2187-.453-.1806-1.0048-.0836-1.3906.2916-.4021.3911-.7863.8113-1.1128 1.2658-.2085.2903-.4042.3859-.7555.3532-1.2871-.1197-2.5557-.0419-3.7785.4407-.4055.16-1.8564.1963-2.3448.1028-.0336-.0064-.0669-.0162-.1008-.0196-1.014-.1029-1.5484.3564-1.6317 1.3623-.0146.1766-.0405.3633-.0999.5468-.1904.5881-.4872 1.132-.6931 1.7082-.5655 1.5819-.9497 3.2113-.8772 4.9049.0675 1.5742.3799 3.0732 1.4285 4.3479.9355 1.1371 2.0114 2.037 3.4663 2.4005.2613.0653.2298.1933.1573.3719-.1586.3906-.2278.8016-.1263 1.2088.0784.3145-.0049.4528-.2994.5819-1.7339.7603-3.4139 1.617-5.016 2.6393-2.8092 1.7926-5.2592 4.021-7.7423 6.2142-1.2185 1.0763-2.2387 2.3471-3.4326 3.4494-.8488.7837-1.6642 1.4952-2.9455 1.4706-.769-.0148-1.5394.252-2.2859.4962-1.2686.415-2.5042.913-3.6759 1.5507-1.0781.5868-2.1444 1.2002-3.1486 1.9086-.8617.6079-1.6935 1.2579-2.5468 1.8779-.1859.1351-.3878.2782-.6504.2104-1.0306-.2662-2.0838-.3569-3.1414-.3268-.4035.0115-.8536.1862-.9429.6287-.117.5804-.0072 1.1597.4337 1.6193.3893.4059.7691.8219 1.1736 1.2122.6823.6585 1.5477 1.0408 2.345 1.5278 1.325.8093 2.6489 1.6136 4.138 2.0966.1532.0497.2252.1822.325.3019.6466.7758 1.2965 1.5624 2.4358 1.5887.0507.0012.1131-.0038.15.0224.7219.5125 1.5888.7853 2.2609 1.3833.338.3008.8937.3942 1.0378.866.248.8121.9021 1.207 1.5198 1.6505.5204.3736 1.3139.3493 1.728-.1433.315-.3747.5773-.3265.9216-.1401.134.0726.2832.1186.4127.1975.9387.5717 1.953.8063 3.038.6303.6891-.1118 1.3714-.2741 2.0501-.4405 1.7395-.4265 3.4647-.9168 5.2149-1.2922 2.8529-.6119 5.7081-1.2465 8.18-2.8643.8491-.5557 1.9602-.7591 2.5386-1.7227.1196-.1993.2783-.2512.4111.0158.3916.7876 1.0456 1.3908 1.506 2.1299.82 1.3165 1.8533 2.4481 3.0098 3.4712.9215.8152 1.841 1.6321 2.7994 2.4056 1.3711 1.1065 2.778 2.1604 4.2521 3.1266.3401.2229.7573.3571 1.0062.7157-.1018.0972-.1701.0653-.2582.0408-1.09-.302-2.117-.7624-3.142-1.2299-2.0197-.9212-4.0419-1.8369-6.0619-2.7574-.2209-.1007-.4701-.2458-.6387.0122-.1656.2534-.0771.5324.1313.7519.0695.0732.1633.123.2444.1856.7985.6161 1.6739 1.1185 2.5705 1.5607 2.2495 1.1095 4.4581 2.291 6.646 3.5169 2.0273 1.136 4.1712 2.0411 6.2636 3.0483 1.0159.489 2.1169.775 3.1114 1.3149.1697.0921.3879.1511.1688.3871-.3121.3361-.6025.7116-.9726.9687-.3057.2123-.4423.4273-.3425.7585.0838.278-.0152.2989-.257.315-.4099.0273-.8074-.1023-1.2222-.0343-.6049.0991-1.2155.1515-1.8218.2591-.4048.0718-.6984.1345-.7983.5302-.0903.3578-.2067.7513.0576 1.0856.4122.5215.8285 1.0472 1.3995 1.41.7054.4482 1.396.9286 2.1364 1.3112 1.889.9763 3.7098 2.1117 5.8189 2.6009.3317.0769.6558.195.9742.3177.2874.1108.428.2901.2715.6278-.2206.4762-.0684.9337.1322 1.3829.4242.9499 1.1696 1.5733 2.0812 2.0031.9809.4625 1.4084.196 1.7405-.693.1124-.3008.232-.2844.4732-.2475 1.0079.1543 1.9834.4258 2.9541.7322.2732.0862.3455.1719.3187.4514-.0589.6141.2275 1.0126.7979 1.2791.9165.4281 1.9039.3583 2.862.4794.965.1219 1.5628-.1061 1.6959-1.194.037-.3027.1816-.3458.4558-.3083.5725.0784 1.1497.1227 1.7256.1747.8981.0812 1.7935.2153 2.6788-.1305.3577-.1397.735-.2099.7925-.673.0283-.2278.2115-.1992.3477-.2232 1.4284-.2523 2.6687-.9633 3.9356-1.6076 1.0385-.5281 1.9675-1.2216 2.9206-1.8858.4798-.3344.6781-.7321.7791-1.2192.1245-.6006.1874-1.2156.2488-1.8272.0379-.3775.2258-.4771.5741-.441.3379.035.6848.072 1.0195.0343 1.7284-.1946 3.4635-.3569 5.178-.6405 1.3965-.231 2.9265.0143 4.1283-1.0209z" fill="#c29f35"/><path d="m129.6989 40.305c2.6411 4.8125 4.7596 9.8374 6.213 15.1396.5551 2.0253.9834 4.0756 1.3803 6.1345.034.1765.0978.3921-.1947.4337-1.1346-.303-2.211-.7171-3.1224-1.4968-2.4409-2.0882-4.9097-4.1443-7.3314-6.2545-1.1002-.9586-2.3299-1.7837-3.2185-2.974-.0701-.0939-.1894-.0702-.2883-.0679-1.4315.0333-2.8642.0449-4.2939.1152-.9047.0445-1.815.0315-2.714.1762-.131.0211-.31-.012-.3001.1852.0088.1756.1713.1188.2835.1192.3414.0011.6739.0886 1.0211.065 1.5482-.1054 3.0952-.0199 4.6417.0607-.0162.2605.1788.3956.3344.549 1.2544 1.237 2.7686 2.1742 3.9904 3.4502.0478.0499.1563.0418.2366.0606.1.1371.1901.2828.3014.4101 1.3929 1.5944 2.7579 3.2137 4.2416 4.7272.418.4264.8327.8635 1.1888 1.3406.3114.4171.6632.8469.6981 1.3988.0945 1.4944.1007 2.991.0458 4.4876.0045.0422.009.0845.0135.1267-.004.065-.0079.1299-.0119.1949-.0654.0517-.153.0903-.1929.1573-.4388.7352-.9037 1.4496-1.4857 2.084-.2135.2328-.1752 1.1971.0342 1.425.027.0294.0975.019.1478.0271-.2679.3298-.5248.6692-.8053.9878-1.8601 2.1123-3.668 4.2681-5.3336 6.5375-.3677.501-.897.947-.9981 1.5814-.1445.906-.1768 1.8305-.24 2.7483-.0113.1634.031.3706.2532.3879.2413.0188.3425-.1756.3436-.3675.0038-.6686.1965-1.3147.2217-1.9769.0198-.5197.1985-.9653.4921-1.3759 1.3679-1.9123 2.8141-3.7665 4.3422-5.5504 1.0435-1.2183 2.1423-2.3916 3.1667-3.6271.2764-.3333.6673-.652.584-1.1811.2626-.0367.3894.167.5466.3128.1982.1837.3813.3895.6805.3998-.1161.4085.2761.4718.4694.6342 1.0906.9161 2.0313 1.988 3.0916 2.9343-.1338 1.7835-.2512 3.5661-.4772 5.3439-.3447 2.7114-.8629 5.3828-1.547 8.026-.7593 2.9332-1.7558 5.7847-2.9222 8.5788-.0685.164-.1464.3102-.3355.3563-.19-.0763-.3879-.1373-.5687-.2313-1.2726-.662-2.525-1.3654-3.8164-1.9881-1.3643-.6578-2.692-1.3954-4.109-1.942.1497-.3856.112-.755-.04-1.1391-.1245-.3146-.2073-.6507-.2672-.9848-.288-1.6072-.1857-3.2332-.2128-4.8529-.0043-.256.0112-.5125-.0734-.7613-.0362-.1063-.0012-.2719-.1679-.2717-.1648.0002-.1534.1532-.1607.2694-.0691 1.1051-.2078 2.2121-.181 3.315.0201.8254-.2033 1.3427-1.0324 1.5242-.1934-2.2415-.2954-4.4956-.7978-6.6979-.1661-.7284-.1584-1.501-.4696-2.1868-.3643-.8029-.6571-1.0987-1.3033-1.0249-.9966.1138-1.9976.1706-2.9881.3631-2.578.5009-5.1646.9594-7.5869 2.0329-.1723.0763-.2156.1058-.3309-.0942-.5521-.9578-1.0559-1.9424-1.6045-2.9003-1.0579-1.8473-1.7475-3.8559-2.6005-5.7906-.8245-1.87-1.4842-3.8136-1.9277-5.8198-.2467-1.116-.6013-2.2071-.7174-3.3533-.0563-.5555.0864-1.0321.5757-1.2627 1.355-.6385 2.4558-1.6468 3.6458-2.5094 1.0817-.7841 1.9784-1.8259 2.9438-2.7672.8445-.8234 1.5264-1.7879 2.2642-2.7018 1.1023-1.3654 2.1501-2.7668 2.822-4.4181.4031-.9906.5343-1.9125.0252-2.9236-.2355-.4678-.6702-.4596-.982-.711-.5252-.4234-1.1397-.7154-1.7492-.9614-1.7839-.72-3.5813-1.4029-5.4377-1.9353-2.4504-.7028-4.9182-1.2389-7.4715-1.3796-.5739-.0316-1.1971.1169-1.7185-.1452-.4787-.2407-.9056-.1915-1.3184.0052-1.7739.8452-3.6138 1.5404-5.3759 2.4134-1.8348.909-3.6865 1.7835-5.2962 3.0744-.2527.2026-.6883.5014-.4572.7919.2431.3055.6045-.0529.8665-.2682 1.0473-.8608 2.221-1.5235 3.4254-2.1267 1.4634-.7328 2.9242-1.4802 4.4318-2.1125 1.2342-.5176 2.3983-1.1834 3.8884-1.0376 2.0382.1995 4.0883.2934 6.0961.7149 1.5651.3285 3.084.8448 4.6174 1.2994 1.7686.5244 3.5176 1.0981 5.1564 1.9624-.1438.3295-.1392.6248.1767.8645.1022.0776.1237.1957.0912.3257-.1704.6805-.3094 1.3912-.6929 1.975-1.0956 1.6678-1.9958 3.4651-3.3274 4.9785-1.194 1.3569-2.2618 2.8295-3.7354 3.9211-1.3812 1.0231-2.8398 1.9005-4.474 2.4622-.2331.0801-.4594.149-.6802-.0251-.0418-1.6083-.091-3.2173.0002-4.8247.0638-1.1246.1956-2.246.2389-3.371.0171-.4431.0949-.9718-.3512-1.291-1.2666-.9064-2.1563-2.1417-3.0314-3.3948-.3083-.4415-.4808-1.0328-1.1972-1.0295-.3854.0018-.7686-.0935-1.1519-.1583-1.0909-.1845-2.2008-.1559-3.3065-.1368-1.6157.0279-2.9486.5373-3.7733 2.048-.304.5568-.8042.9744-1.3094 1.3613-.1612.1234-.3054.237-.4978-.0358-.8028-1.1383-2.0163-1.7471-3.1931-2.3962-.8115-.4476-1.6969-.7139-2.5655-1.0193-.1997-.0702-.3414-.1477-.1116-.3276.3634-.2845.6378-.6686 1.0435-.9049.9663-.5628 1.8871-1.1905 2.9165-1.6604 1.2589-.5747 2.5633-1.0123 3.844-1.5197 1.1749-.4655 2.3918-.8002 3.5769-1.2324.6172-.2251 1.265-.4471 1.8963.044.5169.4021.8238.2792 1.1367-.3349.4374-.8585 1.0251-1.5477 2.038-1.7779 1.2596-.2863 2.5099-.5945 3.789-.8084 1.4872-.2488 2.9893-.2617 4.4798-.4348 1.7214-.1998 3.4741-.1949 5.2041-.3353 2.2544-.1829 4.4961-.0568 6.7443-.0451.6638.0035 1.069.2229 1.3864.7949.5498.9906.5697.9559 1.6429.735 2.5364-.522 5.0807-.4906 7.6302-.0768.7709.1251 1.5331.3201 2.3206.332.032.0013.0638.0033.0956.0063zm-8.3356 1.7368c.2999-.2584.1008-.4306-.1288-.5271-.2962-.1245-.5487-.3118-.7155-.5577-.1615-.2382-.2796-.1652-.4576-.0735-.2258.1164-.1338.296-.0856.4436.0792.2423.3111.3948.5101.475.3689.1488.3049.3372.166.593-.2359.4345-.4726.869-.6946 1.3107-.697 1.3865-1.3627 2.7894-2.0896 4.16-.4122.7772-.8319 1.5699-1.5637 2.1194-.1328.0997-.2954.142-.1853.3865.0976.2166.2008.2391.4249.226 1.8764-.1094 3.7175-.481 5.5757-.7232.1191-.0155.2731-.0029.2727-.1617-.0006-.2264-.207-.2074-.3458-.2-1.2225.0651-2.4488.0943-3.6555.3332-.1139-.1205-.0691-.2364-.0172-.3746.2046-.5448.4366-1.0753.6962-1.5971.7917-1.5915 1.7621-3.0908 2.4184-4.7535.1648-.4169.2404-.7555-.1248-1.079z" fill="#8ca26c"/><path d="m112.8461 47.5972c-1.6389-.8643-3.3878-1.438-5.1564-1.9624-1.5334-.4546-3.0523-.9709-4.6174-1.2994-2.0078-.4215-4.0579-.5154-6.0961-.7149-1.4901-.1458-2.6542.5199-3.8884 1.0376-1.5076.6323-2.9684 1.3797-4.4318 2.1125-1.2044.6031-2.3781 1.2658-3.4254 2.1267-.262.2153-.6234.5737-.8665.2682-.2311-.2904.2045-.5892.4572-.7919 1.6097-1.2909 3.4615-2.1654 5.2962-3.0744 1.7621-.873 3.602-1.5682 5.3759-2.4134.4128-.1967.8397-.2459 1.3184-.0052.5214.2622 1.1446.1136 1.7185.1452 2.5533.1406 5.0211.6768 7.4715 1.3796 1.8564.5325 3.6538 1.2153 5.4377 1.9353.6095.246 1.224.538 1.7492.9614.3118.2514.7465.2432.982.711.5091 1.0111.3778 1.933-.0252 2.9236-.6719 1.6513-1.7197 3.0527-2.822 4.4181-.7377.9139-1.4196 1.8783-2.2642 2.7018-.9654.9413-1.8622 1.9831-2.9438 2.7672-1.19.8627-2.2908 1.8709-3.6458 2.5094-.4892.2305-.632.7072-.5757 1.2627.1161 1.1463.4708 2.2374.7174 3.3533.4435 2.0062 1.1032 3.9498 1.9277 5.8198.853 1.9347 1.5426 3.9433 2.6005 5.7906.5486.9579 1.0524 1.9426 1.6045 2.9003.1153.2.1586.1705.3309.0942 2.4223-1.0735 5.009-1.532 7.5869-2.0329.9906-.1925 1.9915-.2493 2.9881-.3631.6462-.0738.939.222 1.3033 1.0249.3112.6858.3034 1.4584.4696 2.1868.5023 2.2022.6043 4.4564.7977 6.6978.0234.3048.0544.6093.0691.9146.0613 1.2725.0769 2.5475.2103 3.8161-.0063.3584-.0287.7174-.0162 1.0751.0687 1.9659-.0612 3.9216-.2523 5.877-.0551.5641-.3005 1.1654.1948 1.6903.6185.6554 1.1788 1.3681 1.8214 1.9977.861.8435 1.7769 1.6311 2.6692 2.4426-.03.4047-.2223.7033-.5833.8916-1.3398-1.1792-2.6816-2.3562-4.0181-3.5392-.4377-.3874-.4309-.3868-.5753.1607-.3949 1.4967-.6466 3.0389-1.3647 4.4352-.1411.2744.0061.4289.1982.5538 1.0081.6556 2.0224 1.3017 3.0346 1.951-.2235.3877-.4199.8005-.889.9612-.9206-.7401-1.9551-1.116-3.1508-1.0203-.248.0198-.4795.0603-.6743.2029-1.4525 1.063-3.0846 1.7688-4.7438 2.4304-1.8804.7499-3.8519 1.1338-5.829 1.4962-.3.055-.4615.1844-.5351.4605-.1661.6236-.3513 1.2429-.4937 1.8718-.1351.5969-.052.6655.559.6695 1.4785.0096 2.9334-.1865 4.3972-.3811 1.6876-.2244 3.3578-.5646 5.0524-.7281.2185-.0211.4739-.1473.6817.063-.0353.0672-.1079.1324-.0111.2066l.0076-.0068c-.1479-.1187-.1838-.0158-.2101.1062l.0004-.0129c-1.2017 1.0352-2.7317.7899-4.1285 1.0209-1.7145.2836-3.4496.4459-5.178.6405-.3346.0377-.6816.0006-1.0195-.0343-.3483-.036-.5362.0635-.5741.441-.0613.6116-.1243 1.2266-.2488 1.8272-.101.4871-.2993.8848-.7791 1.2192-.9531.6642-1.8821 1.3577-2.9206 1.8858-1.2669.6443-2.5072 1.3553-3.9356 1.6076-.1362.0241-.3195-.0046-.3477.2232-.0574.463-.4348.5333-.7925.673-.8853.3457-1.7807.2117-2.6788.1305-.5759-.052-1.1531-.0964-1.7256-.1747-.2742-.0375-.4188.0056-.4558.3083-.1332 1.0879-.731 1.316-1.6959 1.194-.958-.1211-1.9455-.0513-2.862-.4794-.5705-.2665-.8568-.6649-.7979-1.2791.0268-.2795-.0455-.3652-.3187-.4514-.9707-.3064-1.9462-.5779-2.9541-.7322-.2411-.0369-.3608-.0532-.4732.2475-.3321.889-.7595 1.1555-1.7405.693-.9116-.4298-1.657-1.0532-2.0812-2.0031-.2006-.4492-.3529-.9067-.1322-1.3829.1565-.3377.0159-.5171-.2715-.6278-.3185-.1227-.6426-.2407-.9742-.3177-2.1091-.4892-3.93-1.6246-5.8189-2.6009-.7403-.3826-1.431-.863-2.1364-1.3112-.571-.3628-.9873-.8885-1.3995-1.41-.2642-.3343-.1479-.7278-.0576-1.0856.0999-.3957.3934-.4584.7983-.5302.6063-.1076 1.2169-.16 1.8218-.2591.4147-.068.8123.0617 1.2222.0343.2418-.0161.3408-.037.257-.315-.0998-.3312.0369-.5462.3425-.7585.3702-.2571.6605-.6326.9726-.9687.2191-.236.0009-.295-.1688-.3871-.9945-.5399-2.0955-.8259-3.1114-1.3149-2.0924-1.0072-4.2362-1.9123-6.2636-3.0483-2.1878-1.2259-4.3964-2.4075-6.646-3.5169-.8966-.4422-1.7719-.9446-2.5705-1.5607-.0811-.0626-.1749-.1124-.2444-.1856-.2084-.2195-.297-.4985-.1313-.7519.1686-.258.4178-.1129.6387-.0122 2.02.9205 4.0422 1.8362 6.0619 2.7574 1.025.4675 2.052.9279 3.142 1.2299.0882.0244.1564.0564.2582-.0408-.2489-.3586-.6661-.4928-1.0062-.7157-1.4741-.9661-2.8811-2.0201-4.2521-3.1266-.9584-.7735-1.8779-1.5904-2.7994-2.4056-1.1565-1.0231-2.1898-2.1547-3.0098-3.4712-.4604-.7391-1.1144-1.3423-1.506-2.1299-.1328-.267-.2915-.2151-.4111-.0158-.5784.9635-1.6896 1.167-2.5386 1.7227-2.4719 1.6178-5.3271 2.2524-8.18 2.8643-1.7501.3753-3.4754.8657-5.2149 1.2922-.6788.1664-1.361.3287-2.0501.4405-1.085.176-2.0994-.0586-3.038-.6303-.1296-.0789-.2787-.125-.4127-.1975-.3442-.1864-.6066-.2347-.9216.1401-.4141.4926-1.2076.517-1.728.1433-.6177-.4435-1.2718-.8383-1.5198-1.6505-.1441-.4718-.6997-.5652-1.0378-.866-.6721-.598-1.539-.8709-2.2609-1.3833-.0369-.0262-.0993-.0213-.15-.0224-1.1393-.0262-1.7892-.8128-2.4358-1.5887-.0998-.1197-.1718-.2523-.325-.3019-1.4891-.4829-2.8129-1.2873-4.138-2.0966-.7974-.487-1.6627-.8693-2.345-1.5278-.4045-.3903-.7843-.8063-1.1736-1.2122-.4408-.4596-.5507-1.039-.4337-1.6193.0892-.4426.5393-.6172.9429-.6287 1.0575-.0301 2.1108.0605 3.1414.3268.2626.0678.4645-.0753.6504-.2104.8534-.6199 1.6852-1.27 2.5468-1.8779 1.0042-.7084 2.0705-1.3218 3.1486-1.9086 1.1717-.6377 2.4074-1.1357 3.6759-1.5507.7465-.2442 1.517-.511 2.2859-.4962 1.2813.0246 2.0967-.6869 2.9455-1.4706 1.1938-1.1023 2.2141-2.3731 3.4326-3.4494 2.4831-2.1932 4.9331-4.4216 7.7423-6.2142 1.602-1.0223 3.282-1.8791 5.016-2.6393.2946-.1292.3778-.2674.2994-.5819-.1015-.4071-.0323-.8181.1263-1.2088.0725-.1786.104-.3067-.1573-.3719-1.4549-.3634-2.5308-1.2634-3.4663-2.4005-1.0486-1.2746-1.361-2.7736-1.4285-4.3479-.0726-1.6936.3117-3.323.8772-4.9049.206-.5762.5027-1.1201.6931-1.7082.0594-.1835.0852-.3701.0999-.5468.0833-1.006.6177-1.4652 1.6317-1.3623.0339.0034.0671.0132.1008.0196.4884.0935 1.9392.0572 2.3448-.1028 1.2228-.4825 2.4914-.5603 3.7785-.4407.3513.0327.547-.0629.7555-.3532.3265-.4545.7106-.8747 1.1128-1.2658.3858-.3752.9376-.4722 1.3906-.2916.584.2329 1.0136-.0019 1.4804-.2187.5839-.2712 1.1785-.3362 1.7907-.1266.2443.0836.4599.0999.6652-.0931 1.294-1.2163 2.9616-1.5863 4.6065-1.9491 1.6509-.3641 3.3445-.4761 5.0267-.2768 1.6177.1917 3.2545.3567 4.7436 1.1261.3487.1802.701.2477 1.1277.1303.7266-.1998 1.4862-.1993 2.2314-.031.2308.0521.4239.0575.6097-.1319 1.0081-1.028 2.2674-1.6826 3.5216-2.3428 1.8856-.9925 3.8308-1.8608 5.782-2.7112 1.424-.6206 2.9224-1.0397 4.4286-1.4183.2626-.066.5028.0427.7274.1817.2921.1809.53.2235.758-.1413.2232-.3571.5722-.6251.8095-.9836.1105-.1669.2845-.2633.503-.3189 3.6743-.9351 7.4175-1.3597 11.1937-1.5831 2.5581-.1513 5.1139-.3371 7.6776-.3582 1.023-.0084 2.0664.1323 3.0634-.0271.9424-.1507 1.0686.53 1.3639 1.0211.2342.3894.4266.5463.9085.5011 1.7333-.1625 3.4714-.2653 5.2164-.2114 1.5122.0467 3.0165.1433 4.5025.4421l-.0032-.0111c-.0336.2564.0615.4355.3129.5207l-.0043-.007c-.0789.1287-.0286.192.1072.212l-.004-.0064c.0024.07.0049.1399.0073.2099-.7875-.012-1.5497-.2069-2.3206-.332-2.5494-.4138-5.0938-.4452-7.6302.0768-1.0732.2209-1.0931.2556-1.6429-.735-.3174-.5719-.7226-.7914-1.3864-.7949-2.2481-.0117-4.4898-.1378-6.7443.0451-1.73.1404-3.4827.1355-5.2041.3353-1.4906.173-2.9926.186-4.4798.4348-1.2791.214-2.5294.5222-3.789.8084-1.0129.2302-1.6006.9194-2.038 1.7779-.3129.6141-.6199.737-1.1367.3349-.6313-.4911-1.2791-.269-1.8963-.044-1.1851.4322-2.4021.7669-3.5769 1.2324-1.2807.5074-2.5851.945-3.844 1.5197-1.0294.4699-1.9502 1.0976-2.9165 1.6604-.4057.2363-.6801.6204-1.0435.9049-.2297.1799-.088.2574.1116.3276.8686.3054 1.754.5717 2.5655 1.0193 1.1768.6491 2.3903 1.2579 3.1931 2.3962.1924.2728.3366.1592.4978.0358.5052-.3869 1.0054-.8045 1.3094-1.3613.8247-1.5107 2.1576-2.02 3.7733-2.048 1.1058-.0191 2.2156-.0477 3.3065.1368.3833.0648.7665.16 1.1519.1583.7164-.0033.8889.588 1.1972 1.0295.8751 1.2531 1.7648 2.4884 3.0314 3.3948.4461.3192.3683.8479.3512 1.291-.0433 1.125-.1751 2.2464-.2389 3.371-.0912 1.6074-.042 3.2164-.0002 4.8246.0274.339.049.6788.0834 1.0172.2007 1.9753.1787 3.9692.6789 5.9193.4098 1.5977.8199 3.1948 1.3963 4.7367.6958 1.8614 1.3916 3.7287 2.3773 5.4668.7308 1.2887 1.3433 2.6453 2.2162 3.8525.0999.1381.1815.3311.3863.259.2548-.0897.5224-.1755.7191-.3788.0593-.0613-.008-.1178-.0387-.1781-.2082-.4088-.4155-.8183-.6121-1.2328-.4966-1.0465-1.07-2.0555-1.577-3.0934-.6114-1.2515-1.1303-2.5536-1.6703-3.839-.7968-1.8967-1.5783-3.812-2.0248-5.8361-.3296-1.4942-.86-2.9447-.9463-4.4936-.0145-.2609.0339-.4224.2209-.5692.5995-.4702 1.1849-.9515 1.814-1.3913 1.4535-1.0161 2.771-2.2151 4.0903-3.4045 1.5469-1.3946 2.6907-3.1239 3.9681-4.7411.6287-.7959 1.1155-1.6905 1.6129-2.5754.3841-.6834.7292-1.3791.9208-2.1407.1328-.5261-.4772-1.6807-.9729-1.8792zm-39.7011 36.0385c-.0314.0234-.0628.0467-.0941.0701-.0765.0056-.153.0112-.2295.0169-.6397-.7621-1.5942-.9013-2.4492-1.237-.0965-.0379-.2095-.0697-.288.0118-.1093.1136-.0024.2279.0508.3201.3311.5727.7198 1.1015 1.2264 1.535.3978.5067.7988 1.0109 1.1904 1.5224.0756.0988.2044.2283.0315.3485-.118.0821-.2593.0902-.3782-.0146-.8557-.754-1.8029-1.456-2.4103-2.4131-1.4837-2.3375-2.7119-4.8219-3.8362-7.3514-.2013-.4529-.3922-.4885-.8343-.4219-2.5547.3846-5.065.3734-7.3363-1.1131-.1608-.1053-.2947-.1208-.4059-.0467-.6629.4415-1.3761.8173-1.9421 1.3911-.9963 1.0098-1.8292 2.1454-2.6296 3.3163-1.0237 1.4977-2.1293 2.9387-3.1529 4.4389-.9047 1.326-1.7546 2.6788-2.46 4.1214-.1343.2746-.2872.5406-.4428.8039-.5376.9098-1.1128 1.7953-1.69 2.6805-.2111.3238-.3731.6325-.7104.861-1.1229.7606-2.4124 1.1841-3.5934 1.8257-.8543.4641-1.7341.8812-2.6026 1.3192-.4357.1176-.8648.251-1.2366.5205-.4608.2073-1.0487.2737-1.3339.6961-.7534 1.1157-1.4358 2.2799-2.0621 3.475-.1185.2261-.059.3003.1652.342.4411.0821.8913.1138 1.3241.0227 2.0948-.4412 4.1954-.8489 6.2759-1.3667 2.0188-.5025 4.007-1.0712 5.9347-1.851.441-.1784.8996-.3144 1.303-.5813.753-.4981 1.573-.879 2.353-1.3276.5934-.3414 1.2454-.6591 1.5454-1.3567.647-1.5047 1.1875-3.0514 1.8304-4.559.9844-2.3084 1.925-4.6365 3.2507-6.7768.4718-.7617.853-1.6094 1.6385-2.1361.0912-.0612.1704-.207.3053-.1088.1264.092.071.2091-.0018.316-.6136.9013-.9611 1.9451-1.535 2.8681-.1396.2245-.27.4561-.3223.7425.243-.0134.379-.1513.5396-.2378.5081-.2739.9967-.5905 1.5871-.6782.2054-.0305.3336.028.3988.2212.0626.1855-.0754.2365-.2023.2952-.1386.0641-.2883.1129-.3726.2563-.876.6158-1.7591 1.2305-2.4959 2.0094-.3161.3341-.7014.6121-.8898 1.0853-.4055 1.019-.9109 1.9985-1.3082 3.0203-.213.5476-.5563 1.108-.0914 1.7472.6402.8802 1.2528 1.775 2.122 2.4535.0192.0281.0343.0606.0583.0836 1.4965 1.434 3.3071 2.3751 5.1475 3.2662.259.1254.5401.1371.8353.0421.8202-.2641 1.5646-.6725 2.2501-1.1803.2745-.2033.5255-.4407.5124-.8765-.0146-.4884.2773-.9111.52-1.3189.2868-.4821.622-.5395 1.1076-.2496.9715.5799 1.9503.7939 2.9598.0856.1112-.078.2361-.1469.3649-.1866.1624-.0501.3568-.08.4622.0908.1136.1842-.0111.3185-.1637.4229-.091.0623-.2853.0975-.2107.2339.3474.6351.5172 1.4021 1.1769 1.8179.474.2988.9857.5433 1.4963.7776 1.5937.7313 3.1452 1.5482 4.7609 2.2386 1.4221.6076 2.8154 1.2776 4.2996 1.729.5704.1735 1.1314.3804 1.7067.5347.2612.0701.5711.1888.788-.1261.9061-1.3149 2.1031-2.3668 3.1787-3.5291 1.4136-1.5274 2.8883-2.9895 4.455-4.3591.3946-.3454.7886-.6915 1.1841-1.036.9782-.8521 1.9573-1.7031 2.9349-2.5558.0747-.0652.1972-.1235.1726-.2328-.0256-.1135-.1493-.1111-.2558-.1159-2.2151-.1-4.11.6441-5.7129 2.1612-.331.2393-.669.4694-.9917.7193-1.9255 1.4908-3.856 2.9642-6.1917 3.7952-1.0237.3642-2.0548.6049-3.1415.5605-.1707-.007-.4142-.0105-.4256-.2719-.01-.2316.2175-.2309.3664-.2915.075-.0305.1652-.0253.2488-.033 2.0695-.192 3.9255-.9651 5.6297-2.1162 1.8456-1.2466 3.5388-2.7037 5.396-3.9366 1.513-1.0044 3.0913-1.8588 4.8854-2.2485.9898-.1318 1.9548-.4157 2.958-.4733.1556-.0089.3324-.1091.4496-.2198.1767-.1668.4111-.423.2275-.6418-.6281-.7489-1.0404-1.6134-1.4571-2.4806-.627-1.3047-1.2104-2.627-1.6181-4.0195-.4579-1.564-.9094-3.1298-1.3636-4.6949l.0004-.0008c-.0142-.1522-.0115-.3082-.0453-.4559-.2171-.949-.4171-1.9029-.6725-2.8417-.2088-.7673-.0616-1.359.6284-1.8033.2019-.13.5312-.3089.402-.5721-.0912-.1857-.4362-.0551-.6659-.0151-.4986.0868-.9589-.2081-1.0945-.7-.4478-1.6253-.2931-3.2988-.3746-4.9504-.1139-2.3081.0382-4.6173.1348-6.9246.0114-.2727-.0205-.4165-.3339-.4246-.2728-.0071-.5384-.0377-.8153.0109-.4688.0823-.9454.1643-1.4186.1638-.4013-.0005-.4597.0938-.346.4673.3086 1.0143.562 2.0409.5055 3.1201-.0088.1681.0266.3219-.164.363-.2732.0589-.2286-.1808-.2709-.3314-.5312-1.8916-1.0137-3.7982-2.0744-5.4941-.3885-.6212-.731-1.2437-1.6824-1.1393.4182.5157.5951 1.1078.8838 1.6437.091.1689.0766.2982-.068.4011-.1652.1175-.2711-.0277-.3226-.1384-.5378-1.1551-1.3482-2.1315-2.0455-3.1831-1.0636-1.6039-2.5719-2.6395-4.2755-3.392-1.4916-.6589-3.0448-1.1781-4.6707-1.4277-.07-.0478-.1403-.0835-.2138-.0062.0473.0335.0946.067.1419.1005.5677.5987 1.3199 1.0004 1.8441 1.6823-.4031.0681-.5238.0264-.9487-.2759-1.4707-1.0464-3.0416-1.9179-4.7875-2.3863-2.4817-.6658-5.002-.6389-7.5039-.1115-1.8016.3798-3.5963.8215-5.1017 1.9849-.1581.1222-.3636.1504-.5388.0877-.69-.2467-1.3301-.1418-1.9506.2135-.3084.1766-.6628.2434-.994.1721-.8248-.1777-1.5467-.119-2.062.6511-.0756.113-.3601.157-.2274.3171.1297.1565.3676.2031.5959.0341 1.2025-.8901 2.4543-.8214 3.7295-.1641.0805.0415.1581.1826.2584.0727.2346-.257.5858-.257.8628-.4208 1.612-.9533 3.283-1.6512 5.2317-1.4119 1.6936.208 3.2056.7571 4.5525 1.8463 1.0313.834 1.7071 1.9291 2.4993 2.944.0626.0802.1647.165.076.2609-.1016.1098-.2339.107-.3691.0153-.3182-.2159-.5286-.5336-.7772-.8129-1.7391-1.9542-3.784-3.2964-6.5-3.4011-1.4634-.0564-2.7533.4078-3.9382 1.1931-.8276.5485-.8476.7761-.4553 1.7008.1131.2667.3256.4323.514.6278.1086.1127.2238.2359.0543.3901-.1733.1576-.8203.0288-.9558-.1856-.427-.6759-.9136-1.2827-1.5615-1.7833-.8121-.6275-1.6605-.5784-2.4835-.2051-.5006.227-.8734.4375-1.4755.2303-1.1735-.4038-2.4037-.1735-3.6094-.0575-.9619.0925-1.8823.3076-2.6465.9709-.17.1476-.444.1299-.6128-.0608-.238-.2689-.5615-.2959-.8715-.3744-.4654-.1178-.6742.0935-.6638.5413.0132.5718-.1981 1.0674-.4675 1.5522-.1156.2081-.2157.4274-.2996.6504-.643 1.708-.7795 3.4596-.6323 5.2803.17 2.1028 1.1907 3.667 2.7756 4.9168.745.5874 1.6076.8426 2.5854.5033.5615-.1949 1.1649-.2663 1.7445-.4129.3933-.0994.6834.0348.9682.2979.7412.6845 1.6556 1.0602 2.5955 1.3688 1.0285.3377 2.0695.2857 3.1168.0551.732-.1611 1.4748-.3025 2.1506-.6223 1.0244-.4848 2.0035-1.0663 3.0318-1.5417.3807-.176.8518-.4563 1.2545-.275 1.5352.691 3.126.8406 4.7758.6903 1.6902-.1539 3.1646-.7507 4.3624-1.9869.4822-.4976.7133-1.7367.2645-2.1075-.7192-.5941-1.5396-1.0404-2.5076-1.1189-.6681-.0542-1.3306.06-1.9966.0544-.1798-.0015-.4371.0455-.4677-.1912-.0316-.2443.2509-.2665.4109-.2989.3666-.0744.7448-.0909 1.118-.1342 2.1027-.2439 4.0287.1364 5.6552 1.5895.3049.2724.6196.534.9342.7953.6614.5493 1.2339 1.1761 1.5919 1.9634.1104.2429.2225.17.3973.1412.7404-.1224 1.4839-.2338 2.2318-.0456-.016.1948-.1726.2471-.3179.2884-.8647.2457-1.7681.3746-2.5526.859-.1712.1057-.3298.0857-.4536-.0755-.2371-.3087-.5336-.5622-.7007-.9367-.304-.6813-.8487-1.1843-1.4043-1.6599-.1066-.0913-.3402-.3577-.4925-.0175-.1927.4302-.5001.7701-.8075 1.1112-.868.9629-1.8305 1.7995-3.1114 2.1624-2.2564.6392-4.5113.6607-6.7427-.1082-.5508-.1898-.996-.1146-1.4963.1819-1.4694.8708-2.9794 1.6605-4.6921 1.9678-.9892.1775-1.9717.3661-2.9852.2301-1.3752-.1846-2.5334-.9046-3.6965-1.5658-.4664-.2651-.8339-.1734-1.2462-.0835-.3132.0682-.6021.2447-.9147.3189-.3252.0771-.4392.2707-.4843.5726-.1055.707.5031 2.1158 1.0634 2.4589.1382.0846.2243-.008.3322-.0376.4295-.1177.8604-.1992 1.3124-.1784 1.3474.0619 2.697.0793 4.031.3218.6866.1248 1.3823.199 2.0449.437.1119.0402.255.0346.2297.2032-.0072.0482-.1081.1312-.1348.1204-.4099-.1643-.8021.1559-1.2331.0022-.6261-.2234-1.2891-.2523-1.963-.2552-.3578-.0015-.5696.0735-.6732.354-.1007.2726.1071.4632.3112.6383.5412.4643 1.0659.9479 1.6039 1.416 1.2922 1.1241 2.5161 2.3409 4.4004 2.4359 1.4164.0715 2.8284.197 4.2408-.0073 1.2177-.1762 2.2589-.84 3.3819-1.2747 1.5831-.6127 3.1899-1.0871 4.8831-1.2518.3746-.0364.7466-.099 1.2547-.1678-.3789-.1984-.6352-.326-.8845-.466-.1269-.0713-.3285-.1254-.2534-.3243.0609-.1613.2423-.1686.3999-.1573.3798.0271.7373.1276 1.0788.3022 1.1314.5783 1.9391 1.5564 2.8645 2.3762 1.5661 1.3874 3.2754 2.3658 5.3884 2.5901.6837.0725 1.3619.0997 2.0455.0892.1182-.0018.2528-.029.3084.1168.0498.1305-.0256.2171-.115.3113-.1041.1097-.4604.0207-.2947.3455.0921.1805.1744.3657.3334.5111.2958.2705.9298.3226.6606.9776-.003.0073.0231.0239.031.0387.5132.9699 1.2343 1.6564 2.3369 1.9599.6064.1669 1.2327.2786 1.8217.5149.1638.0657.3477.1062.3477.3194.0004.8904.518 1.5094 1.055 2.141.316.3716.7173.6274 1.0632.9539.108.1019.1656.227.0807.3638-.0518.0834-.1403.0717-.2244.0192-1.1901-.7422-2.3388-1.52-2.7068-3.0046-.038-.1534-.0356-.3561-.2946-.3392-.6093.0397-1.1882-.1408-1.7582-.3062-1.2597-.3656-2.452-.8408-2.7797-2.3295-.0282-.1282-.0912-.2114-.2147-.2621-.4575-.1879-.7611-.5564-1.046-.9348-.141-.1873-.2782-.2826-.5293-.3205-.7911-.1194-1.5629-.3374-2.3228-.5913-.3404-.3372-.8223-.3884-1.2253-.6029-1.1703-.6227-2.1331-1.5096-3.1311-2.3583-.519-.4414-1.1088-.8525-1.7971-.9133-1.3406-.1184-2.6805-.0698-4.0104.4872 1.0543.376 1.7149 1.1649 2.4255 1.9285.6673.7171 1.4049 1.3817 2.4767 1.5308.9338.13 1.8698.0928 2.8026.1657.1551.0121.2685.0036.2844.1885-.2593.2536-.5823.346-.9315.3367-.2913-.0078-.3809.0661-.2402.3562.4352.8972 1.0623 1.6464 1.7537 2.3519.4739.4836.9321.9825 1.3994 1.4726.0736.0772.1555.1597.0745.2613-.1103.1383-.2037.025-.301-.0432-.5144-.3608-1.0314-.7179-1.5475-1.0763-1.153-.4502-1.9907-1.2641-2.6335-2.2971-.1802-.2896-1.0558-.6552-1.3605-.5386-.0555.0212-.1139.0772-.1378.1316-.1509.3438-.5004.7027.0904.9937.1252.0617.2042.2229.2965.3444.5826.766.9095 1.6586 1.2527 2.5428.2488 1.1531.3384 2.3262.425 3.4987.0094.1267.1034.3549-.1184.3843-.2317.0308-.2422-.212-.2775-.3637-.0889-.3819-.1354-.7738-.2247-1.1556-.2277-.9733-.3229-1.9859-.833-2.8777-.2186-.6995-.6787-1.2448-1.1435-1.7865-.1364-.159-.2667-.0976-.447-.035-.6017.2088-1.0634.6664-1.668.8739-.5834.2003-1.2144.2975-1.7693.6971.3114.1197.5853.2121.8486.3285.7058.3123 1.4115.6299 1.648 1.4702zm8.9408 22.8509c.5572-.5312.8052-1.2588 1.2012-1.8923.6952-1.1122.6894-1.1009-.5543-1.6392-1.1268-.4877-2.2439-.9985-3.36-1.5105-1.488-.6826-2.9777-1.3623-4.4544-2.0687-1.7686-.846-3.5874-1.59-5.2886-2.5738-.7833-.4529-1.5589-.919-2.3373-1.3804-.2945-.1746-.4731-.2498-.6392.2095-.2753.7614-.2155 1.5473-.2963 2.317-.1279 1.2179-1.1576 2.0362-2.0848 1.9662-.4949-.0374-.989-.1085-1.4481-.3141-.7443-.3332-1.4843-.676-2.2261-1.0147-2.6912-1.1936-4.7684-3.1393-6.6154-5.3866-.097.0184-.0887.125-.1109.1966-.2325.749-.479 1.4633.2934 2.1201.525.4464.9148 1.0496 1.3791 1.5701 1.6462 1.8453 3.3046 3.6853 5.1912 5.2876 1.8946 1.6091 3.851 3.1414 5.9475 4.495 1.3774.8893 2.7811 1.7292 4.2256 2.4938 1.8487.9786 3.7373 1.8824 5.667 2.6959.2582.1089.445.1213.6832-.0905.9012-.8012 1.8286-1.5736 2.9029-2.1422.1343-.0711.1791-.1987.2464-.3166.2025-.3548.4131-.7051.6129-1.0614.3638-.6485.8714-1.2194 1.065-1.9608zm-.0697 2.348c.2316-.0538.4619-.114.6951-.159.1337-.0258.3008-.2168.4-.0027.0918.1981-.1417.2818-.2435.4048-.0515.0623-.1433.0908-.216.1361-.778.4846-1.5793.936-2.3278 1.4625-.9701.6824-1.8766 1.4557-2.8501 2.1328-1.0284.7153-1.9688 1.5195-2.8173 2.4373-.1229.1329-.2089.2376-.1314.4458.2145.5763.4104 1.1519.8635 1.6043.463.4622.423.6767-.1818.9917-.382.1989-.7483.419-1.0767.6927-.4171.3476-.415.522-.0445.9289.5594.6143.7181.6523 1.4513.2625.3304-.1756.6426-.3889.9501-.6036.5684-.3969 1.5864-.2778 2.004.2521.9211 1.1685 2.1149 2.043 3.2439 2.9836.4569.3807.541.4993.2261 1.002-.2981.4758-.6113.9427-.9342 1.4021-.1571.2235-.1509.3906.0535.5792.3807.3513.7997.6396 1.2644.8675.2981.1462.4976.1025.6778-.2038.2247-.3819.4923-.7407.763-1.0928.4497-.5851 1.1514-.7746 1.7651-.5061 1.1049.4834 2.2138.9578 3.3535 1.3548.3613.1259.327.3911.2549.6676-.0646.2479-.212.4907-.2105.7351.0019.3211-.2123.7985.2926.9132.7736.1757 1.551.3855 2.3593.327.3774-.0273.5978-.195.5712-.6212-.0315-.5062.0871-.9702.3792-1.4089.1652-.2481.3458-.3345.5887-.261.5692.1721 1.1504.1163 1.7273.1316 2.1502.0572 4.277.0013 6.2615-1.0156 1.0638-.5452 2.1808-.9977 3.033-1.8719.4225-.4335.9193-.7515 1.0985-1.456.4394-1.7276.7191-3.5095 1.4405-5.1544.6536-1.4905.9918-3.0882 1.7434-4.5544 1.3757-2.6837 2.7371-5.3617 4.4464-7.8612 1.9091-2.7916 4.1375-5.2773 6.6729-7.5006.1549-.1358.29-.2547.287-.5052-.0071-.5965.0882-1.1855.1777-1.7766.1298-.8576.2176-.7252.9787-.6632.6208.0506.6126.0825.5932-.5344-.0952-3.0286-.4391-6.0299-.9596-9.0136-.1613-.9246-.2577-1.8605-.4141-2.7862-.0456-.2699-.0049-.6681-.419-.7028-.731-.0612-1.4738-.1645-2.1973-.0967-1.6493.1546-3.2799.4774-4.8749.9186-2.0806.5755-4.0426 1.4733-5.9663 2.4416-1.1555.5816-2.2705 1.2243-3.2849 2.059-.8335.6858-1.5518 1.4858-2.3795 2.1691-1.1298.9329-2.3848 1.6947-3.5351 2.6064-1.2962 1.0274-2.6111 2.0436-3.8691 3.1075-1.5019 1.2703-3.0133 2.5477-4.3835 3.9779-1.8591 1.9404-3.5432 4.0116-4.995 6.2712-.8391 1.306-1.7383 2.5761-2.4164 3.98-.0649.0516-.2143.084-.1155.1928.0764.0835.1606-.0271.2267-.0874zm-52.122-25.5715c-.9494.0189-1.7942.1742-2.5986.4892-2.6376 1.0326-5.0793 2.4391-7.4525 3.9702-.8556.552-1.6208 1.2309-2.5587 1.6732-.7093.3346-.7374.7473-.236 1.3908.1048.1345.225.2572.3402.3834.2026.2219.3993.2595.6517.0436.4365-.3734.9905-.421 1.5323-.488.1491-.0185.3421.024.3395.1549-.011.5435.4657.6637.7585.9418.6096.5791 1.353.9843 2.0562 1.4145.4515.2762.3266.431.1274.6787-.169.2102-.4242.3525-.5859.5667-.1669.2209-.4013.4985-.1441.779.2977.3246.6387.6139.9859.8867.1376.1081.3585.1889.5024-.0215.266-.3892.7079-.5169 1.0683-.7666.4655-.3227.801-.2245 1.1521.1744.726.8249 1.5437 1.5464 2.496 2.1087.8963.5293.8901.7622-.042 1.2648-.3303.1781-.3706.4005-.2345.7194.1977.4636.6651.5601 1.0349.7895.198.1228.3598.0947.549-.0717.341-.2999.7061-.5775 1.0865-.8258.2889-.1886.6043-.4424.8087.1582.1038.3049.5064.3979.7996.47.1724.0424.2623-.2788.3491-.4521.4834-.965 1.1983-1.7821 1.7213-2.7187.2228-.399.4455-.747.906-.9102.5793-.2052 1.1625-.4157 1.7101-.6913 1.8304-.9211 3.6872-1.7858 5.5343-2.6715.5872-.2815 1.2446-.4755 1.6647-1.0657.9477-1.3313 1.868-2.6755 2.6143-4.1351.3626-.7091.7813-1.3904 1.1927-2.0734.7751-1.2868 1.6701-2.4932 2.515-3.7335.9596-1.4087 1.8551-2.8601 2.8712-4.2319.8165-1.1023 1.7582-2.086 2.7421-3.0329.5366-.5164.5516-.5122-.0553-1.0163-1.1508-.9558-2.1601-2.0774-3.5247-2.7868-.357-.1856-.6254-.3268-.9584-.1707-.9137.4283-1.6121.061-2.2491-.5577-.1311-.1273-.2442-.253-.4357-.1928-.3405.1071-.6902.2001-1.0114.3513-2.7671 1.3028-5.4124 2.7984-7.8126 4.7212-2.0967 1.6797-4.0037 3.5504-5.8925 5.4515-1.2169 1.2248-2.4036 2.5107-3.9554 3.3381-.4095.2183-.7476.582-1.2929.6886.1733-.4706.6233-.6035.9303-.9942zm62.4796-34.4535c-.4778.033-.9552.0776-1.4335.0959-.5469.0209-1.0172.1944-1.4226.5734-.7715.7215-1.5552 1.43-2.3378 2.1395-.4078.3696-.6317.6853-.1827 1.2533.257.3251.4528.5286.8609.5798.421.0528.8351.1725 1.2463.2846.1363.0372.3216.0563.3537.2513.1053.6405.3643.278.5903.0896.1047-.0873.1959-.1908.2945-.2855.8092-.7775 1.6936-1.1223 2.7691-.5206.3563.1993.7256.4139 1.1161.5046.5529.1284.7682.5245.9679.964.2376.5229.1562 1.082.1103 1.6181-.2618 3.0633-.4132 6.1287-.2642 9.2027.0513 1.0592.1711 2.1125.3463 3.1596.0689.4117.2357.6312.7011.6336.4866.0025.9505-.0815 1.4162-.1876.2075-.0473.4578-.2131.5769.0766.1109.2699.2395.5716-.0945.8331-.4426.3465-.8404.7514-1.2907 1.0864-.2115.1574-.281.3461-.2878.5621-.0139.4427-.019.8891.0208 1.3296.2072 2.2924.7652 4.4909 1.6093 6.6408.889 2.2641 2.4406 4.1033 3.6966 6.131.3233.5219.5285.4955 1.0197.1428.9555-.6863 1.9314-1.3436 2.9803-1.8788.3804-.1941.4132-.397.1783-.7189-.1704-.2336-.3166-.4849-.4712-.7299-.7771-1.2316-1.2873-2.5989-1.9706-3.8779-.515-.9641-1.0261-1.9397-1.3593-2.974-.9891-3.0698-2.0077-6.1314-2.5187-9.3366-.2459-1.5422-.3454-3.0934-.3501-4.6372-.0069-2.2665.173-4.5336.2746-6.8003.0404-.9012.0065-1.7759-.7878-2.4041-.1726-.1365-.3631-.2626-.4995-.4307-.7626-.9399-1.5484-1.8631-2.1797-2.9023-.0958-.1577-.194-.3599-.4109-.3478-1.0918.0606-2.1724-.2408-3.2676-.1202zm28.1634 47.9431c.2159.5581-.0301.8908-.5337 1.1373-.2687.1315-.5143.3375-.7262.5532-1.3531 1.3775-2.4995 2.9221-3.6338 4.4799-1.7718 2.4332-3.3719 4.9636-4.5983 7.7201-.5696 1.2803-1.0704 2.5854-1.4221 3.9424-.1542.5949-.0321.6974.555.5409 1.7628-.4699 3.494-1.047 5.1651-1.7696 1.2527-.5417 2.4119-1.244 3.0196-2.5951.5803-1.2901 1.0105-2.6371 1.5713-3.9333.5685-1.3142.5448-2.7681.9626-4.1203.2374-.7684.2276-1.5814.3369-2.3733.2179-1.5783.1919-3.1736.3426-4.7559.048-.5045-.3538-.3686-.5857-.4549-.3247-.1209-.3063.1427-.3262.3431-.0421.4247-.0839.8494-.1271 1.2855z" fill="#0c0d0d"/><path d="m126.9169 107.8812c-.8923-.8116-1.8082-1.5991-2.6692-2.4426-.6426-.6296-1.203-1.3423-1.8214-1.9977-.4953-.5248-.2499-1.1262-.1948-1.6903.191-1.9554.321-3.9111.2523-5.877-.0125-.3577.0099-.7167.0162-1.0751.1326.0017.2621.0114.3462.1362-.2765.2421-.0458.3601.1328.4376 1.904.8262 3.8182 1.6292 5.7175 2.4661 1.1037.4863 2.2262.9166 3.3706 1.2934-.4995 1.2911-1.2039 2.4806-1.8554 3.6946-.8699 1.6208-1.8699 3.1647-2.9044 4.6851-.0998.1465-.1613.3521-.3904.3697z" fill="#8da16c"/><path d="m117.9831 118.3602c-.2078-.2103-.4632-.0841-.6817-.063-1.6947.1635-3.3648.5037-5.0524.7281-1.4637.1946-2.9187.3907-4.3972.3811-.611-.004-.6942-.0726-.559-.6695.1424-.629.3276-1.2482.4937-1.8718.0736-.2761.2351-.4055.5351-.4605 1.9771-.3624 3.9486-.7464 5.829-1.4962 1.6591-.6616 3.2913-1.3675 4.7438-2.4304.1948-.1426.4263-.183.6743-.2029 1.1957-.0956 2.2301.2802 3.1508 1.0203-.018.3498-.336.4938-.5199.7223-.3572.4436-.6842.92-1.1431 1.2738-.0267.0285-.0535.0571-.0802.0858l-.012.0153c-.2432.202-.5218.3733-.6145.7063l-.0037.004c-.033.0333-.066.0667-.099.1l-.002.0035c-.5581.3205-.975.7863-1.3404 1.3048.0003.0448.0006.0897.0009.1345l.0039-.0048c-.0693.0023-.1053.0378-.107.1074l.0042-.0042c-.0697.0016-.1058.0368-.107.107l.0041-.0041c-.0701.0013-.106.0366-.107.107l.0041-.0041c-.0703.001-.1063.0363-.1069.1069l.0041-.0041c-.0706.0007-.1064.0361-.107.1069l.0041-.0041c-.0708.0005-.1065.036-.1069.1069l.0042-.0035c-.1304-.0485-.2032.0774-.3094.1013z" fill="#587034"/><path d="m134.5711 71.2568c-.2992-.0103-.4823-.2162-.6805-.3998-.1572-.1457-.284-.3495-.5464-.3128-.3302.0031-.4868.2646-.6833.4637-.4498.4555-.8959.9147-1.3435 1.3724-.0504-.008-.1208.0024-.1478-.0271-.2094-.2279-.2477-1.1922-.0342-1.425.582-.6345 1.0468-1.3489 1.4857-2.084.04-.067.1275-.1055.1929-.1573.0824.0459.0835.2259.2195.1664.1665-.0728.2515-.2178.2596-.4076.03-.6965.1005-1.3935.0879-2.0891-.015-.8313-.1786-1.6664-.1268-2.4903.0357-.5677-.1402-1.0145-.4268-1.42-.2916-.4127-.6693-.776-1.0539-1.1093-1.4105-1.2223-2.6202-2.6332-3.8511-4.0256-.419-.474-.8421-.9448-1.2793-1.4018-.0998-.1043-.3369-.3744-.3065.0915-.0802-.0189-.1888-.0107-.2366-.0606-1.2217-1.276-2.7359-2.2132-3.9904-3.4502-.1556-.1534-.3506-.2885-.3344-.5491.7282-.1209 1.4649-.2354 2.052.3688 1.0231 1.0531 2.1555 1.9855 3.2476 2.9617 1.8589 1.6615 3.7327 3.3068 5.6237 4.9316.742.6375 1.3034 1.5143 2.3105 1.8155.8001.2393 1.5788.553 2.4067.6962.0215.1826.1441.3484.09.5434-.7656-.1472-1.533-.2868-2.2967-.4437-.5428-.1115-.7446.0569-.7671.5959-.0757 1.8127-.0057 3.6306-.1948 5.4391-.0214.2044-.026.3866.1723.5485 1.2678 1.035 2.4138 2.2118 3.7184 3.2048-.0062.4841-.0123.9681-.0183 1.4521-.9305-.8354-1.7153-1.8273-2.7505-2.5516-.2462-.1725-.4893-.3018-.7979-.2467z" fill="#576e36"/><path d="m122.8462 94.9347c-.0842-.1248-.2136-.1345-.3462-.1362-.1334-1.2686-.149-2.5436-.2103-3.8161-.0147-.3053-.0457-.6098-.0691-.9146.8292-.1815 1.0526-.6987 1.0325-1.5241-.0268-1.1029.1119-2.2099.181-3.315.0073-.1163-.0041-.2692.1607-.2694.1667-.0002.1317.1654.1679.2717.0847.2488.0691.5053.0734.7613.0271 1.6197-.0752 3.2457.2128 4.8529.0599.334.1428.6702.2672.9848.152.3841.1897.7535.04 1.139-.2332.5933.3185.6889.6139.8782 1.1469.7352 2.4342 1.208 3.6229 1.8671 1.3377.7417 2.6591 1.5128 3.9875 2.271-.024.2879-.2072.5077-.3233.7561-1.2498-.5281-2.5195-1.0033-3.7623-1.5557-1.6182-.7193-3.1993-1.5181-4.8271-2.2156-.2914-.125-.5409-.1688-.8215-.0354z" fill="#576e36"/><path d="m123.6084 112.3344c-1.0122-.6494-2.0265-1.2954-3.0346-1.951-.1921-.1249-.3393-.2794-.1982-.5538.7181-1.3964.9698-2.9385 1.3647-4.4352.1445-.5475.1377-.5481.5753-.1607 1.3365 1.183 2.6783 2.36 4.0181 3.5392-.3648.8313-.9983 1.4771-1.5371 2.1849-.3656.4803-.6861 1.0101-1.1882 1.3766z" fill="#8ca16c"/><path d="m137.6208 63.9418c.3851 2.6491.5874 5.3099.507 7.9884-.8725-.7906-1.7363-1.5909-2.6209-2.3675-.4712-.4136-.6846-.8176-.6267-1.5242.1131-1.3816.0194-2.7813-.0157-4.1728-.0076-.3001.0823-.3355.3437-.315.8159.0638 1.6221.1759 2.4126.3911z" fill="#8ca16c"/><path d="m137.4156 62.7147c-.8279-.1432-1.6066-.4568-2.4067-.6962-1.0071-.3012-1.5685-1.178-2.3105-1.8155-1.891-1.6248-3.7648-3.2701-5.6237-4.9316-1.0921-.9761-2.2244-1.9086-3.2476-2.9617-.5871-.6043-1.3238-.4898-2.052-.3688-1.5465-.0806-3.0935-.1661-4.6417-.0606-.3472.0236-.6797-.0639-1.0211-.065-.1121-.0004-.2746.0564-.2835-.1192-.0099-.1972.1691-.1641.3001-.1852.899-.1447 1.8093-.1317 2.714-.1762 1.4297-.0703 2.8624-.0819 4.2939-.1152.0989-.0023.2182-.0259.2883.0679.8886 1.1903 2.1184 2.0154 3.2185 2.974 2.4217 2.1102 4.8905 4.1662 7.3314 6.2545.9113.7797 1.9877 1.1938 3.1224 1.4968.3531.1221.3498.4056.3182.702z" fill="#0c0d0d"/><path d="m137.6208 63.9418c-.7905-.2152-1.5967-.3273-2.4126-.3911-.2614-.0204-.3512.015-.3437.315.0351 1.3915.1288 2.7912.0157 4.1728-.0579.7067.1555 1.1106.6267 1.5242.8847.7766 1.7485 1.5769 2.6209 2.3675.0591.2234.1745.4458.0099.6724-1.3046-.993-2.4505-2.1698-3.7184-3.2047-.1983-.1619-.1937-.3441-.1723-.5485.1891-1.8086.1191-3.6264.1948-5.4391.0225-.539.2243-.7075.7671-.5959.7637.1569 1.5311.2965 2.2967.4437.1449.21.104.4512.1152.6837z" fill="#0c0d0d"/><path d="m132.5803 97.9853c-1.3285-.7583-2.6499-1.5294-3.9875-2.271-1.1887-.6591-2.4759-1.1319-3.6229-1.8671-.2954-.1893-.8471-.2849-.6139-.8782 1.417.5467 2.7448 1.2842 4.109 1.9421 1.2914.6227 2.5438 1.326 3.8164 1.9881.1808.094.3787.155.5687.2313.1057.3466-.0143.6221-.2698.8548z" fill="#0c0d0d"/><path d="m122.8462 94.9347c.2806-.1334.5301-.0896.8215.0353 1.6277.6976 3.2089 1.4964 4.8271 2.2156 1.2428.5524 2.5125 1.0276 3.7623 1.5557.0168.1692-.0408.3021-.1899.3905-1.1444-.3769-2.267-.8071-3.3707-1.2934-1.8993-.8369-3.8135-1.6399-5.7175-2.4661-.1787-.0775-.4093-.1955-.1328-.4376z" fill="#0c0d0d"/><path d="m134.5711 71.2568c.3086-.0551.5517.0742.7978.2463 1.0352.7243 1.82 1.7162 2.7505 2.5516.0042.257.0085.5139.0128.7707-1.0603-.9464-2.0011-2.0183-3.0917-2.9344-.1933-.1624-.5855-.2256-.4694-.6342z" fill="#111211"/><path d="m118.9043 117.5114c.3655-.5185.7823-.9842 1.3404-1.3047-.2816.5599-.7987.9029-1.2252 1.3295-.0384-.0084-.0768-.0166-.1152-.0248z" fill="#8ca16c"/><path d="m120.3495 116.0991c.0928-.333.3713-.5044.6145-.7063-.0972.3291-.3804.4963-.6145.7063z" fill="#8ca16c"/><path d="m129.4972 39.8903c-.2514-.0852-.3465-.2643-.3129-.5207.2019.115.2921.297.3129.5207z" fill="#c29f35"/><path d="m117.9831 118.3602c.1062-.0239.179-.1499.3089-.1011-.059.1522-.1579.2628-.32.3077-.0968-.0742-.0242-.1394.0111-.2066z" fill="#c29f35"/><path d="m129.6001 40.0954c-.1358-.02-.1861-.0834-.1072-.212.0999.0381.1113.1212.1072.212z" fill="#c29f35"/><path d="m117.7696 118.6662c.0262-.122.0621-.2249.2101-.1062-.0331.1085-.1007.1487-.2101.1062z" fill="#c29f35"/><path d="m129.6035 40.2988c-.0024-.07-.0049-.1399-.0073-.2099.1012.04.1126.1228.1028.2159-.0319-.0028-.0637-.0048-.0955-.006z" fill="#c29f35"/><path d="m120.9761 115.3774c.0268-.0287.0536-.0573.0802-.0858-.0268.0288-.0535.0573-.0802.0858z" fill="#8ca16c"/><path d="m120.2468 116.2031c.033-.0334.066-.0667.099-.1-.033.0334-.066.0667-.099.1z" fill="#8ca16c"/><path d="m118.9043 117.5114c.0384.0082.0768.0165.1152.0247-.0381.0366-.0762.0732-.1144.1098-.0002-.0448-.0005-.0897-.0008-.1345z" fill="#c29f35"/><path d="m118.8021 117.7485c.0017-.0696.0377-.1051.107-.1074-.0357.0357-.0714.0716-.107.1074z" fill="#c29f35"/><path d="m118.6993 117.8513c.0012-.0702.0373-.1054.107-.107-.0357.0357-.0714.0713-.107.107z" fill="#c29f35"/><path d="m118.5964 117.9542c.0009-.0704.0369-.1057.107-.107-.0357.0356-.0713.0713-.107.107z" fill="#c29f35"/><path d="m118.4936 118.057c.0007-.0706.0366-.106.1069-.1069-.0356.0356-.0713.0712-.1069.1069z" fill="#c29f35"/><path d="m118.3907 118.1598c.0005-.0708.0364-.1062.107-.1069-.0357.0357-.0713.0713-.107.1069z" fill="#c29f35"/><path d="m118.2878 118.2627c.0004-.0709.0362-.1064.1069-.1069-.0356.0356-.0712.0712-.1069.1069z" fill="#c29f35"/><path d="m112.8461 47.5972c.4957.1985 1.1057 1.353.9732 1.8794-.1916.7616-.5367 1.4573-.9208 2.1407-.4974.8849-.9842 1.7794-1.6129 2.5754-1.2774 1.6172-2.4212 3.3464-3.9681 4.7411-1.3193 1.1894-2.6367 2.3885-4.0903 3.4045-.6291.4398-1.2145.9211-1.814 1.3913-.1871.1467-.2355.3083-.2209.5692.0863 1.5489.6167 2.9994.9463 4.4936.4465 2.0241 1.228 3.9394 2.0248 5.8361.54 1.2854 1.0589 2.5875 1.6703 3.839.507 1.0378 1.0803 2.0468 1.577 3.0934.1967.4145.404.824.6121 1.2328.0307.0603.098.1168.0387.1781-.1967.2033-.4643.2891-.7191.3788-.2048.072-.2865-.1209-.3863-.259-.8729-1.2071-1.4854-2.5638-2.2162-3.8525-.9857-1.7381-1.6815-3.6054-2.3773-5.4668-.5764-1.5419-.9865-3.1389-1.3963-4.7367-.5002-1.95-.4782-3.944-.6789-5.9193-.0344-.3384-.0559-.6781-.0834-1.0172.2208.1742.4471.1053.6802.0252 1.6342-.5617 3.0928-1.4391 4.474-2.4622 1.4736-1.0916 2.5415-2.5642 3.7354-3.9211 1.3316-1.5134 2.2318-3.3106 3.3274-4.9785.3835-.5838.5225-1.2945.6929-1.975.0325-.13.011-.2481-.0912-.3257-.3158-.2398-.3204-.5351-.1766-.8646z" fill="#576e36"/><path d="m131.3173 72.3803c.4476-.4577.8937-.9169 1.3435-1.3724.1965-.199.3531-.4606.6833-.4637.0831.5291-.3078.8478-.5842 1.1811-1.0245 1.2355-2.1232 2.4088-3.1667 3.6271-1.5281 1.7839-2.9743 3.6381-4.3422 5.5504-.2937.4106-.4723.8563-.4921 1.3759-.0252.6622-.2179 1.3083-.2217 1.9769-.0011.1919-.1023.3863-.3436.3675-.2222-.0173-.2645-.2245-.2532-.3879.0633-.9178.0956-1.8423.24-2.7483.1011-.6343.6303-1.0803.9981-1.5814 1.6656-2.2694 3.4735-4.4251 5.3336-6.5375.2804-.3185.5374-.6579.8052-.9877z" fill="#0c0d0d"/><path d="m118.391 49.846c1.2068-.2389 2.433-.2681 3.6555-.3332.1388-.0074.3452-.0265.3458.2.0004.1587-.1537.1462-.2727.1617-1.8582.2421-3.6993.6138-5.5757.7232-.2241.0131-.3273-.0094-.4249-.226-.1102-.2445.0524-.2868.1853-.3865.7317-.5495 1.1515-1.3422 1.5637-2.1194.7269-1.3706 1.3927-2.7735 2.0896-4.16.222-.4417.4586-.8761.6946-1.3107.1389-.2558.2029-.4442-.166-.593-.199-.0803-.4309-.2327-.5101-.475-.0482-.1476-.1402-.3272.0856-.4436.1779-.0917.296-.1647.4576.0735.1667.2459.4193.4333.7155.5577.2296.0965.4286.2687.1288.5271-.32.6165-.6558 1.2255-.9571 1.8511-.9614 1.9966-1.84 4.0333-2.9277 6.0237.32-.0248.6161-.0477.9122-.0706z" fill="#0c0d0d"/><path d="m126.3365 56.001c-.0304-.4659.2067-.1958.3065-.0915.4372.457.8603.9278 1.2793 1.4018 1.2309 1.3924 2.4406 2.8033 3.8511 4.0256.3847.3333.7623.6966 1.0539 1.1093.2866.4056.4626.8523.4268 1.42-.0519.8239.1118 1.659.1268 2.4903.0126.6956-.0579 1.3926-.0879 2.0891-.0082.1898-.0931.3349-.2596.4076-.136.0595-.1371-.1205-.2195-.1664.004-.0649.0079-.1299.0118-.1948.0084-.0139.0264-.0303.0236-.0414-.0076-.0297-.0241-.0571-.037-.0854.0549-1.4966.0487-2.9932-.0458-4.4876-.0349-.5519-.3867-.9817-.6981-1.3988-.3562-.477-.7709-.9142-1.1888-1.3406-1.4837-1.5135-2.8487-3.1328-4.2416-4.7272-.1114-.1272-.2016-.2729-.3015-.41z" fill="#0c0d0d"/><path d="m118.391 49.846c-.2961.0229-.5922.0458-.9124.0705 1.0877-1.9904 1.9662-4.0271 2.9277-6.0237.3013-.6256.6371-1.2346.9571-1.8511.3651.3236.2896.6622.125 1.0791-.6563 1.6627-1.6267 3.162-2.4184 4.7535-.2596.5219-.4916 1.0523-.6962 1.5971-.0519.1382-.0967.2541.0172.3746z" fill="#576e36"/><path d="m132.8122 68.3653c.013.0283.0295.0557.037.0854.0028.0111-.0152.0275-.0236.0414-.0043-.0423-.0088-.0846-.0134-.1268z" fill="#576e36"/><path d="m79.2111 81.3952c.5161.3584 1.0331.7155 1.5475 1.0763.0973.0682.1907.1815.301.0432.0811-.1016-.0009-.1841-.0745-.2613-.4672-.4902-.9255-.9891-1.3994-1.4726-.6913-.7054-1.3184-1.4547-1.7537-2.3519-.1407-.29-.0511-.3639.2402-.3562.3492.0093.6722-.0831.9315-.3367.7528 0 1.4896-.0812 2.1747-.4262.76.2539 1.5317.4719 2.3228.5913.251.0379.3882.1333.5293.3205.2849.3784.5885.7469 1.046.9348.1235.0507.1865.1339.2147.2621.3277 1.4886 1.5201 1.9638 2.7797 2.3295.57.1654 1.1489.3459 1.7582.3062.259-.0169.2566.1858.2946.3392.368 1.4847 1.5167 2.2624 2.7068 3.0046.0841.0525.1726.0642.2244-.0192.0849-.1368.0272-.2619-.0807-.3638-.3459-.3265-.7472-.5822-1.0632-.9539-.537-.6316-1.0546-1.2506-1.055-2.141-.0001-.2132-.1839-.2537-.3477-.3194-.589-.2363-1.2153-.348-1.8217-.5149-1.1027-.3035-1.8238-.99-2.3369-1.9599-.0078-.0148-.034-.0314-.031-.0387.2691-.655-.3648-.7071-.6606-.9776-.159-.1454-.2413-.3306-.3334-.5111-.1657-.3247.1907-.2357.2947-.3455.0893-.0942.1647-.1808.115-.3113-.0556-.1458-.1902-.1187-.3084-.1168-.6836.0105-1.3618-.0166-2.0455-.0892-2.113-.2242-3.8223-1.2026-5.3884-2.5901-.9254-.8198-1.7331-1.7979-2.8645-2.3762-.3415-.1745-.699-.2751-1.0788-.3022-.1576-.0112-.339-.004-.3999.1573-.0751.1989.1265.2531.2534.3243.2493.14.5056.2676.8845.466-.5081.0688-.8802.1314-1.2547.1678-1.6932.1647-3.3.6391-4.8831 1.2518-1.123.4346-2.1641 1.0985-3.3819 1.2747-1.4124.2043-2.8244.0788-4.2408.0073-1.8842-.0951-3.1082-1.3118-4.4004-2.4359-.5381-.4681-1.0627-.9516-1.6039-1.416-.2041-.1751-.4119-.3658-.3112-.6383.1036-.2806.3155-.3555.6732-.354.6739.0028 1.3369.0318 1.963.2552.431.1538.8233-.1665 1.2331-.0022.0268.0107.1276-.0722.1348-.1204.0253-.1686-.1178-.163-.2297-.2032-.6626-.238-1.3583-.3122-2.0449-.437-1.334-.2425-2.6835-.2599-4.031-.3218-.452-.0208-.8828.0608-1.3124.1784-.1079.0295-.194.1222-.3322.0376-.5604-.3431-1.1689-1.7519-1.0634-2.4589.045-.3019.159-.4955.4843-.5726.3126-.0741.6016-.2506.9147-.3189.4124-.0899.7799-.1816 1.2462.0835 1.1631.6612 2.3213 1.3812 3.6965 1.5658 1.0134.1361 1.996-.0526 2.9852-.2301 1.7126-.3073 3.2226-1.0971 4.6921-1.9678.5003-.2965.9455-.3716 1.4963-.1819 2.2315.7688 4.4864.7474 6.7427.1082 1.2809-.3629 2.2434-1.1995 3.1114-2.1624.3075-.3411.6149-.681.8075-1.1112.1524-.3402.3859-.0738.4925.0175.5555.4756 1.1003.9786 1.4043 1.6599.1671.3745.4636.6281.7007.9367.1238.1612.2824.1812.4536.0755.7846-.4844 1.6879-.6133 2.5526-.859.1453-.0413.3019-.0936.3179-.2884 1.0763-.188 2.0272.1 2.8804.7588-.8677 1.206-2.0131 2.0636-3.3599 2.6638-.2145.0956-.473.0797-.6571.2611-.1193.1176-.2459.2688-.0319.3608.3074.1322.6179.3734.9511.3214 1.0401-.1622 1.8633-.7548 2.574-1.4899.4681-.4842.8687-1.0337 1.2995-1.5539.5839.291 1.0956.6598 1.3775 1.2766-.0902.214.0516.2716.2032.3838 1.3395.9919 2.1672 2.2847 2.2792 3.9843.0228.3454-.0876.9233.2198.9503.2964.026.49-.5273.6203-.897.0057-.0161.0116-.0328.013-.0495.027-.3215.1684-.3851.5042-.3621.3503.024.415.2266.5197.4568.0784.1724.2313.2835.4066.2545.2121-.0351.2119-.2451.2059-.4134-.0061-.169-.045-.3368-.0696-.5051.0739-.1306.1772-.1211.3081-.089.7774.1906 1.3762.6937 1.9132 1.2241.5082.502 1.0274 1.0454 1.056 1.8618.0323.9232.324 1.7921.6437 2.6519.0632.17.1336.0989.2236.0704l-.0004.0008c-.1899.5417-.225 1.0806-.041 1.6385.138.4184.2076.8591.336 1.2812.6909 2.2716.4882 4.6473.8211 6.9602-.8967.133-1.7538.3912-2.6075.7036-2.2119.8095-4.0934 2.0781-5.6714 3.8235-.8625.9539-1.6293 2.03-2.9174 2.4971-.1423.0516-.3491.1539-.2661.3739.092.2441.3106.1679.4862.1192 1.0183-.2824 1.8029-.9299 2.4827-1.6937 1.2278-1.3793 2.5031-2.6896 4.1613-3.566 1.0857-.5738 2.1837-1.1125 3.3699-1.4497.0467-.0141.0933-.0282.14-.0424.0682-.0153.1365-.0306.2047-.046-.0184.1632.0479.2916.1421.4227.3369.4688.348.9791.1629 1.5076-1.7941.3897-3.3723 1.2441-4.8854 2.2485-1.8572 1.2329-3.5504 2.69-5.396 3.9366-1.7042 1.1511-3.5602 1.9242-5.6297 2.1162-.0836.0078-.1738.0025-.2488.033-.1489.0606-.3764.0599-.3664.2915.0113.2614.2549.2649.4256.2719 1.0867.0444 2.1178-.1963 3.1415-.5605 2.3357-.831 4.2662-2.3044 6.1917-3.7952.3227-.2499.6608-.48.9917-.7193.1316.0713.2564.1832.396.2068.5878.0992.9035.4785 1.0935 1.0007.0686.1884.1254.3811.1876.5719-1.5667 1.3696-3.0415 2.8317-4.455 4.3591-1.0757 1.1623-2.2726 2.2142-3.1787 3.5291-.2169.3148-.5268.1961-.788.1261-.5753-.1543-1.1363-.3612-1.7067-.5347-1.4842-.4514-2.8775-1.1213-4.2996-1.729-1.6157-.6903-3.1672-1.5073-4.7609-2.2386-.5107-.2343-1.0223-.4788-1.4963-.7776-.6597-.4159-.8295-1.1828-1.1769-1.8179-.0746-.1364.1197-.1716.2107-.2339.1526-.1045.2774-.2388.1637-.4229-.1054-.1708-.2998-.1409-.4622-.0908-.1288.0397-.2537.1086-.3649.1866-1.0095.7083-1.9883.4944-2.9598-.0856-.4856-.2899-.8208-.2324-1.1076.2496-.2426.4079-.5345.8305-.52 1.3189.013.4358-.238.6732-.5124.8765-.6855.5079-1.4299.9162-2.2501 1.1803-.2952.0951-.5763.0833-.8353-.0421-1.8404-.8911-3.651-1.8322-5.1475-3.2662-.0241-.0231-.0391-.0555-.0583-.0836-.093-1.6519.2396-3.2579.5864-4.8522.3798-1.7458 1.1943-3.3305 2.0176-4.9026.099-.1891.2123-.3549.0594-.5608.0843-.1433.234-.1922.3726-.2563.1269-.0587.2649-.1097.2023-.2952-.0652-.1932-.1934-.2517-.3988-.2212-.5903.0877-1.0789.4043-1.5871.6782-.1606.0866-.2966.2244-.5396.2378.0524-.2864.1828-.5181.3223-.7425.5738-.923.9213-1.9668 1.535-2.8681.0728-.1069.1281-.2239.0018-.316-.1349-.0983-.2141.0476-.3053.1088-.7855.5268-1.1668 1.3744-1.6385 2.1361-1.3256 2.1403-2.2662 4.4684-3.2507 6.7768-.6429 1.5076-1.1833 3.0543-1.8304 4.559-.3.6976-.952 1.0153-1.5454 1.3567-.78.4487-1.6.8295-2.353 1.3276-.4034.2668-.8619.4028-1.303.5813-1.9276.7798-3.9159 1.3485-5.9347 1.851-2.0804.5178-4.1811.9256-6.2759 1.3667-.4329.0911-.883.0594-1.3241-.0227-.2242-.0417-.2837-.116-.1652-.342.6263-1.195 1.3087-2.3592 2.0621-3.475.2852-.4224.8731-.4888 1.3339-.6961.2261-.0288.2748.4089.4875.247.2804-.2134.6925-.3275.7491-.7675.8685-.438 1.7483-.8551 2.6026-1.3192 1.181-.6416 2.4705-1.0651 3.5934-1.8257.3373-.2285.4993-.5372.7104-.861.5773-.8851 1.1524-1.7707 1.69-2.6805.1556-.2633.3085-.5294.4428-.8039.7054-1.4426 1.5553-2.7954 2.46-4.1214 1.0235-1.5002 2.1292-2.9412 3.1529-4.4389.8004-1.171 1.6333-2.3065 2.6296-3.3163.5661-.5737 1.2792-.9496 1.9421-1.3911.1112-.0741.2451-.0586.4059.0467 2.2713 1.4865 4.7816 1.4977 7.3363 1.1131.4421-.0666.633-.031.8343.4219 1.1243 2.5295 2.3524 5.0139 3.8362 7.3514.6075.9571 1.5547 1.659 2.4103 2.4131.1189.1048.2602.0967.3782.0146.1729-.1202.0441-.2497-.0315-.3485-.3916-.5115-.7926-1.0157-1.1904-1.5224.4727-.2423 1.0711-.1934 1.4599-.6299.0765-.0056.153-.0112.2295-.0169.0314-.0234.0628-.0467.0941-.0701l.014-.0293c.3439-.219.8484-.1779 1.0409-.6424.1385.1564.2015.3515.2892.5364.6288 1.3261.7919 2.7859 1.2025 4.1746.4252 1.4378.7944 2.8782 1.6183 4.1728.5245.8241 1.1156 1.5763 1.7639 2.2955.1554.1724.261.4499.5631.3027.3074-.1499.2215-.4074.1439-.6666-.1921-.6423-.5332-1.2175-.8112-1.8199-.3578-.7754-.7579-1.5307-.929-2.3779-.0282-.1395-.1174-.3079-.233-.2899-.1713.0266-.1929.2169-.158.376.0512.2336.1039.4683.1782.6952.1702.5199.3548 1.035.5311 1.5529.024.0706.1384.1392.0388.2181-.1165.0923-.1727-.014-.2406-.0932-.3026-.3529-.5001-.7691-.7149-1.1746-.7947-1.5001-1.074-3.1621-1.4889-4.7803-.3177-1.2393-.5431-2.5088-1.2914-3.592.2519-.3596.6621-.3456 1.0283-.4354.5101.8918.6054 1.9044.833 2.8777.0893.3818.1358.7737.2247 1.1556.0353.1517.0459.3945.2775.3637.2218-.0295.1277-.2576.1184-.3843-.0867-1.1726-.1763-2.3456-.425-3.4987.5813.0402 1.0914-.1777 1.5679-.4697.3311-.2017.7922-.2448.9256-.7067zm6.8149 5.4652c.748-.0518 1.504-.0399 2.2287-.2872.126-.043.2918-.0124.335-.1787.0494-.1905-.1359-.2553-.2324-.3653-.1167-.1331-.2867-.0829-.4308-.1224-1.599-.4386-3.3838-.3725-4.6557-1.7045-.127-.133-.2775-.1405-.4145-.0314-.1533.122-.1172.2833-.0131.4114.2464.3036.4913.6018.8611.7847.4659.2304.9493.3833 1.4601.4473.2087.0262.3504.1342.3095.3182-.0364.1639-.2347.0848-.3506.0558-.3898-.0976-.8228-.0427-1.1529-.3628-.1463-.1419-.3349-.0467-.4609.0781-.1645.1629-.0414.2998.0628.4472.1097.1553.2612.2083.4277.2519.664.1738 1.3323.3136 2.026.2577zm-5.0288-1.2014c.1149 2.074.5256 4.0482 1.536 5.8607.0871.1563.1942.4638.4297.335.2984-.1632.0558-.4355-.0317-.6227-.8213-1.757-1.2076-3.6155-1.3655-5.5364-.0204-.2481.0982-.7069-.3008-.6997-.351.0063-.1609.4566-.2677.6631z" fill="#f0eb9e"/><path d="m81.9049 108.7289c.6783-1.4038 1.5775-2.6739 2.4166-3.9799 1.4519-2.2597 3.1359-4.3309 4.995-6.2712 1.3703-1.4302 2.8816-2.7076 4.3835-3.9779 1.2579-1.0639 2.5729-2.0801 3.8691-3.1075 1.1503-.9117 2.4053-1.6735 3.5351-2.6064.8277-.6834 1.546-1.4833 2.3795-2.1691 1.0144-.8347 2.1293-1.4774 3.2849-2.059 1.9237-.9683 3.8856-1.8661 5.9663-2.4416 1.595-.4412 3.2256-.764 4.8749-.9186.7235-.0678 1.4663.0354 2.1973.0967.4141.0347.3734.4329.419.7028.1563.9256.2528 1.8615.4141 2.7862.5205 2.9838.8645 5.9851.9596 9.0136.0194.6169.0275.585-.5932.5344-.7612-.0621-.849-.1945-.9787.6632-.0894.5911-.1847 1.1802-.1777 1.7766.003.2505-.1321.3694-.287.5052-2.5354 2.2234-4.7639 4.7091-6.6729 7.5006-1.7093 2.4995-3.0707 5.1775-4.4464 7.8612-.7516 1.4662-1.0898 3.0639-1.7434 4.5544-.7213 1.6449-1.0011 3.4268-1.4405 5.1544-.1792.7045-.676 1.0225-1.0985 1.456-.8521.8743-1.9692 1.3268-3.033 1.8719-1.9846 1.017-4.1113 1.0728-6.2615 1.0156-.5768-.0153-1.1581.0404-1.7273-.1316-.243-.0735-.4235.0129-.5887.261-.2921.4387-.4107.9027-.3792 1.4089.0266.4262-.1939.5939-.5712.6212-.8083.0585-1.5857-.1513-2.3593-.327-.5049-.1147-.2907-.5921-.2926-.9132-.0015-.2444.146-.4872.2105-.7351.072-.2765.1064-.5417-.2549-.6676-1.1397-.397-2.2486-.8714-3.3535-1.3548-.6136-.2685-1.3153-.079-1.7651.5061-.2707.3522-.5383.711-.763 1.0928-.1803.3063-.3797.3501-.6778.2038-.4647-.228-.8837-.5163-1.2644-.8675-.2044-.1886-.2106-.3558-.0535-.5792.3229-.4594.6361-.9263.9342-1.4021.3149-.5026.2309-.6213-.2261-1.002-1.1289-.9406-2.3228-1.8151-3.2439-2.9836-.4176-.5298-1.4356-.649-2.004-.2521-.3075.2147-.6197.428-.9501.6036-.7332.3898-.8918.3518-1.4513-.2625-.3705-.4069-.3726-.5813.0445-.9289.3284-.2736.6947-.4938 1.0767-.6927.6048-.315.6448-.5295.1818-.9917-.4531-.4523-.649-1.0279-.8635-1.6043-.0775-.2083.0085-.3129.1314-.4458.8484-.9178 1.7889-1.722 2.8173-2.4373.9735-.6771 1.88-1.4504 2.8501-2.1328.7485-.5265 1.5498-.9779 2.3278-1.4625.0727-.0453.1644-.0738.216-.1361.1018-.123.3354-.2066.2435-.4048-.0992-.2141-.2663-.023-.4.0027-.2332.045-.4636.1052-.6951.159-.0372-.0351-.0743-.0703-.1114-.1055zm18.5887-12.4726c-.1632-.1174-.0304-.2786-.0409-.4117-.0301-.3787-.3219-.2289-.4967-.2733-.157-.04-.3704-.0178-.412.1954-.0437.224.1576.2908.3072.4074.2174.1695.4573-.1264.6477.0763-.3396.318-.5722.7108-.7266 1.1403-.235.6541-1.3065.9384-1.8715.5554-.4091-.2773-.8134-.5633-1.2027-.8674-.19-.1485-.2904-.3019-.1329-.6054.2695-.5195.7008-.759 1.2021-.9482.1344-.0507.3627-.0397.341-.2411-.0243-.2255-.2336-.2354-.4335-.2545-.6939-.0666-1.1847.259-1.5248.8117-.2262.3676-.6245.7125-.2792 1.2413.4516.6916.9369 1.3286 1.6733 1.7575.6792.3956 1.306.4447 1.7113-.0263.2986-.347.633-.6573.9281-1.0024.2751-.3217.495-.6923.6467-1.0944.1211-.3207.0251-.4894-.3366-.4606zm-2.8294 14.8487c.7139.5217 1.4772.9782 2.2905 1.2031 1.6443.4549 3.3143.884 5.0567.703.1019-.0106.2091-.0331.3066-.0138.6725.1332 1.1421-.3489 1.6831-.5817.3078-.1325.2006-.5772.2895-.8766.0484-.1628-.1027-.2477-.2664-.1655-.5022.2522-1.0701.204-1.6006.3806-1.0833.3608-2.1525-.0137-3.2051-.2922-1.3894-.3675-2.6923-.9748-4.0328-1.4778-.221-.0829-.4355-.1977-.6653.1039 1.2076.5004 2.3792.986 3.603 1.4931-.0762.0633-.1436.1659-.2277.1821-1.1668.226-2.1543-.4201-3.2315-.6582zm9.437-19.8215c.3628-.0023.5749-.1134.7148-.3637.2755-.493.6374-.9219.9932-1.3582.3127-.3834.5641-.8146.6833-1.307.0502-.2074.0026-.3663-.211-.4508-.2607-.1031-.3101.0733-.384.2624-.2203.5636-.6173 1.0074-.9915 1.4729-.2525.3142-.5152.4105-.8862.322-.9674-.2308-1.9368-.4532-2.6208-1.2695-.1095-.1307-.2537-.1926-.4072-.087-.1579.1086-.1163.274-.0619.4196.0351.094.0902.1892.1605.2599.4799.4829.819 1.1164 1.4662 1.4203.5335.2504 1.043.5615 1.5446.6791zm-7.1018 2.7527c.2.0104.41-.1942.6043-.4153.7852-.8939 1.6054-1.752 2.5244-2.5112.2891-.2388.2701-.4753-.0539-.6426-.2864-.1478-.597-.2502-.9009-.3617-.214-.0785-.5087-.272-.6224.031-.0984.2621.1566.4053.4338.4327.0962.0095.184.0871.2798.1218.2216.0803.2013.1693.0465.3198-.5129.4987-.9972 1.0278-1.5232 1.5117-.578.5317-.8005.5131-1.5074.0842-.302-.1833-.6399-.3118-.971-.4406-.1134-.0441-.2812-.0901-.361.0785-.0713.1507.0082.256.1342.3435.1078.0749.2102.137.2504.2979.101.405 1.1262 1.1488 1.6664 1.1503zm3.3303 1.7774c.0467-.0055.2282.1103.2446-.1171.0128-.1783-.0441-.368-.2616-.3758-.5089-.018-.8376-.3301-1.1383-.6758-.2578-.2964-.3566-.6156-.0195-.9471.2555-.2513.4649-.5525.7338-.7867 1.2696-1.1058.8817-1.2581 2.5216-.3459.2089.1162.4713.4562.7.1344.1851-.2606-.2105-.3811-.3459-.5344-.6581-.745-1.7608-.9452-2.4353-.4047-.6497.5207-1.3086 1.0459-1.816 1.7249-.3546.4745-.397.9697-.0139 1.398.4627.5175 1.0106.9282 1.8305.9302zm1.1117 18.5014c.9954-.0596 1.9327-.3485 2.8328-.7704.1433-.0672.2844-.1715.217-.3544-.0758-.2057-.2552-.1889-.4306-.1375-.1628.0477-.3234.1066-.489.1409-1.0741.2231-2.1358.5929-3.2561.2363-.2723-.0867-.5645-.1404-.8492-.148-.1911-.0051-.4501.0482-.4657.3063-.0133.2211.1285.3615.3785.3947.6895.0917 1.3542.3372 2.0623.3321zm1.5014-5.6203c.2562-.0128.5129-.0192.7682-.0412.1102-.0095.1929-.0935.2133-.1973.0203-.1029-.077-.1477-.1591-.1609-.706-.1134-1.4118-.229-2.12-.3276-.4168-.058-.6623.2462-.7585.5543-.1187.3798-.3526.8037-.0175 1.2104.3189.3871 1.4695.6224 1.9208.3792.2673-.1441.1117-.3074-.0418-.3688-.234-.0936-.4977-.1765-.7435-.1636-.4875.0256-.6696-.0493-.5179-.6157.0997-.3723.2442-.44.5381-.3659.3045.077.6097.076.9179.0971zm-2.2912-2.724c-.2747.0313-.5571.0145-.6281.3041-.0699.2854.1642.4229.3817.5322.1198.0602.2507.1052.3815.1359.902.2117 1.7378.0639 2.5-.4725.0792-.0557.2199-.0676.197-.1972-.0253-.1432-.1618-.158-.2814-.1582-.8655-.0014-1.7324.0275-2.5507-.1443zm-.6192-.8824c.0829.2067-.1644.4796.1689.4994.223.0132.2582-.205.2833-.4052.0203-.162.1056-.3102.1931-.4602.2129-.3649.3874-.7536.5558-1.1421.048-.1108.1105-.2779-.0524-.3657-.1286-.0693-.237.038-.3081.1184-.4583.5176-.7311 1.1223-.8406 1.7554zm3.5685-2.5823c-.114.0738-.4067-.0853-.4694.2324-.0409.2072.1495.3218.3083.3443.5861.083 1.1785.1176 1.75.2953.1085.0338.2526-.023.3077-.1363.0793-.163-.0801-.1971-.1796-.2402-.527-.2286-1.0573-.4495-1.717-.4955zm2.4743 1.9263c-.0171.0012-.0352-.0009-.0511.0041-.1474.0463-.4407 1.0493-.3411 1.1727.0197.0244.0563.0495.0854.0499.4771.0073.3106-.4578.4789-.68.1073-.1417.1958-.3865-.0726-.5257-.0291-.0151-.0661-.0147-.0995-.021z" fill="#cdce8a"/><path d="m84.6808 64.7138c-.8532-.6588-1.8042-.9468-2.8804-.7588-.7479-.1882-1.4913-.0768-2.2318.0456-.1748.0289-.2868.1017-.3973-.1412-.3579-.7873-.9305-1.4141-1.5919-1.9634-.3146-.2613-.6293-.5229-.9342-.7953-1.6265-1.4532-3.5525-1.8335-5.6552-1.5895-.3731.0433-.7514.0597-1.118.1342-.1599.0325-.4424.0546-.4109.2989.0306.2367.2879.1897.4677.1912.666.0056 1.3285-.1086 1.9966-.0544.968.0785 1.7884.5248 2.5076 1.1189.4489.3707.2177 1.6099-.2645 2.1075-1.1978 1.2362-2.6722 1.833-4.3624 1.9869-1.6497.1503-3.2405.0007-4.7758-.6903-.4027-.1813-.8737.099-1.2545.275-1.0284.4754-2.0074 1.0569-3.0318 1.5417-.6758.3198-1.4186.4612-2.1506.6223-1.0472.2305-2.0882.2825-3.1168-.0551-.9399-.3086-1.8543-.6843-2.5955-1.3688-.2849-.2631-.575-.3973-.9682-.2979-.5796.1465-1.183.218-1.7445.4129-.9778.3393-1.8404.0841-2.5854-.5033-1.5849-1.2498-2.6056-2.814-2.7756-4.9168-.1472-1.8207-.0106-3.5723.6323-5.2803.0839-.2229.1839-.4422.2996-.6504.2694-.4848.4806-.9804.4675-1.5522-.0103-.4479.1985-.6591.6638-.5413.31.0785.6335.1055.8715.3744.1688.1907.4427.2084.6128.0608.7642-.6632 1.6847-.8784 2.6465-.9709 1.2057-.1159 2.4359-.3463 3.6094.0575.6021.2072.9749-.0033 1.4755-.2303.823-.3733 1.6714-.4224 2.4835.2051.6479.5006 1.1345 1.1074 1.5615 1.7833.1354.2144.7825.3432.9558.1856.1695-.1541.0543-.2774-.0543-.3901-.1884-.1954-.4009-.361-.514-.6278-.3923-.9247-.3723-1.1523.4553-1.7008 1.1849-.7853 2.4748-1.2496 3.9382-1.1931 2.7161.1047 4.761 1.4469 6.5 3.4011.2486.2793.459.597.7772.8129.1352.0917.2675.0945.3691-.0153.0887-.0958-.0134-.1807-.076-.2609-.7922-1.0149-1.468-2.11-2.4993-2.944-1.3469-1.0892-2.8589-1.6383-4.5525-1.8463-1.9487-.2393-3.6196.4586-5.2317 1.4119-.277.1638-.6282.1637-.8628.4208-.1003.1099-.1779-.0312-.2584-.0727-1.2752-.6573-2.5269-.7259-3.7295.1641-.2283.169-.4662.1224-.5959-.0341-.1327-.1601.1519-.2042.2274-.3171.5153-.7701 1.2372-.8289 2.062-.6511.3312.0714.6855.0045.994-.1721.6205-.3553 1.2606-.4603 1.9506-.2135.1752.0627.3807.0345.5388-.0877 1.5054-1.1635 3.3001-1.6052 5.1017-1.9849 2.5019-.5274 5.0222-.5543 7.5039.1115 1.7459.4684 3.3168 1.3399 4.7875 2.3863.4249.3023.5456.344.9487.2759-.5242-.682-1.2765-1.0836-1.8441-1.6823.024-.0316.048-.0632.072-.0948 1.6258.2501 3.179.7693 4.6706 1.4282 1.7036.7525 3.2119 1.7881 4.2755 3.392.6973 1.0516 1.5077 2.028 2.0455 3.1831.0516.1107.1574.2559.3226.1384.1446-.1029.159-.2322.068-.4011-.2887-.5359-.4656-1.128-.8838-1.6437.9514-.1045 1.2939.5181 1.6824 1.1393 1.0606 1.6959 1.5432 3.6025 2.0744 5.4941.0423.1506-.0023.3903.2709.3314.1907-.0411.1552-.1949.164-.363.0565-1.0792-.1969-2.1058-.5055-3.1201-.1136-.3735-.0553-.4677.346-.4673.4732.0005.9498-.0816 1.4186-.1638.2769-.0486.5426-.018.8153-.0109.3135.0081.3453.1519.3339.4246-.0966 2.3073-.2487 4.6165-.1348 6.9246.0815 1.6516-.0732 3.3252.3746 4.9504.1356.4919.5959.7869 1.0945.7.2296-.04.5747-.1705.6659.0151.1292.2631-.2001.4421-.402.5721-.6899.4443-.8372 1.036-.6284 1.8033.2554.9388.4554 1.8927.6725 2.8417.0338.1477.0311.3037.0453.4559-.09.0284-.1604.0995-.2236-.0704-.3197-.8599-.6113-1.7288-.6437-2.6519-.0286-.8164-.5478-1.3598-1.056-1.8618-.537-.5304-1.1358-1.0335-1.9132-1.2241-.1308-.0321-.2341-.0416-.3081.089-.3241-.6445-.7684-1.1104-1.5633-1.0723-.2016.0097-.2985-.1543-.3888-.2943-.5323-.8254-1.3073-1.4192-1.9988-2.0908-.2497-.2426-.5482-.4698-.9515-.3452-.282-.6168-.7936-.9856-1.3775-1.2766.2544-.4937.5652-.9585.6757-1.5219.033-.1684.0682-.3807.2363-.4953.1565-.1068.3509-.1763.1966-.4253-.1004-.1621-.1892-.3188-.4215-.3114-.243.0078-.3367.1407-.4293.3518-.2833.6452-.4861 1.3405-1.0335 1.8387zm-15.9695-9.5064c.2225-.1448.5906.0501.7212-.3092.0644-.0228.1316-.0399.1927-.0696.1589-.0772.4118-.0758.3788-.3392-.0362-.2882-.274-.1972-.4473-.1828-.3466.0286-.4569-.1548-.5322-.4644-.1772-.7287-.6083-1.2534-1.3044-1.5853-1.2456-.5939-2.4559-.3774-3.6533.1111-.2904.1185-.7024.3136-.761.548-.1218.4868-.4125.5115-.7828.5495-.1318.0135-.3471.0155-.3253.2416.0194.2016.1169.3725.3629.335.2418-.0369.3836.0473.347.2943-.0748.5054-.0537 1.0189-.1892 1.521-.2064.7646-.2159 1.5701-.4501 2.3324-.0255.0829-.0793.2198.0434.2716.1313.0554.2306-.0536.3016-.1449.2021-.2599.3194-.5669.4151-.8762.0851-.2751.2145-.3085.4473-.1673.4142.2511.8654.2856 1.3273.1743.3478-.0838.6879-.2004 1.0365-.2804.5913-.1357 1.1414-.3363 1.5516-.8166.0958-.1122.2061-.246.392-.15.0176.0239.0352.0478.0528.0717.0131-.0262.0263-.0524.0394-.0786.0424-.0196.0849-.0392.1273-.0588.105-.1361.1526-.3107.3696-.3557.2949-.0612.3758-.291.3388-.5709zm-2.6525 4.029c1.0895-.1201 1.9016-.8571 2.8357-1.3164.4944-.2431 1.0201-.4885 1.3817-.9454.103-.1302.3679-.2282.1443-.4485-.1682-.1657-.3701-.0905-.5035.0488-.287.2999-.6367.4862-.9927.6888-1.0269.5846-2.0388 1.1688-3.2942.9883-.1803-.0259-.4075.0213-.4078.2693-.0004.4008.4106.7309.8365.7151zm-8.2688-5.3707h.025c0-.2722.005-.5444-.0013-.8164-.0083-.357-.1786-.629-.5057-.7575-.3125-.1228-.6476-.0972-.9103.1231-.2629.2204-.2338.5313-.1768.8461.0528.2919.2553.4398.4803.5532.4322.2177.6286.5525.6018 1.0306-.0078.1391.0077.3107.1765.314.1798.0036.315-.1067.3118-.3236-.0048-.3231-.0013-.6463-.0013-.9695z" fill="#ccce8b"/><path d="m29.8941 83.2631c-.307.3907-.757.5236-.9307.994.5453-.1066.8834-.4703 1.2929-.6886 1.5519-.8273 2.7385-2.1133 3.9554-3.3381 1.8889-1.9011 3.7959-3.7719 5.8925-5.4515 2.4002-1.9228 5.0455-3.4184 7.8126-4.7212.3212-.1512.6709-.2442 1.0114-.3513.1915-.0602.3046.0654.4357.1928.637.6187 1.3354.986 2.2491.5577.333-.1561.6014-.0149.9584.1707 1.3645.7093 2.3739 1.8309 3.5247 2.7868.6069.5041.5919.4999.0553 1.0163-.9839.9469-1.9256 1.9307-2.7421 3.0329-1.0161 1.3717-1.9116 2.8232-2.8712 4.2319-.8448 1.2403-1.7399 2.4467-2.515 3.7335-.4114.683-.8302 1.3643-1.1927 2.0734-.7463 1.4596-1.6666 2.8038-2.6143 4.1351-.4201.5902-1.0776.7842-1.6647 1.0657-1.8471.8856-3.7039 1.7503-5.5343 2.6715-.5476.2756-1.1308.4861-1.7101.6913-.4605.1631-.6832.5112-.906.9102-.523.9366-1.2379 1.7537-1.7213 2.7187-.0868.1733-.1767.4945-.3491.4521-.2931-.0721-.6958-.1651-.7996-.47-.2044-.6006-.5198-.3468-.8087-.1582-.3803.2482-.7454.5259-1.0865.8258-.1892.1664-.351.1945-.549.0717-.3697-.2294-.8372-.3259-1.0349-.7895-.136-.3189-.0958-.5413.2345-.7194.9322-.5025.9383-.7355.042-1.2648-.9523-.5623-1.77-1.2838-2.496-2.1087-.3511-.3989-.6865-.497-1.1521-.1744-.3604.2497-.8023.3775-1.0683.7666-.1438.2104-.3648.1297-.5024.0215-.3472-.2728-.6882-.562-.9859-.8867-.2572-.2805-.0228-.5581.1441-.779.1618-.2141.4169-.3565.5859-.5667.1992-.2477.3241-.4024-.1274-.6787-.7032-.4302-1.4466-.8354-2.0562-1.4145-.2928-.2781-.7694-.3983-.7585-.9418.0026-.1309-.1903-.1734-.3395-.1549-.5418.0671-1.0958.1146-1.5323.488-.2524.2159-.4491.1783-.6517-.0436-.1152-.1262-.2354-.2489-.3402-.3834-.5014-.6435-.4733-1.0563.236-1.3908.9379-.4424 1.703-1.1212 2.5587-1.6732 2.3732-1.5311 4.8149-2.9376 7.4525-3.9702.8048-.3148 1.6496-.4701 2.599-.489zm11.7805.0055c.4714-.0486.9013-.2206 1.2354-.5529.4959-.4933.9636-1.0153 1.4332-1.5343.1216-.1344.2814-.3209.0962-.4891-.2054-.1865-.3704-.0065-.5155.1476-.4996.5307-1.0047 1.0563-1.4995 1.5914-.2611.2824-.4995.5553-.637-.083-.0122-.0568-.0893-.1002-.1375-.1485-.445-.4463-.6491-1.0691-1.1077-1.5078-.1163-.1113.0253-.1643.101-.2244.3872-.3079.7709-.62 1.1591-.9266.1581-.1249.4023-.2329.2132-.4757-.1634-.2098-.3845-.1691-.5875-.0064-.5305.4251-1.0601.8508-1.5341 1.3406-.2051.2119-.1957.4361-.1088.7072.2799.8725.9706 1.4231 1.558 2.0569.0939.1014.2061.108.3315.105zm.4242-6.2047c-.0077-.0353-.0246-.0848-.0285-.1352-.0255-.3359-.1767-.6451-.5068-.6716-.2992-.0241-.3119.297-.3204.544-.0016.0455-.0319.1018-.0669.1326-.7155.6285-1.2934 1.4068-2.1268 1.9096-.3382.204-.5664.0888-.7212-.1828-.1518-.2663-.601-.497-.1665-.9008.3746-.3481.7206-.7264 1.1563-1.0036.1242-.079.2339-.1984.1339-.3342-.1-.1357-.2091.0191-.3107.0603-.6907.28-1.1466.8493-1.6446 1.36-.1888.1936-.2382.419.0203.6648.3066.2915.5597.6404.8275.9714.3562.4403.8029.4961 1.2124.1195.6886-.6332 1.3891-1.2502 2.1219-1.8335.1931-.1538.4247-.3697.4201-.7005zm-9.4092 12.377c-.602.0336-.7645-.0181-.8084-.2799-.0481-.2865-.092-.5749-.1132-.8643-.0428-.5849.1768-.9164.7338-1.1064.3861-.1317.7737-.2593 1.1874-.2912.1586-.0122.4089-.0096.3964-.2321-.013-.2335-.2318-.2228-.436-.2208-.6465.0064-1.2193.2949-1.8297.4327-.3299.0745-.4657.2678-.5335.5392-.1908.7639-.059 1.5312.0555 2.2854.0781.5145.5235.7488 1.0472.652.727-.1344 1.4093-.3992 2.071-.7216.1714-.0835.3838-.1747.2765-.4086-.1056-.2302-.325-.1298-.4993-.071-.5028.1699-1.019.2602-1.5477.2866zm4.0271-.4078c-.0165.6715.4697 1.3116.9253 1.2848 1.3209-.0778 2.5641-.382 3.5184-1.3991.1077-.1148.263-.2383.1347-.387-.1392-.1614-.3125-.0565-.4475.062-.6399.5622-1.4028.8072-2.2342.9127-.8374.1062-.9771.023-1.1118-.8171-.0675-.4207-.0116-.8649-.4473-1.1729-.1464-.1035-.2145-.3934-.4467-.3178-.2845.0927-.1795.3733-.1447.578.0799.469.1872.9334.2538 1.2564zm-1.3731 4.2959c.0439-.174-.074-.2005-.1652-.2322-.1532-.0534-.2582-.1375-.3265-.2946-.224-.5151-.6334-.9131-.9057-1.407-.1592-.2887-.0715-.316.1206-.3627.3218-.0782.6048-.23.8772-.4041.1024-.0654.2776-.1389.1676-.31-.0789-.1228-.2355-.161-.3674-.0999-.5357.2484-1.1179.3855-1.6037.759-.293.2252-.3349.4619-.2068.7505.4095.9227 1.1619 1.4731 2.0687 1.8388.234.0943.2598-.1394.3412-.2378zm8.2502-15.2614c.1565-.0543.3456-.0404.5091-.1687.4817-.378.9822-.732 1.467-1.1062.104-.0802.1879-.1973.2544-.3127.1002-.1739.1201-.3589-.0355-.5204-.1522-.1579-.2714.0043-.4112.0375-.6577.1562-1.0043.7417-1.519 1.0946-.2672.1832-.3863.149-.5814-.0573-.3077-.3253-.5683-.6754-.7675-1.0772-.08-.1613-.1939-.3729-.4269-.2388-.1945.112-.0836.2843-.0296.4523.2403.7478.9485 1.1627 1.2892 1.8374.0419.0832.1454.0754.2514.0595zm-4.8239 7.9373c-.0577-.0004-.2317.0201-.2757.1939-.0472.1863.1245.2878.2633.3205.3777.0889.7626.1496 1.1471.2049.1247.0179.2335-.0369.2389-.1986.0047-.1415.019-.2883-.1651-.3214-.3681-.0663-.7382-.1225-1.2085-.1993zm6.8104-11.0616c-.3009-.3135-.5611-.6423-.9835-.7764-.145-.046-.2725-.1643-.3983.016-.1339.192-.0226.3434.1255.427.2696.1522.5188.3144.7009.5726.0633.0898.1763.1062.2702.0281.1007-.0837.1918-.1788.2852-.2673zm-8.9417 18.3145c.341-.1753.7077-.3593.9384-.7192.0316-.0493.0445-.1349.0243-.1879-.0374-.0984-.1304-.0792-.217-.0599-.4038.0903-.6421.4325-.9702.638-.0841.0527-.0533.1526-.0105.2312.0446.0824.1118.125.235.0978zm-1.1795-5.2894c-.1139-.1611.0306-.5397-.3479-.5898-.1968-.026-.3065.1456-.2752.3374.0414.2537.0154.5865.3465.6523.1588.0316.295-.1363.2766-.3999zm8.4889-8.7161c-.0952.0447-.286.0549-.2485.2236.056.2517.2859.3785.52.406.1585.0186.3834-.0793.3259-.2844-.0698-.2489-.3412-.2845-.5974-.3452z" fill="#ccce8b"/><path d="m92.3737 48.8096c1.0952-.1206 2.1758.1809 3.2676.1201.2169-.0121.3151.1901.4109.3478.6312 1.0393 1.4171 1.9624 2.1797 2.9023.1364.1681.3269.2942.4995.4307.7943.6283.8282 1.5029.7878 2.4041-.1016 2.2668-.2814 4.5338-.2746 6.8003.0047 1.5437.1042 3.0949.3501 4.6372.511 3.2052 1.5296 6.2669 2.5187 9.3366.3333 1.0343.8443 2.0099 1.3593 2.974.6833 1.279 1.1935 2.6463 1.9706 3.8779.1546.245.3008.4963.4712.7299.2348.3218.202.5248-.1783.7189-1.0489.5352-2.0248 1.1925-2.9803 1.8788-.4911.3527-.6964.3791-1.0197-.1428-1.2559-2.0277-2.8075-3.8668-3.6966-6.131-.8442-2.1499-1.4021-4.3484-1.6093-6.6408-.0398-.4405-.0347-.8869-.0208-1.3296.0068-.2161.0763-.4048.2878-.5621.4503-.3351.8481-.74 1.2907-1.0864.334-.2615.2054-.5632.0945-.8331-.1191-.2897-.3694-.1239-.5769-.0766-.4657.1061-.9296.1902-1.4162.1876-.4654-.0024-.6322-.2219-.7011-.6336-.1752-1.0471-.2949-2.1004-.3463-3.1596-.149-3.0739.0023-6.1394.2642-9.2027.0458-.5362.1273-1.0952-.1103-1.6181-.1998-.4395-.4151-.8356-.9679-.964-.3905-.0907-.7597-.3053-1.1161-.5046-1.0755-.6017-1.96-.2569-2.7691.5206-.0986.0948-.1898.1982-.2945.2855-.226.1884-.485.5509-.5903-.0896-.0321-.195-.2174-.2141-.3537-.2513-.4112-.1122-.8253-.2318-1.2463-.2846-.4081-.0512-.6039-.2547-.8609-.5798-.449-.568-.225-.8836.1827-1.2533.7826-.7095 1.5663-1.418 2.3378-2.1395.4053-.3791.8757-.5525 1.4226-.5734.4784-.0182.9557-.0628 1.4335-.0958z" fill="#8da16c"/><path d="m82.0858 106.4869c-.1936.7411-.7011 1.3119-1.0649 1.9607-.1998.3563-.4104.7065-.6129 1.0614-.0673.1179-.1121.2455-.2464.3166-1.0744.5686-2.0018 1.341-2.9029 2.1422-.2382.2118-.425.1993-.6832.0905-1.9297-.8135-3.8183-1.7173-5.667-2.6959-1.4444-.7646-2.8482-1.6045-4.2256-2.4938-2.0965-1.3536-4.0528-2.8859-5.9475-4.495-1.8866-1.6023-3.5451-3.4423-5.1912-5.2876-.4643-.5205-.8541-1.1236-1.3791-1.5701-.7724-.6568-.5259-1.3712-.2934-2.1201.0222-.0716.0139-.1781.1109-.1966 1.847 2.2474 3.9242 4.193 6.6154 5.3867-.2359.273.0755.3508.187.4756.853.9551 1.7171 1.9003 2.5777 2.8486-.0061.1043-.0072.203.0981.2711.6163.3986 1.113.9495 1.7597 1.3191.6797.3885 1.3329.8253 2.0447 1.156.5155.2396.7032.1615.8272-.3792.1025-.4469.1496-.908.1994-1.3652.0927-.8503.2176-1.6908.5786-2.4782.0808-.1762.1343-.3015.3651-.1285.4064.3046.8351.5809 1.2662.8505 1.0562.6605 2.1427 1.2627 3.2858 1.7658 1.1663.5133 2.3338 1.0214 3.538 1.4388.6932.2403 1.3949.456 2.0928.6827.0949.0308.2134.0929.2421-.057.009-.0471-.1046-.1176-.162-.1774.8856.2145 1.6701.6373 2.3969 1.1742.1632.1205.2086.3051.1905.5041z" fill="#587034"/><path d="m120.5371 96.7527c.0431-.4361.0849-.8608.1272-1.2854.0199-.2004.0015-.464.3262-.3431.2318.0863.6337-.0497.5857.4549-.1506 1.5823-.1247 3.1776-.3426 4.7559-.1093.7918-.0995 1.6049-.3369 2.3733-.4178 1.3522-.394 2.8062-.9626 4.1203-.5608 1.2962-.991 2.6432-1.5713 3.9333-.6077 1.351-1.7669 2.0534-3.0196 2.5951-1.6711.7226-3.4023 1.2997-5.1651 1.7696-.5871.1565-.7091.054-.555-.5409.3516-1.357.8524-2.6621 1.4221-3.9424 1.2264-2.7565 2.8265-5.2869 4.5983-7.7201 1.1344-1.5578 2.2808-3.1024 3.6338-4.4799.2119-.2157.4576-.4217.7262-.5532.5035-.2466.7495-.5792.5336-1.1374z" fill="#efeb9e"/><path d="m63.3628 101.91c-.8606-.9483-1.7247-1.8935-2.5777-2.8486-.1115-.1248-.4229-.2026-.187-.4756.7417.3387 1.4818.6814 2.226 1.0146.4591.2056.9532.2767 1.4481.3141.9273.07 1.9569-.7484 2.0848-1.9662.0808-.7697.0209-1.5556.2963-2.317.1661-.4593.3447-.3841.6392-.2095.7783.4614 1.554.9275 2.3373 1.3804 1.7013.9837 3.52 1.7277 5.2886 2.5738 1.4768.7064 2.9664 1.3861 4.4544 2.0687 1.1161.512 2.2331 1.0228 3.36 1.5105 1.2437.5383 1.2495.527.5543 1.6392-.396.6335-.644 1.3611-1.2013 1.8925.0181-.1989-.0273-.3835-.1905-.504-.7268-.5369-1.5113-.9597-2.3969-1.1743-1.1459-.4744-2.2942-.9429-3.437-1.4242-1.8094-.762-3.5791-1.5953-5.2268-2.6817-.627-.4134-1.1694-.9211-1.7719-1.3579-.2472-.1792-.4092-.1289-.538.1127-.2806.5262-.5283 1.0562-.6295 1.662-.1623.9706-.2218 1.9467-.2431 2.9746-1.0697-.4183-1.9894-1.0004-2.9299-1.5455-.4325-.2507-.8206-.6098-1.3594-.6386z" fill="#8ca16c"/><path d="m81.1785 77.3099c-.6851.345-1.422.4263-2.1747.4262-.0159-.1848-.1293-.1763-.2844-.1885-.9328-.073-1.8687-.0358-2.8026-.1657-1.0719-.1492-1.8094-.8137-2.4767-1.5308-.7106-.7636-1.3711-1.5526-2.4255-1.9285 1.33-.557 2.6698-.6056 4.0104-.4872.6882.0608 1.2781.472 1.7971.9133.998.8488 1.9608 1.7356 3.1311 2.3583.403.2144.8849.2656 1.2253.6029z" fill="#cbcd8a"/><path d="m59.5433 84.3962c.153.206.0396.3717-.0594.5608-.8232 1.5721-1.6378 3.1568-2.0176 4.9026-.3468 1.5943-.6794 3.2003-.5864 4.8522-.8692-.6785-1.4819-1.5733-2.122-2.4535-.4649-.6392-.1215-1.1996.0914-1.7472.3974-1.0218.9027-2.0013 1.3082-3.0203.1883-.4733.5737-.7512.8898-1.0853.7369-.7787 1.6199-1.3935 2.496-2.0093z" fill="#ccce8b"/><path d="m96.6843 88.6062c.1851-.5285.174-1.0387-.1629-1.5076-.0942-.1311-.1605-.2595-.1421-.4227.2045-.1884.5083-.0522.7099-.2026.1911-.1426.6332.0898.5954-.2819-.0375-.3689-.4556-.1424-.6878-.2351-.333-2.3129-.1302-4.6886-.8211-6.9602-.1284-.4221-.198-.8628-.336-1.2812-.184-.5579-.1489-1.0968.041-1.6385.4543 1.565.9058 3.1309 1.3637 4.6949.4077 1.3925.9911 2.7148 1.6181 4.0195.4167.8672.829 1.7317 1.4571 2.4806.1835.2188-.0509.475-.2275.6418-.1172.1107-.294.2109-.4496.2198-1.0033.0575-1.9684.3414-2.9582.4732z" fill="#ccce8b"/><path d="m92.5858 94.2085c-.0622-.1908-.119-.3835-.1876-.5719-.19-.5223-.5057-.9016-1.0935-1.0007-.1397-.0236-.2644-.1355-.396-.2068 1.6029-1.517 3.4978-2.2611 5.7129-2.1612.1065.0048.2302.0024.2558.1159.0247.1094-.0979.1677-.1726.2328-.9776.8527-1.9567 1.7037-2.9349 2.5558-.3955.3446-.7895.6907-1.1841 1.0361z" fill="#cbcd8a"/><path d="m79.2111 81.3952c-.1334.4619-.5945.5049-.9243.7071-.4765.2921-.9865.5099-1.5679.4697-.3433-.8842-.6701-1.7768-1.2527-2.5428-.0923-.1214-.1714-.2827-.2965-.3444-.5909-.2911-.2413-.6499-.0904-.9937.0239-.0545.0823-.1104.1378-.1316.3047-.1166 1.1803.249 1.3605.5386.6427 1.033 1.4805 1.8469 2.6335 2.2971z" fill="#cbcd8a"/><path d="m74.1999 82.964c-.1925.4645-.697.4234-1.0409.6424-.2365-.8404-.9422-1.158-1.6479-1.4702-.2632-.1165-.5371-.2088-.8486-.3285.5549-.3996 1.1859-.4968 1.7693-.6971.6046-.2076 1.0663-.6651 1.668-.8739.1803-.0626.3106-.124.447.035.4648.5417.9249 1.087 1.1435 1.7865-.3662.0898-.7763.0758-1.0283.4354-.1911-.1045-.3748-.2276-.5758-.3069-.139-.0548-.3116-.0552-.3993.1115-.0817.1554.0384.2473.1405.3372.1242.1095.2483.2191.3725.3286z" fill="#cbcd8a"/><path d="m72.8214 83.7226c-.3889.4366-.9872.3876-1.46.6299-.5066-.4335-.8953-.9623-1.2264-1.535-.0533-.0922-.1602-.2065-.0508-.3201.0785-.0816.1915-.0497.288-.0118.855.3358 1.8095.475 2.4492 1.237z" fill="#cbcd8a"/><path d="m38.1582 95.6208c-.0566.44-.4686.5542-.7491.7675-.2127.1619-.2615-.2758-.4875-.247.3718-.2695.8009-.4029 1.2366-.5205z" fill="#cbcd8a"/><path d="m77.023 48.5459c-.0473-.0335-.0946-.067-.1419-.1005.0736-.0773.1439-.0416.2139.0059-.024.0314-.048.063-.072.0946z" fill="#ccce8b"/><path d="m82.0161 108.8346c-.0661.0603-.1503.1709-.2265.0871-.0988-.1088.0506-.1412.1154-.1928.037.0352.0741.0704.1111.1057z" fill="#cdce8a"/><path d="m73.145 83.6357c-.0314.0234-.0628.0467-.0941.0701.0313-.0234.0627-.0468.0941-.0701z" fill="#cbcd8a"/><path d="m74.1999 82.964c-.1242-.1096-.2483-.2192-.3726-.3287-.102-.09-.2222-.1818-.1405-.3372.0877-.1667.2604-.1663.3993-.1115.201.0793.3847.2025.5758.3069.7483 1.0833.9737 2.3527 1.2914 3.592.4148 1.6182.6942 3.2802 1.4889 4.7803.2148.4055.4123.8217.7149 1.1746.0679.0792.1241.1854.2406.0932.0996-.0789-.0148-.1475-.0388-.2181-.1763-.5179-.3609-1.033-.5311-1.5529-.0743-.2269-.127-.4616-.1782-.6952-.0349-.1591-.0133-.3493.158-.376.1156-.018.2048.1504.233.2899.1712.8471.5712 1.6025.929 2.3779.278.6024.619 1.1776.8112 1.8199.0775.2592.1635.5167-.1439.6666-.302.1472-.4077-.1303-.5631-.3027-.6482-.7192-1.2394-1.4714-1.7639-2.2955-.8239-1.2946-1.1931-2.735-1.6183-4.1728-.4106-1.3886-.5738-2.8484-1.2025-4.1746-.0877-.1846-.1507-.3797-.2892-.5361z" fill="#111211"/><path d="m96.9968 85.9563c.2322.0927.6504-.1338.6878.2351.0378.3717-.4043.1393-.5954.2819-.2016.1504-.5055.0143-.7099.2026-.0682.0153-.1365.0306-.2047.046-.0467.0141-.0933.0282-.14.0424-1.1862.3371-2.2842.8759-3.3699 1.4497-1.6582.8764-2.9335 2.1867-4.1613 3.566-.6799.7638-1.4645 1.4113-2.4827 1.6937-.1756.0487-.3942.1249-.4862-.1192-.083-.22.1238-.3223.2661-.3739 1.2881-.4671 2.0549-1.5431 2.9174-2.4971 1.578-1.7454 3.4596-3.014 5.6714-3.8235.8536-.3125 1.7107-.5707 2.6074-.7037z" fill="#111211"/><path d="m84.6808 64.7138c.5475-.4981.7502-1.1935 1.0335-1.8388.0927-.2111.1863-.344.4293-.3518.2323-.0074.321.1493.4215.3114.1543.249-.0401.3185-.1966.4253-.1681.1147-.2033.3269-.2363.4953-.1104.5634-.4212 1.0282-.6757 1.5219-.4308.5202-.8314 1.0697-1.2995 1.5539-.7107.7351-1.5339 1.3276-2.574 1.4899-.3333.052-.6437-.1892-.9511-.3214-.2139-.092-.0874-.2433.0319-.3608.184-.1814.4426-.1655.6571-.2611 1.3468-.6002 2.4921-1.4578 3.3599-2.6638z" fill="#111211"/><path d="m86.834 66.5537c.4033-.1246.7018.1026.9515.3452.6914.6716 1.4665 1.2654 1.9988 2.0908.0903.14.1872.304.3888.2943.7948-.038 1.2392.4278 1.5633 1.0723.0245.1683.0635.3361.0696.5051.006.1683.0062.3783-.2059.4134-.1753.029-.3283-.0821-.4066-.2545-.1046-.2302-.1693-.4328-.5197-.4568-.3357-.0231-.4772.0405-.5042.3621-.0014.0168-.0073.0335-.013.0495-.1304.3697-.324.923-.6203.897-.3074-.027-.197-.6049-.2198-.9503-.112-1.6996-.9397-2.9924-2.2792-3.9843-.1516-.1123-.2934-.1698-.2033-.3838z" fill="#111211"/><path d="m86.026 86.8604c-.6937.0559-1.3621-.0839-2.0261-.2578-.1665-.0436-.3179-.0966-.4277-.2519-.1041-.1474-.2273-.2843-.0628-.4472.126-.1248.3146-.22.4609-.0781.3301.3201.7631.2651 1.1529.3628.1159.029.3142.1081.3506-.0558.0409-.184-.1008-.292-.3095-.3182-.5108-.0641-.9942-.2169-1.4601-.4473-.3698-.1829-.6147-.4811-.8611-.7847-.1041-.1282-.1401-.2895.0131-.4114.1371-.1091.2875-.1016.4145.0314 1.272 1.332 3.0567 1.266 4.6557 1.7045.1441.0395.3141-.0107.4308.1224.0965.1101.2818.1748.2324.3653-.0431.1664-.2089.1357-.335.1787-.7246.2474-1.4806.2356-2.2286.2873z" fill="#111211"/><path d="m80.9972 85.659c.1068-.2065-.0833-.6568.2677-.6631.399-.0072.2804.4516.3008.6997.1579 1.9209.5442 3.7794 1.3655 5.5364.0875.1872.3302.4594.0317.6227-.2355.1288-.3426-.1787-.4297-.335-1.0104-1.8124-1.4211-3.7867-1.536-5.8607z" fill="#111211"/><path d="m96.0346 86.7643c.0467-.0141.0934-.0283.14-.0424-.0467.0141-.0934.0283-.14.0424z" fill="#ccce8b"/><g fill="#111211"><path d="m97.6642 111.105c1.0772.2381 2.0647.8842 3.2316.6583.0841-.0163.1515-.1188.2277-.1821-1.2237-.5071-2.3953-.9926-3.603-1.4931.2298-.3016.4443-.1869.6653-.1039 1.3405.5029 2.6434 1.1102 4.0328 1.4778 1.0526.2784 2.1219.653 3.2051.2922.5305-.1767 1.0984-.1284 1.6006-.3806.1636-.0822.3148.0026.2664.1655-.0889.2994.0183.7442-.2895.8766-.541.2328-1.0106.715-1.6831.5817-.0975-.0193-.2047.0032-.3066.0138-1.7424.181-3.4125-.2481-5.0567-.703-.8134-.225-1.5767-.6815-2.2906-1.2032z"/><path d="m100.4937 96.2564c.3617-.0288.4577.1399.3367.4605-.1517.4021-.3716.7727-.6467 1.0944-.2952.3451-.6296.6554-.9281 1.0024-.4053.471-1.0321.4219-1.7113.0263-.7364-.4289-1.2216-1.066-1.6733-1.7575-.3453-.5288.053-.8737.2792-1.2413.3401-.5527.8309-.8783 1.5248-.8117.1998.0192.4091.029.4335.2545.0217.2014-.2066.1903-.341.2411-.5013.1892-.9325.4287-1.2021.9482-.1575.3036-.0571.457.1329.6054.3893.3041.7936.5901 1.2027.8674.565.383 1.6364.0987 1.8715-.5554.1544-.4295.387-.8223.7266-1.1403z"/><path d="m107.1012 91.2835c-.5016-.1176-1.0111-.4287-1.5445-.6792-.6471-.3039-.9863-.9374-1.4662-1.4203-.0703-.0707-.1253-.1659-.1605-.2599-.0545-.1456-.096-.311.0619-.4196.1535-.1056.2977-.0437.4072.087.684.8163 1.6534 1.0387 2.6208 1.2695.371.0885.6336-.0078.8862-.322.3742-.4655.7712-.9093.9915-1.4729.0739-.189.1233-.3654.384-.2624.2136.0844.2613.2434.211.4508-.1192.4924-.3706.9236-.6833 1.307-.3559.4364-.7178.8653-.9932 1.3582-.14.2504-.3521.3615-.7149.3638z"/><path d="m99.9994 94.0362c-.5402-.0014-1.5654-.7453-1.6666-1.1503-.0402-.1609-.1426-.223-.2504-.2979-.126-.0875-.2055-.1928-.1342-.3435.0798-.1686.2476-.1226.361-.0785.3311.1288.669.2573.971.4406.7069.429.9293.4476 1.5074-.0842.526-.4839 1.0103-1.013 1.5232-1.5117.1548-.1505.1751-.2395-.0465-.3198-.0959-.0348-.1836-.1123-.2798-.1218-.2772-.0274-.5322-.1705-.4338-.4327.1137-.3029.4084-.1095.6224-.031.3039.1115.6146.2139.9009.3617.324.1672.343.4038.0539.6426-.919.7592-1.7392 1.6174-2.5244 2.5112-.194.2211-.4041.4257-.6041.4153z"/><path d="m103.3297 95.8136c-.8199-.002-1.3678-.4127-1.8306-.9301-.3831-.4283-.3406-.9235.0139-1.398.5073-.679 1.1662-1.2042 1.816-1.7249.6745-.5405 1.7772-.3403 2.4353.4047.1354.1533.5311.2738.3459.5344-.2286.3218-.4911-.0182-.7-.1344-1.6399-.9122-1.252-.7599-2.5216.3459-.2689.2342-.4783.5354-.7338.7867-.3371.3315-.2383.6506.0195.9471.3006.3457.6294.6578 1.1383.6758.2175.0077.2744.1975.2616.3758-.0162.2273-.1977.1115-.2445.117z"/><path d="m104.4414 114.315c-.7081.0051-1.3728-.2404-2.0622-.332-.25-.0332-.3918-.1737-.3785-.3947.0156-.2581.2746-.3113.4657-.3063.2847.0075.5769.0613.8492.148 1.1203.3565 2.182-.0133 3.2561-.2363.1656-.0344.3261-.0932.489-.1409.1753-.0514.3547-.0682.4306.1375.0674.1829-.0737.2872-.217.3544-.9001.4218-1.8375.7107-2.8329.7703z"/><path d="m105.9428 108.6947c-.3081-.0211-.6133-.0201-.9178-.0969-.2939-.0741-.4384-.0064-.5381.3659-.1517.5664.0304.6413.5179.6157.2458-.0129.5095.07.7435.1636.1535.0614.3091.2248.0418.3688-.4512.2432-1.6018.0078-1.9208-.3792-.3351-.4067-.1011-.8306.0175-1.2104.0963-.3081.3417-.6124.7585-.5543.7082.0986 1.414.2142 2.12.3276.0822.0132.1794.0579.1591.1609-.0205.1038-.1031.1878-.2133.1973-.2555.0218-.5122.0283-.7683.041z"/><path d="m103.6516 105.9707c.8183.1718 1.6851.1429 2.5506.1444.1196.0002.2561.015.2814.1582.023.1296-.1178.1415-.197.1972-.7622.5363-1.5979.6842-2.5.4725-.1308-.0307-.2617-.0757-.3815-.1359-.2175-.1093-.4516-.2468-.3817-.5322.0711-.2897.3535-.2729.6282-.3042z"/><path d="m103.0324 105.0883c.1095-.633.3823-1.2378.8405-1.7555.0711-.0804.1796-.1877.3081-.1184.1629.0878.1004.2549.0524.3657-.1684.3885-.3429.7773-.5558 1.1421-.0875.15-.1728.2982-.1931.4602-.0251.2002-.0603.4184-.2833.4052-.3332-.0197-.0859-.2926-.1688-.4993z"/><path d="m106.6009 102.506c.6597.046 1.19.2668 1.7171.4955.0994.0431.2588.0772.1796.2402-.0551.1133-.1992.17-.3077.1363-.5716-.1777-1.1639-.2123-1.75-.2953-.1587-.0225-.3491-.1371-.3083-.3443.0626-.3176.3553-.1586.4693-.2324z"/><path d="m109.0752 104.4321c.0334.0065.0704.0061.0994.0212.2684.1392.1799.384.0726.5257-.1684.2222-.0018.6873-.4789.68-.0291-.0004-.0657-.0255-.0854-.0499-.0996-.1234.1938-1.1264.3411-1.1727.016-.005.0341-.0029.0512-.0043z"/><path d="m100.4989 96.2505c-.1904-.2028-.4303.0931-.6477-.0763-.1495-.1166-.3508-.1834-.3072-.4074.0416-.2133.255-.2354.412-.1954.1748.0445.4666-.1054.4967.2733.0106.133-.1223.2943.041.4117z"/><path d="m67.783 56.2003c-.1859-.096-.2961.0378-.392.15-.4103.4803-.9603.6809-1.5516.8166-.3486.08-.6887.1966-1.0365.2804-.4619.1113-.9131.0768-1.3273-.1743-.2328-.1412-.3622-.1078-.4473.1673-.0957.3093-.213.6163-.4151.8762-.071.0913-.1703.2003-.3016.1449-.1227-.0518-.0689-.1886-.0434-.2716.2342-.7622.2437-1.5678.4501-2.3324.1356-.5022.1144-1.0157.1892-1.521.0366-.2469-.1052-.3312-.347-.2943-.2461.0375-.3435-.1334-.3629-.335-.0218-.2261.1935-.2281.3253-.2416.3703-.038.661-.0626.7828-.5495.0586-.2343.4705-.4295.761-.548 1.1974-.4886 2.4076-.7051 3.6533-.1111.6961.3319 1.1272.8566 1.3044 1.5853.0753.3096.1856.493.5322.4644.1733-.0143.4111-.1054.4473.1828.0331.2634-.2199.262-.3788.3392-.0611.0297-.1283.0467-.1927.0696-.2745.0235-.6457-.1787-.7212.3092l-.0003.0006c-.0612.0816-.1102.1781-.1864.2417-.1427.1192-.3066.2657-.5012.1434-.2112-.1328-.1277-.3095-.0298-.4918.0616-.1147.0934-.2632.087-.3941-.0633-1.2982-1.7805-2.393-2.9753-1.8945-.4467.1864-.8796.4059-1.3405.6204.1631.241.4398.2338.6429.2406 1.0828.0359 1.9675.5439 2.7518 1.1999.3739.3127.7838.6944.843 1.261-.0424.0196-.0849.0392-.1273.0588-.0318-.0138-.0625-.0115-.0921.0069zm-.8658-.4443c-.1734-.0778-.2211.0278-.2971.0931-.538.4622-1.578.2043-1.8457-.4508-.0645-.1579-.0542-.3178.0381-.4411.2245-.3.122-.4315-.2042-.5081-.1291-.0303-.2428-.1233-.3662-.1819-.1777-.0843-.2773-.0493-.3231.1671-.0806.3807-.1717.7617-.2961 1.1299-.1236.366.0253.5852.3127.7717.755.4899 2.3989.4145 2.9816-.5799z"/></g><path d="m68.0026 56.1347c-.0593-.5665-.4692-.9483-.843-1.261-.7843-.656-1.669-1.164-2.7518-1.1999-.2031-.0067-.4798.0004-.6429-.2406.4609-.2145.8938-.434 1.3405-.6204 1.1948-.4986 2.912.5962 2.9753 1.8945.0064.1308-.0254.2793-.087.3941-.0979.1823-.1814.359.0298.4918.1946.1223.3585-.0241.5012-.1434.0762-.0637.1252-.1601.1864-.2417.037.2799-.0439.5097-.3388.5709-.2171.045-.2647.2196-.3697.3557z" fill="#cbcd8a"/><path d="m66.0588 59.2364c-.4259.0158-.8369-.3143-.8365-.7152.0003-.248.2275-.2952.4078-.2693 1.2554.1805 2.2673-.4037 3.2942-.9883.356-.2027.7057-.3889.9927-.6888.1333-.1393.3353-.2146.5035-.0488.2236.2203-.0413.3183-.1443.4485-.3616.457-.8873.7024-1.3817.9454-.9341.4594-1.7462 1.1964-2.8357 1.3165z" fill="#111211"/><path d="m57.79 53.8657c0 .3232-.0036.6464.0012.9695.0032.2168-.1319.3271-.3118.3236-.1688-.0034-.1843-.175-.1765-.314.0268-.4782-.1696-.8129-.6018-1.0306-.225-.1134-.4275-.2613-.4803-.5532-.057-.3148-.0861-.6256.1768-.8461.2627-.2203.5978-.2459.9103-.1231.3271.1286.4975.4005.5057.7575.0063.272.0013.5443.0013.8164-.0082 0-.0166 0-.0249 0z" fill="#111211"/><path d="m68.7113 55.2074c.0754-.4878.4467-.2857.7212-.3092-.1306.3594-.4987.1644-.7212.3092z" fill="#cbcd8a"/><path d="m67.783 56.2003c.0295-.0184.0603-.0207.0922-.0068-.0131.0262-.0263.0524-.0394.0786-.0176-.024-.0352-.0479-.0528-.0718z" fill="#cbcd8a"/><path d="m41.6746 83.2686c-.1254.003-.2375-.0036-.3315-.105-.5874-.6337-1.2781-1.1843-1.558-2.0569-.0869-.2711-.0963-.4953.1088-.7072.474-.4898 1.0036-.9155 1.5341-1.3406.203-.1627.4241-.2034.5875.0064.189.2428-.0551.3509-.2132.4757-.3882.3065-.7719.6187-1.1591.9266-.0756.0601-.2173.1131-.101.2244.4586.4388.6627 1.0615 1.1077 1.5078.0482.0484.1253.0918.1375.1485.1375.6383.3758.3654.637.083.4948-.5351.9999-1.0608 1.4995-1.5914.1451-.1541.3101-.3341.5155-.1476.1852.1682.0254.3546-.0962.4891-.4696.519-.9373 1.041-1.4332 1.5343-.3341.3323-.764.5043-1.2354.5529z" fill="#111211"/><path d="m42.0988 77.0639c.0046.3308-.227.5466-.4201.7004-.7327.5833-1.4333 1.2004-2.1219 1.8335-.4095.3766-.8562.3208-1.2124-.1195-.2677-.331-.5209-.6798-.8275-.9714-.2585-.2458-.2091-.4712-.0203-.6648.498-.5107.9539-1.08 1.6446-1.36.1017-.0412.2108-.1961.3107-.0603.1.1358-.0097.2552-.1339.3342-.4357.2772-.7817.6555-1.1563 1.0036-.4346.4038.0147.6346.1665.9008.1548.2716.383.3868.7212.1828.8335-.5029 1.4113-1.2812 2.1268-1.9096.0351-.0308.0653-.0871.0669-.1326.0085-.247.0211-.5681.3204-.544.3301.0265.4814.3357.5068.6716.0038.0506.0208.1.0285.1353z" fill="#111211"/><path d="m32.6898 89.4417c.5286-.0272 1.0448-.1174 1.5476-.2873.1743-.0589.3937-.1592.4993.071.1073.2339-.1051.3251-.2765.4086-.6617.3224-1.3441.5872-2.071.7216-.5237.0968-.9691-.1375-1.0472-.652-.1145-.7542-.2462-1.5215-.0555-2.2854.0678-.2714.2036-.4648.5335-.5392.6104-.1378 1.1832-.4263 1.8297-.4327.2042-.002.423-.0128.436.2208.0124.2225-.2378.2199-.3964.2321-.4137.032-.8013.1595-1.1874.2912-.5571.19-.7767.5215-.7338 1.1064.0212.2894.0652.5779.1132.8643.0438.2617.2064.3134.8085.2806z" fill="#111211"/><path d="m36.7167 89.0331c-.0666-.323-.1739-.7874-.2537-1.2564-.0348-.2048-.1398-.4853.1447-.578.2321-.0757.3003.2142.4467.3178.4356.3081.3798.7522.4473 1.1729.1347.8401.2744.9234 1.1118.8171.8314-.1055 1.5943-.3505 2.2342-.9127.1349-.1185.3082-.2234.4475-.062.1283.1487-.027.2722-.1347.387-.9543 1.0171-2.1975 1.3213-3.5184 1.3991-.4557.0268-.9419-.6133-.9254-1.2848z" fill="#111211"/><path d="m35.3436 93.329c-.0814.0984-.1072.3321-.341.2378-.9068-.3658-1.6593-.9161-2.0687-1.8388-.1281-.2886-.0862-.5253.2068-.7505.4858-.3735 1.068-.5106 1.6037-.759.1319-.0612.2885-.0229.3674.0999.11.1711-.0652.2446-.1676.31-.2724.1741-.5554.3259-.8772.4041-.1921.0466-.2798.074-.1206.3627.2723.4938.6816.8918.9057 1.407.0683.1571.1733.2412.3265.2946.091.0317.2089.0582.165.2322z" fill="#111211"/><path d="m43.5938 78.0676c-.106.0159-.2095.0238-.2515-.0594-.3407-.6747-1.0488-1.0896-1.2892-1.8374-.054-.168-.165-.3403.0296-.4523.233-.1341.3469.0775.4269.2388.1993.4018.4598.752.7675 1.0772.1951.2062.3142.2405.5814.0573.5147-.3529.8613-.9384 1.519-1.0946.1398-.0332.259-.1954.4112-.0375.1556.1615.1357.3465.0355.5204-.0665.1154-.1504.2324-.2544.3127-.4848.3742-.9853.7281-1.467 1.1062-.1634.1282-.3525.1143-.509.1686z" fill="#111211"/><path d="m38.7699 86.0049c.4703.0768.8403.1331 1.2086.1993.1841.0331.1698.1799.1651.3214-.0054.1618-.1143.2166-.2389.1986-.3845-.0553-.7694-.116-1.1471-.2049-.1388-.0327-.3105-.1342-.2633-.3205.0439-.1738.2179-.1943.2756-.1939z" fill="#111211"/><path d="m45.5803 74.9433c-.0934.0885-.1845.1836-.2851.2674-.0939.0782-.2068.0617-.2702-.0281-.1822-.2583-.4313-.4204-.7009-.5726-.1481-.0836-.2595-.2349-.1255-.427.1258-.1803.2532-.0621.3983-.016.4224.134.6825.4628.9834.7763z" fill="#111211"/><path d="m36.6386 93.2578c-.1232.0273-.1904-.0154-.2351-.0976-.0427-.0787-.0736-.1786.0105-.2312.3281-.2055.5664-.5478.9702-.638.0866-.0194.1796-.0385.217.0599.0201.0529.0073.1386-.0243.1879-.2306.3597-.5973.5436-.9383.719z" fill="#111211"/><path d="m35.4591 87.9684c.0183.2637-.1179.4316-.2766.4-.3311-.0659-.3051-.3987-.3465-.6523-.0313-.1918.0784-.3634.2752-.3374.3785.0499.234.4286.3479.5897z" fill="#111211"/><path d="m43.948 79.2523c.2562.0606.5276.0962.5974.3452.0575.2051-.1674.3029-.3259.2844-.2341-.0274-.464-.1542-.52-.406-.0375-.1687.1533-.1789.2485-.2236z" fill="#111211"/><path d="m63.3628 101.91c.5388.0288.927.3879 1.3592.6384.9405.5451 1.8602 1.1272 2.9299 1.5455.0213-1.028.0809-2.004.2431-2.9746.1013-.6058.349-1.1357.6295-1.662.1288-.2416.2908-.2919.538-.1127.6025.4368 1.1449.9445 1.7719 1.3579 1.6477 1.0864 3.4174 1.9197 5.2268 2.6817 1.1429.4813 2.2912.9498 3.437 1.4242.0574.0599.171.1305.162.1776-.0287.1499-.1472.0878-.2421.057-.6979-.2268-1.3996-.4425-2.0928-.6827-1.2042-.4174-2.3717-.9255-3.538-1.4388-1.1431-.5031-2.2297-1.1054-3.2858-1.7658-.431-.2695-.8598-.5459-1.2662-.8505-.2308-.173-.2844-.0477-.3651.1285-.361.7874-.4859 1.6278-.5786 2.4782-.0498.4572-.0969.9183-.1994 1.3652-.124.5407-.3117.6188-.8272.3792-.7117-.3308-1.365-.7675-2.0447-1.156-.6467-.3697-1.1434-.9206-1.7597-1.3191-.1051-.0682-.104-.1669-.0978-.2712z" fill="#0c0d0d"/><path d="m66.9172 55.756c-.5826.9944-2.2266 1.0698-2.9816.5799-.2874-.1865-.4364-.4057-.3127-.7717.1244-.3681.2155-.7492.2961-1.1299.0458-.2164.1454-.2514.3231-.1671.1235.0586.2371.1516.3662.1819.3263.0766.4287.2081.2042.5081-.0922.1233-.1026.2831-.0381.4411.2677.6551 1.3077.913 1.8457.4508.076-.0653.1236-.1709.2971-.0931z" fill="#c29f35"/></svg>