<svg enable-background="new 0 0 141.7819 141.8348" viewBox="0 0 141.7819 141.8348" xmlns="http://www.w3.org/2000/svg"><path d="m70.4825 141.8348c19.4275-.2262 35.9578-6.7237 49.6276-19.9026 13.4847-13.0005 20.787-29.0533 21.5955-47.7813.8723-20.2073-5.7354-37.8566-19.7503-52.4495-12.988-13.5236-29.071-20.8197-47.818-21.6257-20.2065-.8688-37.8567 5.7401-52.4456 19.7593-13.533 13.0044-20.8279 29.1029-21.6188 47.8728-.8516 20.2104 5.7602 37.8654 19.8094 52.4242 13.8678 14.3709 31.0443 21.4281 50.6002 21.7028z" fill="#fff"/><path d="m70.4825 141.8348c-19.5559-.2748-36.7324-7.3319-50.6003-21.7028-14.0491-14.5587-20.6609-32.2137-19.8093-52.4242.7909-18.7699 8.0858-34.8684 21.6188-47.8728 14.5889-14.0192 32.2391-20.6281 52.4456-19.7593 18.747.806 34.83 8.1022 47.818 21.6257 14.0149 14.5929 20.6226 32.2422 19.7503 52.4495-.8084 18.728-8.1107 34.7809-21.5955 47.7813-13.6698 13.1789-30.2001 19.6765-49.6276 19.9026zm13.6165-5.3322c.5484-.0725 1.0972-.1432 1.5991-.4013.7336-.0653 1.4287-.2947 2.1361-.4808 4.9746-1.3082 9.706-3.2309 14.2603-5.6061.1791-.0934.3914-.1574.3958-.4174.5792-.0535.9514-.5385 1.4752-.7075.1165-.04.1672.162.3178.0641.6996-.4545 1.4178-.8807 2.1119-1.3431 1.7337-1.155 3.4434-2.3413 5.0988-3.611 1.5891-1.2188 3.1081-2.5171 4.582-3.8643 1.9317-1.7656 3.7279-3.6677 5.4314-5.6594 1.9724-2.3062 3.82-4.6993 5.4599-7.2561 2.1939-3.4204 4.0629-7.0072 5.6501-10.745 1.2766-3.0064 2.3347-6.0911 3.1389-9.2521 1.0879-4.2758 1.6769-8.641 1.8593-13.0428.099-2.3891.0999-4.79-.0556-7.1878-.1192-1.8388-.2866-3.6675-.5183-5.4951-.3248-2.5606-.8003-5.089-1.4641-7.581-1.0129-3.8023-2.3638-7.4867-4.0343-11.0462-1.0097-2.1512-2.1276-4.2487-3.3323-6.3035-2.6484-4.5168-5.8939-8.5664-9.4986-12.3382-1.7272-1.8073-3.6187-3.4414-5.5346-5.049-3.3058-2.7737-6.8943-5.1223-10.6897-7.1535-3.9993-2.1403-8.17-3.8805-12.51-5.219-5.1856-1.5994-10.5083-2.3906-15.9063-2.6413-2.3706-.1101-4.7558-.105-7.1362.0571-1.5486.1055-3.0902.2426-4.6324.4152-2.3602.2642-4.6931.6705-7.0004 1.2198-4.2989 1.0233-8.4372 2.5193-12.4395 4.3797-3.0742 1.429-6.0489 3.0526-8.8696 4.9382-4.2848 2.8643-8.2101 6.1545-11.7298 9.9309-1.4836 1.5918-2.916 3.224-4.2527 4.9369-3.6531 4.6816-6.538 9.8125-8.8514 15.2732-1.2673 2.9912-2.324 6.0582-3.1252 9.2024-1.0937 4.2923-1.7019 8.6736-1.8678 13.0931-.1095 2.918-.1195 5.8473.1529 8.7709.1882 2.0205.4208 4.0305.731 6.0351.6849 4.4265 1.9686 8.6839 3.612 12.8369 1.3731 3.4701 3.0453 6.7947 4.937 10.014 2.6079 4.4383 5.7855 8.4374 9.3344 12.1429 2.0071 2.0957 4.1579 4.049 6.4123 5.8814.7744.6294 1.5493 1.262 2.3622 1.8393.9397.6674 1.8454 1.3889 2.8533 1.9542.3129.1755.5096.6093.9743.4757.2146.0267.3475.2014.5273.2909.5707.284 1.0394.7539 1.6755.9185.0672.2682.3056.3548.5107.4693 1.5713.8768 3.1832 1.6762 4.8082 2.4454.8914.422 1.7688.8956 2.7416 1.1266.204.2878.5121.3031.8218.3141.0322.0563.0518.1466.0985.1639 2.4973.9282 5.0119 1.8031 7.5996 2.4521.143.0359.2656.0734.3572-.0792.1124.1018.2078.2244.3676.263 1.12.2702 2.2225.6278 3.3862.6804.1443.048.2853.1143.4335.1414 2.5922.4754 5.2034.8106 7.8333.971 2.5468.1553 5.0954.1659 7.6466.0352 3.2851-.168 6.5334-.6 9.7552-1.2521z" fill="#5f6065"/><path d="m35.5357 127.5621c-.4648.1337-.6614-.3001-.9744-.4756-1.0079-.5654-1.9137-1.2868-2.8533-1.9542-.8129-.5773-1.5878-1.2099-2.3622-1.8393-2.2544-1.8324-4.4052-3.7857-6.4123-5.8814-3.5489-3.7056-6.7265-7.7047-9.3344-12.1429-1.8917-3.2193-3.5639-6.544-4.937-10.014-1.6433-4.153-2.9271-8.4104-3.612-12.8369-.3102-2.0046-.5428-4.0146-.731-6.0351-.2724-2.9236-.2624-5.8529-.1529-8.7709.1659-4.4195.7741-8.8008 1.8678-13.0931.8012-3.1442 1.8579-6.2112 3.1252-9.2024 2.3134-5.4606 5.1983-10.5916 8.8514-15.2732 1.3367-1.713 2.7691-3.3452 4.2527-4.9369 3.5197-3.7764 7.445-7.0665 11.7298-9.9309 2.8207-1.8856 5.7955-3.5092 8.8696-4.9382 4.0023-1.8604 8.1406-3.3564 12.4395-4.3797 2.3073-.5492 4.6402-.9556 7.0004-1.2198 1.5422-.1726 3.0838-.3097 4.6324-.4152 2.3803-.1622 4.7656-.1673 7.1362-.0571 5.398.2508 10.7207 1.042 15.9063 2.6413 4.3401 1.3386 8.5107 3.0787 12.51 5.219 3.7954 2.0312 7.3839 4.3797 10.6897 7.1535 1.9159 1.6075 3.8073 3.2417 5.5346 5.049 3.6048 3.7719 6.8503 7.8214 9.4986 12.3382 1.2047 2.0548 2.3227 4.1523 3.3323 6.3035 1.6706 3.5595 3.0214 7.2439 4.0343 11.0462.6638 2.492 1.1394 5.0204 1.4641 7.581.2318 1.8276.3991 3.6563.5183 5.4951.1555 2.3978.1546 4.7987.0556 7.1878-.1824 4.4018-.7714 8.767-1.8593 13.0428-.8042 3.161-1.8623 6.2457-3.1389 9.2521-1.5872 3.7378-3.4562 7.3246-5.6501 10.745-1.6399 2.5567-3.4875 4.9498-5.4599 7.2561-1.7035 1.9918-3.4997 3.8938-5.4314 5.6594-1.4739 1.3472-2.9929 2.6455-4.582 3.8643-1.6554 1.2697-3.3651 2.456-5.0988 3.611-.6941.4624-1.4124.8886-2.1119 1.3431-.1507.0979-.2013-.104-.3179-.0641-.2011-.7206-.4388-1.4334-.5932-2.1638-.1679-.7942-.3717-1.5747-.4607-2.3979-.103-.9523-.3678-1.8969-.4984-2.8653-.0797-.5913.1193-.6689.5331-.7481.1325-.0254.2728-.0157.4022-.05.4972-.1318 1.0319-.1969 1.4791-.4287 1.2889-.6683 1.8799-1.976 2.5092-3.1548.4756-.8909 1.0683-1.7227 1.4509-2.6886.263-.6639.3692-1.3452.5568-2.0073.2716-.9585.1657-1.9981.0184-2.9552-.1451-.9425.0481-1.8727-.1339-2.7974-.1019-.5177.0095-1.0631-.0526-1.5719-.0735-.6017-.1625-1.1987-.2134-1.8077-.0949-1.1349-.1017-2.2735-.2191-3.409-.1297-1.2544-.0285-2.5272-.1523-3.7901-.0676-.6902-.0308-1.39-.0628-2.0845-.0759-1.6486.0199-3.3046-.1964-4.9466-.2334-1.7718-.2301-3.5477-.1601-5.3288.08-2.0341.2057-4.0638.437-6.0868.0244-.2138.0638-.4578-.2454-.5401-.9982-.2657-1.8145-.9023-2.7133-1.3674-.4115-.2129-.7827-.529-1.1772-.7918-.1899-.1265-.3074-.3603-.2715-.668.0613-.5246.1446-1.0435.2519-1.5587.1763-.8469.3068-1.6983.4273-2.5555.1199-.8529.2544-1.7304.6161-2.5485.1472-.3331.2522-.6602.4855-.9635.4352-.5657.8959-1.1058 1.0915-1.8514.1395-.5316.2892-1.0739.4547-1.6051.2344-.7526.5509-1.525.5586-2.2917.0101-1.0086.2593-1.9768.2966-2.979.0383-1.0295.1287-2.0438-.0336-3.0733-.1605-1.0186-.1633-2.0732-.4642-3.0565-.2547-.8321-.7152-1.6123-1.3598-2.2206-.2686-.2535-.2418-.6969-.6158-.8328-.2309-.0839-.26-.2055-.2098-.4302.1976-.8863.1226-1.7521-.1244-2.632-.1264-.4501-.2628-.8459-.6175-1.1509-.1323-.1137-.2241-.2669-.0515-.3818.2712-.1805.2413-.4574.3012-.7109.1477-.6256.3832-1.245.4238-1.8771.0406-.6337.1316-1.2876-.0814-1.9291-.1211-.3648-.083-.7869-.2251-1.1394-.2954-.7326-.5321-1.4858-.8254-2.2174-.205-.5113-.4086-1.0437-.7279-1.483-.3489-.4798-.5691-1.0296-.9669-1.489-.4886-.5642-.7271-1.3397-1.46-1.7065-.0733-.0367-.1087-.1663-.1438-.2595-.1719-.4565-.4514-.6979-.9767-.571-.4995.1207-.9235.2899-1.1409.8241-.1458.3583-.288.8204-.8036.7823-.2664-.0197-.5446-.1459-.7785-.2881-.6649-.404-1.3543-.7546-2.0456-1.111-1.6195-.8349-3.3306-1.4772-4.9163-2.3775-.519-.2947-1.1207-.3171-1.6662-.5504-.8819-.3773-1.8045-.6657-2.7227-.9501-.775-.24-1.5668-.4275-2.3541-.6264-.7413-.1873-1.4849-.3624-2.2361-.5118-.7804-.1552-1.5683-.2213-2.3552-.2911-.9693-.086-1.9432-.1418-2.916-.1615-.796-.0161-1.5945.0611-2.3891.0773-1.0533.0215-2.102-.0065-3.1554.1202-.8516.1024-1.7041.2157-2.5704.2351-1.0308.023-2.0775.0619-3.088.2156-.7781.1184-1.4327-.0075-2.1341-.2364-.3162-.1032-.5633-.3116-.8705-.4204-1.2703-.4498-2.4889-.9971-3.4812-1.9475-.2266-.217-.5033-.2903-.8118-.3736-.9697-.262-1.6431.3836-2.2922.8078-.9228.603-1.6997 1.4389-2.4751 2.2469-1.1689 1.2181-2.2722 2.4855-3.05 3.9953-.5345 1.0375-1.0311 2.0938-1.6083 3.1101-.2725.4797-.5053.997-.6845 1.5088-.4044 1.1551-.7352 2.3413-1.0087 3.5349-.1409.6147-.4707 1.1868-.4244 1.8499.0212.3035-.135.5422-.4004.7272-.7667.5343-1.0882 1.4142-1.4456 2.1929-.3602.7847-.5589 1.6754-.9315 2.459-.6842 1.4388-1.1654 2.9401-1.5395 4.4697-.2558 1.0459-.633 2.0701-.7543 3.1415-.0985.8702-.345 1.719-.3868 2.5893-.0684 1.4225-.3422 2.8223-.4115 4.243-.0395.8093-.1036 1.6177-.1286 2.4274-.0261.8462-.0171 1.6934-.026 2.5401-.0111 1.0572-.0057 2.1089.0895 3.1684.0758.8438.1569 1.6973.1663 2.5472.0113 1.0266.1987 2.0289.3336 3.0379.0806.6026.3166 1.1884.3626 1.7909.0819 1.0722.435 2.084.6146 3.134.1494.8735.496 1.7124.6711 2.5946.0697.351.0891.7376.3149 1.0773.2783.4186.3833.972.7113 1.3324.3066.3369.3577.7579.5964 1.1002.0522.0748.0426.1973-.0496.2812-.7435.6764-1.6148 1.149-2.5916 1.3136-.9234.1556-1.1689.3198-1.3089 1.2583-.093.6232.0167 1.2513-.1106 1.877-.1133.5564-.1884 1.1324-.2339 1.6918-.1103 1.3544-.3147 2.6971-.5334 4.0298-.2526 1.5392-.3255 3.0846-.4503 4.6299-.0298.3686-.1635.6271-.4914.8626-.5245.3768-1.1245.6236-1.6373.9949-1.2722.9213-2.5701 1.796-3.7523 2.859-1.1151 1.0027-1.8749 2.1942-2.6117 3.4378-.2611.4408-.3713 1.0115-.2256 1.4511.2857.8622.6625 1.6991.9683 2.56.2744.7725.6194 1.524.8366 2.3115.2393.8676.4393 1.7754.7666 2.584.4209 1.0402.5379 2.1342.9023 3.17.196.5572.2229 1.1633.3928 1.7149.3472 1.1277.6254 2.2737.9674 3.402.2373.7816.2392 1.6255.6165 2.3718z" fill="#c4d2a1"/><path d="m102.4902 129.597c-.0044.26-.2167.324-.3958.4174-4.5543 2.3752-9.2857 4.2979-14.2603 5.6061-.7074.186-1.4025.4154-2.1361.4808.1138-.6606.2799-1.3057.4807-1.9473.3382-1.0809.6232-2.1785.9261-3.2704.0711-.2562.1423-.3448.4838-.3289.6072.0282 1.2333.0618 1.7983.2021.67.1663 1.6403-.1241 1.9119.9249.0212.0818.1515.1323.2241.2045.1694.1683.4092.3091.4571.5423.0695.3382.2786.2878.5012.2597.1529-.0193.3039-.0534.4566-.0737.939-.1252 1.0568-.3115 1.0007-1.2524-.0275-.4614-.2057-1.077.5804-1.1767.0545-.0069.0955-.0942.1496-.135.5476-.4129.9665-.951 1.4393-1.4348.7065-.7228 1.1875-1.5355 1.5337-2.4521.1296-.3433.3258-.7085-.0277-1.0669-.097-.0983-.1568-.2894-.1441-.4299.0586-.6474-.0131-1.3124.0833-1.9396.2479-1.6136.1891-3.2489.4343-4.8584.0121-.0797-.035-.112-.0956-.1548-.7045-.4971-1.2584-1.1459-1.8102-1.7979-.0833-.0985-.2288-.1421-.3223-.2346-1.0291-1.0177-1.5419-2.3087-1.9407-3.6627-.0485-.1647.0433-.284.097-.375.389-.6595.4654-1.4358.8245-2.1088.2294-.4299.3681-.9107.525-1.3763.322-.9556.6541-1.9122.6952-2.9329.0219-.5423.284-1.0143.3979-1.5265.2408-1.0829.2889-2.1944.4452-3.2902.1165-.8168.1432-1.6737.9836-2.1681.0943-.0555.1585-.1808.2105-.2866.3743-.7606.7611-1.5162 1.0976-2.2934.0801-.1851.3965-.3682.1596-.6215-.2426-.2593-.5542-.0784-.8309-.0526-.2423.0225-.1236.3277-.2837.4439-.1852.1345-.1998.5391-.5597.3878-.3277-.1377-.5647-.45-.5032-.7685.076-.3935-.1353-.6604-.3482-.7789-.4347-.2419-.3542-.6259-.2991-.9202.0931-.4968-.0791-.9482-.0967-1.4211-.0089-.2401-.2263-.3367-.4438-.3378-.2653-.0013-.2974.2419-.2836.4098.0251.3061.0026.574-.2197.8049-.0576.0599-.0746.1396-.0649.2355.1265 1.2506-.0573 2.4905-.1526 3.732-.0781 1.0161-.2339 2.0261-.3183 3.0419-.1096 1.3187-.2804 2.6313-.532 3.9258-.2775 1.4277-.6618 2.8355-1.0278 4.2447-.1149.4424-.1668.9315-.3539 1.3172-.4287.8843-.7097 1.8114-1.0241 2.7315-.086.2516-.0484.5342.1344.6586.2986.2032.3832.5011.5271.7837.3285.6451.4173 1.3981.925 1.9651.5025.5613.8362 1.2482 1.337 1.8209.2098.24.6269.3821.6133.7427-.0155.4135.1891.7339.2932 1.0963.0421.1468.1078.3053.0882.4482-.1148.834.1369 1.6484.134 2.4844-.0024.6952-.1251 1.4024-.0262 2.1255.0666.4866-.0446 1.0816-.1953 1.6371-.2713 1-.7806 1.7621-1.547 2.4124-.3505.2974-.4725.2165-.538-.1998-.0753-.4789-.362-.6914-.8606-.6565-.4098.0286-.7228.1386-1.0885.3959-.6259.4403-.9777.9083-.9494 1.6757.0083.2252-.2003.3219-.4085.2637-.9198-.2572-1.8668-.4321-2.7129-.9162-.1915-.1096-.2638-.3494-.5243-.3825-.7436-.0944-1.2584-.5007-1.6245-1.1616-.1604-.2895.0326-.5219-.0285-.7868-.1539-.6663-.1155-1.3707-.0134-2.0163.154-.973.0985-1.9515.2413-2.9173.0296-.2002.1041-.3996.0984-.5976-.007-.2454-.1379-.4926-.3838-.5311-.3167-.0495-.4032.2476-.4081.4791-.0084.4017-.2287.7389-.2735 1.1271-.1314 1.1396-.3456 2.2671-.4594 3.4115-.068.6837-.2869 1.4003-.9378 1.7988-.9855.6035-1.9044 1.2934-2.7846 2.0346-.6803.5729-1.5404.5874-2.325.8427-.3715.1209-.3874-.0029-.325-.2941.1167-.5439.2485-1.0855.3361-1.6342.045-.2814.1208-.7389-.014-.832-.3247-.2243-.5947-.6809-1.0806-.5558-.4962.1278-.9817.3273-1.2137.8397-.3201.707-.6414 1.4156-.9117 2.1423-.1846.4963-.1896.4855-.7001.2729-.8639-.3598-1.6643-.8372-2.5007-1.2461-.3339-.1632-.5502-.4345-.7496-.7355-.1824-.2753.0837-.4392.1291-.6566.0104-.0499.0202-.1012.0198-.1518-.0051-.7349.221-1.4308.3538-2.1429.2507-1.3446.6459-2.6703.6581-4.0472.0038-.4261.1058-.8401.0749-1.2623-.0121-.1649-.0894-.4512-.2724-.2446-.2213.2499-.5733.4478-.5293.9161.0399.424.023.8843-.3006 1.2477-.0382.0429-.0447.1285-.0404.1926.0455.6849-.1282 1.3589-.2794 1.9985-.2575 1.0888-.4511 2.2028-.8661 3.2561-.096.2436-.1433.2437-.3449.1485-.4745-.224-.907-.6071-1.5602-.3634.3142-.8458.7297-1.5605.7481-2.4016.0094-.4318-.2261-.7238-.6395-.8529-.6466-.2018-1.1495.0461-1.6413.4033-.101-.0338-.202-.0675-.3031-.1013.03-.5651.4111-1.0086.5005-1.5766.1339-.8504.5984-1.6186.8619-2.4497.246-.776-.0106-1.6544.5398-2.3384.0179-.0222-.0084-.1037-.0377-.1362-.2018-.2243.0014-.319.1275-.4545.4275-.4593.8524-.9214 1.2665-1.3927.8026-.9137 1.6204-1.8156 2.3861-2.7596.4357-.5371.9875-.9676 1.3121-1.6167.2474-.4946.5319-.9854.8205-1.4541.3267-.5305.6164-1.0842.9206-1.6232.6671-1.1818 1.26-2.4064 1.8539-3.6278.1207-.2482.3834-.3816.4322-.6795.1785-1.0898.7107-2.0685 1.0051-3.124.1706-.6119.4515-1.1949.5986-1.8109.2448-1.0256.6786-1.9905.8895-3.0293.1487-.7329.2808-1.4774.5747-2.1824.2635-.6322.3142-1.3352.5198-1.984.2686-.8478.6028-1.6723 1.0052-2.4801.3244-.6511.6689-1.2916 1.0935-1.8577.7631-1.0175 1.7125-1.8695 2.904-2.3784.5469-.2336.9976-.691 1.5862-.7804.7943-.1207 1.5345-.4304 2.2755-.6766.8337-.2769 1.7141-.2813 2.5275-.6096.3462-.1397.7232.0367 1.1302-.2539.5079-.3627 1.2598-.2124 1.8904-.2643.5955-.049 1.2351-.0449 1.8599.0149.8514.0815 1.9528.8999 2.2913 1.6749.1813.4152.0332.8725.2993 1.2347.2663.3625.4143.7825.4787 1.2079.1287.8509.6392 1.5293.9544 2.2942.1139.2763.421.4125.6712.3823.2536-.0306.2758-.3575.3261-.5889.0819-.377-.1619-.6748-.2477-1.0106-.2091-.8184-.4086-1.6498-.4888-2.4878-.0917-.9577-.5361-1.7365-1.0862-2.4517-.5838-.7591-1.3402-1.3158-2.2937-1.6079-.3625-.1111-.6692.0461-1.0044-.0153-1.5079-.2759-2.9882.0182-4.4557.2997-1.1847.2272-2.3355.6176-3.5026.9211-.9388.2442-1.8376.5643-2.7331.913-1.286.5007-2.4981 1.1064-3.5238 2.0775-.7783.7368-1.5773 1.4563-2.0782 2.4023-.7179 1.3558-1.2409 2.801-1.6784 4.273-.2299.7733-.439 1.552-.7223 2.3097-.0877.2344-.1435.2426-.3541.1432-.3826-.1806-.8128-.1964-1.2219-.2862-.5645-.1239-1.1715-.1552-1.6579-.5185-.8096-.6048-1.5484-1.2799-2.1669-2.0917-.5036-.661-.9865-1.3634-1.0594-2.1721-.0615-.6826-.3285-1.3589-.1627-2.0648.0917-.3904-.2062-.5804-.4991-.6207-.2524-.0347-.5921.0886-.6703.3619-.145.5064-.4558.7298-.8952 1.0242-1.0549.7067-2.2137 1.2059-3.3005 1.8401-1.4613.8528-3.0114 1.5583-4.5476 2.2753-.5493.2564-1.0932.5346-1.6283.8087-.5744.2942-1.203.0399-1.7433.3444-.1033.0582-.2332.0068-.3327-.0787-.7557-.6497-1.6927-1.009-2.5-1.5964-1.4188-1.0324-2.6052-2.266-3.655-3.6435-.3232-.4241-.6161-.9261-.7347-1.4362-.1208-.5197-.2071-1.0399-.4343-1.5284-.0865-.1861-.1899-.3386-.4187-.2934-.273.054-.7068-.0133-.7235.3366-.0204.4254-.2874.4374-.542.57-.3297.1718-.6962.2304-1.0159.4577-.756.5377-1.6574.8159-2.5201 1.1018-.5559.1842-.8742.4463-.9846.9484-.1668.7587-.3295 1.5296-.371 2.3018-.0684 1.2716-.357 2.5002-.604 3.7368-.2392 1.1974-.4627 2.3977-.6146 3.6075-.1048.8346-.1478 1.0466-.8365 1.1764-.5409.1019-1.0298.3392-1.5609.4565-.2156.0476-.3272.0204-.2847-.1685.1346-.5978.098-1.2102.1915-1.8094.1612-1.0333.3039-2.0706.5045-3.0964.1852-.9471.1925-1.9114.349-2.8612.1548-.94.3308-1.8775.3879-2.8352.0239-.4012.0485-.8707.5785-1.0772 1.1778-.4588 2.279-1.058 3.2635-1.8674.5409-.4447.6141-.8839.2107-1.4279-.394-.5313-.7565-1.094-1.0823-1.6634-.828-1.4472-1.1897-3.0686-1.5851-4.6733-.077-.3125-.0488-.6478-.1453-.9293-.2219-.6471-.4146-1.2931-.4627-1.9755-.0566-.8032-.2579-1.5877-.3935-2.3738-.152-.8811-.2997-1.7497-.3215-2.6441-.0156-.6415-.0759-1.282-.1213-1.9225-.0449-.6339-.1818-1.2754-.1235-1.8991.0782-.8362.1235-1.6781.1583-2.5112.046-1.101.2101-2.1878.2619-3.2854.0459-.9711.3306-1.9143.4144-2.8741.1266-1.4497.4674-2.8592.7163-4.282.1803-1.0303.5576-2.0414.9391-3.0352.4415-1.1501.7798-2.3397 1.2166-3.4919.2043-.5389.3786-1.0851.5591-1.6304.2056-.6212.4249-1.2341.9132-1.74-.2691.6987.1975 1.2965.2088 1.9789.0233 1.4047-.0091 2.8148.1032 4.2239.0695.8724-.0312 1.7903-.3173 2.6473-.1232.3692-.1695.7619-.2377 1.1281-.0847.4546-.1335.855-.5017 1.1733-.1663.1437-.4125.3536-.3991.515.0332.4013.472.4964.749.7054.1887.1424.4123.0281.5648-.1104.5408-.4911 1.0895-.9773 1.5879-1.5096.2515-.2687.5681-.4907.717-.8575.3126-.7702.6209-1.5436.9741-2.2954.4095-.8716.7076-1.7963.9015-2.7151.1996-.9459.2582-1.9391.3567-2.9132.0944-.9338.0963-1.8769.1462-2.8154.0143-.2694.1357-.5306.0625-.8078-.1311-.4963.0953-.8539.4466-1.1688.2624-.2352.5779-.4705.74-.7457.5582-.9478 1.4521-1.5748 2.1507-2.3845.7868-.9119 1.7446-1.6655 2.6739-2.442 1.2006-1.0032 2.3213-2.1015 3.5035-3.1278.2674-.2321.4757-.5331.763-.7184.4279-.276.8368-.5735 1.2242-.8984.2704-.2268.1733-1.1641-.131-1.3178-.4213-.2127-.8618-.3789-1.3143-.5253-.7403-.2395-1.529-.4342-2.1714-.8447-.7645-.4885-1.4298-.703-2.287-.2738-.6855.3432-1.2971.7559-1.8039 1.3208-.6432.7169-1.2758 1.4435-1.9009 2.1762-.2733.3204-.5363.6534-.7692 1.0039-.4689.7056-.8391 1.4684-1.2477 2.2085-.9622 1.743-1.5254 3.6174-1.6306 5.5596-.0641 1.1839-.2779 2.3486-.3085 3.5356-.0295 1.1435-.1387 2.2907-.2734 3.4351-.115.977-.3002 1.928-.4894 2.8855-.0295.149-.0454.2823-.2383.2399-.2081-.0458-.1924-.1597-.0662-.2889.0919-.0941.0147-.1839.0074-.2805-.0462-.6073-.0987-1.2156-.1058-1.824-.0116-.9949.0327-1.9906.0102-2.985-.0174-.7703-.1126-1.5404-.1828-2.306-.095-1.0359.0989-2.024.246-3.023.2462-1.6715.8399-3.2528 1.3514-4.8528.0759-.2374.0002-.47.1082-.6946.4754-.9888 1.0858-1.8992 1.5191-2.9228.3503-.8275 1.0095-1.5523 1.6844-2.2019.6076-.5848 1.1544-1.2218 1.8031-1.7796.5103-.4388 1.0484-.8708 1.5721-1.3004.2166-.1777.4756-.5258.8783-.3325.5235.2514 1.0542.4847 1.5536.788.6665.4047 1.3412.8006 2.0371 1.1511 1.6809.8467 3.5133 1.2203 5.3305 1.6255.3998.0892.9286.3394 1.2244-.0098.5532-.6531 1.3374-.7108 2.0273-.8466 1.3167-.2592 2.6596-.3927 4.0193-.4212 1.1391-.0239 2.2668.0308 3.4009.0556 1.4776.0323 2.9118.3195 4.3487.5846.7908.1459 1.5712.4025 2.356.5755 1.3367.2948 2.6473.6808 3.9759 1.0001.8587.2063 1.6595.5824 2.4889.8746 1.0858.3826 2.1618.7868 3.1952 1.2947.588.289 1.135.6797 1.7454.9003 1.034.3737 2.011.8067 2.7786 1.6232.4359.4637.9314.43 1.4251.0185.344-.2867.6126-.6443.9653-.9155.1165-.0896.229-.2382.3595.0003.3729.6812.9195 1.2355 1.3706 1.8579.7957 1.098 1.4434 2.2973 1.8154 3.6014.1239.4344.3142.892.3407 1.4216-.2409-.2276-.3977-.4786-.6166-.5579-.3127-.1133-.4545-.3566-.4951-.5947-.116-.6807-1.2284-1.0613-.5903-1.9596.0133-.0188-.0195-.0653-.0182-.0984.0198-.497-.2283-.8172-.5732-1.1713-.3057-.3138-.5918-.3969-.8874-.2173-.4498.2733-.8238.3941-1.3084.0637-.5175-.3528-1.167-.4325-1.7306-.6921-.6899-.3179-1.3636-.6637-2.1393-.7043-.9191-.0481-1.8165.1147-2.7157.2807-.8831.163-1.7492.3377-2.6195-.193-.4909-.2993-1.1018-.4352-1.6776-.5484-.3009-.0591-.5206-.2972-.8656-.2625-.3641.0366-.7442-.0335-1.1118-.0922-1.184-.1888-2.3658-.3792-3.5633-.1096-.6659.1499-1.3829.2364-2.0187.1929-.8126-.0556-1.5149.2223-2.2493.3624-.77.1469-1.4707.6044-2.136 1.0326-.5299.3411-1.2791.3491-1.5931 1.0345-.0622.1358-.2141.0095-.3238-.0194-.5231-.138-1.0606-.407-1.5605-.4079-1.151-.002-2.2992.2132-3.3769.6693-.1289.0546-.2535.1543-.3763.0861-.2329-.1293-.3411.0187-.4735.155-.1548.1594-.3615.2534-.5334.3813-.4407.3279-.998.382-1.4391.727-.6587.5152-1.2404 1.1105-1.874 1.65-.7875.6706-1.3791 1.5773-2.3937 1.9734-.0124.0048-.015.0306-.0263.0428-.6965.7553-1.5086 1.3353-2.4571 1.7501-.408.1784-.9138.4274-.8874.9732.0596 1.2298.0329 2.4556.0114 3.6848-.015.8602-.6584 1.2702-1.1852 1.6213-1.1738.7823-2.212 1.6993-3.2242 2.6641-.6545.6238-1.32 1.238-2.0093 1.8226-.6774.5745-.965 1.4619-1.6722 2.0104-.1406.109-.22.3398-.1611.5209.0894.2749-.0068.5353.0114.797.0228.3266-.1715.6111-.0926.9523.2498 1.0801.3076 2.1899.4526 3.2864.1181.8939.3035 1.7942.2817 2.6874-.0278 1.1371.0737 2.2679.0464 3.4012-.0212.8775.1052 1.758-.1498 2.6321-.1725.5911-.4356 1.1895-.2324 1.839.0391.1249-.062.2216-.1347.3184-.2507.3335-.1994.8741.1572.9899.5568.1808 1.1464.2942 1.7161.3962.3459.0619.7881.0207 1.1872-.0135.4482-.0385.9115-.0026 1.3583.0657 1.2683.1939 2.5319.4576 3.7933.6416 1.1668.1702 2.284.5969 3.4831.6074.6606.0058 1.3251.1789 1.9773.3237.4627.1027.9546.1046 1.3891.244 1.8141.5821 3.6123 1.2165 5.4024 1.8698 1.0611.3872 2.1521.6487 3.1826 1.1868.997.5206 2.1764.03 3.2598-.1256.9855-.1416 1.9746-.1984 2.9614-.2455.8067-.0385 1.6182.2124 2.4343.0254.1884-.0432.3182.0333.4914.1536.7533.5229 1.5663.9226 2.5254.8979.4702-.0121.9743.116 1.4052-.0129 1.0796-.323 2.1391-.7254 3.1812-1.1575.5977-.2479 1.2488-.4778 1.6455-1.0353.5454-.7667 1.4367-1.0408 2.1695-1.5121.6485-.4171 1.5513-.2709 2.3339-.4517.3557-.0822.8352.0075 1.2491-.0571 1.1454-.1787 2.0463-.735 2.5413-1.8199.3074-.6737.5037-1.3919.8095-2.0718.119-.2645.2964-.5934.2695-.9467-.0352-.4639-.135-.9574.3722-1.2743.0582-.0364.1163-.1771.0909-.2263-.1832-.3553.1517-.6397.1155-.9859-.0259-.2489.244-.3807.473-.3596.1851.017.3571.1775.3271.3949-.0744.5379-.1691 1.0735-.2732 1.6067-.0543.2781-.1896.5453-.212.8237-.0756.9383-.1722 1.8806-.437 2.7776-.2281.773-.3331 1.5779-.6383 2.3323-.1013.2505-.0605.6013.1722.7861.2925.2323.6365.4104.9786.5674.5636.2585 1.0233.6728 1.6083.9287.6621.2895 1.6338.4303 1.4179 1.7181-.1111.6626-.1869 1.415-.1187 2.1461.1143 1.2258-.1612 2.4543-.1307 3.6816.0292 1.175.0577 2.3496.073 3.525.0158 1.2072.021 2.4201.1435 3.619.1423 1.3929.215 2.791.3371 4.1846.097 1.1061.1607 2.2233.189 3.3402.0301 1.1842.2663 2.362.3826 3.5456.076.7726.0915 1.5509.147 2.3258.0851 1.1856.1935 2.3688.2341 3.5584.0227.6673.0115 1.3327-.0005 1.9977-.0137.762.0271 1.5511-.1579 2.2769-.2024.7937-.6354 1.5287-.9701 2.2882-.0202.0458-.058.0846-.0905.1243-.4594.56-.9376 1.1058-1.3749 1.6826-.6623.8735-1.3702 1.6065-2.6097 1.5202-.3637-.0253-.7534-.0921-1.1017-.0356-.8938.145-1.7195-.0461-2.5461-.3265-.1747-.0593-.4114-.1656-.483.0839-.0686.2394-.237.5897.0698.7438.4062.204.7881.4733 1.2601.55.919.1492.8942.1651 1.0342 1.0798.2049 1.3386.2918 2.698.6817 4.006.0376.1262.0595.2854.0155.4016-.0804.2126-.0614.36.1392.4767.1347.0783.1494.2055.1571.3524.0363.6976.3805 1.322.4706 2.0218.0575.4515.2976.9098.3731 1.3899zm-23.0854-14.5604c-.0469-.0882-.0895-.2516-.1935-.3507-.7768-.7399-1.7776-1.0794-2.7763-.9816-.9181.0899-1.8818.3576-2.6152 1.0438-.1444.1351-.3226.2239-.4207.428-.1401.2914.1006.4119.2102.5752.1226.1826.2544.0454.3799-.0577.6599-.5425 1.4203-.847 2.2748-.8435.6046.0024 1.2477-.0273 1.745.3908.2032.1708.4337.26.6485.3838.2728.1571.7663-.2151.7473-.5881z" fill="#9e807d"/><path d="m66.5651 124.0702c.4918-.3572.9947-.605 1.6413-.4033.4135.129.649.4211.6395.8529-.0184.8411-.4339 1.5558-.7481 2.4016.6533-.2437 1.0857.1395 1.5602.3634.2016.0951.2489.095.3449-.1485.4151-1.0533.6086-2.1673.8661-3.2561.1513-.6396.3249-1.3137.2794-1.9985-.0043-.0641.0022-.1497.0404-.1926.3236-.3634.3404-.8236.3006-1.2477-.044-.4682.308-.6661.5293-.9161.183-.2067.2604.0797.2724.2446.031.4222-.0711.8362-.0749 1.2623-.0122 1.377-.4074 2.7026-.6581 4.0472-.1327.7121-.3588 1.408-.3538 2.1429.0003.0506-.0094.1019-.0198.1518-.0455.2174-.3115.3813-.1291.6566.1994.301.4157.5723.7496.7355.8365.4088 1.6369.8863 2.5007 1.2461.5106.2127.5155.2234.7001-.2729.2703-.7267.5916-1.4353.9117-2.1423.232-.5124.7175-.712 1.2137-.8397.4858-.1251.7559.3315 1.0806.5558.1348.0931.059.5506.014.832-.0877.5486-.2195 1.0903-.3361 1.6342-.0625.2912-.0466.415.325.2941.7845-.2553 1.6446-.2698 2.325-.8427.8802-.7412 1.7992-1.4312 2.7846-2.0346.6509-.3986.8698-1.1151.9378-1.7988.1138-1.1444.3279-2.2719.4594-3.4115.0448-.3882.2651-.7254.2735-1.1271.0049-.2315.0913-.5286.4081-.4791.2459.0385.3768.2856.3838.5311.0056.1981-.0688.3975-.0984.5976-.1428.9658-.0874 1.9443-.2413 2.9173-.1022.6456-.1405 1.35.0134 2.0163.0612.2649-.1319.4973.0285.7868.3661.6609.881 1.0672 1.6245 1.1616.2606.0331.3329.2729.5243.3825.8462.484 1.7931.659 2.7129.9162.2082.0582.4168-.0385.4085-.2637-.0283-.7674.3235-1.2354.9494-1.6757.3657-.2573.6787-.3672 1.0885-.3959.4986-.0348.7852.1776.8606.6565.0655.4163.1875.4973.538.1998.7664-.6503 1.2757-1.4124 1.547-2.4124.1507-.5555.2619-1.1505.1953-1.6371-.0989-.7231.0238-1.4303.0262-2.1255.0028-.8361-.2488-1.6504-.134-2.4844.0197-.1429-.0461-.3014-.0882-.4482-.104-.3624-.3087-.6827-.2932-1.0963.0135-.3605-.4035-.5027-.6133-.7427-.5007-.5727-.8344-1.2596-1.337-1.8209-.5077-.567-.5964-1.32-.925-1.9651-.1439-.2826-.2285-.5804-.5271-.7837-.1827-.1244-.2203-.407-.1344-.6586.3144-.9201.5954-1.8471 1.0241-2.7315.187-.3858.239-.8749.3539-1.3172.366-1.4091.7503-2.817 1.0278-4.2447.2516-1.2945.4225-2.6071.532-3.9258.0844-1.0158.2403-2.0258.3183-3.0419.0954-1.2414.2792-2.4814.1526-3.732-.0097-.0959.0072-.1757.0649-.2355.2223-.2309.2448-.4988.2197-.8049-.0138-.168.0183-.4112.2836-.4098.2175.0011.4348.0977.4438.3378.0176.4729.1898.9244.0967 1.4211-.0551.2943-.1355.6783.2991.9202.213.1185.4242.3855.3482.7789-.0615.3185.1756.6307.5032.7685.3599.1513.3745-.2534.5597-.3878.1601-.1162.0414-.4214.2837-.4439.2767-.0257.5882-.2067.8309.0526.2369.2533-.0795.4364-.1596.6215-.3365.7772-.7233 1.5328-1.0976 2.2934-.0521.1058-.1162.2311-.2105.2866-.8404.4943-.8671 1.3512-.9836 2.1681-.1563 1.0958-.2044 2.2073-.4452 3.2902-.1139.5122-.3761.9843-.3979 1.5265-.0412 1.0207-.3732 1.9772-.6952 2.9329-.1569.4656-.2956.9463-.525 1.3763-.3591.673-.4355 1.4493-.8245 2.1088-.0537.091-.1455.2103-.097.375.3988 1.354.9116 2.645 1.9407 3.6627.0935.0925.2389.1361.3223.2346.5518.652 1.1057 1.3009 1.8102 1.7979.0606.0428.1077.0751.0956.1548-.2452 1.6095-.1864 3.2448-.4343 4.8584-.0964.6272-.0247 1.2922-.0833 1.9396-.0127.1404.0471.3316.1441.4299.3535.3584.1574.7236.0277 1.0669-.3463.9166-.8273 1.7293-1.5337 2.4521-.4728.4837-.8917 1.0218-1.4393 1.4348-.0541.0408-.0951.1281-.1496.135-.7862.0997-.6079.7153-.5804 1.1767.0561.9409-.0617 1.1272-1.0007 1.2524-.1528.0204-.3038.0544-.4566.0737-.2226.0281-.4317.0785-.5012-.2597-.0479-.2333-.2877-.374-.4571-.5423-.0726-.0721-.2029-.1227-.2241-.2045-.2716-1.049-1.2419-.7586-1.9119-.9249-.565-.1403-1.1911-.1739-1.7983-.2021-.3415-.0159-.4128.0727-.4838.3289-.3028 1.0919-.5879 2.1895-.9261 3.2704-.2008.6417-.3669 1.2867-.4807 1.9473-.5018.258-1.0507.3287-1.599.4013.1189-.4169.2411-.8329.356-1.2509.2538-.9229.5136-1.8442.7527-2.7708.1951-.7559.3658-1.5181.5425-2.2787.0322-.1385.1193-.286-.1505-.3305-.4603-.076-.8498-.3276-1.2415-.6157-.2842.6159-.831.9874-1.3601 1.3328-.7116.4645-1.4862.8312-2.2933 1.1235-.3946.1429-.825.2943-1.1211.5691-.2567.2381-.406.2071-.6863.1209-.3946-.1214-.8996-.1314-1.217-.0182-.423.151-.7674.4419-1.2878.4729-.4225.0252-.7913.0993-1.1635-.1604-.1918-.1338-.4241-.3004-.6364-.2981-.8744.0094-1.6702-.3808-2.531-.4513-.3001-.0246-.6801-.1023-.9354-.2805-.66-.4606-1.176-1.0832-1.5817-1.7754-.2953-.5039-.8052-.7835-1.2654-.8747-.8702-.1724-1.6733-.65-2.593-.5839-.223.016-.3341-.2084-.3391-.3267-.0156-.3689-.3901-.6643-.204-1.0646.0304-.0654.0103-.1538-.0595-.1731-.3407-.0946-.6237.0635-.924.1987-.2802.1262-.2394.3426-.1551.5088.3409.672.1091 1.4101.2779 2.0976.0464.189-.0472.3371-.1411.4763-.1452.215-.1911.4724-.3005.6911-.2554.5105-.5278 1.019-1.0309 1.366-.3271.2256-.6688.4957-.8611.8284-.1333.2306-.4889.4797-.4163.615.1494.2784.2206.6029.4465.8513.4396.4832.4118.9744.0445 1.502-.1794.2577-.4611.2726-.6792.4286-.6042.4322-1.2638.283-1.7525-.3022-.111-.133-.2594-.4311-.5281-.173-.2182.2097-.4232.4332-.634.6505-1.1638-.0526-2.2662-.4102-3.3862-.6804-.1598-.0385-.2553-.1612-.3677-.2629-.073-.0924-.1736-.1741-.2146-.279-.4533-1.1584-1.056-2.2465-1.5964-3.3628-.3578-.7391-.84-1.4244-1.0994-2.2061-.1988-.599-.3323-.7117-.8583-.3671-.5913.3875-1.2349.6963-1.7714 1.1672-.8922.783-1.7489 1.6016-2.5149 2.5109-.3097-.011-.6179-.0263-.8219-.3141.4501-.618.8501-1.2825 1.3664-1.8391.4039-.4354.8711-.8316 1.3122-1.2366.8985-.8249 1.8471-1.5211 3.015-1.8795.2614-.0802.5975-.072.8016.1363.1828.1866.1019.4457-.0621.6539-.1083.1375-.0842.2387.0236.3999.3755.5619.8169 1.0792 1.1185 1.6933.3346.6813.8479 1.2524 1.1947 1.9354.4683.9224 1.024 1.8005 1.5593 2.7273.4212-.5248.9203-.854 1.4-1.2047.2191-.1601.3614-.2659.1701-.5945-.2407-.4137-.2825-.8495-.1347-1.387.1366-.497.5196-.6424.7645-.9605.4279-.5555 1.0497-.6111 1.6403-.2122.441.2978.6804.2333.857-.2706.0478-.1364.1183-.237.1976-.3461.4094-.5632.5595-1.2243.5074-1.8866-.067-.8524-.4318-1.6391-.7316-2.4371-.215-.5723-.6024-1.0845-.7487-1.6531-.2699-1.0486-.8106-1.9552-1.3095-2.879-.3491-.6464-.8229-1.233-1.2425-1.8438-.5418-.7884-1.1923-1.504-1.8165-2.2333-.4332-.5062-1.0838-.6653-1.5438-.4022-1.5633.8941-2.8358 2.1115-3.8678 3.5756-.1851.2627-.379.5188-.5823.7631-.2033.2444-.5425.3246-.7655.1058-.2167-.2127-.0785-.5218.1224-.7257.0845-.0857.1723-.1645.2218-.2711.4179-.9004 1.0044-1.6778 1.6722-2.4091.4953-.5423.9563-1.1115 1.5444-1.5636.1519-.1168.2988-.2942.1084-.5274-.9856-1.2074-1.7973-2.5372-2.6573-3.8315-.6269-.9435-1.178-1.9373-1.7725-2.9027-.2292-.3722-.6017-.6428-.7861-1.0473-.3309-.7257-.7245-1.4133-1.1992-2.054-.3533-.477-.5991-1.0209-.926-1.5102-.2825-.4229-.3744-.9516-.7609-1.3082-.1038-.0958-.1398-.2272-.2033-.3463-.2841-.5324-.5529-1.0805-.9046-1.5669-.2977-.4117-.7394-.8686-1.274-.6269-.5313.2402-1.1251.1417-1.6302.4871-.6923.4734-1.4625.8336-2.1163 1.3685-.4064.3325-.7054.7734-1.2102 1.0144-.6374.3042-1.049.9112-1.5812 1.3539-.9912.8246-1.997 1.6258-2.9463 2.504-.5136.4751-.5109 1.0188-.4768 1.5591.034.5395.2348 1.0742.3661 1.6074.3503 1.4227.7513 2.8365 1.2132 4.2269.4367 1.3149.8572 2.6313 1.2191 3.9691.1916.7085.55 1.374.7173 2.0862.1084.4616.2632.9081.3661 1.3684.1173.525.2913 1.0439.4647 1.5391.1944.5551.4348 1.1235.6076 1.6788.3177 1.0212.4364 2.1043.6381 3.1616-.6361-.1646-1.1048-.6346-1.6755-.9185-.1798-.0895-.3127-.2642-.5273-.2909-.3773-.7463-.3792-1.5903-.616-2.3717-.342-1.1283-.6202-2.2743-.9674-3.402-.1698-.5516-.1968-1.1577-.3928-1.7149-.3643-1.0359-.4813-2.1299-.9023-3.17-.3272-.8086-.5273-1.7164-.7666-2.584-.2172-.7874-.5622-1.539-.8366-2.3115-.3058-.8609-.6826-1.6978-.9683-2.56-.1457-.4396-.0355-1.0104.2256-1.4511.7368-1.2436 1.4966-2.4351 2.6117-3.4378 1.1822-1.063 2.4801-1.9377 3.7523-2.859.5128-.3714 1.1129-.6182 1.6373-.9949.3279-.2355.4616-.494.4914-.8626.1248-1.5453.1977-3.0907.4503-4.6299.2187-1.3327.4231-2.6754.5334-4.0298.0455-.5594.1207-1.1354.2339-1.6918.1273-.6257.0176-1.2538.1106-1.877.14-.9385.3854-1.1027 1.3089-1.2583.9768-.1646 1.8481-.6372 2.5916-1.3136.0922-.0839.1018-.2064.0496-.2812-.2387-.3422-.2898-.7633-.5964-1.1002-.328-.3604-.4329-.9138-.7113-1.3324-.2259-.3397-.2453-.7263-.3149-1.0773-.1751-.8821-.5217-1.7211-.6711-2.5946-.1795-1.0499-.5327-2.0618-.6146-3.134-.046-.6025-.282-1.1882-.3626-1.7909-.1349-1.009-.3223-2.0113-.3336-3.0379-.0094-.85-.0905-1.7035-.1663-2.5472-.0951-1.0595-.1006-2.1112-.0895-3.1684.0089-.8467-.0001-1.6939.026-2.5401.025-.8097.0891-1.6181.1286-2.4274.0693-1.4207.3431-2.8205.4115-4.243.0418-.8703.2883-1.7191.3868-2.5893.1213-1.0713.4985-2.0956.7543-3.1415.3741-1.5296.8553-3.0309 1.5395-4.4697.3726-.7836.5713-1.6743.9315-2.459.3574-.7787.6789-1.6586 1.4456-2.1929.2654-.1849.4216-.4237.4004-.7272-.0463-.6632.2835-1.2352.4244-1.8499.2735-1.1935.6042-2.3797 1.0087-3.5349.1792-.5119.412-1.0291.6845-1.5088.5772-1.0163 1.0738-2.0726 1.6083-3.1101.7778-1.5097 1.8811-2.7772 3.05-3.9953.7754-.808 1.5523-1.6439 2.4751-2.2469.6491-.4242 1.3225-1.0698 2.2922-.8078.3086.0834.5853.1566.8118.3736.9924.9504 2.2109 1.4977 3.4812 1.9475.3071.1087.5543.3172.8705.4204.7013.2288 1.356.3547 2.1341.2364 1.0105-.1537 2.0572-.1926 3.088-.2156.8663-.0193 1.7187-.1327 2.5704-.2351 1.0535-.1267 2.1021-.0987 3.1554-.1202.7946-.0162 1.5931-.0934 2.3891-.0773.9729.0197 1.9467.0755 2.916.1615.7869.0698 1.5748.1359 2.3552.2911.7512.1494 1.4948.3244 2.2361.5118.7873.199 1.579.3864 2.3541.6264.9183.2844 1.8408.5728 2.7227.9501.5455.2333 1.1472.2558 1.6662.5504 1.5857.9004 3.2968 1.5427 4.9163 2.3775.6913.3564 1.3807.7069 2.0456 1.111.2339.1422.5121.2684.7785.2881.5156.0381.6579-.424.8036-.7823.2173-.5342.6414-.7034 1.1409-.8241.5253-.1269.8048.1144.9767.571.0351.0932.0705.2228.1438.2595.7328.3668.9714 1.1423 1.46 1.7065.3977.4593.618 1.0091.9669 1.489.3194.4393.5229.9717.7279 1.483.2933.7316.53 1.4847.8254 2.2174.1421.3525.104.7746.2251 1.1394.213.6415.122 1.2954.0814 1.9291-.0406.6321-.2761 1.2515-.4238 1.8771-.0598.2535-.03.5304-.3012.7109-.1726.1148-.0808.2681.0515.3818.3548.305.4912.7007.6175 1.1509.247.8799.322 1.7457.1244 2.632-.0501.2247-.021.3463.2098.4302.374.1359.3472.5793.6158.8328.6445.6083 1.1051 1.3885 1.3598 2.2206.3009.9834.3037 2.0379.4642 3.0565.1622 1.0295.0718 2.0438.0336 3.0733-.0373 1.0022-.2865 1.9704-.2966 2.979-.0077.7667-.3242 1.5391-.5586 2.2917-.1654.5313-.3152 1.0735-.4547 1.6051-.1956.7456-.6564 1.2857-1.0915 1.8514-.2333.3033-.3382.6304-.4855.9635-.3617.8181-.4962 1.6956-.6161 2.5485-.1205.8572-.2509 1.7086-.4273 2.5555-.1073.5152-.1906 1.0341-.2519 1.5587-.0359.3076.0816.5414.2715.668.3945.2628.7657.5789 1.1772.7918.8988.4651 1.7151 1.1016 2.7133 1.3674.3092.0823.2699.3263.2454.5401-.2313 2.0229-.357 4.0526-.437 6.0868-.07 1.7811-.0733 3.5571.1601 5.3288.2163 1.642.1205 3.2981.1964 4.9466.032.6945-.0049 1.3943.0628 2.0845.1238 1.2629.0226 2.5357.1523 3.7901.1174 1.1356.1242 2.2741.2191 3.409.0509.609.1399 1.206.2134 1.8077.0621.5087-.0493 1.0542.0526 1.5719.182.9247-.0112 1.8549.1339 2.7974.1474.9572.2532 1.9967-.0184 2.9552-.1876.6621-.2938 1.3434-.5568 2.0073-.3826.9659-.9753 1.7977-1.4509 2.6886-.6293 1.1789-1.2204 2.4865-2.5092 3.1548-.4472.2318-.9819.2969-1.4791.4287-.1293.0343-.2697.0246-.4022.05-.4137.0792-.6128.1568-.5331.7481.1305.9685.3954 1.913.4984 2.8653.089.8232.2928 1.6038.4607 2.3979.1544.7304.3921 1.4432.5932 2.1638-.5237.169-.8959.6541-1.475.7075-.0755-.4802-.3156-.9385-.3737-1.3905-.09-.6998-.4343-1.3242-.4706-2.0218-.0077-.1469-.0224-.274-.1571-.3524-.2007-.1167-.2196-.2641-.1392-.4767.044-.1162.0221-.2754-.0155-.4016-.3899-1.3079-.4768-2.6673-.6817-4.006-.14-.9147-.1152-.9306-1.0342-1.0798-.472-.0767-.8539-.346-1.2601-.55-.3067-.1541-.1384-.5043-.0698-.7438.0715-.2495.3083-.1431.483-.0839.8267.2805 1.6523.4715 2.5461.3265.3483-.0565.738.0103 1.1017.0356 1.2395.0863 1.9474-.6466 2.6097-1.5202.4373-.5768.9154-1.1226 1.3749-1.6826.0325-.0396.0703-.0784.0905-.1243.3347-.7596.7678-1.4946.9701-2.2882.1851-.7258.1442-1.5149.1579-2.2769.0119-.665.0232-1.3305.0005-1.9977-.0406-1.1896-.149-2.3727-.2341-3.5584-.0556-.7748-.0711-1.5532-.147-2.3258-.1163-1.1835-.3525-2.3614-.3826-3.5456-.0284-1.1169-.0921-2.2341-.189-3.3402-.1221-1.3936-.1948-2.7917-.3371-4.1846-.1225-1.1989-.1278-2.4118-.1435-3.619-.0153-1.1755-.0438-2.35-.073-3.525-.0305-1.2273.245-2.4558.1307-3.6816-.0682-.7311.0076-1.4835.1187-2.1461.216-1.2878-.7558-1.4286-1.4179-1.7181-.585-.2559-1.0447-.6702-1.6083-.9287-.3422-.1569-.6861-.3351-.9786-.5674-.2327-.1848-.2735-.5356-.1722-.7861.3052-.7544.4101-1.5593.6383-2.3323.2647-.897.3614-1.8392.437-2.7776.0224-.2783.1577-.5456.212-.8237.104-.5331.1988-1.0687.2732-1.6067.03-.2174-.142-.3778-.3271-.3949-.229-.021-.499.1107-.473.3596.0361.3462-.2988.6306-.1155.9859.0254.0493-.0327.19-.0909.2263-.5072.3169-.4073.8105-.3722 1.2743.0268.3533-.1506.6822-.2695.9467-.3058.6799-.5021 1.3981-.8095 2.0718-.495 1.0849-1.3959 1.6412-2.5413 1.8199-.4139.0646-.8934-.0251-1.2491.0571-.7826.1807-1.6854.0345-2.3339.4517-.7328.4713-1.6241.7455-2.1695 1.5121-.3966.5575-1.0477.7874-1.6455 1.0353-1.042.4321-2.1015.8345-3.1812 1.1575-.4309.1289-.935.0008-1.4052.0129-.9591.0247-1.7721-.375-2.5254-.8979-.1732-.1202-.303-.1967-.4914-.1536-.8161.187-1.6276-.0639-2.4343-.0254-.9868.0471-1.9759.1039-2.9614.2455-1.0835.1556-2.2629.6463-3.2598.1256-1.0305-.5381-2.1215-.7996-3.1826-1.1868-1.7901-.6533-3.5883-1.2877-5.4024-1.8698-.4345-.1394-.9265-.1413-1.3891-.244-.6523-.1448-1.3167-.3178-1.9773-.3237-1.1991-.0105-2.3163-.4372-3.4831-.6074-1.2614-.184-2.525-.4477-3.7933-.6416-.4468-.0683-.9102-.1042-1.3583-.0657-.3991.0342-.8413.0755-1.1872.0135-.5697-.102-1.1593-.2154-1.7161-.3962-.3567-.1158-.408-.6564-.1572-.9899.0728-.0968.1738-.1935.1347-.3184-.2032-.6496.06-1.2479.2324-1.839.255-.8741.1287-1.7546.1498-2.6321.0273-1.1333-.0741-2.2641-.0464-3.4012.0218-.8931-.1636-1.7935-.2817-2.6874-.1449-1.0965-.2028-2.2063-.4526-3.2864-.0789-.3412.1154-.6256.0926-.9523-.0183-.2618.078-.5221-.0114-.797-.0589-.1811.0205-.4119.1611-.5209.7072-.5485.9948-1.4359 1.6722-2.0104.6893-.5846 1.3549-1.1988 2.0093-1.8226 1.0122-.9648 2.0504-1.8818 3.2242-2.6641.5268-.3511 1.1702-.7611 1.1852-1.6213.0215-1.2292.0482-2.455-.0114-3.6848-.0264-.5458.4794-.7947.8874-.9732.9485-.4148 1.7606-.9947 2.4571-1.7501.0113-.0122.0139-.038.0263-.0428 1.0146-.396 1.6062-1.3027 2.3937-1.9734.6336-.5395 1.2153-1.1348 1.874-1.65.4412-.345.9985-.3991 1.4391-.727.1719-.1279.3786-.2219.5334-.3813.1324-.1364.2406-.2844.4735-.155.1229.0682.2475-.0315.3763-.0861 1.0776-.4561 2.2259-.6713 3.3769-.6693.4999.0009 1.0374.2699 1.5605.4079.1097.0289.2616.1552.3238.0194.314-.6854 1.0631-.6934 1.5931-1.0345.6653-.4282 1.366-.8858 2.136-1.0326.7344-.1401 1.4367-.418 2.2493-.3624.6358.0435 1.3529-.043 2.0187-.1929 1.1975-.2696 2.3793-.0792 3.5633.1096.3675.0586.7476.1288 1.1118.0922.345-.0347.5647.2034.8656.2625.5758.1132 1.1867.2491 1.6776.5484.8702.5306 1.7364.356 2.6195.193.8992-.166 1.7966-.3288 2.7157-.2807.7756.0406 1.4493.3864 2.1393.7043.5635.2596 1.213.3394 1.7306.6921.4847.3303.8586.2095 1.3084-.0637.2956-.1796.5817-.0965.8874.2173.345.3541.5931.6743.5732 1.1713-.0013.0331.0315.0797.0182.0984-.6381.8983.4743 1.2789.5903 1.9596.0406.2381.1824.4814.4951.5947.219.0793.3757.3303.6166.5579-.0265-.5296-.2168-.9872-.3407-1.4216-.372-1.3041-1.0197-2.5034-1.8154-3.6014-.4511-.6224-.9977-1.1767-1.3706-1.8579-.1305-.2385-.243-.0899-.3595-.0003-.3527.2713-.6213.6288-.9653.9155-.4937.4114-.9892.4452-1.4251-.0185-.7676-.8165-1.7446-1.2495-2.7786-1.6232-.6104-.2206-1.1575-.6113-1.7454-.9003-1.0333-.5079-2.1094-.9121-3.1952-1.2947-.8294-.2922-1.6302-.6683-2.4889-.8746-1.3285-.3193-2.6391-.7052-3.9759-1.0001-.7848-.1731-1.5651-.4296-2.356-.5755-1.4369-.2651-2.8711-.5523-4.3487-.5846-1.134-.0248-2.2617-.0795-3.4009-.0556-1.3597.0285-2.7027.162-4.0193.4212-.6898.1358-1.4741.1935-2.0273.8466-.2957.3491-.8246.0989-1.2244.0098-1.8173-.4052-3.6496-.7789-5.3305-1.6255-.6959-.3505-1.3706-.7464-2.0371-1.1511-.4994-.3033-1.0301-.5367-1.5536-.788-.4027-.1933-.6616.1548-.8783.3325-.5237.4296-1.0618.8616-1.5721 1.3004-.6487.5578-1.1955 1.1947-1.8031 1.7796-.6749.6496-1.3341 1.3744-1.6844 2.2019-.4333 1.0237-1.0437 1.934-1.5191 2.9228-.108.2246-.0323.4572-.1082.6946-.5115 1.6-1.1052 3.1813-1.3514 4.8528-.1471.9991-.341 1.9871-.246 3.023.0702.7656.1654 1.5357.1828 2.306.0225.9944-.0218 1.9902-.0102 2.985.0071.6085.0596 1.2167.1058 1.824.0073.0967.0845.1864-.0074.2805-.1262.1292-.1419.2431.0662.2889.193.0424.2089-.0908.2383-.2399.1892-.9575.3744-1.9086.4894-2.8855.1347-1.1445.2439-2.2917.2734-3.4351.0306-1.187.2444-2.3517.3085-3.5356.1051-1.9422.6683-3.8166 1.6306-5.5596.4086-.7401.7788-1.5029 1.2477-2.2085.2329-.3504.4959-.6834.7692-1.0039.625-.7328 1.2577-1.4593 1.9009-2.1762.5068-.5649 1.1184-.9776 1.8039-1.3208.8571-.4292 1.5225-.2147 2.287.2738.6424.4105 1.4311.6052 2.1714.8447.4525.1464.893.3127 1.3143.5253.3043.1536.4014 1.0909.131 1.3178-.3874.3249-.7963.6224-1.2242.8984-.2873.1853-.4956.4863-.763.7184-1.1822 1.0262-2.3029 2.1246-3.5035 3.1278-.9293.7765-1.8871 1.5301-2.6739 2.442-.6986.8097-1.5925 1.4367-2.1507 2.3845-.1621.2752-.4776.5105-.74.7457-.3512.3149-.5776.6725-.4466 1.1688.0732.2771-.0482.5384-.0625.8078-.0499.9386-.0518 1.8816-.1462 2.8154-.0985.9742-.1571 1.9673-.3567 2.9132-.1939.9188-.4921 1.8435-.9015 2.7151-.3532.7518-.6615 1.5253-.9741 2.2954-.1489.3669-.4655.5889-.717.8575-.4984.5323-1.0471 1.0186-1.5879 1.5096-.1525.1385-.3761.2528-.5648.1104-.2769-.209-.7158-.3041-.749-.7054-.0134-.1614.2329-.3713.3991-.515.3683-.3182.417-.7186.5017-1.1733.0683-.3662.1145-.7589.2377-1.1281.2861-.857.3868-1.7749.3173-2.6473-.1123-1.409-.0799-2.8192-.1032-4.2239-.0113-.6824-.478-1.2802-.2088-1.9789-.4883.506-.7076 1.1188-.9132 1.74-.1805.5454-.3548 1.0915-.5591 1.6304-.4367 1.1521-.775 2.3418-1.2166 3.4919-.3815.9938-.7589 2.0049-.9391 3.0352-.2489 1.4227-.5897 2.8323-.7163 4.282-.0838.9598-.3685 1.903-.4144 2.8741-.0518 1.0977-.216 2.1844-.2619 3.2854-.0348.8331-.0802 1.675-.1583 2.5112-.0583.6237.0786 1.2652.1235 1.8991.0454.6406.1057 1.2811.1213 1.9225.0218.8945.1695 1.763.3215 2.6441.1356.7862.3369 1.5706.3935 2.3738.0481.6824.2408 1.3283.4627 1.9755.0965.2815.0683.6167.1453.9293.3955 1.6047.7571 3.2261 1.5851 4.6733.3258.5694.6883 1.1321 1.0823 1.6634.4034.544.3302.9832-.2107 1.4279-.9846.8094-2.0858 1.4086-3.2635 1.8674-.5301.2065-.5546.676-.5785 1.0772-.057.9577-.2331 1.8952-.3879 2.8352-.1564.9498-.1637 1.9141-.349 2.8612-.2006 1.0258-.3434 2.0631-.5045 3.0964-.0934.5992-.0568 1.2116-.1915 1.8094-.0425.1888.069.2161.2847.1685.5311-.1173 1.02-.3546 1.5609-.4565.6887-.1298.7317-.3418.8365-1.1764.1519-1.2098.3754-2.41.6146-3.6075.247-1.2366.5357-2.4652.604-3.7368.0415-.7723.2042-1.5432.371-2.3018.1104-.5021.4288-.7642.9846-.9484.8626-.2859 1.7641-.5642 2.5201-1.1018.3196-.2273.6861-.2859 1.0159-.4577.2546-.1327.5217-.1446.542-.57.0168-.3498.4505-.2825.7235-.3366.2288-.0453.3322.1073.4187.2934.2271.4885.3134 1.0087.4343 1.5284.1186.5101.4115 1.012.7347 1.4362 1.0498 1.3775 2.2363 2.6111 3.655 3.6435.8072.5874 1.7443.9466 2.5 1.5964.0995.0856.2295.1369.3327.0787.5403-.3045 1.1688-.0502 1.7433-.3444.5351-.2741 1.079-.5523 1.6283-.8087 1.5361-.717 3.0863-1.4225 4.5476-2.2753 1.0868-.6343 2.2456-1.1335 3.3005-1.8401.4394-.2943.7503-.5178.8952-1.0242.0782-.2733.4179-.3966.6703-.3619.2929.0403.5908.2304.4991.6207-.1658.706.1012 1.3822.1627 2.0648.0729.8087.5558 1.511 1.0594 2.1721.6185.8118 1.3573 1.487 2.1669 2.0917.4864.3633 1.0934.3946 1.6579.5185.4091.0897.8394.1056 1.2219.2862.2106.0994.2664.0913.3541-.1432.2833-.7577.4925-1.5363.7223-2.3097.4375-1.472.9605-2.9172 1.6784-4.273.5009-.946 1.2999-1.6655 2.0782-2.4023 1.0257-.971 2.2378-1.5768 3.5238-2.0775.8956-.3487 1.7943-.6688 2.7331-.913 1.1671-.3036 2.3178-.6939 3.5026-.9211 1.4675-.2814 2.9477-.5756 4.4557-.2997.3352.0613.6419-.0958 1.0044.0153.9535.2921 1.7099.8489 2.2937 1.6079.55.7151.9945 1.494 1.0862 2.4517.0802.838.2797 1.6694.4888 2.4878.0858.3357.3297.6336.2477 1.0106-.0503.2314-.0724.5583-.3261.5889-.2502.0302-.5574-.106-.6712-.3823-.3152-.7649-.8257-1.4433-.9544-2.2942-.0643-.4254-.2124-.8453-.4787-1.2079-.2661-.3622-.118-.8195-.2993-1.2347-.3384-.7751-1.4399-1.5935-2.2913-1.6749-.6248-.0598-1.2644-.0639-1.8599-.0149-.6306.0519-1.3825-.0984-1.8904.2643-.4071.2907-.784.1142-1.1302.2539-.8134.3283-1.6938.3326-2.5275.6096-.741.2462-1.4812.5559-2.2755.6766-.5886.0894-1.0393.5468-1.5862.7804-1.1915.5089-2.1409 1.3609-2.904 2.3784-.4245.566-.7691 1.2065-1.0935 1.8577-.4024.8078-.7366 1.6323-1.0052 2.4801-.2055.6488-.2563 1.3518-.5198 1.984-.2938.705-.4259 1.4494-.5747 2.1824-.2108 1.0388-.6447 2.0037-.8895 3.0293-.147.6161-.4279 1.1991-.5986 1.8109-.2943 1.0555-.8266 2.0342-1.0051 3.124-.0488.298-.3116.4314-.4322.6795-.5938 1.2214-1.1868 2.446-1.8539 3.6278-.3042.539-.5939 1.0926-.9206 1.6232-.2887.4688-.5732.9595-.8205 1.4541-.3246.649-.8764 1.0796-1.3121 1.6167-.7657.9439-1.5835 1.8459-2.3861 2.7596-.4141.4714-.839.9334-1.2665 1.3927-.1261.1355-.3293.2302-.1275.4545.0293.0326.0555.114.0377.1362-.5503.684-.2937 1.5623-.5398 2.3384-.2635.8311-.728 1.5993-.8619 2.4497-.0894.568-.4705 1.0114-.5005 1.5766-.3729.4024-.4902.9635-.8537 1.3757-.0723.082-.1821.2848-.024.3564.1987.09.1603-.1549.2278-.2527.3176-.4593.6357-.9184.9534-1.3776zm-13.7103-86.3394c1.1173-1.0592 2.2188-2.1359 3.3616-3.1668.3414-.308.6246-.6521.9334-.9739.3289-.3426.7391-.6633 1.1496-.9267.5552-.3564.8889-.9374 1.4846-1.2638.4801-.2631.841-.7437 1.2605-1.1331-.5777-.3605-1.283-.2625-1.7438-.7381-.2885-.2978-.721-.3506-1.0155-.6219-.159-.1464-.2516-.0729-.3907.0136-.3917.2437-.6278.6429-.9572.9361-.426.3793-.8837.7236-1.242 1.1711-.4264.5325-.9477.9669-1.2868 1.5979-.5105.95-.8625 1.9463-1.1244 2.9729-.174.6822-.5823 1.3087-.5186 2.05-.0739.0382-.1673.0934-.0813.1743.0855.0803.1376-.0133.1706-.0916zm38.744 29.5766c-.3207.1791-.6354.3878-.9763.5368-.4359.1905-.7414.6415-1.2272.6879-.7032.0672-1.3082.4495-2.0128.535-.4125.0501-.8431.0842-1.2537.1301-.4963.0554-.9732.2072-1.4909.223-1.2077.0368-2.3923-.1255-3.5849-.21-.3563-.0252-.9127-.1171-1.0198-.2802-.226-.3439-.5384-.3695-.8194-.5232-.1935-.1059-.471-.1937-.5429-.3616-.231-.5392-.3014-1.131-.5049-1.692-.2365-.652-.2762-1.3753-.4026-2.0674-.0246-.1346-.0407-.3088-.1967-.3275-.1669-.0201-.2946.1273-.3227.2737-.1068.5553-.5031.3442-.7955.2866-.2992-.0589-.5399-.2118-.5955-.594-.0945-.6498.3867-.988.7232-1.3648.5873-.6578 1.1507-1.334 1.7044-2.0181.6216-.768 1.3291-1.4458 2.0725-2.0909.2047-.1776.4085-.1307.615-.018.0764.0417.1661.1326.0904.2004-.2932.2623-.2473.6581-.4123.9729-.4538.8657-1.0572 1.6241-1.6563 2.3844-.3688.468-.5156.9515-.2205 1.4874.1501.2725.2308.5708.376.8388.4684.8644.3104 2.0495 1.3424 2.6297.049.0275.0556.1578.0554.2402-.0005.2109.1179.2577.3012.3316 1.0513.4237 2.1607.3913 3.2482.3745 1.1318-.0175 2.2584-.2111 3.3719-.442.2164-.0449.4402-.0344.6513-.1293.7237-.3254 1.5037-.5279 2.1252-1.0689.3774-.3285.857-.5192 1.2712-.785 1.0508-.6745 1.9071-1.5983 2.7642-2.5036.1776-.1876.4194-.4743.3304-.702-.1375-.3518-.523-.242-.8225-.186-.4374.0818-.8187.0122-1.1084-.3479-.0704-.0875-.1605-.1046-.2509-.1483-.6776-.3274-1.4094-.5572-1.6656-1.4359-.0698-.2393-.106-.3511-.0184-.5857.1041-.2789-.2076-.6468-.1306-.8533.2606-.6994-.2128-.6366-.6036-.7035-.8433-.1445-1.6052-.9497-1.8204-1.7601-.1622-.6109.2878-.9749.4283-1.4586.0878-.3022.1892-.6239.5317-.7683 1.1524-.4858 2.3595-.3463 3.558-.323.6614.0128 1.3233.0023 2.1296.0023-.8071-.8893-1.5117-1.6131-2.0202-2.5036-.3744-.6556-.5935-1.3505-.7779-2.072-.1368-.5353.0229-1.1055-.2287-1.6231-.0647-.1332.0228-.2166.157-.2651.4148-.1498.6297.0783.7091.4259.1289.5645.3177 1.0954.5815 1.6136.3548.697.7832 1.3416 1.2525 1.9604.3805.5018.8431.9194 1.3303 1.3259.6137.5119 1.2945.6751 2.0495.6522.9951-.0302 1.9005-.5047 2.8859-.6037.2257-.0227.4552-.0577.6471.0331.7628.3607 1.2635 1.4619 1.0191 2.2689-.1705.563-.2439 1.1655-.6114 1.6593-.1225.1646-.1051.3533-.0409.5412.2333.6823.1069 1.3921-.2091 1.9516-.7668 1.3576-1.9268 2.2704-3.5366 2.4509-.4353.0488-.7677.3558-1.2044.3823-.1479.009-.1685.1827-.1951.3249-.063.3366.5471 1.4293.9856 1.6789.8309.4729 1.4825 1.1947 2.4428 1.5157.7478.2499 1.5109.1022 2.2325.3386.0111.0036.0286-.0191.0447-.0227.6438-.1458 1.2776-.3644 1.9565-.1813.2574.0694.4305-.066.4748-.3337.169-1.0215.7664-1.8953.9766-2.9108.1739-.8404.4348-1.6693.4966-2.5249.0756-1.047.3131-2.0635.0805-3.1612-.2231-1.053-.0159-2.1848-.2693-3.2728-.1656-.7114-.2345-1.4083-.7616-2.0144-.9194-1.0574-1.9661-1.7611-3.405-1.8568-.7005-.0466-1.4167-.206-2.0459-.5116-.5223-.2537-1.0952-.5604-1.2393-1.2374-.1426-.6698-.2228-1.3074-.0286-2.0185.3201-1.1717.6907-2.2944 1.3849-3.3034.2356-.3424.96-.7249 1.3632-.6229.1237.0313.2355.0858.2276.2331-.0167.3105.0362.6381-.2384.8873-.0701.0636-.2749.0745-.169.2502.0721.1196.2253.0531.3223.0936.4598.1921.9441-.0283 1.4043.1105.4255.1284.5872-.0156.5151-.4572-.1013-.6211-.1325-1.2649-.5518-1.7908-.0327-.0411-.0383-.1455-.009-.1872.1401-.1992-.0129-.2802-.1118-.4258-.2675-.394-.6922-.655-.9255-1.056-.3568-.613-.793-1.1131-1.4275-1.4447-.4531-.2368-.7413-.6812-1.1916-.9553-.3025-.1841-.5993-.4523-.9303-.565-.8414-.2866-1.6474-.6523-2.5993-.6241-1.0128.03-2.0337-.0644-3.0344.136-.9257.1853-1.8165.2534-2.658-.2819-1.2488-.7944-2.7113-1.0159-4.1009-1.1312-1.2026-.0998-2.4716-.1892-3.7224.2254-.7777.2578-1.6479.2836-2.4455.5966-1.1383.4466-2.2553.9329-3.103 1.8352-.3658.3893-.6935.3226-1.0957.1935-.3229-.1036-.5532-.3701-.919-.4237-.6669-.0977-1.3124-.1736-2.0025-.1483-.8826.0324-1.6866.2513-2.4947.5226-.561.1884-1.02.5825-1.5624.8299-.5761.2628-1.1741.618-1.4956 1.1882-.1938.3436-.4288.7068-.7.8765-1.055.6597-1.8501 1.6416-2.9309 2.2606-.7404.424-1.3654 1.0343-2.1771 1.351-.2322.0906-.2904.3074-.2492.5584.0637.3884.004.7894.035 1.1692.0514.6286-.118 1.2513.0191 1.8768.0812.3705.1602.7588.1322 1.1309-.0279.3696-.1276.7574-.5918.8929-.5104.1489-.9367.4732-1.3513.7866-.8076.6106-1.6061 1.2279-2.3698 1.9035-.9623.8514-1.9309 1.6942-2.7931 2.6415-.6119.6723-1.2283 1.3729-1.0601 2.4403.054.3428.0683.7265.0522 1.1022-.0391.9148.0928 1.8378.1693 2.7564.0324.3886.1723.7835.1905 1.1484.037.7429.0367 1.4948.085 2.2388.0203.313-.1138.6005-.0649.8934.147.8805.062 1.7629.0644 2.6449.001.3862.109.7916.0236 1.1542-.1485.6306-.1097 1.2695-.2037 1.8981-.0342.2286.0487.276.2638.3085 1.056.1596 2.1179-.0122 3.183.1185 1.1315.1388 2.2629.3003 3.3958.4339.8073.0952 1.5877.3846 2.4041.5271 1.8151.3168 3.5889.8474 5.3576 1.3734 1.7195.5114 3.3596 1.2359 5.0164 1.9115.3666.1495.8209.1359 1.0919.3459.7366.5706 1.5981.7258 2.432.6979 1.3041-.0437 2.6102-.2049 3.9151-.1454.6882.0314 1.3791-.1305 2.0641.0456.1605.0413.37.0399.4816-.094.1105-.1326-.0142-.2795-.0908-.4134-.1608-.2812-.0794-.5283.1498-.7284.2192-.1913.4905-.3329.7392-.1107.3197.2856.6407.5953.8666.9541.3121.4958.7912.8277 1.2848.778.9068-.0912 1.8134-.0462 2.7353-.2464 1.3563-.2946 2.4335-1.0709 3.6261-1.6388.7573-.3606 1.2089-1.2288 2.1165-1.4013.1171-.0223.198-.1152.2533-.2355.0401-.0872.1366-.2214.1958-.2153.5304.0542 1.0352-.1977 1.5746-.0892 1.018.2048 2.0157.0233 2.944-.3814.7208-.3142.9335-1.0778 1.1905-1.754.1461-.3846.2735-.7793.379-1.1816.0649-.2477.1768-.5189.276-.7736.1679-.431-.2176-.946.2366-1.3318.0364-.0309.1063-.6461-.2475-.6503-.4174-.0051-.8086-.1125-1.2193-.19-.0321.2386.1582.3758.0558.6163-.3004.7058-.5054 1.452-.8015 2.1599-.1551.3708-.0461.879-.5028 1.1007-.5409.2626-.9932.0128-1.3896-.3226-1.2246-1.0361-2.6554-1.6535-4.1532-2.1739-.5784-.2009-1.2419-.3827-1.5169-1.0989zm-47.298 31.6652c-.1243.4691.2437.5824.5277.7787.2214.1531.447.2297.605.5707.2325.5019.2411 1.1122.6606 1.5289.0572.0568.1204.1263.1392.2005.2956 1.167 1.151 2.0546 1.5682 3.1692.2263.6044.6141 1.16.9245 1.7348.5235.9693 1.1346 1.8852 1.6837 2.8361.6894 1.1939 1.5261 2.3046 2.175 3.531.3783.7148 1.0423 1.2161 1.4803 1.8905.0612.0942.1735.1206.2755.1061.4521-.0646.8718.0967 1.2856.2164.518.1498 1.0904.2896 1.4244.7405.2852.385.5467.7937.8358 1.1792 1.0241 1.3652 1.9139 2.8182 2.8311 4.2547.345.5403.6298 1.1056.9433 1.6586.4671.824 1.105 1.5498 1.4253 2.4608.036.1023.0786.1951.2052.1908.1227-.0042.1563-.1044.2072-.1964.2167-.3922.2374-.8517.3904-1.2463.3747-.9663.8617-1.8917 1.3397-2.8148.5273-1.0182.9005-2.1012.9153-3.2283.0128-.9754.3315-1.8349.6268-2.7161.0743-.2217.1893-.4732.4207-.6275.8049-.5367 1.47-1.2288 2.1367-1.9216.1425-.1481.1674-.3434.3422-.4876.5796-.4784 1.0807-1.0457 1.5464-1.635.3584-.4535.6652-.9482.9878-1.4294.5114-.7627.9173-1.5835 1.2945-2.4178.4044-.8944.8353-1.7753 1.1791-2.6989.4081-1.0963.9626-2.1418 1.3195-3.2525.3769-1.173.8371-2.3113 1.2527-3.4676.1935-.5385.049-.8831-.4416-1.1704-.4543-.2661-.9451-.4558-1.387-.7525-.6776-.4551-1.3305-.9421-1.9527-1.4642-.6829-.5729-1.3669-1.15-1.8578-1.9221-.2079-.327-.1887-.7106-.3751-1.03-.4059-.6955-.7189-1.4282-.8264-2.2311-.0351-.2625-.1647-.2858-.344-.1903-.6526.3475-1.3119.6862-1.9411 1.073-.5639.3466-1.1228.7281-1.6941 1.0355-1.7784.9569-3.5687 1.8946-5.3595 2.8299-.6806.3554-1.4221.57-2.2063.5628-.22-.002-.5384-.0194-.598-.1862-.163-.4562-.5671-.5055-.9078-.6404-1.5458-.6121-2.965-1.4538-4.1703-2.5794-1.3331-1.245-2.6576-2.53-3.3197-4.3094-.0586-.1575-.1868-.3117-.3958-.1675-.8877.6127-1.8929.9839-2.8622 1.4331-.3123.1447-.7454.1704-.8681.6839-.3661 1.5328-.5104 3.0983-.7596 4.6477-.1286.7995-.1648 1.6192-.2976 2.4118-.1708 1.0181-.2017 2.0475-.3847 3.0581zm48.5259-41.1152c-.1797.6099.1243 1.1823.1392 1.7829.0056.2275.1575.3408.4186.4153.4889.1394.9937.149 1.4852.2399.6751.1248 1.3786.0394 2.0652-.1088.5939-.1282 1.076-.4779 1.6064-.7311.907-.4329 1.1249-1.2338 1.1706-2.1522.0206-.4136-.3229-.5084-.5008-.7465-.1895-.2537-.1942-.4866.095-.6366.3286-.1704.6529-.3595 1.0253-.4365.1608-.0332.396-.0668.3917-.2581-.0063-.2791.1513-.4854.2192-.7281.1213-.4337.0004-.6052-.4574-.5735-.1673.0116-.3465.0388-.4944.1116-.6767.333-1.4404.3534-2.1509.6031-.6478.2277-1.4593.1333-2.1988.1862-1.2021.0859-2.4064.1555-3.6109.1895-.5869.0166-1.1233.2723-1.7225.2508-.4894-.0176-.4481.4882-.5263.8119-.0584.242.1578.4759.3407.5086.4152.0742.8098.2346 1.254.2162.9274-.0383 1.8576.0692 2.7867-.0556.2777-.0373.5074.1886.5825.4061.0689.1998-.2218.3992-.3685.4166-.5333.0633-1.0208.3761-1.5498.2883zm7.6361-13.5886c-.0477.2601-.111.4589-.1161.6592-.0173.6774-.4375 1.3778.006 2.0241.248.3615.2542.9699.8 1.0472.7816.1106 1.5591.2203 2.3285.4052.3442.0827.545-.1554.5639-.4969.0189-.3416.0041-.6851.0041-1.0278-.3368.4857-.6906.52-1.1757.2949-.3453-.1603-.6626-.38-1.0556-.4723-.205-.0482-.4475-.3507-.3742-.658.0598-.2504.2192-.426.5216-.4921.534-.1168 1.0371-.0526 1.5791.1652-.4698-.888-1.2726-1.1921-2.1027-1.3194-.2951-.0452-.639.0317-.9789-.1293zm-24.4479 86.7053c0 .0685-.0077.1381.0014.2053.0343.2536-.0896.6208.2965.667.3774.0451.3946-.314.4489-.5728.1548-.738.3464-1.4648.5946-2.1772.1043-.2994.1086-.6141-.2392-.7369-.3403-.1201-.4979.1706-.5956.4246-.271.7043-.4858 1.4256-.5066 2.19zm-15.293 3.8013c-.0099-.0462-.0132-.1543-.0557-.244-.3446-.7276-.9365-1.2977-1.2923-2.022-.0792-.1613-.3014-.1895-.4519-.0602-.1589.1365-.3884.2904-.2352.5488.4175.7042.8467 1.4019 1.2876 2.0917.1193.1868.343.2481.5481.175.1803-.0643.2079-.254.1994-.4893zm5.579-7.7051c-.0002.182.053.357.2841.3978.1991.0351.3411-.0708.3915-.2514.1894-.6791.4925-1.3041.8465-1.9105.1335-.2286.1129-.4728-.1319-.6304-.2609-.168-.4675-.023-.6138.1811-.4684.6531-.6987 1.3959-.7764 2.2134zm26.6778 3.6018c0-.5292.0098-1.0586-.0045-1.5874-.0063-.2334-.094-.4522-.3744-.4719-.279-.0196-.4092.1871-.443.4128-.0889.5933-.0887 1.1928.0096 1.7855.0477.2877.2561.4768.5445.4232.2674-.0497.3446-.3038.2678-.5622z" fill="#0c0d0d"/><path d="m37.7384 128.7717c-.2016-1.0573-.3203-2.1404-.6381-3.1616-.1728-.5553-.4132-1.1237-.6076-1.6788-.1734-.4952-.3473-1.0141-.4647-1.5391-.1029-.4604-.2576-.9068-.3661-1.3684-.1673-.7121-.5256-1.3777-.7173-2.0862-.3619-1.3378-.7824-2.6543-1.2191-3.9691-.4618-1.3904-.8629-2.8043-1.2132-4.2269-.1313-.5332-.332-1.0679-.3661-1.6074-.0341-.5403-.0368-1.084.4768-1.5591.9493-.8782 1.9551-1.6794 2.9463-2.504.5323-.4428.9439-1.0497 1.5812-1.3539.5048-.2409.8038-.6819 1.2102-1.0144.6538-.5349 1.4241-.8951 2.1163-1.3685.5051-.3454 1.0989-.2468 1.6302-.4871.5346-.2417.9763.2152 1.274.6269.3517.4864.6205 1.0345.9046 1.5669.0635.119.0995.2505.2033.3463.3865.3566.4784.8853.7609 1.3082.3269.4893.5726 1.0332.926 1.5102.4746.6408.8683 1.3284 1.1992 2.054.1844.4045.5569.6751.7861 1.0473.5945.9654 1.1456 1.9591 1.7725 2.9027.86 1.2943 1.6717 2.6241 2.6573 3.8315.1904.2332.0435.4106-.1084.5274-.5881.4522-1.0491 1.0213-1.5444 1.5636-.6678.7313-1.2543 1.5087-1.6722 2.4091-.0495.1066-.1373.1853-.2218.2711-.2009.2039-.3391.513-.1224.7257.223.2188.5622.1385.7655-.1058s.3971-.5005.5823-.7631c1.0319-1.4641 2.3045-2.6815 3.8678-3.5756.46-.2631 1.1106-.1041 1.5438.4022.6242.7294 1.2747 1.4449 1.8165 2.2333.4197.6107.8935 1.1973 1.2425 1.8438.4989.9239 1.0396 1.8304 1.3095 2.879.1464.5686.5337 1.0808.7487 1.6531.2999.798.6646 1.5847.7316 2.4371.052.6624-.0981 1.3234-.5074 1.8866-.0793.1091-.1498.2096-.1976.3461-.1766.5039-.416.5685-.857.2706-.5906-.3989-1.2125-.3433-1.6403.2122-.245.318-.6279.4635-.7645.9605-.1478.5375-.106.9733.1347 1.387.1912.3286.049.4344-.1701.5945-.4798.3506-.9789.6799-1.4 1.2047-.5354-.9268-1.091-1.8049-1.5593-2.7273-.3467-.683-.8601-1.2541-1.1947-1.9354-.3016-.614-.7429-1.1313-1.1185-1.6933-.1077-.1612-.1318-.2624-.0236-.3999.164-.2082.245-.4673.0621-.6539-.204-.2083-.5402-.2165-.8016-.1363-1.1679.3584-2.1166 1.0547-3.015 1.8795-.4411.405-.9083.8012-1.3122 1.2366-.5163.5566-.9163 1.2211-1.3664 1.8391-.9728-.231-1.8502-.7047-2.7416-1.1266-1.625-.7693-3.2369-1.5687-4.8082-2.4454-.2049-.1149-.4432-.2015-.5105-.4697z" fill="#9e807d"/><path d="m58.4299 136.6073c.2108-.2174.4158-.4408.634-.6505.2686-.2581.417.0401.5281.173.4887.5852 1.1483.7344 1.7525.3022.2181-.156.4998-.1709.6792-.4286.3673-.5276.395-1.0188-.0445-1.502-.2259-.2484-.2971-.5728-.4465-.8513-.0726-.1353.283-.3844.4163-.615.1923-.3327.534-.6028.8611-.8284.5031-.347.7754-.8554 1.0309-1.366.1094-.2187.1553-.4761.3005-.6911.094-.1392.1876-.2872.1411-.4763-.1688-.6875.063-1.4256-.2779-2.0976-.0843-.1662-.1251-.3826.1551-.5088.3002-.1352.5833-.2934.924-.1987.0698.0194.0899.1077.0595.1731-.1861.4003.1883.6956.204 1.0646.005.1183.1162.3427.3391.3267.9198-.066 1.7229.4115 2.593.5839.4601.0912.97.3707 1.2654.8747.4056.6921.9217 1.3148 1.5817 1.7754.2553.1782.6353.2559.9354.2805.8609.0705 1.6566.4607 2.531.4513.2123-.0023.4447.1643.6364.2981.3721.2597.7409.1855 1.1635.1604.5205-.031.8648-.3219 1.2878-.4729.3173-.1133.8224-.1032 1.217.0182.2803.0862.4297.1172.6863-.1209.2961-.2748.7266-.4261 1.1211-.5691.8071-.2923 1.5817-.659 2.2933-1.1235.5291-.3454 1.0759-.7169 1.3601-1.3328.3916.2881.7812.5397 1.2415.6157.2697.0446.1827.192.1505.3305-.1767.7605-.3474 1.5228-.5425 2.2787-.2392.9266-.4989 1.848-.7527 2.7708-.115.418-.2371.834-.356 1.2509-3.2218.6521-6.4701 1.084-9.7558 1.2523-2.5512.1307-5.0998.1201-7.6466-.0352-2.6299-.1604-5.2411-.4956-7.8333-.971-.1483-.0271-.2893-.0933-.4336-.1413z" fill="#e3d4aa"/><path d="m46.6208 133.1271c.7661-.9093 1.6227-1.7279 2.5149-2.5109.5365-.4708 1.1801-.7797 1.7714-1.1672.526-.3446.6595-.232.8583.3671.2595.7816.7417 1.467 1.0994 2.2061.5404 1.1164 1.1431 2.2045 1.5964 3.3628.0411.1049.1416.1866.2146.279-.0915.1526-.2141.115-.3571.0792-2.5876-.649-5.1023-1.5239-7.5996-2.4521-.0465-.0174-.0661-.1077-.0983-.164z" fill="#9e817e"/><path d="m79.4048 115.0366c.019.373-.4746.7452-.7472.588-.2148-.1238-.4453-.213-.6485-.3838-.4973-.418-1.1404-.3884-1.745-.3908-.8545-.0034-1.6149.301-2.2748.8435-.1255.1031-.2573.2403-.3799.0577-.1096-.1633-.3503-.2838-.2102-.5752.0981-.2041.2763-.2929.4207-.428.7334-.6862 1.6971-.9539 2.6152-1.0438.9987-.0978 1.9995.2418 2.7763.9816.1039.0992.1465.2626.1934.3508z" fill="#0f100f"/><path d="m66.5651 124.0702c-.3177.4593-.6358.9183-.953 1.378-.0675.0978-.0291.3428-.2278.2527-.1581-.0716-.0482-.2744.024-.3564.3635-.4122.4807-.9733.8537-1.3757.1011.0338.2021.0676.3031.1014z" fill="#bbc9a0"/><path d="m91.5988 67.3074c.275.7162.9385.8979 1.5162 1.0987 1.4978.5204 2.9286 1.1378 4.1532 2.1739.3965.3354.8488.5853 1.3896.3226.4567-.2217.3477-.73.5028-1.1007.2961-.7079.5011-1.4541.8015-2.1599.1024-.2405-.0879-.3777-.0558-.6163.4107.0775.8018.185 1.2193.19.3538.0043.284.6194.2475.6503-.4543.3858-.0688.9008-.2366 1.3318-.0992.2547-.2111.526-.276.7736-.1055.4023-.2328.797-.379 1.1816-.2569.6762-.4697 1.4399-1.1905 1.754-.9283.4046-1.926.5861-2.944.3814-.5394-.1085-1.0442.1434-1.5746.0892-.0592-.0061-.1557.1281-.1958.2153-.0553.1203-.1363.2133-.2533.2355-.9076.1725-1.3592 1.0408-2.1165 1.4013-1.1926.5678-2.2698 1.3442-3.6261 1.6388-.9219.2002-1.8286.1552-2.7353.2464-.4937.0497-.9727-.2822-1.2848-.778-.2259-.3588-.5469-.6685-.8666-.9541-.2487-.2222-.52-.0806-.7392.1107-.2292.2-.3107.4472-.1498.7284.0766.1339.2013.2808.0908.4134-.1116.134-.3211.1353-.4816.094-.685-.1761-1.3759-.0142-2.0641-.0456-1.3049-.0595-2.611.1017-3.9151.1454-.8339.028-1.6954-.1272-2.432-.6979-.271-.2099-.7253-.1964-1.0919-.3459-1.6568-.6755-3.2969-1.4001-5.0164-1.9115-1.7688-.526-3.5425-1.0567-5.3576-1.3734-.8164-.1425-1.5968-.4319-2.4041-.5271-1.1328-.1336-2.2643-.2951-3.3958-.4339-1.0651-.1307-2.1271.0411-3.183-.1185-.2151-.0325-.298-.0799-.2638-.3085.094-.6287.0552-1.2675.2037-1.8981.0854-.3626-.0226-.768-.0236-1.1542-.0024-.882.0827-1.7644-.0644-2.6449-.0489-.293.0852-.5805.0649-.8934-.0483-.744-.0479-1.4958-.085-2.2388-.0182-.3649-.1581-.7598-.1905-1.1484-.0765-.9186-.2084-1.8416-.1693-2.7564.0161-.3757.0018-.7594-.0522-1.1022-.1682-1.0675.4482-1.7681 1.0601-2.4403.8623-.9473 1.8308-1.7901 2.7931-2.6415.7636-.6756 1.5621-1.293 2.3698-1.9035.4146-.3134.8409-.6376 1.3513-.7866.4642-.1355.5639-.5233.5918-.8929.0281-.3721-.051-.7604-.1322-1.1309-.1371-.6255.0323-1.2481-.0191-1.8768-.031-.3799.0287-.7809-.035-1.1692-.0412-.251.0171-.4678.2492-.5584.8117-.3167 1.4368-.927 2.1771-1.351 1.0808-.619 1.8759-1.6009 2.9309-2.2606.2712-.1696.5062-.5329.7-.8765.3215-.5702.9195-.9254 1.4956-1.1882.5424-.2474 1.0014-.6416 1.5624-.8299.808-.2713 1.6121-.4902 2.4947-.5226.69-.0253 1.3356.0506 2.0025.1483.3659.0536.5961.3201.919.4237.4022.129.7299.1958 1.0957-.1935.8478-.9023 1.9648-1.3885 3.103-1.8352.7976-.313 1.6678-.3388 2.4455-.5966 1.2507-.4146 2.5198-.3252 3.7224-.2254 1.3897.1153 2.8521.3368 4.1009 1.1312.8415.5353 1.7323.4673 2.658.2819 1.0008-.2004 2.0217-.106 3.0344-.136.9519-.0282 1.7579.3376 2.5993.6241.331.1127.6278.3809.9303.565.4503.2741.7385.7184 1.1916.9553.6345.3316 1.0708.8317 1.4275 1.4447.2334.401.658.662.9255 1.056.0989.1456.2519.2265.1118.4258-.0293.0416-.0237.1461.009.1872.4193.5258.4505 1.1697.5518 1.7908.0721.4416-.0897.5855-.5151.4572-.4602-.1389-.9445.0816-1.4043-.1105-.097-.0405-.2502.0259-.3223-.0936-.1059-.1757.0989-.1866.169-.2502.2746-.2492.2217-.5768.2384-.8873.0079-.1473-.1039-.2018-.2276-.2331-.4033-.102-1.1276.2805-1.3632.6229-.6942 1.009-1.0648 2.1317-1.3849 3.3034-.1943.7111-.1141 1.3487.0286 2.0185.1442.677.7171.9837 1.2393 1.2374.6292.3056 1.3454.465 2.0459.5116 1.4389.0956 2.4856.7994 3.405 1.8568.5271.6061.5959 1.303.7616 2.0144.2533 1.088.0461 2.2198.2693 3.2728.2326 1.0977-.0049 2.1143-.0805 3.1612-.0617.8556-.3227 1.6845-.4966 2.5249-.2102 1.0156-.8076 1.8893-.9766 2.9108-.0443.2677-.2174.4031-.4748.3337-.6789-.1831-1.3127.0355-1.9565.1813-.0161.0036-.0336.0264-.0447.0227-.7216-.2364-1.4846-.0886-2.2325-.3386-.9603-.3209-1.6119-1.0427-2.4428-1.5157-.4386-.2496-1.0486-1.3424-.9856-1.6789.0266-.1422.0473-.3159.1951-.3249.4367-.0265.7691-.3335 1.2044-.3823 1.6098-.1805 2.7698-1.0933 3.5366-2.4509.316-.5595.4424-1.2692.2091-1.9516-.0642-.1879-.0816-.3767.0409-.5412.3675-.4938.4409-1.0963.6114-1.6593.2444-.807-.2563-1.9082-1.0191-2.2689-.1919-.0907-.4214-.0557-.6471-.0331-.9854.099-1.8908.5735-2.8859.6037-.755.0229-1.4358-.1404-2.0495-.6522-.4873-.4064-.9498-.8241-1.3303-1.3259-.4693-.6188-.8978-1.2634-1.2525-1.9604-.2638-.5182-.4526-1.0491-.5815-1.6136-.0794-.3476-.2943-.5757-.7091-.4259-.1342.0485-.2218.1319-.157.2651.2516.5175.0919 1.0878.2287 1.6231.1844.7215.4035 1.4165.7779 2.072.5085.8905 1.2131 1.6144 2.0202 2.5036-.8063 0-1.4682.0105-2.1296-.0023-1.1985-.0232-2.4056-.1628-3.558.323-.3425.1444-.4439.4661-.5317.7683-.1405.4837-.5905.8476-.4283 1.4586.2152.8104.9772 1.6155 1.8204 1.7601.3908.067.8642.0042.6036.7035-.077.2066.2348.5744.1306.8533-.0876.2346-.0514.3463.0184.5857.2563.8787.988 1.1085 1.6656 1.4359.0904.0437.1805.0609.2509.1483.2897.3601.671.4298 1.1084.3479.2995-.056.685-.1658.8225.186.089.2277-.1528.5144-.3304.702-.8571.9053-1.7134 1.8291-2.7642 2.5036-.4141.2658-.8937.4565-1.2712.785-.6215.541-1.4015.7435-2.1252 1.0689-.2111.0949-.4349.0845-.6513.1293-1.1135.2309-2.2402.4245-3.3719.442-1.0875.0168-2.1969.0492-3.2482-.3745-.1833-.0739-.3018-.1207-.3012-.3316.0002-.0824-.0064-.2126-.0554-.2402-1.032-.5802-.8741-1.7653-1.3424-2.6297-.1452-.268-.2259-.5663-.376-.8388-.2951-.5359-.1482-1.0194.2205-1.4874.5991-.7603 1.2025-1.5187 1.6563-2.3844.165-.3148.1191-.7106.4123-.9729.0758-.0678-.014-.1587-.0904-.2004-.2064-.1127-.4102-.1596-.615.018-.7434.6451-1.4509 1.3229-2.0725 2.0909-.5537.6841-1.1171 1.3604-1.7044 2.0181-.3365.3768-.8177.715-.7232 1.3648.0556.3822.2962.5351.5955.594.2924.0575.6888.2687.7955-.2866.0281-.1463.1558-.2937.3227-.2737.156.0187.1721.1929.1967.3275.1265.6921.1661 1.4154.4026 2.0674.2035.561.2739 1.1528.5049 1.692.0719.1679.3494.2557.5429.3616.281.1537.5935.1793.8194.5232.1072.1631.6635.2549 1.0198.2802 1.1926.0845 2.3772.2469 3.5849.21.5176-.0158.9945-.1676 1.4909-.223.4106-.0459.8413-.08 1.2537-.1301.7046-.0855 1.3096-.4678 2.0128-.535.4859-.0464.7913-.4975 1.2272-.6879.3416-.1487.6562-.3575.977-.5366zm-20.4697-27.1321c-.4764-.02-.9419.1041-1.3447.3342-.617.3524-1.3456.3907-1.9206.9279-.7411.6925-1.503 1.2606-1.8131 2.3338-.1991.6888-.4652 1.3676-.6083 2.0792-.0459.2286-.1072.3621-.3996.3268-.3798-.0458-.563.1532-.6189.559-.0702.51.0311.9086.4266 1.2486.2045.1757.3921.3857.5376.6122.2692.4191.6523.6905 1.0713.9263.5752.3237 1.2342.3946 1.8464.6057.8119.2801 1.6773.4445 2.4996.4805 1.742.0762 3.5101-.0001 5.0711-.9756.4071-.2544.6701-.175.8201.2745.0682.2044.1941.308.4132.3122.3949.0077.5436-.1784.4402-.6633-.2335-1.0954-.094-2.1626.055-3.2599.1103-.8128.6254-1.5915.2621-2.4853-.0977-.2403-.1826-.3503-.381-.3526-.267-.0031-.4836-.0887-.6095-.305-.6244-1.0726-1.4525-1.8625-2.6445-2.3327-1.0113-.3989-1.9997-.7511-3.103-.6465z" fill="#e3d5aa"/><path d="m44.3008 98.9726c.183-1.0105.2138-2.0399.3845-3.0583.1329-.7925.1691-1.6122.2976-2.4118.2491-1.5494.3934-3.1149.7596-4.6477.1227-.5135.5558-.5391.8681-.6839.9694-.4493 1.9745-.8204 2.8622-1.4331.209-.1442.3372.01.3958.1675.6622 1.7794 1.9866 3.0644 3.3197 4.3094 1.2053 1.1256 2.6244 1.9673 4.1703 2.5794.3407.1349.7448.1841.9078.6404.0596.1668.378.1842.598.1862.7842.0072 1.5257-.2074 2.2063-.5628 1.7908-.9352 3.5812-1.873 5.3595-2.8299.5713-.3074 1.1301-.6888 1.6941-1.0355.6293-.3868 1.2885-.7255 1.9411-1.073.1793-.0955.3088-.0721.344.1903.1075.8029.4205 1.5356.8264 2.2311.1864.3194.1672.7031.3751 1.03.4909.7721 1.1749 1.3492 1.8578 1.9221.6223.522 1.2752 1.0091 1.9527 1.4642.4418.2968.9326.4865 1.387.7525.4906.2873.6352.6319.4416 1.1704-.4156 1.1563-.8758 2.2946-1.2527 3.4676-.3568 1.1107-.9114 2.1562-1.3195 3.2525-.3438.9236-.7747 1.8045-1.1791 2.6989-.3772.8344-.7831 1.6551-1.2945 2.4178-.3226.4812-.6294.9759-.9878 1.4294-.4657.5893-.9668 1.1566-1.5464 1.635-.1747.1442-.1997.3396-.3422.4876-.6667.6928-1.3318 1.3849-2.1367 1.9216-.2314.1543-.3464.4058-.4207.6275-.2954.8812-.614 1.7407-.6268 2.7161-.0148 1.1271-.388 2.2102-.9153 3.2283-.4781.9231-.965 1.8484-1.3397 2.8148-.153.3946-.1737.8541-.3904 1.2463-.0508.092-.0845.1922-.2072.1964-.1265.0044-.1692-.0884-.2052-.1908-.3203-.9111-.9582-1.6369-1.4253-2.4608-.3135-.5531-.5983-1.1183-.9433-1.6586-.9171-1.4365-1.8069-2.8895-2.8311-4.2547-.2891-.3854-.5506-.7942-.8358-1.1792-.334-.4508-.9064-.5907-1.4244-.7405-.4138-.1197-.8335-.281-1.2856-.2164-.1021.0146-.2144-.0119-.2755-.1061-.438-.6744-1.102-1.1757-1.4803-1.8905-.649-1.2264-1.4857-2.3372-2.175-3.531-.549-.9509-1.1602-1.8668-1.6837-2.8361-.3104-.5748-.6982-1.1304-.9245-1.7348-.4172-1.1145-1.2727-2.0022-1.5682-3.1692-.0188-.0742-.0819-.1436-.1392-.2005-.4195-.4167-.4281-1.027-.6606-1.5289-.158-.341-.3836-.4176-.605-.5707-.2838-.1962-.6518-.3094-.5275-.7785z" fill="#e3d5ab"/><path d="m92.8267 57.8574c.5291.0878 1.0166-.225 1.5498-.2883.1467-.0174.4374-.2168.3685-.4166-.075-.2175-.3048-.4434-.5825-.4061-.9291.1248-1.8593.0173-2.7867.0556-.4442.0184-.8388-.1421-1.254-.2162-.1829-.0327-.3991-.2665-.3407-.5086.0781-.3237.0368-.8295.5263-.8119.5992.0216 1.1357-.2342 1.7225-.2508 1.2046-.034 2.4088-.1036 3.6109-.1895.7395-.0528 1.551.0415 2.1988-.1862.7104-.2497 1.4742-.2701 2.1509-.6031.1479-.0728.3271-.1.4944-.1116.4578-.0317.5788.1399.4574.5735-.0679.2427-.2255.449-.2192.7281.0043.1912-.2309.2248-.3917.2581-.3724.077-.6966.2661-1.0253.4365-.2892.15-.2845.3829-.095.6366.1779.2382.5213.3329.5008.7465-.0457.9184-.2636 1.7192-1.1706 2.1522-.5304.2532-1.0125.6029-1.6064.7311-.6866.1482-1.3901.2336-2.0652.1088-.4915-.0909-.9963-.1004-1.4852-.2399-.2611-.0745-.413-.1878-.4186-.4153-.0149-.6006-.319-1.173-.1392-1.7829z" fill="#f1c4b6"/><path d="m52.7656 37.6481c-.0637-.7413.3445-1.3677.5186-2.05.2619-1.0266.6138-2.0229 1.1244-2.9729.3391-.6309.8604-1.0654 1.2868-1.5979.3584-.4476.8161-.7919 1.242-1.1711.3294-.2933.5654-.6924.9572-.9361.1391-.0865.2317-.16.3907-.0136.2945.2712.727.3241 1.0155.6219.4608.4756 1.1661.3776 1.7438.7381-.4195.3894-.7804.87-1.2605 1.1331-.5957.3264-.9294.9074-1.4846 1.2638-.4105.2635-.8207.5841-1.1496.9267-.3089.3218-.5921.6659-.9334.9739-1.1428 1.031-2.2443 2.1077-3.3616 3.1668-.0298-.0276-.0595-.0551-.0893-.0827z" fill="#f0c3b6"/><path d="m100.4628 44.2688c.3399.1611.6838.0841.979.1294.8301.1273 1.6329.4314 2.1027 1.3194-.542-.2177-1.045-.2819-1.5791-.1652-.3024.0661-.4618.2417-.5216.4921-.0734.3073.1691.6098.3742.658.393.0923.7103.312 1.0556.4723.485.2251.8389.1908 1.1757-.2949 0 .3427.0148.6862-.0041 1.0278-.0189.3415-.2197.5796-.5639.4969-.7694-.1849-1.5469-.2946-2.3285-.4052-.5458-.0773-.5519-.6857-.8-1.0472-.4435-.6464-.0233-1.3467-.006-2.0241.005-.2004.0682-.3992.116-.6593z" fill="#bbc9a0"/><g fill="#8a8a89"><path d="m76.0149 130.9737c.0208-.764.2355-1.4853.5065-2.1896.0978-.254.2553-.5447.5956-.4246.3478.1228.3435.4375.2392.7369-.2482.7125-.4398 1.4392-.5946 2.1772-.0543.2588-.0715.6178-.4489.5728-.3862-.0462-.2622-.4134-.2965-.667-.009-.0673-.0013-.1368-.0013-.2057z"/><path d="m60.7219 134.7754c.0085.2353-.0191.4251-.1995.4893-.2051.0731-.4287.0118-.5481-.175-.4408-.6898-.87-1.3875-1.2876-2.0917-.1532-.2584.0763-.4124.2352-.5488.1505-.1292.3727-.1011.4519.0602.3558.7243.9477 1.2944 1.2923 2.022.0426.0897.0459.1978.0558.244z"/><path d="m66.3009 127.0703c.0777-.8175.308-1.5603.7765-2.2135.1463-.204.3529-.3491.6138-.1811.2448.1576.2654.4018.1319.6304-.354.6063-.6571 1.2314-.8465 1.9105-.0504.1806-.1925.2865-.3915.2514-.2312-.0407-.2844-.2157-.2842-.3977z"/><path d="m92.9787 130.6721c.0768.2584-.0003.5125-.2678.5622-.2885.0536-.4968-.1355-.5445-.4232-.0983-.5927-.0985-1.1922-.0096-1.7855.0338-.2257.164-.4324.443-.4128.2804.0197.3681.2385.3744.4719.0143.5288.0045 1.0582.0045 1.5874z"/></g><path d="m52.8548 37.7308c-.0331.0783-.0851.1719-.1705.0916-.086-.0809.0074-.1362.0813-.1743.0298.0276.0595.0551.0892.0827z" fill="#f0c3b6"/><path d="m71.1291 40.1753c1.1032-.1046 2.0916.2476 3.103.6465 1.192.4702 2.0201 1.2601 2.6445 2.3327.1259.2163.3425.302.6095.305.1984.0023.2833.1124.381.3526.3633.8939-.1518 1.6726-.2621 2.4853-.1489 1.0973-.2885 2.1645-.055 3.2599.1034.4849-.0453.671-.4402.6633-.2191-.0043-.345-.1079-.4132-.3122-.15-.4495-.413-.5289-.8201-.2745-1.561.9755-3.3291 1.0518-5.0711.9756-.8223-.036-1.6877-.2004-2.4996-.4805-.6122-.2112-1.2711-.2821-1.8464-.6057-.419-.2358-.8021-.5072-1.0713-.9263-.1455-.2265-.3332-.4365-.5376-.6122-.3955-.3399-.4969-.7385-.4266-1.2486.0559-.4057.2391-.6048.6189-.559.2924.0352.3537-.0982.3996-.3268.143-.7117.4092-1.3905.6083-2.0792.3102-1.0732 1.072-1.6413 1.8131-2.3338.575-.5373 1.3036-.5755 1.9206-.9279.4028-.2301.8683-.3542 1.3447-.3342zm.2019 1.6738c-.1639-.1474-.3096-.0185-.4672.0456-.5088.2068-1.0167.4164-1.5302.6108-.4431.1677-.7832.4586-1.0987.8042-.6885.7541-.9594 1.7133-1.0771 2.6535-.1143.913.1055 1.8525 1.0266 2.4013.5178.3085 1.0368.4526 1.6803.5059.6982.0578 1.3699.0282 2.0546-.0088.051-.0028.1024-.0045.1533-.0014.8845.0539 1.7532.1542 2.6356-.1663 1.0041-.3647 1.2311-.571 1.2541-1.616.003-.1358.0382-.2721.0306-.4066-.0488-.8595.6824-1.7922-.2366-2.5716-.0105-.0089-.0084-.0324-.0123-.0491-.1619-.6957-.7646-1.0117-1.229-1.4547-.4519-.4311-1.0822-.3361-1.5872-.6175-.4837-.2696-1.0397-.2323-1.5968-.1293z" fill="#0f100f"/><path d="m71.331 41.8491c.557-.103 1.113-.1404 1.5966.1292.505.2815 1.1353.1864 1.5872.6175.4644.443 1.0671.759 1.229 1.4547.0039.0167.0018.0402.0123.0491.9191.7794.1878 1.712.2366 2.5716.0076.1345-.0276.2709-.0306.4066-.023 1.045-.25 1.2513-1.2541 1.616-.8824.3205-1.751.2203-2.6356.1663-.0509-.0031-.1023-.0014-.1533.0014-.6846.037-1.3563.0666-2.0546.0088-.6436-.0533-1.1625-.1974-1.6803-.5059-.9211-.5488-1.1409-1.4883-1.0266-2.4013.1177-.9402.3886-1.8994 1.0771-2.6535.3155-.3456.6556-.6365 1.0987-.8042.5136-.1944 1.0214-.404 1.5302-.6108.1578-.064.3035-.1929.4674-.0455zm.936 5.0726c.1712-.0012.3428-.0102.5135-.0023.5489.0256.9117-.2233 1.104-.7323.505.0964.8997-.1599.9881-.5875.0802-.3882-.3516-.5695-.6842-.7455-.3584-.1897-.7559-.1546-1.113-.2609-.8679-.2585-1.7035-.0877-2.5425.0542-.5082.086-.8054.9788-.5368 1.4238.3318.5499.753.9367 1.4042 1.1074.3886.1018.6791.182.8667-.2569z" fill="#c2d0a2"/><path d="m72.267 46.9217c-.1876.4388-.4781.3587-.8667.2568-.6512-.1706-1.0723-.5575-1.4042-1.1074-.2686-.445.0286-1.3378.5368-1.4238.839-.1419 1.6746-.3127 2.5425-.0542.3571.1064.7546.0712 1.113.2609.3326.1761.7644.3574.6842.7455-.0883.4275-.4831.6838-.9881.5875-.7587-.4899-1.6037-.1147-2.4046-.2632.2688.1345.4621.3466.6914.5058.1568.1091.3257.2786.0957.4921z" fill="#0f100f"/><path d="m72.267 46.9217c.23-.2135.061-.383-.0956-.4918-.2293-.1592-.4227-.3714-.6914-.5058.8009.1484 1.6459-.2268 2.4046.2632-.1923.509-.5551.7578-1.104.7323-.1708-.0081-.3424.0009-.5136.0021z" fill="#fff"/></svg>