<svg enable-background="new 0 0 141.832 141.7791" viewBox="0 0 141.832 141.7791" xmlns="http://www.w3.org/2000/svg"><path d="m0 70.1888c.1899 19.5388 6.6115 36.0026 19.6373 49.6501 13.0374 13.6596 29.1933 21.0565 48.0786 21.8652 20.2078.8653 37.8543-5.752 52.4397-19.7747 13.5161-12.9946 20.8047-29.0791 21.6023-47.8283.8597-20.2094-5.76-37.8534-19.785-52.4358-13.0105-13.5277-29.1133-20.8119-47.8834-21.594-20.2111-.8422-37.8611 5.7791-52.4141 19.8342-14.3369 13.8464-21.3871 30.9906-21.6754 50.2833z" fill="#fff"/><path d="m0 70.1888c.2883-19.2927 7.3385-36.4369 21.6754-50.2833 14.553-14.0551 32.203-20.6764 52.4141-19.8342 18.7701.7821 34.8729 8.0663 47.8834 21.594 14.025 14.5825 20.6447 32.2264 19.785 52.4358-.7976 18.7492-8.0862 34.8336-21.6023 47.8283-14.5854 14.0226-32.2319 20.64-52.4397 19.7747-18.8853-.8087-35.0412-8.2056-48.0786-21.8652-13.0258-13.6474-19.4474-30.1113-19.6373-49.6501zm54.4782 65.598c.4468.3323.9986.3417 1.507.482.1083.0299.1069-.0994.1222-.1781.1462.0925.1665.2689.3801.3558.9467.3854 1.9684.4007 2.9425.6532 1.2156.315 2.4966.3734 3.747.5589 1.4983.2223 3.0131.3612 4.5172.37 3.1776.0186 6.3606.1791 9.5348-.1705 1.1233-.1237 2.2507-.138 3.3681-.392 1.0593-.2407 2.1581-.2763 3.2311-.5162 1.4762-.3301 2.9541-.6435 4.4173-1.0331 1.2728-.3389 2.5535-.646 3.8022-1.0698.8045-.2731 1.638-.4818 2.4077-.8314 1.0198-.4631 2.0737-.8391 3.1035-1.2737 1.3129-.554 2.5682-1.221 3.8556-1.8216 1.1943-.5572 2.316-1.2705 3.4665-1.9208.6637-.3752 1.345-.7261 1.9761-1.1508 1.1746-.7903 2.3249-1.6173 3.4728-2.4463.9736-.7032 1.9577-1.3964 2.8857-2.1568 1.0034-.8222 1.9823-1.6814 2.9082-2.5894 1.1264-1.1047 2.3271-2.1337 3.3437-3.3539.8402-1.0084 1.7875-1.9271 2.6399-2.926 1.5541-1.8211 2.9236-3.7796 4.2636-5.7636.8344-1.2353 1.6297-2.4934 2.3577-3.7875.9851-1.7513 1.9102-3.5377 2.7206-5.3817.2115-.4813.3987-.9781.6369-1.4422.5062-.9864.8746-2.0278 1.2558-3.059.2757-.7458.5212-1.5117.7922-2.2591.664-1.8312 1.2234-3.693 1.694-5.5767.6989-2.7981 1.1832-5.6383 1.4736-8.5124.1956-1.9359.3903-3.8692.3939-5.8169.0014-.7543-.0171-1.509.0036-2.2627.0537-1.9514-.0467-3.8991-.2248-5.8381-.1806-1.9661-.456-3.9229-.7823-5.8737-.7049-4.2144-1.9507-8.2695-3.5028-12.2365-1.0724-2.741-2.352-5.3875-3.7679-7.9679-1.2522-2.2821-2.5984-4.5077-4.1393-6.6063-2.5776-3.5104-5.3884-6.8161-8.6003-9.7747-1.2467-1.1485-2.5104-2.2748-3.8162-3.3525-3.1519-2.6015-6.5627-4.8248-10.1569-6.7574-3.4507-1.8554-7.0304-3.4332-10.748-4.6827-3.812-1.2813-7.7045-2.2012-11.7021-2.7032-2.0309-.255-4.0654-.517-6.1037-.5596-2.9219-.061-5.8486-.1192-8.7718.1602-1.7817.1703-3.5575.3645-5.3274.6253-3.7454.5519-7.3827 1.5157-10.952 2.7741-4.205 1.4825-8.2147 3.3722-12.0725 5.598-4.7128 2.7191-8.9413 6.0724-12.8472 9.8404-1.9971 1.9265-3.8179 4.0188-5.5637 6.175-2.55 3.1495-4.731 6.5433-6.6285 10.1188-1.5155 2.8555-2.8519 5.7946-3.9569 8.835-.7819 2.1514-1.4783 4.3304-2.0176 6.5561-.5345 2.2063-.9279 4.437-1.2392 6.6881-.2783 2.0121-.5137 4.0323-.5605 6.0525-.0681 2.9385-.1168 5.882.155 8.8231.204 2.208.4685 4.4023.8276 6.5895.6951 4.2335 1.9596 8.3017 3.5224 12.2831 1.0692 2.7239 2.342 5.3544 3.7506 7.9191 1.2531 2.2815 2.6081 4.5005 4.1408 6.6055 1.7647 2.4235 3.692 4.7097 5.7329 6.9098 1.739 1.8747 3.6274 3.5779 5.543 5.2592 1.3584 1.1922 2.7941 2.2871 4.2467 3.3594 1.4806 1.0929 3.0003 2.1327 4.5675 3.0961 1.1585.7122 2.341 1.395 3.5593 1.9966.6087.3006 1.1653.7651 1.8886.8127.3684.2996.8032.4571 1.2515.586.1335.0735.263.1557.4011.2194 3.254 1.5031 6.6182 2.7043 10.0682 3.6703.1995.0555.3969.1021.6053.0716z" fill="#5f6065"/><path d="m42.152 131.2384c-.7234-.0469-1.28-.5114-1.8887-.812-1.2183-.6016-2.4008-1.2843-3.5593-1.9966-1.5672-.9634-3.0869-2.0032-4.5675-3.0961-1.4526-1.0722-2.8883-2.1672-4.2467-3.3594-1.9156-1.6813-3.8041-3.3845-5.543-5.2592-2.0409-2.2002-3.9682-4.4863-5.7329-6.9098-1.5327-2.105-2.8876-4.324-4.1408-6.6055-1.4086-2.5647-2.6814-5.1952-3.7506-7.9191-1.5629-3.9814-2.8273-8.0496-3.5224-12.2831-.3591-2.1872-.6236-4.3816-.8276-6.5895-.2717-2.941-.223-5.8846-.155-8.8231.0468-2.0202.2822-4.0404.5605-6.0525.3113-2.2511.7047-4.4819 1.2392-6.6881.5392-2.2257 1.2357-4.4047 2.0176-6.5561 1.105-3.0405 2.4414-5.9795 3.9569-8.835 1.8976-3.5755 4.0785-6.9692 6.6285-10.1188 1.7457-2.1562 3.5666-4.2484 5.5637-6.175 3.906-3.768 8.1344-7.1212 12.8472-9.8404 3.8578-2.2258 7.8674-4.1154 12.0725-5.598 3.5693-1.2584 7.2067-2.2222 10.952-2.7741 1.7698-.2608 3.5457-.4549 5.3274-.6253 2.9231-.2794 5.8499-.2212 8.7718-.1602 2.0384.0426 4.0728.3046 6.1037.5596 3.9976.502 7.8901 1.4219 11.7021 2.7032 3.7175 1.2496 7.2972 2.8273 10.748 4.6827 3.5941 1.9326 7.005 4.1559 10.1569 6.7574 1.3058 1.0778 2.5695 2.2041 3.8162 3.3525 3.2119 2.9587 6.0227 6.2644 8.6003 9.7747 1.5409 2.0985 2.887 4.3242 4.1393 6.6063 1.4159 2.5804 2.6955 5.2269 3.7679 7.9679 1.5521 3.9671 2.7979 8.0221 3.5028 12.2365.3263 1.9508.6017 3.9076.7823 5.8737.1781 1.9389.2785 3.8867.2248 5.8381-.0208.7537-.0022 1.5085-.0036 2.2627-.0036 1.9477-.1983 3.8811-.3939 5.8169-.2904 2.8742-.7746 5.7143-1.4736 8.5124-.4706 1.8838-1.03 3.7455-1.694 5.5767-.271.7474-.5165 1.5133-.7922 2.2591-.3812 1.0313-.7496 2.0726-1.2558 3.059-.2382.4641-.4254.9609-.6369 1.4422-.8103 1.844-1.7355 3.6304-2.7206 5.3817-.728 1.2942-1.5233 2.5523-2.3577 3.7875-1.34 1.9839-2.7095 3.9424-4.2636 5.7636-.8524.9989-1.7998 1.9175-2.6399 2.926-1.0166 1.2202-2.2174 2.2492-3.3437 3.3539-.9258.9081-1.9047 1.7673-2.9082 2.5894-.928.7604-1.9121 1.4536-2.8857 2.1568-1.1479.829-2.2982 1.656-3.4728 2.4463-.6311.4246-1.3124.7756-1.9761 1.1508-1.1504.6503-2.2722 1.3636-3.4665 1.9208-1.2874.6006-2.5427 1.2676-3.8556 1.8216-1.0298.4346-2.0837.8106-3.1035 1.2737-.7697.3495-1.6032.5583-2.4077.8314-1.2486.4238-2.5293.731-3.8022 1.0698-1.4631.3895-2.9411.703-4.4173 1.0331-1.073.2399-2.1718.2755-3.2311.5162-1.1174.2539-2.2448.2682-3.3681.392-3.1742.3497-6.3573.1892-9.5348.1705-1.5042-.0088-3.019-.1477-4.5172-.37-1.2504-.1855-2.5314-.244-3.747-.5589-.9741-.2524-1.9958-.2678-2.9425-.6532-.2136-.0869-.2339-.2633-.38-.3555-.5336-1.7208-1.0641-3.4428-1.602-5.1625-.4469-1.4287-.8895-2.8589-1.3583-4.2805-.4545-1.3784-.957-2.741-1.4078-4.1205-.7486-2.2905-1.2687-4.6462-2.0503-6.932-.8352-2.4425-1.4465-4.9605-2.218-7.4261-.8265-2.6411-1.7311-5.2576-2.5911-7.8883-.4566-1.3966-.9308-2.7893-1.3255-4.2038-.5049-1.8093-1.0263-3.6143-1.4688-5.4418-.5385-2.2242-1.0224-4.4597-1.495-6.6979-.2155-1.0204-.3795-2.0515-.5787-3.0754-.1717-.8825-.3863-1.7574-.5357-2.6434-.2579-1.5283-.4977-3.0602-.7113-4.5953-.1643-1.1809-.3192-2.3661-.4004-3.5547-.0818-1.1982-.1551-2.4095.085-3.5988.1784-.8833.3401-1.7896.6807-2.6149.3253-.7883.7445-1.5496 1.1887-2.2965.6713-1.1288 1.3522-2.2422 2.0673-3.3455.8331-1.2853 1.859-2.4102 2.7062-3.6779 1.1633-1.7405 2.5583-3.3095 3.9554-4.8679 1.0121-1.1289 2.0482-2.2362 3.0736-3.3532.0959-.1045.2151-.1245.3536-.1581 1.1848-.2877 2.3614-.6091 3.5442-.9055 1.1232-.2814 2.2795-.3916 3.3697.0149 1.1552.4308 2.2162 1.1209 3.3785 1.5245 1.3201.4584 2.4731 1.2197 3.7254 1.7932.209.0957.4131.1916.5026.4645.839 2.5583 1.6395 5.1267 2.8977 7.5308.7193 1.3744 1.4311 2.7541 2.1756 4.1145.5179.9464 1.134 1.8393 1.7123 2.7522.7431 1.1731 1.478 2.3548 2.5009 3.3154.4507.4233.8616.8986.9909 1.4928.1585.7288.4087 1.3952.8336 1.9995.6248.8887 1.3909 1.5725 2.5373 1.6569.2343.0173.3861.1086.4865.307.5396 1.0672 1.2586 2.0249 1.894 3.0319.3634.576.5036 1.1709.4767 1.7879-.0626 1.4344-.1594 2.8713-.3352 4.2958-.2787 2.2585-.4986 4.5321-1.2323 6.7096-.3669 1.089-.6987 2.1901-1.0813 3.2734-.3861 1.0933-.8581 2.1574-1.217 3.2589-.7347 2.2548-1.5883 4.4618-2.5474 6.6284-.3369.761-.6111 1.5594-1.0798 2.2513-.5152.7604-.9239 1.5763-1.3595 2.3791-.1064.1962-.0573.3895-.0446.6061.0279.4763.3098.8091.4595 1.2111.2798.7514.6587 1.4124 1.2812 1.9583.5028.4409 1.1093.7497 1.5746 1.1893.6715.6344 1.3711.5259 2.0124.2423 1.1289-.4993 2.2768-.9582 3.3913-1.4891 1.448-.6898 2.7782-1.5868 4.1308-2.4391 1.0305-.6493 2.0017-1.392 3.0142-2.071.9308-.6241 1.8412-1.2807 2.7431-1.9408.9439-.6908 1.8877-1.3855 2.8386-2.0668.9744-.6982 1.8774-1.4834 2.7037-2.3331 1.2573-1.2929 2.407-2.6902 3.6098-4.0365 1.3396-1.4995 2.6024-3.0646 3.8221-4.6591 1.0007-1.3082 1.8841-2.7059 2.7895-4.086.9083-1.3845 1.7521-2.8021 2.4693-4.2828.8084-1.6687 1.4778-3.4052 2.1915-5.1189.0947-.2273.2176-.5745.1169-.7281-.3714-.5662-.5135-1.2159-.7775-1.8181-.6704-1.529-1.4086-3.0251-2.133-4.5288-.6848-1.4215-1.367-2.8443-2.095-4.2436-1.0694-2.0553-2.1856-4.0864-3.2484-6.145-.6714-1.3005-1.3783-2.5822-2.0147-3.9021-.5979-1.2401-1.2895-2.4347-1.9307-3.6541-.5946-1.1307-1.1224-2.3007-1.7794-3.3934-.7568-1.2588-1.3403-2.5982-2.0055-3.8994-.6181-1.2091-1.2429-2.4152-1.8909-3.6085-.5031-.9264-1.0204-1.8472-1.5791-2.7406-.589-.9419-1.0489-1.9536-1.6465-2.8918-.6383-1.002-1.2289-2.0353-1.8431-3.0532-.9156-1.5172-1.8006-3.0422-2.9781-4.3883-.6984-.7985-1.4078-1.5684-2.2652-2.1889-.7162-.5183-1.4555-1.0509-2.2899-1.315-1.1498-.364-2.3852-.4245-3.577-.3877-1.6301.0504-3.2641.0466-4.8959.23-2.2835.2567-4.5825.3862-6.8775.526-2.1251.1294-4.2307.4183-6.343.6597-1.9023.2174-3.805.4573-5.72.5335-1.5611.0621-2.9474.5459-4.1324 1.5709-1.4673 1.2692-2.8752 2.5909-4.0538 4.1498-1.0241 1.3546-2.1924 2.6041-3.1633 3.9934-.4804.6875-1.039 1.2924-1.5833 1.9049-.8091.9103-1.6057 1.8358-2.3044 2.8219-1.2851 1.8136-2.6005 3.6096-3.718 5.5404-.7802 1.348-1.5697 2.6889-2.2714 4.0803-.5759 1.1421-1.135 2.294-1.754 3.4126-.6276 1.1342-1.1236 2.3308-1.6822 3.4953-.4758.9918-.8643 2.0301-1.3399 3.0306-.9493 1.9973-1.6872 4.0762-2.1524 6.2442-.0644.2999-.1485.5984-.1122.9139.2864 2.4851.7064 4.9507 1.2891 7.3799.6944 2.8948 1.7308 5.6918 2.6593 8.5166.8094 2.4625 1.5048 4.9644 2.5488 7.3534.5615 1.2847.9444 2.6526 1.3349 4.012.3966 1.3805.7609 2.7708 1.1578 4.1514.6549 2.2779 1.2159 4.5826 1.8601 6.8637.6155 2.1797 1.2034 4.3634 1.6929 6.5765.181.8183.489 1.6263.6354 2.4492.2996 1.6839.6137 3.3667.8325 5.0665.2611 2.0283.4157 4.0654.5134 6.1025.0958 2.0059.0287 4.0194.0333 6.0294z" fill="#ee8043"/><path d="m54.4782 135.7868c-.2084.0305-.4058-.0161-.6055-.0721-3.45-.966-6.8141-2.1672-10.0682-3.6703-.138-.0637-.2676-.1459-.4011-.2196.1739-2.0235.0771-4.0481.0308-6.0726-.0366-1.6024.2146-3.2087-.0894-4.8093-.0596-.3138-.1412-.6331-.1558-.95-.0764-1.6479-.3959-3.2648-.6683-4.882-.2399-1.4244-.6673-2.8172-.9869-4.2306-.4166-1.8424-.9426-3.66-1.3626-5.5016-.3167-1.3884-.6777-2.7635-1.0635-4.1324-.4946-1.7551-1.0444-3.495-1.5207-5.2549-.6938-2.5632-1.5267-5.0899-2.5168-7.5402-1.541-3.8137-2.9795-7.6533-4.1399-11.5991-.3906-1.328-.8782-2.6323-1.1503-3.9889-.3291-1.6409-.5549-3.3006-.7654-4.9644-.1964-1.5524.038-3.0411.6457-4.3859.6719-1.487 1.1615-3.0427 1.8758-4.5121.6679-1.374 1.2899-2.7704 2.0149-4.117.6131-1.1388 1.2851-2.2511 1.8205-3.4255.7614-1.67 1.7832-3.1867 2.69-4.7689.7092-1.2375 1.5899-2.379 2.3928-3.5611 1.3155-1.9367 2.7945-3.7384 4.2339-5.5733 1.2718-1.6213 2.5749-3.2195 3.9598-4.7491 1.2343-1.3633 2.3957-2.7971 3.8019-3.9929.5155-.4384.9477-.9832 1.5725-1.2889 1.0559-.5165 2.2246-.5662 3.3501-.7372 2.1208-.3222 4.2604-.5201 6.3913-.7762.907-.109 1.8175-.1578 2.7226-.3296.638-.1211 1.3202-.0695 1.982-.1247 1.7308-.1443 3.4626-.2759 5.194-.4123 1.3729-.1081 2.7482-.048 4.1218-.0699 1.7399-.0277 3.4538.0719 5.154.4406.599.1299 1.1464.3699 1.5959.7739.5675.51 1.1713.9822 1.6785 1.559.5494.6247.9569 1.3593 1.4981 1.9821.6794.7819 1.3792 1.5483 1.9414 2.4166.8014 1.2375 1.5146 2.5294 2.194 3.8388-.1181.0592-.2362.1184-.3542.1776-.4195-.257-.7618-.2219-1.0133.2449-.0787.146-.2247.2353-.3623.3383-.7869.5894-1.7076.6353-2.6316.7613-1.5698.2141-2.71 1.1753-3.6892 2.3485-.5341.64-.9142 1.3846-1.3482 2.0909-.1419.231-.4565.2823-.5254.5328-.1981.7196-.7284 1.2647-.901 2.0275-.3028 1.339-.8055 2.6436-.9179 4.0167-.0968 1.1821-.1569 2.3784.1426 3.5632.2548 1.0081.2584 2.0607.4888 3.0826.3493 1.5495.8915 3.036 1.4275 4.5182.3157.873.5893 1.6133.0473 2.5081-.5686.9386-.6377 2.0823-1.0439 3.0938-.1852.4611-.3116.9165-.3536 1.4089-.0229.2689-.1164.5346-.2842.7589-.0634.0848-.1313.1678-.1041.2771.1466.5874-.0859 1.1515-.1035 1.7291-.0152.4992-.3735.6616-.7974.3608-.7064-.5013-.8827-1.2593-.9846-2.0613-.0813-.6403-.2597-1.2783-.6966-1.758-.6837-.7508-1.4698-1.4143-2.0663-2.2392-.9337-1.2912-1.9225-2.5413-2.711-3.9403-.45-.7983-.8515-1.6212-1.301-2.4194-.7158-1.2712-1.1045-2.686-1.6396-4.0365-.5759-1.4534-1.0934-2.93-1.6733-4.3817-.6385-1.5984-1.232-3.2102-1.6944-4.8692-.1581-.5672-.3225-1.1312-.5758-1.6692-.406-.8624-1.1372-1.441-1.7882-2.0837-.3623-.3576-.8166-.6193-1.3194-.7682-.1874-.0555-.3433-.018-.4448.1521-.0951.1593-.0349.2903.0978.4054.3728.3235.7018.693 1.0681 1.0255.284.2579.6594.5547.6787.9717.0178.3841.167.6735.3359.9883.175.326.2952.6813.4449 1.0213.1058.2402.0602.4802-.1514.5874-.2624.1329-.368.5655-.8049.3868-.8979-.3673-1.8008-.7264-2.7178-1.042-1.4301-.4924-2.7924-1.2271-4.4247-.868-1.2056.2652-2.4583.2833-3.6772.5543-.6068.135-1.1745.5501-1.8508.361-.0936-.0262-.1679.0761-.2422.1556-.9711 1.0379-1.873 2.1354-2.8053 3.2067-1.4325 1.646-2.8866 3.2729-4.2502 4.9768-.5085.6354-.9655 1.3097-1.4043 1.9987-.5914.9286-1.2243 1.8328-1.8787 2.7185-.3389.4587-.4955 1.0203-.8425 1.4537-1.2787 1.597-2.2012 3.3863-2.7215 5.3443-.3892 1.4646-.3623 3.0028-.4545 4.5189-.1148 1.8874.1308 3.7455.3762 5.5887.1695 1.2728.3592 2.5571.6032 3.8265.4272 2.222.8226 4.4494 1.2926 6.6639.3966 1.8688.9005 3.7079 1.3908 5.5509.5557 2.0891 1.2225 4.147 1.8306 6.221.4925 1.6799 1.0049 3.3558 1.4363 5.0554.4346 1.7125 1.0043 3.3905 1.4548 5.0994.4872 1.848 1.1192 3.6507 1.6399 5.4879.2774.9787.7103 1.9163.9486 2.9025.3236 1.3394.7229 2.6541 1.155 3.9572.548 1.6524 1.2315 3.2611 1.747 4.9226.6103 1.9672 1.213 3.938 1.7928 5.9142.5859 1.9962 1.1997 3.9846 1.7835 5.9819zm5.2789-97.0976c-.2348.0656-.5092-.0514-.765.1093-.1971.1238-.3228.2533-.2681.4879.0485.2084.144.3611.4025.3875.2673.0272.5274.1206.7924.177.2386.0508.4701.0679.6585-.1437.2006-.2253.076-.4405.006-.6655-.1342-.431-.5191-.2802-.8263-.3525z" fill="#f6d2d9"/><path d="m91.8464 36.0849c-.6795-1.3093-1.3927-2.6012-2.1941-3.8387-.5622-.8682-1.262-1.6347-1.9414-2.4166-.5412-.6229-.9488-1.3575-1.4981-1.9821-.5072-.5768-1.111-1.049-1.6785-1.559-.4496-.404-.997-.644-1.5959-.7739-1.7002-.3687-3.4141-.4683-5.154-.4406-1.3736.0219-2.7489-.0382-4.1218.0699-1.7314.1364-3.4633.268-5.194.4123-.6618.0552-1.3441.0036-1.982.1247-.9051.1718-1.8156.2206-2.7226.3296-2.131.2561-4.2705.454-6.3913.7762-1.1256.171-2.2943.2207-3.3501.7372-.6248.3057-1.057.8505-1.5725 1.2889-1.4062 1.1958-2.5676 2.6296-3.8019 3.9929-1.3849 1.5296-2.688 3.1278-3.9598 4.7491-1.4394 1.8348-2.9184 3.6366-4.2339 5.5733-.803 1.1821-1.6836 2.3237-2.3928 3.5611-.9068 1.5822-1.9286 3.0988-2.69 4.7689-.5354 1.1744-1.2074 2.2867-1.8205 3.4255-.725 1.3466-1.347 2.7431-2.0149 4.117-.7143 1.4695-1.2038 3.0252-1.8758 4.5121-.6077 1.3448-.8421 2.8335-.6457 4.3859.2105 1.6638.4363 3.3235.7654 4.9644.272 1.3565.7597 2.6609 1.1503 3.9889 1.1605 3.9457 2.599 7.7854 4.1399 11.5991.9901 2.4503 1.823 4.977 2.5168 7.5402.4763 1.7599 1.0261 3.4997 1.5207 5.2549.3858 1.369.7468 2.7441 1.0635 4.1324.4201 1.8417.946 3.6593 1.3626 5.5016.3196 1.4134.747 2.8062.9869 4.2306.2724 1.6172.5919 3.2341.6683 4.882.0147.3169.0962.6362.1558.95.3041 1.6007.0528 3.2069.0894 4.8093.0463 2.0246.143 4.0491-.0308 6.0726-.4482-.1288-.8831-.2862-1.2514-.5862-.0045-2.0104.0626-4.0239-.0337-6.0296-.0978-2.0371-.2524-4.0743-.5134-6.1025-.2188-1.6998-.5329-3.3826-.8325-5.0665-.1464-.8229-.4544-1.6309-.6354-2.4492-.4896-2.2131-1.0774-4.3969-1.6929-6.5765-.6442-2.2811-1.2052-4.5858-1.8601-6.8637-.3969-1.3805-.7612-2.7709-1.1578-4.1514-.3905-1.3593-.7735-2.7273-1.3349-4.012-1.0441-2.389-1.7395-4.8909-2.5488-7.3534-.9284-2.8248-1.9649-5.6218-2.6593-8.5166-.5827-2.4292-1.0027-4.8948-1.2891-7.3799-.0364-.3155.0478-.614.1122-.9139.4652-2.168 1.2031-4.2469 2.1524-6.2442.4755-1.0005.8641-2.0387 1.3399-3.0306.5586-1.1644 1.0546-2.3611 1.6822-3.4953.619-1.1186 1.1781-2.2705 1.754-3.4126.7016-1.3914 1.4911-2.7322 2.2714-4.0803 1.1175-1.9309 2.4329-3.7268 3.718-5.5404.6987-.9861 1.4953-1.9116 2.3044-2.8219.5444-.6125 1.1029-1.2174 1.5833-1.9049.9709-1.3893 2.1391-2.6388 3.1633-3.9934 1.1786-1.5589 2.5865-2.8806 4.0538-4.1498 1.185-1.025 2.5713-1.5088 4.1324-1.5709 1.915-.0762 3.8177-.3162 5.72-.5335 2.1124-.2414 4.2179-.5303 6.343-.6597 2.295-.1397 4.594-.2692 6.8775-.526 1.6318-.1835 3.2658-.1796 4.8959-.23 1.1919-.0368 2.4273.0237 3.577.3877.8344.2642 1.5737.7967 2.2899 1.315.8574.6205 1.5668 1.3904 2.2652 2.1889 1.1775 1.3461 2.0625 2.8711 2.9781 4.3883.6143 1.0179 1.2049 2.0513 1.8431 3.0532.5976.9382 1.0575 1.9498 1.6465 2.8918.5587.8934 1.076 1.8143 1.5791 2.7406.648 1.1932 1.2729 2.3993 1.8909 3.6085.6652 1.3012 1.2487 2.6406 2.0055 3.8994.657 1.0927 1.1848 2.2627 1.7794 3.3934.6412 1.2194 1.3328 2.4141 1.9307 3.6541.6364 1.32 1.3432 2.6016 2.0147 3.9021 1.0629 2.0586 2.179 4.0897 3.2484 6.145.728 1.3993 1.4101 2.8221 2.095 4.2436.7244 1.5036 1.4626 2.9997 2.133 4.5288.264.6022.4062 1.2519.7775 1.8181.1007.1535-.0222.5008-.1169.7281-.7137 1.7137-1.3831 3.4502-2.1915 5.1189-.7173 1.4807-1.561 2.8983-2.4693 4.2828-.9054 1.3801-1.7888 2.7778-2.7895 4.086-1.2197 1.5945-2.4825 3.1597-3.8221 4.6591-1.2028 1.3463-2.3525 2.7435-3.6098 4.0365-.8262.8497-1.7293 1.635-2.7037 2.3331-.9509.6813-1.8948 1.376-2.8386 2.0668-.9019.6601-1.8123 1.3167-2.7431 1.9408-1.0125.6789-1.9837 1.4217-3.0142 2.071-1.3526.8522-2.6828 1.7493-4.1308 2.4391-1.1145.5309-2.2625.9899-3.3913 1.4891-.6412.2836-1.3409.3921-2.0124-.2423-.4653-.4396-1.0719-.7484-1.5746-1.1893-.6225-.5459-1.0013-1.2068-1.2812-1.9583-.1497-.402-.4316-.7347-.4595-1.2111-.0127-.2166-.0618-.4099.0446-.6061.4356-.8028.8443-1.6187 1.3595-2.3791.4687-.6918.7429-1.4902 1.0798-2.2513.9592-2.1666 1.8127-4.3736 2.5474-6.6284.3589-1.1015.8309-2.1656 1.217-3.2589.3826-1.0833.7144-2.1844 1.0813-3.2734.7336-2.1775.9536-4.4511 1.2323-6.7096.1758-1.4244.2727-2.8614.3352-4.2958.0269-.617-.1133-1.2119-.4767-1.7879-.6354-1.007-1.3543-1.9647-1.894-3.0319-.1003-.1984-.2522-.2898-.4865-.307-1.1464-.0844-1.9125-.7682-2.5373-1.6569-.4249-.6043-.675-1.2708-.8336-1.9995-.1292-.5941-.5401-1.0695-.9909-1.4928-1.0229-.9606-1.7577-2.1422-2.5009-3.3154-.5783-.9129-1.1944-1.8059-1.7123-2.7522-.7445-1.3604-1.4563-2.7401-2.1756-4.1145-1.2582-2.4041-2.0587-4.9725-2.8977-7.5308-.0895-.2729-.2936-.3688-.5026-.4645-1.2523-.5735-2.4053-1.3347-3.7254-1.7932-1.1623-.4036-2.2232-1.0938-3.3785-1.5245-1.0902-.4065-2.2465-.2963-3.3697-.0149-1.1828.2964-2.3593.6178-3.5442.9055-.1385.0336-.2577.0536-.3536.1581-1.0254 1.117-2.0615 2.2243-3.0736 3.3532-1.3971 1.5584-2.7922 3.1273-3.9554 4.8679-.8472 1.2677-1.8731 2.3925-2.7062 3.6779-.7151 1.1032-1.396 2.2167-2.0673 3.3455-.4442.7469-.8634 1.5082-1.1887 2.2965-.3406.8253-.5024 1.7316-.6807 2.6149-.2401 1.1893-.1668 2.4006-.085 3.5988.0812 1.1886.2361 2.3738.4004 3.5547.2136 1.5351.4534 3.067.7113 4.5953.1495.886.364 1.7609.5357 2.6434.1992 1.0239.3633 2.0551.5787 3.0754.4726 2.2382.9565 4.4737 1.495 6.6979.4425 1.8275.9639 3.6325 1.4688 5.4418.3947 1.4145.8689 2.8072 1.3255 4.2038.8601 2.6307 1.7647 5.2472 2.5911 7.8883.7715 2.4655 1.3828 4.9836 2.218 7.4261.7816 2.2858 1.3017 4.6415 2.0503 6.932.4509 1.3795.9533 2.7421 1.4078 4.1205.4687 1.4216.9113 2.8518 1.3583 4.2805.538 1.7197 1.0684 3.4418 1.602 5.1625-.0154.0784-.014.2077-.1223.1778-.5084-.1403-1.0601-.1497-1.507-.482-.5838-1.9973-1.1975-3.9857-1.7835-5.9825-.5798-1.9761-1.1825-3.947-1.7928-5.9142-.5155-1.6615-1.199-3.2703-1.747-4.9226-.4321-1.3031-.8314-2.6178-1.155-3.9572-.2383-.9862-.6712-1.9238-.9486-2.9025-.5207-1.8372-1.1527-3.6399-1.6399-5.4879-.4505-1.7089-1.0202-3.3868-1.4548-5.0994-.4314-1.6996-.9437-3.3755-1.4363-5.0554-.6081-2.074-1.2749-4.1319-1.8306-6.221-.4902-1.843-.9941-3.6821-1.3908-5.5509-.47-2.2145-.8654-4.4419-1.2926-6.6639-.244-1.2693-.4338-2.5537-.6032-3.8265-.2454-1.8433-.491-3.7013-.3762-5.5887.0922-1.5161.0653-3.0543.4545-4.5189.5203-1.958 1.4427-3.7473 2.7215-5.3443.347-.4334.5036-.9951.8425-1.4537.6544-.8856 1.2873-1.7899 1.8787-2.7185.4388-.689.8958-1.3633 1.4043-1.9987 1.3636-1.7039 2.8178-3.3308 4.2502-4.9768.9323-1.0712 1.8342-2.1688 2.8053-3.2067.0744-.0795.1486-.1818.2422-.1556.6763.1892 1.244-.226 1.8508-.361 1.2188-.2711 2.4716-.2892 3.6772-.5543 1.6323-.3591 2.9946.3756 4.4247.868.917.3157 1.8199.6748 2.7178 1.042.437.1787.5426-.2539.8049-.3868.2116-.1072.2571-.3472.1514-.5874-.1497-.34-.2698-.6952-.4449-1.0213-.169-.3147-.3181-.6042-.3359-.9883-.0193-.4171-.3947-.7139-.6787-.9717-.3663-.3325-.6953-.702-1.0681-1.0255-.1327-.1151-.1929-.2461-.0978-.4054.1015-.1701.2574-.2076.4448-.1521.5028.1489.9571.4106 1.3194.7682.651.6427 1.3822 1.2213 1.7882 2.0837.2533.538.4177 1.1019.5758 1.6692.4624 1.659 1.0559 3.2708 1.6944 4.8692.5799 1.4517 1.0973 2.9284 1.6733 4.3817.5352 1.3505.9239 2.7654 1.6396 4.0365.4494.7981.851 1.621 1.301 2.4194.7885 1.399 1.7773 2.6491 2.711 3.9403.5965.8249 1.3826 1.4884 2.0663 2.2392.4369.4797.6153 1.1177.6966 1.758.1018.8019.2782 1.56.9846 2.0613.4239.3008.7822.1384.7974-.3608.0176-.5776.2501-1.1416.1035-1.7291-.0273-.1093.0406-.1923.1041-.2771.1678-.2243.2613-.49.2842-.7589.042-.4924.1684-.9478.3536-1.4089.4062-1.0116.4754-2.1552 1.0439-3.0938.542-.8948.2684-1.6351-.0473-2.5081-.536-1.4822-1.0782-2.9687-1.4275-4.5182-.2304-1.0219-.2339-2.0745-.4888-3.0826-.2995-1.1848-.2394-2.3811-.1426-3.5632.1124-1.3731.6151-2.6777.9179-4.0167.1725-.7629.7029-1.308.901-2.0275.0689-.2505.3835-.3018.5254-.5328.4341-.7063.8141-1.4509 1.3482-2.0909.9792-1.1732 2.1194-2.1345 3.6892-2.3485.924-.126 1.8447-.1719 2.6316-.7613.1376-.1031.2836-.1923.3623-.3383.2515-.4668.5938-.5019 1.0133-.2449.2831.3259.1692.6209-.0735.9028-.1667.1936-.327.3949-.5112.5708-.1802.1721-.1437.3359.047.4017.7315.2526.9865.9626 1.4501 1.4687.3486.3805.3968.8535.2791 1.3462-.167.6989-.329 1.399-.504 2.0959-.064.255-.1266.5212-.0106.7558.5061 1.0237.9945 2.0595 1.5653 3.047.5506.9527 1.3326 1.6751 2.4484 1.9503.2552.063.3803.2834.3546.5008-.0337.2848-.309.2201-.4976.1905-1.0391-.1632-1.9279-.6425-2.6768-1.3666-.5975-.5777-.9835-1.3012-1.2765-2.0718-.1171-.3079-.22-.4123-.5834-.235-.8797.4291-1.7976.6932-2.8164.5711-.5498-.0659-1.0976-.1934-1.6741-.1394-.55.0515-.8242-.2603-.9073-.8405-.0201-.1407-.0592-.2161-.1997-.2474-1.0692-.2378-1.6568-.9361-1.8858-1.9776-.033-.1498-.0846-.3588-.2455-.346-.2288.0182-.2541.2679-.2541.4446 0 1.4893.1953 2.9351.9755 4.2489.2239.377.5793.6496.7437 1.0863.099.2631.3738.5055.6292.6562 1.069.6309 2.1225 1.3006 3.3456 1.6188.2922.076.515.3564.4684.5862-.045.2221-.3863.2978-.6563.2412-.6162-.1291-1.2417-.22-1.81-.5271-.205-.1108-.4735-.2529-.6692-.2043-.624.155-1.0192.9676-1.0165 1.6469.0023.5782.2573 1.0384.4517 1.5375.3012.773.9264 1.2313 1.6064 1.6141.5005.2818 1.0312.5163 1.5648.7314.6616.2667 1.3252.5931 2.049.5801.3025-.0054.6246-.0519.7819.1759.1627.2356.1633.5517.0304.8773-.2238.5486-.6308 1.0552-.4689 1.7211.2383.9806.7928 1.8267 1.359 2.6014.469.6416 1.1223 1.2017 1.8179 1.6809 1.3355.9202 2.794 1.6207 4.184 2.4412 1.4597.8616 2.8312 1.823 4.0972 2.943.3403.3011.4607.8439 1.0463.922-.0232-.1982-.1-.3471-.2203-.5006-.3356-.428-.6967-.8462-.9634-1.3162-.8962-1.5796-2.2068-2.7949-3.513-4.0016-1.0734-.9916-2.2652-1.8544-3.352-2.8326-.4434-.399-.8608-.8673-1.0189-1.5017-.1576-.6326.0446-1.4095.6071-1.8221.4101-.3008.9209-.3805 1.5747.0128.7158.4306 1.1716 1.0932 1.3799 1.8362.2264.8072.5257 1.5478 1.0261 2.2049.6293.8264 1.3093 1.6047 2.0298 2.3609.6312.6625 1.3773 1.2025 1.9377 1.9499.7616 1.0157 1.3907 2.102 1.9879 3.211.3927.7293.8858 1.4336 1.1611 2.1905.6706 1.8433 1.0835 3.7673 1.3971 5.7106.1066.6604.1458 1.3287.1424 1.9789-.0058 1.1016-.1917 2.2009-.3883 3.2912-.1707.9467-.5372 1.8333-.8627 2.7265-.2636.7235-.6861 1.3892-1.0381 2.0806-.2354.5154-.7626.8848-.7608 1.5216.3234-.424.7595-.7749.8426-1.347.3685-.5095.7347-1.0206 1.106-1.528.4109-.5614.7064-1.1921 1.0706-1.7777.3289-.5288.7171-1.052.9305-1.6124.3288-.8634.7783-1.6604 1.1537-2.4953.6186-1.3756 1.4034-2.681 1.7389-4.1727.1153-.5126.174-1.0216-.1968-1.4889-.1308-.1648-.2049-.3982-.24-.611-.0968-.5865-.3348-1.104-.6655-1.5905-.6464-.9512-1.0162-2.0453-1.5411-3.06-.4197-.8113-.8612-1.6236-1.1881-2.4824-.2184-.5737-.5292-1.0989-.7889-1.6501-.4415-.9369-.8268-1.9006-1.2781-2.8325-.4672-.9646-.9508-1.9246-1.4909-2.8494-.4578-.784-.7902-1.6177-1.1216-2.4521-.4869-1.2259-1.3642-2.2457-1.8331-3.468-.4973-1.2963-1.3877-2.1918-2.5551-2.8594-.3671-.2099-.7609-.3674-1.1088-.6192-.2822-.2042-.1693-.435-.0671-.63.0991-.189.2902-.2756.5233-.1343.202.1224.4201.2194.6356.3178.1002.0458.2165.1637.3195.0344.0876-.11.0051-.2313-.059-.3297-.1674-.2573-.3685-.4955-.5118-.7649-.8956-1.683-1.7659-3.3796-2.671-5.0574-.6801-1.2606-1.4103-2.4929-2.0221-3.7919-.1633-.3467-.0749-.7589-.3552-1.0517-.5811-.6071-.9614-1.333-1.311-2.0911-.1725-.3738-.2731-.8171-.645-1.083zm13.0399 53.8347c-.0975.0165-.1998.0303-.2014.162-.0006.0484.0184.1028.0833.0775.1111-.0433.1117-.1457.1138-.244.0677-.0058.1412-.0077.1539-.0947.0025-.0171-.0396-.06-.0557-.0574-.0877.0141-.0807.0928-.0939.1566zm-6.7949-27.7698c.0142.0452.0283.0904.0425.1357.0135-.0092.0393-.0256.0387-.0265-.0232-.0394-.0487-.0773-.0739-.1155-.0131-.3167-.2459-.5449-.3302-.8461-.2013-.7195-.4878-1.4213-1.1796-1.847-.222-.1366-.3503-.2388-.5277.1153-.2169.4331.0745.6086.247.887.4487.7246 1.1384 1.1849 1.7832 1.6971zm-12.9335 16.9682c-.0887.7255-.1173 1.4646-.2782 2.1737-.3644 1.6056-.8154 3.1914-1.1907 4.7948-.339 1.4482-.6955 2.8898-1.1034 4.3207-.3125 1.0963-.5909 2.2021-.9531 3.2841-.5852 1.7482-1.2412 3.4669-1.9432 5.1738-.6107 1.4849-1.4124 2.8643-2.1012 4.304-.3744.7826-.8598 1.5123-1.2986 2.2638-.2546.436-.2527.8148.0395 1.2761.435.6867.9038 1.3521 1.2398 2.1126.2899.6563.6089.9857 1.523.6555.2404-.0868.4654-.2181.7079-.2972 1.5551-.5071 3.0128-1.2368 4.4884-1.929.6537-.3066 1.2036-.7766 1.8257-1.1098 2.0767-1.1123 4.0773-2.354 5.8883-3.8425 2.0491-1.6842 4.2001-3.249 5.9689-5.2811 1.1947-1.3725 2.4197-2.7027 3.4112-4.2352.9953-1.5383 2.0109-3.06 2.8582-4.6917.8095-1.5589 1.4578-3.1922 1.7893-4.8917.3347-1.7155-.1025-3.4447-.5056-5.136-.2239-.9395-.7634-1.7473-1.2572-2.5315-.447-.7099-1.1413-1.2944-1.8274-1.8337-1.1825-.9295-2.5847-1.4379-3.9337-2.0345-1.2765-.5646-2.6085-1.0027-3.91-1.5124-.9524-.373-1.9186-.7521-2.9168-.9142-1.9805-.3217-3.717-1.1272-5.1754-2.4571-1.0956-.999-1.9028-2.2608-2.6646-3.5341-.1309-.2187-.2591-.5702-.4599-.5585-.2934.0171-.2976.4154-.3735.6563-.3007.9549-.445 1.9902-.8308 2.8779-.5794 1.3334-.497 2.7328-.819 4.0777-.0274.1144-.0079.1958.0836.2695.3353.2702.5393.6348.7749.9897.6477.9758 1.3543 1.9128 2.0479 2.8576.1696.2311.3434.4873.576.6387.6213.4046.8181.7201.6678 1.3992-.1947.8791-.2599 1.7729-.3481 2.6645zm19.0454-6.2397c-.6368-.9573-1.2251-1.9313-2.0958-2.6228-1.0325-.82-1.9888-1.7226-3.1828-2.3762-1.4416-.7892-2.904-1.5613-4.2975-2.4525-.9095-.5817-1.8424-1.177-2.4082-2.0437-.5808-.8898-1.3777-1.7103-1.5719-2.8171-.1086-.6189-.4439-1.2353-.087-1.8937.1094-.2018.0076-.4473-.2678-.4285-.8525.058-1.5588-.3401-2.313-.6372-.7002-.2758-1.3256-.6051-1.9327-1.07-1.2342-.945-1.9922-2.1395-2.2049-3.6485-.1013-.7191-.1496-1.4698.2817-2.1682.1375-.2226.396-.5278.1096-.9127-.5339-.7176-1.022-1.4712-1.3394-2.322-.0636-.1705-.1595-.4608-.3736-.4144-.215.0466-.4322.2647-.4525.5139-.0782.9629-.3566 1.8978-.3445 2.8754.0147 1.1799.0875 2.3364.3793 3.4955.234.9297.2805 1.9026.5184 2.8478.3165 1.2581.6316 2.484 1.349 3.6.7416 1.1537 1.3579 2.3852 2.2053 3.4764.8786 1.1315 1.932 2.0323 3.2043 2.6943.3637.1892.7566.2812 1.122.459.6545.3185 1.3307.5921 1.9971.8861 1.0771.4752 2.1964.8293 3.3206 1.1723.9747.2974 1.9219.6685 2.8739 1.0342 1.7689.6795 3.4855 1.4208 4.9858 2.5991.1275.1.2476.2342.5246.1535zm-12.4343-30.9123c-.0587-2.625-1.9674-4.0016-4.467-3.1884-.7877.2563-1.4741.65-1.9828 1.3734-.259.3683-.5575.7022-.5382 1.1447.0573 1.3137.3566 2.5373 1.5609 3.3191.1194.0775.146.3652.3253.247.3935-.2596.738-.0353 1.0752.0689 1.6325.5043 3.7274-.3538 3.9536-2.2002.0311-.2539.049-.5096.073-.7645zm-61.7791 33.5672c.0027.6421.0027.6421.302.847.0052-.2976-.1627-.5013-.302-.847zm56.4347-30.2471c.0631-.027.1435-.0296.134-.1234-.005-.0494-.0258-.0945-.0948-.0833-.0904.0146-.163.0532-.1692.1501-.0011.0159.084.0374.13.0566zm17.8356 27.9194c.063.0402.1137.0726.1644.105.017-.041.0592-.0971.0457-.1198-.0284-.0473-.0862-.0769-.1319-.1138-.0222.0364-.0443.0728-.0782.1286zm-4.7403-22.778c-.0097.0116-.0195.0232-.0292.0348.0255.0118.0503.0262.077.0334.0063.0017.0192-.0211.029-.0327-.0255-.0119-.0511-.0238-.0768-.0355z" fill="#0c0c0c"/><path d="m105.9372 88.0427c.352-.6913.7745-1.357 1.0381-2.0806.3254-.8932.692-1.7798.8627-2.7265.1965-1.0902.3825-2.1895.3883-3.2912.0034-.6502-.0358-1.3185-.1424-1.9789-.3135-1.9433-.7265-3.8673-1.3971-5.7106-.2754-.7569-.7684-1.4613-1.1611-2.1905-.5972-1.1089-1.2263-2.1953-1.9879-3.211-.5604-.7474-1.3065-1.2875-1.9377-1.9499-.7205-.7561-1.4004-1.5345-2.0298-2.3609-.5005-.6572-.7998-1.3978-1.0261-2.2049-.2084-.743-.6642-1.4056-1.3799-1.8362-.6538-.3933-1.1646-.3136-1.5747-.0128-.5625.4126-.7647 1.1894-.6071 1.8221.1581.6345.5755 1.1027 1.0189 1.5017 1.0869.9782 2.2786 1.841 3.352 2.8326 1.3063 1.2067 2.6168 2.422 3.513 4.0016.2666.47.6278.8882.9634 1.3162.1203.1535.1972.3023.2203.5006-.5857-.0781-.706-.6209-1.0463-.922-1.2659-1.12-2.6375-2.0814-4.0972-2.943-1.39-.8205-2.8485-1.521-4.184-2.4412-.6955-.4793-1.3489-1.0393-1.8179-1.6809-.5662-.7747-1.1207-1.6208-1.359-2.6014-.1618-.6659.2451-1.1724.4689-1.7211.1328-.3256.1322-.6417-.0304-.8773-.1573-.2278-.4795-.1813-.7819-.1759-.7237.0129-1.3874-.3135-2.049-.5801-.5336-.2151-1.0643-.4496-1.5648-.7314-.6799-.3828-1.3051-.8411-1.6064-1.6141-.1945-.499-.4494-.9593-.4517-1.5375-.0027-.6793.3925-1.4919 1.0165-1.6469.1957-.0486.4643.0935.6692.2043.5683.3071 1.1938.398 1.81.5271.2701.0566.6113-.0192.6563-.2412.0466-.2299-.1762-.5103-.4684-.5862-1.2231-.3181-2.2767-.9879-3.3456-1.6188-.2554-.1507-.5302-.3932-.6292-.6562-.1644-.4368-.5198-.7093-.7437-1.0863-.7802-1.3138-.9754-2.7596-.9755-4.2489 0-.1767.0253-.4263.2541-.4446.1609-.0128.2125.1962.2455.346.2291 1.0414.8167 1.7398 1.8858 1.9776.1404.0312.1795.1067.1997.2474.0831.5802.3573.892.9073.8405.5765-.054 1.1243.0736 1.6741.1394 1.0189.1221 1.9367-.142 2.8164-.5711.3634-.1772.4663-.0729.5834.235.2929.7706.6789 1.4941 1.2765 2.0718.7489.724 1.6377 1.2034 2.6768 1.3666.1886.0296.4639.0943.4976-.1905.0257-.2174-.0993-.4379-.3546-.5008-1.1158-.2752-1.8978-.9977-2.4484-1.9503-.5708-.9875-1.0593-2.0232-1.5653-3.047-.116-.2347-.0534-.5008.0106-.7558.1749-.6969.3369-1.397.504-2.0959.1177-.4926.0696-.9657-.2791-1.3462-.4636-.506-.7186-1.2161-1.4501-1.4687-.1907-.0658-.2272-.2296-.047-.4017.1842-.1759.3445-.3772.5112-.5708.2427-.2818.3566-.5769.0735-.9028.1181-.0592.2362-.1183.3543-.1775.3719.2659.4726.7091.6454 1.0839.3497.7581.7299 1.484 1.311 2.0911.2803.2929.1919.705.3552 1.0517.6119 1.299 1.3421 2.5312 2.0221 3.7919.9051 1.6778 1.7754 3.3744 2.671 5.0574.1434.2694.3445.5077.5118.7649.0641.0985.1466.2197.059.3297-.1029.1293-.2193.0114-.3195-.0344-.2155-.0984-.4336-.1953-.6356-.3178-.2331-.1413-.4242-.0547-.5233.1343-.1022.195-.215.4258.0671.63.3479.2518.7417.4092 1.1088.6192 1.1674.6677 2.0578 1.5631 2.5551 2.8594.4689 1.2223 1.3462 2.2421 1.8331 3.468.3314.8344.6638 1.6681 1.1216 2.4521.54.9249 1.0237 1.8848 1.4909 2.8494.4513.9319.8367 1.8955 1.2781 2.8325.2597.5512.5705 1.0765.7889 1.6501.3269.8588.7684 1.671 1.1881 2.4824.5249 1.0148.8947 2.1089 1.5411 3.06.3307.4866.5687 1.004.6655 1.5905.0351.2128.1092.4462.24.611.3708.4673.3122.9762.1968 1.4889-.3356 1.4917-1.1204 2.7971-1.7389 4.1727-.3754.8349-.8249 1.6319-1.1537 2.4953-.2134.5604-.6017 1.0836-.9305 1.6124-.3642.5856-.6598 1.2163-1.0706 1.7777-.3713.5074-.7376 1.0185-1.1061 1.5277-.027-.0583-.0543-.1164-.0815-.1744z" fill="#a45773"/><path d="m59.7571 38.6892c.3072.0723.6921-.0785.8262.3524.07.225.1946.4402-.006.6655-.1884.2116-.4199.1945-.6585.1437-.265-.0564-.5251-.1498-.7924-.177-.2584-.0263-.354-.1791-.4025-.3875-.0546-.2346.0711-.3641.2681-.4879.2559-.1606.5302-.0436.7651-.1092z" fill="#1b1818"/><path d="m85.1579 79.118c.0881-.8916.1534-1.7854.348-2.6645.1503-.6791-.0464-.9946-.6678-1.3992-.2326-.1515-.4063-.4076-.576-.6387-.6935-.9449-1.4001-1.8819-2.0479-2.8576-.2356-.3549-.4396-.7195-.7749-.9897-.0915-.0737-.111-.1551-.0836-.2695.322-1.3449.2396-2.7443.819-4.0777.3857-.8877.5301-1.923.8308-2.8779.0759-.2409.0801-.6392.3735-.6563.2007-.0117.329.3398.4599.5585.7618 1.2733 1.569 2.5351 2.6646 3.5341 1.4584 1.3299 3.1949 2.1354 5.1754 2.4571.9981.1621 1.9644.5412 2.9168.9142 1.3014.5096 2.6334.9478 3.91 1.5124 1.3489.5966 2.7512 1.105 3.9337 2.0345.6861.5393 1.3804 1.1238 1.8274 1.8337.4938.7842 1.0333 1.5921 1.2572 2.5315.4031 1.6913.8403 3.4205.5056 5.136-.3316 1.6996-.9799 3.3328-1.7893 4.8917-.8472 1.6316-1.8629 3.1533-2.8582 4.6917-.9915 1.5325-2.2165 2.8627-3.4112 4.2352-1.7687 2.0321-3.9198 3.5969-5.9689 5.2811-1.811 1.4885-3.8115 2.7302-5.8883 3.8425-.6221.3332-1.172.8031-1.8257 1.1098-1.4756.6922-2.9333 1.4219-4.4884 1.929-.2425.0791-.4675.2103-.7079.2972-.9141.3301-1.2331.0008-1.523-.6555-.3359-.7605-.8048-1.4259-1.2398-2.1126-.2922-.4613-.2941-.8401-.0395-1.2761.4388-.7515.9242-1.4812 1.2986-2.2638.6888-1.4397 1.4904-2.8191 2.1012-4.304.702-1.7068 1.358-3.4255 1.9432-5.1738.3622-1.082.6406-2.1878.9531-3.2841.4079-1.4309.7645-2.8726 1.1034-4.3207.3753-1.6033.8263-3.1891 1.1907-4.7948.1611-.7091.1897-1.4482.2783-2.1737z" fill="#a75775"/><path d="m104.2033 72.8783c-.277.0807-.3972-.0535-.5247-.1536-1.5004-1.1783-3.2169-1.9196-4.9858-2.5991-.952-.3657-1.8992-.7368-2.8739-1.0342-1.1241-.3431-2.2434-.6971-3.3206-1.1723-.6664-.294-1.3427-.5676-1.9971-.8861-.3654-.1778-.7583-.2698-1.122-.459-1.2723-.6619-2.3256-1.5628-3.2043-2.6943-.8474-1.0912-1.4637-2.3227-2.2053-3.4764-.7174-1.116-1.0325-2.342-1.349-3.6-.2378-.9452-.2844-1.9181-.5184-2.8478-.2917-1.1591-.3646-2.3156-.3793-3.4955-.0122-.9776.2663-1.9125.3445-2.8754.0202-.2492.2374-.4673.4525-.5139.2141-.0463.3099.2439.3736.4144.3175.8508.8056 1.6043 1.3394 2.322.2863.3849.0278.6901-.1096.9127-.4313.6984-.383 1.4492-.2817 2.1682.2127 1.509.9707 2.7036 2.2049 3.6485.6072.4649 1.2326.7943 1.9327 1.07.7543.2971 1.4605.6951 2.313.6372.2755-.0187.3773.2267.2678.4285-.3569.6583-.0215 1.2748.087 1.8937.1942 1.1069.9911 1.9273 1.5719 2.8171.5658.8668 1.4987 1.4621 2.4082 2.0437 1.3935.8912 2.8559 1.6633 4.2975 2.4525 1.194.6536 2.1503 1.5562 3.1828 2.3762.8709.6916 1.4592 1.6656 2.0959 2.6229z" fill="#493c4f"/><path d="m91.769 41.966c-.024.2549-.0419.5106-.073.7646-.2262 1.8464-2.3211 2.7045-3.9536 2.2002-.3372-.1041-.6818-.3285-1.0752-.0689-.1793.1183-.2059-.1694-.3253-.247-1.2043-.7819-1.5036-2.0055-1.5609-3.3191-.0193-.4425.2793-.7765.5382-1.1447.5087-.7234 1.195-1.1171 1.9828-1.3734 2.4996-.8132 4.4083.5633 4.467 3.1883zm-4.1021 1.7951c.3154.1813.5238-.1065.785-.2683.378-.234.6824-.5829.6153-.9907-.0778-.4728.0082-1.0234-.3868-1.4134-.4152-.41-1.3034-.4368-1.8169-.067-.5427.3908-.6968 1.103-.3748 1.7018.0472.0878.0633.1926.0915.2902.1578.5476.4711.7748 1.0867.7474z" fill="#e87c3f"/><path d="m98.0913 62.1499c-.6446-.5123-1.3344-.9726-1.783-1.6971-.1724-.2785-.4639-.4539-.247-.887.1774-.3542.3057-.2519.5277-.1153.6919.4257.9784 1.1274 1.1796 1.847.0842.3012.317.5294.3302.8461z" fill="#443949"/><path d="m105.9372 88.0427c.0272.058.0545.1161.0818.1744-.0831.5723-.5191.9232-.8425 1.3472-.0019-.6368.5253-1.0061.7607-1.5216z" fill="#463139"/><path d="m29.9899 75.5332c.1393.3457.3071.5493.302.847-.2993-.2048-.2993-.2048-.302-.847z" fill="#343234"/><path d="m86.4246 45.2861c-.046-.0192-.1311-.0406-.13-.0566.0062-.0969.0788-.1355.1692-.1501.069-.0111.0897.0339.0948.0833.0094.0938-.0709.0964-.134.1234z" fill="#a45773"/><path d="m104.2602 73.2055c.0339-.0558.056-.0922.0781-.1286.0457.0369.1036.0665.1319.1138.0136.0227-.0287.0788-.0457.1198-.0506-.0323-.1013-.0647-.1643-.105z" fill="#493c4f"/><path d="m104.8819 89.9151c-.002.0983-.0026.2007-.1137.244-.0648.0253-.0838-.0291-.0833-.0775.0016-.1317.1039-.1455.2014-.162z" fill="#463139"/><path d="m104.8863 89.9196c.0131-.0638.0062-.1425.0938-.1565.0161-.0026.0582.0403.0557.0574-.0127.087-.0861.0889-.1539.0946z" fill="#463139"/><path d="m99.52 50.4274c.0256.0118.0512.0237.0768.0356-.0098.0115-.0227.0343-.029.0327-.0267-.0071-.0515-.0216-.077-.0334.0097-.0116.0194-.0232.0292-.0349z" fill="#a45773"/><path d="m98.0988 62.1434c.0252.0382.0507.0761.0739.1155.0005.0009-.0253.0173-.0387.0265-.0142-.0452-.0283-.0904-.0426-.1356z" fill="#443949"/><path d="m87.6669 43.7611c-.6156.0275-.9289-.1998-1.0867-.7474-.0281-.0976-.0443-.2024-.0915-.2902-.3219-.5988-.1679-1.311.3748-1.7018.5135-.3698 1.4017-.343 1.8169.067.395.3901.309.9406.3868 1.4134.0672.4078-.2372.7567-.6153.9907-.2613.1618-.4696.4496-.785.2683zm.4671-1.1693c-.1059-.1757-.1559-.4025-.458-.4322-.4185-.041-.212.3013-.2754.4496-.1233.2882.1656.2547.3227.2873.2162.045.3503-.0638.4107-.3047z" fill="#131110"/><path d="m88.134 42.5918c-.0603.2409-.1945.3497-.4106.3048-.1571-.0327-.446.0009-.3227-.2873.0634-.1483-.1432-.4906.2754-.4496.3019.0296.3519.2564.4579.4321z" fill="#d6d5d6"/></svg>