<svg enable-background="new 0 0 141.8317 141.7802" viewBox="0 0 141.8317 141.7802" xmlns="http://www.w3.org/2000/svg"><path d="m0 70.2181c.1898 19.5116 6.6117 35.9753 19.6375 49.6226 13.0375 13.6595 29.1934 21.057 48.0787 21.8645 20.2272.8649 37.8853-5.7641 52.4759-19.8109 13.4937-12.9907 20.7689-29.0628 21.5654-47.7922.8595-20.2094-5.761-37.8525-19.785-52.4358-12.9965-13.5149-29.0835-20.7983-47.8322-21.5926-20.2091-.8562-37.8671 5.7515-52.4289 19.7972-14.3591 13.8504-21.4244 31.0067-21.7114 50.3472z" fill="#fff"/><path d="m0 70.2181c.287-19.3405 7.3523-36.4968 21.7114-50.3472 14.5618-14.0457 32.2198-20.6534 52.4289-19.7972 18.7487.7943 34.8357 8.0777 47.8323 21.5926 14.024 14.5833 20.6445 32.2264 19.785 52.4358-.7965 18.7294-8.0717 34.8015-21.5654 47.7922-14.5906 14.0467-32.2487 20.6758-52.4759 19.8109-18.8853-.8076-35.0412-8.2051-48.0787-21.8645-13.0259-13.6472-19.4478-30.111-19.6376-49.6226zm129.5673-31.2157.0036.0045c.0015-.0891-.0198-.1668-.1067-.2113l.0043.0066c-.0045-.0865-.0186-.1681-.1071-.2122l.0041.0064c-.0042-.0865-.0181-.1681-.1068-.2119l.0038.006c-.0036-.0866-.0171-.1682-.1066-.2116l.0038.0056c-.0019-.1526-.0853-.2523-.2107-.3247-1.1222-1.8742-2.2522-3.7434-3.5042-5.5354-.0324-.0683-.0649-.1366-.0974-.2049-.3288-.4528-.6452-.9152-.9886-1.3565-.9919-1.2747-1.9672-2.5642-3.0072-3.7989-.3975-.4719-.711-1.0522-1.3096-1.3367-.0821-.3794-.3701-.5929-.653-.8104-.1642-.2258-.3104-.473-.6227-.5223-.0271-.2201-.1488-.3868-.3022-.5356-.5194-.561-1.0976-1.0614-1.645-1.592-1.4488-1.4044-2.9573-2.7383-4.5413-3.9841-.5114-.4022-.9403-.9522-1.6345-1.0882-.4311-.6476-1.1399-.9551-1.7277-1.4106-.9908-.6549-1.9635-1.3397-2.9785-1.9547-.7203-.4364-1.4054-.9427-2.1997-1.2517-.1749-.1024-.3496-.2051-.5246-.3072-3.2898-1.92-6.7794-3.3937-10.365-4.6567-3.0819-1.0856-6.237-1.8973-9.4416-2.5133-.8156-.1568-1.6323-.3689-2.477-.3444-.4636-.2264-.9675-.1967-1.4614-.2304-.8388-.1631-1.6853-.2586-2.5391-.2904-.8045-.204-1.64.0211-2.4449-.1769-.2049-.0094-.4098-.0264-.6148-.0272-3.4483-.0134-6.8986-.0726-10.3274.4076-.1468-.0077-.2791.034-.3993.1171-.2212-.0018-.4474-.0348-.6629-.0006-2.0844.331-4.1708.6534-6.2202 1.1705-.6272.1439-1.2631.2537-1.8681.4832-.3971-.0241-.7787.0693-1.151.1832-2.0686.6325-4.1357 1.2722-6.1475 2.0715-2.2054.8762-4.3839 1.8068-6.4698 2.9541-2.1728 1.195-4.3446 2.3902-6.4235 3.742-1.9214 1.2493-3.7518 2.6248-5.5089 4.0998-2.2406 1.8809-4.4203 3.8191-6.4028 5.9808-1.3872 1.5126-2.7327 3.0555-4.02 4.6526-2.3906 2.966-4.4144 6.1724-6.206 9.5244-1.5486 2.8975-2.9006 5.8885-4.0326 8.9765-.753 2.0542-1.4328 4.1354-1.9546 6.2561-.5692 2.3137-.9901 4.6604-1.3032 7.0296-.2681 2.0285-.5 4.0627-.5554 6.099-.0646 2.3747-.1013 4.7553.0559 7.1356.1203 1.82.2969 3.6292.5134 5.4395.2839 2.3737.7108 4.7218 1.3035 7.029 1.0302 4.0102 2.4444 7.8947 4.202 11.6458 1.4241 3.0392 3.0344 5.9807 4.8743 8.7901 2.2921 3.4999 4.9717 6.6917 7.8488 9.7192 1.3791 1.4512 2.8729 2.7843 4.3869 4.0951 2.2774 1.9715 4.6576 3.7998 7.1941 5.4303 3.6807 2.366 7.5497 4.3691 11.6014 6.0039 3.1511 1.2714 6.375 2.3357 9.7001 3.0852 3.3304.7506 6.7039 1.1829 10.0969 1.4791 1.4813.1293 2.9716.1326 4.4605.1166 1.8303-.0197 3.6638.0518 5.4891-.115 2.0329-.1857 4.0651-.3926 6.0818-.7168 1.834-.2948 3.6608-.6393 5.4562-1.1154 2.9904-.793 5.9118-1.7927 8.7734-2.9756 2.8508-1.1786 5.6091-2.5421 8.2796-4.0775 3.0722-1.7663 5.9874-3.7636 8.6968-6.0588 2.2059-1.8686 4.3663-3.7764 6.3272-5.9113 1.4-1.5242 2.7589-3.078 4.0555-4.6898 2.4201-3.0083 4.4675-6.259 6.2762-9.6614 1.5183-2.8561 2.8473-5.8003 3.9622-8.8394.7593-2.0699 1.4443-4.1672 1.9673-6.3057.6919-2.8291 1.1828-5.6981 1.4892-8.601.1592-1.5082.3401-3.0205.3616-4.5287.0414-2.9049.1167-5.8129-.1623-8.7181-.1709-1.7798-.3661-3.5533-.6238-5.3221-.4733-3.2494-1.2491-6.4257-2.278-9.5404-.8524-2.5804-1.8462-5.1078-2.9935-7.5713-.3072-.6595-.5628-1.3549-1.0343-1.9295l.015-.0056c.0034-.0894-.0107-.1699-.1056-.2099l.0028.0041c.0033-.0894-.011-.17-.1057-.21l.003.0045c.003-.0894-.0115-.17-.1059-.2104l.0031.0048c.0032-.0895-.0113-.1701-.1059-.2104l.003.0047c.0036-.0896-.011-.1701-.1057-.2103l.0028.0044c.0037-.0896-.011-.1699-.1057-.21l.0027.0043c.0037-.0895-.0108-.1699-.1054-.2101l.0027.0068c-.004-.1711-.0661-.3144-.2026-.422l.0035.0044c-.0354-.0359-.071-.0715-.1066-.1072z" fill="#5f6066"/><path d="m130.5778 40.97c.4717.5747.7273 1.2701 1.0345 1.9297 1.1474 2.4635 2.1411 4.9909 2.9935 7.5713 1.0289 3.1147 1.8047 6.291 2.278 9.5404.2577 1.7688.4529 3.5423.6238 5.3221.279 2.9052.2037 5.8132.1623 8.7181-.0215 1.5081-.2024 3.0205-.3616 4.5287-.3064 2.9028-.7973 5.7718-1.4892 8.601-.523 2.1385-1.2079 4.2357-1.9673 6.3057-1.1148 3.039-2.4439 5.9833-3.9622 8.8394-1.8087 3.4024-3.8562 6.6531-6.2762 9.6614-1.2966 1.6117-2.6555 3.1655-4.0555 4.6898-1.9609 2.135-4.1213 4.0428-6.3272 5.9113-2.7095 2.2952-5.6246 4.2925-8.6968 6.0588-2.6706 1.5354-5.4288 2.899-8.2796 4.0775-2.8616 1.183-5.783 2.1826-8.7734 2.9756-1.7954.4761-3.6222.8206-5.4562 1.1154-2.0167.3242-4.0489.531-6.0818.7168-1.8252.1668-3.6588.0953-5.4891.115-1.4889.016-2.9792.0128-4.4605-.1166-3.393-.2962-6.7665-.7285-10.0969-1.4791-3.3251-.7494-6.549-1.8137-9.7001-3.0852-4.0516-1.6348-7.9207-3.6379-11.6014-6.0039-2.5365-1.6305-4.9168-3.4587-7.1941-5.4303-1.5141-1.3108-3.0078-2.6439-4.3869-4.0951-2.877-3.0274-5.5567-6.2193-7.8488-9.7192-1.8399-2.8095-3.4502-5.7509-4.8743-8.7901-1.7577-3.751-3.1719-7.6356-4.202-11.6458-.5927-2.3072-1.0196-4.6553-1.3035-7.029-.2165-1.8104-.3931-3.6195-.5134-5.4395-.1573-2.3802-.1206-4.7609-.0559-7.1356.0554-2.0363.2873-4.0705.5554-6.099.3131-2.3692.734-4.7159 1.3032-7.0296.5218-2.1207 1.2015-4.2019 1.9546-6.2561 1.132-3.088 2.484-6.079 4.0326-8.9765 1.7915-3.3519 3.8153-6.5584 6.206-9.5244 1.2873-1.5972 2.6328-3.14 4.02-4.6526 1.9825-2.1617 4.1623-4.0999 6.4028-5.9808 1.757-1.475 3.5875-2.8504 5.5089-4.0998 2.0789-1.3518 4.2507-2.5469 6.4235-3.742 2.0859-1.1473 4.2644-2.0778 6.4698-2.9541 2.0118-.7993 4.0789-1.439 6.1475-2.0715.3723-.1139.7539-.2073 1.151-.1834-.0305.0608-.0557.1251-.0921.1822-1.7092 2.6782-3.2583 5.4516-4.8114 8.2198-1.0903 1.9432-2.1103 3.9344-3.0232 5.9664-1.0326 2.2985-2.2886 4.5028-3.0273 6.9298-.0747.2454-.174.3058-.446.2216-.4704-.1456-.9593-.2499-1.4481-.3139-1.2701-.1663-2.5709-.1004-3.8069-.5243-.3129-.1073-.5619.0445-.6747.3168-.1676.4048-.3553.7954-.4004 1.2592-.0914.9404-.0612 1.8752-.0516 2.8149.0131 1.2848.1531 2.5596.328 3.8243.2001 1.4465.4035 2.8933.7108 4.3293.3165 1.4789.6417 2.9345 1.2991 4.3026.1104.2297.1679.4558.0629.735-.5343 1.4203-.8162 2.9168-1.0561 4.3986-.3114 1.9237-.65 3.8475-.8317 5.7959-.0963 1.0329-.1886 2.074-.2873 3.1063-.2069 2.1636-.322 4.3373-.3216 6.52.0004 1.9218-.0636 3.8489-.1961 5.7728-.2276 3.3037-.2989 6.618-.6505 9.9139-.1444 1.3536-.2596 2.7123-.4656 4.0568-.2707 1.7671-.6214 3.5188-1.0512 5.2591-.4071 1.6488-.6348 3.3457-1.5691 4.8138-.3687.5794-.5675 1.1802-.5349 1.8717.0765 1.6216.2768 3.2127.7331 4.7849.3406 1.1736.6186 2.3747.9697 3.5428.4557 1.516 1.2237 2.919 2.1073 4.2425.3359.5032.5927 1.0522 1.1357 1.419.862.5822 1.3953.0347 1.5169-.7331.0313-.1974.0161-.4137-.0284-.6098-.3674-1.6217-.8274-3.2225-1.1061-4.8642-.1364-.8036-.2674-1.6087-.3681-2.4172-.0244-.1961-.1446-.5362.2547-.5479 1.1977-.0351 2.3411-.4133 3.5283-.5303 1.4864-.1464 2.9146-.6098 4.3659-.9426.3681-.0844.5793-.0999.7803.2728.1901.3524.4396.6995.74.9602.6322.5486 1.3003 1.0201 2.1251 1.3162.8135.2921 1.5553.4199 2.3533.0769.6939-.2982 1.2476-.7881 1.5503-1.4581.1618-.3581.3093-.4488.6361-.3595.4038.1104.7933.0794 1.1118-.1934.3371-.2888.7035-.5796.9359-.9464.4288-.6769.948-1.1455 1.6767-1.5453 1.0629-.5831 2.123-1.2191 3.0606-2.0217.3811-.3262.754-.7183 1.2815-.7969.5794-.0863 1.1108-.2988 1.65-.5035 1.0191-.3869 2.073-.6696 3.0882-1.0753 1.3148-.5255 2.6377-1.0551 3.9982-1.4363 1.9771-.554 3.8314-1.4127 5.6963-2.2228 1.4997-.6515 2.9264-1.4934 4.3488-2.3259 1.5707-.9193 3.2164-1.7126 4.8557-2.5115 1.0935-.533 2.2653-.9206 3.2478-1.6715.0842-.0644.2011-.1105.2862-.0479.1243.0913.0388.221-.0033.3265-.3418.8569-.6405 1.7304-1.0714 2.5518-.4654.8872-.9093 1.7862-1.3399 2.6908-.3656.7681-.6468 1.5803-1.057 2.3224-.8984 1.6252-1.6648 3.3216-2.6906 4.8796-.5774.877-1.0507 1.8225-1.5738 2.7355-.4727.825-.847 1.694-.7843 2.6591.1065 1.6396.4967 3.2347.9514 4.8056.7301 2.5222 1.3245 5.0882 2.3543 7.5176.6386 1.5066.991 3.121 1.751 4.5846.5733 1.1041 1.0802 2.2425 1.6426 3.3525.7891 1.5573 1.7927 2.9678 2.9385 4.2864.4937.5681 1.0561.9961 1.735 1.304.2657.1205.4842.0633.6554-.1009.2218-.2129.4719-.5135.3129-.8149-.476-.902-.6015-1.9222-1.006-2.8371-.3854-.8716-.8253-1.72-1.1793-2.6075-.3009-.7543-.7968-1.4164-.9219-2.261-.0725-.4892.0078-.8027.369-1.1246 1.5128-1.3476 3.0569-2.6658 4.4919-4.0931 1.0701-1.0644 2.148-2.124 3.214-3.1933 2.0497-2.056 3.9538-4.236 5.7539-6.5072.7704-.972 1.5271-1.9568 2.2472-2.9724.7057-.9953 1.5198-1.9323 2.1879-2.9515.9195-1.4026 1.9618-2.7104 2.9211-4.0805 1.4893-2.1271 3.0352-4.2147 4.3948-6.4304 1.8491-3.0134 3.5597-6.1028 5.1161-9.2776.6916-1.4106 1.4104-2.8072 2.0734-4.2326.7566-1.6264 1.4068-3.2917 2.0226-4.9747.7082-1.936 1.5515-3.8268 2.1744-5.7886.7459-2.3493 1.3031-4.7579 1.9748-7.1316.6056-2.14.9396-4.3329 1.3188-6.5162.2883-1.6602.5083-3.3319.8002-4.9927.1671-.9513.3485-1.914.226-2.8936z" fill="#944a27"/><path d="m125.4449 32.3243c1.252 1.792 2.382 3.6612 3.5042 5.5355.003.152.0591.2693.2107.3246l-.0038-.0056c-.0039.0904.0137.1699.1066.2116l-.0038-.006c-.0024.0898.0154.1694.1068.2119l-.0041-.0064c-.001.0893.0165.1692.1071.2122l-.0043-.0066c.0004.0882.0163.1686.1067.2113l-.0036-.0045c.0356.0357.0712.0714.1068.1071l-.0035-.0044c.0076.1425.0152.2849.0228.4274-.0584 1.5854-.3473 3.1448-.5384 4.715-.109.8958-.2954 1.7824-.396 2.6789-.2455 2.1869-.6543 4.3465-1.1181 6.4928-.338 1.564-.8287 3.0944-1.2114 4.6495-.3421 1.3899-.7312 2.7643-1.165 4.1279-.5316 1.6711-1.3173 3.2405-1.9589 4.8671-.3949 1.0014-.8866 1.9847-1.359 2.965-.799 1.6582-1.5616 3.3324-2.4729 4.9345-.5809 1.0212-1.2141 2.0119-1.731 3.0709-.7462 1.5288-1.6239 2.9867-2.4905 4.4489-.8964 1.5126-1.8477 2.993-2.7276 4.515-.6656 1.1514-1.3936 2.267-2.0438 3.4219-.7471 1.3271-1.5965 2.5752-2.4573 3.8233-.6295.9126-1.2538 1.8311-1.83 2.7776-.8435 1.3856-1.7341 2.7375-2.709 4.0329-1.2811 1.7021-2.5954 3.3781-4.0339 4.9519-.7091.7758-1.3909 1.583-2.1579 2.2978-.8349.778-1.6734 1.5589-2.4909 2.35-1.216 1.1768-2.4799 2.2987-3.7098 3.4584-.9048.853-1.7022 1.8158-2.7382 2.5366-.2951.2053-.7393.4802-.6015.972.1746.6229.4175 1.2269.6351 1.8376.3791 1.0638.9763 2.0268 1.4211 3.0586.2769.6424.7267 1.2154.864 2.025-.4857-.3656-.7758-.7616-1.0786-1.1764-1.4246-1.9516-2.5232-4.0864-3.6031-6.2337-.5143-1.0227-.854-2.1172-1.2831-3.175-.5457-1.3452-1.1083-2.6896-1.4054-4.1138-.6269-3.0046-1.1639-6.0261-1.4424-9.0864-.0328-.3603-.1131-.7321.1303-1.0903.5359-.7882.9898-1.6173 1.3873-2.494 1.1241-2.4792 2.3156-4.9286 3.5158-7.3725 1.2322-2.5091 2.3325-5.0753 3.4192-7.6487.7678-1.8181 1.5181-3.6425 2.2319-5.4829.722-1.8613 1.4639-3.7141 2.1131-5.6029.3759-1.0936.7824-2.1766 1.1751-3.2644.3472-.0529.6141-.2889.9311-.4089.3594-.136.7635-.2539 1.0391.0869.2495.3085.5835.5217.8187.8269.2321.3011.3525.2429.4902-.057.27-.5883.5497-1.1721.8226-1.759.3569-.7677.7112-1.5367 1.0666-2.3051.2561.0127.2949-.2007.3662-.3661.3857-.8945.706-1.8231 1.1616-2.6801.5328-1.0023.8317-2.0909 1.2921-3.1189.5073-1.1328.8786-2.326 1.324-3.4871.457-1.1913.9682-2.3608 1.4022-3.5622.38-1.0519.7046-2.125 1.1086-3.1644.4805-1.2363.8655-2.5064 1.3767-3.7303.526-1.2596.8807-2.5709 1.2139-3.8929.3367-1.3361.7-2.6694.8816-4.0328.2248-1.6874.2555-3.3917.1346-5.0931-.0373-.5251-.1092-1.0486-.1865-1.5697-.2068-1.393-.6738-2.6991-1.3486-3.9325-.096-.1755-.0964-.3488-.0684-.5443.2084-1.454.4015-2.9102.6058-4.3648.1424-1.0137.3193-2.0236.2759-3.0541-.0072-.1718.0078-.3435.1028-.4963.6942.136 1.1231.686 1.6345 1.0882 1.584 1.2458 3.0924 2.5796 4.5413 3.9841.5474.5306 1.1256 1.031 1.645 1.5922-.2804.4941-.098 1.0233-.1313 1.5375-.1023 1.5824-.2789 3.16-.3827 4.7423-.1039 1.5852-.381 3.1482-.5427 4.7257-.1874 1.8283-.6145 3.6167-.9575 5.4192-.3349 1.7599-.9103 3.4562-1.341 5.1908-.4132 1.6641-.8459 3.3277-1.3342 4.9688-.4813 1.6175-.876 3.2611-1.4567 4.8531-.8384 2.2981-1.5704 4.6348-2.3775 6.9446-.5108 1.4618-1.0799 2.9031-1.6154 4.3563-.5953 1.6156-1.1436 3.2497-1.7828 4.8476-.7419 1.8548-1.5451 3.6857-2.3551 5.5122-.2431.5482-.2408 1.0565-.0408 1.7183.1507-.2714.2535-.4423.3429-.6199.4432-.8809.853-1.7803 1.334-2.6399.3416-.6105.6276-1.2431.924-1.8731.6908-1.4684 1.3048-2.9735 1.9904-4.4408 1.1806-2.5263 2.1632-5.1293 3.1936-7.7135.7161-1.796 1.3064-3.6419 1.9713-5.4587.5612-1.5334 1.018-3.0967 1.4642-4.6667.4522-1.5914.8-3.2089 1.2805-4.7937.3801-1.2537.6598-2.5393.9477-3.8189.3775-1.6784.9003-3.3229 1.139-5.0343.2287-1.6398.4866-3.2752.6593-4.9229.1185-1.131.2979-2.256.4034-3.388.1109-1.19.1661-2.3851.2456-3.578.5985.2845.9121.8648 1.3096 1.3367 1.04 1.2347 2.0153 2.5241 3.0072 3.7989.3434.4414.6599.9038.9887 1.3565-.1449.0932-.094.2395-.1052.3719-.0532.6265-.1218 1.2519-.1655 1.879-.0698 1.0009-.1075 2.0043-.1906 3.0041-.0608.732-.0272 1.4651-.0944 2.1986-.096 1.0483-.3159 2.086-.3547 3.1319-.0382 1.0302-.2017 2.0383-.3646 3.0433-.3379 2.0844-.6531 4.1735-1.0862 6.2424-.4931 2.3555-1.0793 4.6885-1.9093 6.9448-.6143 1.6698-1.0334 3.4004-1.6828 5.0563-.3676.9373-.6647 1.9079-1.0468 2.8314-.4874 1.1779-1.0243 2.3447-1.6241 3.4814-1.0297 1.9513-1.9534 3.9585-2.929 5.9386-.413.8382-.8459 1.6666-1.2675 2.5005-.4072.8054-.7856 1.6266-1.2232 2.415-.604 1.0884-1.1451 2.2096-1.7917 3.2766-.9169 1.513-1.7187 3.098-2.6759 4.5839-1.2397 1.9243-2.4837 3.8469-3.8056 5.7202-1.124 1.5929-2.3036 3.1316-3.5861 4.5956-.1236.1411-.3274.3037-.1674.4743.1789.1908.3324-.0523.4666-.1594 1.2503-.9981 2.2328-2.2521 3.2414-3.4729 1.2389-1.4998 2.3569-3.0924 3.403-4.7349.7684-1.2066 1.5505-2.4048 2.3475-3.5926.4085-.6088.7437-1.2593 1.1317-1.878.9252-1.4749 1.8862-2.9257 2.7183-4.4593.8508-1.568 1.6932-3.1396 2.5099-4.7257.547-1.0621 1.1372-2.1006 1.6049-3.204.5843-1.3786 1.1388-2.7722 1.7229-4.146.8633-2.0303 1.5235-4.1219 2.2687-6.1883.8111-2.2492 1.4296-4.5546 2.0345-6.8639.4021-1.535.7054-3.0916 1.0175-4.6477.3456-1.7227.5643-3.4639.8553-5.1935.3211-1.9079.4489-3.8476.7018-5.7681.1409-1.0698.2156-2.1437.2478-3.217.0522-1.7445.015-3.4907-.1043-5.2335zm-38.1629 78.0119c-.0006.3322.2296.658.6169.5477.2907-.0828.59-.2023.8318-.379 1.2188-.8909 2.275-1.9616 3.2974-3.0662.1112-.1202.2884-.2439.1482-.4364-.1627-.2234-.3533-.0745-.4932.0296-.3003.2234-.5952.4595-.8619.7214-.6752.6629-1.4584 1.1821-2.2388 1.7026-.2216.1478-.5348.2955-.5684-.2025-.1045-1.5466-.2324-3.092-.3048-4.6401-.0577-1.2332-.4038-2.4183-.5356-3.6374-.0191-.1765-.1258-.3425-.336-.3125-.1949.0278-.2746.1804-.2668.3786.0161.4102-.0301.8322.0499 1.2291.5186 2.5726.5295 5.1859.6613 8.0651z" fill="#50465c"/><path d="m80.9296 4.6562c.8445-.0245 1.6613.1876 2.4768.3444 3.2046.616 6.3598 1.4277 9.4416 2.5133 3.5856 1.263 7.0752 2.7368 10.365 4.6567.175.1021.3497.2048.5247.3071.0732.3149.162.6272.2167.9453.3462 2.0124.2389 4.0418.1755 6.0651-.0122.389.0477.8248-.1718 1.1993-1.7867.3031-2.9835 1.5215-4.1374 2.7528-1.0792 1.1516-2.0681 2.3884-3.0817 3.6003-.1307.1562-.3752.1534-.4406.3164-.3177.7919-.9618 1.3455-1.4807 1.9738-1.0878 1.3171-1.8848 2.8176-2.8514 4.2083-.1023.1472-.1201.3133-.1861.4639-.0874.1995-.0397.2999.1162.4316.1912.1614.3624.1074.5093-.0129.2072-.1697.4123-.3554.5701-.5697 1.1223-1.5249 2.375-2.9442 3.6637-4.3219 1.4833-1.5856 3.1284-2.9584 5.1858-3.8307 1.561-.6618 3.1076-1.0522 4.7671-.6991.8231.1752 1.6274.4783 2.1418 1.2538.8489 1.2797 1.1887 2.694 1.1834 4.2095-.9102.0904-1.7659.3714-2.52.876-.6587.4407-1.2055 1.0123-1.4853 1.7864-.0673-.0119-.1346-.0237-.2019-.0356-.063-.0234-.088.0029-.0853.0653-.1575.1848-.2684.3906-.3252.6305-.1617.6829-.4492 1.3283-.7 1.9757-.4667 1.205-1.0351 2.3742-1.6166 3.5305-.9266 1.8425-2.0746 3.5581-3.1423 5.3193-.8394 1.3846-1.6558 2.7843-2.743 4.0035-.9751 1.0935-1.9317 2.2063-3.1241 3.0705-.4782.3466-.9954.7219-1.6545.2684-.1211-.0833-.3295-.1465-.5045-.2024-.2976-.0951-.4581.0612-.5936.2649-.1354.2034-.0436.3537.1119.5363.63.7397 1.3936.7533 2.2382.4939 1.0697-.3285 1.7885-1.1268 2.5425-1.8757.475-.4717.9258-.9678 1.4812-1.5513-.035.2275-.0283.3183-.0631.3887-.3851.7797-.7466 1.5733-1.1755 2.3284-.3787.6667-.806 1.3111-1.2663 1.9245-.3193.4254-.3367.7073.1495.8602.3805.1196.2514.2829.1358.4668-.3071.4886-.636.9635-.9457 1.4505-.654 1.0284-1.489 1.9142-2.2759 2.8331-.8189.9563-1.9039 1.6286-2.8501 2.4512-.308.2677-.4641.0801-.6429-.1311-.7922-.9362-1.4818-1.9684-2.525-2.6689-.2681-.18-.5237-.3803-.7732-.5857-.3387-.2789-.3184-.4544.0588-.6628.1483-.082.3218-.0965.4601-.2163 1.4146-1.2249 2.2299-2.8633 2.6612-4.5904.6474-2.5919.8729-5.2762.7952-7.9532-.0881-3.0345-.5226-6.0329-1.3784-8.9554-.4222-1.4418-.8575-2.8831-1.4826-4.2534-.4719-1.0344-.9832-2.051-1.4885-3.0698-.295-.5947-.5884-1.1924-.9259-1.7632-.5515-.9326-1.1382-1.8444-1.7103-2.7647-.3643-.5859-.7079-1.1862-1.0992-1.7535-.4746-.6882-1.0704-1.27-1.6723-1.8524-1.5698-1.5188-3.1738-2.9844-5.1229-4.0169-.5218-.2764-1.4122-.2899-1.6978-.0233-.8659.8082-1.3912 1.8663-1.8248 2.9098-.3674.8842-.6954 1.8096-.9859 2.7384-.8057 2.5758-1.4211 5.1958-2.0133 7.8255-.3239 1.4383-.3683 2.9048-.5867 4.3516-.2007 1.3287-.2763 2.6675-.399 4.003-.0736.8008.0119 1.6003-.0976 2.3974-.0887.6455-.296 1.2515-.4753 1.8717-.2404.8318-.3892 1.69-.5788 2.5366-.0288.1283-.0255.2909-.1973.3182-.1118.0177-.1635-.0776-.2265-.1682-1.0493-1.5079-2.2713-2.8816-3.3829-4.3413-.509-.6683-1.0718-1.307-1.4945-2.027-.6019-1.0254-1.3382-1.9378-2.1319-2.8039-.916-.9997-1.9404-1.8883-3.0258-2.7051-.5564-.4187-1.0745-.8908-1.6478-1.2835-.429-.2939-.7323-.5306-.8944-1.1329-.3716-1.3808-.668-2.771-.9484-4.17-.4056-2.0237-.4654-4.0576-.2396-6.1006.1217-1.1012.369-2.1712.6994-3.2407.5407-1.7503 1.4572-3.1661 2.9781-4.1931.6694-.4521 1.361-.4266 2.0593-.1319 1.2293.5187 1.955 1.542 2.48 2.6928.4638 1.0168.8296 2.0812 1.193 3.1403.4527 1.3193.8571 2.6552 1.2857 3.9829.0885.2742.0053.5526-.1532.722-.5845.6248-1.0175 1.3615-1.558 2.0168-.0669.0812-.128.1759-.2413.1548-.1406-.0262-.1834-.1595-.1884-.2757-.0092-.2127-.082-.4028-.1697-.5877-.0614-.1296-.1737-.2289-.3259-.2062-.1992.0298-.1522.2061-.1427.3293.0421.5446.0697 1.0926.1543 1.6313.3165 2.016.8172 3.9905 1.3784 5.9506.0408.1424.0877.2664.2509.2815.1819.0168.3491-.0434.4421-.2029.1042-.1788.1367-.3819.144-.5927.0649-1.857.1586-3.7133.5097-5.5423.2019-1.0513.449-2.105.9414-3.0588.3145-.609.5933-1.2313.8356-1.8641.6678-1.7444 1.5717-3.3697 2.4315-5.0186.6498-1.2462 1.5099-2.3577 2.2542-3.5433.5984-.9532 1.2033-1.9035 1.8415-2.8302.8524-1.2378 1.9051-2.3175 2.832-3.4978.371-.4725.7487-.9516 1.2499-1.3513.0799.1746.0071.251-.0506.3329-.2373.337-.1482.6865.1001.9246.2718.2606.6635.4141 1.0365.2033.7262-.4104 1.441-.8438 2.1396-1.2997.9265-.6049 1.9188-1.0783 2.9126-1.5517z" fill="#b39948"/><path d="m105.7105 33.0904c.0673.0119.1346.0237.2019.0357.0387.3205-.1518.5942-.1898.8935-.2122 1.6703-.799 3.2449-1.4708 4.7501-.6181 1.385-.9463 2.8267-1.3198 4.2643-.2694 1.037-.4717 2.0933-.7569 3.1286-.403 1.4631-.7892 2.931-1.2111 4.3886-.2405.8311-.3723 1.6864-.6344 2.5137-.3439 1.0855-.7331 2.1565-1.0791 3.2373-.7323 2.2878-1.29 4.6307-1.9626 6.9385-.4463 1.5313-.9675 3.0407-1.4552 4.5599-.3927 1.0878-.7992 2.1708-1.1751 3.2644-.6492 1.8888-1.3911 3.7417-2.1131 5.6029-.7139 1.8404-1.4642 3.6648-2.2319 5.4829-1.0867 2.5734-2.1871 5.1396-3.4192 7.6487-1.2001 2.4439-2.3916 4.8932-3.5158 7.3725-.3975.8767-.8515 1.7058-1.3873 2.494-.2435.3581-.1631.73-.1303 1.0903.2785 3.0603.8155 6.0818 1.4424 9.0864.2971 1.4241.8597 2.7685 1.4054 4.1138.4291 1.0578.7688 2.1523 1.2831 3.175 1.08 2.1473 2.1786 4.2821 3.6031 6.2337.3028.4148.5929.8108 1.0786 1.1764-.1373-.8096-.5871-1.3826-.864-2.025-.4448-1.0318-1.0421-1.9947-1.4211-3.0586-.2176-.6107-.4604-1.2147-.6351-1.8376-.1379-.4918.3064-.7667.6015-.972 1.036-.7208 1.8334-1.6835 2.7382-2.5366 1.23-1.1596 2.4938-2.2816 3.7098-3.4584.8175-.7911 1.656-1.572 2.4909-2.35.767-.7148 1.4488-1.522 2.1579-2.2978 1.4385-1.5738 2.7528-3.2499 4.0339-4.9519.975-1.2953 1.8656-2.6473 2.709-4.0329.5762-.9465 1.2005-1.865 1.83-2.7776.8608-1.248 1.7102-2.4961 2.4573-3.8233.6502-1.1549 1.3782-2.2705 2.0438-3.4219.8798-1.5219 1.8311-3.0024 2.7276-4.515.8666-1.4622 1.7443-2.9201 2.4905-4.4489.5169-1.059 1.1501-2.0497 1.731-3.0709.9113-1.6021 1.6738-3.2763 2.4729-4.9345.4724-.9803.9641-1.9637 1.359-2.965.6416-1.6267 1.4273-3.1961 1.9589-4.8671.4338-1.3636.8228-2.738 1.165-4.1279.3828-1.5552.8735-3.0855 1.2114-4.6495.4638-2.1463.8726-4.3059 1.1181-6.4928.1006-.8965.287-1.7831.396-2.6789.1911-1.5702.4799-3.1296.5382-4.7151.0598-.0018.1199-.0035.18-.0052l-.0027-.0067c-.0227.099-.0085.1796.1054.21l-.0027-.0042c-.0227.0992-.0077.1793.1057.21l-.0028-.0044c-.0233.0996-.0064.1789.1057.2103l-.003-.0047c-.0207.0983-.006.1788.1059.2104l-.0031-.0047c-.021.0985-.0065.179.1059.2103l-.003-.0045c-.0224.0991-.0084.1797.1057.21l-.0028-.0041c-.0269.1012-.0095.1801.1056.2098l-.0151.0055c.1224.9796-.059 1.9423-.2262 2.8938-.2919 1.6608-.5118 3.3325-.8002 4.9927-.3792 2.1833-.7133 4.3762-1.3188 6.5162-.6717 2.3737-1.2289 4.7823-1.9748 7.1316-.6228 1.9618-1.4661 3.8526-2.1744 5.7886-.6157 1.683-1.266 3.3483-2.0226 4.9747-.663 1.4253-1.3819 2.822-2.0734 4.2326-1.5564 3.1748-3.2671 6.2642-5.1161 9.2776-1.3596 2.2157-2.9055 4.3033-4.3948 6.4304-.9593 1.3701-2.0016 2.678-2.9211 4.0805-.6681 1.0192-1.4822 1.9562-2.1879 2.9515-.7201 1.0157-1.4768 2.0004-2.2472 2.9724-1.8 2.2712-3.7042 4.4511-5.7539 6.5072-1.066 1.0693-2.1439 2.1289-3.214 3.1933-1.435 1.4272-2.9791 2.7455-4.4919 4.0931-.3613.3218-.4415.6354-.369 1.1246.1252.8446.621 1.5066.9219 2.261.354.8874.7939 1.7359 1.1793 2.6075.4045.9148.53 1.935 1.006 2.8371.159.3014-.091.602-.3129.8149-.1712.1642-.3897.2214-.6554.1009-.6789-.3078-1.2413-.7359-1.735-1.304-1.1458-1.3186-2.1494-2.729-2.9385-4.2864-.5624-1.11-1.0693-2.2484-1.6426-3.3525-.76-1.4636-1.1124-3.078-1.751-4.5846-1.0298-2.4294-1.6242-4.9954-2.3543-7.5176-.4548-1.5709-.8449-3.1659-.9514-4.8056-.0627-.9651.3116-1.8341.7843-2.6591.5231-.913.9964-1.8585 1.5738-2.7355 1.0258-1.558 1.7922-3.2544 2.6906-4.8796.4102-.742.6914-1.5543 1.057-2.3224.4306-.9047.8745-1.8037 1.3399-2.6908.4309-.8213.7296-1.6949 1.0714-2.5518.0421-.1056.1276-.2352.0033-.3265-.0851-.0625-.202-.0164-.2862.0479-.9825.7509-2.1542 1.1385-3.2478 1.6715-1.6393.799-3.2849 1.5922-4.8557 2.5115-1.4224.8325-2.8491 1.6744-4.3488 2.3259-1.8649.8101-3.7191 1.6688-5.6963 2.2228-1.3605.3812-2.6834.9108-3.9982 1.4363-1.0152.4057-2.0691.6885-3.0882 1.0753-.5392.2047-1.0706.4173-1.65.5035-.5275.0785-.9004.4706-1.2815.7969-.9376.8026-1.9977 1.4387-3.0606 2.0217-.7287.3997-1.2479.8684-1.6767 1.5453-.2324.3668-.5988.6576-.9359.9464-.3186.2729-.708.3038-1.1118.1934-.3267-.0893-.4743.0014-.6361.3595-.3027.67-.8564 1.1598-1.5503 1.4581-.798.343-1.5398.2152-2.3533-.0769-.8247-.2961-1.4929-.7676-2.1251-1.3162-.3004-.2607-.5499-.6078-.74-.9602-.2011-.3727-.4122-.3572-.7803-.2728-1.4513.3328-2.8795.7962-4.3659.9426-1.1872.1169-2.3307.4952-3.5283.5303-.3993.0117-.2791.3519-.2547.5479.1007.8085.2317 1.6136.3681 2.4172.2787 1.6417.7387 3.2425 1.1061 4.8642.0444.1961.0596.4124.0284.6098-.1216.7678-.6549 1.3153-1.5169.7331-.5431-.3668-.7998-.9158-1.1357-1.419-.8836-1.3236-1.6515-2.7265-2.1073-4.2425-.3511-1.1681-.6291-2.3692-.9697-3.5428-.4563-1.5722-.6566-3.1633-.7331-4.7849-.0326-.6915.1661-1.2924.5349-1.8717.9343-1.468 1.162-3.165 1.5691-4.8138.4298-1.7403.7805-3.4921 1.0512-5.2591.2059-1.3445.3212-2.7032.4656-4.0568.3516-3.2959.4229-6.6102.6505-9.9139.1325-1.924.1965-3.8511.1961-5.7728-.0004-2.1827.1147-4.3564.3216-6.52.0987-1.0323.191-2.0735.2873-3.1063.1817-1.9484.5202-3.8722.8317-5.7959.2399-1.4819.5218-2.9783 1.0561-4.3986.105-.2791.0475-.5052-.0629-.735-.6573-1.3681-.9826-2.8237-1.2991-4.3026-.3073-1.436-.5108-2.8828-.7108-4.3293-.1749-1.2646-.3148-2.5394-.328-3.8243-.0096-.9397-.0399-1.8745.0516-2.8149.0451-.4638.2328-.8544.4004-1.2592.1128-.2723.3618-.4241.6747-.3168 1.236.4239 2.5369.358 3.8069.5243.4887.064.9777.1683 1.4481.3139.272.0842.3713.0238.446-.2216.7387-2.427 1.9947-4.6312 3.0273-6.9298.9129-2.032 1.9329-4.0232 3.0232-5.9664 1.5532-2.7682 3.1023-5.5416 4.8114-8.2198.0365-.0571.0617-.1214.0921-.1822.605-.2294 1.241-.3392 1.8678-.4826-.0576.5302-.3955.9412-.6487 1.3684-.9223 1.5561-1.8957 3.0822-2.863 4.6113-.6048.9561-.9063 2.0955-1.7575 2.9021-.0974.0923-.0889.2155-.0745.3364-.3809.3519-.643.7762-.7928 1.2726.3616-.3691.8007-.6657 1.0048-1.162.1623.0207.2326-.0942.3294-.1964.2327-.2458.4533-.5278.7375-.6956.9481-.5598 1.8822-1.1582 2.9788-1.4117.4572-.1057.8812-.4006 1.3791-.2639.4253.1168.8495.2432 1.2635.3947.7764.2841.7733.2931 1.2295-.3863.0285-.0424.0486-.0906.0784-.1319.7333-1.0161 1.1886-2.1797 1.7465-3.2888.7577-1.5062 1.5151-3.0126 2.2727-4.5189.12-.0833.2523-.1249.3991-.1172-.2123 1.1213-.9128 2.0436-1.2664 3.1077-.1339.4031-.2482.8195-.4388 1.1956-.7357 1.4514-1.3027 2.9605-1.5426 4.5717-.1022.6863-.2151 1.4208.1022 2.0706.292.5979.5183 1.2191.784 1.8253.686 1.5653 1.1282 3.2144 1.62 4.846.0276.0915 0 .2329.136.2414.1176.0073.1584-.1083.1918-.2063.2468-.7258.6636-1.3699 1.0118-2.0445.8491-1.645 1.7606-3.254 2.8225-4.7784.7529-1.0808 1.357-2.2675 2.1363-3.327 1.1467-1.559 2.4339-3.015 3.5729-4.5792.5173-.7104 1.5532-1.1368 1.3925-2.2719-.0057-.0402.0414-.0931.0732-.1326.212-.2629.2855-.5785.3471-.899.8049.1981 1.6404-.027 2.4448.1769-.4397.5679-.7374 1.2182-1.0734 1.8463-.0505.0944-.1014.1963.0022.2725.0727.0535.1603.0096.2345-.043 1.0475-.7422 2.2379-1.2142 3.3759-1.7853.4939.0338.9979.004 1.4615.2304-.9937.4735-1.986.9468-2.9119 1.551-.6986.4559-1.4134.8892-2.1396 1.2997-.373.2108-.7647.0573-1.0365-.2033-.2482-.238-.3374-.5876-.1001-.9246.0577-.0819.1304-.1582.0506-.3329-.5012.3997-.8789.8788-1.2499 1.3513-.9269 1.1803-1.9795 2.26-2.832 3.4978-.6382.9267-1.2431 1.877-1.8415 2.8302-.7443 1.1856-1.6045 2.2971-2.2542 3.5433-.8598 1.6489-1.7638 3.2743-2.4315 5.0186-.2423.6329-.5211 1.2551-.8356 1.8641-.4925.9538-.7396 2.0075-.9414 3.0588-.3512 1.829-.4448 3.6852-.5097 5.5423-.0074.2108-.0399.414-.144.5927-.093.1595-.2602.2197-.4421.2029-.1632-.015-.2101-.139-.2509-.2815-.5612-1.9601-1.0619-3.9347-1.3784-5.9506-.0846-.5386-.1122-1.0866-.1543-1.6313-.0095-.1232-.0566-.2995.1427-.3293.1522-.0227.2644.0766.3259.2062.0877.1849.1605.375.1697.5877.005.1162.0478.2495.1884.2757.1133.0211.1744-.0736.2413-.1548.5404-.6553.9735-1.3919 1.558-2.0168.1585-.1694.2417-.4478.1532-.722-.4286-1.3277-.833-2.6635-1.2857-3.9829-.3634-1.0591-.7292-2.1235-1.193-3.1403-.525-1.1508-1.2507-2.174-2.48-2.6928-.6983-.2947-1.3898-.3202-2.0593.1319-1.5208 1.027-2.4374 2.4427-2.9781 4.1931-.3304 1.0695-.5777 2.1395-.6994 3.2407-.2258 2.0431-.166 4.077.2396 6.1006.2804 1.3991.5768 2.7892.9484 4.17.1621.6023.4654.8391.8944 1.1329.5733.3927 1.0914.8649 1.6478 1.2835 1.0854.8168 2.1098 1.7054 3.0258 2.7051.7937.8661 1.53 1.7786 2.1319 2.8039.4227.7201.9855 1.3587 1.4945 2.027 1.1116 1.4596 2.3336 2.8333 3.3829 4.3413.063.0905.1147.1859.2265.1682.1718-.0272.1685-.1898.1973-.3182.1897-.8465.3384-1.7048.5788-2.5366.1793-.6202.3866-1.2262.4753-1.8717.1095-.7972.024-1.5967.0976-2.3974.1228-1.3355.1984-2.6743.399-4.003.2185-1.4469.2629-2.9133.5867-4.3516.5922-2.6298 1.2076-5.2498 2.0133-7.8255.2905-.9288.6185-1.8542.9859-2.7384.4336-1.0434.9589-2.1015 1.8248-2.9098.2856-.2665 1.176-.2531 1.6978.0233 1.9491 1.0325 3.5531 2.4981 5.1229 4.0169.6019.5823 1.1977 1.1641 1.6723 1.8524.3913.5674.7349 1.1676 1.0992 1.7535.5722.9203 1.1589 1.8321 1.7103 2.7647.3375.5707.6309 1.1685.9259 1.7632.5054 1.0188 1.0167 2.0354 1.4885 3.0698.6251 1.3703 1.0604 2.8116 1.4826 4.2534.8557 2.9225 1.2903 5.9209 1.3784 8.9554.0777 2.677-.1479 5.3614-.7952 7.9532-.4314 1.7271-1.2467 3.3655-2.6612 4.5904-.1383.1198-.3118.1344-.4601.2163-.3771.2084-.3975.3839-.0588.6628.2495.2054.5051.4057.7732.5857 1.0431.7005 1.7328 1.7327 2.525 2.6689.1788.2113.3349.3989.6429.1311.9462-.8225 2.0312-1.4949 2.8501-2.4512.7869-.9189 1.6219-1.8046 2.2759-2.8331.3097-.487.6386-.9619.9457-1.4505.1156-.1839.2446-.3472-.1358-.4668-.4862-.1529-.4688-.4347-.1495-.8602.4603-.6134.8876-1.2577 1.2663-1.9245.4289-.7551.7904-1.5487 1.1755-2.3284.0348-.0704.028-.1612.0631-.3887-.5554.5836-1.0062 1.0796-1.4812 1.5513-.7541.7489-1.4729 1.5471-2.5425 1.8757-.8446.2594-1.6082.2458-2.2382-.4939-.1555-.1825-.2473-.3329-.1119-.5363.1356-.2036.296-.3599.5936-.2649.175.0559.3834.1191.5045.2024.6591.4534 1.1763.0782 1.6545-.2684 1.1924-.8642 2.149-1.977 3.1241-3.0705 1.0872-1.2192 1.9035-2.6189 2.743-4.0035 1.0677-1.7611 2.2156-3.4768 3.1423-5.3193.5815-1.1562 1.1499-2.3254 1.6166-3.5305.2508-.6474.5383-1.2928.7-1.9757.0568-.2398.1677-.4456.3251-.6304.0275-.0215.056-.0433.0845-.065zm-51.1145 60.1755c-.2072.1096-.3817.1938-.5313-.1116-.175-.3573-.5757-.4906-.9054-.5005-.6429-.0193-1.2332-.2023-1.8266-.3925-.5881-.1885-.9564-.6366-1.1376-1.1982-.1103-.342-.2815-.4316-.5958-.3809-.3675.0593-.7298.1237-1.1104.1074-.4124-.0177-.7289.1102-.9651.5529-.3004.563-.68 1.0869-1.4417 1.215-.6107.1027-1.2097.3715-1.3586 1.1177-.0691.3464.0537.6739.0714 1.0114.0123.2342.0094.3566.3802.2006 1.0064-.4233 1.7845-.4359 1.7907 1.0979.0006.1529-.0395.3055-.0475.4589-.0354.6768-.1496 1.3632.2698 1.9816.0877.1293.1136.3148.0266.44-.1887.2713-.0277.4635.1236.637.6429.7373 1.5098 1.1276 2.3929 1.4761.2324.0917.4964.0602.7258-.0974.6873-.4722 1.106-1.1951 1.6708-1.7814.0906-.094.022-.2255.0115-.3442-.0558-.6317-.5453-1.0141-.8848-1.4599-.5552-.729-.627-1.4853-.3811-2.3142.1985-.6689.4112-.8078 1.1131-.7749.6877.0322 1.1038.3596 1.2446.9299.162.656.0879 1.3197.0924 1.9794.0021.3093.2444.658-.1352.9349-.2597.1895-.1752.4303-.0302.6776.1622.2767.3509.2943.6412.2142.3292-.0908.5048-.3266.7105-.5534.3-.3309.3628-.7842.6097-1.1407.21-.1727.2991-.6023.5362-.5721.5165.0658.8142-.2912 1.19-.4717.6113-.2935 1.2501-.5541 1.7802-.9954 1.1742-.9775 2.3177-1.994 3.5216-2.9331 1.4952-1.1662 2.8648-2.452 4.0526-3.9282.4481-.5569.8244-1.1749 1.2996-1.7057.6899-.7707 1.2625-1.6217 1.7734-2.5069.8919-1.5452 1.5697-3.1796 2.0553-4.9103.3492-1.2447.6219-2.4662.5925-3.7672-.0086-.3809-.0613-.5234-.4111-.5615-.1353-.0147-.304-.0231-.3096-.2014-.0055-.1733.0665-.3446.2373-.4229.1543-.0707.3206-.1093.4992-.094.4941.0425.9899.0661 1.4834.1138.1802.0174.4499-.0848.4667.2467.0152.2991-.1865.3494-.429.3868-.1623.025-.4307-.0041-.3782.2934.0898.5092-.0038 1.0378.1757 1.5496.2951-.1348.5861-.2749.8831-.4006.17-.072.3502-.0675.4603.1023.1162.1793.0902.3939-.0725.5104-.3291.2358-.6418.5273-1.0678.574-.1783.0195-.3393.0725-.4811.1593-.2511.1537-.2232.4431-.1659.6515.0633.23.3364.0513.4268.0146.3749-.1523.7766-.1629 1.1548-.2191 1.7991-.2673 3.532-.8629 5.3534-1.0302.4859-.0446.725.0861.9211.4637.0587.1132.1204.2248.1904.3551.1657-.2612.3119-.4838.3963-.7531.1927-.6153.2818-.6463.8667-.4146.0793.0314.1561.0999.2337.0995.2831-.0015.4618.4481.7603.2225.2506-.1894.2769-.5345.3547-.8304.0347-.132.0728-.2631.1041-.3959.1537-.6533.407-.7697.9967-.4558.7039.3746.7291.3853 1.0356-.3378.3648-.8607.7815-1.7191.629-2.7038-.0341-.2202.1223-.3203.2749-.3833.6576-.2714 1.3447-.4937 2.0467-.5358.3404-.0204.2736-.1222.2449-.3097-.0898-.5877-.1626-1.1789-.2782-1.7616-.1751-.8827-.2822-1.7808-.6642-2.6163-.3629-.7936-.1892-1.2535.575-1.6552.2579-.1356.1829-.2722.0501-.4436-.6379-.823-1.2877-1.6374-1.9021-2.4776-.7039-.9625-1.472-1.8431-2.4992-2.4862-.492-.308-.9825-.613-1.5019-.8697-.3175-.1569-.5041-.3935-.5185-.7517-.0172-.4294.3363-.3388.5758-.4028.9805-.2621 1.9835-.4413 2.7129-1.2768.6162-.706 1.3055-1.3558 1.6418-2.2531.7-1.8675 1.045-3.8096 1.1408-5.7976.0929-1.9267.0903-3.8539-.1537-5.7692-.2261-1.7751-.6649-3.5095-1.0687-5.2516-.2977-1.2844-.6089-2.5844-1.1202-3.7727-.8243-1.9155-1.6546-3.838-2.7435-5.6414-1.2567-2.0812-2.5566-4.1206-4.242-5.8788-.6795-.7089-1.2916-1.48-2.0956-2.0854-.8124-.6117-1.6421-1.1839-2.5135-1.7011-.6215-.3688-.7686-.3213-1.1743.2638-.5239.7557-.7736 1.6419-1.1757 2.4556-.7933 1.6054-1.3226 3.3223-1.821 5.0422-.2041.7043-.4163 1.4105-.5518 2.1296-.2619 1.3902-.5304 2.7788-.7166 4.1846-.1269.9588-.2894 1.9154-.3815 2.8785-.117 1.224-.1763 2.4533-.2808 3.6786-.0975 1.143-.0936 2.2896-.0568 3.4306.0405 1.2567.2244 2.5014.4927 3.7395.399 1.8417.9473 3.6275 1.6886 5.3567.1281.2989.243.5985.2791.926.0263.2386-.042.4177-.2901.4527-.204.0288-.4057.0186-.4856-.2545-.0764-.2613-.1955-.5105-.3006-.763-.5969-1.4338-1.1618-2.8774-1.5107-4.3975-.2041-.8891-.4419-1.7706-.6645-2.6554-.4735 2.4793-.9713 4.9366-.4865 7.4526.0443.2298.0369.5027-.1823.6541-.1562.1078-.3674.0713-.5443-.0066-.2462-.1084-.2853-.3323-.2542-.5634.0606-.4492-.0457-.8857-.0739-1.3281-.0245-.383-.1415-.5439-.5426-.3259-.2961.1609-.5225-.0053-.5036-.3389.01-.1769.091-.3115.2443-.4265.1882-.1412.3421-.3101.3786-.5803.1382-1.0229-.0632-1.9371-.7328-2.7495-.4762-.5778-.879-1.217-1.3652-1.7856-.3714-.4343-.7285-.9096-1.2802-1.203-.0746.3537.0675.6057.0963.8729.0161.1494-.019.3349-.1974.3709-.1765.0355-.2032-.1363-.2493-.2659-.1757-.4941-.4167-.9739-.5229-1.4821-.2841-1.3592-1.0242-2.4738-1.818-3.5614-.9303-1.2747-2.0795-2.354-3.2386-3.4078-1.6989-1.5445-3.4749-2.9912-5.5453-4.0475-.4543-.2318-.9307-.4725-1.3556-.7697-.8957-.6267-1.8914-1.0809-2.8803-1.4959-1.2792-.5368-2.6297-.9319-4.017-1.1275-.8934-.1259-1.7843-.3317-2.6908-.2882-.4771.0229-.9365.0975-1.4049-.0857-.3548-.1388-.3789.1282-.3925.3935-.1 1.946-.0546 3.8857.2154 5.8183.2449 1.7532.5369 3.4935.8951 5.2314.4093 1.986 1.2321 3.7922 1.9763 5.6392.2981.7399.7447 1.4112 1.1789 2.0904.5955.9314 1.2651 1.7939 1.9711 2.6346.6111.7277 1.3302 1.3478 2.0494 1.9625.6958.5946 1.3985 1.17 2.2403 1.5808 1.6123.7868 3.2604 1.4718 4.9542 2.06.508.1764 1.0353.1237 1.5412.2612.206.056.4051-.0628.5484-.2238.5421-.6088 1.1877-1.1068 1.7708-1.671.178-.1722.3958-.3289.4559-.5973.2442-.2132.4689-.4562.7375-.632.3382-.2213.4655-.4883.4004-.8865-.057-.3485-.1011-.7064-.0876-1.0578.0282-.7332.1084-1.4726.8159-1.9075.3906-.2401.3755-.5432.2663-.907-.0436-.1453-.0869-.3012-.0791-.4496.0292-.5599-.1285-1.0847-.33-1.586-.6999-1.7413-1.7016-3.3165-2.756-4.8586-.4046-.5918-.9077-1.1022-1.3889-1.6327-1.2222-1.3476-2.5896-2.5011-4.1859-3.3858-.3367-.1866-.5038-.0074-.5144.2187-.0251.5351-.1565 1.1105.1713 1.5972.4169.619.719 1.3001 1.113 1.9342.9527 1.5333 2.0647 2.9201 3.3886 4.1359.6602.6063 1.3004 1.2382 2.0281 1.7703.109.0797.3238.1976.1804.4132-.1075.1616-.2333.086-.3498-.002-.7568-.5712-1.5418-1.1098-2.2189-1.7774-1.0182-1.0041-1.9986-2.0334-2.8718-3.1814-.9017-1.1855-1.6274-2.4605-2.2612-3.7836-.4376-.9135-.7469-1.8223-1.493-2.6158-.9737-1.0355-2.1284-1.6435-3.3702-2.1832-.1274-.0554-.3935-.1422-.4319.1013-.0998.6324-.3267 1.2697-.0384 1.9126.374.834.7443 1.6696 1.12 2.5028.7021 1.5571 1.5836 3.013 2.5322 4.4282.8625 1.2869 1.8625 2.4623 2.9481 3.5685 1.2554 1.2792 2.6959 2.3054 4.2487 3.1833.1919.1085.2384.2527.1411.4172-.1017.1718-.247.0956-.3996.0213-2.1428-1.0434-3.9351-2.5344-5.4939-4.3163-1.1464-1.3105-2.1825-2.7024-3.0895-4.1944-.6831-1.1238-1.2874-2.2811-1.8411-3.4734-.6941-1.4946-1.5126-2.9345-1.8417-4.575-.0295-.1472-.14-.2588-.2829-.2581-.2263.0011-.3693-.1551-.5532-.2311-.3987-.1648-.7927-.3532-1.2608-.3936.0632 1.0135.1962 1.9715.3222 2.9324.2465 1.8804.5953 3.7382 1.2463 5.5201.9229 2.5262 2.5237 4.6505 4.1539 6.746.4861.6249 1.0214 1.2208 1.5949 1.7662.7406.7043 1.4241 1.496 2.2946 2.0339 1.5737.9723 3.1915 1.8743 4.968 2.4471.2924.0943.6342.1466.7681.4995-.2825.3478-.6327.2052-.9414.0895-1.0481-.3929-2.112-.7278-3.1138-1.2637-.7836-.4191-1.5821-.8043-2.2811-1.3513-1.7814-1.394-3.3794-2.9717-4.7478-4.7815-.7627-1.0087-1.5564-1.9969-2.1625-3.1088-1.177-2.159-2.017-4.4405-2.4019-6.8801-.2551-1.6167-.5571-3.2243-.6057-4.8704-.0101-.3425.0605-.7994-.3336-1.0864-.1391-.1013-.1244-.3232.0082-.467.1285-.1394.2072-.344.4901-.2699.8357.2187 1.6816.3577 2.5106.6506 1.7709.6255 3.4884 1.3684 5.1912 2.1452 1.1907.5432 2.235 1.3317 3.2988 2.1024 1.6429 1.1904 3.1007 2.5654 4.5151 3.998 1.2248 1.2406 2.2532 2.6448 3.212 4.0941.59.8917 1.126 1.8176 1.6141 2.7769.6427 1.263.6977 2.6641 1.1007 3.9796.1921.6269-.355 1.1452-1.0004 1.0031-.2899-.0638-.5904.2454-.5935.6234-.0015.1864.0126.3736.0317.5592.0304.2953.156.4087.4317.2082.262-.1906.5209-.3863.792-.563.1161-.0756.2603-.104.3672.0396.1061.1425.0372.2488-.0668.3586-.2932.3098-.5642.6421-.8725.9356-1.0781 1.0269-2.0868 2.121-3.1293 3.1824-.4997.5087-.7765 1.1641-1.2083 1.695-.5025.6178-.824 1.276-.9743 2.0269-.0609.3042-.2025.5584-.4473.619-.5938.147-1.0316.5434-1.4903.878-.6512.475-1.3247.9767-1.2267 1.9681.079.7988.1972 1.5867.42 2.3552.1847.6372.3082 1.3018.7167 1.8545.2206.2986.4802.3352.5723-.0464.1082-.4483.4588-.5111.7312-.4442.345.0848.1812.4682.1395.7054-.1831 1.0417-.3917 2.0793-.6091 3.1146-.6093 2.9012-1.025 5.823-.7554 8.7933.0615.678.0019 1.2105-.4179 1.7809-.9052 1.23-1.7257 2.5226-2.5733 3.7946-.7467 1.1207-1.4723 2.2556-2.2277 3.3703-.5251.7749-.8798 1.6451-1.4371 2.4091-.2784.3817-.645.8186-.618 1.407.6046-.1826.9925-.5795 1.3493-1.0261.222-.2778.4546-.6002.8287-.6335.6961-.062 1.3981-.0592 2.0977-.0806.1771-.0054.3083.0535.443.1972.4207.449.8721.8692 1.3116 1.3005.0173.0177.0371.0319.0594.0426l.6516.1389c.0297.0006.0593.0012.089.0018.112-.0553.2225-.0551.331.0096.0681.0156.1362.0311.2043.0467.1736.01.3561-.053.5168.0628.044.0164.0881.0328.1321.0492.0903.0455.1805.091.2708.1366.0392.0192.0785.0385.1177.0577.0689.0305.1378.0609.2067.0914l.0033.0024c.0615.0521.123.1043.1846.1564.0143.0293.0353.0525.0632.0696.0845.0468.1259.1206.1348.2148.0205.0273.0411.0546.0616.082.0173.0299.0347.0598.052.0898.0084.2239-.0223.4342-.2054.5917zm-14.7776-47.3359c-.404.6613-.3631 1.3683-.526 2.0242-.3035 1.2225-.5495 2.4574-.7391 3.6996-.2542 1.6647-.4067 3.3432-.5789 5.0193-.2212 2.1541-.3983 4.3108-.4362 6.4688-.0608 3.4617-.0728 6.9248-.1223 10.3873-.0334 2.3378-.1761 4.6633-.521 6.9784-.2407 1.6158-.3679 3.2496-.5994 4.8645-.2261 1.5775-.6295 3.1339-1.0252 4.6815-.3913 1.5302-.9233 3.0141-1.7591 4.3745-.2791.4542-.4125.9755-.4344 1.5125-.0478 1.1696.0757 2.3449.37 3.4555.6358 2.3989 1.2065 4.8316 2.4109 7.0418.3361.6167.6921 1.2196 1.1081 1.7844.0915.1243.2021.3525.3875.2578.1504-.0768.0016-.2761.0032-.4182.0036-.3375-.2116-.598-.2629-.9218-.1196-.7545-.2822-1.4982-.5489-2.2276-.5047-1.3797-.7624-2.8298-.959-4.2812-.1153-.8509.2323-1.1091 1.1001-1.0397.3873.031.7794.0203 1.1739-.0544 1.1197-.2119 2.2422-.4206 3.372-.5655 1.3229-.1696 2.5854-.5543 3.8496-.947.1226-.0381.1426-.1239.1477-.2349.0254-.5524-.3294-1.0221-.8905-1.1971-.1075-.0335-.1988-.1237-.293-.194-.3537-.2638-.482-.6546-.5589-1.0595-.0479-.2526-.1054-.3003-.366-.1911-1.4394.6029-2.9599.9235-4.4825 1.2282-.2347.047-.5128.0732-.574-.2575-.0596-.322.2058-.3917.4356-.4671.5678-.1863 1.1571-.2851 1.7349-.4264.9363-.2289 1.8505-.5508 2.7687-.8499.2178-.071.4702-.1432.4742-.4627.0097-.7695.48-1.3783.7923-2.0217.4416-.9099.8702-1.8262 1.3058-2.7392.4539-.9516.8203-1.9677 1.4152-2.8233.6557-.9431 1.2185-1.9446 1.9035-2.8728.83-1.1245 1.5953-2.299 2.5221-3.3488.228-.2582.3002-.505.3044-.8257.0084-.6344-.1918-1.2619-.0952-1.8926.1256-.82.0309-1.6421.0827-2.4605.0538-.8504.0522-1.7211.2488-2.5412.2426-1.0121.3703-2.0448.6345-3.0494.0668-.2541.0087-.4398-.1416-.6617-.3409-.5033-.6931-1.0163-.9207-1.5744-.2755-.6756-.4844-1.391-.6189-2.1085-.1953-1.0417-.644-2.0388-.2634-3.1754.3787-1.1308 1.0917-1.9065 2.0491-2.5031.5366-.3343 1.1911-.5041 1.0977-1.3601-.0366-.3354.4162-.7276.1883-.9815-.1936-.2158-.6779-.1463-1.0111-.2658-.9236-.3312-1.8422-.6786-2.7503-1.05-1.3101-.5359-2.6051-1.1064-3.782-1.9091-.4818-.3286-.8831-.7502-1.3228-1.1274-.6852-.5879-1.0215-.4752-1.4337.3609-.3175.644-.575 1.3098-.8266 1.9768-.6146 1.6291-1.092 3.3003-1.4337 5.0092-.2785 1.3928-.3706 2.8109-.3751 4.2191-.0032.999.0733 2.0048.0728 3.0094-.0004.905.0348 1.8102.0233 2.7149-.0148 1.1626-.1704 2.3193-.1466 3.4851.0403 1.9717-.0424 3.9393-.1767 5.9073-.0444.6506-.1506 1.2862-.2357 1.9275-.1613 1.2152-.2612 2.4401-.5293 3.639-.1897.8486-.4048 1.6915-.6097 2.5367-.3822 1.5763-.8905 3.1162-1.3796 4.6603-.2797.883-.7825 1.6753-1.204 2.4988-.1037.2027-.3106.3302-.5259.3806-.172.0403-.3905.0776-.513-.12-.1011-.163-.061-.3481.0526-.4824.4635-.5477.6562-1.2356.9617-1.8616.372-.7624.6836-1.5561.8758-2.3914.1971-.8567.4428-1.7104.6982-2.5415.4643-1.5109.7627-3.0492 1.0485-4.5898.2484-1.3388.4164-2.7011.4947-4.0603.0703-1.221.212-2.4407.158-3.6726-.0293-.6702-.033-1.3515.0038-2.022.0589-1.0735.1888-2.1457.1681-3.2209-.0323-1.6819.02-3.3631-.0263-5.0458-.0475-1.727.0218-3.4574.0468-5.1862.0326-2.2479.3263-4.4705.6352-6.6931.1388-.9987.2876-1.9992.7582-2.8918.3401-.6452.1891-1.1246-.2367-1.6103-.1006-.1147-.1819-.239-.2607-.373-.4395-.7465-.9033-1.4787-1.3819-2.2534zm23.8345 46.6787c.0921.0791.1534.0504.2193.0291 1.0212-.3305 1.9937-.7912 3.0234-1.1028 1.3216-.3999 2.5605-1.0056 3.8253-1.5535 1.325-.574 2.6161-1.2203 3.9451-1.7861 1.4004-.5962 2.7997-1.2016 4.1699-1.8736 1.4932-.7324 3.0416-1.3533 4.4695-2.2167.9024-.5456 1.7913-1.1136 2.6911-1.6637.8125-.4967 1.6326-.9808 2.4466-1.4751.1789-.1086.3407-.2299.2597-.4927-.0712-.2312-.1519-.3748-.4238-.4842-.8042-.3236-1.5042-.0495-2.2183.2476-.7877.3277-1.5723.6632-2.3646.9793-.3764.1501-.6299-.0091-.7433-.3872-.1179-.3929.1021-.5737.445-.6464.2026-.0429.3886-.1011.5717-.2072 1.1193-.6489 2.1625-1.4118 3.2379-2.1266.615-.4088 1.1544-.885 1.6133-1.4585.252-.315.2743-.5608-.0845-.8621-.3558-.2987-.7718-.428-1.1744-.5907-.8498-.3434-.8524-.3233-1.1122.5772-.0756.262-.2228.5062-.2775.7709-.1644.7952-.2434.8276-1.2062.7506-.2569-.0205-.4888-.1411-.6689-.3378-.3453.4773-.5713.9867-.7976 1.4982-.1923.4347-.7972.5904-1.1362.3141-.5397-.4399-.5395-.4398-.9545.0743-.0748.0927-.1697.1738-.2259.2763-.3507.6402-.5351.6991-1.1948.0788-.0498-.0468-.0981-.0965-.1399-.1504-.2702-.3479-.5951-.4504-1.0368-.3334-1.2141.3216-2.4274.6627-3.6606.8898-.7155.1318-1.4281.2867-2.1458.4108-.3065.053-.609.1298-.6921.5562-.1665.8546-.535 1.6626-.9196 2.4225-.6914 1.3661-1.5462 2.6499-2.3407 3.9631-.1049.1733-.3123.29-.3126.5931.9039-.2944 1.7596-.545 2.5942-.8527.8647-.3188 1.7095-.6918 2.5622-1.043 1.494-.6153 2.99-1.226 4.4801-1.8504.8314-.3484 1.6525-.7213 2.4793-1.081.1098-.0478.2536-.1072.3319.0033.1165.1646-.0616.2317-.1608.3126-.0525.0427-.1122.0793-.1736.108-2.0166.9415-4.0167 1.9208-6.0555 2.8116-2.2293.9741-4.4947 1.8656-6.7438 2.7943-.3352.1384-.6258.336-.879.6036-.7382.7802-1.4336 1.5982-2.2657 2.2927-.4416.3685-.9682.6827-1.2563 1.2178zm-11.4359-76.9919c-.507.1687-.8852.4668-1.2213.8116-1.5075 1.5467-2.6403 3.3659-3.7717 5.1882-.593.9552-.9687 2.0148-1.5049 2.9943-.5111.9336-.8476 1.9317-1.1789 2.934-.0875.2647-.0121.4413.2793.5539.696.2687 1.4381.381 2.121.7115.6285.3042 1.3136.5241 1.8751.9297.4656.3364.5592.0793.7357-.2438.2189-.4009.3226-.8506.5768-1.2387.3989-.609.5957-1.3454.236-1.9605-.5293-.9051-.5413-2.0219-1.2694-2.8335-.1999-.2229-.2936-.5879.0276-.8266.3377-.251.4211.1159.5726.2939.2044.2401.4899-.005.7259.1231.0984.0534.0927-.0867.0896-.1722-.0266-.7349.2266-1.4357.263-2.1645.0768-1.5353.4844-2.988 1.1264-4.3794.11-.2383.2117-.4805.3172-.721zm.2227 81.5899c0-.5517.0003-1.0454-.0001-1.5391-.0003-.3474-.0586-.706-.4944-.6713-.4029.0321-.3684.4113-.3861.7131-.0382.6497.3326 1.0768.8806 1.4973zm-6.454-.3184c.1678-.205.123-.4114.1381-.6012.0068-.085-.0136-.1928-.114-.1903-.1282.0032-.2707.0258-.3774.0897-.0737.0442.0017.154.0444.2234.0924.1502.1909.2965.3089.4784zm3.9308-80.3694c.0378-.0427.0768-.0741.0965-.1148.0086-.0179-.0221-.0548-.0349-.083-.033.0309-.0742.0571-.0954.0946-.0102.0181.0175.0575.0338.1032zm2.3947-1.2437c-.0219.0176-.0572.0316-.063.0535-.0128.0484-.0026.0982.0665.0679.023-.0101.0433-.0441.0482-.0702.0025-.013-.0325-.0332-.0517-.0512z" fill="#0b0b0b"/><path d="m74.484 3.9584c-.0616.3205-.1351.636-.3471.899-.0318.0395-.0789.0924-.0732.1326.1607 1.1351-.8752 1.5615-1.3925 2.2719-1.139 1.5642-2.4262 3.0201-3.5729 4.5792-.7793 1.0595-1.3834 2.2462-2.1363 3.327-1.0618 1.5243-1.9734 3.1334-2.8225 4.7784-.3482.6746-.765 1.3186-1.0118 2.0445-.0333.098-.0741.2136-.1918.2063-.1359-.0085-.1084-.1499-.136-.2414-.4918-1.6316-.9341-3.2807-1.62-4.846-.2656-.6061-.492-1.2274-.784-1.8253-.3173-.6497-.2044-1.3843-.1022-2.0706.2399-1.6111.8069-3.1203 1.5426-4.5717.1907-.3762.3049-.7926.4388-1.1956.3536-1.0641 1.054-1.9865 1.2664-3.1077 3.4289-.4802 6.8792-.421 10.3275-.4076.2052.0006.4101.0175.615.027z" fill="#50465c"/><path d="m109.9176 30.4636c.0053-1.5155-.3345-2.9297-1.1834-4.2095-.5144-.7755-1.3187-1.0786-2.1418-1.2538-1.6595-.3532-3.2062.0372-4.7671.6991-2.0574.8723-3.7025 2.245-5.1858 3.8307-1.2888 1.3777-2.5414 2.797-3.6637 4.3219-.1578.2144-.3629.4-.5701.5697-.1469.1203-.3181.1743-.5093.0129-.1559-.1317-.2037-.2321-.1162-.4316.066-.1506.0838-.3167.1861-.4639.9666-1.3908 1.7636-2.8913 2.8514-4.2083.5189-.6283 1.163-1.1819 1.4807-1.9738.0654-.1629.31-.1601.4406-.3164 1.0136-1.2119 2.0025-2.4487 3.0817-3.6003 1.1539-1.2313 2.3507-2.4497 4.1374-2.7528.443.0642.9101-.168 1.3376.1477.3212.2372.5728.5477.7924.8528.4065.5648.542 1.238.1674 1.8758-.21.3576-.0226.3236.2064.3292.1539.0037.3187-.0363.46.0057.3675.1091.5259-.0237.6987-.3632.2931-.5761.3733-1.203.5461-1.8046.5664-1.9731.7006-4.006.7492-6.0468.5879.4556 1.2966.7631 1.7277 1.4106-.095.1528-.11.3244-.1028.4962.0433 1.0305-.1335 2.0404-.2759 3.0541-.2043 1.4546-.3974 2.9108-.6058 4.3648-.028.1955-.0277.3688.0684.5443.6748 1.2333 1.1418 2.5395 1.3486 3.9325.0774.5211.1492 1.0447.1865 1.5697.1209 1.7014.0902 3.4056-.1346 5.0931-.1816 1.3634-.5449 2.6967-.8816 4.0328-.3331 1.3219-.6879 2.6333-1.2139 3.8929-.5111 1.2239-.8962 2.494-1.3767 3.7303-.404 1.0394-.7286 2.1125-1.1086 3.1644-.434 1.2014-.9451 2.3709-1.4022 3.5622-.4455 1.1611-.8167 2.3544-1.324 3.4871-.4604 1.028-.7592 2.1166-1.2921 3.1189-.4556.857-.7759 1.7856-1.1616 2.6801-.0713.1654-.1101.3788-.3664.3662-.0066-.397.278-.6852.3893-1.0415.5321-1.703 1.082-3.4017 1.7422-5.0595.8756-2.1987 1.7179-4.4085 2.4126-6.6718.9632-3.1386 2.1439-6.2119 2.8882-9.4157.5027-2.1642 1.1535-4.2946 1.342-6.5312.1405-1.6681.2034-3.3308.1424-5.001z" fill="#0b0b0b"/><path d="m120.0422 25.6274c-.0795 1.1929-.1347 2.388-.2456 3.578-.1055 1.132-.2849 2.2569-.4034 3.388-.1726 1.6477-.4305 3.283-.6593 4.9229-.2387 1.7113-.7615 3.3558-1.139 5.0343-.2878 1.2796-.5676 2.5653-.9477 3.8189-.4805 1.5848-.8282 3.2023-1.2805 4.7937-.4462 1.5699-.903 3.1333-1.4642 4.6667-.6649 1.8169-1.2552 3.6627-1.9713 5.4587-1.0304 2.5842-2.013 5.1871-3.1936 7.7135-.6856 1.4673-1.2997 2.9724-1.9904 4.4408-.2963.63-.5824 1.2627-.924 1.8731-.481.8596-.8907 1.759-1.334 2.6399-.0894.1776-.1922.3485-.3429.6199-.2-.6618-.2023-1.1701.0408-1.7183.81-1.8265 1.6131-3.6574 2.3551-5.5122.6392-1.5979 1.1875-3.232 1.7828-4.8476.5355-1.4532 1.1046-2.8946 1.6154-4.3563.8072-2.3098 1.5391-4.6465 2.3775-6.9446.5808-1.592.9755-3.2357 1.4567-4.8531.4883-1.6411.921-3.3047 1.3342-4.9688.4307-1.7347 1.0061-3.4309 1.341-5.1908.3431-1.8025.7701-3.5909.9575-5.4192.1617-1.5775.4388-3.1406.5427-4.7257.1038-1.5823.2804-3.1599.3827-4.7423.0332-.5142-.1491-1.0434.1313-1.5375.1534.1487.2751.3154.3022.5355-.1866.1474-.0161.3178-.0265.4765-.1293 1.9699-.253 3.9402-.3698 5.911-.0206.3476-.0029.6975-.0029 1.0463.2193-.1851.4789-.2787.5103-.6039.2024-2.1001.3808-4.2018.5117-6.3076.2831.2173.5711.4308.6532.8102z" fill="#090a0a"/><path d="m125.4449 32.3243c.1193 1.7428.1565 3.489.1042 5.2334-.0322 1.0734-.1069 2.1472-.2478 3.217-.2529 1.9205-.3807 3.8602-.7018 5.7681-.2911 1.7296-.5097 3.4708-.8553 5.1935-.3121 1.5561-.6154 3.1128-1.0175 4.6477-.6049 2.3093-1.2234 4.6147-2.0345 6.8639-.7452 2.0663-1.4054 4.158-2.2687 6.1883-.5841 1.3738-1.1385 2.7674-1.7229 4.146-.4677 1.1034-1.058 2.1419-1.6049 3.204-.8167 1.586-1.6591 3.1576-2.5099 4.7257-.8321 1.5337-1.7931 2.9844-2.7183 4.4593-.3881.6187-.7232 1.2692-1.1317 1.878-.797 1.1878-1.5791 2.386-2.3475 3.5926-1.0461 1.6425-2.164 3.2351-3.403 4.7349-1.0086 1.2209-1.9911 2.4749-3.2414 3.4729-.1342.1071-.2877.3502-.4666.1594-.16-.1706.0439-.3332.1674-.4743 1.2824-1.464 2.462-3.0027 3.5861-4.5956 1.3219-1.8733 2.5659-3.7959 3.8056-5.7202.9572-1.4858 1.759-3.0708 2.6759-4.5839.6466-1.067 1.1877-2.1882 1.7917-3.2766.4376-.7884.816-1.6096 1.2232-2.415.4216-.834.8545-1.6623 1.2675-2.5005.9756-1.9801 1.8992-3.9873 2.929-5.9386.5998-1.1367 1.1366-2.3035 1.6241-3.4814.3821-.9234.6792-1.8941 1.0468-2.8314.6493-1.6559 1.0685-3.3864 1.6828-5.0563.8301-2.2563 1.4162-4.5893 1.9093-6.9448.4331-2.0689.7483-4.158 1.0862-6.2424.1629-1.005.3263-2.0131.3646-3.0433.0388-1.0459.2587-2.0836.3547-3.1319.0672-.7335.0336-1.4666.0944-2.1986.083-.9997.1208-2.0031.1906-3.0041.0437-.6271.1123-1.2525.1655-1.879.0113-.1325-.0397-.2787.1052-.3719.0321.0685.0645.1368.097.2051z" fill="#0b0b0b"/><path d="m50.9152 14.8444c-.0143-.1209-.0229-.2441.0745-.3364.8512-.8067 1.1527-1.946 1.7575-2.9021.9673-1.5291 1.9407-3.0552 2.863-4.6113.2532-.4272.5912-.8382.6487-1.3684 2.0498-.5175 4.1362-.8399 6.2206-1.1709.2155-.0342.4417-.0012.663.0007-.7574 1.5064-1.5149 3.0127-2.2726 4.519-.5579 1.1091-1.0132 2.2728-1.7465 3.2888-.0298.0413-.0499.0895-.0784.1319-.4563.6793-.4532.6704-1.2295.3863-.414-.1515-.8381-.278-1.2635-.3947-.4979-.1367-.9219.1583-1.3791.2639-1.0966.2535-2.0307.852-2.9788 1.4117-.2843.1678-.5048.4498-.7375.6956-.0968.1022-.1671.2171-.3297.1963-.0708-.0369-.1412-.0736-.2117-.1104z" fill="#50465c"/><path d="m108.9157 15.6841c-.0485 2.0407-.1827 4.0736-.7492 6.0468-.1727.6016-.2529 1.2285-.5461 1.8046-.1728.3395-.3311.4723-.6987.3632-.1414-.042-.3061-.002-.46-.0057-.229-.0056-.4163.0284-.2064-.3292.3746-.6379.239-1.311-.1674-1.8758-.2195-.3051-.4712-.6157-.7924-.8528-.4275-.3157-.8946-.0835-1.3376-.1477.2196-.3746.1597-.8104.1719-1.1994.0633-2.0233.1707-4.0528-.1755-6.0651-.0547-.3181-.1435-.6304-.2167-.9453.7942.3091 1.4792.8153 2.1996 1.2517 1.0151.615 1.9878 1.2998 2.9785 1.9547z" fill="#735726"/><path d="m119.3891 24.8169c-.1309 2.1058-.3093 4.2076-.5117 6.3076-.0313.3252-.291.4188-.5103.6039 0-.3488-.0177-.6987.0029-1.0463.1168-1.9707.2406-3.941.3698-5.911.0104-.1588-.1601-.3292.0265-.4765.3124.0493.4586.2966.6228.5223z" fill="#4e455b"/><path d="m79.468 4.4257c-1.138.5711-2.3285 1.0432-3.3759 1.7853-.0742.0526-.1618.0965-.2345.043-.1036-.0762-.0527-.1781-.0022-.2725.336-.6281.6337-1.2784 1.0734-1.8463.8539.032 1.7004.1274 2.5392.2905z" fill="#735726"/><g fill="#944a27"><path d="m129.8733 39.5271c-.0601.0017-.1201.0034-.18.0052-.0074-.1424-.015-.2848-.0226-.4273.1365.1077.1985.251.2026.4221z"/><path d="m129.1598 38.1844c-.1516-.0553-.2077-.1726-.2107-.3246.1254.0723.2088.172.2107.3246z"/><path d="m130.593 40.9646c-.1151-.0297-.1324-.1086-.1056-.2098.0949.0398.109.1204.1056.2098z"/><path d="m130.4902 40.7588c-.1141-.0303-.1281-.1109-.1057-.21.0948.0401.109.1206.1057.21z"/><path d="m130.3875 40.5533c-.1124-.0313-.1269-.1118-.1059-.2103.0944.0404.1089.1209.1059.2103z"/><path d="m130.2847 40.3478c-.1118-.0316-.1266-.1121-.1059-.2104.0946.0402.1091.1208.1059.2104z"/><path d="m130.1818 40.1421c-.1121-.0314-.129-.1107-.1057-.2103.0947.0401.1093.1206.1057.2103z"/><path d="m130.0789 39.9362c-.1133-.0307-.1284-.1108-.1057-.21.0946.0401.1093.1204.1057.21z"/><path d="m129.9759 39.7304c-.1139-.0305-.1281-.111-.1054-.21.0946.0401.1091.1205.1054.21z"/><path d="m129.2626 38.3904c-.0929-.0416-.1105-.1212-.1066-.2116.0895.0434.1029.125.1066.2116z"/><path d="m129.3656 38.5963c-.0914-.0425-.1092-.1221-.1068-.2119.0887.0438.1026.1254.1068.2119z"/><path d="m129.4685 38.8022c-.0905-.0431-.1081-.123-.1071-.2122.0885.0441.1027.1257.1071.2122z"/><path d="m129.5709 39.0069c-.0904-.0427-.1063-.1231-.1067-.2113.0869.0445.1082.1221.1067.2113z"/><path d="m129.6742 39.1094c-.0356-.0357-.0712-.0714-.1068-.1071.0355.0358.0711.0714.1068.1071z"/></g><path d="m109.9176 30.4636c.061 1.6702-.0019 3.3329-.1425 5.001-.1885 2.2366-.8392 4.367-1.342 6.5312-.7443 3.2039-1.9249 6.2771-2.8882 9.4157-.6946 2.2632-1.5369 4.473-2.4126 6.6718-.6602 1.6579-1.2101 3.3566-1.7422 5.0595-.1113.3563-.396.6445-.3893 1.0415-.3552.7684-.7094 1.5373-1.0664 2.3051-.2729.587-.5526 1.1708-.8226 1.759-.1376.2999-.2581.3581-.4902.057-.2352-.3052-.5692-.5184-.8187-.8269-.2756-.3407-.6797-.2229-1.0391-.0869-.3171.12-.5839.356-.9311.4089.4877-1.5192 1.0089-3.0287 1.4552-4.5599.6726-2.3077 1.2303-4.6507 1.9626-6.9385.3459-1.0808.7352-2.1519 1.0791-3.2373.2621-.8273.3938-1.6826.6344-2.5137.4219-1.4576.8081-2.9256 1.2111-4.3886.2852-1.0353.4875-2.0915.7569-3.1286.3734-1.4377.7017-2.8793 1.3198-4.2643.6717-1.5052 1.2586-3.0797 1.4708-4.7501.038-.2993.2285-.5729.1898-.8935.2798-.7743.8266-1.3458 1.4853-1.7865.7541-.5045 1.6098-.7855 2.5199-.8759z" fill="#735726"/><path d="m87.282 110.3362c-.1318-2.8792-.1428-5.4926-.6614-8.0653-.08-.3969-.0338-.8188-.0499-1.2291-.0078-.1982.0719-.3508.2668-.3786.2102-.03.3169.1361.336.3125.1319 1.2192.478 2.4042.5356 3.6374.0724 1.5481.2003 3.0935.3048 4.6401.0337.498.3468.3503.5684.2025.7805-.5206 1.5636-1.0397 2.2388-1.7026.2667-.2619.5616-.498.8619-.7214.1399-.104.3305-.253.4932-.0296.1401.1925-.037.3162-.1482.4364-1.0224 1.1046-2.0786 2.1753-3.2974 3.0662-.2418.1767-.5411.2962-.8318.379-.3872.1105-.6174-.2153-.6168-.5475z" fill="#0b0b0b"/><path d="m105.7105 33.0904c-.0285.0218-.057.0436-.0854.0653-.0026-.0624.0224-.0887.0854-.0653z" fill="#735726"/><path d="m57.4853 53.4177c-.0601.2684-.2779.4251-.4559.5973-.5831.5643-1.2287 1.0622-1.7708 1.671-.1433.161-.3424.2798-.5484.2238-.5059-.1374-1.0332-.0847-1.5412-.2612-1.6938-.5882-3.3419-1.2733-4.9542-2.06-.8418-.4108-1.5445-.9862-2.2403-1.5808-.7192-.6147-1.4383-1.2348-2.0494-1.9625-.7061-.8407-1.3756-1.7032-1.9711-2.6346-.4343-.6792-.8808-1.3505-1.1789-2.0904-.7441-1.8469-1.5669-3.6532-1.9763-5.6392-.3582-1.7379-.6502-3.4782-.8951-5.2314-.27-1.9326-.3154-3.8722-.2154-5.8183.0136-.2653.0377-.5323.3925-.3935.4684.1832.9278.1086 1.4049.0857.9065-.0435 1.7974.1622 2.6908.2882 1.3874.1956 2.7379.5907 4.017 1.1275.9888.415 1.9845.8692 2.8803 1.4959.4249.2972.9013.538 1.3556.7697 2.0704 1.0563 3.8464 2.503 5.5453 4.0475 1.1591 1.0537 2.3083 2.133 3.2386 3.4078.7938 1.0876 1.5339 2.2022 1.818 3.5614.1062.5082.3472.988.5229 1.4821.0461.1296.0728.3014.2493.2659.1784-.0359.2135-.2215.1974-.3709-.0288-.2672-.1709-.5192-.0963-.8729.5517.2933.9088.7686 1.2802 1.203.4862.5685.889 1.2077 1.3652 1.7856.6695.8124.871 1.7265.7328 2.7495-.0365.2702-.1903.4391-.3786.5803-.1533.115-.2343.2496-.2443.4265-.0189.3336.2075.4998.5036.3389.4011-.218.5182-.0571.5426.3259.0283.4424.1345.8789.0739 1.3281-.0312.2311.0079.455.2542.5634.1769.0779.3881.1144.5443.0066.2193-.1513.2266-.4242.1823-.6541-.4848-2.516.013-4.9733.4865-7.4526.2226.8849.4604 1.7663.6645 2.6554.3489 1.5201.9137 2.9638 1.5107 4.3975.1051.2525.2243.5017.3006.763.0798.2731.2816.2833.4856.2545.2481-.035.3164-.2141.2901-.4527-.0361-.3274-.1509-.6271-.2791-.926-.7414-1.7292-1.2896-3.515-1.6886-5.3567-.2682-1.2381-.4522-2.4828-.4927-3.7395-.0368-1.141-.0407-2.2877.0568-3.4306.1045-1.2253.1639-2.4547.2808-3.6786.0921-.9632.2545-1.9198.3815-2.8785.1861-1.4058.4547-2.7944.7166-4.1846.1354-.7191.3476-1.4253.5518-2.1296.4985-1.7199 1.0277-3.4368 1.821-5.0422.4021-.8137.6518-1.6998 1.1757-2.4556.4057-.5851.5528-.6326 1.1743-.2638.8714.5172 1.7011 1.0894 2.5135 1.7011.804.6054 1.4161 1.3765 2.0956 2.0854 1.6854 1.7582 2.9854 3.7976 4.242 5.8788 1.0889 1.8033 1.9192 3.7259 2.7435 5.6414.5114 1.1884.8225 2.4884 1.1202 3.7727.4038 1.7422.8426 3.4766 1.0687 5.2516.244 1.9153.2466 3.8425.1537 5.7692-.0959 1.9881-.4408 3.9301-1.1408 5.7976-.3363.8973-1.0255 1.5472-1.6418 2.2531-.7294.8355-1.7324 1.0147-2.7129 1.2768-.2395.064-.593-.0266-.5758.4028.0144.3582.201.5947.5185.7517.5194.2567 1.01.5617 1.5019.8697 1.0272.6431 1.7953 1.5236 2.4992 2.4862.6145.8402 1.2643 1.6546 1.9021 2.4776.1328.1714.2079.308-.0501.4436-.7642.4017-.9379.8616-.575 1.6552.382.8355.4891 1.7336.6642 2.6163.1156.5827.1884 1.1739.2782 1.7616.0286.1875.0955.2892-.2449.3097-.702.0421-1.3892.2644-2.0467.5358-.1526.063-.309.1631-.2749.3833.1525.9847-.2642 1.8431-.629 2.7038-.3065.7231-.3318.7124-1.0356.3378-.5897-.3139-.843-.1975-.9967.4558-.0312.1328-.0694.264-.1041.3959-.0778.2959-.104.6409-.3547.8304-.2985.2256-.4771-.224-.7603-.2225-.0777.0004-.1544-.0681-.2337-.0995-.5848-.2317-.674-.2007-.8667.4146-.0843.2693-.2305.4919-.3963.7531-.07-.1303-.1316-.2419-.1904-.3551-.196-.3776-.4352-.5084-.9211-.4637-1.8214.1673-3.5543.763-5.3534 1.0302-.3782.0562-.7798.0668-1.1548.2191-.0904.0367-.3636.2154-.4268-.0146-.0574-.2085-.0852-.4979.1659-.6515.1417-.0868.3027-.1397.4811-.1593.426-.0467.7387-.3382 1.0678-.574.1627-.1166.1887-.3312.0725-.5104-.1101-.1698-.2903-.1743-.4603-.1023-.297.1257-.588.2658-.8831.4006-.1795-.5118-.0859-1.0404-.1757-1.5496-.0525-.2975.2159-.2684.3782-.2934.2425-.0374.4442-.0877.429-.3868-.0168-.3315-.2865-.2293-.4667-.2467-.4935-.0476-.9893-.0712-1.4834-.1138-.1785-.0154-.3449.0233-.4992.094-.1709.0783-.2429.2496-.2373.4229.0057.1783.1743.1866.3096.2014.3498.0381.4025.1806.4111.5615.0294 1.301-.2433 2.5226-.5925 3.7672-.4856 1.7307-1.1634 3.365-2.0553 4.9103-.511.8853-1.0835 1.7363-1.7734 2.5069-.4753.5309-.8516 1.1488-1.2996 1.7057-1.1877 1.4762-2.5574 2.762-4.0526 3.9282-1.204.9391-2.3475 1.9556-3.5216 2.9331-.5301.4413-1.1689.7019-1.7802.9954-.3758.1805-.6735.5374-1.19.4717-.237-.0302-.3262.3994-.5362.572-.0796-.3107.0575-.5929.1166-.8853.3504.1146.6083.0992.5851-.3787-.0064-.1323.053-.2667.0711-.4016.103-.7678.0193-1.5153-.1889-2.2627-.1364-.4895-.6238-.4033-.9024-.6461-.0173-.0299-.0347-.0598-.0519-.0896-.0205-.0273-.0411-.0547-.0617-.082-.009-.0942-.0504-.168-.1348-.2148-.021-.0232-.0421-.0464-.0632-.0696-.0615-.0521-.123-.1043-.1843-.1563.0002.0001.0084-.0148.0084-.0148l-.012.0123c-.0689-.0305-.1378-.0609-.2068-.0914-.0393-.0192-.0785-.0385-.1177-.0577-.0903-.0455-.1805-.091-.2706-.1366-.0219-.0758-.0762-.065-.1323-.0492-.1607-.1158-.3432-.0528-.5168-.0628-.0578-.0605-.1266-.0729-.2043-.0467-.1086-.0647-.219-.0649-.331-.0097-.0293-.0197-.0589-.0203-.089-.0018-.2172-.0463-.4344-.0926-.6514-.1389l-.0172-.0385-.0424-.0041c-.4395-.4314-.8909-.8516-1.3116-1.3005-.1346-.1437-.2659-.2026-.443-.1972-.6996.0214-1.4016.0186-2.0977.0806-.3741.0333-.6067.3557-.8287.6335-.3568.4465-.7447.8435-1.3493 1.0261-.0269-.5885.3396-1.0254.618-1.407.5573-.764.912-1.6342 1.4371-2.4091.7555-1.1147 1.481-2.2496 2.2277-3.3703.8476-1.272 1.668-2.5647 2.5733-3.7946.4198-.5703.4794-1.1029.4179-1.7809-.2696-2.9703.1461-5.892.7554-8.7933.2174-1.0353.426-2.0729.6091-3.1146.0417-.2373.2055-.6207-.1395-.7054-.2724-.0669-.623-.0041-.7312.4442-.0921.3816-.3517.345-.5723.0464-.4085-.5527-.532-1.2173-.7167-1.8545-.2228-.7685-.341-1.5564-.42-2.3552-.0981-.9914.5755-1.4931 1.2267-1.9681.4587-.3346.8965-.7309 1.4903-.878.2448-.0606.3863-.3148.4473-.619.1503-.7509.4718-1.409.9743-2.0269.4318-.5309.7087-1.1863 1.2083-1.695 1.0424-1.0614 2.0512-2.1555 3.1293-3.1824.3082-.2936.5793-.6259.8725-.9356.104-.1098.1728-.2161.0668-.3586-.1069-.1436-.2511-.1153-.3672-.0396-.2712.1767-.53.3724-.792.563-.2757.2005-.4014.0872-.4317-.2082-.0191-.1856-.0332-.3729-.0317-.5592.0031-.378.3037-.6872.5935-.6234.6455.1421 1.1925-.3762 1.0004-1.0031-.4031-1.3155-.4581-2.7167-1.1007-3.9796-.4881-.9593-1.0241-1.8851-1.6141-2.7769-.9588-1.4493-1.9871-2.8535-3.212-4.0941-1.4144-1.4326-2.8722-2.8076-4.5151-3.998-1.0637-.7707-2.108-1.5592-3.2988-2.1024-1.7028-.7768-3.4203-1.5197-5.1912-2.1452-.829-.2928-1.6749-.4319-2.5106-.6506-.283-.0741-.3617.1306-.4901.2699-.1326.1438-.1472.3658-.0082.467.3942.287.3235.7439.3336 1.0864.0485 1.6461.3506 3.2537.6057 4.8704.3849 2.4396 1.2249 4.7211 2.4019 6.8801.6062 1.112 1.3999 2.1001 2.1625 3.1088 1.3684 1.8098 2.9664 3.3875 4.7478 4.7815.699.547 1.4975.9322 2.2811 1.3513 1.0018.5358 2.0657.8708 3.1138 1.2637.3087.1157.659.2583.9414-.0894.5672.0462 1.1339.0925 1.7007.1388zm19.8462 2.2151c-.0756.052-.2218.0877.0073.1464.5911.1512 1.1848.1487 1.7715.0204 1.7514-.383 3.4422-.9258 4.9682-1.9066.2736-.1758.4282-.3703.431-.6933.0031-.3564-.0106-.7177.1759-1.044.0813-.0041.1917.3566.241-.0121.0627-.4689.0797-.9448.1591-1.4104.2933-1.7193.3934-3.4497.3156-5.1897-.0767-1.7153-.2058-3.4257-.39-5.1346-.2676-2.4832-.9546-4.856-1.9088-7.1375-.881-2.1066-1.9632-4.1135-3.371-5.9484-1.3009-1.6955-2.514-3.4665-4.251-4.7434-.7608-.5593-.9785-1.1025-.6142-1.9495.1364-.317-.052-.6654-.2981-.8232-.2658-.1705-.562.0295-.754.2694-.1376.1719-.2433.3706-.3531.563-.5686.9964-.8895 2.0857-1.2603 3.165-.6037 1.7574-1.0016 3.5662-1.4024 5.3662-.5516 2.4777-.5907 5.024-.4439 7.5502.1413 2.4316.2904 4.8702.755 7.2713.239 1.2353.4369 2.4776.7715 3.6956.2934 1.0683.6894 2.0914 1.1189 3.1086.4421 1.0469.7925 2.1346 1.3726 3.1191.4298.7295.8928 1.4221 1.8653 1.5007.3682.0297.7295.1421 1.0939.2168zm-.2566 6.5649c-.0321-.3199-.0512-.6283-.0958-.9331-.1443-.987-.7271-1.659-1.6329-1.9797-1.197-.4237-2.4197-.2224-3.6036.1062-.7647.2122-1.4039.6975-2.0795 1.1149-1.4587.9013-1.9798 2.3682-2.3185 3.8574-.1924.846-.0681 1.8587.7627 2.5289.0737.0595.1682.1967.1452.2565-.2247.587.0923 1.2872-.3831 1.8188-.0685.0766-.1281.1733-.0421.2751.0759.0899.1926.1096.2781.0465.2091-.1541.4703-.1809.6866-.3328.9586-.6731 1.9173-1.3459 2.9012-1.9839.757-.4908 1.5466-.926 2.3519-1.3096.9617-.458 1.9127-1.09 3.0922-.753.2014.0575.4517-.0359.5217-.306.0671-.2588-.0042-.4776-.2364-.6235-.1004-.0631-.2095-.1277-.3231-.1516-.4342-.0914-.453-.3659-.2563-.6607.2073-.3103.177-.6506.2317-.9704zm-7.8267-5.4885c-.3967-.0772-.8083.0086-1.1885.1251-1.1572.3549-2.3202.739-2.1781 2.3304.0063.0706-.1237.1501-.1835.2305-.303.407-.6616.7761-.8291 1.2741-.0805.2393-.0728.4571.1528.5847.2187.1236.3639-.0266.5084-.1977.4168-.4935.7455-1.0511 1.2346-1.4957 1.1388-1.0354 2.3085-1.9074 3.9929-1.5615.2062.0424.5067.0399.742-.1002.2576-.1534.3006-.4834.0406-.5577-.7565-.2164-1.4368-.7144-2.2921-.632zm-10.1209.8769c0 .1333-.0067.2026.0013.2701.0209.176.0699.3675.2459.421.212.0644.264-.1688.3613-.291.0599-.0751.0845-.1879.0994-.2876.0785-.5231.2592-1.0129.4238-1.514.6681-2.0347 1.9501-3.6106 3.5794-4.9381.1614-.1315.3334-.2971.2366-.4535-.1247-.2017-.3397-.0264-.4955.0561-.9137.4834-1.6228 1.2506-2.5396 1.7599-.7188.3993-1.154 1.2337-1.6164 1.948-.1403.2168-.1724.5446.0587.7625.2096.1977.1612.3715.0697.5956-.227.5559-.3266 1.1464-.4246 1.671z" fill="#b49848"/><path d="m39.8184 45.93c.4785.7747.9423 1.507 1.3815 2.2537.0788.134.1601.2583.2607.373.4258.4856.5768.9651.2367 1.6103-.4706.8926-.6194 1.8932-.7582 2.8918-.309 2.2226-.6026 4.4453-.6352 6.6931-.0251 1.7288-.0943 3.4592-.0468 5.1862.0463 1.6827-.006 3.3639.0263 5.0458.0207 1.0752-.1093 2.1474-.1681 3.2209-.0368.6705-.0331 1.3517-.0038 2.022.0539 1.2319-.0877 2.4516-.158 3.6726-.0783 1.3591-.2464 2.7215-.4947 4.0603-.2858 1.5406-.5842 3.0788-1.0485 4.5898-.2554.8311-.5012 1.6849-.6982 2.5415-.1922.8353-.5038 1.629-.8758 2.3914-.3055.626-.4982 1.3139-.9617 1.8616-.1136.1343-.1537.3194-.0526.4824.1226.1976.341.1603.513.12.2154-.0504.4222-.1779.5259-.3806.4215-.8235.9243-1.6158 1.204-2.4988.4891-1.5441.9974-3.084 1.3796-4.6603.2049-.8452.42-1.6881.6097-2.5367.2681-1.1989.368-2.4238.5293-3.639.0851-.6413.1913-1.2769.2357-1.9275.1344-1.968.217-3.9356.1767-5.9073-.0238-1.1658.1318-2.3225.1466-3.4851.0115-.9047-.0237-1.8099-.0233-2.7149.0004-1.0046-.076-2.0104-.0728-3.0094.0045-1.4082.0966-2.8264.3751-4.2191.3417-1.7089.8191-3.3801 1.4337-5.0092.2516-.667.5092-1.3328.8266-1.9768.4122-.8361.7485-.9488 1.4337-.3609.4397.3773.8409.7988 1.3228 1.1274 1.1769.8026 2.4719 1.3731 3.782 1.9091.9081.3715 1.8267.7189 2.7503 1.05.3332.1195.8176.05 1.0111.2658.2279.254-.2249.6461-.1883.9815.0934.856-.5612 1.0257-1.0977 1.3601-.9573.5965-1.6704 1.3722-2.0491 2.5031-.3807 1.1367.0681 2.1337.2634 3.1754.1345.7175.3434 1.4329.6189 2.1085.2276.5581.5798 1.0711.9207 1.5744.1503.2219.2084.4076.1416.6617-.2642 1.0046-.3919 2.0373-.6345 3.0494-.1966.8201-.195 1.6909-.2488 2.5412-.0518.8184.0429 1.6405-.0827 2.4605-.0966.6306.1036 1.2581.0952 1.8926-.0042.3207-.0765.5675-.3044.8257-.9269 1.0498-1.6922 2.2242-2.5221 3.3488-.685.9281-1.2478 1.9296-1.9035 2.8728-.5949.8556-.9612 1.8717-1.4152 2.8233-.4355.913-.8642 1.8294-1.3058 2.7392-.3123.6434-.7826 1.2522-.7923 2.0217-.004.3195-.2564.3917-.4742.4627-.9182.2991-1.8323.621-2.7687.8499-.5779.1413-1.1672.2401-1.7349.4264-.2298.0754-.4951.1451-.4356.4671.0612.3307.3394.3045.574.2575 1.5227-.3047 3.0432-.6254 4.4825-1.2282.2607-.1092.3181-.0615.366.1911.0769.405.2052.7957.5589 1.0595.0942.0703.1855.1604.293.194.561.175.9159.6447.8905 1.1971-.0051.111-.0251.1968-.1477.2349-1.2641.3927-2.5266.7774-3.8496.947-1.1297.1448-2.2522.3535-3.372.5655-.3945.0746-.7866.0854-1.1739.0544-.8677-.0694-1.2153.1888-1.1001 1.0397.1966 1.4514.4543 2.9015.959 4.2812.2668.7293.4293 1.4731.5489 2.2276.0513.3238.2665.5843.2629.9218-.0015.142.1472.3414-.0032.4182-.1854.0947-.296-.1335-.3875-.2578-.416-.5648-.772-1.1676-1.1081-1.7844-1.2044-2.2102-1.7751-4.6428-2.4109-7.0418-.2943-1.1106-.4178-2.2859-.37-3.4555.022-.5371.1554-1.0583.4344-1.5125.8358-1.3604 1.3678-2.8444 1.7591-4.3745.3958-1.5477.7991-3.104 1.0252-4.6815.2315-1.6149.3586-3.2487.5994-4.8645.3449-2.3151.4876-4.6406.521-6.9784.0495-3.4625.0615-6.9256.1223-10.3873.0379-2.158.2149-4.3147.4362-6.4688.1721-1.6761.3247-3.3546.5789-5.0193.1897-1.2421.4356-2.477.7391-3.6996.1633-.6562.1224-1.3632.5264-2.0245z" fill="#50465c"/><path d="m57.4853 53.4177c-.5668-.0463-1.1335-.0926-1.7002-.1389-.1339-.3529-.4757-.4053-.7681-.4996-1.7765-.5727-3.3942-1.4747-4.968-2.4471-.8706-.5379-1.5541-1.3296-2.2946-2.0339-.5735-.5454-1.1087-1.1413-1.5949-1.7662-1.6302-2.0955-3.231-4.2198-4.1539-6.746-.651-1.7819-.9998-3.6397-1.2463-5.5201-.126-.9609-.2589-1.9189-.3222-2.9324.468.0404.8621.2287 1.2608.3936.1839.076.3269.2322.5532.2311.143-.0007.2534.1109.2829.2581.3291 1.6405 1.1476 3.0803 1.8417 4.575.5537 1.1923 1.158 2.3497 1.8411 3.4734.907 1.492 1.943 2.8839 3.0895 4.1944 1.5588 1.7819 3.3511 3.273 5.4939 4.3163.1526.0743.2979.1506.3996-.0213.0973-.1644.0508-.3087-.1411-.4172-1.5527-.8779-2.9933-1.9041-4.2487-3.1833-1.0856-1.1062-2.0856-2.2816-2.9481-3.5685-.9485-1.4153-1.83-2.8712-2.5322-4.4282-.3757-.8332-.746-1.6688-1.12-2.5028-.2883-.6429-.0613-1.2802.0384-1.9126.0384-.2435.3045-.1566.4319-.1013 1.2418.5396 2.3966 1.1476 3.3702 2.1832.7461.7935 1.0554 1.7024 1.493 2.6158.6338 1.3231 1.3595 2.5981 2.2612 3.7836.8732 1.148 1.8536 2.1773 2.8718 3.1814.677.6676 1.4621 1.2062 2.2189 1.7774.1165.0879.2424.1636.3498.002.1433-.2156-.0714-.3335-.1804-.4132-.7278-.5322-1.368-1.1641-2.0281-1.7703-1.3239-1.2159-2.436-2.6027-3.3886-4.1359-.394-.6341-.696-1.3152-1.113-1.9342-.3278-.4867-.1964-1.0621-.1713-1.5972.0106-.2261.1777-.4053.5144-.2187 1.5963.8847 2.9637 2.0381 4.1859 3.3858.4811.5305.9843 1.0409 1.3889 1.6327 1.0543 1.542 2.056 3.1173 2.756 4.8586.2015.5013.3592 1.0261.33 1.586-.0077.1484.0355.3043.0791.4496.1092.3638.1243.6669-.2663.907-.7074.4349-.7877 1.1743-.8159 1.9075-.0135.3513.0305.7092.0876 1.0578.0652.3982-.0621.6652-.4004.8865-.2687.1759-.4933.4189-.7375.6321z" fill="#f4bc99"/><path d="m63.6529 92.6087c.2881-.5351.8147-.8493 1.2562-1.2177.8321-.6945 1.5275-1.5126 2.2657-2.2927.2532-.2676.5438-.4652.879-.6036 2.2491-.9288 4.5145-1.8203 6.7438-2.7943 2.0388-.8908 4.0389-1.8701 6.0555-2.8116.0614-.0287.1211-.0652.1736-.108.0992-.0809.2773-.148.1608-.3126-.0782-.1105-.2221-.051-.3319-.0033-.8267.3596-1.6479.7326-2.4793 1.081-1.4902.6244-2.9861 1.2351-4.4801 1.8504-.8527.3512-1.6975.7242-2.5622 1.043-.8346.3077-1.6903.5583-2.5942.8527.0003-.3031.2078-.4198.3126-.5931.7946-1.3133 1.6493-2.597 2.3407-3.9631.3846-.7599.753-1.5679.9196-2.4225.0831-.4264.3856-.5032.6921-.5562.7177-.1241 1.4303-.279 2.1458-.4108 1.2332-.2272 2.4464-.5683 3.6606-.8898.4417-.117.7666-.0145 1.0368.3334.0419.0539.0901.1036.1399.1504.6597.6202.8441.5613 1.1948-.0788.0562-.1025.151-.1836.2259-.2763.415-.514.4148-.5142.9545-.0743.339.2763.9439.1206 1.1362-.3141.2263-.5115.4523-1.0209.7976-1.4982.1801.1967.412.3173.6689.3378.9627.077 1.0417.0446 1.2062-.7506.0547-.2647.202-.5089.2775-.7709.2598-.9005.2624-.9206 1.1122-.5772.4026.1627.8186.2919 1.1744.5907.3588.3013.3365.5471.0845.8621-.4588.5736-.9982 1.0497-1.6133 1.4585-1.0754.7148-2.1186 1.4777-3.2379 2.1266-.1831.1061-.3691.1643-.5717.2072-.3428.0726-.5628.2534-.445.6464.1134.378.3669.5373.7433.3872.7924-.316 1.5769-.6516 2.3646-.9793.7142-.2971 1.4142-.5712 2.2183-.2476.2719.1094.3526.253.4238.4842.081.2629-.0808.3841-.2597.4927-.814.4943-1.6341.9784-2.4466 1.4751-.8998.5501-1.7887 1.118-2.6911 1.6637-1.4279.8634-2.9763 1.4843-4.4695 2.2167-1.3702.6721-2.7695 1.2774-4.1699 1.8736-1.329.5658-2.6201 1.2121-3.9451 1.7861-1.2648.5479-2.5037 1.1536-3.8253 1.5535-1.0297.3115-2.0022.7723-3.0234 1.1028-.0658.0212-.1271.0499-.2192-.0292z" fill="#4e455b"/><path d="m55.2364 96.3631c-.0591.2924-.1962.5746-.1166.8853-.247.3565-.3097.8098-.6098 1.1407-.2057.2268-.3812.4626-.7105.5534-.2903.0801-.4789.0625-.6412-.2142-.145-.2473-.2295-.4881.0302-.6776.3796-.2769.1373-.6257.1352-.9349-.0046-.6597.0696-1.3234-.0924-1.9794-.1408-.5703-.5569-.8977-1.2446-.9299-.7019-.0328-.9146.106-1.1131.7749-.246.8289-.1741 1.5852.3811 2.3142.3394.4457.829.8282.8848 1.4599.0105.1187.079.2502-.0115.3442-.5648.5863-.9836 1.3092-1.6708 1.7814-.2294.1576-.4934.1891-.7258.0974-.8831-.3485-1.75-.7388-2.3929-1.4761-.1513-.1735-.3123-.3657-.1236-.637.0871-.1252.0611-.3106-.0266-.44-.4194-.6184-.3052-1.3048-.2698-1.9816.008-.1534.0481-.306.0475-.4589-.0063-1.5338-.7843-1.5211-1.7907-1.0979-.3708.156-.368.0335-.3802-.2006-.0177-.3375-.1405-.6649-.0714-1.0114.1488-.7462.7479-1.015 1.3586-1.1177.7617-.1281 1.1413-.6519 1.4417-1.215.2362-.4427.5527-.5707.9651-.5529.3805.0164.7429-.0481 1.1104-.1074.3143-.0507.4855.0389.5958.3809.1812.5616.5495 1.0097 1.1376 1.1982.5934.1902 1.1837.3733 1.8266.3925.3296.0099.7303.1432.9054.5005.1496.3054.3242.2213.5313.1117.1192-.0153.1696.0348.2106.1538.22.6392.3569 1.2925.3156 1.9692-.0208.3364.0304.6549.114.9743z" fill="#f4bc99"/><path d="m52.217 15.6168c-.1055.2405-.2072.4827-.3172.7211-.642 1.3914-1.0496 2.8442-1.1264 4.3794-.0365.7288-.2897 1.4296-.263 2.1645.0031.0855.0088.2256-.0896.1722-.236-.1281-.5215.117-.7259-.1231-.1515-.178-.2349-.5449-.5726-.2939-.3212.2388-.2275.6037-.0276.8266.7281.8116.7401 1.9284 1.2694 2.8335.3597.6151.1629 1.3515-.236 1.9605-.2542.3881-.3579.8377-.5768 1.2387-.1764.3231-.27.5802-.7357.2438-.5615-.4056-1.2465-.6255-1.8751-.9297-.6829-.3305-1.4249-.4428-2.121-.7115-.2915-.1125-.3668-.2892-.2793-.5539.3313-1.0024.6678-2.0005 1.1789-2.934.5362-.9795.9118-2.0391 1.5049-2.9943 1.1314-1.8223 2.2642-3.6416 3.7717-5.1882.3362-.3449.7144-.643 1.2213-.8117z" fill="#735726"/><path d="m55.2364 96.3631c-.0835-.3193-.1348-.6379-.1142-.9741.0413-.6767-.0956-1.3299-.3156-1.9692-.0409-.1189-.0914-.1691-.2106-.1538.1831-.1575.2138-.3679.2054-.5919.2786.2427.766.1565.9024.646.2082.7473.2919 1.4948.1889 2.2627-.0181.1349-.0775.2692-.0711.4016.0231.4779-.2348.4932-.5852.3787z" fill="#100e0e"/><path d="m52.4397 97.2067c-.5481-.4205-.9189-.8476-.8807-1.4973.0177-.3018-.0168-.681.3861-.7131.4358-.0347.4942.3239.4944.6713.0006.4937.0002.9874.0002 1.5391z" fill="#f4bc99"/><path d="m50.9152 14.8444c.0705.0368.1409.0735.2117.1104-.2038.4964-.6428.7931-1.0045 1.1622.1498-.4964.4119-.9207.7928-1.2726z" fill="#4e455b"/><path d="m45.9857 96.8883c-.118-.1819-.2165-.3282-.3088-.4784-.0427-.0695-.1181-.1793-.0444-.2234.1066-.0639.2492-.0865.3774-.0897.1004-.0025.1207.1053.114.1903-.0152.1897.0296.3961-.1382.6012z" fill="#b49848"/><path d="m49.9165 16.5189c-.0162-.0458-.0439-.0852-.0338-.1032.0212-.0375.0624-.0638.0954-.0946.0128.0283.0436.0652.0349.083-.0197.0407-.0587.0721-.0965.1148z" fill="#4e455b"/><path d="m52.3112 15.2752c.0192.018.0542.0381.0517.0512-.0049.0262-.0252.0601-.0482.0702-.0691.0303-.0793-.0195-.0665-.0679.0058-.0219.0411-.0359.063-.0535z" fill="#735726"/><path d="m53.5744 91.7243c.0561-.0158.1104-.0266.1323.0492-.0442-.0164-.0882-.0328-.1323-.0492z" fill="#100e0e"/><path d="m52.8533 91.6148c.0776-.0263.1464-.0138.2043.0467-.0681-.0156-.1362-.0312-.2043-.0467z" fill="#100e0e"/><path d="m54.6877 92.5024c.0206.0274.0412.0547.0617.082-.0206-.0273-.0411-.0547-.0617-.082z" fill="#100e0e"/><path d="m54.4897 92.218c.0211.0232.0422.0464.0632.0696-.0279-.0172-.0489-.0404-.0632-.0696z" fill="#100e0e"/><path d="m54.3018 92.0592.012-.0123-.0084.0148z" fill="#100e0e"/><path d="m53.9774 91.9101c.0392.0192.0784.0385.1177.0577-.0392-.0193-.0785-.0385-.1177-.0577z" fill="#100e0e"/><path d="m52.4333 91.6033c.0301-.0185.0597-.0179.089.0018-.0297-.0005-.0593-.0011-.089-.0018z" fill="#100e0e"/><path d="m51.7223 91.4218.0424.0041.0172.0385c-.0226-.0107-.0424-.025-.0596-.0426z" fill="#100e0e"/><path d="m84.6854 52.1556c-.1865.3264-.1728.6876-.1759 1.044-.0028.323-.1574.5175-.431.6933-1.526.9808-3.2168 1.5236-4.9682 1.9066-.5867.1283-1.1804.1308-1.7715-.0204-.2291-.0586-.083-.0943-.0071-.1463.085.0114.1694.0287.2546.033.2778.0141.6345.1508.706-.2755.0677-.4032-.3103-.3532-.5452-.4468-.4489-.1789-.899-.3576-1.3348-.5652-.2442-.1163-.3147-.3529-.0968-.5381.3615-.3074.7412-.5429 1.2717-.5694.6399-.032 1.2073.1059 1.7686.3653.2028.0937.3973.2094.573-.0685.1688-.2671.0379-.3944-.1674-.5407-.1209-.0861-.2041-.2176-.3473-.2919-1.0909-.5666-2.1858-.583-3.2601.0124-.2794.1549-.4135.1363-.5496-.1353-.0595-.1188-.1843-.2077-.233-.3288-.6015-1.4961-1.4814-2.8675-1.9964-4.3996-.3671-1.0921-.7164-2.1937-.9958-3.3106-.2045-.8175-.2995-1.6643-.4126-2.5022-.1299-.963-.2013-1.9323-.22-2.9047-.0061-.318.062-.4534.4166-.2609 1.2849.6975 2.4953 1.4645 3.3241 2.7294.4155.6341.803 1.2805 1.1789 1.9373.8025 1.4025 1.419 2.8885 1.9809 4.3968.2728.7324.5737 1.4595.7283 2.2325.0187.0934.0318.2258.1811.1874.1218-.0313.14-.1447.1233-.2498-.0346-.2167-.0637-.4367-.1255-.6464-.8439-2.8634-1.8292-5.6669-3.4922-8.1811-1.1754-1.777-2.3342-3.5665-3.9887-4.9594-.1516-.1276-.3138-.2724-.3093-.5079.009-.478-.039-.9646.0342-1.4323.1973-1.261.2983-2.5299.3743-3.8008.0205-.3429.1952-.3714.4321-.3084.3373.0898.6621.1792 1.0217.2021.5469.0347 1.0632.1661 1.5053.6 1.121 1.0999 2.1564 2.2916 2.9964 3.5913 1.7325 2.6808 2.9047 5.627 3.62 8.7494.3726 1.6264.7351 3.2538 1.0146 4.8992.0824.4852.0479.992.2624 1.4537.0399.0859.0162.2351.1588.2214.1569-.0151.1546-.1736.1556-.2805.0013-.1515-.042-.3033-.0645-.4552-.1439-.9736-.2503-1.9516-.4172-2.923-.2799-1.6284-.5122-3.2695-1.0155-4.8451-.4539-1.4211-.9166-2.843-1.5775-4.1912-1.0062-2.0525-2.1141-4.0342-3.6263-5.7703-1.1013-1.2644-2.3936-2.3129-3.6779-3.3736-.1411-.1165-.2981-.1753-.2286-.4411.2835-1.0854.5219-2.1825.7963-3.2704.1401-.5554.3976-.6925.9436-.5657.1488.0345.3011.0558.4477.0975.6042.1718 1.2264.256 1.6904.7901.4013.462.8188.9111 1.2054 1.3876 1.4294 1.7618 2.8437 3.5344 3.809 5.6097.6104 1.3124 1.1942 2.6327 1.6445 4.0158.4247 1.3046.7194 2.6264.9315 3.9782.2306 1.4694.3979 2.9466.4495 4.428.0509 1.4595.2549 2.9125.1516 4.3809-.0835 1.1849-.0806 2.3759-.1161 3.5642z" fill="#f3bd99"/><path d="m84.6854 52.1556c.0354-1.1883.0326-2.3793.116-3.5643.1034-1.4684-.1007-2.9214-.1516-4.3809-.0517-1.4814-.2189-2.9585-.4495-4.428-.2121-1.3517-.5068-2.6735-.9315-3.9782-.4503-1.3831-1.034-2.7034-1.6445-4.0158-.9653-2.0753-2.3796-3.8479-3.809-5.6097-.3866-.4765-.8041-.9255-1.2054-1.3876-.464-.5341-1.0862-.6183-1.6904-.7901-.1466-.0417-.2989-.063-.4477-.0975-.546-.1268-.8035.0104-.9436.5657-.2744 1.0879-.5128 2.185-.7963 3.2704-.0694.2658.0875.3246.2286.4411 1.2843 1.0607 2.5766 2.1093 3.6779 3.3736 1.5122 1.7362 2.6201 3.7178 3.6263 5.7703.6609 1.3482 1.1236 2.7701 1.5775 4.1912.5033 1.5757.7356 3.2167 1.0155 4.8451.167.9714.2733 1.9494.4172 2.923.0225.1519.0658.3036.0645.4552-.0009.1069.0014.2654-.1556.2805-.1427.0137-.1189-.1355-.1588-.2214-.2144-.4617-.1799-.9684-.2624-1.4537-.2796-1.6454-.642-3.2728-1.0146-4.8992-.7153-3.1223-1.8875-6.0686-3.62-8.7494-.84-1.2997-1.8754-2.4914-2.9964-3.5913-.4421-.4338-.9584-.5653-1.5053-.6-.3596-.0228-.6844-.1123-1.0217-.2021-.2368-.0631-.4116-.0345-.4321.3084-.0759 1.271-.1769 2.5398-.3743 3.8008-.0732.4678-.0252.9543-.0342 1.4323-.0044.2355.1577.3803.3093.5079 1.6545 1.3929 2.8132 3.1824 3.9887 4.9594 1.663 2.5142 2.6483 5.3177 3.4922 8.1811.0618.2097.0908.4296.1255.6464.0168.1051-.0015.2185-.1233.2498-.1494.0384-.1625-.0941-.1811-.1874-.1546-.773-.4555-1.5001-.7283-2.2325-.5619-1.5083-1.1784-2.9944-1.9809-4.3968-.3759-.6569-.7634-1.3032-1.1789-1.9373-.8288-1.265-2.0392-2.0319-3.3241-2.7294-.3545-.1925-.4227-.0571-.4166.2609.0187.9724.09 1.9418.22 2.9047.1131.8379.2081 1.6847.4126 2.5022.2794 1.1169.6287 2.2185.9958 3.3106.515 1.5321 1.3949 2.9035 1.9964 4.3996.0487.1211.1735.21.233.3288.136.2716.2701.2901.5496.1353 1.0744-.5955 2.1692-.579 3.2601-.0124.1432.0743.2264.2058.3473.2919.2053.1463.3362.2736.1674.5407-.1757.278-.3702.1623-.573.0685-.5613-.2594-1.1287-.3973-1.7686-.3653-.5305.0266-.9102.2621-1.2717.5694-.2179.1852-.1474.4218.0968.5381.4359.2076.8859.3863 1.3348.5652.2349.0936.6129.0436.5452.4468-.0715.4262-.4282.2895-.706.2755-.0851-.0043-.1696-.0216-.2546-.033-.3646-.0748-.7259-.1872-1.0939-.2169-.9726-.0786-1.4356-.7712-1.8653-1.5007-.5801-.9845-.9305-2.0722-1.3726-3.1191-.4295-1.0172-.8255-2.0403-1.1189-3.1086-.3345-1.2179-.5325-2.4602-.7715-3.6956-.4646-2.4011-.6137-4.8396-.755-7.2713-.1468-2.5262-.1077-5.0725.4439-7.5502.4008-1.8.7987-3.6089 1.4024-5.3662.3707-1.0793.6917-2.1686 1.2603-3.165.1098-.1925.2156-.3912.3531-.563.192-.2399.4882-.4398.754-.2694.2461.1578.4345.5062.2981.8232-.3643.847-.1467 1.3902.6142 1.9495 1.7369 1.277 2.9501 3.048 4.251 4.7434 1.4078 1.8349 2.49 3.8418 3.371 5.9484.9542 2.2815 1.6412 4.6543 1.9088 7.1375.1841 1.7089.3133 3.4194.39 5.1346.0778 1.7399-.0223 3.4703-.3156 5.1897-.0794.4656-.0964.9415-.1591 1.4104-.0493.3688-.1598.0082-.2411.0122z" fill="#100e0e"/><path d="m77.0749 62.1977c-.0547.3197-.0245.6601-.2315.9705-.1967.2948-.1779.5693.2563.6607.1136.0239.2227.0885.3231.1516.2322.1459.3035.3647.2364.6235-.0701.2701-.3203.3636-.5217.306-1.1795-.337-2.1305.295-3.0922.753-.8054.3836-1.5949.8188-2.3519 1.3096-.9839.638-1.9426 1.3107-2.9012 1.9839-.2163.1519-.4774.1787-.6866.3328-.0855.0631-.2023.0433-.2781-.0465-.086-.1019-.0264-.1985.0421-.2751.4754-.5316.1584-1.2318.3831-1.8188.0229-.0599-.0715-.197-.1452-.2565-.8308-.6702-.9552-1.6829-.7627-2.5289.3387-1.4892.8598-2.9561 2.3185-3.8574.6757-.4174 1.3149-.9027 2.0795-1.1149 1.1839-.3286 2.4065-.5299 3.6036-.1062.9058.3206 1.4886.9927 1.6329 1.9797.0444.3047.0635.6131.0956.933zm-8.5638 3.546c-.0737.3051.1594.401.3558.5219-.0057.3611.3492.488.4877.752.1927.3672.4118.3109.7045.1167.7229-.4796 1.4265-.9848 2.1844-1.4167 1.1752-.6696 2.2223-1.5757 3.5979-1.8597-.1474-.3294-.1626-.3359-.0778-.5327.3599-.8353.0431-1.5631-.4844-2.1471-.8909-.9862-1.9756-1.1265-3.1878-.5593-1.0993.5144-2.0645 1.3051-2.8368 2.2554-.6657.8193-1.1856 1.7356-.7435 2.8695z" fill="#0c0c0c"/><path d="m69.2482 56.7092c.8552-.0824 1.5356.4156 2.292.632.2601.0744.217.4044-.0406.5577-.2353.1401-.5358.1426-.742.1002-1.6844-.346-2.8541.5261-3.9929 1.5615-.4891.4447-.8178 1.0022-1.2346 1.4957-.1445.1711-.2897.3213-.5084.1977-.2256-.1276-.2333-.3454-.1528-.5847.1676-.4981.5261-.8671.8291-1.2741.0598-.0804.1898-.1599.1835-.2305-.142-1.5914 1.021-1.9755 2.1781-2.3304.3803-.1165.792-.2023 1.1886-.1251z" fill="#0c0c0c"/><path d="m59.1273 57.5861c.098-.5246.1977-1.1151.4247-1.671.0915-.2241.1399-.3979-.0697-.5956-.231-.2179-.199-.5458-.0587-.7625.4624-.7143.8976-1.5487 1.6164-1.948.9168-.5093 1.6259-1.2765 2.5396-1.7599.1559-.0825.3708-.2577.4955-.0561.0967.1564-.0752.3219-.2366.4535-1.6293 1.3275-2.9113 2.9034-3.5794 4.9381-.1645.5011-.3452.9909-.4238 1.514-.015.0997-.0395.2125-.0994.2876-.0974.1221-.1493.3554-.3613.291-.176-.0534-.225-.245-.2459-.421-.0082-.0676-.0014-.1369-.0014-.2701z" fill="#100e0e"/><path d="m68.5111 65.7437c-.4421-1.1339.0778-2.0502.7435-2.8693.7723-.9503 1.7375-1.741 2.8368-2.2554 1.2122-.5672 2.2969-.427 3.1878.5593.5275.584.8443 1.3118.4844 2.1471-.0848.1968-.0696.2033.0778.5327-1.3756.284-2.4226 1.1901-3.5979 1.8597-.7579.4319-1.4615.9371-2.1844 1.4167-.2928.1942-.5118.2505-.7045-.1167-.1385-.264-.4934-.3908-.4876-.752.1549-.3607-.1529-.4057-.3559-.5221zm4.6271-2.9898c-.0347-.6163-.2277-.7118-.7953-.3937-.257-.173-.5063-.0343-.762.0109-.5948.1052-.9591.5409-.9635 1.1745-.0045.6491.3434 1.0579.9893 1.1622.8415.1358 1.4452-.1683 1.8389-.926.325-.6258.2233-.9661-.3074-1.0279z" fill="#944a27"/><path d="m68.5111 65.7437c.2031.1164.5108.1614.3559.5219-.1965-.1209-.4296-.2168-.3559-.5219z" fill="#735726"/><path d="m73.1382 62.7539c.5307.0618.6325.4021.3074 1.0279-.3937.7578-.9974 1.0618-1.8389.926-.6458-.1042-.9938-.513-.9893-1.1622.0044-.6337.3687-1.0693.9635-1.1745.2557-.0452.5049-.1839.762-.011.0834.2505-.1283.6193.1222.7493.2695.1401.448-.2237.6731-.3555z" fill="#0b0b0b"/><path d="m73.1382 62.7539c-.225.1318-.4036.4956-.6731.3556-.2504-.1301-.0388-.4988-.1222-.7493.5676-.3181.7606-.2226.7953.3937z" fill="#fff"/></svg>