<?xml version="1.0" encoding="utf-8"?>
<!-- Generator: Adobe Illustrator 23.0.4, SVG Export Plug-In . SVG Version: 6.00 Build 0)  -->
<svg version="1.1" id="Laag_1" xmlns="http://www.w3.org/2000/svg" xmlns:xlink="http://www.w3.org/1999/xlink" x="0px" y="0px"
	 viewBox="0 0 141.8 141.8" style="enable-background:new 0 0 141.8 141.8;" xml:space="preserve">
<style type="text/css">
	.st0{fill:#FFFFFF;}
	.st1{fill:#5F6065;}
	.st2{fill:#6E9FCC;}
	.st3{fill:#0D0E0D;}
	.st4{fill:#C91444;}
	.st5{fill:#D3889F;}
	.st6{fill:#E281A0;}
	.st7{fill:#752E48;}
	.st8{fill:#767B51;}
	.st9{fill:#161717;}
	.st10{fill:#C19853;}
	.st11{fill:#B0BD68;}
	.st12{fill:#B1BD68;}
	.st13{fill:#B1D8D1;}
	.st14{fill:#B1D8D4;}
</style>
<path class="st0" d="M141.8,71.3c-0.2-19.4-6.7-35.9-19.9-49.6C108.9,8.2,92.9,0.9,74.1,0.1C53.9-0.8,36.3,5.8,21.7,19.8
	C8.2,32.8,0.9,48.9,0.1,67.7c-0.9,20.2,5.8,37.8,19.8,52.4c13,13.5,29.1,20.8,47.9,21.6c20.2,0.8,37.9-5.8,52.5-19.9
	C134.5,108,141.6,90.8,141.8,71.3z"/>
<path class="st1" d="M141.8,71.3c-0.3,19.5-7.3,36.7-21.6,50.6c-14.6,14.1-32.2,20.7-52.5,19.9c-18.8-0.8-34.9-8.1-47.9-21.6
	C5.8,105.5-0.8,87.9,0.1,67.7c0.8-18.8,8.1-34.9,21.6-47.9C36.3,5.8,53.9-0.8,74.1,0.1c18.7,0.8,34.8,8.1,47.8,21.6
	C135.1,35.3,141.6,51.9,141.8,71.3L141.8,71.3z M70.4,137.7c18.5-0.1,34.1-6.4,47-18.9c12.6-12.2,19.5-27.3,20.2-44.9
	c0.8-19.1-5.5-35.8-18.8-49.5c-12.2-12.6-27.3-19.4-45-20.2C55.1,3.4,39,9.7,25.2,22c-5.1,5.1-9.6,10.6-13,17
	c-4.9,9.1-7.7,18.8-8,29.2C3.5,87.6,10,104.3,23.6,118C36.5,131,52.4,137.5,70.4,137.7z"/>
<path class="st2" d="M70.4,137.7c-18-0.2-33.8-6.7-46.8-19.7C10,104.3,3.5,87.6,4.1,68.2c0.3-10.4,3.1-20.1,8-29.2
	c3.4-6.4,8-11.9,13-17C39,9.7,55.1,3.4,73.8,4.2c17.6,0.8,32.7,7.6,45,20.2c13.3,13.7,19.6,30.3,18.8,49.5
	c-0.7,17.6-7.6,32.7-20.2,44.9C104.5,131.3,88.9,137.6,70.4,137.7L70.4,137.7z M33.5,62.5c-0.2-0.1-0.3,0-0.4,0.1
	c-1.4,1.1-2.5,2.4-3.6,3.8c-1.1,1.4-2.2,2.9-3.1,4.5c-0.1,0.1-0.1,0.4-0.4,0.3c-0.5-0.2-1-0.3-1.5-0.4c-0.8-0.1-1.6-0.3-2.4-0.1
	c-0.3,0.1-0.5,0.3-0.5,0.6c0,0.3,0.2,0.4,0.5,0.4c0.9,0.3,1.8,0.8,2.6,1.3c0.2,0.1,0.4,0.2,0.3,0.5c-0.6,1.4-1.2,2.8-1.9,4.1
	c-1.1,2.2-1.9,4.5-2.6,6.9c-0.3,1.3-0.7,2.5-0.8,3.9c-0.2,2.2-0.2,4.3,0.1,6.5c0.3,1.9,0.9,3.7,2.1,5.2c0.2,0.3,0.3,0.5,0.3,0.9
	c0,0.7,0.2,1.3,0.9,1.7c0.8,0.4,1.6,0.8,2.4,1.2c2.1,1.3,4.3,2.4,6.6,3.3c3.3,1.3,6.6,2.7,10,3.5c2.5,0.6,5,1.1,7.6,1.1
	c2.4,0,4.7,0,7.1-0.2c2.2-0.1,4.4-0.6,6.6-1.1c1.4-0.3,2.8-0.9,4.3-1.2c0.4-0.1,0.8,0,1.1,0.1c0.9,0.4,1.7,1.1,2.6,1.4
	c1,0.4,2,0.8,3.1,0.3c0.2-0.1,0.4,0,0.6,0.1c0.2,0.1,0.4,0.2,0.6,0.3c2.2,0.9,4.4,1.6,6.7,2c1.4,0.2,2.9,0.4,4.3,0.4
	c1.5,0,3-0.1,4.5-0.1c1.7-0.1,3.4-0.3,5.1-0.5c1.3-0.1,2.5-0.5,3.7-0.7c3.5-0.6,7-1.5,10.4-2.5c1-0.3,1.9-0.9,2.9-1
	c1.7-0.2,3.2-0.6,4.9-0.9c1.1-0.2,2.1-0.7,3.2-0.9c0.2,0,0.4-0.2,0.5-0.5c0.1-0.2-0.2-0.3-0.3-0.4c-0.2-0.1-0.3-0.2-0.5-0.2
	c-1.3-0.3-2.7-0.5-4.1-0.4c-2.6,0.2-5.1,0.6-7.7,1c-2.6,0.3-5.1,0.7-7.7,0.4c-1.5-0.2-3-0.3-4.3-1c-1.4-0.8-2.8-1.6-4-2.7
	c-0.2-0.2-0.4-0.4-0.3-0.8c0.1-0.5-0.1-0.9-0.4-1.3c-0.9-1-1.9-1.9-2.9-2.8c-0.2-0.2-0.3-0.4-0.1-0.7c0.8-1.1,1.6-2.3,2.3-3.6
	c1.3-2.6,2.4-5.2,3.3-7.9c0.4-1.3,0.8-2.6,1-4c0-0.2,0.1-0.2,0.3-0.3c1-0.5,1.3-1.4,1.3-2.4c0-0.7,0.1-0.8,0.8-0.7
	c0.8,0.1,1.6,0.3,2.4,0.4c2.6,0.5,5,0.3,7.4-0.8c0.9-0.4,1.6-0.9,2.1-1.7c0.4-0.5,0.2-1-0.4-1.1c-0.1,0-0.2,0-0.4-0.1
	c-0.2,0-0.3-0.1-0.3-0.3c0-1.2-0.5-1.9-1.7-2.3c-0.2-0.1-0.3-0.1-0.4-0.3c-0.2-0.2-0.4-0.4-0.7-0.5c-0.5-0.2-0.9-0.6-0.9-1.2
	c0-0.3-0.1-0.7-0.5-0.8c-1-0.2-1.9-0.5-2.9-0.2c-0.9,0.3-1.7,0.7-2.3,1.4c-0.1,0.1-0.2,0.3-0.4,0.2c0-0.1,0-0.2,0-0.3
	c0.9-2.2,1.8-4.4,2.7-6.7c0.8-2,1.6-3.9,2.1-6c0.7-2.7,1.2-5.3,1.3-8.1c0.1-1.9,0.1-3.8-0.5-5.6c-0.6-2.2-1.4-4.4-2.2-6.5
	c-0.4-0.9-0.9-1.8-1.5-2.6c-1.4-1.7-3.1-3.1-4.8-4.6c-0.6-0.5-1.2-1.2-2-1.5c-1-0.3-1.9-0.7-2.9-1c-1-0.3-2.1-0.6-3.2-0.6
	c-1.3-0.1-2.5,0.1-3.7,0.2c-2.1,0.1-4.2,0.5-6.3,0.7c-0.5,0.1-0.9,0-1.1-0.4c-0.8-1.1-1.9-1.8-3.1-2.3c-1.4-0.6-2.9-1-4.4-1.4
	c-1-0.3-1.9-0.6-2.7-1.3c-0.6-0.5-1.1-0.4-1.2,0.4c-0.3,1.3,0.1,2.5,0.8,3.6c0.3,0.5,0.5,1,0.5,1.5c0,0.2,0,0.3-0.2,0.2
	c-1.3-0.2-2.6-0.3-3.9-0.5c-1.6-0.3-2.3-1.4-2.9-2.7c-0.6-1.3-1.1-2.6-2.1-3.6c-1.6-1.7-3.7-2.8-5.9-3.8c-1.5-0.7-2.9-1.5-3.7-3
	c-0.7-1.3-0.8-1.2,0-2.1c0,0,0-0.1,0-0.1c-0.4,0.1-0.7,0.2-0.8,0.5c-0.7,1.6-0.7,3.2,0.1,4.8c0.1,0.1,0.1,0.3,0.1,0.5
	c-0.3,1.4,0.1,2.7,1.1,3.7c1,1.1,2.1,2.2,3.5,2.9c0.5,0.2,0.9,0.5,1.3,0.9c0.2,0.2,0.1,0.5,0,0.7c0,0.2-0.2,0.2-0.4,0.2
	c-2.3,0.1-4.5-0.4-6.3-1.9c-0.5-0.4-0.7-0.4-1.1,0.1c-0.3,0.3-0.2,0.7-0.1,1c0.2,0.3,0.1,0.6,0,0.9c-0.2,0.8-0.5,1.6,0.4,2.2
	c0.1,0.1,0.1,0.2,0.1,0.3c0.1,0.8,0.5,1.5,1.3,1.8c0.1,0,0.2,0.1,0.3,0.3c0.1,0.6,0.5,1,1,1.3c0.7,0.4,1.3,1,2.2,0.9
	c1.7-0.2,3.4-0.4,5.1-1c0.9-0.3,1.7-0.9,2.7-0.7c0.2,0.1,0.5,0,0.7,0.2c2.2,1.7,4.8,2.5,7.5,2.9c2.3,0.4,4.7,0.5,7,0.5
	c2.7,0,5.5-0.3,8.2-0.4c1.5,0,2.9-0.1,4.4,0.3c1,0.3,1.8,0.7,2.7,1.2c1.5,0.8,2.7,1.9,3.7,3.1c1,1.2,1.4,2.6,1.7,4
	c0.1,0.5,0,0.9-0.2,1.4c-0.3,0.6-0.7,1.1-1.1,1.7c-0.9,1.2-1.8,2.4-3,3.4c-0.6,0.4-0.6,0.4-0.8-0.2c-0.1-0.1-0.1-0.3-0.2-0.4
	c-0.1-0.1-0.1-0.2-0.1-0.4c0.3-1.2,0-2.2-1-2.9c-0.1-0.1-0.3-0.2-0.2-0.4c0.4-1.1-0.3-1.9-1-2.6c-0.1-0.1-0.2-0.2-0.2-0.4
	c0.1-0.8-0.4-1.3-1-1.6c-0.4-0.2-0.8-0.4-1.3-0.1c-0.4,0.2-0.4,0.6-0.3,1c0,0.1,0,0.1,0,0.2c-0.3,3.1-1.8,5.5-3.9,7.7
	c-1.2,1.3-2.7,2.2-3.9,3.5c-1.5,1.6-2.2,3.5-1.9,5.7c0,0.3,0,0.4-0.2,0.6c-0.7,0.6-1.4,1.2-2.1,1.8c-2,1.7-3.7,3.6-5,6
	c-0.1,0.3-0.3,0.5-0.7,0.4c-0.2-0.1-0.3,0.1-0.5,0.2c-1.1,1.1-2.2,2.3-3.4,3.4c-1.3,1.3-2.5,2.5-4,3.5c-0.1,0.1-0.2,0.2-0.3,0.1
	c-0.5-0.1-0.9,0.2-1.3,0.5c-1.9,1.6-3.8,3.2-5.7,4.9c-0.7,0.6-1.3,0.7-2.2,0.6c-0.4-0.1-0.8-0.2-1.3-0.2c-2.4-0.4-4.7-1.1-6.9-2
	c-1.5-0.6-3-1.4-4.2-2.5c-1.2-1.1-2.4-2.1-3.7-3.1c-1.6-1.1-3.4-2-5.2-2.7c-0.4-0.2-0.4-0.3-0.2-0.7c0.6-1.1,1.2-2.2,1.9-3.2
	C31.2,66.3,32.2,64.3,33.5,62.5C33.5,62.4,33.5,62.4,33.5,62.5C33.5,62.4,33.5,62.4,33.5,62.5L33.5,62.5z"/>
<path class="st3" d="M33.5,62.5c-1.3,1.8-2.2,3.9-3.4,5.7c-0.7,1.1-1.3,2.1-1.9,3.2c-0.2,0.3-0.1,0.5,0.2,0.7
	c1.8,0.7,3.6,1.6,5.2,2.7c1.3,0.9,2.5,2,3.7,3.1c1.2,1.1,2.7,1.9,4.2,2.5c2.2,0.9,4.5,1.6,6.9,2c0.4,0.1,0.8,0.2,1.3,0.2
	c0.8,0.1,1.5,0,2.2-0.6c1.9-1.7,3.8-3.3,5.7-4.9c0.4-0.3,0.7-0.7,1.3-0.5c0.1,0,0.2-0.1,0.3-0.1c1.4-1,2.7-2.3,4-3.5
	c1.1-1.1,2.3-2.3,3.4-3.4c0.1-0.1,0.3-0.3,0.5-0.2c0.4,0.1,0.5-0.1,0.7-0.4c1.3-2.3,3-4.2,5-6c0.7-0.6,1.4-1.2,2.1-1.8
	c0.2-0.2,0.3-0.3,0.2-0.6c-0.3-2.2,0.4-4.1,1.9-5.7c1.2-1.3,2.7-2.2,3.9-3.5c2-2.2,3.6-4.6,3.9-7.7c0-0.1,0-0.1,0-0.2
	c0-0.4,0-0.8,0.3-1c0.4-0.2,0.9-0.1,1.3,0.1c0.6,0.4,1.1,0.8,1,1.6c0,0.2,0.1,0.3,0.2,0.4c0.8,0.7,1.4,1.4,1,2.6
	c-0.1,0.2,0.1,0.3,0.2,0.4c1,0.7,1.4,1.7,1,2.9c0,0.2,0,0.3,0.1,0.4c0.1,0.1,0.2,0.3,0.2,0.4c0.3,0.6,0.3,0.6,0.8,0.2
	c1.2-0.9,2.2-2.1,3-3.4c0.4-0.5,0.8-1.1,1.1-1.7c0.2-0.4,0.4-0.8,0.2-1.4c-0.3-1.5-0.7-2.9-1.7-4c-1.1-1.3-2.3-2.3-3.7-3.1
	c-0.9-0.5-1.8-0.9-2.7-1.2c-1.4-0.4-2.9-0.4-4.4-0.3c-2.7,0.1-5.5,0.3-8.2,0.4c-2.3,0-4.7-0.1-7-0.5c-2.7-0.4-5.3-1.2-7.5-2.9
	c-0.2-0.2-0.4-0.1-0.7-0.2c-1-0.3-1.8,0.4-2.7,0.7c-1.6,0.6-3.3,0.9-5.1,1c-1,0.1-1.5-0.5-2.2-0.9c-0.5-0.3-0.8-0.7-1-1.3
	c0-0.2-0.2-0.2-0.3-0.3c-0.8-0.3-1.2-0.9-1.3-1.8c0-0.1,0-0.2-0.1-0.3c-0.9-0.6-0.5-1.4-0.4-2.2c0.1-0.3,0.1-0.6,0-0.9
	c-0.2-0.3-0.2-0.7,0.1-1c0.4-0.5,0.6-0.5,1.1-0.1c1.8,1.5,4,2,6.3,1.9c0.1,0,0.4,0,0.4-0.2c0-0.2,0.2-0.4,0-0.7
	c-0.4-0.4-0.8-0.7-1.3-0.9c-1.4-0.7-2.4-1.8-3.5-2.9c-0.9-1-1.4-2.3-1.1-3.7c0-0.2,0-0.3-0.1-0.5c-0.8-1.6-0.7-3.2-0.1-4.8
	c0.1-0.3,0.4-0.5,0.8-0.5c0,0,0,0.1,0,0.1c-0.8,0.9-0.7,0.9,0,2.1c0.8,1.5,2.2,2.3,3.7,3c2.1,1,4.2,2,5.9,3.8c1,1.1,1.5,2.3,2.1,3.6
	c0.5,1.3,1.3,2.4,2.9,2.7c1.3,0.2,2.6,0.3,3.9,0.5c0.2,0,0.2,0,0.2-0.2c0-0.6-0.2-1.1-0.5-1.5c-0.7-1.1-1.1-2.3-0.8-3.6
	c0.2-0.8,0.6-0.9,1.2-0.4c0.8,0.7,1.7,1,2.7,1.3c1.5,0.4,3,0.7,4.4,1.4c1.2,0.5,2.3,1.2,3.1,2.3c0.3,0.4,0.7,0.4,1.1,0.4
	c2.1-0.3,4.2-0.6,6.3-0.7c1.2-0.1,2.5-0.2,3.7-0.2c1.1,0,2.1,0.3,3.2,0.6c1,0.3,1.9,0.7,2.9,1c0.8,0.3,1.4,0.9,2,1.5
	c1.7,1.4,3.4,2.9,4.8,4.6c0.7,0.8,1.1,1.7,1.5,2.6c0.8,2.1,1.6,4.3,2.2,6.5c0.5,1.8,0.5,3.7,0.5,5.6c-0.1,2.7-0.6,5.4-1.3,8.1
	c-0.5,2.1-1.3,4-2.1,6c-0.9,2.2-1.7,4.5-2.7,6.7c0,0.1,0,0.2,0,0.3c0.2,0,0.3-0.1,0.4-0.2c0.6-0.7,1.4-1.1,2.3-1.4
	c1-0.4,1.9-0.1,2.9,0.2c0.4,0.1,0.5,0.5,0.5,0.8c0,0.6,0.3,1,0.9,1.2c0.3,0.1,0.5,0.3,0.7,0.5c0.1,0.1,0.2,0.2,0.4,0.3
	c1.2,0.3,1.7,1.1,1.7,2.3c0,0.2,0.1,0.3,0.3,0.3c0.1,0,0.2,0,0.4,0.1c0.6,0.2,0.8,0.6,0.4,1.1c-0.5,0.8-1.3,1.3-2.1,1.7
	c-2.4,1.1-4.9,1.3-7.4,0.8c-0.8-0.2-1.6-0.3-2.4-0.4c-0.7-0.1-0.8,0-0.8,0.7c0,1-0.3,1.9-1.3,2.4c-0.1,0.1-0.3,0.1-0.3,0.3
	c-0.1,1.4-0.5,2.7-1,4c-0.9,2.7-2,5.4-3.3,7.9c-0.6,1.3-1.4,2.5-2.3,3.6c-0.2,0.3-0.2,0.5,0.1,0.7c0.9,1,2,1.8,2.9,2.8
	c0.3,0.4,0.5,0.8,0.4,1.3c-0.1,0.3,0.1,0.5,0.3,0.8c1.2,1.2,2.6,2,4,2.7c1.3,0.7,2.8,0.8,4.3,1c2.6,0.3,5.1,0,7.7-0.4
	c2.6-0.3,5.1-0.8,7.7-1c1.4-0.1,2.7,0.2,4.1,0.4c0.2,0,0.4,0.1,0.5,0.2c0.1,0.1,0.4,0.2,0.3,0.4c-0.1,0.2-0.2,0.4-0.5,0.5
	c-1.1,0.2-2.1,0.7-3.2,0.9c-1.6,0.3-3.2,0.7-4.9,0.9c-1,0.1-1.9,0.7-2.9,1c-3.4,1.1-6.9,1.9-10.4,2.5c-1.2,0.2-2.5,0.5-3.7,0.7
	c-1.7,0.2-3.4,0.4-5.1,0.5c-1.5,0.1-3,0.2-4.5,0.1c-1.5,0-2.9-0.2-4.3-0.4c-2.3-0.4-4.5-1.1-6.7-2c-0.2-0.1-0.4-0.2-0.6-0.3
	c-0.2-0.1-0.4-0.2-0.6-0.1c-1.1,0.6-2.1,0.1-3.1-0.3c-1-0.3-1.7-1-2.6-1.4c-0.4-0.2-0.7-0.2-1.1-0.1c-1.5,0.3-2.8,0.9-4.3,1.2
	c-2.2,0.5-4.4,0.9-6.6,1.1c-2.4,0.1-4.7,0.2-7.1,0.2c-2.6,0-5.1-0.6-7.6-1.1c-3.5-0.8-6.7-2.2-10-3.5c-2.3-0.9-4.4-2.1-6.6-3.3
	c-0.8-0.5-1.6-0.8-2.4-1.2c-0.7-0.4-0.8-1-0.9-1.7c0-0.3-0.1-0.6-0.3-0.9c-1.1-1.6-1.8-3.3-2.1-5.2c-0.3-2.2-0.3-4.3-0.1-6.5
	c0.1-1.3,0.5-2.6,0.8-3.9c0.6-2.4,1.5-4.7,2.6-6.9c0.7-1.4,1.2-2.8,1.9-4.1c0.1-0.3-0.1-0.4-0.3-0.5c-0.8-0.5-1.6-1.1-2.6-1.3
	c-0.2-0.1-0.5-0.1-0.5-0.4c0-0.3,0.2-0.5,0.5-0.6c0.8-0.2,1.6-0.1,2.4,0.1c0.5,0.1,1,0.2,1.5,0.4c0.3,0.1,0.3-0.1,0.4-0.3
	c0.8-1.6,1.9-3.1,3.1-4.5c1.1-1.4,2.2-2.7,3.6-3.8C33.2,62.5,33.3,62.4,33.5,62.5L33.5,62.5z M54.6,28.9L54.6,28.9
	C54.6,28.9,54.6,28.9,54.6,28.9c-0.3-0.5-0.6-0.2-0.8-0.2c-2.5,0.5-4.7-0.3-6.7-1.9c-0.1-0.1-0.3-0.4-0.5-0.2
	c-0.2,0.2-0.2,0.4,0,0.7c0.2,0.3,0.5,0.6,0.9,0.8c0.5,0.3,1.1,0.5,1.5,1c-0.5,0-0.8-0.3-1.2-0.4c-0.4-0.1-0.7-0.4-1-0.6
	c-0.3,1.7-0.5,1.7,1.2,2.4c0.4,0.2,0.9,0.2,1.3,0.6c-0.7,0.1-1.2-0.3-1.8-0.3c0.1,0.8,0.5,1.2,1.2,1.3c0.5,0.1,0.9,0.3,1.4,0.5
	c-0.3,0.2-0.7-0.1-1,0.2c0.4,0.6,0.8,1.2,1.7,1.2c1.1,0.1,2.2,0,3.3-0.2c1.2-0.1,2.3-0.5,3.3-1c0.3-0.1,0.4-0.2,0.1-0.5
	c-0.3-0.2-0.6-0.5-0.8-0.9c0.2-0.1,0.4,0,0.5,0.2c0.5,0.4,1.1,0.8,1.9,0.8c-0.3-0.4-0.5-0.7-0.6-1.1c-0.1-0.2-0.1-0.5,0.2-0.3
	c0.3,1,1.1,1.5,1.9,2c1.9,1.1,4,2,6.2,2.5c2.3,0.5,4.6,0.5,7,0.5c3.1,0,6.2-0.4,9.4-0.4c2.1,0,4.1,0.1,6,1c2.9,1.3,5,3.4,6.3,6.3
	c0,0.1,0.1,0.2,0.1,0.2c0.1,0,0.2-0.1,0.2-0.2c0.1-0.3,0.3-0.7,0.6-0.9c0.8-0.5,0.9-1.3,0.8-2.1c0-0.5-0.1-0.9-0.2-1.4
	c-0.3-1.1-0.8-2.1-1.3-3.1c0.3,0,0.4,0.2,0.5,0.4c0.2,0.5,0.5,0.9,0.7,1.4c0.5,1.1,0.9,2.3,0.7,3.5c-0.2,1.3-0.5,2.6-1.1,3.8
	c-0.8,1.8-1.8,3.4-3,4.8c-1,1.2-2,2.4-3.4,3.2c-0.3,0.2-0.1,0.4,0,0.5c0.3,0.3,0.3,0.6,0.3,1c-0.1,0.8-0.7,1.2-1.3,1.6
	c-1.3,0.9-2.8,1.4-4.2,2.1c-0.2,0.1-0.4,0.1-0.5,0.4c1-0.2,1.9-0.3,2.7-0.7c2.1-0.9,3.9-2.3,5.6-3.9c0.2-0.2,0.4-0.4,0.6-0.4l0,0
	c0.1,0.1,0,0.2,0,0.2c-1.8,2-3.8,3.7-6.2,4.9c-0.4,0.2-0.8,0.3-1.2,0.4c-0.7,0.1-1.3,0.3-2,0.5c-0.3,0.1-0.5,0.2-0.6,0.5
	c-0.3,1.1-1.2,1.9-2,2.7c-0.1,0.1-0.2,0.2-0.3,0c0.6-0.7,1-1.5,1.2-2.4c0-0.1,0.1-0.3,0-0.4c-0.2-0.1-0.3,0.1-0.4,0.1
	c-0.5,0.4-1,0.9-1.4,1.4c-0.1,0.1-0.2,0.3-0.4,0.2c-0.2-0.1-0.1-0.3-0.1-0.4c0.4-0.7,1-1.3,1.7-1.8c1.7-1.2,3.5-2.2,5.4-3
	c0.9-0.4,1.7-0.9,2.4-1.5c0.3-0.2,0.4-0.5,0.4-0.8c0-0.3-0.2-0.5-0.4-0.6c-0.2-0.1-0.3,0.1-0.4,0.3c-0.2,0.2-0.3,0.5-0.7,0.6
	c0.3-0.7,0.7-1.3,1-1.9c0.2-0.5,0.1-0.9-0.2-1.3c-0.2-0.2-0.3-0.3-0.5,0c-0.4,0.5-0.7,1.1-1.2,1.6c-0.2-0.2,0-0.3,0.1-0.5
	c0.3-0.5,0.6-1,0.9-1.4c0.6-0.8,0.5-1.7,0.1-2.5C88.5,48.2,88.3,48,88,48c-0.3,0-0.3,0.3-0.4,0.5c-0.4,0.8-0.9,1.6-1.6,2.3
	c-0.1-0.3,0.1-0.4,0.2-0.6c0.7-1.1,1.4-2.3,1.5-3.7c0-0.6-0.2-1-0.7-1.3c-0.2-0.2-0.3-0.1-0.4,0.2c-0.4,1.2-1,2.2-1.7,3.2
	c-0.1,0.1-0.1,0.2-0.3,0.2c-0.1-0.2,0.1-0.3,0.1-0.4c0.3-0.6,0.7-1.3,1.1-1.9c0.4-0.8,0.6-1.6,0.5-2.5c0-0.3-0.1-0.5-0.3-0.7
	c-0.2-0.2-0.5-0.4-0.8-0.3c-0.2,0.1-0.2,0.5-0.2,0.7c0,1.1-0.1,2.2-0.5,3.2c-0.7,1.9-2,3.4-3.4,4.7c-1.2,1.1-2.5,2.2-3.6,3.3
	c-1.7,1.7-2.6,3.7-1.9,6.2c-0.4,0.3-0.8,0.7-1.2,1c-2.5,2.1-4.9,4.3-6.2,7.5c0.5,0.1,0.9,0.3,1.4,0.4c0,0.1-0.1,0.1-0.1,0.2
	c-0.4-0.1-0.7-0.2-1.1-0.2c-0.6,0-1.2-0.2-1.8,0.3c-1.8,1.7-3.5,3.5-5.3,5.1c-0.7,0.6-1,1.1-0.7,2c0.2,0.5,0.2,0.6,0.7,0.4
	c1-0.5,2.1-0.9,3.2-1.3c1.6-0.5,3.2-1.2,4.9-1.4c0.9-0.1,1.8,0.1,2.5,0.6c0.3,0.3,0.5,0.6,0.3,1c-0.4,1.3-1.3,2.3-2.5,3
	c-0.6,0.3-1.1,0.7-1.7,1.2c1.7,0,3.2,0.1,4.7,0.5c1.5,0.4,3,0.8,4.3,1.7c0-0.8,0-1.6,0.6-2.3c0.6-0.6,1.1-1.3,1.7-1.8
	c0.8-0.8,1.6-1.5,2.4-2.2c2.8-2.6,5.9-5,9.1-7.2c0.4-0.2,0.7-0.3,1.2-0.2c0.5,0.1,1,0.2,1.4,0.3c0.2,0.1,0.3,0,0.3-0.3
	c0.1-1.3,0.1-2.5,0.1-3.8c0-0.7,0.1-1.4,0.5-2c1.3-2.1,2.4-4.3,3.6-6.3c1-1.6,1.8-3.2,2.7-4.8c1.2-2,2.4-4.1,3.3-6.2
	c0.5-1,0.5-2,0.1-3.1c-0.4-1.2-0.9-2.4-1.3-3.6c-0.4-1.2-1-2.4-2-3.4c-0.2-0.2-0.4-0.5-0.6-0.7c-1.4-1.7-3-3.1-4.7-4.4
	c-0.6-0.5-1.4-0.7-2.2-1c-1.5-0.5-3-0.9-4.6-1c-2.4-0.1-4.8,0.2-7.2,0.4c-0.8,0.1-1.6,0.2-2.4,0.3c0.1,0.3,0.3,0.2,0.5,0.2
	c0.8,0,1.6-0.1,2.4-0.2c1.1-0.1,2.3-0.2,3.4-0.3c0,0.1,0.1,0.1,0.1,0.2c-0.6,0.3-1.2,0.3-1.9,0.5c-0.5,0-0.9,0.1-1.4,0.1
	c-1.5,0.1-3.1,0-4.6,0.4c-1,0.3-2,0.5-3.1,0.6c-0.5,0-1,0.1-1.5-0.1c0.2-0.2,0.4-0.1,0.5-0.1c0.5,0,1-0.1,1.5-0.2
	c0.7-0.1,1.2-0.3,1.8-0.7c0.3-0.2,0.4-0.4,0.1-0.7c-0.3-0.4-0.6-0.7-1-1c-1.6-1.2-3.5-1.8-5.4-2.4c-1.3-0.4-2.7-0.6-3.7-1.6
	c-0.1-0.1-0.3-0.1-0.3,0.1c-0.2,0.5,0,0.9,0.1,1.4c0.1,0.4,0.4,0.2,0.5,0.4c0.1,0.1,0.3,0.1,0.4,0.3c-0.2,0.3-0.4,0-0.6,0
	c0,0-0.1,0-0.1,0c0,0,0,0.1,0,0.1c0.2,0.6,0.3,1.3,1.1,1.4c0.2,0,0.5,0.1,0.5,0.3c0,0.3-0.4,0.1-0.6,0.1c0,0-0.1,0-0.1,0.1
	c0.2,0.4,0.4,0.7,0.3,1.2c-0.1,0.4-0.3,0.9-0.8,0.8c-2.4-0.3-4.8-0.5-6.9-1.8c-0.1-0.1-0.1-0.2-0.2-0.1l0,0c0-0.1,0-0.2-0.1-0.2
	c-0.1-0.1-0.3-0.1-0.2-0.3c0.1-0.2,0.3,0,0.4-0.1c-0.6-0.5-1.2-1.1-2.1-0.9c-0.2,0-0.3-0.1-0.2-0.3c0.5-0.3,1.1-0.2,1.7,0
	c-0.5-1.7-1.5-3-2.7-4.1c-1.5-1.3-3.3-2.1-5-3c-1.6-0.8-3.3-1.5-4-3.5c-0.1,0.7-0.1,1.3,0,1.8c0.3,1.3,1,2.4,1.9,3.4
	c0.2,0.2,0.4,0.5,0.5,0.8c-0.8-0.3-1-1.1-1.7-1.6c0.2,1.4,0.9,2.7,2,3.5c1.3,1,2.9,1.7,4,3c0.1,0.2,0.3,0.1,0.5,0.1
	c0.5-0.1,0.9-0.3,1.4-0.2c0.1,0.2-0.1,0.3-0.3,0.3c-0.4,0.1-0.9,0.3-1.3,0.4c-0.4,0.1-0.5,0.2-0.2,0.5c0.3,0.4,0.6,0.8,1,1.1
	c0.2,0.1,0.4,0.3,0,0.4c0,0,0,0-0.1,0c-0.1-0.2-0.2-0.3-0.4-0.3l0,0c-0.1-0.2-0.3-0.4-0.5-0.5l0,0C54.7,29,54.7,29,54.6,28.9
	L54.6,28.9z M91.4,70L91.4,70c-0.2,0.1-0.4,0.1-0.5,0.3l0,0c0,0-0.1,0.1-0.1,0.1l0,0c-0.4,0.1-0.6,0.3-0.9,0.6
	c-0.6,0.3-1.1,0.8-1.7,1.2c-1.4,1.1-2.9,2.1-4.2,3.3c-0.8,0.7-1.6,1.5-2.4,2.3c-1.1,1.1-2.3,2.1-3.3,3.4c-0.3,0.4-0.4,0.8-0.4,1.2
	c0.1,0.7,0.2,1.4,0.4,2.1c0.1,0.4,0,0.6-0.5,0.5c-0.2,0-0.4-0.2-0.5-0.3c-0.3-0.2-0.6-0.5-0.9-0.6c-1.5-0.6-3-1-4.5-1.2
	c-2.9-0.4-5.7-0.2-8.5,0.3c-0.2,0-0.5,0.1-0.7,0.1c-0.2,0-0.5,0.1-0.5-0.1c0-0.2,0.3-0.3,0.4-0.3c0.4-0.1,0.8-0.3,1.1-0.5
	c2.1-1,4.1-2.2,5.7-4c0.3-0.3,0.8-0.6,0.6-1c-0.2-0.3-0.8-0.1-1.2,0c-2.3,0.5-4.5,1.1-6.6,2.2c-0.8,0.4-1.6,0.8-2.4,1.2
	c-0.2,0.1-0.5,0.1-0.7,0c-0.1-0.1-0.2-0.2-0.1-0.4c0.2-0.7,0.2-1.4,0.2-2.2c0-0.2,0.1-0.5-0.1-0.6c-0.2-0.1-0.4,0.1-0.6,0.2
	c-1.8,1.3-3.5,2.7-5.2,4.1c-1.2,1-2.3,2.2-3.6,3.1c-0.4,0.3-0.6,0.6-0.4,1.1c0.2,0.8,0.2,1.6-0.4,2.2c-0.5,0.5-1,0.9-1.5,1.3
	c-1.1,0.8-2.2,1.6-3.3,2.4c-0.9,0.7-1.8,1.4-2.8,2.1c-0.6,0.4-1.2,0.6-1.9,1c0-0.1-0.1-0.1-0.1-0.2c1.9-1.2,3.6-2.5,5.3-3.9
	c0.1-0.1,0.2-0.1,0.3-0.2c-0.2,0-0.3,0.1-0.4,0.1c-1.3,0.6-2.6,1.2-3.8,2c-2.5,1.8-5.2,3-8.1,3.8c-1.4,0.4-2.8,0.7-4.3,1.1
	c1,0.8,1.9,1.6,2.9,2.3c-0.2,0.2-0.4,0-0.5-0.1c-1-0.5-2-1.2-3-1.8c-1.1-0.8-2.5-0.9-3.5,0.1c-0.2,0.2-0.4,0.3-0.6,0.1
	c0.2-0.5,0.6-0.8,1-1.1c0.3-0.2,0.2-0.3,0-0.4c-0.6-0.7-1-1.6-1.3-2.5c-0.5-1.7-0.7-3.5-0.8-5.3c-0.1-3.1,0.3-6,1.4-8.9
	c1-2.5,2-5,3.2-7.4c1.1-2.3,2.5-4.4,3.8-6.6c0.3-0.4,0.6-0.7,0.6-1.2c-0.2,0.4-0.5,0.7-0.7,1.1c-0.2,0.3-0.4,0.6-0.7,0.9
	c-1.4,1.7-2.6,3.7-3.7,5.7c-1.1,2.1-2,4.2-2.9,6.4c-0.6,1.4-1,2.8-1.6,4.1c-0.1,0.1-0.1,0.2-0.2,0.4c-0.4,1.6-1,3.2-1.2,4.8
	c-0.4,3-0.5,5.9,0.4,8.8c0.3,1.1,0.8,2.1,1.4,3c0.1-0.2,0.1-0.5,0.4-0.4c0.3,0.1,0.1,0.4,0.1,0.5c0,0.3-0.1,0.5-0.1,0.8
	c0,0.6,0.2,1.1,0.7,1.5c0.6,0.4,1.2,0.7,1.8,1c1.5,0.8,3.1,1.5,4.6,2.2c1.9,1,3.8,1.9,5.7,2.7c2.2,0.8,4.4,1.6,6.7,2.2
	c2.7,0.7,5.4,1.2,8.2,1.2c3.1,0,6.3-0.3,9.4-0.8c2.2-0.4,4.4-0.8,6.4-1.6c1.5-0.6,3-1.2,4.4-2c0.7-0.4,1.5-0.7,2.2-1.3
	c0.1-0.1,0.3-0.1,0.4-0.2c1.8-1.1,3.5-2.3,5.2-3.5c2.1-1.5,4.1-3,5.7-5.1c0.7-0.9,1.5-1.7,2-2.7c1-2,0.9-4.1,0.8-6.2
	c0-0.1,0-0.1-0.1,0c-0.1,0.6-0.1,1.2-0.2,1.8c-0.2,1.5-0.6,2.8-1.5,4c-1.1,1.5-2.4,2.9-3.9,4.1c-1.7,1.4-3.5,2.6-5.5,3.6
	c-1.3,0.7-2.8,1.2-4.2,1.7c-2.1,0.7-4.3,1.2-6.5,1.6c-2.7,0.5-5.5,0.6-8.3,0.7c-1.6,0.1-3.3,0.2-4.9-0.2c-1.5-0.4-3.1-0.4-4.4-1.5
	c-0.1-0.4,0-0.4,0.3-0.2c1.6,0.9,3.4,0.9,5.2,1.2c-0.5-1,0-1.7,0.5-2.4c0.1-0.1,0.1-0.3,0.3-0.2c0.1,0.1,0,0.2,0,0.4
	c-0.1,0.3-0.2,0.5-0.4,0.9c1.2-0.6,2.5-0.8,3.6-1.4c3.5-1.7,5.5-4.4,6.1-8.3c0.1-0.9-0.2-1.7-0.7-2.4c-0.4-0.6-0.7-0.6-1.3-0.3
	c-0.4,0.2-0.7,0.5-1.1,0.8c-0.2,0.2-0.4,0.4-0.7,0.4c-0.1,0-0.2,0.1-0.3,0c-0.1-0.1,0-0.2,0.1-0.3c0.3-0.3,0.6-0.6,1-0.9
	c2.1-1.9,3.6-1.9,5.8-1.2c0.1,0,0.3,0.1,0.3,0.2c-0.1,0.2-0.2,0.1-0.4,0.1c-0.7-0.1-1.4,0-2.1,0c-0.4,0-0.8,0-1.1,0.2
	c1,0.9,1.4,2.1,1.3,3.4c-0.1,1.5-0.8,2.9-1.6,4.2c-1.2,1.9-2.8,3.4-4.8,4.3c-1,0.5-2.2,0.8-3.3,1.2c-0.6,0.2-0.6,0.6-0.1,0.9
	c0.5,0.3,1,0.3,1.5,0.3c2.9-0.1,5.8-0.2,8.7-0.7c2.7-0.5,5.4-1,8-2.1c1.9-0.8,3.8-1.6,5.5-2.7c1.4-0.9,2.8-2,4-3.1
	c1.7-1.5,2.9-3.5,3.8-5.6c0.9-2.2,0.7-4.2-0.7-6.1c-0.1-0.2-0.3-0.3-0.1-0.5c0.2-0.1,0.4,0,0.5,0.1c0.3,0.3,0.6,0.6,0.9,1
	c0.9,1.6,1.3,3.3,1.2,5.2c0,1.8-0.5,3.5-1.6,5c-2.4,3.4-5.6,6-8.8,8.5c-2.4,1.8-5,3.3-7.8,4.6c-0.3,0.1-0.4,0.3,0,0.5
	c1,0.5,1.9,1.2,2.9,1.6c0.4,0.2,0.8,0.3,1.3,0c-0.9-0.2-0.8-0.8-0.6-1.4c0-0.1,0-0.2,0-0.3c0-0.4,0.3-0.6,0.6-0.8
	c1.2-0.7,2.3-1.4,3.5-2c1.6-0.9,3.2-1.9,4.8-3c0.8-0.6,1.7-1.3,2.8-0.9c0.1,0,0.1,0,0.2,0c2.5-0.7,5-0.9,7.5,0.2
	c-0.3-0.4-0.5-0.8-0.8-1.1c-0.9-0.9-1.9-1.8-2.8-2.7c-0.3-0.3-0.5-0.6-0.7-1c-0.1-0.1-0.1-0.3,0-0.4c0.1-0.1,0.2,0,0.3,0.1
	c0.1,0.1,0.2,0.2,0.3,0c0.5-0.6,1.1-1.2,1.5-1.8c1.3-1.9,2.3-3.9,3.1-6.1c0.5-1.5,1-2.9,1.5-4.4c0.5-1.5,0.6-3.1,0.7-4.6
	c0.1-1.3,0.4-2.5,0.3-3.8c-0.1-0.8,0-1.6,0.1-2.4c0-0.3,0.1-0.7,0.1-1c0.2,0.6,0,1.1,0.2,1.7c0.2,2.1,0.1,4.3-0.3,6.4
	c0.6-0.1,0.8-0.4,0.9-0.9c0.2-0.8,0.1-1.6,0.1-2.3c-0.1-1.7-0.1-3.4,0.1-5.2c0-0.3,0.1-0.5,0.1-0.8c0-0.1,0-0.2,0.2-0.2
	c0.2,0,0.1,0.2,0.1,0.2c-0.1,0.6-0.1,1.3-0.1,1.9c0,0.1-0.1,0.3,0.1,0.3c0.2,0,0.4,0.1,0.5-0.2c0.1-0.2,0.1-0.4,0.2-0.6
	c0.9-2.1,1.8-4.3,2.7-6.4c0.8-2.1,1.6-4.3,2.3-6.4c1.2-3.4,1.9-6.9,2-10.5c0-1.6-0.1-3.1-0.4-4.8c-0.3,0.7-0.6,1.4-0.9,2
	c-0.8,1.5-1.7,3-2.5,4.5c-1.2,2-2.3,3.9-3.4,5.9c-0.7,1.2-1.3,2.5-2.1,3.7c-1.3,2.1-1.4,4.4-1.4,6.7c-0.2,0.3,0,0.6-0.1,0.8
	c0,0.3,0,0.6-0.3,0.8c-0.2,0.2-0.3,0.1-0.5,0.1c-0.6-0.1-1.2-0.2-1.8-0.3C91.8,69.8,91.6,69.7,91.4,70C91.4,69.9,91.4,69.9,91.4,70
	L91.4,70z M94.1,107.6c-0.1,0.2-0.1,0.2-0.2,0.2c-1.7-0.3-3.4-0.8-5-1.6c-1.3-0.6-2.5-1.6-3.6-2.5c-1.2-0.9-1.5-0.9-2.6-0.1
	c-0.5,0.4-1,0.8-1.5,1.1c-1.7,1-3.5,2.1-5.2,3.1c-0.6,0.4-1.3,0.6-1.8,1.1c-0.6,0.6-0.5,1.4,0.2,1.7c1,0.4,2,0.9,3,1.3
	c3.1,1.2,6.3,1.5,9.5,1.7c1.7,0.1,3.4,0.1,5.1-0.1c1.7-0.1,3.4-0.3,5.1-0.6c2.2-0.4,4.3-0.9,6.5-1.3c2.9-0.5,5.8-1.3,8.6-2.4
	c2.1-0.8,3.9-2,6.2-2.6c-0.6-0.2-1.1,0.1-1.6,0.1c-1,0.1-2.1,0.1-3.1,0.3c-2.1,0.4-4.1,0.7-6.2,0.9c-1,0.1-2,0.1-3,0.1
	c-1.6,0-3.2,0.1-4.7-0.3c-2.4-0.6-4.7-1.5-6.4-3.5c-0.6-0.7-1.3-1.2-2.1-1.4c-1.8-0.4-3.7-0.4-5.6-0.1
	C88.2,105.1,90.6,107.2,94.1,107.6L94.1,107.6z M50.1,83.3c-1.5-0.2-2.9-0.3-4.3-0.6c-1.7-0.4-3.3-0.9-4.9-1.6
	c-2-0.9-3.5-2.3-5.1-3.7c-2.1-1.9-4.4-3.4-6.9-4.5c-1.2-0.6-1.2-0.6-1.8,0.7c0,0.1-0.1,0.2-0.2,0.3c-0.1,0.2-0.1,0.4,0.1,0.5
	c0.4,0.4,0.7,0.8,1,1.2c1.1,1.6,1.8,3.5,2.4,5.3c0.6,1.8,1.2,3.5,2.2,5.2c0.7,1.3,1.7,2.5,2.8,3.5c1.2,1,2.3,2,3.7,2.8
	c0.3,0.2,0.5,0.2,0.7,0c0.8-0.5,1.6-1,2.4-1.5c1.3-0.7,2.6-1.3,4-1.7c0.4-0.1,0.5-0.3,0.2-0.6c-0.3-0.4-0.3-0.8-0.1-1.2
	c0.2-0.5,0.6-0.8,1.1-1c0.2-0.1,0.4-0.1,0.5-0.3c-3.4-0.1-6.4-0.8-7.2-1.7c1,0.4,1.9,0.7,2.9,0.9c1.5,0.3,2.9,0.5,4.4,0.3
	c0.1,0,0.4,0,0.3-0.2c-0.2-0.5,0.1-0.7,0.4-1C49.2,84,49.7,83.6,50.1,83.3z M38.6,93.2c-0.4-0.2-0.7-0.4-0.9-0.6
	c-3.1-2.4-5.5-5.4-6.8-9.1c-0.8-2.1-1.5-4.2-2.6-6.2c-0.5-0.8-0.9-1.7-1.7-2.4c-0.1,0.3-0.2,0.5-0.3,0.7c-0.9,2-1.5,4.2-2.2,6.3
	c-1.1,3.3-1.2,6.6-0.7,10c0.2,1.4,0.6,2.8,1.5,4c0.2,0.3,0.5,0.6,1,0.5c0.2-0.1,0.5,0,0.7,0.1c0.3,0.1,0.6,0.2,1,0.1
	c1.3-0.2,2.6-0.4,3.9-0.6C34,95.6,36.3,94.5,38.6,93.2L38.6,93.2z M103,72.6c0.5-0.4,1.2-0.6,1.8-0.8c0.1,0,0.5,0.2,0.4-0.2
	c0-0.3,0-0.6-0.4-0.8c-1.1-0.5-2.1-0.2-3,0.5c-0.8,0.7-1.4,1.5-2,2.4c-0.6,0.9-1.1,1.8-2.2,2.2c-0.1,0-0.1,0.2-0.1,0.3
	c0,0.7,0.1,1.4,0.1,2c0,0.3,0.1,0.3,0.3,0.3c0.6-0.1,1.2,0.1,1.8,0.2c1,0.2,2.1,0.4,3.1,0.5c1.1,0.1,2.1-0.2,3.2-0.4
	c1.4-0.3,2.7-0.9,3.8-1.9c0.3-0.3,0.2-0.4-0.1-0.5c-0.6-0.2-0.8-0.4-0.7-1.1c0.1-0.7-0.4-1.3-1-1.5c-0.6-0.2-1.2-0.3-1.8-0.2
	c-0.6,0.1-1.2,0.2-1.9,0.4c-0.1,0-0.3,0.2-0.5-0.1c1-0.3,1.9-0.6,2.9-1C105.5,71.8,104.2,72.3,103,72.6L103,72.6z M77.6,82.5
	c-0.2,0.2-0.3,0.5-0.2,0.8c0,0.1,0.1,0.3,0,0.3c-0.1,0.1-0.3,0-0.4-0.1c-0.7-0.3-1.3-0.7-2-1.1c-2.1-0.9-4.2-1.1-6.5-1.1
	c-0.5,0-0.9,0-1.5,0c0.3-0.3,0.6-0.5,0.8-0.8c0.9-0.7,1.9-1.5,2.8-2.2c0.5-0.4,0.9-1,1.1-1.6c0.1-0.3,0.1-0.5-0.1-0.7
	c-0.4-0.3-0.8-0.6-1.4-0.6c-0.4,0-0.8,0-1.1,0.1c-1.8,0.3-3.5,0.7-5.2,1.4c-1.1,0.5-2.3,1-3.5,1.5c-0.2,0.1-0.3,0-0.3-0.2
	c0-0.4-0.1-0.8-0.3-1.2c-0.1-0.2-0.1-0.4-0.4-0.3c-0.2,0.1-0.2,0.3-0.2,0.4c0.2,0.8,0.1,1.6-0.1,2.4c0,0.2-0.1,0.3,0.1,0.4
	c0.1,0.1,0.3,0,0.4,0c0.6-0.3,1.2-0.6,1.8-0.8c1.7-0.8,3.5-1.4,5.3-1.9c0.9-0.2,1.8-0.5,2.8-0.6c0.3,0,0.6,0.1,0.7,0.4
	c0.1,0.2,0,0.5-0.2,0.7c-0.4,0.4-0.8,1-1.3,1.4c-1.4,1.2-2.8,2.3-4.5,2.9c-0.3,0.1-0.6,0.2-0.9,0.5c0.2,0,0.2,0,0.3,0
	c1.1-0.3,2.2-0.4,3.2-0.4c2.2-0.1,4.4-0.1,6.6,0.5c1.3,0.4,2.8,0.6,3.9,1.6c0.1,0.1,0.2,0.1,0.2-0.1C77.7,83.6,77.7,83,77.6,82.5
	L77.6,82.5z M115.5,108.4c2-0.3,4-0.6,5.7-1.4C119.2,106.8,117.3,107.3,115.5,108.4z M22.4,71.3c0.8,0.2,1.5,0.6,2.2,1
	c0.3,0.2,0.6,0.5,0.8,0.4c0.2-0.1,0.3-0.6,0.5-0.9c0,0,0-0.1,0-0.1C24.7,71.4,23.6,71.1,22.4,71.3z M47,88c0.1,0.1,0,0.3,0.2,0.4
	c0.2,0,0.8-0.6,0.7-0.7c-0.2-0.5,0.1-0.6,0.5-0.7c0.1,0,0.2-0.1,0.2-0.2c0-0.1-0.1-0.1-0.2-0.1C47.7,86.7,46.9,87.4,47,88z"/>
<path class="st3" d="M33.5,62.5C33.5,62.4,33.5,62.4,33.5,62.5C33.5,62.4,33.5,62.4,33.5,62.5L33.5,62.5z"/>
<path class="st4" d="M23.5,98c0.2,0.3,0.5,0.1,0.6-0.1c1.1-0.9,2.4-0.8,3.5-0.1c1,0.6,1.9,1.3,3,1.8c0.1,0.1,0.3,0.2,0.5,0.1
	c-1-0.8-1.9-1.5-2.9-2.3c1.5-0.3,2.9-0.7,4.3-1.1c2.9-0.8,5.7-2,8.1-3.8c1.2-0.8,2.5-1.5,3.8-2c0,0,0.1,0.1,0.1,0.1
	c-1.7,1.4-3.5,2.7-5.3,3.9c0,0.1,0.1,0.1,0.1,0.2c0.6-0.3,1.3-0.6,1.9-1c1-0.6,1.9-1.3,2.8-2.1c1.1-0.9,2.2-1.6,3.3-2.4
	c0.5-0.4,1-0.9,1.5-1.3c0.6-0.6,0.7-1.4,0.4-2.2c-0.1-0.5,0-0.8,0.4-1.1c1.3-0.9,2.4-2.1,3.6-3.1c1.7-1.4,3.4-2.8,5.2-4.1
	c0.2-0.1,0.4-0.3,0.6-0.2c0.3,0.1,0.1,0.4,0.1,0.6c0,0.7-0.1,1.5-0.2,2.2c0,0.2,0,0.3,0.1,0.4c0.2,0.1,0.4,0.2,0.7,0
	c0.8-0.4,1.6-0.8,2.4-1.2c2.1-1,4.3-1.7,6.6-2.2c0.4-0.1,1-0.3,1.2,0c0.2,0.4-0.3,0.7-0.6,1c-1.6,1.8-3.5,3-5.7,4
	c-0.4,0.2-0.7,0.4-1.1,0.5c-0.2,0-0.5,0.1-0.4,0.3c0,0.2,0.3,0.2,0.5,0.1c0.2,0,0.5,0,0.7-0.1c2.8-0.6,5.7-0.7,8.5-0.3
	c1.6,0.2,3.1,0.7,4.5,1.2c0.3,0.1,0.6,0.3,0.9,0.6c0.2,0.1,0.3,0.3,0.5,0.3c0.5,0.1,0.6-0.1,0.5-0.5c-0.2-0.7-0.3-1.4-0.4-2.1
	c0-0.4,0.1-0.8,0.4-1.2c1-1.2,2.2-2.3,3.3-3.4c0.8-0.8,1.6-1.5,2.4-2.3c1.3-1.2,2.8-2.2,4.2-3.3c0.5-0.4,1.1-0.9,1.7-1.2
	c0.3-0.2,0.7-0.3,0.9-0.6l0,0c0,0,0.1-0.1,0.1-0.1l0,0c0.2,0,0.4-0.1,0.5-0.3l0,0c0,0,0.1,0,0.1-0.1c0.2-0.2,0.4-0.1,0.5,0
	c0.6,0.1,1.2,0.2,1.8,0.3c0.2,0,0.4,0.1,0.5-0.1c0.3,0.2,0.3,0,0.3-0.2c0-0.5,0-0.9,0-1.4c0-2.3,0.1-4.6,1.4-6.7
	c0.7-1.2,1.4-2.5,2.1-3.7c1.2-2,2.3-3.9,3.4-5.9c0.9-1.5,1.7-3,2.5-4.5c0.3-0.6,0.6-1.3,0.9-2c0.3,1.6,0.4,3.2,0.4,4.8
	c-0.1,3.6-0.8,7.1-2,10.5c-0.8,2.1-1.5,4.3-2.3,6.4c-0.9,2.2-1.8,4.3-2.7,6.4c-0.1,0.2-0.1,0.4-0.2,0.6c-0.1,0.3-0.3,0.2-0.5,0.2
	c-0.3,0-0.1-0.2-0.1-0.3c0-0.6,0-1.3,0.1-1.9c0-0.1,0.1-0.2-0.1-0.2c-0.1,0-0.1,0.1-0.2,0.2c0,0.3-0.1,0.5-0.1,0.8
	c-0.3,0-0.3,0.3-0.4,0.5c-0.1,0.5-0.2,1-0.5,1.4c-0.2-0.5,0-1.1-0.2-1.7c0,0.3-0.1,0.7-0.1,1c0,0.8-0.1,1.6-0.1,2.4
	c0.1,1.3-0.2,2.5-0.3,3.8c-0.1,1.6-0.3,3.1-0.7,4.6c-0.5,1.5-1,2.9-1.5,4.4c-0.7,2.2-1.7,4.2-3.1,6.1c-0.5,0.6-1,1.2-1.5,1.8
	c-0.1,0.2-0.2,0.1-0.3,0c-0.1-0.1-0.2-0.2-0.3-0.1c-0.1,0.1-0.1,0.3,0,0.4c0.2,0.3,0.4,0.7,0.7,1c0.9,0.9,1.8,1.8,2.8,2.7
	c0.3,0.3,0.6,0.7,0.8,1.1c-2.5-1.1-5-0.8-7.5-0.2c-0.1,0-0.1,0.1-0.2,0c-1.2-0.4-2,0.3-2.8,0.9c-1.5,1.1-3.1,2.1-4.8,3
	c-1.2,0.7-2.3,1.4-3.5,2c-0.3,0.2-0.6,0.4-0.6,0.8c0,0.1,0,0.2,0,0.3c-0.2,0.6-0.3,1.1,0.6,1.4c-0.5,0.3-0.9,0.2-1.3,0
	c-1-0.4-1.9-1.1-2.9-1.6c-0.3-0.2-0.3-0.3,0-0.5c2.8-1.2,5.4-2.8,7.8-4.6c3.3-2.5,6.5-5.1,8.8-8.5c1.1-1.5,1.5-3.2,1.6-5
	c0-1.8-0.3-3.6-1.2-5.2c-0.2-0.4-0.6-0.7-0.9-1c-0.1-0.1-0.3-0.3-0.5-0.1c-0.2,0.2,0,0.3,0.1,0.5c1.4,1.9,1.6,3.9,0.7,6.1
	c-0.9,2.2-2.1,4.1-3.8,5.6c-1.3,1.1-2.6,2.1-4,3.1c-1.7,1.2-3.6,1.9-5.5,2.7c-2.6,1.1-5.3,1.6-8,2.1c-2.9,0.5-5.8,0.6-8.7,0.7
	c-0.5,0-1.1,0.1-1.5-0.3c-0.5-0.4-0.4-0.7,0.1-0.9c1.1-0.4,2.2-0.7,3.3-1.2c2-1,3.6-2.4,4.8-4.3c0.8-1.3,1.5-2.6,1.6-4.2
	c0.1-1.3-0.3-2.5-1.3-3.4c0.4-0.2,0.7-0.2,1.1-0.2c0.7-0.1,1.4-0.1,2.1,0c0.1,0,0.3,0.1,0.4-0.1c0.1-0.2-0.1-0.2-0.3-0.2
	c-2.2-0.8-3.7-0.7-5.8,1.2c-0.3,0.3-0.6,0.6-1,0.9c-0.1,0.1-0.2,0.1-0.1,0.3c0.1,0.2,0.2,0.1,0.3,0c0.3-0.1,0.5-0.3,0.7-0.4
	c0.3-0.3,0.7-0.6,1.1-0.8c0.6-0.3,0.9-0.3,1.3,0.3c0.5,0.7,0.8,1.5,0.7,2.4c-0.5,3.9-2.5,6.6-6.1,8.3c-1.2,0.6-2.4,0.8-3.6,1.4
	c0.1-0.4,0.3-0.6,0.4-0.9c0.1-0.1,0.2-0.3,0-0.4c-0.2-0.1-0.2,0.1-0.3,0.2c-0.6,0.7-1,1.4-0.5,2.4c-1.8-0.3-3.6-0.3-5.2-1.2
	c-0.3-0.2-0.4-0.1-0.3,0.2c-0.2,0.2,0,0.3,0.1,0.4c1.6,1.6,3.4,2.8,5.6,3.4c2.2,0.6,4.4,0.8,6.6,0.8c1.6,0,3.2-0.2,4.8-0.6
	c2.2-0.6,4.5-0.9,6.7-1.7c0.5-0.2,0.9-0.4,1.4-0.4c-0.7,0.5-1.4,0.9-2.2,1.3c-1.4,0.8-2.9,1.4-4.4,2c-2.1,0.8-4.2,1.2-6.4,1.6
	c-3.1,0.5-6.2,0.8-9.4,0.8c-2.8,0-5.5-0.5-8.2-1.2c-2.3-0.6-4.5-1.3-6.7-2.2c-2-0.8-3.9-1.7-5.7-2.7c-1.5-0.8-3.1-1.5-4.6-2.2
	c-0.6-0.3-1.2-0.6-1.8-1c-0.5-0.3-0.7-0.9-0.7-1.5c0-0.3,0.1-0.5,0.1-0.8c0-0.2,0.2-0.4-0.1-0.5c-0.3-0.1-0.3,0.2-0.4,0.4
	c-0.6-1-1.1-1.9-1.4-3C20,93.9,20,90.9,20.4,88c0.2-1.7,0.8-3.2,1.2-4.8c0-0.1,0.1-0.2,0.2-0.4c0,0.9-0.2,1.8-0.2,2.7
	c0,0.7-0.2,1.4-0.2,2.1c-0.1,1.4-0.2,2.8,0,4.2c0.2,1.2,0.4,2.4,0.7,3.6C22.3,96.4,22.7,97.3,23.5,98L23.5,98z M57.6,89.1
	c0.3-0.3,0.1-0.7,0.2-1c0.1-0.6-0.1-1-0.5-1.4c-1.1-0.9-2.6-0.8-3.7,0.2c-0.8,0.8-0.9,1.6-0.4,2.7c0.4,0.8,1.1,1.3,2,1.2
	c0.4,0,0.9-0.2,1.3-0.4C56.9,90,57.5,89.7,57.6,89.1z M33.9,102.2c0.7-0.1,1.6-0.4,2.4-0.6c0.1,0,0.2-0.1,0.1-0.2
	c0-0.1-0.1-0.1-0.2-0.1c-0.4,0-0.8,0.1-1.2,0.1c-0.3,0-0.5-0.1-0.7-0.3c-0.5-0.8-0.3-1.7,0.6-2c0.3-0.1,0.7-0.2,1-0.3
	c0.1,0,0.3-0.1,0.2-0.3c-0.1-0.2-0.2-0.1-0.3-0.1c-1.2,0.2-2.2,0.7-3,1.6c-0.3,0.4-0.5,0.8-0.3,1.3
	C32.7,101.9,33.2,102.2,33.9,102.2z"/>
<path class="st5" d="M69.7,70c-0.5-0.1-1-0.3-1.4-0.4c1.3-3.2,3.7-5.4,6.2-7.5c0.4-0.3,0.8-0.7,1.2-1c0.3,0.3,0.5,0.5,0.8,0.8
	c0.4,0.5,0.8,0.7,1.4,0.4c0.2-0.1,0.4,0,0.6-0.1c0.6,0,1.3,0,1.6-0.8c0,0,0.1,0,0.1,0c0,0.1-0.1,0.3,0.1,0.4c0.2,0,0.3-0.1,0.4-0.2
	c0.4-0.5,0.9-1,1.4-1.4c0.1-0.1,0.2-0.3,0.4-0.1c0.1,0.1,0,0.3,0,0.4c-0.2,0.9-0.7,1.7-1.2,2.4c0.1,0.1,0.2,0,0.3,0
	c0.8-0.8,1.7-1.5,2-2.7c0.1-0.3,0.4-0.4,0.6-0.5c0.6-0.2,1.3-0.4,2-0.5c0.4,0,0.8-0.2,1.2-0.4c2.4-1.3,4.5-2.9,6.2-4.9
	c0-0.1,0.1-0.1,0-0.2c0,0,0,0,0.1,0c0,0,0,0,0-0.1c0,0,0,0,0,0.1c-0.2,0.1-0.4,0.3-0.6,0.4c-1.7,1.6-3.4,3-5.6,3.9
	c-0.8,0.4-1.7,0.5-2.7,0.7c0.1-0.3,0.4-0.3,0.5-0.4c1.4-0.7,2.9-1.2,4.2-2.1c0.6-0.4,1.2-0.8,1.3-1.6c0-0.4,0-0.7-0.3-1
	c-0.1-0.1-0.3-0.3,0-0.5c1.4-0.8,2.4-2,3.4-3.2c1.2-1.5,2.3-3.1,3-4.8c0.5-1.2,0.8-2.5,1.1-3.8c0.2-1.2-0.1-2.4-0.7-3.5
	c-0.2-0.5-0.5-0.9-0.7-1.4c-0.1-0.2-0.3-0.4-0.5-0.4c-0.6-0.9-1.5-1.5-2.2-2.2c-0.7-0.8-1.6-1.3-2.6-1.6c-1.1-0.4-2.2-0.8-3.3-1.2
	c-0.6-0.2-1.2-0.3-1.8-0.3c-0.7,0-1.4-0.1-2-0.2c0.6-0.2,1.3-0.2,1.9-0.5c1.1-0.3,2.1,0.2,3.1,0.3c-0.4-0.2-0.7-0.6-1.2-0.6
	c-0.7,0-1.4,0-2,0.1c-1.1,0.1-2.3,0.2-3.4,0.3c-0.8,0.1-1.6,0.2-2.4,0.2c-0.2,0-0.4,0.1-0.5-0.2c0.8-0.1,1.6-0.2,2.4-0.3
	c2.4-0.3,4.8-0.6,7.2-0.4c1.6,0.1,3.1,0.5,4.6,1c0.8,0.3,1.5,0.5,2.2,1c1.7,1.3,3.3,2.7,4.7,4.4c0.2,0.2,0.4,0.5,0.6,0.7
	c1,0.9,1.5,2.1,2,3.4c0.4,1.2,0.9,2.4,1.3,3.6c0.4,1.1,0.4,2-0.1,3.1c-1,2.1-2.2,4.2-3.3,6.2c-0.9,1.6-1.8,3.2-2.7,4.8
	c-1.3,2.1-2.4,4.3-3.6,6.3c-0.4,0.6-0.5,1.3-0.5,2c0,1.3,0,2.5-0.1,3.8c0,0.3-0.1,0.3-0.3,0.3c-0.5-0.1-1-0.2-1.4-0.3
	c-0.4-0.1-0.8,0-1.2,0.2c-3.2,2.1-6.3,4.5-9.1,7.2c-0.8,0.7-1.6,1.4-2.4,2.2c-0.6,0.6-1.1,1.2-1.7,1.8c-0.6,0.6-0.5,1.4-0.6,2.3
	c-1.3-0.9-2.8-1.3-4.3-1.7c-1.5-0.4-3.1-0.4-4.7-0.5c0.6-0.4,1.1-0.8,1.7-1.2c1.2-0.7,2-1.7,2.5-3c0.1-0.4,0-0.8-0.3-1
	c-0.7-0.6-1.6-0.7-2.5-0.6c-1.7,0.2-3.3,0.8-4.9,1.4c-1.1,0.4-2.2,0.7-3.2,1.3c-0.5,0.2-0.5,0.1-0.7-0.4c-0.3-0.9,0-1.4,0.7-2
	c1.8-1.6,3.5-3.4,5.3-5.1c0.6-0.6,1.2-0.3,1.8-0.3c0.4,0,0.7,0.1,1.1,0.2c1.2,0.3,2.3,0.9,3.5,1.3C72,70.8,70.9,70.2,69.7,70
	L69.7,70z M97.7,35.8c0,0-0.1-0.1-0.1-0.1c-0.2-0.5-0.3-1-0.5-1.4c-0.4-0.9-1-1.7-2-2.2c-0.2-0.1-0.3-0.1-0.4,0.1
	c-0.1,0.2,0,0.3,0.2,0.4c0.8,0.4,1.3,1.1,1.8,1.9c0.3,0.4,0.5,0.9,0.8,1.3C97.5,35.7,97.5,35.8,97.7,35.8c0,0.4,0.3,0.7,0.5,1
	c0.9,1.5,1.2,3.2,1,4.9c-0.1,0.6-0.2,1.3-0.3,1.9c0.1,0,0.1,0,0.2,0c0.1-0.6,0.2-1.3,0.3-1.9c0.5-1.5,0.3-2.9-0.3-4.4
	c-0.1-0.3-0.4-0.5-0.7-0.6C98.2,36.3,97.9,36.1,97.7,35.8z M94.8,51.3c2-1.2,2.9-3.2,3.6-5.2c0.1-0.2,0.2-0.4,0-0.6
	c-0.2,0.1-0.4,0.3-0.4,0.5c-0.4,0.8-0.8,1.5-0.9,2.3c0,0.4-0.2,0.7-0.4,0.9C96,49.8,95.4,50.5,94.8,51.3z M94.5,31.8
	c-0.8-0.9-3.1-1.9-4.4-1.8c-0.1,0-0.2,0.1-0.3,0.2c0,0.1,0.1,0.2,0.2,0.3c0.1,0,0.3,0.1,0.4,0.1c1.2,0.1,2.2,0.5,3.3,1
	C94,31.5,94.2,31.8,94.5,31.8z"/>
<path class="st4" d="M94.1,107.6c-3.5-0.4-5.9-2.5-8.5-4.7c1.9-0.4,3.8-0.4,5.6,0.1c0.9,0.2,1.6,0.8,2.1,1.4c1.7,2,4,2.9,6.4,3.5
	c1.5,0.4,3.1,0.3,4.7,0.3c1,0,2,0,3-0.1c2.1-0.2,4.2-0.6,6.2-0.9c1-0.2,2.1-0.2,3.1-0.3c0.5,0,1-0.3,1.6-0.1
	c-2.2,0.6-4.1,1.8-6.2,2.6c-2.8,1.1-5.6,1.9-8.6,2.4c-2.2,0.4-4.3,0.9-6.5,1.3c-1.7,0.3-3.4,0.5-5.1,0.6c-1.7,0.1-3.4,0.1-5.1,0.1
	c-3.2-0.2-6.4-0.5-9.5-1.7c-1-0.4-2-0.8-3-1.3c-0.7-0.3-0.8-1.2-0.2-1.7c0.5-0.5,1.2-0.8,1.8-1.1c1.7-1,3.5-2,5.2-3.1
	c0.5-0.3,1-0.7,1.5-1.1c1.1-0.8,1.4-0.8,2.6,0.1c1.2,0.9,2.3,1.9,3.6,2.5c1.6,0.8,3.3,1.2,5,1.6C94,107.8,94,107.8,94.1,107.6
	L94.1,107.6z"/>
<path class="st4" d="M83.8,30.2c0.7,0.1,1.4,0.1,2,0.2c0.6,0,1.2,0.1,1.8,0.3c1.1,0.4,2.2,0.8,3.3,1.2c1,0.3,1.9,0.9,2.6,1.6
	c0.7,0.8,1.6,1.3,2.2,2.2c0.5,1,1,2,1.3,3.1c0.1,0.4,0.2,0.9,0.2,1.4c0,0.8-0.1,1.6-0.8,2.1c-0.3,0.2-0.5,0.5-0.6,0.9
	c0,0.1-0.1,0.2-0.2,0.2c-0.1,0-0.1-0.1-0.1-0.2c-1.3-2.9-3.4-5-6.3-6.3c-1.9-0.8-4-1-6-1c-3.1,0-6.2,0.3-9.4,0.4c-2.3,0-4.7,0-7-0.5
	c-2.2-0.5-4.3-1.4-6.2-2.5c-0.8-0.5-1.6-1-1.9-2c0-0.2,0-0.4,0.2-0.6c3.2,2,6.3,2.9,7.8,2.7c-2.1-0.2-4-1.1-5.8-2
	c-0.7-0.4-1.4-0.8-2.1-1.3c-0.1-0.9,0.4-1.4,1.5-1.5l0,0c0,0.1,0.1,0.1,0.2,0.1c2.1,1.3,4.5,1.6,6.9,1.8c0.5,0.1,0.7-0.4,0.8-0.8
	c0.1-0.5-0.1-0.8-0.3-1.2c0,0,0.1-0.1,0.1-0.1c0.2,0,0.5,0.2,0.6-0.1c0-0.2-0.3-0.3-0.5-0.3c-0.9-0.1-0.9-0.8-1.1-1.4
	c0,0,0-0.1,0.1-0.1c0.2,0,0.4,0.2,0.6,0c1.1,0.4,2.1,1.1,3.1,1.6c0.7,0.3,1.4,0.5,2.1,1c0.6,0.5,1.2,0.9,0.8,1.8
	c-0.2,0.1-0.3-0.1-0.5,0.1c0.5,0.2,1,0.2,1.5,0.1c1-0.1,2-0.3,3.1-0.6c1.5-0.4,3.1-0.2,4.6-0.4C82.9,30.3,83.4,30.2,83.8,30.2
	L83.8,30.2z"/>
<path class="st4" d="M50.1,83.3c-0.5,0.4-0.9,0.7-1.3,1.1c-0.3,0.3-0.6,0.5-0.4,1c0.1,0.3-0.1,0.2-0.3,0.2c-1.5,0.3-3,0.1-4.4-0.3
	c-1-0.2-1.9-0.6-2.9-0.9c0.8,0.8,3.8,1.5,7.2,1.7c-0.1,0.2-0.3,0.2-0.5,0.3c-0.5,0.2-0.9,0.5-1.1,1c-0.2,0.4-0.2,0.8,0.1,1.2
	c0.3,0.3,0.2,0.5-0.2,0.6c-1.4,0.4-2.7,1-4,1.7c-0.8,0.5-1.6,1-2.4,1.5c-0.3,0.2-0.4,0.2-0.7,0c-1.4-0.8-2.5-1.8-3.7-2.8
	c-1.1-1-2.1-2.2-2.8-3.5c-0.9-1.6-1.5-3.4-2.2-5.2c-0.7-1.8-1.4-3.6-2.4-5.3c-0.3-0.4-0.6-0.8-1-1.2c-0.2-0.2-0.2-0.3-0.1-0.5
	c0.1-0.1,0.1-0.2,0.2-0.3c0.6-1.2,0.6-1.2,1.8-0.7c2.6,1.1,4.8,2.6,6.9,4.5c1.6,1.4,3.1,2.8,5.1,3.7c1.6,0.7,3.2,1.2,4.9,1.6
	C47.2,83,48.6,83.1,50.1,83.3z"/>
<path class="st2" d="M38.6,93.2c-2.3,1.3-4.5,2.4-7.1,2.9c-1.3,0.3-2.6,0.4-3.9,0.6c-0.3,0.1-0.7,0-1-0.1c-0.2-0.1-0.5-0.2-0.7-0.1
	c-0.5,0.1-0.7-0.2-1-0.5c-1-1.2-1.3-2.6-1.5-4c-0.6-3.4-0.4-6.7,0.7-10c0.7-2.1,1.3-4.3,2.2-6.3c0.1-0.2,0.2-0.5,0.3-0.7
	c0.7,0.7,1.2,1.5,1.7,2.4c1.1,2,1.8,4.1,2.6,6.2c1.4,3.7,3.7,6.7,6.8,9.1C37.9,92.8,38.2,93,38.6,93.2L38.6,93.2z"/>
<path class="st4" d="M80.1,61.3C80,61.3,80,61.3,80.1,61.3c-0.3,0.9-1,0.8-1.6,0.8c-0.2,0-0.4,0-0.6,0.1c-0.6,0.2-1,0-1.4-0.4
	c-0.2-0.3-0.5-0.5-0.8-0.8c-0.7-2.5,0.2-4.5,1.9-6.2c1.2-1.1,2.4-2.2,3.6-3.3c1.5-1.4,2.7-2.9,3.4-4.7c0.4-1,0.5-2.1,0.5-3.2
	c0-0.2-0.1-0.6,0.2-0.7c0.3-0.1,0.5,0.1,0.8,0.3c0.2,0.2,0.3,0.4,0.3,0.7c0.1,0.9-0.1,1.7-0.5,2.5c-0.3,0.6-0.7,1.3-1.1,1.9
	c-0.1,0.1-0.2,0.2-0.1,0.4c0.1,0,0.2-0.1,0.3-0.2c0.7-1,1.3-2,1.7-3.2c0.1-0.2,0.1-0.3,0.4-0.2c0.4,0.3,0.7,0.7,0.7,1.3
	c-0.1,1.4-0.8,2.5-1.5,3.7c-0.1,0.2-0.3,0.3-0.2,0.6c0.7-0.7,1.2-1.5,1.6-2.3c0.1-0.2,0.1-0.5,0.4-0.5c0.3,0,0.5,0.2,0.6,0.5
	c0.4,0.9,0.5,1.7-0.1,2.5c-0.3,0.5-0.6,1-0.9,1.4c-0.1,0.1-0.2,0.3-0.1,0.5c0.5-0.4,0.8-1,1.2-1.6c0.2-0.3,0.4-0.2,0.5,0
	c0.3,0.4,0.4,0.8,0.2,1.3c-0.3,0.6-0.6,1.2-1,1.9c0.4-0.1,0.5-0.4,0.7-0.6c0.1-0.1,0.2-0.4,0.4-0.3c0.2,0.1,0.5,0.3,0.4,0.6
	c0,0.3-0.1,0.6-0.4,0.8c-0.8,0.6-1.6,1.1-2.4,1.5c-1.9,0.8-3.8,1.7-5.4,3C81.1,60,80.5,60.6,80.1,61.3z"/>
<path class="st6" d="M72.8,105.8c-0.5,0-0.9,0.3-1.4,0.4c-2.2,0.8-4.5,1.1-6.7,1.7c-1.6,0.4-3.2,0.6-4.8,0.6c-2.2,0-4.4-0.3-6.6-0.8
	c-2.3-0.6-4-1.8-5.6-3.4c-0.1-0.1-0.3-0.2-0.1-0.4c1.3,1.1,2.9,1.1,4.4,1.5c1.6,0.4,3.3,0.3,4.9,0.2c2.8-0.1,5.5-0.3,8.3-0.7
	c2.2-0.4,4.4-0.9,6.5-1.6c1.4-0.5,2.8-1,4.2-1.7c2-1,3.8-2.2,5.5-3.6c1.5-1.2,2.8-2.5,3.9-4.1c0.9-1.2,1.3-2.6,1.5-4
	c0.1-0.6,0.1-1.3,0.2-1.8c0.1-0.1,0.1-0.1,0.1,0c0.1,2.1,0.2,4.2-0.8,6.2c-0.5,1-1.3,1.8-2,2.7c-1.5,2.1-3.6,3.6-5.7,5.1
	c-1.7,1.2-3.4,2.4-5.2,3.5C73.1,105.7,72.9,105.7,72.8,105.8z"/>
<path class="st4" d="M103,72.6c1.3-0.3,2.5-0.8,3.7,0.3c-1,0.3-1.9,0.6-2.9,1c0.1,0.3,0.3,0.1,0.5,0.1c0.6-0.1,1.2-0.3,1.9-0.4
	c0.6-0.1,1.2,0,1.8,0.2c0.6,0.2,1.1,0.8,1,1.5c-0.1,0.7,0.2,0.9,0.7,1.1c0.4,0.1,0.4,0.2,0.1,0.5c-1.1,1-2.4,1.6-3.8,1.9
	c-1,0.2-2.1,0.5-3.2,0.4c-1.1-0.1-2.1-0.3-3.1-0.5c-0.6-0.1-1.2-0.2-1.8-0.2c-0.3,0-0.3,0-0.3-0.3c0-0.7-0.1-1.4-0.1-2
	c0-0.1,0-0.2,0.1-0.3c1.1-0.4,1.6-1.3,2.2-2.2c0.6-0.9,1.1-1.7,2-2.4c0.9-0.7,1.9-1,3-0.5c0.4,0.2,0.3,0.5,0.4,0.8
	c0,0.4-0.3,0.2-0.4,0.2C104.1,72,103.5,72.2,103,72.6L103,72.6z"/>
<path class="st4" d="M56.6,27.1c-0.5-0.1-0.9,0.1-1.4,0.2c-0.2,0-0.4,0.1-0.5-0.1c-1.1-1.4-2.7-2-4-3c-1.1-0.9-1.8-2.1-2-3.5
	c0.6,0.5,0.9,1.3,1.7,1.6c-0.1-0.3-0.3-0.6-0.5-0.8c-0.8-1-1.6-2.1-1.9-3.4c-0.1-0.6-0.2-1.1,0-1.8c0.8,1.9,2.4,2.7,4,3.5
	c1.8,0.9,3.6,1.7,5,3c1.2,1.1,2.2,2.4,2.7,4.1c-0.6-0.1-1.2-0.3-1.7,0C57.6,26.8,57.1,26.8,56.6,27.1z"/>
<path class="st4" d="M56.7,31.6c0.2,0.3,0.4,0.6,0.8,0.9c0.3,0.2,0.2,0.3-0.1,0.5c-1.1,0.5-2.2,0.9-3.3,1c-1.1,0.1-2.2,0.2-3.3,0.2
	c-0.8-0.1-1.2-0.6-1.7-1.2c0.3-0.3,0.7,0.1,1-0.2c-0.5-0.3-0.9-0.4-1.4-0.5c-0.7-0.2-1.1-0.6-1.2-1.3c0.6,0,1.1,0.4,1.8,0.3
	c-0.4-0.4-0.9-0.4-1.3-0.6c-1.6-0.7-1.5-0.7-1.2-2.4c0.3,0.2,0.7,0.4,1,0.6c0.4,0.1,0.7,0.4,1.2,0.4c-0.5-0.5-1-0.7-1.5-1
	c-0.3-0.2-0.6-0.4-0.9-0.8c-0.1-0.2-0.2-0.5,0-0.7c0.2-0.2,0.4,0.1,0.5,0.2c2,1.6,4.1,2.4,6.7,1.9c0.2,0,0.5-0.4,0.7,0.1
	c0,0,0.1,0.1,0.1,0.1l0,0c0,0,0.1,0.1,0.1,0.1l0,0c0.1,0.3,0.2,0.5,0.5,0.5l0,0c0.1,0.2,0.2,0.3,0.4,0.3c0,0,0,0,0.1,0
	c0.2,0.4,0.6,0.8,0.7,1.3C56.5,31.3,56.5,31.5,56.7,31.6z"/>
<path class="st6" d="M23.5,98c-0.8-0.7-1.2-1.6-1.4-2.6c-0.3-1.2-0.5-2.4-0.7-3.6c-0.2-1.4-0.1-2.8,0-4.2c0-0.7,0.2-1.4,0.2-2.1
	c0-0.9,0.2-1.8,0.2-2.7c0.6-1.4,1-2.8,1.6-4.1c0.9-2.2,1.8-4.3,2.9-6.4c1.1-2,2.2-3.9,3.7-5.7c0.2-0.3,0.5-0.6,0.7-0.9
	c0,0,0.1,0.1,0.1,0.1c-1.3,2.2-2.7,4.3-3.8,6.6c-1.2,2.4-2.2,4.9-3.2,7.4c-1.1,2.9-1.5,5.8-1.4,8.9c0,1.8,0.2,3.6,0.8,5.3
	c0.3,0.9,0.7,1.8,1.3,2.5c0.1,0.2,0.2,0.2,0,0.4C24.1,97.2,23.6,97.5,23.5,98z"/>
<path class="st7" d="M77.6,82.5c0,0.6,0.1,1.1,0.1,1.7c0,0.1-0.1,0.2-0.2,0.1c-1.1-1-2.5-1.2-3.9-1.6c-2.2-0.6-4.4-0.6-6.6-0.5
	c-1.1,0.1-2.2,0.1-3.2,0.4c-0.1,0-0.1,0-0.3,0c0.3-0.3,0.6-0.4,0.9-0.5c1.7-0.6,3.1-1.7,4.5-2.9c0.5-0.4,0.8-0.9,1.3-1.4
	c0.2-0.2,0.3-0.5,0.2-0.7c-0.1-0.3-0.4-0.4-0.7-0.4c-1,0-1.9,0.3-2.8,0.6c-1.8,0.5-3.6,1.1-5.3,1.9c-0.6,0.3-1.2,0.6-1.8,0.8
	c-0.1,0.1-0.3,0.2-0.4,0c-0.1-0.1-0.1-0.3-0.1-0.4c0.1-0.8,0.3-1.6,0.1-2.4c0-0.2-0.1-0.4,0.2-0.4c0.3-0.1,0.3,0.1,0.4,0.3
	c0.2,0.4,0.3,0.8,0.3,1.2c0,0.2,0.1,0.3,0.3,0.2c1.1-0.5,2.3-0.9,3.5-1.5c1.6-0.8,3.4-1.2,5.2-1.4c0.4-0.1,0.7-0.1,1.1-0.1
	c0.6,0,1,0.3,1.4,0.6c0.2,0.2,0.2,0.4,0.1,0.7c-0.2,0.6-0.6,1.2-1.1,1.6c-0.9,0.7-1.9,1.5-2.8,2.2c-0.3,0.2-0.5,0.5-0.8,0.8
	c0.6,0,1,0,1.5,0c2.2,0,4.4,0.2,6.5,1.1c0.7,0.3,1.4,0.7,2,1.1c0.1,0.1,0.2,0.2,0.4,0.1c0.1-0.1,0.1-0.2,0-0.3
	C77.4,83,77.4,82.7,77.6,82.5z"/>
<path class="st5" d="M73.8,31c0.4-0.9-0.2-1.4-0.8-1.8c-0.6-0.5-1.4-0.7-2.1-1c-1.1-0.5-2-1.2-3.1-1.6c-0.1-0.2-0.3-0.2-0.4-0.3
	c-0.2-0.1-0.5,0-0.5-0.4c-0.1-0.5-0.3-0.9-0.1-1.4c0.1-0.2,0.2-0.2,0.3-0.1c1,1.1,2.4,1.2,3.7,1.6c1.9,0.5,3.8,1.1,5.4,2.4
	c0.4,0.3,0.7,0.6,1,1c0.2,0.3,0.2,0.5-0.1,0.7c-0.6,0.3-1.1,0.6-1.8,0.7C74.8,30.8,74.3,31,73.8,31z"/>
<path class="st5" d="M56.7,31.6c-0.2-0.1-0.2-0.3-0.3-0.5c-0.1-0.5-0.4-0.9-0.7-1.3c0.4-0.1,0.2-0.3,0-0.4c-0.4-0.3-0.7-0.7-1-1.1
	c-0.3-0.4-0.2-0.5,0.2-0.5c0.4-0.1,0.9-0.2,1.3-0.4c0.2,0,0.3-0.1,0.3-0.3c0.5-0.3,1-0.3,1.5-0.3c-0.1,0.2,0.1,0.3,0.2,0.3
	c0.9-0.2,1.5,0.4,2.1,0.9c-0.1,0.1-0.3-0.1-0.4,0.1c-0.1,0.2,0.1,0.2,0.2,0.3c0.1,0.1,0.1,0.1,0.1,0.2c-1.1,0.1-1.6,0.5-1.5,1.5
	c-0.5,0.3,0,0.3,0.1,0.5c-0.2,0.2-0.2,0.4-0.2,0.6c-0.4-0.1-0.3,0.1-0.2,0.3c0.1,0.4,0.4,0.7,0.6,1.1c-0.8,0-1.4-0.4-1.9-0.8
	C57.1,31.6,56.9,31.6,56.7,31.6z"/>
<path class="st5" d="M96.3,75c0.3-0.4,0.4-0.9,0.5-1.4c0.1-0.2,0-0.5,0.4-0.5c-0.3,1.7-0.2,3.4-0.1,5.2c0,0.8,0.1,1.6-0.1,2.3
	c-0.1,0.5-0.3,0.8-0.9,0.9C96.4,79.3,96.5,77.1,96.3,75z"/>
<path class="st8" d="M115.5,108.4c1.8-1.1,3.7-1.6,5.7-1.4C119.4,107.9,117.5,108.2,115.5,108.4z"/>
<path class="st4" d="M22.4,71.3c1.2-0.2,2.4,0.1,3.5,0.5c0,0,0,0.1,0,0.1c-0.2,0.3-0.2,0.7-0.5,0.9c-0.2,0.1-0.5-0.3-0.8-0.4
	C23.8,71.9,23.1,71.5,22.4,71.3z"/>
<path class="st9" d="M85.6,29.6c0.7-0.1,1.4-0.1,2-0.1c0.5,0,0.8,0.5,1.2,0.6c-1-0.1-2-0.7-3.1-0.3C85.7,29.7,85.6,29.6,85.6,29.6z"
	/>
<path class="st10" d="M47,88c0-0.6,0.7-1.3,1.3-1.3c0.1,0,0.2,0,0.2,0.1c0,0.1-0.1,0.1-0.2,0.2c-0.4,0-0.7,0.1-0.5,0.7
	c0.1,0.1-0.5,0.8-0.7,0.7C47,88.3,47,88.1,47,88z"/>
<path class="st1" d="M69.7,70c1.2,0.3,2.3,0.9,3.4,1.4c-1.2-0.4-2.3-0.9-3.5-1.3C69.6,70.1,69.6,70,69.7,70z"/>
<path class="st11" d="M30.8,65.9c0,0-0.1-0.1-0.1-0.1l0.7-1.1C31.4,65.2,31.1,65.5,30.8,65.9z"/>
<g>
	<path class="st4" d="M94.6,68.4c0,0.5,0,0.9,0,1.4c0,0.2-0.1,0.4-0.3,0.2c0.3-0.2,0.2-0.5,0.3-0.8C94.6,69,94.5,68.7,94.6,68.4z"/>
	<path class="st4" d="M90.7,70.4c-0.2,0.3-0.5,0.5-0.9,0.6C90.1,70.7,90.4,70.4,90.7,70.4z"/>
	<path class="st4" d="M55.3,29.5c-0.3,0-0.5-0.2-0.5-0.5C55,29.1,55.2,29.3,55.3,29.5z"/>
	<path class="st4" d="M91.4,70c-0.1,0.2-0.3,0.3-0.5,0.3C90.9,70.1,91.2,70,91.4,70z"/>
	<path class="st4" d="M55.7,29.8c-0.2,0-0.3-0.1-0.4-0.3C55.5,29.5,55.6,29.7,55.7,29.8z"/>
</g>
<path class="st12" d="M44.4,90.6c0.1-0.1,0.2-0.2,0.4-0.1c-0.1,0.1-0.2,0.2-0.3,0.2C44.5,90.7,44.4,90.6,44.4,90.6z"/>
<path class="st13" d="M60.6,28.7c-0.1,0-0.2,0-0.2-0.1C60.5,28.5,60.6,28.6,60.6,28.7z"/>
<path class="st13" d="M90.8,70.3c0,0-0.1,0.1-0.1,0.1C90.8,70.3,90.8,70.3,90.8,70.3z"/>
<path class="st13" d="M91.4,69.9C91.4,69.9,91.4,69.9,91.4,69.9C91.4,69.9,91.4,69.9,91.4,69.9z"/>
<path class="st12" d="M67.1,26.7c0,0,0-0.1,0-0.1C67.1,26.6,67.1,26.6,67.1,26.7C67.1,26.6,67.1,26.7,67.1,26.7z"/>
<path class="st13" d="M54.6,28.9c0,0-0.1-0.1-0.1-0.1C54.6,28.9,54.6,28.9,54.6,28.9z"/>
<path class="st13" d="M54.8,29c0,0-0.1-0.1-0.1-0.1C54.7,29,54.7,29,54.8,29z"/>
<path class="st10" d="M57.6,89.1c-0.1,0.6-0.7,1-1.1,1.4c-0.2-0.1-0.5,0-0.8-0.1c-0.7,0-1.3-0.2-1.6-0.9c-0.4-0.8-0.3-1.5,0.2-2.1
	c0.5-0.5,1.1-0.9,1.8-0.7c0.6,0.2,1.1,0.6,1.2,1.4C57.4,88.4,57.2,88.8,57.6,89.1z M56.1,88.3c-0.2,0-0.3,0-0.5,0
	c-0.5,0-0.8,0.4-0.7,0.8c0.1,0.4,0.3,0.7,0.7,0.6c0.3,0,0.7,0,0.3-0.5c0.1,0,0.1-0.1,0.2-0.1c0.3,0,0.3-0.3,0.4-0.5
	C56.6,88.4,56.4,88.3,56.1,88.3z"/>
<path class="st3" d="M57.6,89.1c-0.4-0.3-0.2-0.7-0.2-1c-0.1-0.7-0.6-1.2-1.2-1.4c-0.7-0.2-1.3,0.2-1.8,0.7
	c-0.5,0.6-0.6,1.4-0.2,2.1c0.3,0.7,0.9,0.8,1.6,0.9c0.3,0,0.5-0.1,0.8,0.1c-0.4,0.2-0.8,0.4-1.3,0.4c-0.9,0.1-1.6-0.4-2-1.2
	c-0.5-1.1-0.4-2,0.4-2.7c1.1-1.1,2.6-1.1,3.7-0.2c0.4,0.4,0.6,0.8,0.5,1.4C57.7,88.4,57.9,88.7,57.6,89.1L57.6,89.1z"/>
<path class="st3" d="M33.9,102.2c-0.7,0-1.2-0.3-1.4-0.9c-0.2-0.5,0-0.9,0.3-1.3c0.8-0.8,1.8-1.4,3-1.6c0.1,0,0.3-0.1,0.3,0.1
	c0.1,0.2-0.1,0.2-0.2,0.3c-0.3,0.1-0.7,0.1-1,0.3c-0.9,0.3-1.1,1.2-0.6,2c0.2,0.2,0.4,0.3,0.7,0.3c0.4,0,0.8-0.1,1.2-0.1
	c0.1,0,0.2,0,0.2,0.1c0,0.1-0.1,0.1-0.1,0.2C35.5,101.9,34.6,102.1,33.9,102.2z M34.3,101.8c-0.2-0.2-0.3-0.3-0.4-0.5
	c-0.1-0.1-0.1-0.4-0.3-0.2c-0.1,0.1-0.4,0-0.4,0.2c0,0.2,0.2,0.3,0.4,0.4C33.7,101.9,33.9,101.9,34.3,101.8z"/>
<g>
	<path class="st9" d="M94.8,51.3c0.6-0.8,1.2-1.4,1.8-2.1c0.2-0.3,0.4-0.6,0.4-0.9c0.1-0.8,0.6-1.6,0.9-2.3c0.1-0.2,0.2-0.4,0.4-0.5
		c0.2,0.2,0.1,0.4,0,0.6C97.7,48.1,96.9,50.1,94.8,51.3z"/>
	<path class="st9" d="M99.2,41.7c0.1-1.7-0.2-3.4-1-4.9c0,0,0.1,0,0.1-0.1c0.4,0.1,0.6,0.3,0.7,0.6c0.6,1.4,0.8,2.9,0.3,4.4
		C99.3,41.7,99.3,41.7,99.2,41.7z"/>
	<path class="st9" d="M97.5,35.7c-0.4-0.4-0.5-0.9-0.8-1.3c-0.5-0.8-1-1.5-1.8-1.9c-0.2-0.1-0.3-0.2-0.2-0.4
		c0.1-0.2,0.3-0.1,0.4-0.1c1,0.5,1.5,1.3,2,2.2C97.3,34.6,97.4,35.1,97.5,35.7C97.6,35.6,97.5,35.6,97.5,35.7z"/>
	<path class="st9" d="M94.5,31.8c-0.3,0-0.5-0.2-0.8-0.4c-1-0.5-2.1-0.9-3.3-1c-0.1,0-0.3,0-0.4-0.1c-0.1,0-0.2-0.1-0.2-0.3
		c0-0.1,0.1-0.2,0.3-0.2C91.4,29.9,93.7,30.9,94.5,31.8z"/>
</g>
<path class="st1" d="M99.2,41.7c0.1,0,0.1,0,0.2,0c-0.1,0.6-0.2,1.3-0.3,1.9c-0.1,0-0.1,0-0.2,0C99,43,99.1,42.3,99.2,41.7z"/>
<path class="st1" d="M98.3,36.7c0,0-0.1,0-0.1,0.1c-0.2-0.3-0.4-0.6-0.5-0.9c0,0,0.1-0.1,0.1-0.1C97.9,36.1,98.2,36.3,98.3,36.7z"/>
<path class="st1" d="M97.6,35.6c0,0,0.1,0.1,0.1,0.1c0,0-0.1,0.1-0.1,0.1C97.5,35.8,97.5,35.7,97.6,35.6
	C97.5,35.6,97.6,35.6,97.6,35.6z"/>
<path class="st3" d="M93.4,53.4C93.4,53.4,93.4,53.4,93.4,53.4C93.5,53.4,93.5,53.4,93.4,53.4C93.5,53.4,93.4,53.4,93.4,53.4
	L93.4,53.4z"/>
<path class="st9" d="M59,30.6c-0.1-0.2-0.6-0.2-0.1-0.5c0.7,0.4,1.4,0.9,2.1,1.3c1.9,0.9,3.7,1.7,5.8,2C65.3,33.4,62.2,32.5,59,30.6
	z"/>
<path class="st3" d="M56.6,88.7c-0.1,0.2-0.2,0.4-0.4,0.5c-0.1,0-0.1,0.1-0.2,0.1c0.4,0.5,0,0.4-0.3,0.5c-0.4,0-0.7-0.2-0.7-0.6
	c-0.1-0.5,0.2-0.8,0.7-0.8c0.2,0,0.3,0,0.5,0c0.1,0.2-0.1,0.3-0.1,0.4C56.2,88.9,56.4,88.7,56.6,88.7z M56,88.9
	c-0.1-0.1-0.1-0.1-0.2-0.1c0,0-0.1,0.1-0.1,0.1c0,0,0,0.1,0.1,0.1C55.9,89,55.9,88.9,56,88.9z"/>
<path class="st14" d="M56.6,88.7c-0.2,0-0.4,0.2-0.6,0c0-0.1,0.2-0.2,0.1-0.4C56.4,88.3,56.6,88.4,56.6,88.7z"/>
<path class="st8" d="M34.3,101.8c-0.3,0.1-0.6,0.1-0.8-0.1c-0.2-0.1-0.4-0.2-0.4-0.4c0-0.2,0.3-0.1,0.4-0.2c0.3-0.2,0.3,0.1,0.3,0.2
	C33.9,101.5,34.1,101.6,34.3,101.8z"/>
<path class="st14" d="M56,88.9c-0.1,0-0.1,0.1-0.2,0.1c0,0-0.1-0.1-0.1-0.1c0,0,0-0.1,0.1-0.1C55.9,88.8,55.9,88.8,56,88.9z"/>
</svg>
