<?xml version="1.0" encoding="utf-8"?>
<!-- Generator: Adobe Illustrator 23.0.3, SVG Export Plug-In . SVG Version: 6.00 Build 0)  -->
<svg version="1.1" id="Laag_1" xmlns="http://www.w3.org/2000/svg" xmlns:xlink="http://www.w3.org/1999/xlink" x="0px" y="0px"
	 viewBox="0 0 88.5 137.7" style="enable-background:new 0 0 88.5 137.7;" xml:space="preserve">
<style type="text/css">
	.st0{fill:#624612;}
</style>
<g>
	<path class="st0" d="M83.9,47.4c0,0,10.2,22.7,0,37.4c0,0-46.7-5.1-83.9,0c0,0,10.6-21.3,0-37.4C0,47.4,32.9,54.2,83.9,47.4z"/>
	<path class="st0" d="M84.8,88.7c0,0,9.6,44.4-7.7,49.1C77.2,137.7,57.7,135.5,84.8,88.7z"/>
	<path class="st0" d="M0.4,44.9c0,0,3.3-45.3,21.1-44.9C21.5,0,39.6,7.6,0.4,44.9z"/>
	<path class="st0" d="M2.9,43.7c0,0,17.9-9.8,22.1-4.1C25,39.6,26.5,47.2,2.9,43.7z"/>
</g>
</svg>
