<?xml version="1.0" encoding="utf-8"?>
<!-- Generator: Adobe Illustrator 23.0.3, SVG Export Plug-In . SVG Version: 6.00 Build 0)  -->
<svg version="1.1" id="Laag_1" xmlns="http://www.w3.org/2000/svg" xmlns:xlink="http://www.w3.org/1999/xlink" x="0px" y="0px"
	 viewBox="0 0 1486.3569 795.002" enable-background="new 0 0 1486.3569 795.002" xml:space="preserve">
<g id="Group_172" transform="translate(-337.892 1134.432) rotate(-90)">
	<path id="Path_567" fill-rule="evenodd" clip-rule="evenodd" fill="#E6C07E" d="M1134.432,1824.2429h-42.3409l-1.0911-25.113
		l-2.7,25.114h-180.6l-0.991-65.53l-2.451,65.53h-83.17l-0.9-26.756l-2.22,26.756h-172.41l-0.706-46.631l-1.744,46.631h-34.733
		l-0.472-31.219l-1.166,31.219H433.618l-3.712-42.547l-1.506,42.546h-88.97v-198.193l49.169-7.858l-49.169-3.076v-138.413
		l44.853-2.449l-44.853-2.8v-194l90.562-4.944l-90.562-5.657v-93.858l34.007-10.391l-34.007-11.901V870.718l60.636-6.268
		l-60.636-7.175V662.909l30.37-17.139l41.21-6.7l-71.58-13.331V337.895h52.655l0.981,27.74l2.42-27.74h220.5l2.068,55.348
		l0.84-55.348h223.788l1.669,44.733l0.679-44.733h14.746l2.512,30.3l1.018-30.3h143.144l1.916,17.907l0.781-17.907h34.988
		l2.343,21.82l0.951-21.82h87v199.6l-59.244,7.888l59.244,6.9V732.63l-53.495,7.129l53.495,6.23V991.82l-76.024,4.751l76.024,4.153
		v391.9159l-89.66,11.948l89.66,10.438v40.571l-50.993,3.1851l50.993,2.782v239.532l-67.932,4.246l67.932,3.712L1134.432,1824.2429z
		"/>
	<path id="Path_568" fill-rule="evenodd" clip-rule="evenodd" fill="#D9B475" d="M367.973,1647.844
		c-1.5-21.963,51.769-21.3199,59.75-32.088c-27.226-7.173-52.711-4.046-51.543-22.359c0.915-14.338-24.5-81.765-1.01-83.281
		c0.147,0,15.436-26.025,16.662-31.3571c17.514-5.467,6.944-6.4,5.519-10.14c-11.853-31-16.757,20.8199-16.757-71.752
		c2.215-5.9351-9-22.574-4.13-32.889c16.1-34.142-13.111-72.046,12.969-72.046c10.717,0,71.535-8.783,92.859-24.843
		c-24.543-7.4189-82.3-20.8-91.854-21.939c-12.853-1.516-15.241-72.2-10.948-73c18.545-3.436,19.335-4.5551,26.458-9.022
		c-13.205-5.2371-30.114-13.719-29.767-31.238c0.2-10.2-6.3-43.8781-4.8-48.583c14.941-46.672-0.037-89.1451,11.043-103.4111
		c6.371-8.189-3.525-63.128-3.662-63.294c-16.672-21.455,12.237-44.64,22.818-44.4c17.125,0.389,23.391-3.007,45.288-12.87
		c-17.893-5.308-45.756-12.981-50.812-13.917c-32.693-6.07-13.831-18.011-19.876-38.165c0.516-21.36-6.571-11.894,1.926-35.928
		c5.25-14.869-2.073-88.264-2.215-88.558c-16.02-33.944,42.973-12.283,48.692-25.843c8.029-19.027,58.467-8.053,98.346-20.328
		c-13.673-6.34-35.086-11.085-43.036-20.217c-11.785-13.544-85.656-37.6-82.636-24.7c-0.516-0.7-19.334-6.054-21.076-5.943
		c-5.408,0.317-6.976-45.846-6.976-58.93c0-6,2.1-27.1,2.347-32.1c3.541-41.688,3.7-50.011,18.172-77.251
		c1.978-13.822,16.141-27.231,18.4-27.3c5.708-0.19,16.978-14.5,20.871-9.188c1.252,1.7,35.744-11.474,39.506-9.133
		c13.158,0,17.793,2.38,29.841,3.848c9.159,1.119,31.514-1,42.589-1c7.881,0,34.939-0.572,41.116-3.452
		c2.652-1.246,22.575,1.547,28.147,1.547c1.342,9.5,2.594,2.23,3.136,20.908c0.163,5.435,5.077,17.6,4.772,29.183
		c-0.032,1.325,0.063,0.333,0.316,1.428c0.058-0.135,2.457-18.654,2.767-20.908c0.994-7.268,2.594-25.3,5.061-27.826l0.395-0.881
		c1.952-1.1,32.572,0.246,34.187,1.349c0.116,0.087,20.724,3.428,23.38,3.428c8.234,0,16.309-3.34,27.568-3.34
		c16.046,0,37.275-5.9,52.653,0.167c7.918,3.118,46.971,0.785,56.357,0.785c21.618,0,15.3,1.42,23.722,26.24
		c0.81,2.4-0.121,14.314,1,18.122c0-0.04,3.7-25.327,4.083-28.183c2.241-16.583,10.249-23.78,9.838-8.062
		c-0.063,2.119,2.283,4.293,2.2,7.633c5.566-6.9-2.72-20.082,15.583-18.646c4.425,0.341,14.889,7.95,26.832,7.672
		c13.332-0.317,22.154-5.729,37.585-5.729c22.928,0,24.406,9.013,48.786-1.468c17.356-7.467,11.885,16.353,26.195,2.9
		c5.692-2.9,25.348-9.76,27.489,3.38c1.042,6.4,8.5601,9.117,8.5601,11.394c22.149,3.245,45.056,10.934,43.3619,58.168
		c-1,27.945,2.389,34.9,2.389,54.725c0,13.473-25.069,13.711-32.072,13.378c-9.339-0.452-24.285,3.205-26.995,7.8
		c-1.337,5.189-17.093,11.767-51.212,16.242c46.555,8.712,94.5469,28.223,96.0359,28.128c16.22-1.047,16.72,79.1,16.446,79.734
		c-10.6331,24.994,1.11,75.489-29.6,78.4c-9.286,0.881-14.631,5.245-29.4,9.252c26.905,8.847,19.171,12.06,29.415,19.067
		c36.328,24.859,12.516,14.211,22.0649,34.444c16.62,35.214-12.264,90.1-4.3621,110.234c11.632,29.644,8.959,35.5,9.444,60.239
		c0.2371,11.767-86.361,28.556-99.451,37.483c8.86,0,79.5161,27.47,79.843,27.47c30.9821,0,20.5129,105.656,15.489,136.8151
		c0.2159,11.354,0.778,65.8,0.842,65.9919c14.2729,40.292-4.74,86.9-8.0439,111.782c-8.723,65.714-22.491,22.233-35.26,39.6
		c-8.465,11.5-42.326,15.639-42.7,16.052c-12.385,13.306-25.606,6.649-46.156,8.3c24.49,12.187,77.3329,10.1801,77.9,10.355
		c14.589,4.483,18.4351,12.0129,21.0081,12.671c47.4919,12.14-4.9189,26.6-37.817,31.326c28.031,12.2,66.627,17.083,72.9561,17.083
		c27.511,0-5.976,89.915,0.121,135.022c0.9131,6.2426,1.2548,12.5553,1.021,18.86h0.011c0.1,25.2321,2.925,27.3-3.031,49.083
		c-4.672,17.075-15.2469,2.516-24.054,11.981c-0.121,0.127-30.941,9.958-36.26,12.291c-3.293,1.444-5.7-1.119-10.8,1.5389
		c5.888,2.6495,12.034,4.6837,18.34,6.0699c23.959,7.594,4.193,40.585-15.936,44.307c-1.631,0.3-55.3,3.991-59.061,3.991
		c-2.241-0.27-1.341,1.064-2.567,1.437c-17.961,5.522-12.606,17.17-35.334,17.17c-4.141-3.5229-9.554,2.642-14.1-21.2729
		c0-9.989-4.03-26.882-6.166-37.22c-7.218,13.124-2.6,34.729-20.276,43.87c-6.135,2.476-20.876,10.656-21.155,10.64
		c-29.862-1.928-36.27,12.822-44.956-21.272c0,6.5699-6.129,15.425-9.7,18.606c-7.108,4.7371-65.958,3.4-71.477,1.444
		c-29.021-10.283-62.639,8.395-80.132-0.111c-11.054-6.792-9.423-20-14.989-38.546c0.321,5.61-4.083,28.834-12.337,31.9
		c0.4,7.6169-19.587-2.468-26.442-13.29c-1.62,0.8409-4.756,6.6-5.293,9.2c-2.1,10.156-44.115,11.1479-50.238,6.752h-2.646
		c-13.605,0-70.72,7.2371-77.57-1.325c-9.37-11.7111-39.164-19.344-42.31-34.562c-1.515,0.793-0.41,0.9-2.494,1.5551
		c-3.446,22.542-44.888-0.119-47.445-12.759c-4.3-2.166-7.4-19.1851-9.407-33.8409c-0.3976-6.2645-1.1565-12.501-2.273-18.678
		c-1.91-10.212-1.62-17.25,0.153-22.05L367.973,1647.844z M1100.4919,1824.244h33.939v-115.193l-67.931-3.714l67.931-4.245V1461.564
		l-50.991-2.785l50.991-3.182v-40.569l-89.66-10.442l89.66-11.949v-391.912l-76.0229-4.158l76.0229-4.745v-245.835l-53.495-6.229
		l53.495-7.125v-180.352l-59.245-6.9l59.245-7.887V337.897h-87l-0.952,21.82l-2.3409-21.82h-34.986l-0.784,17.9l-1.915-17.9H863.301
		l-1.021,30.3l-2.509-30.3h-14.743l-0.679,44.727l-1.668-44.727H618.89l-0.842,55.344l-2.068-55.344h-220.5l-2.42,27.739
		l-0.979-27.739h-52.65v287.842l71.583,13.33l-41.21,6.7l-30.373,17.1429v194.365l60.634,7.173l-60.634,6.268v279.9871
		l34.008,11.894l-34.008,10.394v93.858l90.559,5.657l-90.559,4.943v194l44.851,2.8l-44.851,2.4539v138.41l49.165,3.079
		l-49.165,7.855v198.2h88.97l1.5-42.554l3.709,42.554h173.127l1.163-31.223l0.473,31.223h34.734l1.741-46.632l0.71,46.632h172.4128
		l2.22-26.755l0.895,26.755h83.178l2.452-65.532l0.989,65.532h180.6l2.7-25.113l1.089,25.113L1100.4919,1824.244z"/>
	<path id="Path_569" fill-rule="evenodd" clip-rule="evenodd" fill="#8C6E3D" d="M1068.252,1705.234l66.179-4.142V1461.564
		l-50.991-2.785l50.991-3.182v-40.569l-89.66-10.442l89.66-11.949v-391.912l-76.0229-4.158l76.0229-4.745v-245.835l-53.495-6.229
		l53.495-7.125v-180.352l-59.245-6.9l59.245-7.887V337.897h-87l-0.879,20.122c0.2469,0.69,0.426,1.254,0.516,1.619
		c4.95-13.044-2.715-21.32,15.688-14.028c0.116,0.047,26.679-1.23,30.52-1.23c5.245,0,33.5081-1.928,35.4,1.682
		c0.4646,1.0453,0.848,2.1248,1.147,3.229c0.2469,11.981-1.9,28.326-1.073,31.58c0,11.585-3.8459,26.85-2.194,34.785
		c3.877,18.686-0.105,66.047,1.026,69.15c2.683,7.395,1.478,28.929,1.478,39.2119c0,18.892-16.288,3.325-22.049,12.005
		l-31.824,9.355l22.644,5.88l13.774,3.237l10.717,2.309l7.35,2.309c0,2.658-0.3051,5.721-0.3051,7.387
		c0,8.72,0.105,55.923-0.6949,59.073c-2.457,9.7,0.6949,26.033,0.6949,33.365c0,16.893-1.526,33.754,0.584,49.361
		c3.8,28.128-11.569,18.218-15.894,21.78c-6.4771,5.34-32.361,3.713-33.677,8.657c2.189,9.545,28.173,4.555,33.571,9.315
		c5.4821,4.832,8.249,2.174,13.91,3.578c4.793,1.182-0.9,74.14,0.332,81.043c1.231,6.856,3.541,79.552,2.3199,84.3
		c-2.262,8.76-1.762,16.75-1.762,26.319c0,6.617-0.537,14.711-2.063,20.32c-0.957,3.507,2.036,15.631,2.452,16.5
		c4.814,10.2-27.068,7.752-31.3879,9.466c-8.007,3.214-37.948,0.6-39.343,6.982l34.829,6.76c7.986,3.1,7.365,1.389,15.615,1.389
		c4.151,0,13.342,2.769,13.495,2.761c11.885-0.532,2,10.108,4.467,19.741c4.682,18.376-0.016,45.092,1.71,51.368
		c4.5,16.408-1.157,33.777-0.41,42.95c1.178,14.5,1.252,22.8,1.252,38.323c0,7.411-1.1,25.542,0.079,31.564
		c0.489,2.476,0.526,15.1,0.921,15.877c2.625,5.229-3.283,29.1281-1.226,41.99c1.7729,11.108-2.125,22.3-0.926,27.4
		c3.63,15.385,0.126,34.3,1.457,50.7889c0.574,2.5,0.642,20.472,0.3311,23.6c-0.826,8.379,2.8149,36.658-0.942,36.436
		c-7.8-0.46-13.384,1.547-20.208,2.309l-64.08,14.766l45.708,9.244c1.8199,1.309,9.528,0.532,10.822,1.047
		c1.431,0.563,26.458,4.538,27.142,4.491c2.588-0.1591,2.452,15,2.452,19.408c0,24.208-14.621,5.5-16.53,14.306l-30.925,5.7
		l30.278,5.848c15.226-0.976,9.47,2.285,14.084,4.158c3.793,1.5229,3.3409,22.153,2.809,26.858
		c-1.936,17.25,2.031,48.028,0.947,56.177c-0.842,6.332-1.652,63.214-0.968,71.649l0.021,0.928
		c-0.426,4.65,0.595,26.74,0.511,27.009c-4.335,13.4-0.205,33.063-1.2209,35.2061c-0.1689,0.3409,1.847,13.012-8.576,12.584
		c-12.869-0.5081-23.7271,1.849-36,1.849c-5.219,0-12.7531,1.031-17.709,3.65c0.1869,0.2078,0.4011,0.389,0.637,0.5389
		L1068.252,1705.234z M1091.075,1800.854l1.016,23.391h42.3409v-115.194l-65.79-3.594c5.387,2.88,25.6591,4.364,29.972,4.364
		c8.2,0,9.433,1.785,14.2419,2.356c26.7469,3.158,12.306,2.579,16.1,12.886c4.078,11.084-0.405,30.976,1.226,34.714
		c6.55,15,0.51,23.105,1.941,38.7c0.5477,5.3146,0.3816,10.6785-0.494,15.949c-6.866,4.348-32.4091,11.671-34.334-0.873
		c-4.277-1.476-2.52-10.751-5.53-14.369c-0.1954,0.5688-0.4255,1.1252-0.689,1.666L1091.075,1800.854z M409.475,1818.881
		l-36.065,1.167c-1.452-0.913-11.764,0.088-12.158-0.23c-1.447-1.174-6.319-1.134-6.34-1.15c-3.425-2.626-9.77-0.2939-10.464-7.308
		c0-5.173,3.109-40.03,2.594-41.894c-5.75-21.059,3.735-51.3929-2.141-70.959c0-13.767-0.247-23.375-0.452-36.4
		c-0.658-41.085-3.1-21.835,9.954-33.873c6.5,0,28.994-3.808,34.2-10.045l-17.009-4.967c-4.64,0-10.533-4.713-20.813-2.047
		c-1.221,2.991-9.78-1.024-6.782-25.922c0-4.427-0.01-22.9,0.568-25.756c2.378-11.7-1.7-47.433-0.9-49.1219
		c5.593-11.83-4.114-27.9,5.314-30.192l35.312-5.934l-29.883-5.665c-2.846-1.5389-5.514-7.951-5.882-8.363
		c-5.535-6.2-6.345-34.92-4.525-44.854c-1.631-7.093-0.158-20.479,0.863-28.033c2.931-21.6541-1.994-41.014-0.452-59.9771
		c1.81-22.1689,1.515-15.0601,0.947-36.84c-0.295-11.3,21.339-8.87,27.594-8.87l57.046-9.141l-24.927-7.911
		c-1.926,0-6.892,0.309-8.481,0.048c-16.562-2.611-22.044-2.1-38.569-2.1c-13.826,0-16.32-10.672-13.611-30.754
		c2.7-20-0.41-8.308-0.41-28.652c0-17.7-2.462-19.892,4.977-26.557l20.3-12.7111l-29.841,9.125v93.858l90.559,5.657l-90.559,4.943
		v194l44.851,2.8l-44.8591,2.4531v138.41l49.165,3.079l-49.165,7.855v198.2h88.97l1.5-42.474c-0.032-0.031-0.063-0.08-0.095-0.111
		c-2.094,1.071-2.851,15.385-2.657,18.408c0.6,9.156-1.562,14.814-1.562,19.2c-2.073,0-16.052-0.365-16.115-0.389L409.475,1818.881z
		 M429.914,1781.787c3.283,4.0229,1.92,9.759,4,16.877c0.621,2.134,3.925,17.575,5.393,18.36c2.252,1.2,7.344,0.858,9.428,1.667
		c6.382-2.34,15.568,1.7,28.089-2.642c14.079-4.88,49.2,6.276,60.308,1.309c7.092-3.182,56.257,2.5389,60.555-2.071
		c1.726-1.856,6.04-3.007,6.9-11.156c0.184-1.738,2.31-5.9659,3.22-8.442l-1.068,28.557H433.615l-3.7-42.458L429.914,1781.787z
		 M607.939,1795.307l0.437,28.938h34.734l1.652-44.2c-1.21,9.712-5.066,38.689-8.086,38.5c-4.851-0.3101-26.39,3.65-26.227-4.666
		c0.263-13.354-2.231-13.885-2.231-19.741c-0.0355,0.4028-0.1295,0.7982-0.279,1.174V1795.307z M644.877,1779.121l0.684,45.124
		h172.41l1.957-23.574c-0.4803,2.6763-1.3118,5.2773-2.473,7.736c-3.483,9.292-21.176,8.855-22.3,8.91
		c-14.842,0.6429-111.783-2.745-114.955-1.3c-2.725-3.4-18.977,2.959-22.349,3.9351c-2.857-7.141-9.459,1.277-9.459-12.838
		c0-18.718-2.347-16.972-3.351-29.4c-0.042,0.365-0.1,0.8409-0.168,1.4L644.877,1779.121z M848.877,1815.5959
		c3.115-3.729,16.367,0.936,19.619,2.134c0.61,0.231,31.951,1.436,32.114-2.563c0.5016-1.7919,0.8812-3.6157,1.136-5.459l4.972-51
		l4.235,45.1l1.4,11.354l5.3,1.6899c18.056-4.3879,23.786,3.515,40.21-0.04c2.678-0.579,11.911,2.881,19.666,0.151
		c7.734-2.73,26.142,4.38,31.624-0.5c4.146-3.682,67.537,5.2,73.2239-0.8409c0.978-1.04,6.082-9.458,8.37-14.092l-2.441,22.709
		H907.701l-0.989-65.532l-2.452,65.532h-83.175l-0.895-26.755c7.634,11.283-3.225,24.351,15.773,21.542
		c6.15-0.9,8.028,2.4,12.911-3.436L848.877,1815.5959z M346.476,380.942c-1.313-9.8424-2.0945-19.7484-2.341-29.675
		c0.721-4.086,0.668-7.292,4.388-7.744c1.473-0.182,5.551-1.785,6.813-1.785c2.7994,0.1504,5.6062-0.079,8.344-0.682
		c1.526-0.309,13.521,2.1,14.81,0.722c0.037-0.048,10.769,0.063,11.38,2.269c1.573,5.705,1.341,5.65,2.11,11.918
		c0.347,2.872,0.479,5.784,1.047,8.529l-0.942-26.6h-52.654v287.845l71.583,13.33l-41.21,6.7l-30.373,17.1429v194.365l60.634,7.173
		l-60.634,6.268v279.9871l32.635,11.418l0.879-0.5551c-1.157-5.03-17.735-9.759-21.3-10.854
		c-6.981-2.142-10.375-19.678-8.591-29.453c3.23-17.781-0.526-47.5,1.278-53.8359c2.21-7.7841-1.894-90.2711-0.789-98.928
		l1.018-15.692c4.551-16.671-0.489-60.128,2.146-76.418l9.049-3.412l44.309-8.53l-53.811-12.616
		c-6.755-13.163,3.646-47.385-0.452-55.272c-0.189-3.308-1.047-38.006-0.789-38.879c4.046-14.076,0.111-30.318,0.337-38.157
		c0.337-11.862-5.114-51.487,4.977-54.63c9.691-3.023,15.42-10.489,20.808-13.647c0.773,0,3.935,0.278,4.4-0.183
		c5.477-5.3,29.993-3.039,35.476-12l-28.4-10.4c-5.287,1.333-21.949-6.578-29.6-6.578c-17.8,0-2.3-23.732-7.7-37.3
		c-2.1-5.292-2.473-53.677-0.737-60.033c2.168-7.935,2.4-91.247,1.279-99.4c-2.546-18.519,2.115-33.357,0.621-44.41L346.476,380.942
		z M395.483,337.897h220.5l2.068,55.344l0.842-55.344H842.682l1.51,40.45c-0.7209-2.9219-1.231-5.8919-1.526-8.887
		c-0.81-15.639,0.105-9.3-2.646-24.185c-2.2728,0.0981-4.5496,0.0611-6.818-0.111c-11.043-2.991-24.454-1.238-35.975-1.238
		c-3.241,0-18.982,3.793-19.682,3.142c-4.751,0-17.125,0.2-20.3-0.555c-18.556-4.475-38.711,0.762-55.747-2.7
		c-11.08-2.253-15.115,1.214-21.818,0.111c-5.84,3.4-35.239,0-42.541,0c-10.769,0-15.683-1.754-16.067,11.672l-3.02,37.642
		l-5.308-48.409c-1.668-1.222-18.3,0.714-24.764-2.547c-0.742-0.373-31.935-0.1-32.051-0.04c-3,1.539-29.525,4.65-30.33,3.3
		c-7.229,0-11.374,2.143-18.477,0.3c-6.782-1.754-10.7-1.563-17.446-1.658c-3.578-0.055-6.145-0.785-9.786-0.92
		c-0.132-0.008-33.1,1.674-33.224,1.73c-3.888,0-8.055-0.262-12.064-0.262c-5.114,0-18.551-3.047-22.076-1.5
		c-4.346,1.9-2.794,1.357-7.365,1.357c-0.584,0-5.456-0.262-5.487-0.27l-1.9,1.5l-4.509,19.725c-0.047-0.2-0.094-0.4-0.142-0.587
		l2.362-27.065L395.483,337.897z M845.0289,337.897l-0.626,41.426c0.184,0.7535,0.309,1.5201,0.374,2.293l2.084-27.366l0.894-5.388
		l1.484-4.031l3.273-0.452c6.482-1.873,6.639,11.973,9.738,23.32l-2.472-29.8L845.0289,337.897z M867.6289,344.229
		c4.383-4.356,24.433,7.268,37.812,0.484c1.152-0.587,3.425-0.357,4.482-1.682c5.245,1.206,22.839,1.206,27.294,0.23
		c7.981-1.738,20.008-1.373,27.642,1.158c1.936,0.643,22.518,2.214,24.985,1.016c7.934-3.856,12.8-1.381,17.157,7.355
		c0.321,0.635,0.831,1.928,1.347,2.841l-1.9-17.734H863.301l-1.01,30.04l0.332,1.563c0.031-0.651,4.866-25.137,5-25.271H867.6289z
		 M1009.1479,337.897h34.986l2.052,19.091c-1.326-3.634-3.593-9.291-3.609-9.918c-0.215-6.84-13.405-4.039-16.936-4.039
		c-14.947,0-11.574,1.167-16.656,13.457c-0.2493-0.2362-0.4575-0.5123-0.616-0.817L1009.1479,337.897z"/>
</g>
</svg>
