<?xml version="1.0" encoding="utf-8"?>
<!-- Generator: Adobe Illustrator 23.0.4, SVG Export Plug-In . SVG Version: 6.00 Build 0)  -->
<svg version="1.1" id="Laag_1" xmlns="http://www.w3.org/2000/svg" xmlns:xlink="http://www.w3.org/1999/xlink" x="0px" y="0px"
	 viewBox="0 0 795.1 1203.9" style="enable-background:new 0 0 795.1 1203.9;" xml:space="preserve">
<style type="text/css">
	.st0{fill-rule:evenodd;clip-rule:evenodd;fill:#E6C07E;}
	.st1{fill-rule:evenodd;clip-rule:evenodd;fill:#D9B475;}
	.st2{fill-rule:evenodd;clip-rule:evenodd;fill:#8C6E3D;}
</style>
<g id="Group_172" transform="translate(-337.892 1134.432) rotate(-90)">
	<path id="Path_567" class="st0" d="M-69.3,1133v-42.3l20.3-1.1l-20.3-2.7V906.3l53-1l-53-2.5v-83.2l21.7-0.9l-21.7-2.2V644.1
		l37.7-0.7l-37.7-1.7V607l25.3-0.5l-25.3-1.2V432.2l34.4-3.7l-34.4-1.5v-89H91.2l6.4,49.2l2.5-49.2h112l1.9,44.9l2.3-44.9h157.1
		l4,90.6L382,338h76l8.4,34l9.6-34h226.8l5.1,60.6l5.8-60.6h157.4l13.8,30.4l5.4,41.2l10.8-71.6h233.1v52.7l-22.4,1l22.4,2.4v220.5
		l-44.8,2.1l44.8,0.8v223.8l-36.2,1.7l36.2,0.7v14.7l-24.5,2.5l24.5,1V1005l-14.5,1.9l14.5,0.8v35l-17.7,2.3l17.7,1v87H972.7
		l-6.4-59.2l-5.6,59.2h-146l-5.7-53.5l-5,53.5H604.8l-3.9-76l-3.4,76H280.2l-9.6-89.7l-8.4,89.7h-33l-2.6-51l-2.3,51h-194l-3.4-67.9
		l-3,67.9L-69.3,1133z"/>
	<path id="Path_568" class="st1" d="M73.6,366.5c17.8-1.5,17.2,51.8,26,59.8c5.8-27.2,3.2-52.7,18.1-51.5c11.6,0.9,66.2-24.5,67.5-1
		c0,0.1,21.1,15.4,25.4,16.7c4.5,17.5,5.2,6.9,8.2,5.5c25.1-11.9-16.8-16.8,58.1-16.8c4.8,2.2,18.3-9,26.6-4.1
		c27.6,16.1,58.3-13.1,58.3,13c0,10.7,7.1,71.5,20.1,92.9c6-24.5,16.8-82.3,17.7-91.9c1.2-12.9,58.5-15.2,59.1-10.9
		c2.8,18.5,3.7,19.3,7.3,26.5c4.2-13.2,11.1-30.1,25.3-29.8c8.3,0.2,35.6-6.3,39.4-4.8c37.8,14.9,72.2,0,83.7,11
		c6.6,6.4,51.1-3.5,51.3-3.7c17.4-16.7,36.1,12.2,36,22.8c-0.3,17.1,2.4,23.4,10.4,45.3c4.3-17.9,10.5-45.8,11.3-50.8
		c4.9-32.7,14.6-13.8,30.9-19.9c17.3,0.5,9.6-6.6,29.1,1.9c12.1,5.2,71.5-2.1,71.8-2.2c27.5-16,10,43,20.9,48.7
		c15.4,8,6.6,58.5,16.4,98.3c5.1-13.7,9-35.1,16.4-43c10.9-11.8,30.4-85.7,20-82.6c0.6-0.5,4.9-19.3,4.8-21.1
		c-0.2-5.4,37.1-7,47.7-7c4.9,0,21.9,2.1,26,2.3c33.8,3.5,40.5,3.7,62.6,18.2c11.2,2,22,16.1,22.1,18.4c0.2,5.7,11.7,17,7.5,20.9
		c-1.4,1.3,9.3,35.7,7.4,39.5c0,13.2-1.9,17.8-3.1,29.8c-0.9,9.2,0.8,31.5,0.8,42.6c0,7.9,0.5,34.9,2.8,41.1
		c1,2.7-1.2,22.6-1.2,28.1c-7.7,1.3-1.8,2.6-16.9,3.1c-4.4,0.2-14.3,5.1-23.6,4.8c-1.1,0-0.2,0.1-1.1,0.3c0.1,0.1,15.1,2.5,16.9,2.8
		c5.9,1,20.5,2.6,22.5,5.1l0.7,0.4c0.9,2-0.2,32.6-1.1,34.2c-0.1,0.1-2.8,20.7-2.8,23.4c0,8.2,2.7,16.3,2.7,27.6
		c0,16,4.8,37.3-0.2,52.7c-2.5,7.9-0.6,47-0.6,56.4c0,21.6-1.1,15.3-21.2,23.7c-1.9,0.8-11.6-0.1-14.7,1c0,0,20.5,3.7,22.8,4.1
		c13.4,2.2,19.3,10.2,6.6,9.8c-1.7-0.1-3.5,2.3-6.2,2.2c5.6,5.6,16.3-2.7,15.1,15.6c-0.2,4.4-6.4,14.9-6.2,26.8
		c0.2,13.3,4.6,22.2,4.6,37.6c0,22.9-7.3,24.4,1.2,48.8c6.1,17.4-13.3,11.9-2.3,26.2c2.3,5.7,7.9,25.3-2.8,27.5
		c-5.2,1-7.4,8.6-9.2,8.6c-2.6,22.1-8.8,45.1-47.1,43.4c-22.6-1-28.3,2.4-44.3,2.4c-10.9,0-11.1-25.1-10.9-32.1
		c0.4-9.3-2.6-24.3-6.3-27c-4.2-1.3-9.6-17.1-13.1-51.2c-7,46.6-22.8,94.5-22.8,96c0.8,16.2-64.1,16.7-64.5,16.4
		c-20.2-10.6-61.1,1.1-63.5-29.6c-0.7-9.3-4.2-14.6-7.5-29.4c-7.1,26.9-9.8,19.2-15.5,29.4c-20.2,36.3-11.5,12.5-27.9,22.1
		c-28.5,16.6-73-12.3-89.2-4.4c-24,11.6-28.7,9-48.8,9.4c-9.6,0.2-23.2-86.4-30.4-99.5c0,8.9-22.3,79.5-22.3,79.8
		c0,31-85.6,20.5-110.8,15.5c-9.2,0.2-53.3,0.8-53.4,0.8c-32.6,14.3-70.4-4.7-90.5-8c-53.2-8.7-18-22.5-32.1-35.3
		c-9.3-8.5-12.6-42.3-13-42.7c-10.8-12.4-5.3-25.6-6.7-46.2c-9.9,24.5-8.3,77.3-8.4,77.9c-3.6,14.6-9.7,18.4-10.3,21
		c-9.8,47.5-21.5-4.9-25.3-37.8c-9.9,28-13.8,66.6-13.8,73c0,27.5-72.8-6-109.3,0.1c-5,0.9-10.2,1.3-15.3,1l0,0
		c-20.4,0.1-22.1,2.9-39.8-3c-13.8-4.7-2-15.2-9.7-24.1c-0.1-0.1-8.1-30.9-10-36.3c-1.1-3.3,0.9-5.7-1.2-10.8
		c-2.1,5.9-3.8,12-4.9,18.3c-6.2,24-32.9,4.2-35.9-15.9c-0.2-1.6-3.2-55.3-3.2-59.1c0.2-2.2-0.9-1.3-1.1-2.6
		c-4.5-18-13.9-12.6-13.9-35.3c2.8-4.1-2.1-9.6,17.2-14.1c8.1,0,21.8-4,30.1-6.2c-10.6-7.2-28.1-2.6-35.6-20.3
		c-2-6.1-8.7-20.9-8.6-21.2c1.5-29.9-10.4-36.3,17.2-45c-5.3,0-12.5-6.1-15.1-9.7c-3.8-7.1-2.8-66-1.1-71.5
		c8.3-29-6.8-62.6,0.1-80.1c5.5-11.1,16.2-9.4,31.2-15c-4.5,0.3-23.3-4.1-25.8-12.3c-6.2,0.4,2-19.6,10.8-26.4
		c-0.6-1.6-5.3-4.8-7.5-5.3c-8.3-2.1-9-44.1-5.5-50.2v-2.6c0-13.6-5.8-70.7,1.1-77.6c9.5-9.4,15.6-39.2,28-42.3
		c-0.6-1.5-0.7-0.4-1.3-2.5c-18.2-3.4,0.1-44.9,10.4-47.4c1.8-4.3,15.5-7.4,27.4-9.4c5.1-0.4,10.1-1.2,15.1-2.3
		C63.9,364.5,69.7,364.8,73.6,366.5L73.6,366.5z M-69.3,1099.1v33.9H24l3-67.9l3.4,67.9h194l2.3-51l2.6,51h32.9l8.4-89.7l9.6,89.7
		h317.4l3.4-76l3.8,76h199.1l5-53.5l5.7,53.5h146.1l5.6-59.2l6.4,59.2h161.6v-87l-17.7-1l17.7-2.3v-35l-14.5-0.8l14.5-1.9V861.9
		l-24.5-1l24.5-2.5v-14.7l-36.2-0.7l36.2-1.7V617.5l-44.8-0.8l44.8-2.1V394l-22.4-2.4l22.4-1V338H901.3l-10.8,71.6l-5.4-41.2
		L871.2,338H713.7l-5.8,60.6l-5.1-60.6H476l-9.6,34l-8.4-34h-76l-4.6,90.6l-4-90.6H216.4l-2.3,44.9l-2-44.9H100l-2.5,49.2L91.1,338
		H-69.4v89l34.5,1.5l-34.5,3.7v173.1l25.3,1.2l-25.3,0.5v34.7l37.7,1.7l-37.7,0.7v172.4l21.7,2.2l-21.7,0.9v83.2l53,2.5l-53,1v180.6
		l20.3,2.7l-20.3,1.1L-69.3,1099.1z"/>
	<path id="Path_569" class="st2" d="M27.1,1066.8l3.3,66.2h194l2.3-51l2.6,51h32.9l8.4-89.7l9.6,89.7h317.4l3.4-76l3.8,76h199.1
		l5-53.5l5.7,53.5h146.1l5.6-59.2l6.4,59.2h161.6v-87l-16.3-0.9c-0.6,0.2-1.1,0.4-1.3,0.5c10.5,4.9,17.2-2.7,11.3,15.7
		c0,0.1,1,26.7,1,30.5c0,5.2,1.5,33.5-1.4,35.4c-0.8,0.5-1.7,0.8-2.6,1.1c-9.7,0.2-22.9-1.9-25.6-1.1c-9.4,0-21.7-3.8-28.2-2.2
		c-15.1,3.9-53.4-0.1-56,1c-6,2.7-23.4,1.5-31.7,1.5c-15.3,0-2.7-16.3-9.7-22l-7.6-31.8l-4.8,22.6l-2.6,13.8l-1.9,10.7l-1.9,7.3
		c-2.2,0-4.6-0.3-6-0.3c-7,0-45.3,0.1-47.9-0.7c-7.9-2.5-21.1,0.7-27,0.7c-13.7,0-27.4-1.5-40,0.6c-22.8,3.8-14.7-11.6-17.7-15.9
		c-4.3-6.5-3-32.4-7-33.7c-7.7,2.2-3.7,28.2-7.5,33.6c-3.9,5.5-1.8,8.2-2.9,13.9c-1,4.8-60-0.9-65.6,0.3c-5.6,1.2-64.5,3.5-68.3,2.3
		c-7.1-2.3-13.6-1.8-21.3-1.8c-5.3,0-11.9-0.5-16.4-2.1c-2.8-1-12.6,2-13.4,2.5c-8.3,4.8-6.3-27.1-7.7-31.4
		c-2.6-8-0.5-37.9-5.7-39.3l-5.5,34.8c-2.5,8-1.1,7.4-1.1,15.6c0,4.2-2.3,13.3-2.3,13.5c0.4,11.9-8.2,2-16,4.5
		c-14.9,4.7-36.5,0-41.6,1.7c-13.3,4.5-27.4-1.2-34.7-0.4c-11.7,1.2-18.5,1.3-31,1.3c-6,0-20.7-1.1-25.6,0.1
		c-2,0.5-12.2,0.5-12.9,0.9c-4.2,2.6-23.6-3.3-34-1.2c-9,1.8-18.1-2.1-22.2-0.9c-12.5,3.6-27.8,0.1-41.1,1.5
		c-2,0.6-16.6,0.6-19.1,0.3c-6.8-0.8-29.7,2.8-29.5-0.9c0.4-7.8-1.2-13.4-1.9-20.2l-12-64.1l-7.5,45.7c-1.1,1.8-0.4,9.5-0.8,10.8
		c-0.5,1.4-3.6,26.5-3.6,27.1c0.2,2.6-12.1,2.5-15.7,2.5c-19.6,0-4.5-14.6-11.6-16.5l-4.6-30.9l-4.7,30.3c0.8,15.2-1.9,9.5-3.4,14.1
		c-1.2,3.8-18,3.3-21.8,2.8c-13.9-1.9-38.9,2-45.5,0.9c-5.1-0.8-51.2-1.7-58-1h-0.7c-3.8-0.4-21.6,0.6-21.9,0.5
		c-10.9-4.3-26.8-0.2-28.5-1.2c-0.2-0.2-10.5,1.8-10.2-8.6c0.4-12.9-1.5-23.7-1.5-36c0-5.2-0.8-12.8-3-17.7
		C27.3,1066.4,27.1,1066.6,27.1,1066.8L27.1,1066.8z M-50.4,1089.6l-19,1v42.3H24l2.9-65.8c-2.3,5.4-3.6,25.7-3.6,30
		c0,8.2-1.5,9.4-1.9,14.2c-2.6,26.7-2.1,12.3-10.4,16.1c-9,4.1-25.1-0.4-28.1,1.2c-12.1,6.6-18.7,0.5-31.3,1.9
		c-4.3,0.5-8.7,0.4-12.9-0.5c-3.5-6.9-9.5-32.4,0.7-34.3c1.2-4.3,8.7-2.5,11.7-5.5C-49.5,1090.1-49.9,1089.9-50.4,1089.6
		L-50.4,1089.6z M-65,408l-1-36.1c0.7-1.5-0.1-11.8,0.2-12.2c1-1.4,0.9-6.3,1-6.3c2.1-3.4,0.2-9.8,5.9-10.5c4.2,0,32.4,3.1,33.9,2.6
		c17.1-5.8,41.6,3.7,57.5-2.1c11.2,0,19-0.2,29.5-0.5c33.3-0.7,17.7-3.1,27.5,10c0,6.5,3.1,29,8.1,34.2l4-17
		c0-4.6,3.8-10.5,1.6-20.8c-2.4-1.2,0.8-9.8,21-6.8c3.6,0,18.5,0,20.9,0.6c9.5,2.4,38.4-1.7,39.8-0.9c9.6,5.6,22.6-4.1,24.5,5.3
		l4.8,35.3l4.6-29.9c1.2-2.8,6.5-5.5,6.8-5.9c5-5.5,28.3-6.3,36.4-4.5c5.7-1.6,16.6-0.2,22.7,0.9c17.6,2.9,33.2-2,48.6-0.5
		c18,1.8,12.2,1.5,29.8,0.9c9.2-0.3,7.2,21.3,7.2,27.6l7.4,57l6.4-24.9c0-1.9-0.2-6.9,0-8.5c2.1-16.6,1.7-22,1.7-38.6
		c0-13.8,8.7-16.3,24.9-13.6c16.2,2.7,6.7-0.4,23.2-0.4c14.3,0,16.1-2.5,21.5,5l10.3,20.3l-7.4-29.8h-76l-4.6,90.6l-4-90.6H216.4
		l-2.3,44.9l-2-44.9H100l-2.5,49.2l-6.4-49.2H-69.4v89l34.4,1.5l0.1-0.1c-0.9-2.1-12.5-2.9-14.9-2.7c-7.5,0.6-12-1.6-15.5-1.6
		C-65.3,422.1-65,408.1-65,408L-65,408z M-35,428.5c-3.2,3.3-7.9,1.9-13.7,4c-1.7,0.6-14.3,3.9-14.9,5.4c-1,2.3-0.7,7.3-1.4,9.4
		c1.9,6.4-1.4,15.6,2.1,28.1c4,14.1-5.1,49.2-1.1,60.3c2.6,7.1-2,56.3,1.7,60.6c1.5,1.7,2.4,6,9.1,6.9c1.4,0.2,4.9,2.3,6.8,3.2
		l-23.2-1.1V432.2L-35,428.5L-35,428.5z M-45.9,606.5l-23.4,0.4v34.7l35.8,1.7c-7.9-1.2-31.3-5.1-31.2-8.1c0.2-4.9-3-26.4,3.8-26.2
		c10.9,0.3,11.3-2.2,16-2.2C-45.3,606.7-45.6,606.7-45.9,606.5L-45.9,606.5z M-32.8,643.4l-36.5,0.7v172.4l19.1,2
		c-2.2-0.5-4.3-1.3-6.2-2.5c-7.5-3.5-7.2-21.2-7.2-22.3c-0.5-14.8,2.2-111.8,1.1-115c2.8-2.7-2.4-19-3.2-22.3
		c5.7-2.9-1.1-9.5,10.4-9.5c15.1,0,13.8-2.3,23.8-3.4C-32,643.6-32.3,643.5-32.8,643.4L-32.8,643.4z M-62.3,847.4
		c3,3.1-0.7,16.4-1.7,19.6c-0.2,0.6-1.1,32,2.1,32.1c1.5,0.5,2.9,0.9,4.5,1.1l41.3,5l-36.5,4.2l-9.2,1.4l-1.4,5.3
		c3.6,18.1-2.8,23.8,0,40.2c0.5,2.7-2.3,11.9-0.2,19.7c2.2,7.7-3.6,26.1,0.4,31.6c3,4.1-4.2,67.5,0.6,73.2c0.8,1,7.7,6.1,11.4,8.4
		l-18.4-2.4V906.3l53-1l-53-2.5v-83.2l21.7-0.9c-9.2,7.6-19.8-3.2-17.4,15.8C-64.4,840.7-67,842.6-62.3,847.4L-62.3,847.4z
		 M1099.5,345c7.9-1.3,16-2.1,24.1-2.3c3.3,0.7,5.9,0.7,6.2,4.4c0.2,1.5,1.5,5.6,1.5,6.8c-0.2,2.8,0.1,5.6,0.6,8.3
		c0.2,1.5-1.7,13.5-0.6,14.8c0,0-0.1,10.8-1.9,11.4c-4.6,1.6-4.5,1.3-9.6,2.1c-2.3,0.3-4.7,0.5-6.9,1l21.5-0.9v-52.7H901.3
		l-10.8,71.6l-5.4-41.2l-13.8-30.4H713.7l-5.8,60.6l-5.1-60.6H476l-9.2,32.6l0.5,0.9c4-1.2,7.9-17.7,8.8-21.3
		c1.7-7,16-10.4,23.9-8.6c14.4,3.2,38.5-0.5,43.6,1.3c6.3,2.2,73.1-1.9,80.1-0.8l12.7,1c13.5,4.6,48.7-0.5,61.9,2.1l2.8,9l6.9,44.3
		l10.2-53.8c10.7-6.8,38.4,3.6,44.8-0.5c2.7-0.2,30.8-1,31.5-0.8c11.4,4,24.5,0.1,30.9,0.3c9.6,0.3,41.7-5.1,44.2,5
		c2.4,9.7,8.5,15.4,11,20.8c0,0.8-0.2,3.9,0.2,4.4c4.3,5.5,2.4,30,9.7,35.5l8.4-28.4c-1.1-5.3,5.3-21.9,5.3-29.6
		c0-17.8,19.2-2.3,30.2-7.7c4.3-2.1,43.5-2.5,48.6-0.7c6.4,2.2,73.9,2.4,80.5,1.3C1078.6,341.9,1090.5,346.5,1099.5,345L1099.5,345z
		 M1134.4,394v220.5l-44.8,2.1l44.8,0.8v223.8l-32.7,1.5c2.3-0.7,4.8-1.2,7.2-1.5c12.6-0.8,7.5,0.1,19.6-2.6
		c-0.1-2.3-0.1-4.5,0.1-6.8c2.4-11,1-24.5,1-36c0-3.2-3.1-19-2.5-19.7c0-4.8-0.2-17.1,0.5-20.3c3.6-18.6-0.6-38.7,2.2-55.7
		c1.9-11.1-1-15.1-0.1-21.8c-2.8-5.8,0-35.2,0-42.5c0-10.8,1.5-15.7-9.5-16.1l-30.4-3l39.2-5.3c1-1.7-0.6-18.3,2-24.8
		c0.3-0.7,0.1-31.9,0-32.1c-1.2-3-3.8-29.5-2.7-30.3c0-7.2-1.7-11.4-0.2-18.5c1.5-6.8,1.3-10.7,1.4-17.4c0.1-3.6,0.6-6.1,0.7-9.8
		c0-0.1-1.4-33.1-1.4-33.2c0-3.9,0.2-8.1,0.2-12.1c0-5.1,2.4-18.6,1.2-22.1c-1.5-4.3-1.1-2.8-1.1-7.4c0-0.6,0.2-5.5,0.2-5.5
		l-1.2-1.9l-16-4.5c0.2,0,0.3-0.1,0.5-0.1L1134.4,394L1134.4,394z M1134.4,843.6l-33.5-0.6c-0.6,0.2-1.2,0.3-1.9,0.4l22.2,2.1
		l4.4,0.9l3.2,1.5l0.4,3.3c1.5,6.5-9.7,6.6-18.9,9.7l24.1-2.5L1134.4,843.6z M1129.2,866.2c3.6,4.4-5.9,24.4-0.4,37.8
		c0.5,1.2,0.3,3.4,1.4,4.5c-1,5.2-1,22.8-0.2,27.3c1.4,8,1.1,20-1,27.6c-0.5,1.9-1.8,22.5-0.8,25c3.2,7.9,1.1,12.8-6,17.2
		c-0.5,0.3-1.5,0.8-2.3,1.3l14.3-1.9V861.9l-24.3-1l-1.3,0.3C1109.3,861.2,1129.2,866.1,1129.2,866.2L1129.2,866.2z M1134.4,1007.7
		v35l-15.5,2.1c2.9-1.3,7.5-3.6,8-3.6c5.5-0.2,3.2-13.4,3.2-16.9c0-14.9-1-11.6-10.9-16.7c0.2-0.2,0.4-0.5,0.6-0.6L1134.4,1007.7z"
		/>
</g>
</svg>
