<?xml version="1.0" encoding="utf-8"?>
<!-- Generator: Adobe Illustrator 25.2.1, SVG Export Plug-In . SVG Version: 6.00 Build 0)  -->
<svg version="1.1" xmlns="http://www.w3.org/2000/svg" xmlns:xlink="http://www.w3.org/1999/xlink" x="0px" y="0px"
	 viewBox="0 0 321.4 358.7" style="enable-background:new 0 0 321.4 358.7;" xml:space="preserve">
<style type="text/css">
	.st0{fill-rule:evenodd;clip-rule:evenodd;fill:#E6C07E;}
	.st1{fill-rule:evenodd;clip-rule:evenodd;fill:#D9B475;}
	.st2{fill-rule:evenodd;clip-rule:evenodd;fill:#8D6F3E;}
</style>
<g id="Laag_3">
</g>
<g id="Laag_2">
	<g>
		<polygon class="st0" points="321.4,-2.7 321.4,16.7 315.9,17.2 321.4,18.4 321.4,101.1 307.2,101.6 321.4,102.7 321.4,140.8 
			315.6,141.2 321.4,142.2 321.4,221.2 311.3,221.5 321.4,222.3 321.4,238.2 314.6,238.4 321.4,239 321.4,318.3 312.2,320 
			321.4,320.7 321.4,361.4 278.5,361.4 276.8,338.9 276.2,361.4 246.2,361.4 245.7,340.9 245.1,361.4 203.1,361.4 202.1,319.9 
			200.9,361.4 180.6,361.4 178.3,345.8 175.7,361.4 115.2,361.4 113.8,333.6 112.3,361.4 70.3,361.4 66.6,347.5 65.1,328.6 
			62.2,361.4 0,361.4 0,337.3 6,336.8 0,335.7 0,234.7 12,233.8 0,233.4 0,130.9 9.7,130.2 0,129.8 0,123.1 6.6,121.9 0,121.5 
			0,55.9 3.9,55 0,54.7 0,38.7 4.7,37.6 0,37.1 0,-2.7 43.2,-2.7 44.9,24.4 46.4,-2.7 85.3,-2.7 86.9,21.8 88.2,-2.7 141.4,-2.7 
			142.4,32.1 143.3,-2.7 228.1,-2.7 230.6,38.4 232.9,-2.7 241.7,-2.7 242.4,20.6 243,-2.7 294.7,-2.7 295.7,28.4 296.5,-2.7 		"/>
		<path class="st1" d="M283.2,348.3c-4.7,0.7-4.6-23.7-6.9-27.4c-1.6,12.5-0.9,24.1-4.8,23.6c-3.1-0.4-17.7,11.2-18,0.5
			c0-0.1-5.6-7.1-6.8-7.6c-1.2-8-1.4-3.2-2.2-2.5c-6.7,5.4,4.5,7.7-15.5,7.7c-1.3-1-4.9,4.1-7.1,1.9c-7.4-7.4-15.6,6-15.6-5.9
			c0-4.9-1.9-32.8-5.4-42.5c-1.6,11.2-4.5,37.7-4.7,42.1c-0.3,5.9-15.6,7-15.8,5c-0.7-8.5-1-8.9-2-12.1c-1.1,6-3,13.8-6.8,13.6
			c-2.2-0.1-9.5,2.9-10.5,2.2c-10.1-6.8-19.3,0-22.4-5.1c-1.8-2.9-13.6,1.6-13.7,1.7c-4.6,7.6-9.7-5.6-9.6-10.4
			c0.1-7.8-0.7-10.7-2.8-20.7c-1.1,8.2-2.8,21-3,23.3c-1.3,15-3.9,6.3-8.3,9.1c-4.6-0.2-2.6,3-7.8-0.9c-3.2-2.4-19.1,0.9-19.1,1
			c-7.3,7.3-2.7-19.7-5.6-22.3c-4.1-3.7-1.7-26.8-4.4-45c-1.4,6.3-2.4,16.1-4.4,19.7c-2.9,5.4-8.1,39.2-5.3,37.8
			c-0.2,0.2-1.3,8.9-1.3,9.7c0.1,2.5-9.9,3.2-12.7,3.2c-1.3,0-5.9-1-6.9-1.1c-9-1.6-10.8-1.7-16.7-8.3c-3-0.9-5.9-7.4-5.9-8.4
			c0-2.6-3.1-7.8-2-9.6c0.4-0.6-2.5-16.4-2-18.1c0-6,0.5-8.1,0.8-13.7c0.2-4.2-0.2-14.4-0.2-19.5c0-3.6-0.1-16-0.7-18.8
			c-0.3-1.2,0.3-10.3,0.3-12.9c2.1-0.6,0.5-1.2,4.5-1.4c1.2-0.1,3.8-2.3,6.3-2.2c0.3,0,0.1,0,0.3-0.1c0,0-4-1.1-4.5-1.3
			c-1.6-0.5-5.5-1.2-6-2.3L8,229.9C7.7,229,8,214.9,8.2,214.2c0-0.1,0.7-9.5,0.7-10.7c0-3.8-0.7-7.5-0.7-12.6c0-7.4-1.3-17.1,0-24.1
			c0.7-3.6,0.2-21.5,0.2-25.8c0-9.9,0.3-7,5.7-10.9c0.5-0.4,3.1,0.1,3.9-0.5c0,0-5.5-1.7-6.1-1.9c-3.6-1-5.1-4.7-1.7-4.5
			c0.5,0,0.9-1,1.7-1c-1.5-2.5-4.3,1.2-4-7.1c0.1-2,1.7-6.8,1.7-12.3c-0.1-6.1-1.2-10.1-1.2-17.2c0-10.5,1.9-11.2-0.3-22.3
			c-1.6-7.9,3.5-5.4,0.6-12c-0.6-2.6-2.1-11.6,0.7-12.6c1.4-0.5,2-3.9,2.5-3.9c0.7-10.1,2.4-20.6,12.6-19.9c6,0.5,7.5-1.1,11.8-1.1
			c2.9,0,3,11.5,2.9,14.7c-0.1,4.3,0.7,11.1,1.7,12.4c1.1,0.6,2.5,7.8,3.5,23.5c1.9-21.3,6.1-43.3,6.1-44
			c-0.2-7.4,17.1-7.7,17.2-7.5c5.4,4.9,16.3-0.5,17,13.6c0.2,4.3,1.1,6.7,2,13.5c1.9-12.3,2.6-8.8,4.1-13.5
			c5.4-16.6,3.1-5.7,7.4-10.1c7.6-7.6,19.5,5.6,23.8,2c6.4-5.3,7.7-4.1,13-4.3c2.5-0.1,6.2,39.6,8.1,45.5c0-4.1,5.9-36.4,5.9-36.6
			c0-14.2,22.8-9.4,29.6-7.1c2.5-0.1,14.2-0.4,14.3-0.4c8.7-6.5,18.8,2.2,24.2,3.7c14.2,4,4.8,10.3,8.6,16.1
			c2.5,3.9,3.4,19.4,3.5,19.6c2.9,5.7,1.4,11.7,1.8,21.1c2.6-11.2,2.2-35.4,2.2-35.7c1-6.7,2.6-8.4,2.7-9.6
			c2.6-21.8,5.8,2.3,6.8,17.3c2.6-12.8,3.7-30.5,3.7-33.4c0-12.6,19.4,2.7,29.2-0.1c1.6-0.5,2.9-0.6,4.1-0.5v0
			c5.5,0,5.9-1.3,10.6,1.4c3.7,2.1,0.5,7,2.6,11c0,0.1,2.2,14.2,2.7,16.6c0.3,1.5-0.2,2.6,0.3,4.9c0.6-2.6,1-5.5,1.3-8.4
			c1.6-11,8.8-1.9,9.6,7.3c0.1,0.7,0.9,25.3,0.9,27c-0.1,1,0.2,0.6,0.3,1.2c1.2,8.2,3.7,5.8,3.7,16.2c-0.8,1.9,0.6,4.4-4.6,6.5
			c-2.2,0-5.8,1.8-8,2.8c2.8,3.3,7.5,1.2,9.5,9.3c0.5,2.8,2.3,9.6,2.3,9.7c-0.4,13.7,2.8,16.6-4.6,20.6c1.4,0,3.3,2.8,4,4.4
			c1,3.3,0.7,30.2,0.3,32.7c-2.2,13.3,1.8,28.7,0,36.7c-1.5,5.1-4.3,4.3-8.3,6.9c1.2-0.1,6.2,1.9,6.9,5.7c1.6-0.2-0.5,9-2.9,12.1
			c0.2,0.7,1.4,2.2,2,2.4c2.2,1,2.4,20.2,1.5,23v1.2c0,6.2,1.6,32.4-0.3,35.5c-2.5,4.3-4.2,17.9-7.5,19.4c0.2,0.7,0.2,0.2,0.3,1.1
			c4.9,1.6,0,20.6-2.8,21.7c-0.5,2-4.1,3.4-7.3,4.3c-1.4,0.2-2.7,0.5-4,1C285.8,349.3,284.3,349.1,283.2,348.3L283.2,348.3z
			 M321.4,12.8V-2.7h-24.9l-0.8,31.1l-0.9-31.1H243l-0.6,23.4l-0.7-23.4h-8.8l-2.3,41.1l-2.6-41.1h-84.7l-0.9,34.8l-1-34.8H88.2
			l-1.3,24.5L85.3-2.7h-39l-1.5,27.1L43.2-2.7H0v17.6v22.2l4.7,0.4L0,38.7v16L3.9,55L0,55.9v65.6l6.6,0.5L0,123.1v6.8l9.7,0.3
			L0,130.9v102.5l12,0.4l-12,0.9v101l6,1.1l-6,0.4v10.8v13.3h62.2l2.9-32.8l1.4,18.9l3.7,13.9h42l1.6-27.8l1.4,27.8h60.5l2.6-15.6
			l2.2,15.6h20.3l1.2-41.5l1.1,41.5h41.9l0.6-20.5l0.5,20.5h29.9l0.7-22.5l1.7,22.5h42.9v-12.6v-28.2l-9.2-0.7l9.2-1.7V239l-6.8-0.5
			l6.8-0.2v-15.9l-10.1-0.8l10.1-0.3v-79l-5.8-1l5.8-0.4v-38.1l-14.2-1.1l14.2-0.5V18.4l-5.4-1.2l5.4-0.5V12.8z"/>
		<path class="st2" d="M295.6,27.6l-0.9-30.3H243l-0.6,23.4l-0.7-23.4h-8.8l-2.3,41.1l-2.6-41.1h-84.7l-0.9,34.8l-1-34.8H88.2
			l-1.3,24.5L85.3-2.7h-39l-1.5,27.1L43.2-2.7H0v2.6v15v22.2l4.4,0.4c0.1-0.1,0.3-0.2,0.4-0.2c-2.8-2.3-4.6,1.2-3-7.2
			c0-0.1-0.3-12.2-0.3-14C1.4,13.7,1,0.8,1.8-0.1c0.1-0.2,0.4-0.3,0.7-0.5c2.6-0.1,6.1,0.9,6.8,0.5c2.5,0,5.8,1.8,7.5,1
			c4-1.8,14.3,0,15-0.5c1.6-1.2,6.3-0.7,8.5-0.7c4.1,0,0.7,7.5,2.6,10.1l2,14.6l1.3-10.4l0.7-6.3l0.5-4.9l0.5-3.4
			c0.6,0,1.2,0.1,1.6,0.1c1.9,0,12.1,0,12.8,0.3c2.1,1.1,5.6-0.3,7.2-0.3c3.7,0,7.3,0.7,10.7-0.3c6.1-1.7,3.9,5.3,4.7,7.3
			c1.2,3,0.8,14.8,1.9,15.4c2.1-1,1-12.9,2-15.4c1-2.5,0.5-3.8,0.8-6.4c0.3-2.2,16,0.4,17.5-0.2c1.5-0.6,17.2-1.6,18.2-1.1
			c1.9,1,3.6,0.8,5.7,0.8c1.4,0,3.2,0.2,4.4,0.9c0.8,0.4,3.4-0.9,3.6-1.1c2.2-2.2,1.7,12.4,2,14.4c0.7,3.7,0.1,17.4,1.5,18l1.5-16
			c0.7-3.7,0.3-3.4,0.3-7.2c0-1.9,0.6-6.1,0.6-6.2c-0.1-5.4,2.2-0.9,4.3-2c4-2.1,9.8,0,11.1-0.8c3.5-2.1,7.3,0.5,9.3,0.2
			c3.1-0.5,4.9-0.6,8.3-0.6c1.6,0,5.5,0.5,6.8,0c0.5-0.2,3.3-0.2,3.4-0.4c1.1-1.2,6.3,1.5,9.1,0.6c2.4-0.8,4.8,1,5.9,0.4
			c3.3-1.7,7.4-0.1,11-0.7c0.5-0.3,4.4-0.3,5.1-0.2c1.8,0.4,7.9-1.3,7.9,0.4c-0.1,3.6,0.3,6.1,0.5,9.3l3.2,29.3l2-20.9
			c0.3-0.8,0.1-4.4,0.2-5c0.1-0.7,1-12.1,1-12.4c0-1.2,3.2-1.1,4.2-1.1c5.2,0,1.2,6.7,3.1,7.6l1.2,14.2l1.3-13.9
			c-0.2-7,0.5-4.3,0.9-6.5c0.3-1.7,4.8-1.5,5.8-1.3c3.7,0.9,10.4-0.9,12.1-0.4c1.4,0.4,13.7,0.8,15.5,0.4l0.2,0
			c1,0.2,5.8-0.3,5.8-0.2c2.9,2,7.1,0.1,7.6,0.6c0.1,0.1,2.8-0.8,2.7,3.9c-0.1,5.9,0.4,10.9,0.4,16.5c0,2.4,0.2,5.8,0.8,8.1
			C295.6,27.8,295.6,27.7,295.6,27.6L295.6,27.6z M316.3,17.2l5.1-0.5v-3.8V-1.1v-1.6h-24.9l-0.8,30.1c0.6-2.5,0.9-11.8,0.9-13.7
			c0-3.8,0.4-4.3,0.5-6.5c0.7-12.3,0.6-5.6,2.8-7.4c2.4-1.9,6.7,0.2,7.5-0.6c3.2-3,5-0.2,8.4-0.9c1.7-0.3,2.5,0,3.4,0.2
			c0.9,3.1,2.5,14.8-0.2,15.7c-0.3,2-2.3,1.2-3.1,2.5C316,16.9,316.2,17,316.3,17.2L316.3,17.2z M320.2,329.3l0.3,16.5
			c-0.2,0.7,0,5.4,0,5.6c-0.3,0.7-0.2,2.9-0.2,2.9c-0.6,1.6-0.1,4.5-1.6,4.8c-1.1,0-8.7-1.4-9.1-1.2c-4.6,2.6-11.1-1.7-15.3,1
			c-3,0-5.1,0.1-7.9,0.2c-8.9,0.3-4.7,1.4-7.3-4.6c0-3-0.8-13.3-2.2-15.7l-1.1,7.8c0,2.1-1,4.8-0.4,9.5c0.6,0.6-0.2,4.5-5.6,3.1
			c-1,0-5,0-5.6-0.3c-2.5-1.1-10.3,0.8-10.6,0.4c-2.6-2.6-6,1.9-6.5-2.4l-1.3-16.2l-1.2,13.7c-0.3,1.3-1.7,2.5-1.8,2.7
			c-1.3,2.5-7.6,2.9-9.7,2.1c-1.5,0.7-4.4,0.1-6.1-0.4c-4.7-1.3-8.9,0.9-13,0.2c-4.8-0.8-3.3-0.7-8-0.4c-2.4,0.1-1.9-9.8-1.9-12.6
			l-2-26.1l-1.7,11.4c0,0.9,0.1,3.2,0,3.9c-0.6,7.6-0.5,10.1-0.5,17.7c0,6.3-2.3,7.5-6.6,6.2c-4.3-1.2-1.8,0.2-6.2,0.2
			c-3.8,0-4.3,1.1-5.7-2.3l-2.7-9.3l2,13.7h20.3l1.2-41.5l1.1,41.5h41.9l0.6-20.5l0.5,20.5h29.9l0.7-22.5l1.7,22.5h42.9v-2v-10.6
			v-28.2l-9.2-0.7c0,0,0,0,0,0c0.2,1,3.3,1.3,4,1.2c2-0.3,3.2,0.7,4.2,0.7C320.3,322.9,320.2,329.3,320.2,329.3L320.2,329.3z
			 M312.2,320c0.9-1.5,2.1-0.9,3.6-1.8c0.5-0.3,3.8-1.8,4-2.5c0.3-1,0.2-3.4,0.4-4.3c-0.5-2.9,0.4-7.1-0.6-12.9
			c-1.1-6.4,1.4-22.5,0.3-27.6c-0.7-3.2,0.5-25.8-0.4-27.7c-0.4-0.8-0.7-2.8-2.4-3.2c-0.4-0.1-1.3-1.1-1.8-1.5l6.2,0.5v79.3
			L312.2,320L312.2,320z M315.1,238.4l6.3-0.2v-15.9l-9.6-0.8c2.1,0.6,8.4,2.3,8.3,3.7c-0.1,2.2,0.8,12.1-1,12c-2.9-0.1-3,1-4.3,1
			C314.9,238.3,315,238.4,315.1,238.4L315.1,238.4z M311.6,221.5l9.8-0.3v-79l-5.1-0.9c0.9,0.3,1.6,1.1,1.7,1.1
			c2,1.6,1.9,9.7,1.9,10.2c0.1,6.8-0.6,51.2-0.3,52.7c-0.7,1.2,0.6,8.7,0.9,10.2c-1.5,1.3,0.3,4.3-2.8,4.3c-4,0-3.7,1.1-6.4,1.5
			C311.4,221.5,311.5,221.5,311.6,221.5L311.6,221.5z M319.5,128.1c-0.8-1.4,0.2-7.5,0.5-9c0-0.3,0.3-14.6-0.6-14.7
			c0,0-0.9-0.5-1.2-0.5l-11-2.3l9.8-1.9l2.5-0.6l0.4-2.4c-0.9-8.3,0.8-10.9,0-18.4c-0.1-1.2,0.6-5.5,0-9c-0.6-3.5,0.9-12-0.1-14.5
			c-0.8-1.9,1.1-30.9-0.2-33.5c-0.2-0.4-2-2.8-3-3.8l4.9,1.1v82.7l-14.2,0.5l14.2,1.1v38.1l-5.8,0.4c2.4-3.5,5.3,1.5,4.7-7.2
			C320.1,131.2,320.8,130.3,319.5,128.1L319.5,128.1z M9.3,358.2c-2.2,0.6-4.2,0.9-6.4,1.1c-0.9-0.3-1.6-0.3-1.7-2
			c0-0.7-0.4-2.5-0.4-3.1c0-1.7,0-2.2-0.1-3.8c-0.1-0.7,0.5-6.2,0.2-6.8c0,0,0-4.9,0.5-5.2c1.2-0.7,1.2-0.6,2.6-1
			c0.6-0.2,1.2-0.2,1.8-0.5L0,337.3v10.8v11.2v2.1h62.2l2.9-32.8l1.4,18.9l3.7,13.9h42l1.6-27.8l1.4,27.8h60.5l2.5-14.9l-0.1-0.4
			c-1.1,0.5-2.1,8.1-2.3,9.8c-0.5,3.2-4.3,4.8-6.4,3.9c-3.8-1.5-10.3,0.2-11.6-0.6c-1.7-1-19.5,0.9-21.4,0.4l-3.4-0.5
			c-3.6-2.1-13,0.2-16.5-1l-0.7-4.1l-1.8-20.3l-2.7,24.6c-2.8,3.1-10.2-1.7-12,0.2c-0.7,0.1-8.2,0.5-8.4,0.4c-3-1.9-6.6-0.1-8.2-0.2
			c-2.6-0.2-11.1,2.3-11.8-2.3c-0.7-4.4-2.3-7.1-3-9.5c0-0.4,0.1-1.8,0-2c-1.1-2.5-0.7-13.7-2.6-16.2l-2.2,13
			c0.3,2.4-1.4,10.1-1.4,13.6c0,8.2-5.1,1.1-8.1,3.5c-1.1,1-11.6,1.1-13,0.3c-1.7-1-19.7-1.1-21.5-0.6
			C14.9,359.6,11.7,357.5,9.3,358.2L9.3,358.2z M0,335.7v-101l12-0.9l-12-0.4V130.9l8.7-0.7c-0.6,0.3-1.3,0.6-1.9,0.7
			c-3.4,0.4-2,0-5.2,1.2c0,0.7,0,2.7,0,3.1c-0.6,5.1-0.3,11.2-0.3,16.5c0,1.5,0.8,8.7,0.7,9c0,2.2,0,7.8-0.1,9.3
			c-1,8.5,0.2,17.7-0.6,25.5c-0.5,5.1,0.3,6.9,0,10c0.7,2.7,0,16.1,0,19.5c0,4.9-0.4,7.2,2.5,7.4l8.1,1.4l-10.5,2.4
			c-0.3,0.8,0.2,8.4-0.5,11.3c-0.1,0.3,0,14.6,0,14.7c0.3,1.4,1,13.5,0.7,13.9c0,3.3,0.5,5.2,0.1,8.5c-0.4,3.1-0.3,4.9-0.4,8
			c0,1.6-0.2,2.8-0.2,4.5c0,0.1,0.4,15.2,0.4,15.2c0,1.8-0.1,3.7-0.1,5.5c0,2.3-0.7,8.5-0.3,10.1c0.4,2,0.3,1.3,0.3,3.4
			c0,0.3-0.1,2.5-0.1,2.5l0.3,0.9l4.3,2.1c0,0-0.1,0-0.1,0.1L0,335.7L0,335.7z M0,129.8l9,0.3c0.2-0.1,0.4-0.2,0.5-0.2l-5.9-1
			l-1.2-0.4l-0.9-0.7l-0.1-1.5c-0.4-3,2.6-3,5-4.5L0,123.1V129.8L0,129.8z M1.4,119.5c-0.9-2,1.6-11.2,0.1-17.3
			c-0.1-0.5-0.1-1.6-0.4-2.1c0.3-2.4,0.3-10.5,0.1-12.5C0.8,84,0.9,78.5,1.4,75c0.1-0.9,0.5-10.3,0.2-11.4c-0.8-3.6-0.3-5.9,1.6-7.9
			c0.1-0.1,0.4-0.4,0.6-0.6L0,55.9v65.6l6.5,0.5l0.3-0.2C6.7,121.8,1.4,119.6,1.4,119.5L1.4,119.5z M0,54.7v-16l4.1-0.9
			c-0.8,0.6-2,1.6-2.1,1.7c-1.5,0.1-0.9,6.1-0.9,7.8c0,6.8,0.3,5.3,2.9,7.6c0,0.1-0.1,0.2-0.2,0.3L0,54.7z"/>
	</g>
</g>
</svg>
