<?xml version="1.0" encoding="utf-8"?>
<!-- Generator: Adobe Illustrator 23.0.4, SVG Export Plug-In . SVG Version: 6.00 Build 0)  -->
<svg version="1.1" id="Laag_1" xmlns="http://www.w3.org/2000/svg" xmlns:xlink="http://www.w3.org/1999/xlink" x="0px" y="0px"
	 viewBox="0 0 403.6 786.3" style="enable-background:new 0 0 403.6 786.3;" xml:space="preserve">
<style type="text/css">
	.st0{fill:#86B9B4;}
</style>
<g>
	<path class="st0" d="M304.2,131.2c-0.9-4.2-2.6-7.9-6.6-10c-2-2.3-4.1-4.6-6.1-6.9c0,0.4,0,0.8,0,1.2c0.6,0.6,1.2,1.2,1.8,1.8
		c0.7,0.7,1.3,1.4,2,2.1c0.5,0.5,1,1.1,1.5,1.6c0.1,0.2,0.3,0.3,0.4,0.5c0.6,0.6,1.1,1.3,1.6,1.9c0.3,0.4,0.6,0.8,0.9,1.2
		c1.5,2.2,2.8,4.5,4.4,6.6C304.1,131.2,304.1,131.2,304.2,131.2c-0.1,0-0.1,0.1,0,0.1c0.5,0.7,1,1.4,1.4,2.1c0.7,1,1.4,1.9,2.1,2.9
		c0.5,0.7,1,1.4,1.5,2.2c0.1-0.2,0.3-0.3,0.6-0.4C308,135.6,308.2,131.7,304.2,131.2z M358.6,2.2c-2-1.6-6.8-2.9-6.8-1.7
		c0.4,8.4-9.4,6.3-11.3,11.8c-1.6,4.7-5.7,6.8-9.8,8.4c-27.5,10.7-55.2,21-82.7,31.7c-10.4,4-20.8,7.9-31.7,10.5
		c-10.1,2.4-17.7,13.1-12.9,17.9c6.4,6.5,2.7,11.3,0.1,16.5c-17,34.2-33.9,68.4-51.5,102.3c-13.1,25.3-27.5,49.9-47.8,70.5
		c-6.7,6.8-12.8,14.4-17.2,23.1c0.3,2.2,1.3,3,3.4,1.6c7.5-7.1,13-16.5,24.6-22.4c-5.1,17.7-9.6,33.4-14.1,49.1
		c-0.1,2.6,1.1,2.6,2.9,1.6c2-3.9,4.8-7.5,5.8-11.6c5.1-20.9,16.4-38.8,26.7-57.2c2.1-3.8,5.8-6.7,8.7-10c6.9,6.8,6.8-2.1,9.2-4.4
		c3.4-3.4,6.5-6.8,10.8-9.4c17.4-10.6,34.9-21.1,53.4-29.6c33.4-15.3,66.9-29.9,104.3-33c5.5-0.4,12.8-0.5,13.6-9.8
		c1.9-22.1,5.8-44.1,6.6-66.3c0.8-23.3,10.4-46.2,3.6-70c12.9,5.4,12.8,5.4,14.6-7.1c0.2-1.2,2.2-2.1,2.6-3.4
		C364.8,6.8,361.5,4.5,358.6,2.2z M156.7,220.3c13.5-28.9,26-58,42.7-85.1c9.5-15.5,18.2-31.4,23.2-49c3-10.5,7.2-12.2,17-7.2
		c4.5,2.3,8.2,6.7,14,6c-5.1-3.6-10.2-7.2-16.7-11.8c25.5-11.1,50.4-21.5,79.4-30.5c-17.5,17-34.4,30.2-47.2,47.4
		c-2.3,3.1-5.6,0.2-8.4,0.9c3.4,6.2,1.6,9.4-5.4,8.4c-6.6-1-13-2.7-19.6-4c-2.3-0.4-5.4-2.6-6.7,1.1c-1.4,3.8,2,5.3,4.6,6.2
		c4.5,1.6,9.2,2.8,13.8,3.9c4.7,1.1,4.8,3.1,2.2,6.8c-6,8.3-11.5,16.3-23.9,10.4c-2.6-1.2-8.7-4.3-10.1,1.6
		c-1.3,5.3,4.2,6.3,8.1,7.1c5,1.1,6.8,3.4,3.1,7.4c-5.4,5.9-6.6,17.4-19.5,13.7c-4.8-1.4-6.4,2.9-4,7.2c1.8,3.1,3.3,5.6,0.5,8.9
		c-13.5,16.2-26.8,32.6-40.3,48.7C162.3,219.9,160.3,221.3,156.7,220.3z M276.1,103.5c0.7,0.9,1.5,1.7,2.3,2.4
		c1.2,1.5,2.3,3.1,3.7,4.4c-6.4,0.5-11.2-1.5-12.8-8.4C272.3,101.3,274.4,102.1,276.1,103.5z M301.8,157.6
		c-39.5,10.2-77.8,23.3-112.3,45.8c-1.5,1-3.4,1.3-7.2,2.8c10.3-12.7,19.3-23.9,28.5-34.8c2.1-2.5,4.9-2.6,8-0.7
		c3.1,2,6.4,3.7,9.9,4.9c2.5,0.9,5.4,0.7,6.6-2.3c0.9-2.3-0.5-4.3-2.3-5.8c-2.3-1.8-4.9-3.3-7.2-5.2c-1.4-1.1-3.8-3-3.5-3.9
		c1.8-7.5,9-11.2,13-17.2c2.4-3.6,6.3-3.8,9.9-1.4c3.7,2.5,7.2,5.2,10.8,7.7c2.8,1.9,6.1,4.4,8.7,0.8c2.1-3-1-5.5-3.3-7.2
		c-3.5-2.7-7.2-5.2-11.1-7.4c-4.5-2.6-4.4-5.5-1.2-8.9c2.8-3,5.3-6.2,8.4-8.9c2.6-2.4,4.9-6.3,9.4-4.4c3.6,1.6,2.6,4.7,2.9,8.1
		c0.5,6.1,7,5.3,11.4,4.9c4.7-0.4,6.3-3.4,3-7.8c-0.7-0.9-0.2-2.8-0.2-4.2c2.1,1.6,4.3,3.2,6.4,4.8c1.5,1.7,3,3.4,4.5,5.1
		c2.6,3.1,3.3,7.7,7.6,9.3c0.6,4,3.5,6.7,5.7,9.8c1.6,4,3.1,8,7.1,10.3C312.9,158.3,306.5,156.4,301.8,157.6z M336.5,46.8
		c-3,32.8-6.1,65.6-9.1,98.5c-0.3,3.4-0.7,7.3-4.3,8.2c-3.4,0.9-4.8-2.7-6.4-5.2c-1.6-4-3.4-7.7-7.1-10.3c-1.6-2.4-1.5-6.3-5.5-6.8
		c-0.9-4.2-2.6-7.9-6.6-10c-2-2.3-4.1-4.6-6.1-6.9c-1.9-2.9-3.5-6.3-8-4.6l-0.4,0.3c1.2-7.1-8.5-7.4-8.6-13.8
		c15.5-20.6,34.6-37.6,54.7-53.5c1.6-1.3,3.1-4,5.5-2.8C337.7,41.2,336.8,44.3,336.5,46.8z M304.2,131.2c-0.9-4.2-2.6-7.9-6.6-10
		c-2-2.3-4.1-4.6-6.1-6.9c0,0.4,0,0.8,0,1.2c0.6,0.6,1.2,1.2,1.8,1.8c0.7,0.7,1.3,1.4,2,2.1c0.5,0.5,1,1.1,1.5,1.6
		c0.1,0.2,0.3,0.3,0.4,0.5c0.6,0.6,1.1,1.3,1.6,1.9c0.3,0.4,0.6,0.8,0.9,1.2c1.5,2.2,2.8,4.5,4.4,6.6
		C304.1,131.2,304.1,131.2,304.2,131.2c-0.1,0-0.1,0.1,0,0.1c0.5,0.7,1,1.4,1.4,2.1c0.7,1,1.4,1.9,2.1,2.9c0.5,0.7,1,1.4,1.5,2.2
		c0.1-0.2,0.3-0.3,0.6-0.4C308,135.6,308.2,131.7,304.2,131.2z M253.6,85.1c4,0.1,6.9,1.4,7.2,5.9L253.6,85.1z M253.6,85.1
		c4,0.1,6.9,1.4,7.2,5.9L253.6,85.1z M253.6,85.1c4,0.1,6.9,1.4,7.2,5.9L253.6,85.1z M253.6,85.1c4,0.1,6.9,1.4,7.2,5.9L253.6,85.1z
		 M253.6,85.1c4,0.1,6.9,1.4,7.2,5.9L253.6,85.1z M253.6,85.1c4,0.1,6.9,1.4,7.2,5.9L253.6,85.1z M253.6,85.1c4,0.1,6.9,1.4,7.2,5.9
		L253.6,85.1z"/>
	<path class="st0" d="M344.7,704.6c-1.8-5.6-3.6-11.3-5.5-16.9c-3.2-9.3-7.5-16-19.5-15.9c-9.3,0.1-17.6-5.4-25.1-11.1
		c-2.7-2-5.4-3.9-7.9-6.2c-2.6-2.4-9-0.6-8.4-5.6c0.6-5.1,6.4-5.6,10.6-6.6c4.6-1.1,9.4-1.3,15.6-2.1c-8.9-10.1-16.7-20.1-25.8-28.8
		c-5.3-5-12.8-1.6-19.2-0.4c-12.7,2.3-16.5,1.6-23-5.2c0.2-0.6,0.3-1.5,0.8-1.8c8.6-4.2,21.6-8.8,21.3-16.7
		c-0.4-9.9-9.6-19.4-15-29.1c-1.8-3.2-3.5-1.4-5.1,0.2c-3.8,4.1-7.5,8.2-11.2,12.3c-6.4,7.1-13.9,7.1-20.4,0.2
		c-3.3-3.5-1.7-6,0.6-8.7c4.8-5.7,8.9-12.4,14.8-16.6c10.5-7.6,13.4-16.5,9.7-28.7c-2.5-8.5-3.8-17.3-4.5-26.3
		c-0.6-8.4,1.1-17.2-3.4-27c-11.5,18.9-23.4,36.2-29.7,56.5c-0.8,2.6,0.4,4.9,1.1,7.4c1,3.7,2.6,9.2-3.1,9.9
		c-4.6,0.5-6.2-4.1-6.8-8.6c-1.2-8.7-0.3-17,3.7-24.9c7.9-15.8,17.7-31,23.3-47.7c12.3-36.9,22.5-74.5,33.4-111.8
		c3.8-13.1,2.2-26.4-0.1-39.7c-0.4-2.5-3.7-6.2,0.5-7.7c3.5-1.2,4.7,3,6.2,5.3c6.5,9.9,8.7,21.1,8.3,32.8c-0.2,7-0.6,13.9-1,22.4
		c23.3-9.9,42.3-1.2,60.6,11.4c-5.2-0.8-9.9-1.4-14.3,2.5c-2.7,2.4-6,1.4-9.4,0.1c-27.2-9.9-39.4-3.7-48.3,24.4
		c-1.2,3.8-4,7.2-2.7,11.9c30.7-23.8,71.9-21,103.8-41.7c5.8-3.7,13,0.3,19.7,0.1c-0.9,3-2.6,5-2.2,7.8c0.8,6.4-1.9,8-8.5,7.3
		c-12.6-1.3-23.9,5.2-35,9.6c-11.7,4.7-23.4,9.5-35.5,13c-36.9,10.7-62.1,38.6-54,83.7c2,10.9,3.9,21.9,5.7,32.9
		c1.3,8.1,5,9.3,11,3.9c2.5-2.3,5.3-5.7,7.3-0.2c1.8,4.9,8.9,10,1.7,15.6c-12,9.4-12.5,10.1-5.1,23.2c3.5,6.1,7.8,11.8,11.3,17.9
		c2.8,4.8,7.5,4.8,11.7,4.2c4.9-0.7,4.3-5.3,4.3-9c0-3.8-0.3-8.8,4.6-8.5c5.3,0.3,3.6,4.8,2.9,8.6c-1.8,10,0.4,19,7.3,26.8
		c1.7,2,5.6,3.1,3.7,7c-1.9,4-5.5,0-8.5,2.3c6.2,10.8,15.7,19.1,23.4,28.8c3.2,4,5.9,3.3,6.7-2.8c0.9-6.5,3.4-12.8,5.2-19.1
		c0.7-2.5,1.3-5.6,4.4-5.7c3.7-0.2,4,3.9,3.8,5.7c-2,14,6.9,28.1-0.4,42.1c-2.3,4.5,1.2,8.5,3.3,12.4c5.7,10.2,9.8,20.8,9.2,32.7
		C345.6,707.4,344.3,707.2,344.7,704.6z"/>
	<path class="st0" d="M379.9,371.4c-4.3-35.2-10.8-70.1-11.7-105.8c-0.5-18.3-2.5-18.7-19.1-10.2c-28.9,14.9-58.4,28.5-89.1,39.4
		c-1.3,0.5-2.8,1-5-1.4c10.4-6.2,20.3-12.8,30.8-18.2c23.6-12.1,46.2-26.1,68.2-40.9c6-4,8.2-3.3,12.2,1.8
		c7.9,10,11.3,21.3,12.4,33.7c2.5,29.9,5.1,59.7,7.6,89.6c0.4,5.4,1.2,11-2.1,16C379.9,376.8,379.8,374.2,379.9,371.4z"/>
	<path class="st0" d="M36.5,578.2c-10.2-1-19-0.8-27.9,0.4c-3.3,0.4-7.4,0.4-8.4-3.4c-1.1-4.1,2.8-5.8,5.8-7
		c13.8-5.4,27.8-10.2,42.7-4.4c3.2,1.2,7.2,2.2,6.6,7.5c-0.5,4.5-3.5,7.3-6.9,7.5c-8.4,0.5-9.8,6.5-11.4,12.5
		c-6.3,24.1-16.9,46.6-24.8,70.1c-1,3.1-2.1,5.6-5.8,5.5c-3.7-0.1-5.9-4.1-5.8-5.8c0.5-5-1.3-9.9,2.8-15.4
		C18.3,625.7,27,602.3,36.5,578.2z"/>
	<path class="st0" d="M344.7,704.6c1,0.7,1.9,1.3,2.9,2c-0.4,9.3,5.4,13.1,13.4,14.5c3.2,0.6,7.4-3.5,8,4.2c0.5,6.4,0.3,11-5.9,13.7
		c-4.5,1.9-9.2,3.5-14,1.7c-5.4-2-7.7-0.1-9.8,5.2c-4.8,11.6-10.7,22.8-16,34.1c-1.2,2.6-1.9,5.7-6.1,6.3c-1.5-6.3-5-10.5,3.1-17.5
		c12-10.4,16.1-26.9,16.6-43c0.2-4.7-6.9-3.7-10.9-4.9c-2-0.6-5.1-0.3-5.2-2.9c-0.1-3.2,3-3.8,5.7-3.9c1.8-0.1,3.8-0.4,5.5,0.1
		C340.7,716.9,343.9,712.5,344.7,704.6z"/>
	<path class="st0" d="M40.9,437.3c19.3-4.5,38.9-5.9,58.5,0c6.4,1.9,12.3,5.1,15.4,11.6c1.1,2.4,1.6,5.2-1.3,6.9
		c-2.4,1.5-3.8,0.3-5.2-2.1c-4.1-7-11.3-7.8-18.3-8.2c-18.5-1.1-36.6,2.8-54.7,5.6c-3.8,0.6-8.6,3.2-10.5-2.1
		c-1.7-4.9,3.9-5.5,6.6-7.5C34.1,439.6,37.5,438.8,40.9,437.3z"/>
	<path class="st0" d="M18.4,501.2c3.1-5.2,9.1-5.8,14.2-7.1c17.7-4.6,35.3-3.5,52.4,2.9c5.6,2.1,8.3,5.1,1.7,9.7
		c-3.6,2.5-6.8,5.8-10.3,8.4c-4.9,3.7-8.8,5-7.7-3.9c0.5-3.9-1.7-3.9-5.3-4.5c-13.5-2.1-27-2.1-40.6-2.6
		C20.9,504.1,19.2,503.7,18.4,501.2z"/>
	<path class="st0" d="M330.3,344.1c-6-2.6-11.5-5.2-17.2-7.5c-9.7-3.9-19.6-6.2-30.1-6.6c-6.3-0.3-9.4-4.6-8.5-10.6
		c1.1-6.9,6.5-2.9,9.8-2.6c14.5,1.4,28.2,5.5,40,14.5C328.1,334.2,331.5,337.4,330.3,344.1z"/>
	<path class="st0" d="M237.9,264.9c3.8-0.5,4.9,1,4.9,3.7c-0.2,7.5,0.2,15.1-0.7,22.5c-0.4,3-1.6,7.8-6.9,7.2
		c-5.7-0.7-11-2.9-14.4-7.6c-3-4.1,0.7-6.6,3.2-9.4C228.8,275.7,233.5,270,237.9,264.9z"/>
	<path class="st0" d="M379.9,371.4c0.8,1.8,1.7,3.6,4,4c0.4,2.2,0.1,7.1,3.8,3.3c8.8-9.1,10.4,1.9,13.6,5c3.8,3.6,2.5,9.4-1.7,12.6
		c-4.8,3.5-9.3,2.6-15-0.9C373.3,388.5,378,380,379.9,371.4z"/>
	<path class="st0" d="M345.6,318.6c-13.1-6.2-24.1-11.2-34.9-16.6c-1.8-0.9-4-2.6-3.1-5.2c0.4-1,2.2-1.6,3.6-1.9
		C322,292.7,341.9,305.2,345.6,318.6z"/>
	<path class="st0" d="M390.1,222c0.8,6.6,0.2,12.4-6.1,14.7c-7.6,2.7-10.8-3.6-13.2-8.7c-4.3-9.1,5.4-10.9,9.6-13.2
		C385.2,212.1,386.8,219.8,390.1,222z"/>
	<path class="st0" d="M359.7,195.1c0.7,4.3,1.4,9.1-3.7,10.2c-8.4,1.9-11.3-6.2-14.3-11.1c-2.3-3.7,2.8-10.6,6.6-10.8
		C354.8,183.1,356.5,190.6,359.7,195.1z"/>
	<path class="st0" d="M186,57.2c1.1,3.9,1.5,9.5-4.4,11.8c-5.6,2.2-8.9-2.1-10.4-7.1c-1.6-5.4-0.8-11,4.9-13
		C181.1,47,184,51.1,186,57.2z"/>
	<path class="st0" d="M197.8,50.7c5-1.5,7.3,0.8,8.1,4.4c1.3,5.7,0.9,11.4-4.8,14.5c-4,2.1-7.9-0.6-8.9-4
		C190.4,59.4,193.7,54.3,197.8,50.7z"/>
	<path class="st0" d="M346.8,180c-4.3-1.5-11.9,1.6-13.3-3.5c-1.1-4.2,4.2-10.3,8.6-12.1c4.3-1.7,7.6,3.2,8.8,7.7
		C351.8,175.5,351.4,178.7,346.8,180z"/>
	<path class="st0" d="M331.1,276.7c-2.3-5.3-1.6-9.1,2.1-10.9c5.4-2.5,0.9,4.6,4.1,4.9c0.6,0.1,1.2,0.9,1.8,1.2
		c4.7,2.3,7.6,5.8,6.8,11.2c-0.3,2.1-2.8,1.9-4.7,1.8C335,284.9,333,279.8,331.1,276.7z"/>
	<path class="st0" d="M100.7,321.4c1,0.5,2,1,2.9,1.6c0.4,8.3-2.4,15.3-9.1,24.1C95.7,336.5,97.7,328.8,100.7,321.4z"/>
	<path class="st0" d="M86.9,293.1c1.1,0.5,2.3,1.1,3.4,1.6c-2.3,4.9-4.6,9.9-9.7,14.4C79.7,301.9,83.3,297.5,86.9,293.1z"/>
	<path class="st0" d="M93.2,359.5c-2.7-3.2-1.1-5.5-0.1-7.6c0.1-0.3,2.6,0,2.7,0.3C96.4,354.8,95.6,357,93.2,359.5z"/>
	<path class="st0" d="M315.2,151.7c-4.1-2.2-5.5-6.3-7.1-10.3c-2.2-3.1-5.1-5.8-5.7-9.8c-4.4-1.6-5-6.2-7.6-9.3
		c-1.5-1.7-3-3.4-4.5-5.1c-2.1-1.6-4.3-3.2-6.4-4.8l0,0c1.8-0.5,3.2-0.1,4.5,0.6c1,0.6,1.9,1.4,2.8,2.1c0,0,0,0,0,0
		c0.1,0.1,0.2,0.2,0.3,0.3c0.6,0.6,1.2,1.2,1.8,1.8c0.7,0.7,1.3,1.4,2,2.1c0.5,0.5,1,1.1,1.5,1.6c0.1,0.2,0.3,0.3,0.4,0.5
		c0.6,0.6,1.1,1.3,1.6,1.9c0.3,0.4,0.6,0.8,0.9,1.2c1.5,2.2,2.8,4.5,4.4,6.6c0,0,0,0.1,0.1,0.1c0,0,0,0.1,0,0.1
		c0.5,0.7,1,1.4,1.4,2.1c0.7,1,1.4,1.9,2.1,2.9c0.5,0.7,1,1.4,1.5,2.2c0.1,0.1,0.2,0.2,0.2,0.3c0.3,0.5,0.6,0.9,0.9,1.4
		c1.1,1.6,2,3.3,2.8,5C313.9,147.3,314.5,149.5,315.2,151.7z"/>
	<path class="st0" d="M283.1,109.9c-0.6-0.5-1.2-1.1-1.8-1.6c0,0,0,0,0,0c-0.9-0.8-1.9-1.6-2.8-2.4c-0.9-0.8-1.6-1.5-2.3-2.4
		c-0.5-0.7-0.9-1.4-1.2-2.2c-0.6-1.4-0.8-3.1-0.4-5.2C274.5,102.5,284.3,102.8,283.1,109.9z"/>
	<path class="st0" d="M316.7,148.3c-1.4-0.9-2.7-1.9-3.7-3.1c-1.6-1.7-2.8-3.6-4.1-5.6c-0.1-0.2-0.2-0.3-0.3-0.5
		c0,0-0.1-0.1-0.1-0.1c-1.8-2.3-3-5-4.7-7.3c-0.1-0.1-0.1-0.2-0.2-0.3c0,0,0,0,0-0.1c-2.7-2.8-3.8-7-7.3-9.2
		c-0.1-0.1-0.2-0.2-0.3-0.4c-0.2-0.2-0.3-0.4-0.5-0.7c-1.4-1.8-2.6-3.7-4.2-5.3c-0.1-0.1-0.3-0.3-0.4-0.4c-0.9-0.8-1.7-1.7-2.6-2.5
		c-1.5-1.4-3-2.6-4.9-3.5c4.5-1.7,6.1,1.8,8,4.6c2,2.3,4.1,4.6,6.1,6.9c4,2.1,5.7,5.8,6.6,10c4,0.5,3.9,4.4,5.5,6.8
		C313.3,140.6,315.2,144.3,316.7,148.3z"/>
	<path class="st0" d="M253.6,85.1c4,0.1,6.9,1.4,7.2,5.9L253.6,85.1z"/>
	<path class="st0" d="M253.6,85.1c4,0.1,6.9,1.4,7.2,5.9L253.6,85.1z"/>
	<path class="st0" d="M282.1,110.3c-1.4-1.3-2.5-2.9-3.7-4.4c-0.9-0.8-1.6-1.5-2.3-2.4c-1.7-1.4-3.8-2.2-6.9-1.5
		c2.3-0.8,4.1-1,5.6-0.6c3.2,0.7,4.9,3.6,6.4,7c0,0,0,0,0,0C281.6,109,281.8,109.6,282.1,110.3z"/>
	<path class="st0" d="M283.1,109.9l-1,0.4c-1.4-1.3-2.5-2.9-3.7-4.4c-0.7-0.9-1.5-1.7-2.3-2.4c-1.7-1.4-3.8-2.2-6.9-1.5
		c1.7-1.9,3.5-3.9,5.2-5.8C274.5,102.5,284.3,102.8,283.1,109.9z"/>
	<path class="st0" d="M316.7,148.3c-0.5,1.1-1,2.3-1.5,3.4c-4.1-2.2-5.5-6.3-7.1-10.3c0.3-0.7,0.3-1.5,0.6-2.3
		c0.1-0.3,0.2-0.5,0.5-0.7c0.1-0.2,0.3-0.3,0.6-0.4C313.3,140.6,315.2,144.3,316.7,148.3z"/>
	<path class="st0" d="M291.5,114.3c0,0.4,0,0.8,0,1.2c0,0.1,0,0.3-0.1,0.5c-0.1,0.5-0.4,1-1.1,1.3c-2.1-1.6-4.3-3.2-6.4-4.8l0,0
		c-0.1-1-0.3-1.9-0.4-2.8C288,107.9,289.6,111.4,291.5,114.3z"/>
	<path class="st0" d="M304.2,131.2c0,0,0,0.1,0,0.1c-0.1,0.2-0.2,0.3-0.3,0.4c-0.4,0.4-0.9,0.4-1.5-0.1c-4.4-1.6-5-6.2-7.6-9.3
		c0.2-0.6,0.4-0.9,0.8-1.2c0.3-0.3,0.7-0.4,1.2-0.3c0.3,0.1,0.5,0.2,0.8,0.3C301.6,123.3,303.3,127,304.2,131.2z"/>
	<path class="st0" d="M309.7,138.1c-0.1,0.3-0.2,0.5-0.4,0.8c-0.1,0.3-0.2,0.5-0.4,0.8c-0.3,0.6-0.6,1.2-0.8,1.8
		c-2.2-3.1-5.1-5.8-5.7-9.8c0.4,0,0.9-0.1,1.3-0.2c0.1,0,0.3-0.1,0.4-0.2c0,0,0.1,0,0.1,0C308.2,131.7,308,135.6,309.7,138.1z"/>
	<path class="st0" d="M297.6,121.2c-0.1,0.1-0.3,0.1-0.4,0.2c-0.4,0.1-0.7,0.3-1.1,0.5c-0.4,0.2-0.9,0.3-1.3,0.5
		c-1.5-1.7-3-3.4-4.5-5.1c0.2-0.6,0.5-1.1,0.7-1.7c0.1-0.1,0.1-0.2,0.2-0.4c0.1-0.3,0.2-0.6,0.3-0.9
		C293.5,116.6,295.5,118.9,297.6,121.2z"/>
</g>
</svg>
