<?xml version="1.0" standalone="no"?>
<!DOCTYPE svg PUBLIC "-//W3C//DTD SVG 20010904//EN"
 "http://www.w3.org/TR/2001/REC-SVG-20010904/DTD/svg10.dtd">
<svg version="1.0" xmlns="http://www.w3.org/2000/svg"
 width="1572.000000pt" height="1572.000000pt" viewBox="0 0 1572.000000 1572.000000"
 preserveAspectRatio="xMidYMid meet">
<metadata>
Created by potrace 1.11, written by Peter Selinger 2001-2013
</metadata>
<g transform="translate(0.000000,1572.000000) scale(0.100000,-0.100000)"
fill="#000000" stroke="none">
<path d="M10869 15719 c0 -2 -3 -17 -5 -33 -8 -49 -35 -83 -83 -108 -25 -13
-49 -22 -53 -20 -4 1 -8 -1 -8 -6 0 -4 -13 -13 -29 -20 -19 -9 -38 -32 -58
-69 -46 -91 -86 -116 -374 -227 -140 -54 -258 -99 -264 -101 -5 -1 -21 -7 -35
-13 -33 -15 -212 -84 -225 -87 -5 -1 -19 -6 -30 -10 -11 -4 -51 -20 -90 -35
-38 -15 -113 -44 -165 -65 -52 -20 -101 -39 -110 -40 -8 -2 -44 -15 -80 -30
-36 -14 -112 -44 -170 -66 -58 -21 -114 -43 -125 -48 -48 -21 -399 -152 -495
-184 -124 -42 -263 -83 -345 -103 -13 -3 -73 -31 -103 -49 -41 -22 -114 -107
-137 -157 -19 -40 -21 -56 -14 -89 5 -22 20 -50 32 -62 41 -39 68 -108 62
-158 -4 -31 -117 -268 -377 -789 -204 -410 -379 -756 -388 -770 -10 -14 -18
-29 -18 -33 -1 -8 -70 -147 -135 -270 -20 -37 -37 -70 -37 -72 -1 -15 -35 -75
-42 -75 -4 0 -8 -7 -8 -16 0 -9 -10 -33 -22 -53 -13 -20 -23 -38 -23 -41 0 -3
-26 -53 -58 -111 -31 -59 -57 -112 -57 -118 0 -6 -3 -11 -8 -11 -4 0 -14 -15
-21 -32 -8 -18 -36 -71 -63 -117 -26 -46 -48 -85 -48 -87 0 -6 -184 -310 -199
-329 -9 -11 -22 -31 -30 -45 -22 -40 -179 -259 -245 -340 -82 -103 -113 -138
-232 -265 -150 -160 -161 -173 -223 -255 -31 -41 -59 -76 -63 -78 -5 -2 -8 -9
-8 -15 0 -6 -6 -18 -14 -26 -7 -9 -24 -36 -37 -61 -13 -25 -40 -65 -60 -90
-55 -68 -99 -152 -105 -201 -11 -90 -5 -105 29 -69 50 56 89 112 120 173 34
68 120 170 294 349 59 61 185 156 225 171 14 5 15 2 6 -26 -5 -18 -11 -36 -12
-42 -1 -5 -9 -30 -16 -55 -7 -25 -14 -49 -16 -55 -1 -5 -16 -59 -34 -120 -17
-60 -33 -117 -35 -125 -9 -34 -46 -166 -51 -180 -3 -8 -5 -16 -5 -17 0 -2 -6
-21 -14 -43 -8 -22 -14 -41 -14 -43 2 -4 -22 -91 -28 -107 -3 -8 -8 -23 -9
-32 -6 -28 -56 -172 -63 -183 -7 -10 -47 -141 -55 -180 -2 -11 -7 -31 -10 -45
-8 -35 -16 -79 -22 -120 -2 -19 -7 -47 -10 -62 -9 -44 9 -33 47 28 18 31 40
62 47 69 6 8 12 17 12 22 0 4 6 20 14 35 12 22 38 90 41 108 10 48 16 93 17
125 0 28 16 68 54 135 29 52 58 115 65 140 7 25 13 47 14 50 1 3 7 25 14 50 6
25 17 59 24 75 6 17 12 32 12 35 6 48 139 340 245 535 190 349 244 435 320
517 l76 81 38 -26 c52 -35 73 -25 114 53 29 57 76 109 170 192 28 24 318 208
328 208 3 0 28 16 57 35 28 19 55 35 59 35 4 0 37 18 75 41 85 51 85 51 158
90 33 17 62 34 65 38 3 3 50 29 105 56 55 28 103 54 106 58 3 5 10 8 15 8 5 0
52 20 104 46 52 25 95 45 95 44 0 -1 37 16 83 39 45 22 85 40 87 40 3 0 35 14
72 32 38 17 73 33 78 34 6 2 62 25 125 53 63 27 126 54 140 60 14 5 43 17 65
26 140 57 491 183 562 200 10 3 68 19 128 35 95 26 298 74 360 85 34 6 98 16
135 21 19 2 53 7 75 10 44 7 79 11 175 18 78 7 105 12 145 27 40 16 92 75 99
113 3 17 8 41 10 54 3 12 8 57 11 100 4 42 9 91 10 107 2 17 6 57 9 90 3 33 8
71 10 85 3 14 8 50 11 80 4 30 8 66 10 80 2 14 7 54 10 90 4 36 9 73 11 83 3
16 12 107 19 197 3 33 8 85 20 205 2 28 7 106 11 175 6 133 7 149 20 250 4 36
8 77 8 93 1 15 5 27 9 27 5 0 6 3 4 8 -3 4 1 39 8 77 7 39 16 90 19 115 3 25
8 54 10 65 2 11 7 40 11 65 3 25 9 57 11 72 18 112 25 384 12 463 -10 61 -28
154 -34 177 -6 21 -1 20 101 -23 11 -5 39 -13 63 -18 35 -7 46 -6 66 10 14 11
27 32 30 47 12 55 17 78 22 117 3 22 17 51 29 65 62 66 20 163 -99 229 -32 18
-105 38 -107 30z m-343 -802 c36 -13 41 -39 29 -167 -10 -107 -12 -124 -20
-225 -4 -49 -9 -98 -10 -107 -5 -26 -19 -189 -20 -225 0 -18 -2 -33 -5 -33 -3
0 -5 -19 -6 -43 -1 -40 -8 -130 -19 -227 -2 -25 -7 -74 -10 -110 -8 -101 -14
-161 -20 -215 -2 -27 -7 -84 -11 -125 -3 -41 -7 -93 -10 -115 -3 -22 -7 -67
-10 -100 -3 -33 -7 -78 -10 -100 -2 -22 -6 -62 -8 -90 -4 -57 -16 -182 -21
-239 -10 -91 -49 -146 -104 -146 -39 0 -73 40 -126 148 -25 51 -65 114 -88
140 -24 26 -54 68 -66 94 -14 29 -36 56 -57 68 -19 12 -32 25 -30 29 12 19
-42 103 -107 166 -80 78 -121 123 -157 175 -41 59 -86 84 -127 69 -13 -5 -22
-5 -21 -1 1 4 -1 21 -4 38 -5 21 -30 51 -82 98 -43 38 -76 76 -76 86 0 10 -5
22 -10 25 -9 5 27 57 75 111 6 6 24 28 40 50 17 21 39 48 50 60 151 171 284
306 429 439 54 50 105 97 114 106 10 8 71 60 137 115 66 54 122 102 123 107 2
4 7 7 12 7 8 0 22 12 131 107 48 41 55 43 95 30z m-462 -135 c-50 -48 -118
-111 -150 -141 -250 -227 -466 -439 -559 -546 -33 -39 -63 -72 -66 -75 -3 -3
-25 -31 -48 -62 -24 -32 -51 -60 -62 -63 -11 -4 -43 -3 -72 0 -49 6 -55 10
-65 39 -17 47 -51 74 -102 82 -52 8 -52 9 44 -69 68 -55 87 -86 89 -141 2 -78
-69 -92 -258 -51 -44 10 -89 19 -100 21 -42 6 -159 33 -199 45 -55 17 -84 11
-99 -18 -7 -16 -13 -35 -12 -43 1 -8 3 -22 3 -31 3 -23 102 -72 192 -95 191
-47 241 -64 249 -87 11 -30 -22 -100 -71 -149 -10 -10 -18 -21 -18 -25 0 -12
-71 -85 -110 -114 -50 -36 -93 -51 -147 -51 -62 0 -95 8 -161 38 -31 14 -76
29 -100 34 -43 8 -48 6 -73 -21 -34 -37 -41 -81 -17 -119 10 -17 19 -30 20
-30 2 0 28 -9 58 -20 30 -11 63 -20 72 -20 29 0 87 -33 94 -53 7 -23 -2 -61
-19 -79 -21 -23 -61 -81 -102 -148 -69 -115 -121 -152 -214 -152 -31 0 -66 4
-79 9 -13 5 -38 7 -57 5 -26 -3 -35 -10 -41 -30 -14 -50 -12 -67 18 -127 17
-33 31 -74 31 -92 1 -30 -28 -82 -71 -129 -16 -18 -208 -247 -225 -269 -4 -5
-17 -21 -28 -35 -12 -14 -38 -45 -58 -70 -20 -25 -41 -49 -47 -55 -5 -5 -28
-32 -49 -60 -21 -27 -93 -115 -159 -195 -67 -80 -128 -153 -136 -163 -66 -81
-97 -108 -132 -114 -20 -3 -45 -3 -54 1 -15 6 -16 8 0 24 9 10 16 26 16 35 0
9 5 19 10 22 6 4 8 11 5 16 -4 5 -1 9 4 9 6 0 11 4 11 9 0 5 14 40 32 78 18
37 33 70 33 73 1 3 16 35 33 73 18 37 45 95 61 130 90 197 345 716 413 842 93
170 112 203 232 404 68 113 138 233 156 266 39 69 170 331 170 339 0 3 11 29
24 58 13 29 29 71 36 93 7 22 17 46 23 53 5 6 7 12 4 12 -3 0 1 17 9 37 9 20
18 46 21 57 2 12 5 26 7 31 2 6 6 23 11 38 13 50 52 121 78 146 60 55 164 38
305 -49 104 -64 142 -82 187 -87 l40 -5 -27 26 c-15 14 -30 26 -33 26 -6 0
-60 36 -81 55 -6 6 -50 37 -97 70 -47 32 -84 61 -82 64 8 7 299 132 319 136
10 2 23 8 30 13 6 4 45 21 86 37 41 16 84 35 95 42 11 7 25 13 33 13 7 0 32 9
55 19 39 18 183 74 387 151 123 47 480 169 480 165 0 -3 19 4 43 15 23 10 44
19 47 19 3 0 -36 -39 -86 -87z m-743 -1112 c11 0 99 -94 99 -105 0 -6 9 -16
20 -23 58 -36 -51 -38 -124 -2 -34 16 -50 33 -72 76 -33 63 -26 77 35 63 20
-5 39 -9 42 -9z m-157 -180 c39 -14 55 -49 60 -130 5 -70 8 -77 38 -102 32
-28 52 -32 138 -30 79 3 104 10 128 37 27 32 28 51 2 92 -21 35 -33 103 -18
103 18 0 124 -88 171 -142 26 -29 64 -81 83 -116 20 -34 53 -77 74 -93 21 -17
41 -42 45 -57 6 -25 55 -101 87 -136 10 -11 23 -34 29 -53 19 -58 60 -123 95
-151 41 -33 42 -41 7 -77 -40 -39 -67 -48 -188 -59 -22 -2 -94 -18 -160 -36
-66 -18 -127 -34 -135 -35 -8 -1 -22 -5 -30 -8 -22 -8 -89 -29 -103 -31 -98
-19 -706 -226 -852 -290 -63 -27 -144 -58 -151 -56 -4 1 -10 -2 -13 -7 -6 -8
-114 -60 -115 -55 -1 3 -340 -169 -416 -212 -36 -20 -73 -39 -82 -43 -10 -3
-18 -9 -18 -14 0 -5 -4 -9 -9 -9 -8 0 -89 -48 -174 -102 -46 -30 -83 -48 -109
-53 -9 -2 -26 -9 -37 -15 -12 -6 -21 -8 -21 -4 0 11 73 104 82 104 4 0 8 6 8
14 0 8 3 16 8 18 4 2 24 24 45 50 21 26 43 53 50 60 7 7 24 29 38 48 15 19 35
45 45 56 11 12 33 39 49 60 17 21 40 49 52 63 13 15 26 31 30 36 5 6 34 41 65
78 32 38 64 76 70 86 44 60 109 66 189 18 70 -42 117 -64 183 -86 52 -17 55
-17 89 1 28 14 38 26 43 52 9 52 -17 87 -121 160 -49 35 -102 77 -116 94 -25
27 -26 31 -14 66 19 54 54 102 132 181 38 39 86 92 108 118 85 106 124 101
320 -38 150 -107 205 -137 225 -125 8 5 17 7 20 5 3 -2 16 12 29 31 21 30 22
37 11 64 -7 16 -26 41 -44 55 -66 53 -143 108 -206 145 -106 62 -131 99 -103
153 18 37 38 60 158 185 133 140 164 157 229 132z"/>
<path d="M7334 14736 c-40 -18 -87 -79 -89 -117 -1 -16 -4 -31 -7 -34 -9 -10
18 -118 40 -160 30 -56 42 -69 79 -84 75 -31 176 20 199 100 14 48 -1 131 -37
207 -45 94 -105 122 -185 88z"/>
<path d="M7794 14706 c-67 -29 -134 -154 -128 -236 5 -62 7 -71 28 -103 33
-49 93 -64 157 -39 33 13 87 77 98 117 11 38 7 137 -8 191 -17 64 -86 97 -147
70z"/>
<path d="M10621 12404 c-60 -40 -117 -122 -124 -177 -4 -31 0 -42 24 -66 26
-27 33 -29 121 -30 51 -1 102 -3 113 -5 25 -4 73 23 87 48 17 32 10 100 -16
157 -50 111 -115 134 -205 73z"/>
<path d="M10764 12043 c-61 -31 -113 -105 -114 -160 0 -25 79 -173 92 -173 4
0 8 -5 8 -11 0 -14 45 -55 80 -73 34 -18 119 -17 152 2 36 21 50 57 47 123 -2
44 -11 71 -55 149 -29 52 -62 103 -73 112 -49 42 -97 52 -137 31z"/>
<path d="M11440 11428 c-173 -77 -213 -110 -215 -175 -4 -93 92 -245 170 -270
82 -26 185 24 222 107 17 38 21 188 6 199 -5 3 -28 32 -51 63 -41 56 -77 89
-97 87 -5 0 -21 -5 -35 -11z"/>
<path d="M11000 11083 c-22 -7 -64 -27 -70 -33 -3 -3 -99 -67 -215 -141 -299
-193 -328 -212 -350 -224 -11 -7 -99 -59 -195 -117 -96 -58 -202 -120 -235
-138 -33 -18 -76 -42 -95 -53 -71 -40 -207 -113 -275 -147 -39 -19 -72 -37
-75 -40 -3 -3 -34 -20 -70 -39 -36 -18 -72 -39 -80 -45 -8 -7 -32 -21 -52 -31
-21 -11 -38 -23 -38 -27 0 -5 -6 -8 -13 -8 -7 0 -31 -13 -53 -30 -21 -16 -43
-30 -48 -30 -5 0 -24 -11 -43 -26 -18 -14 -33 -22 -33 -19 0 3 -6 1 -12 -5 -7
-6 -37 -26 -67 -44 l-55 -34 33 -20 c34 -21 45 -19 151 25 8 3 19 5 24 4 4 -1
13 2 20 7 6 5 29 15 51 22 22 7 45 16 50 20 6 4 35 15 65 25 30 10 60 21 65
25 6 3 33 15 60 25 28 9 64 23 80 31 17 7 59 25 95 40 36 14 83 34 105 45 22
10 69 30 105 44 36 15 112 49 169 76 57 27 105 49 106 49 2 0 56 25 120 55 63
30 120 55 125 55 6 0 10 4 10 10 0 5 3 9 8 8 4 -1 68 28 142 64 74 37 139 67
144 67 5 0 12 4 15 9 7 12 302 155 351 171 19 6 49 9 65 7 17 -2 35 -4 40 -5
14 -1 49 -60 41 -68 -3 -4 -2 -11 3 -17 11 -13 20 -110 27 -296 9 -224 20
-386 40 -570 11 -104 13 -125 19 -179 3 -30 8 -68 10 -85 8 -60 17 -131 21
-165 3 -33 8 -70 19 -141 3 -19 7 -51 10 -70 9 -80 16 -136 20 -150 2 -8 7
-40 10 -70 6 -51 9 -70 20 -140 2 -14 7 -47 10 -75 3 -27 7 -57 10 -65 2 -8 7
-42 9 -75 3 -33 8 -70 10 -83 7 -33 19 -143 18 -167 0 -23 -9 -62 -16 -73 -3
-5 -8 -22 -11 -38 -2 -16 -8 -42 -12 -59 -22 -99 5 -200 70 -259 143 -129 304
-146 394 -42 62 69 67 150 15 215 -15 20 -43 60 -61 90 -18 30 -40 61 -48 70
-22 22 -84 20 -115 -4 -14 -11 -42 -33 -63 -50 -36 -28 -38 -28 -51 -10 -15
20 -19 77 -6 89 4 4 7 11 8 14 0 4 7 21 14 37 20 45 18 229 -5 470 -4 33 -8
85 -10 115 -8 100 -14 164 -20 225 -7 74 -13 148 -20 240 -3 39 -7 95 -10 125
-3 30 -8 87 -10 125 -3 39 -7 86 -10 105 -2 19 -7 73 -10 120 -4 47 -8 101 -9
120 -2 19 -7 71 -10 115 -4 44 -9 105 -12 135 -3 30 -7 78 -9 105 -7 97 -16
157 -41 285 -21 106 -94 270 -166 376 -89 131 -138 167 -198 147z"/>
<path d="M8593 10423 c-13 -2 -23 -8 -23 -12 0 -4 -34 -48 -76 -97 -42 -49
-97 -113 -123 -143 -25 -30 -63 -73 -84 -95 -80 -87 -83 -125 -14 -199 85 -89
261 -147 327 -107 68 41 79 99 84 420 2 131 -1 182 -11 203 -7 15 -18 27 -22
27 -5 0 -15 2 -23 4 -7 2 -23 1 -35 -1z"/>
<path d="M10478 10395 c-64 -43 -69 -116 -18 -220 53 -106 101 -143 193 -150
74 -6 95 10 94 72 -1 80 -41 134 -144 194 -51 29 -53 32 -53 74 0 37 -11 55
-33 55 -2 0 -19 -11 -39 -25z"/>
<path d="M10011 9809 c-64 -39 -36 -97 74 -149 33 -15 114 -54 180 -85 66 -32
163 -77 215 -102 52 -25 131 -62 175 -83 44 -21 81 -37 83 -35 7 6 -44 104
-81 155 -92 125 -252 240 -412 295 -74 26 -195 28 -234 4z"/>
<path d="M8753 9780 c-40 -16 -47 -47 -22 -105 15 -36 15 -38 23 -95 4 -25 9
-52 11 -60 2 -8 7 -43 10 -78 4 -35 9 -73 11 -85 9 -42 6 -302 -5 -367 -16
-98 -18 -103 -57 -239 -20 -69 -37 -130 -38 -136 -2 -5 -11 -36 -20 -69 -10
-32 -19 -64 -20 -70 -2 -13 -25 -83 -33 -106 -4 -8 -7 -22 -8 -30 -1 -13 -10
-46 -58 -200 -6 -19 -12 -40 -13 -46 -1 -6 -21 -76 -44 -155 -23 -79 -43 -150
-45 -159 -2 -8 -8 -27 -14 -42 -6 -16 -8 -28 -5 -28 2 0 0 -9 -6 -19 -5 -11
-16 -43 -24 -73 -18 -65 -38 -131 -66 -223 -12 -38 -22 -74 -24 -80 -1 -5 -9
-30 -16 -55 -7 -25 -14 -49 -16 -55 -3 -12 -64 -203 -154 -480 -93 -287 -143
-401 -318 -725 -83 -154 -108 -201 -164 -310 -32 -63 -63 -133 -69 -155 -6
-22 -11 -40 -11 -40 0 0 -5 -26 -13 -57 -13 -58 -13 -246 0 -318 12 -63 46
-121 79 -135 40 -17 85 -8 113 21 18 20 21 33 18 76 -2 29 -12 81 -23 115 -19
61 -22 129 -6 154 5 8 9 20 11 28 7 50 184 439 205 452 5 3 8 8 6 10 -1 3 34
67 80 144 99 168 100 169 135 223 15 24 27 45 27 48 0 3 18 32 40 66 23 33 48
74 56 89 8 16 19 29 23 29 10 0 33 -65 51 -147 6 -28 13 -127 16 -220 2 -92 6
-190 9 -218 17 -176 19 -189 61 -394 3 -13 9 -32 15 -43 5 -10 7 -18 4 -18 -3
0 -1 -9 5 -20 14 -26 20 -69 24 -164 6 -134 -31 -224 -138 -333 -34 -35 -64
-63 -69 -63 -15 0 -102 -83 -154 -146 -75 -90 -183 -231 -194 -251 -35 -65 68
-189 176 -211 106 -22 183 14 291 133 38 43 108 118 155 167 97 101 106 103
150 31 12 -21 53 -84 91 -140 37 -57 68 -107 68 -112 0 -5 4 -11 8 -13 12 -4
79 -126 98 -178 22 -61 26 -157 9 -191 -18 -35 -78 -91 -135 -127 -49 -30
-235 -122 -249 -122 -4 0 -16 -9 -26 -20 -16 -18 -16 -21 -1 -44 21 -34 99
-86 150 -101 41 -13 175 -13 231 -2 32 7 90 18 115 21 8 1 22 5 30 8 30 12 66
19 131 25 111 9 169 -31 358 -246 31 -36 67 -77 81 -92 14 -14 34 -37 45 -50
11 -13 59 -71 108 -128 48 -57 86 -106 83 -109 -3 -2 -22 -6 -43 -8 -54 -4
-203 -23 -233 -30 -14 -3 -36 -7 -50 -10 -82 -18 -130 -35 -130 -44 0 -6 -6
-10 -14 -10 -14 0 -33 -36 -40 -77 -6 -31 28 -70 66 -76 64 -9 80 -16 126 -55
163 -133 365 -265 442 -287 3 -1 12 -4 20 -7 44 -16 91 -25 145 -27 70 -3 111
-7 145 -16 14 -3 30 -7 35 -9 61 -15 146 -95 186 -177 24 -47 52 -114 55 -129
0 -3 3 -12 7 -20 3 -8 27 -80 52 -160 44 -140 47 -157 32 -230 -10 -49 -74
-120 -109 -121 -13 0 -30 -2 -38 -3 -8 -2 -36 2 -61 8 -59 15 -168 13 -209 -4
-34 -14 -52 -46 -43 -78 4 -17 15 -24 63 -37 3 -1 39 -7 80 -14 116 -19 147
-29 162 -54 23 -35 12 -177 -28 -382 -12 -58 -56 -180 -91 -250 -52 -103 -87
-150 -182 -247 -95 -97 -111 -123 -117 -182 -4 -43 32 -186 48 -186 14 0 51
24 69 45 10 11 39 67 65 125 27 58 53 108 59 112 5 4 7 8 3 8 -4 0 17 47 47
105 29 58 54 108 54 110 1 3 19 42 40 87 35 75 64 139 93 208 31 73 65 118 92
121 49 6 63 6 76 -1 8 -4 29 -10 45 -13 17 -3 40 -8 52 -11 32 -7 147 20 206
48 99 47 119 80 125 201 6 134 -13 172 -83 166 -54 -5 -93 -4 -120 1 -45 8
-130 54 -160 85 -51 54 -59 90 -69 308 -6 115 -37 243 -93 373 -20 48 -40 92
-45 98 -13 18 -67 116 -95 173 -32 67 -32 109 2 184 13 31 27 69 31 84 10 45
13 217 3 266 -4 25 -10 62 -13 83 -3 22 -8 50 -10 63 -12 55 -19 143 -21 246
-2 154 -2 153 -32 168 -16 7 -32 13 -38 12 -29 -3 -53 -18 -63 -38 -11 -22
-64 -184 -62 -189 0 -2 -8 -28 -19 -59 -10 -31 -27 -92 -36 -135 -29 -142 -36
-161 -60 -174 -31 -17 -45 -6 -138 102 -69 81 -175 201 -224 254 -35 38 -148
186 -172 226 -27 45 -19 52 58 49 62 -1 72 3 90 37 19 36 7 61 -54 122 -31 29
-71 79 -90 110 -35 57 -75 164 -81 215 -6 48 -5 177 2 210 23 116 21 158 -9
177 -23 15 -93 9 -109 -9 -24 -27 -28 -52 -30 -153 -1 -150 -22 -177 -138
-181 -88 -4 -145 26 -187 99 -15 26 -37 61 -49 77 -13 17 -29 41 -36 55 -7 14
-38 63 -68 110 -30 47 -61 94 -67 105 -7 11 -31 57 -54 102 -73 149 -57 191
126 338 54 43 64 53 81 87 21 41 13 76 -41 168 -25 42 -45 81 -45 86 0 6 -10
20 -21 33 -27 29 -57 22 -103 -24 -20 -19 -40 -35 -46 -35 -5 0 -10 -4 -10 -8
0 -12 -70 -41 -95 -40 -11 0 -26 5 -33 11 -16 13 -42 61 -48 90 -7 33 -63 357
-69 397 -2 19 -7 46 -10 60 -10 45 -28 144 -40 218 -3 17 -7 44 -10 60 -14 85
-18 131 -20 264 -2 149 9 255 42 393 4 17 7 32 8 35 0 3 5 19 12 35 15 39 25
69 23 73 0 1 7 16 15 32 8 16 14 31 13 32 -2 2 7 17 20 35 12 17 22 35 22 40
0 14 117 180 159 226 20 22 54 57 76 78 38 35 51 47 105 92 53 44 175 120 271
169 57 28 104 51 104 49 0 -1 27 10 60 24 33 15 61 26 63 26 1 -1 62 17 135
40 180 57 512 180 709 263 21 9 40 16 43 17 2 0 40 16 82 35 87 40 185 77 283
106 50 16 100 21 221 23 96 1 164 7 178 14 30 17 43 54 45 136 2 44 9 84 21
107 10 21 17 40 14 42 -2 2 -29 7 -60 10 -31 4 -67 9 -80 12 -13 3 -59 8 -102
11 -84 6 -113 -2 -182 -48 -51 -34 -245 -131 -310 -154 -27 -10 -54 -21 -60
-25 -10 -7 -188 -67 -222 -75 -10 -3 -65 -18 -123 -35 -85 -25 -311 -87 -380
-105 -8 -2 -15 -4 -15 -5 0 -1 -11 -3 -24 -6 -66 -12 -305 -91 -441 -146 -91
-36 -234 -107 -315 -157 -67 -40 -67 -40 -112 -77 -28 -22 -34 -23 -39 -10
-11 29 2 97 30 161 10 22 30 76 46 120 15 44 39 105 54 136 14 31 26 61 26 67
0 7 5 12 10 12 6 0 10 5 10 11 0 19 69 115 116 161 51 51 120 92 186 111 53
16 191 19 266 5 32 -5 66 -11 77 -13 11 -2 20 -4 20 -5 0 -1 7 -3 15 -5 8 -1
64 -19 123 -39 140 -47 200 -49 232 -10 37 45 148 70 240 53 l40 -7 -30 24
c-40 32 -218 138 -275 163 -25 11 -49 23 -53 27 -4 5 -15 9 -24 10 -10 2 -26
7 -38 13 -37 18 -140 50 -180 57 -22 3 -43 8 -47 10 -4 3 -52 7 -107 9 -83 4
-174 -2 -261 -18 -36 -7 -137 -40 -163 -54 l-29 -15 7 154 c15 324 9 572 -17
621 -5 10 -7 21 -4 24 3 3 1 13 -4 23 -5 9 -11 28 -13 41 -7 37 -67 168 -104
226 -18 29 -33 56 -33 60 -1 13 -34 49 -57 62 -25 13 -21 12 -50 1z"/>
<path d="M9358 9404 c-39 -20 -55 -103 -33 -168 22 -63 67 -100 135 -109 19
-3 35 -6 35 -6 0 -1 34 -3 75 -6 65 -4 112 -11 263 -41 16 -3 46 -12 67 -19
21 -7 41 -11 44 -8 3 4 6 2 6 -3 0 -5 8 -10 18 -11 9 -1 28 -6 42 -11 14 -5
27 -10 30 -10 3 -1 32 -13 65 -28 74 -32 99 -42 105 -40 3 0 22 -10 43 -22 20
-13 37 -21 37 -18 0 3 20 -6 45 -20 25 -13 45 -22 45 -18 0 4 6 2 13 -3 37
-29 45 -23 43 35 -3 93 -43 146 -174 236 -82 55 -242 142 -242 131 0 -4 -12 1
-27 9 -74 40 -293 94 -458 111 -27 3 -61 10 -75 15 -50 17 -76 18 -102 4z"/>
<path d="M5675 8646 c-16 -41 -16 -46 0 -79 16 -34 17 -35 35 -17 47 47 51
134 6 138 -20 1 -27 -6 -41 -42z"/>
<path d="M5127 7053 c-1 -1 -31 -4 -67 -7 -96 -10 -132 -14 -165 -20 -16 -3
-50 -9 -75 -12 -25 -3 -48 -8 -52 -10 -4 -3 -26 -7 -49 -10 -53 -8 -201 -64
-266 -102 -26 -15 -61 -34 -77 -42 -66 -34 -73 -108 -15 -153 30 -23 43 -25
104 -11 17 3 39 7 50 9 11 1 21 4 23 5 1 1 11 4 22 5 11 1 21 4 23 5 1 1 13 3
27 5 33 3 99 14 130 21 14 2 43 7 65 9 22 3 51 7 65 10 14 2 36 7 50 10 14 2
48 7 75 10 28 3 64 7 80 10 147 26 487 37 627 22 149 -16 225 -56 292 -155 44
-65 65 -71 115 -34 38 28 41 74 10 138 -56 116 -218 215 -409 250 -14 2 -45 9
-70 14 -46 11 -71 14 -170 26 -48 6 -339 12 -343 7z"/>
<path d="M4778 5895 c-2 -2 -32 -6 -68 -10 -36 -4 -74 -9 -85 -11 -43 -8 -91
-19 -155 -35 -25 -6 -55 -13 -68 -15 -89 -17 -202 -92 -202 -134 0 -20 50 -50
81 -49 121 4 591 -21 699 -37 19 -3 53 -7 75 -9 22 -2 40 -4 40 -5 0 -1 11 -3
25 -5 41 -6 80 -24 81 -37 0 -7 1 -46 2 -86 2 -81 18 -105 60 -94 21 5 98 53
123 77 7 5 31 26 55 45 24 19 50 42 59 50 9 8 34 28 55 44 105 79 112 131 22
178 -23 12 -44 22 -47 23 -3 0 -34 11 -70 22 -58 20 -161 48 -215 59 -22 5
-59 11 -120 20 -41 6 -342 13 -347 9z"/>
<path d="M4409 4495 c-3 -2 -22 -5 -43 -7 -20 -1 -40 -6 -42 -10 -3 -5 -9 -6
-13 -3 -8 4 -205 -51 -226 -63 -5 -4 -15 -7 -20 -8 -6 -1 -45 -16 -87 -34 -43
-17 -80 -31 -83 -31 -9 2 -41 -32 -54 -56 -24 -48 -3 -101 50 -123 27 -12 106
-10 229 6 45 5 369 5 395 0 11 -3 25 -5 32 -5 10 -1 -24 -107 -57 -176 -5 -11
-23 -56 -40 -100 -42 -109 -43 -110 -116 -280 -36 -82 -73 -168 -82 -190 -9
-22 -19 -42 -22 -45 -3 -3 -23 -41 -45 -85 -22 -44 -55 -107 -74 -140 -18 -33
-39 -69 -45 -80 -32 -56 -143 -223 -155 -235 -9 -8 -29 -42 -47 -80 -13 -26
-17 -66 -18 -162 l-1 -126 37 -36 c31 -30 44 -36 82 -36 56 0 85 31 116 127
13 37 25 73 29 78 3 6 6 15 7 22 2 14 190 510 219 578 7 17 19 48 26 70 7 22
17 44 21 50 4 5 8 15 8 21 0 7 5 25 12 41 6 15 12 33 14 38 1 6 17 48 34 95
17 47 33 90 34 95 2 6 11 37 21 70 22 71 16 50 60 209 35 125 62 184 101 217
22 20 105 49 138 49 32 0 86 39 109 77 10 18 20 55 21 83 3 43 -1 56 -23 81
-14 16 -29 29 -34 29 -4 0 -27 9 -50 19 -24 11 -56 22 -72 26 -17 4 -37 9 -45
12 -8 3 -22 8 -30 10 -21 7 -266 14 -271 8z"/>
</g>
</svg>
